<svg width="24" height="24" viewBox="0 0 24 24" fill="none" xmlns="http://www.w3.org/2000/svg">
<g clip-path="url(#clip0_403_1996)">
<path d="M12.9996 2.051V1C12.9996 0.734784 12.8942 0.48043 12.7067 0.292893C12.5191 0.105357 12.2648 0 11.9996 0C11.7343 0 11.48 0.105357 11.2925 0.292893C11.1049 0.48043 10.9996 0.734784 10.9996 1V2.051C8.98633 2.23149 7.06199 2.9642 5.43855 4.16842C3.81512 5.37264 2.55559 7.00161 1.79875 8.87588C1.04191 10.7501 0.817123 12.797 1.14916 14.7908C1.4812 16.7847 2.35717 18.6482 3.68057 20.176C3.15793 20.4345 2.7212 20.8387 2.42295 21.3397C2.12471 21.8407 1.97767 22.4173 1.99957 23C1.99957 23.2652 2.10492 23.5196 2.29246 23.7071C2.48 23.8946 2.73435 24 2.99957 24C3.26478 24 3.51914 23.8946 3.70667 23.7071C3.89421 23.5196 3.99957 23.2652 3.99957 23C3.99125 22.6918 4.10191 22.3922 4.30858 22.1633C4.51526 21.9345 4.80208 21.794 5.10957 21.771C5.17835 21.7579 5.24544 21.7371 5.30957 21.709C7.2251 23.1947 9.5804 24.001 12.0046 24.001C14.4287 24.001 16.784 23.1947 18.6996 21.709C18.7581 21.736 18.819 21.7574 18.8816 21.773C19.1901 21.794 19.4786 21.9334 19.6869 22.162C19.8952 22.3906 20.0072 22.6908 19.9996 23C19.9996 23.2652 20.1049 23.5196 20.2925 23.7071C20.48 23.8946 20.7343 24 20.9996 24C21.2648 24 21.5191 23.8946 21.7067 23.7071C21.8942 23.5196 21.9996 23.2652 21.9996 23C22.0215 22.4173 21.8744 21.8407 21.5762 21.3397C21.2779 20.8387 20.8412 20.4345 20.3186 20.176C21.642 18.6482 22.5179 16.7847 22.85 14.7908C23.182 12.797 22.9572 10.7501 22.2004 8.87588C21.4435 7.00161 20.184 5.37264 18.5606 4.16842C16.9371 2.9642 15.0128 2.23149 12.9996 2.051ZM2.99957 13C2.99957 11.22 3.52741 9.47991 4.51634 7.99987C5.50527 6.51983 6.91088 5.36627 8.55541 4.68508C10.1999 4.0039 12.0095 3.82567 13.7554 4.17293C15.5012 4.5202 17.1049 5.37737 18.3635 6.63604C19.6222 7.89471 20.4794 9.49836 20.8266 11.2442C21.1739 12.99 20.9957 14.7996 20.3145 16.4442C19.6333 18.0887 18.4797 19.4943 16.9997 20.4832C15.5197 21.4722 13.7796 22 11.9996 22C9.61351 21.9971 7.32602 21.0479 5.63882 19.3607C3.95162 17.6736 3.00248 15.3861 2.99957 13Z" fill="black"/>
<path d="M19.2148 0.000100327C18.9496 0.000100327 18.6953 0.105457 18.5077 0.292994C18.3202 0.48053 18.2148 0.734884 18.2148 1.0001C18.2148 1.26532 18.3202 1.51967 18.5077 1.70721C18.6953 1.89474 18.9496 2.0001 19.2148 2.0001C19.5636 1.97359 19.914 2.01798 20.2451 2.13058C20.5762 2.24318 20.881 2.42167 21.1413 2.65528C21.4015 2.88889 21.6118 3.17279 21.7593 3.48985C21.9069 3.80691 21.9887 4.15056 21.9998 4.5001C21.9998 4.76532 22.1052 5.01967 22.2927 5.20721C22.4803 5.39474 22.7346 5.5001 22.9998 5.5001C23.2651 5.5001 23.5194 5.39474 23.707 5.20721C23.8945 5.01967 23.9998 4.76532 23.9998 4.5001C23.987 3.8886 23.8524 3.28578 23.6039 2.72693C23.3553 2.16808 22.9978 1.66441 22.5522 1.24538C22.1067 0.826364 21.582 0.500407 21.009 0.286584C20.4359 0.072762 19.826 -0.024632 19.2148 0.000100327Z" fill="black"/>
<path d="M2 4.5001C2.01115 4.15056 2.09296 3.80691 2.24052 3.48985C2.38807 3.17279 2.59831 2.88889 2.85855 2.65528C3.11879 2.42167 3.42365 2.24318 3.75474 2.13058C4.08583 2.01798 4.43629 1.97359 4.785 2.0001C5.05022 2.0001 5.30457 1.89474 5.49211 1.70721C5.67964 1.51967 5.785 1.26532 5.785 1.0001C5.785 0.734884 5.67964 0.48053 5.49211 0.292994C5.30457 0.105457 5.05022 0.000100327 4.785 0.000100327C4.17386 -0.024632 3.56393 0.072762 2.99088 0.286584C2.41784 0.500407 1.89319 0.826364 1.44763 1.24538C1.00207 1.66441 0.644547 2.16808 0.395981 2.72693C0.147415 3.28578 0.0127962 3.8886 0 4.5001C0 4.76532 0.105357 5.01967 0.292893 5.20721C0.48043 5.39474 0.734784 5.5001 1 5.5001C1.26522 5.5001 1.51957 5.39474 1.70711 5.20721C1.89464 5.01967 2 4.76532 2 4.5001Z" fill="black"/>
<path d="M13 11.586V7C13 6.73478 12.8946 6.48043 12.7071 6.29289C12.5196 6.10536 12.2652 6 12 6C11.7348 6 11.4804 6.10536 11.2929 6.29289C11.1054 6.48043 11 6.73478 11 7V12C11.0001 12.2652 11.1055 12.5195 11.293 12.707L14.293 15.707C14.4816 15.8892 14.7342 15.99 14.9964 15.9877C15.2586 15.9854 15.5094 15.8802 15.6948 15.6948C15.8802 15.5094 15.9854 15.2586 15.9877 14.9964C15.99 14.7342 15.8892 14.4816 15.707 14.293L13 11.586Z" fill="black"/>
</g>
<defs>
<clipPath id="clip0_403_1996">
<rect width="24" height="24" fill="white"/>
</clipPath>
</defs>
</svg>
