<svg width="24" height="24" viewBox="0 0 24 24" fill="none" xmlns="http://www.w3.org/2000/svg">
<g clip-path="url(#clip0_403_2049)">
<path d="M23.7102 16.2901L15.5402 8.12006C15.0757 7.65443 14.524 7.285 13.9165 7.03294C13.3091 6.78087 12.6579 6.65112 12.0002 6.65112C11.3425 6.65112 10.6913 6.78087 10.0838 7.03294C9.4764 7.285 8.92464 7.65443 8.46019 8.12006L0.290185 16.2901C0.101882 16.4784 -0.00390625 16.7338 -0.00390625 17.0001C-0.00390625 17.2664 0.101882 17.5218 0.290185 17.7101C0.478489 17.8984 0.733884 18.0042 1.00019 18.0042C1.26649 18.0042 1.52188 17.8984 1.71019 17.7101L9.88019 9.54006C10.4427 8.97826 11.2052 8.6627 12.0002 8.6627C12.7952 8.6627 13.5577 8.97826 14.1202 9.54006L22.2902 17.7101C22.3832 17.8038 22.4938 17.8782 22.6156 17.929C22.7375 17.9797 22.8682 18.0059 23.0002 18.0059C23.1322 18.0059 23.2629 17.9797 23.3848 17.929C23.5066 17.8782 23.6172 17.8038 23.7102 17.7101C23.8039 17.6171 23.8783 17.5065 23.9291 17.3846C23.9798 17.2628 24.006 17.1321 24.006 17.0001C24.006 16.868 23.9798 16.7373 23.9291 16.6155C23.8783 16.4936 23.8039 16.383 23.7102 16.2901Z" fill="black"/>
</g>
<defs>
<clipPath id="clip0_403_2049">
<rect width="24" height="24" fill="white"/>
</clipPath>
</defs>
</svg>
