<svg width="24" height="24" viewBox="0 0 24 24" fill="none" xmlns="http://www.w3.org/2000/svg">
<g clip-path="url(#clip0_403_2023)">
<path d="M12.0013 23.9999C11.8697 24.0007 11.7392 23.9755 11.6174 23.9257C11.4955 23.8759 11.3847 23.8026 11.2913 23.7099L3.12128 15.5399C2.65565 15.0755 2.28622 14.5237 2.03416 13.9163C1.78209 13.3088 1.65234 12.6576 1.65234 11.9999C1.65234 11.3423 1.78209 10.6911 2.03416 10.0836C2.28622 9.47615 2.65565 8.9244 3.12128 8.45994L11.2913 0.289941C11.4796 0.101638 11.735 -0.00415039 12.0013 -0.00415039C12.2676 -0.00415039 12.523 0.101638 12.7113 0.289941C12.8996 0.478245 13.0054 0.73364 13.0054 0.999941C13.0054 1.26624 12.8996 1.52164 12.7113 1.70994L4.54128 9.87994C3.97948 10.4424 3.66392 11.2049 3.66392 11.9999C3.66392 12.7949 3.97948 13.5574 4.54128 14.1199L12.7113 22.2899C12.805 22.3829 12.8794 22.4935 12.9302 22.6154C12.9809 22.7372 13.0071 22.8679 13.0071 22.9999C13.0071 23.132 12.9809 23.2627 12.9302 23.3845C12.8794 23.5064 12.805 23.617 12.7113 23.7099C12.6178 23.8026 12.507 23.8759 12.3852 23.9257C12.2634 23.9755 12.1329 24.0007 12.0013 23.9999Z" fill="black"/>
<path d="M21.9994 23.9999C21.8678 24.0007 21.7373 23.9755 21.6155 23.9257C21.4936 23.8759 21.3828 23.8026 21.2894 23.7099L11.7094 14.1199C11.1476 13.5574 10.832 12.7949 10.832 11.9999C10.832 11.2049 11.1476 10.4424 11.7094 9.87994L21.2894 0.289941C21.4777 0.101638 21.7331 -0.00415039 21.9994 -0.00415039C22.2657 -0.00415039 22.5211 0.101638 22.7094 0.289941C22.8977 0.478245 23.0035 0.73364 23.0035 0.999941C23.0035 1.26624 22.8977 1.52164 22.7094 1.70994L13.1194 11.2899C13.0257 11.3829 12.9513 11.4935 12.9005 11.6154C12.8497 11.7372 12.8236 11.8679 12.8236 11.9999C12.8236 12.132 12.8497 12.2627 12.9005 12.3845C12.9513 12.5064 13.0257 12.617 13.1194 12.7099L22.7094 22.2899C22.8031 22.3829 22.8775 22.4935 22.9283 22.6154C22.9791 22.7372 23.0052 22.8679 23.0052 22.9999C23.0052 23.132 22.9791 23.2627 22.9283 23.3845C22.8775 23.5064 22.8031 23.617 22.7094 23.7099C22.616 23.8026 22.5051 23.8759 22.3833 23.9257C22.2615 23.9755 22.131 24.0007 21.9994 23.9999Z" fill="black"/>
</g>
<defs>
<clipPath id="clip0_403_2023">
<rect width="24" height="24" fill="white"/>
</clipPath>
</defs>
</svg>
