<svg width="24" height="24" viewBox="0 0 24 24" fill="none" xmlns="http://www.w3.org/2000/svg">
<g clip-path="url(#clip0_403_2037)">
<path d="M17.1693 23.9999C17.0376 24.0007 16.9072 23.9754 16.7853 23.9257C16.6635 23.8759 16.5527 23.8026 16.4592 23.7099L8.28925 15.5399C7.82362 15.0755 7.45419 14.5237 7.20213 13.9163C6.95006 13.3088 6.82031 12.6576 6.82031 11.9999C6.82031 11.3423 6.95006 10.691 7.20213 10.0836C7.45419 9.47614 7.82362 8.92439 8.28925 8.45993L16.4592 0.289941C16.5525 0.196702 16.6632 0.122742 16.785 0.0722815C16.9068 0.0218212 17.0374 -0.00415039 17.1693 -0.00415039C17.3011 -0.00415039 17.4317 0.0218212 17.5535 0.0722814C17.6753 0.122742 17.786 0.196702 17.8792 0.289941C17.9725 0.383179 18.0465 0.493869 18.0969 0.615691C18.1474 0.737513 18.1733 0.868081 18.1733 0.99994C18.1733 1.1318 18.1474 1.26237 18.0969 1.38419C18.0465 1.50601 17.9725 1.6167 17.8792 1.70994L9.70925 9.87993C9.14745 10.4424 8.83189 11.2049 8.83189 11.9999C8.83189 12.7949 9.14745 13.5574 9.70925 14.1199L17.8792 22.2899C17.973 22.3829 18.0474 22.4935 18.0981 22.6153C18.1489 22.7372 18.175 22.8679 18.175 22.9999C18.175 23.1319 18.1489 23.2626 18.0981 23.3845C18.0474 23.5063 17.973 23.6169 17.8792 23.7099C17.7858 23.8026 17.675 23.8759 17.5532 23.9257C17.4313 23.9754 17.3009 24.0007 17.1693 23.9999Z" fill="black"/>
</g>
<defs>
<clipPath id="clip0_403_2037">
<rect width="24" height="24" fill="white"/>
</clipPath>
</defs>
</svg>
