<svg width="24" height="24" viewBox="0 0 24 24" fill="none" xmlns="http://www.w3.org/2000/svg">
<path d="M18.0002 15.5C17.8686 15.5008 17.7381 15.4756 17.6163 15.4258C17.4944 15.3761 17.3836 15.3027 17.2902 15.21L12.7102 10.6201C12.6172 10.5263 12.5066 10.4519 12.3848 10.4012C12.2629 10.3504 12.1322 10.3243 12.0002 10.3243C11.8682 10.3243 11.7375 10.3504 11.6156 10.4012C11.4937 10.4519 11.3831 10.5263 11.2902 10.6201L6.71019 15.21C6.52188 15.3984 6.26649 15.5041 6.00019 15.5041C5.73388 15.5041 5.47849 15.3984 5.29019 15.21C5.10188 15.0217 4.99609 14.7664 4.99609 14.5001C4.99609 14.3682 5.02207 14.2376 5.07253 14.1158C5.12299 13.994 5.19695 13.8833 5.29019 13.7901L9.88019 9.21006C10.4501 8.6625 11.2098 8.35669 12.0002 8.35669C12.7905 8.35669 13.5502 8.6625 14.1202 9.21006L18.7102 13.7901C18.8039 13.883 18.8783 13.9936 18.9291 14.1155C18.9798 14.2373 19.006 14.368 19.006 14.5001C19.006 14.6321 18.9798 14.7628 18.9291 14.8846C18.8783 15.0065 18.8039 15.1171 18.7102 15.21C18.6167 15.3027 18.5059 15.3761 18.3841 15.4258C18.2623 15.4756 18.1318 15.5008 18.0002 15.5Z" fill="black"/>
</svg>
