<svg width="24" height="24" viewBox="0 0 24 24" fill="none" xmlns="http://www.w3.org/2000/svg">
<path d="M10.4799 19.0001C10.2175 18.999 9.96612 18.8948 9.77986 18.7101L5.18986 14.1201C4.62806 13.5576 4.3125 12.7951 4.3125 12.0001C4.3125 11.2051 4.62806 10.4426 5.18986 9.88006L9.77986 5.29006C9.96722 5.10381 10.2207 4.99927 10.4849 4.99927C10.749 4.99927 11.0025 5.10381 11.1899 5.29006C11.2836 5.38302 11.358 5.49362 11.4088 5.61548C11.4595 5.73734 11.4857 5.86805 11.4857 6.00006C11.4857 6.13207 11.4595 6.26278 11.4088 6.38464C11.358 6.5065 11.2836 6.6171 11.1899 6.71006L6.59986 11.2901C6.50613 11.383 6.43174 11.4936 6.38097 11.6155C6.3302 11.7373 6.30406 11.868 6.30406 12.0001C6.30406 12.1321 6.3302 12.2628 6.38097 12.3846C6.43174 12.5065 6.50613 12.6171 6.59986 12.7101L11.1899 17.2901C11.2836 17.383 11.358 17.4936 11.4088 17.6155C11.4595 17.7373 11.4857 17.868 11.4857 18.0001C11.4857 18.1321 11.4595 18.2628 11.4088 18.3846C11.358 18.5065 11.2836 18.6171 11.1899 18.7101C11.0964 18.8027 10.9856 18.8761 10.8638 18.9258C10.7419 18.9756 10.6115 19.0008 10.4799 19.0001Z" fill="black"/>
<path d="M17.4802 19.0001C17.2178 18.999 16.9664 18.8948 16.7802 18.7101L10.7802 12.7101C10.6864 12.6171 10.6121 12.5065 10.5613 12.3846C10.5105 12.2628 10.4844 12.1321 10.4844 12.0001C10.4844 11.868 10.5105 11.7373 10.5613 11.6155C10.6121 11.4936 10.6864 11.383 10.7802 11.2901L16.7802 5.29006C16.9675 5.10381 17.221 4.99927 17.4852 4.99927C17.7493 4.99927 18.0028 5.10381 18.1902 5.29006C18.2839 5.38302 18.3583 5.49362 18.4091 5.61548C18.4598 5.73734 18.486 5.86805 18.486 6.00006C18.486 6.13207 18.4598 6.26278 18.4091 6.38464C18.3583 6.5065 18.2839 6.6171 18.1902 6.71006L12.9002 12.0001L18.1902 17.2901C18.2839 17.383 18.3583 17.4936 18.4091 17.6155C18.4598 17.7373 18.486 17.868 18.486 18.0001C18.486 18.1321 18.4598 18.2628 18.4091 18.3846C18.3583 18.5065 18.2839 18.6171 18.1902 18.7101C18.0967 18.8027 17.9859 18.8761 17.8641 18.9258C17.7422 18.9756 17.6118 19.0008 17.4802 19.0001Z" fill="black"/>
</svg>
