<svg width="24" height="24" viewBox="0 0 24 24" fill="none" xmlns="http://www.w3.org/2000/svg">
<path d="M15.4013 9.88006L10.8113 5.29006C10.6239 5.10381 10.3705 4.99927 10.1063 4.99927C9.84208 4.99927 9.58863 5.10381 9.40127 5.29006C9.30754 5.38302 9.23314 5.49362 9.18238 5.61548C9.13161 5.73734 9.10547 5.86805 9.10547 6.00006C9.10547 6.13207 9.13161 6.26278 9.18238 6.38464C9.23314 6.5065 9.30754 6.6171 9.40127 6.71006L14.0013 11.2901C14.095 11.383 14.1694 11.4936 14.2202 11.6155C14.2709 11.7373 14.2971 11.868 14.2971 12.0001C14.2971 12.1321 14.2709 12.2628 14.2202 12.3846C14.1694 12.5065 14.095 12.6171 14.0013 12.7101L9.40127 17.2901C9.21296 17.477 9.10665 17.7312 9.10571 17.9965C9.10477 18.2619 9.20929 18.5168 9.39627 18.7051C9.58325 18.8934 9.83737 18.9997 10.1027 19.0006C10.3681 19.0016 10.623 18.897 10.8113 18.7101L15.4013 14.1201C15.9631 13.5576 16.2786 12.7951 16.2786 12.0001C16.2786 11.2051 15.9631 10.4426 15.4013 9.88006Z" fill="black"/>
</svg>
