<svg width="24" height="24" viewBox="0 0 24 24" fill="none" xmlns="http://www.w3.org/2000/svg">
<g clip-path="url(#clip0_403_2051)">
<path d="M17.2454 6.19301C18.2393 5.10476 18.8495 3.72086 18.9824 2.25301C19.0209 1.95033 18.9897 1.64284 18.8911 1.35408C18.7925 1.06532 18.6292 0.80295 18.4136 0.587049C18.1979 0.371148 17.9358 0.207442 17.6472 0.108464C17.3585 0.0094849 17.0511 -0.0221426 16.7484 0.0160022C15.8379 0.087504 14.9538 0.355535 14.1569 0.801628C13.36 1.24772 12.6693 1.86127 12.1324 2.60001C11.7924 1.74937 11.3117 0.962039 10.7104 0.271003C10.5238 0.0860312 10.2719 -0.0180701 10.0091 -0.018795C9.74638 -0.0195199 9.49391 0.0831899 9.3063 0.267129C9.11868 0.451068 9.01099 0.701456 9.00651 0.964161C9.00204 1.22687 9.10113 1.48078 9.28237 1.671C10.2737 2.90543 10.8538 4.4192 10.9414 6.00001H8.49937C6.18027 6.07088 3.98373 7.05774 2.39064 8.74455C0.797548 10.4313 -0.0622907 12.6807 -0.000631098 15C-0.161631 20.6 5.64337 25.773 10.7494 23.385C11.1393 23.1371 11.5926 23.007 12.0547 23.0103C12.5168 23.0137 12.9681 23.1504 13.3544 23.404C14.0072 23.7815 14.7454 23.9866 15.4994 24C25.7634 23.716 27.0654 8.58201 17.2454 6.19301ZM14.2224 3.16801C14.9981 2.4897 15.9721 2.08004 16.9994 2C16.9174 3.02517 16.5083 3.99689 15.8324 4.77201C15.056 5.44989 14.0819 5.85948 13.0544 5.94001C13.1356 4.91448 13.5452 3.94243 14.2224 3.16801ZM15.4994 22C15.0587 21.9831 14.63 21.8518 14.2554 21.619C13.5689 21.2226 12.792 21.0094 11.9994 21C11.2489 21.0175 10.5145 21.2212 9.86237 21.593C6.00437 23.261 1.89937 19.141 1.99937 15C1.9377 13.211 2.58684 11.4704 3.80487 10.1587C5.0229 8.84697 6.71074 8.07085 8.49937 8.00001H15.4994C24.0994 8.32101 24.0994 21.682 15.4994 22Z" fill="black"/>
</g>
<defs>
<clipPath id="clip0_403_2051">
<rect width="24" height="24" fill="white"/>
</clipPath>
</defs>
</svg>
