<svg width="24" height="24" viewBox="0 0 24 24" fill="none" xmlns="http://www.w3.org/2000/svg">
<g clip-path="url(#clip0_403_2072)">
<path d="M20 0H4C2.93913 0 1.92172 0.421427 1.17157 1.17157C0.421427 1.92172 0 2.93913 0 4L0 7C0 8.06087 0.421427 9.07828 1.17157 9.82843C1.92172 10.5786 2.93913 11 4 11H20C21.0609 11 22.0783 10.5786 22.8284 9.82843C23.5786 9.07828 24 8.06087 24 7V4C24 2.93913 23.5786 1.92172 22.8284 1.17157C22.0783 0.421427 21.0609 0 20 0ZM22 7C22 7.53043 21.7893 8.03914 21.4142 8.41421C21.0391 8.78929 20.5304 9 20 9H4C3.46957 9 2.96086 8.78929 2.58579 8.41421C2.21071 8.03914 2 7.53043 2 7V4C2 3.46957 2.21071 2.96086 2.58579 2.58579C2.96086 2.21071 3.46957 2 4 2H20C20.5304 2 21.0391 2.21071 21.4142 2.58579C21.7893 2.96086 22 3.46957 22 4V7Z" fill="black"/>
<path d="M20 13H4C2.93913 13 1.92172 13.4214 1.17157 14.1716C0.421427 14.9217 0 15.9391 0 17L0 20C0 21.0609 0.421427 22.0783 1.17157 22.8284C1.92172 23.5786 2.93913 24 4 24H20C21.0609 24 22.0783 23.5786 22.8284 22.8284C23.5786 22.0783 24 21.0609 24 20V17C24 15.9391 23.5786 14.9217 22.8284 14.1716C22.0783 13.4214 21.0609 13 20 13ZM22 20C22 20.5304 21.7893 21.0392 21.4142 21.4142C21.0391 21.7893 20.5304 22 20 22H4C3.46957 22 2.96086 21.7893 2.58579 21.4142C2.21071 21.0392 2 20.5304 2 20V17C2 16.4696 2.21071 15.9609 2.58579 15.5858C2.96086 15.2107 3.46957 15 4 15H20C20.5304 15 21.0391 15.2107 21.4142 15.5858C21.7893 15.9609 22 16.4696 22 17V20Z" fill="black"/>
</g>
<defs>
<clipPath id="clip0_403_2072">
<rect width="24" height="24" fill="white"/>
</clipPath>
</defs>
</svg>
