<svg width="24" height="24" viewBox="0 0 24 24" fill="none" xmlns="http://www.w3.org/2000/svg">
<path d="M17.7108 12.71C17.6178 12.6163 17.5072 12.5419 17.3854 12.4911C17.2635 12.4403 17.1328 12.4142 17.0008 12.4142C16.8688 12.4142 16.7381 12.4403 16.6162 12.4911C16.4944 12.5419 16.3838 12.6163 16.2908 12.71L13.0008 16V6C13.0008 5.73478 12.8954 5.48043 12.7079 5.29289C12.5204 5.10536 12.266 5 12.0008 5C11.7356 5 11.4812 5.10536 11.2937 5.29289C11.1061 5.48043 11.0008 5.73478 11.0008 6V16L7.71079 12.71C7.61783 12.6163 7.50723 12.5419 7.38537 12.4911C7.26351 12.4403 7.1328 12.4142 7.00079 12.4142C6.86878 12.4142 6.73807 12.4403 6.61622 12.4911C6.49436 12.5419 6.38376 12.6163 6.29079 12.71C6.10454 12.8974 6 13.1508 6 13.415C6 13.6792 6.10454 13.9326 6.29079 14.12L10.5908 18.41C10.9641 18.7856 11.4712 18.9978 12.0008 19C12.5269 18.9951 13.0299 18.7832 13.4008 18.41L17.7008 14.12C17.8884 13.934 17.9947 13.6813 17.9966 13.4171C17.9985 13.1529 17.8957 12.8987 17.7108 12.71Z" fill="black"/>
</svg>
