<svg width="24" height="24" viewBox="0 0 24 24" fill="none" xmlns="http://www.w3.org/2000/svg">
<g clip-path="url(#clip0_403_2087)">
<path d="M18.375 2.6625L12.8737 2.63422C12.7417 2.63368 12.6109 2.65928 12.4888 2.70955C12.3667 2.75982 12.2558 2.83376 12.1625 2.92711C12.0691 3.02045 11.9952 3.13136 11.9449 3.25342C11.8947 3.37549 11.8691 3.5063 11.8696 3.63831C11.8704 3.9025 11.9757 4.15564 12.1625 4.34244C12.3493 4.52925 12.6024 4.63455 12.8666 4.63533L17.9224 4.65655L3.50454 19.0745C3.317 19.262 3.21164 19.5163 3.21164 19.7816C3.21164 20.0468 3.317 20.3011 3.50454 20.4887C3.69207 20.6762 3.94643 20.7816 4.21164 20.7816C4.47686 20.7816 4.73121 20.6762 4.91875 20.4887L19.3791 6.02833L19.372 11.1407C19.3715 11.2727 19.3971 11.4035 19.4473 11.5256C19.4976 11.6477 19.5716 11.7586 19.6649 11.8519C19.7582 11.9453 19.8691 12.0192 19.9912 12.0695C20.1133 12.1197 20.2441 12.1453 20.3761 12.1448C20.5081 12.1453 20.6389 12.1197 20.761 12.0695C20.8831 12.0192 20.994 11.9453 21.0873 11.8519C21.1807 11.7586 21.2546 11.6477 21.3049 11.5256C21.3551 11.4035 21.3807 11.2727 21.3802 11.1407L21.3731 5.66064C21.3726 4.86563 21.0566 4.10334 20.4944 3.54118C19.9323 2.97903 19.17 2.663 18.375 2.6625Z" fill="black"/>
</g>
<defs>
<clipPath id="clip0_403_2087">
<rect width="24" height="24" fill="white"/>
</clipPath>
</defs>
</svg>
