<svg width="24" height="24" viewBox="0 0 24 24" fill="none" xmlns="http://www.w3.org/2000/svg">
<path d="M17.9985 22H12.9985V2.82298L17.2985 7.12298C17.4871 7.30514 17.7398 7.40593 18.0019 7.40365C18.2641 7.40138 18.515 7.29621 18.7004 7.1108C18.8858 6.92539 18.9909 6.67458 18.9932 6.41238C18.9955 6.15019 18.8947 5.89758 18.7125 5.70898L13.7665 0.762983C13.5344 0.530767 13.2588 0.34656 12.9554 0.220882C12.652 0.0952038 12.3269 0.0305176 11.9985 0.0305176C11.6702 0.0305176 11.345 0.0952038 11.0417 0.220882C10.7383 0.34656 10.4627 0.530767 10.2305 0.762983L5.28055 5.71298C5.09304 5.90102 4.98791 6.15584 4.98828 6.42139C4.98866 6.68695 5.09451 6.94147 5.28255 7.12898C5.47058 7.31649 5.72541 7.42162 5.99096 7.42124C6.25651 7.42087 6.51104 7.31502 6.69855 7.12698L10.9985 2.82698V22H5.99855C5.73333 22 5.47898 22.1053 5.29144 22.2929C5.1039 22.4804 4.99855 22.7348 4.99855 23C4.99855 23.2652 5.1039 23.5195 5.29144 23.7071C5.47898 23.8946 5.73333 24 5.99855 24H17.9985C18.2638 24 18.5181 23.8946 18.7057 23.7071C18.8932 23.5195 18.9985 23.2652 18.9985 23C18.9985 22.7348 18.8932 22.4804 18.7057 22.2929C18.5181 22.1053 18.2638 22 17.9985 22Z" fill="black"/>
</svg>
