<svg width="24" height="24" viewBox="0 0 24 24" fill="none" xmlns="http://www.w3.org/2000/svg">
<path d="M19 12.9999L9 12.9999L12.29 16.2899C12.3837 16.3829 12.4581 16.4935 12.5089 16.6154C12.5597 16.7372 12.5858 16.8679 12.5858 16.9999C12.5858 17.132 12.5597 17.2627 12.5089 17.3845C12.4581 17.5064 12.3837 17.617 12.29 17.7099C12.1026 17.8962 11.8492 18.0007 11.585 18.0007C11.3208 18.0007 11.0674 17.8962 10.88 17.7099L6.59 13.4099C6.21441 13.0366 6.00223 12.5295 6 11.9999C6.00487 11.4738 6.21684 10.9708 6.59 10.5999L10.88 6.29995C10.9732 6.20737 11.0838 6.13406 11.2054 6.08421C11.3269 6.03435 11.4571 6.00893 11.5885 6.0094C11.7199 6.00986 11.8499 6.0362 11.9712 6.08691C12.0924 6.13763 12.2024 6.21172 12.295 6.30495C12.3876 6.39819 12.4609 6.50875 12.5107 6.63032C12.5606 6.75189 12.586 6.88209 12.5856 7.01349C12.5851 7.14488 12.5588 7.2749 12.508 7.39611C12.4573 7.51733 12.3832 7.62737 12.29 7.71995L9 10.9999L19 10.9999C19.2652 10.9999 19.5196 11.1053 19.7071 11.2928C19.8946 11.4804 20 11.7347 20 11.9999C20 12.2652 19.8946 12.5195 19.7071 12.7071C19.5196 12.8946 19.2652 12.9999 19 12.9999Z" fill="black"/>
</svg>
