<svg width="24" height="24" viewBox="0 0 24 24" fill="none" xmlns="http://www.w3.org/2000/svg">
<path d="M0.879313 14.0899L4.74931 17.9999C4.84228 18.0936 4.95288 18.168 5.07474 18.2188C5.1966 18.2696 5.3273 18.2957 5.45931 18.2957C5.59133 18.2957 5.72203 18.2696 5.84389 18.2188C5.96575 18.168 6.07635 18.0936 6.16931 17.9999C6.26304 17.9069 6.33744 17.7963 6.3882 17.6745C6.43897 17.5526 6.46511 17.4219 6.46511 17.2899C6.46511 17.1579 6.43897 17.0272 6.3882 16.9053C6.33744 16.7835 6.26304 16.6729 6.16931 16.5799L2.60931 12.9999H22.9993C23.2645 12.9999 23.5189 12.8945 23.7064 12.707C23.894 12.5195 23.9993 12.2651 23.9993 11.9999C23.9993 11.7347 23.894 11.4803 23.7064 11.2928C23.5189 11.1053 23.2645 10.9999 22.9993 10.9999H2.54931L6.16931 7.3799C6.3466 7.19392 6.4455 6.94684 6.4455 6.6899C6.4455 6.43296 6.3466 6.18588 6.16931 5.9999C6.07635 5.90617 5.96575 5.83178 5.84389 5.78101C5.72203 5.73024 5.59133 5.7041 5.45931 5.7041C5.3273 5.7041 5.1966 5.73024 5.07474 5.78101C4.95288 5.83178 4.84228 5.90617 4.74931 5.9999L0.879313 9.8499C0.317511 10.4124 0.00195313 11.1749 0.00195312 11.9699C0.00195312 12.7649 0.317511 13.5274 0.879313 14.0899Z" fill="black"/>
</svg>
