<svg width="24" height="24" viewBox="0 0 24 24" fill="none" xmlns="http://www.w3.org/2000/svg">
<g clip-path="url(#clip0_403_2097)">
<path d="M5.99978 6.21005C6.18714 6.3963 6.44059 6.50085 6.70478 6.50085C6.96896 6.50085 7.22241 6.3963 7.40978 6.21005L10.9998 2.58005V23.0001C10.9998 23.2653 11.1051 23.5196 11.2927 23.7072C11.4802 23.8947 11.7346 24.0001 11.9998 24.0001C12.265 24.0001 12.5193 23.8947 12.7069 23.7072C12.8944 23.5196 12.9998 23.2653 12.9998 23.0001V2.59005L16.6198 6.21005C16.7127 6.30378 16.8233 6.37818 16.9452 6.42894C17.0671 6.47971 17.1978 6.50585 17.3298 6.50585C17.4618 6.50585 17.5925 6.47971 17.7144 6.42894C17.8362 6.37818 17.9468 6.30378 18.0398 6.21005C18.226 6.02269 18.3306 5.76924 18.3306 5.50505C18.3306 5.24087 18.226 4.98741 18.0398 4.80005L14.1298 0.880047C13.5673 0.318244 12.8048 0.00268555 12.0098 0.00268555C11.2148 0.00268555 10.4523 0.318244 9.88978 0.880047L5.99978 4.80005C5.81353 4.98741 5.70898 5.24087 5.70898 5.50505C5.70898 5.76924 5.81353 6.02269 5.99978 6.21005Z" fill="black"/>
</g>
<defs>
<clipPath id="clip0_403_2097">
<rect width="24" height="24" fill="white"/>
</clipPath>
</defs>
</svg>
