<svg width="24" height="24" viewBox="0 0 24 24" fill="none" xmlns="http://www.w3.org/2000/svg">
<path d="M18.0514 17.79C17.9584 17.6963 17.8478 17.6219 17.726 17.5711C17.6041 17.5203 17.4734 17.4942 17.3414 17.4942C17.2094 17.4942 17.0787 17.5203 16.9568 17.5711C16.8349 17.6219 16.7243 17.6963 16.6314 17.79L13.0014 21.42V1C13.0014 0.734783 12.896 0.480429 12.7085 0.292893C12.5209 0.105357 12.2666 0 12.0014 0V0C11.7362 0 11.4818 0.105357 11.2943 0.292893C11.1067 0.480429 11.0014 0.734783 11.0014 1V21.41L7.38138 17.79C7.29567 17.6728 7.18546 17.5757 7.05843 17.5054C6.93139 17.4351 6.79057 17.3933 6.64575 17.3829C6.50092 17.3725 6.35558 17.3938 6.21981 17.4452C6.08404 17.4967 5.96111 17.5771 5.85955 17.6809C5.75799 17.7846 5.68025 17.9093 5.63172 18.0461C5.5832 18.183 5.56505 18.3287 5.57855 18.4733C5.59205 18.6178 5.63686 18.7577 5.70988 18.8832C5.7829 19.0087 5.88237 19.1168 6.00138 19.2L9.92138 23.12C10.4839 23.6818 11.2464 23.9974 12.0414 23.9974C12.8364 23.9974 13.5989 23.6818 14.1614 23.12L18.0814 19.2C18.2637 19.0087 18.3629 18.753 18.3573 18.4888C18.3516 18.2246 18.2417 17.9734 18.0514 17.79Z" fill="black"/>
</svg>
