<svg width="24" height="24" viewBox="0 0 24 24" fill="none" xmlns="http://www.w3.org/2000/svg">
<path d="M17.7108 9.87989L13.4108 5.58989C13.0361 5.21738 12.5292 5.0083 12.0008 5.0083C11.4724 5.0083 10.9655 5.21738 10.5908 5.58989L6.29079 9.87989C6.10454 10.0672 6 10.3207 6 10.5849C6 10.8491 6.10454 11.1025 6.29079 11.2899C6.38376 11.3836 6.49436 11.458 6.61622 11.5088C6.73807 11.5595 6.86878 11.5857 7.00079 11.5857C7.1328 11.5857 7.26351 11.5595 7.38537 11.5088C7.50723 11.458 7.61783 11.3836 7.71079 11.2899L11.0008 7.99989V18.9999C11.0008 19.2651 11.1061 19.5195 11.2937 19.707C11.4812 19.8945 11.7356 19.9999 12.0008 19.9999C12.266 19.9999 12.5204 19.8945 12.7079 19.707C12.8954 19.5195 13.0008 19.2651 13.0008 18.9999V7.99989L16.2908 11.2899C16.4778 11.4782 16.7319 11.5845 16.9973 11.5854C17.2626 11.5864 17.5175 11.4819 17.7058 11.2949C17.8941 11.1079 18.0004 10.8538 18.0013 10.5884C18.0023 10.3231 17.8978 10.0682 17.7108 9.87989Z" fill="black"/>
</svg>
