<svg width="24" height="24" viewBox="0 0 24 24" fill="none" xmlns="http://www.w3.org/2000/svg">
<g clip-path="url(#clip0_403_2099)">
<path d="M20.5372 12.7001L19.4072 12.0001L20.5382 11.3001C21.3235 10.8332 21.9316 10.1189 22.2672 9.26911C22.4773 8.70726 22.5556 8.10468 22.4961 7.50779C22.4366 6.9109 22.2408 6.33564 21.924 5.82632C21.6071 5.31701 21.1775 4.88722 20.6684 4.57009C20.1592 4.25295 19.584 4.05692 18.9872 3.99711C18.0765 3.92262 17.1669 4.15266 16.4012 4.65111L16.0002 4.90011V4.17211C16.0171 3.15686 15.6581 2.1712 14.9923 1.40459C14.3265 0.63798 13.4008 0.144535 12.3932 0.0191092C11.8374 -0.0357594 11.2763 0.0263541 10.746 0.201451C10.2157 0.376548 9.72799 0.660748 9.31417 1.03576C8.90036 1.41076 8.56965 1.86827 8.34334 2.37882C8.11703 2.88937 8.00014 3.44165 8.00019 4.00011V4.90011L7.60019 4.65011C6.83459 4.15025 5.92453 3.91913 5.01319 3.99311C4.41623 4.0524 3.84086 4.24798 3.33143 4.56477C2.822 4.88156 2.39212 5.31109 2.07492 5.82027C1.75772 6.32945 1.56168 6.90466 1.50192 7.50158C1.44215 8.09849 1.52025 8.70115 1.73019 9.26311C2.06583 10.1131 2.67437 10.8276 3.46019 11.2941L4.59319 12.0001L3.46219 12.7001C2.67689 13.167 2.06877 13.8814 1.73319 14.7311C1.52284 15.2934 1.44451 15.8965 1.50426 16.4939C1.56401 17.0913 1.76024 17.6669 2.0778 18.1764C2.39536 18.6859 2.82576 19.1156 3.33576 19.4323C3.84576 19.749 4.42173 19.9443 5.01919 20.0031C5.92783 20.0774 6.83547 19.8484 7.60019 19.3521L8.00019 19.1001V20.0001C8.00019 21.061 8.42162 22.0784 9.17177 22.8285C9.92191 23.5787 10.9393 24.0001 12.0002 24.0001C13.0611 24.0001 14.0785 23.5787 14.8286 22.8285C15.5788 22.0784 16.0002 21.061 16.0002 20.0001V19.1001L16.4002 19.3511C17.1645 19.8478 18.0717 20.0774 18.9802 20.0041C19.5775 19.945 20.1532 19.7495 20.663 19.4327C21.1727 19.1158 21.6029 18.6861 21.9202 18.1767C22.2376 17.6672 22.4336 17.0917 22.4933 16.4944C22.5529 15.8972 22.4745 15.2943 22.2642 14.7321C21.9292 13.8824 21.3218 13.1677 20.5372 12.7001ZM20.2262 17.1181C19.9575 17.5493 19.5285 17.8561 19.0336 17.9711C18.5387 18.086 18.0185 17.9997 17.5872 17.7311L15.5282 16.4491C15.3766 16.3549 15.2026 16.3029 15.0242 16.2986C14.8458 16.2944 14.6695 16.3379 14.5136 16.4247C14.3577 16.5115 14.2279 16.6385 14.1376 16.7924C14.0473 16.9464 13.9999 17.1217 14.0002 17.3001V20.0001C14.0002 20.5305 13.7895 21.0393 13.4144 21.4143C13.0393 21.7894 12.5306 22.0001 12.0002 22.0001C11.4698 22.0001 10.9611 21.7894 10.586 21.4143C10.2109 21.0393 10.0002 20.5305 10.0002 20.0001V17.3001C10.0001 17.1218 9.95244 16.9468 9.86202 16.7931C9.77159 16.6395 9.64173 16.5128 9.48588 16.4262C9.33004 16.3396 9.15388 16.2963 8.97565 16.3007C8.79742 16.305 8.6236 16.357 8.47219 16.4511L6.41319 17.7351C6.19966 17.8681 5.96204 17.9577 5.71388 17.9988C5.46572 18.0399 5.21189 18.0318 4.96688 17.9748C4.72188 17.9178 4.49049 17.8132 4.28593 17.6668C4.08138 17.5204 3.90766 17.3351 3.77469 17.1216C3.64173 16.9081 3.55213 16.6705 3.511 16.4223C3.46987 16.1741 3.47802 15.9203 3.53499 15.6753C3.59196 15.4303 3.69663 15.1989 3.84302 14.9943C3.98941 14.7898 4.17466 14.6161 4.38819 14.4831L7.01319 12.8491C7.1579 12.7594 7.27732 12.6343 7.36013 12.4855C7.44295 12.3368 7.48641 12.1694 7.48641 11.9991C7.48641 11.8289 7.44295 11.6614 7.36013 11.5127C7.27732 11.3639 7.1579 11.2388 7.01319 11.1491L4.38819 9.51611C3.95695 9.24758 3.65005 8.81873 3.53499 8.32392C3.41994 7.8291 3.50616 7.30885 3.77469 6.87761C4.04323 6.44637 4.47207 6.13946 4.96688 6.02441C5.4617 5.90936 5.98195 5.99558 6.41319 6.26411L8.47219 7.54611C8.62338 7.64011 8.79693 7.69205 8.9749 7.69655C9.15288 7.70105 9.32883 7.65796 9.48458 7.57173C9.64033 7.48549 9.77024 7.35924 9.86088 7.20602C9.95152 7.05279 9.99962 6.87814 10.0002 6.70011V4.10711C9.9894 3.62026 10.1502 3.14512 10.4544 2.76486C10.7586 2.3846 11.1868 2.12345 11.6642 2.02711C11.9513 1.97819 12.2455 1.99254 12.5265 2.06917C12.8074 2.1458 13.0682 2.28285 13.2907 2.47075C13.5132 2.65864 13.6919 2.89286 13.8145 3.15702C13.937 3.42117 14.0004 3.70891 14.0002 4.00011V6.70011C14.0004 6.87831 14.0483 7.05321 14.1388 7.20672C14.2292 7.36023 14.3591 7.48677 14.5149 7.57324C14.6708 7.65971 14.8468 7.70298 15.025 7.69856C15.2031 7.69414 15.3769 7.6422 15.5282 7.54811L17.5872 6.26711C17.8007 6.13415 18.0384 6.04454 18.2865 6.00342C18.5347 5.96229 18.7885 5.97044 19.0335 6.02741C19.2785 6.08438 19.5099 6.18905 19.7145 6.33544C19.919 6.48183 20.0927 6.66708 20.2257 6.88061C20.3587 7.09414 20.4483 7.33177 20.4894 7.57993C20.5305 7.82808 20.5224 8.08191 20.4654 8.32692C20.4084 8.57193 20.3038 8.80331 20.1574 9.00787C20.011 9.21243 19.8257 9.38615 19.6122 9.51911L16.9872 11.1531C16.8425 11.2428 16.7231 11.3679 16.6403 11.5167C16.5574 11.6654 16.514 11.8329 16.514 12.0031C16.514 12.1734 16.5574 12.3408 16.6403 12.4895C16.7231 12.6383 16.8425 12.7634 16.9872 12.8531L19.6122 14.4871C19.8258 14.6199 20.0112 14.7935 20.1577 14.998C20.3042 15.2025 20.409 15.4338 20.466 15.6788C20.5231 15.9238 20.5312 16.1777 20.4901 16.4258C20.4489 16.674 20.3592 16.9116 20.2262 17.1251V17.1181Z" fill="black"/>
</g>
<defs>
<clipPath id="clip0_403_2099">
<rect width="24" height="24" fill="white"/>
</clipPath>
</defs>
</svg>
