<svg width="24" height="24" viewBox="0 0 24 24" fill="none" xmlns="http://www.w3.org/2000/svg">
<g clip-path="url(#clip0_403_2101)">
<path d="M12.001 0C8.81951 0.00344108 5.76926 1.26883 3.51957 3.51852C1.26987 5.76821 0.00448708 8.81846 0.001046 12C-0.124954 21.573 11.16 27.429 18.901 21.817C19.0123 21.743 19.1076 21.6475 19.1813 21.536C19.255 21.4246 19.3056 21.2995 19.3302 21.1682C19.3547 21.0369 19.3527 20.902 19.3243 20.7714C19.2958 20.6409 19.2415 20.5174 19.1645 20.4082C19.0875 20.299 18.9894 20.2063 18.876 20.1357C18.7627 20.065 18.6363 20.0178 18.5043 19.9968C18.3724 19.9758 18.2375 19.9815 18.1078 20.0135C17.9781 20.0454 17.8561 20.1031 17.749 20.183C11.301 24.856 1.90105 19.978 2.00105 12C2.55005 -1.266 21.454 -1.263 22.001 12V14C22.001 14.5304 21.7903 15.0391 21.4153 15.4142C21.0402 15.7893 20.5315 16 20.001 16C19.4706 16 18.9619 15.7893 18.5868 15.4142C18.2118 15.0391 18.001 14.5304 18.001 14V12C17.749 4.071 6.25205 4.072 6.00105 12C6.01269 13.216 6.3925 14.3999 7.09043 15.3958C7.78836 16.3916 8.77165 17.1526 9.9107 17.5784C11.0498 18.0043 12.2911 18.075 13.4711 17.7812C14.6512 17.4875 15.7145 16.8431 16.521 15.933C16.9549 16.6986 17.629 17.2998 18.4391 17.6435C19.2492 17.9871 20.1501 18.0541 21.002 17.8339C21.854 17.6137 22.6097 17.1187 23.1518 16.4256C23.694 15.7325 23.9925 14.8799 24.001 14V12C23.9976 8.81846 22.7322 5.76821 20.4825 3.51852C18.2328 1.26883 15.1826 0.00344108 12.001 0V0ZM12.001 16C10.9402 16 9.92277 15.5786 9.17262 14.8284C8.42247 14.0783 8.00105 13.0609 8.00105 12C8.00105 10.9391 8.42247 9.92172 9.17262 9.17157C9.92277 8.42143 10.9402 8 12.001 8C13.0619 8 14.0793 8.42143 14.8295 9.17157C15.5796 9.92172 16.001 10.9391 16.001 12C16.001 13.0609 15.5796 14.0783 14.8295 14.8284C14.0793 15.5786 13.0619 16 12.001 16Z" fill="black"/>
</g>
<defs>
<clipPath id="clip0_403_2101">
<rect width="24" height="24" fill="white"/>
</clipPath>
</defs>
</svg>
