<svg width="24" height="24" viewBox="0 0 24 24" fill="none" xmlns="http://www.w3.org/2000/svg">
<g clip-path="url(#clip0_403_2107)">
<path d="M18.8477 11.53C19.5068 10.4632 19.8944 9.25123 19.9767 8C19.9767 7.73478 19.8713 7.48043 19.6838 7.29289C19.4963 7.10536 19.2419 7 18.9767 7C18.7115 7 18.4571 7.10536 18.2696 7.29289C18.0821 7.48043 17.9767 7.73478 17.9767 8C17.8956 8.87587 17.6132 9.72117 17.1517 10.47C17.0821 10.5816 17.0352 10.7059 17.0136 10.8356C16.992 10.9654 16.9962 11.0981 17.0259 11.2263C17.0556 11.3544 17.1103 11.4754 17.1868 11.5825C17.2633 11.6895 17.3601 11.7804 17.4717 11.85C17.5833 11.9196 17.7076 11.9665 17.8373 11.9881C17.9671 12.0097 18.0998 12.0055 18.228 11.9758C18.4868 11.9158 18.7111 11.7554 18.8517 11.53H18.8477Z" fill="black"/>
<path d="M8.9767 7C8.71148 7 8.45713 7.10536 8.26959 7.29289C8.08206 7.48043 7.9767 7.73478 7.9767 8C7.89555 8.87587 7.61322 9.72117 7.1517 10.47C7.01114 10.6954 6.96588 10.9675 7.02589 11.2263C7.08591 11.4851 7.24627 11.7094 7.4717 11.85C7.69713 11.9906 7.96917 12.0358 8.22797 11.9758C8.48677 11.9158 8.71113 11.7554 8.8517 11.53C9.50937 10.4629 9.89563 9.25089 9.9767 8C9.9767 7.73478 9.87134 7.48043 9.6838 7.29289C9.49627 7.10536 9.24191 7 8.9767 7Z" fill="black"/>
<path d="M19.5 18.5889C18.818 18.2269 18.114 17.8519 18.016 17.4269C17.97 17.2339 17.991 16.7989 18.531 15.9539C21.7 15.4999 24 11.0249 24 6.99991C24.0279 6.20445 23.8919 5.41176 23.6002 4.67117C23.3086 3.93058 22.8676 3.25794 22.3048 2.69512C21.742 2.1323 21.0693 1.69134 20.3287 1.3997C19.5882 1.10806 18.7955 0.971973 18 0.99991C17.033 0.973424 16.0745 1.18666 15.2099 1.6206C14.3453 2.05455 13.6016 2.69571 13.045 3.48691C12.2732 2.15534 11.0837 1.11554 9.6609 0.528671C8.2381 -0.0582006 6.66145 -0.159369 5.17532 0.240845C3.68918 0.641059 2.37656 1.52031 1.44089 2.74231C0.505216 3.96431 -0.00124407 5.46083 2.2949e-06 6.99991C2.2949e-06 10.9709 2.257 15.4849 5.39 16.6849C5.17323 17.0459 5.03997 17.4508 5 17.8699C5 19.4409 6.489 20.1369 7.576 20.6459C8.176 20.9259 9 21.3109 9 21.6089C8.91854 21.9194 8.77272 22.2094 8.572 22.4599C8.50109 22.5705 8.45265 22.6939 8.42945 22.8232C8.40625 22.9525 8.40874 23.0851 8.43678 23.2135C8.46482 23.3418 8.51787 23.4633 8.59289 23.5712C8.66791 23.679 8.76343 23.771 8.874 23.8419C9.09731 23.9851 9.36837 24.0338 9.62755 23.9771C9.75588 23.9491 9.87743 23.896 9.98526 23.821C10.0931 23.746 10.1851 23.6505 10.256 23.5399C10.6804 22.9789 10.9383 22.3097 11 21.6089C11 20.0379 9.511 19.3419 8.424 18.8339C7.824 18.5529 7 18.1679 6.991 17.9689C7.14303 17.6107 7.33348 17.27 7.559 16.9529C9.911 16.6469 11.89 14.4529 13.011 11.7529C13.6406 13.4202 14.8532 14.8029 16.424 15.6449C16.0514 16.3277 15.9257 17.1182 16.068 17.8829C16.374 19.1929 17.587 19.8379 18.562 20.3569C19.178 20.6849 19.875 21.0569 19.981 21.4249C20.0073 21.8102 19.8956 22.1924 19.666 22.5029C19.5993 22.6167 19.5558 22.7425 19.5379 22.8732C19.52 23.0039 19.5282 23.1368 19.5619 23.2643C19.5956 23.3918 19.6542 23.5113 19.7343 23.6161C19.8144 23.7208 19.9145 23.8087 20.0287 23.8747C20.1429 23.9406 20.269 23.9833 20.3998 24.0003C20.5306 24.0173 20.6634 24.0083 20.7907 23.9737C20.918 23.9392 21.0371 23.8798 21.1414 23.799C21.2456 23.7182 21.3328 23.6176 21.398 23.5029C21.6594 23.1238 21.8394 22.6947 21.9265 22.2425C22.0136 21.7903 22.0059 21.325 21.904 20.8759C21.6813 20.3504 21.3531 19.8762 20.9395 19.4827C20.526 19.0893 20.036 18.7851 19.5 18.5889ZM7 14.9999C4.354 14.9999 2 10.5259 2 6.99991C2 5.67383 2.52679 4.40206 3.46447 3.46438C4.40215 2.52669 5.67392 1.99991 7 1.99991C8.32609 1.99991 9.59785 2.52669 10.5355 3.46438C11.4732 4.40206 12 5.67383 12 6.99991C12 10.5259 9.646 14.9999 7 14.9999ZM14 6.99991C13.9699 6.46672 14.0527 5.93318 14.243 5.43422C14.4334 4.93526 14.727 4.48214 15.1046 4.10452C15.4822 3.72689 15.9354 3.43329 16.4343 3.24294C16.9333 3.05258 17.4668 2.96977 18 2.99991C18.5332 2.96977 19.0667 3.05258 19.5657 3.24294C20.0646 3.43329 20.5178 3.72689 20.8954 4.10452C21.273 4.48214 21.5666 4.93526 21.757 5.43422C21.9473 5.93318 22.0301 6.46672 22 6.99991C22 10.3999 19.944 13.9999 18 13.9999C16.056 13.9999 14 10.3999 14 6.99991Z" fill="black"/>
</g>
<defs>
<clipPath id="clip0_403_2107">
<rect width="24" height="24" fill="white"/>
</clipPath>
</defs>
</svg>
