<svg width="24" height="24" viewBox="0 0 24 24" fill="none" xmlns="http://www.w3.org/2000/svg">
<g clip-path="url(#clip0_403_2115)">
<path d="M23.9997 23.0001C23.9997 23.2653 23.8943 23.5196 23.7068 23.7072C23.5192 23.8947 23.2649 24.0001 22.9997 24.0001H0.999659C0.734442 24.0001 0.480088 23.8947 0.292552 23.7072C0.105015 23.5196 -0.000341587 23.2653 -0.000341587 23.0001C-0.000341587 22.7348 0.105015 22.4805 0.292552 22.2929C0.480088 22.1054 0.734442 22.0001 0.999659 22.0001H22.9997C23.2649 22.0001 23.5192 22.1054 23.7068 22.2929C23.8943 22.4805 23.9997 22.7348 23.9997 23.0001ZM0.290658 8.55206C0.0751807 8.15238 -0.0246469 7.70056 0.00237884 7.24731C0.0294046 6.79405 0.182214 6.3573 0.443658 5.98606C0.870917 5.35917 1.4431 4.84462 2.11166 4.48606L9.61266 0.582055C10.3499 0.198686 11.1687 -0.00146484 11.9997 -0.00146484C12.8306 -0.00146484 13.6494 0.198686 14.3867 0.582055L21.8867 4.48906C22.5552 4.84762 23.1274 5.36217 23.5547 5.98906C23.8161 6.36029 23.9689 6.79705 23.9959 7.25031C24.023 7.70356 23.9231 8.15538 23.7077 8.55506C23.4757 8.99389 23.1277 9.36066 22.7017 9.61544C22.2758 9.87023 21.788 10.0033 21.2917 10.0001H20.9997V18.0001H21.9997C22.2649 18.0001 22.5192 18.1054 22.7068 18.2929C22.8943 18.4805 22.9997 18.7348 22.9997 19.0001C22.9997 19.2653 22.8943 19.5196 22.7068 19.7072C22.5192 19.8947 22.2649 20.0001 21.9997 20.0001H1.99966C1.73444 20.0001 1.48009 19.8947 1.29255 19.7072C1.10502 19.5196 0.999659 19.2653 0.999659 19.0001C0.999659 18.7348 1.10502 18.4805 1.29255 18.2929C1.48009 18.1054 1.73444 18.0001 1.99966 18.0001H2.99966V10.0001H2.70766C2.21082 10.0032 1.72266 9.86976 1.29645 9.61442C0.87023 9.35908 0.522317 8.9916 0.290658 8.55206ZM4.99966 18.0001H7.99966V10.0001H4.99966V18.0001ZM9.99966 10.0001V18.0001H13.9997V10.0001H9.99966ZM18.9997 10.0001H15.9997V18.0001H18.9997V10.0001ZM2.06266 7.62506C2.1254 7.74074 2.21877 7.83692 2.33254 7.90306C2.44631 7.9692 2.57609 8.00276 2.70766 8.00006H21.2917C21.4232 8.00276 21.553 7.9692 21.6668 7.90306C21.7805 7.83692 21.8739 7.74074 21.9367 7.62506C21.9824 7.54862 22.0045 7.46039 22.0002 7.37143C21.9959 7.28248 21.9655 7.19676 21.9127 7.12506C21.6704 6.76497 21.3448 6.4686 20.9637 6.26106L13.4637 2.35406C13.0117 2.11948 12.5099 1.99703 12.0007 1.99703C11.4914 1.99703 10.9897 2.11948 10.5377 2.35406L3.03766 6.26106C2.65664 6.46926 2.33119 6.76591 2.08866 7.12606C2.03575 7.19746 2.00506 7.28288 2.00044 7.37164C1.99581 7.46039 2.01745 7.54854 2.06266 7.62506Z" fill="black"/>
</g>
<defs>
<clipPath id="clip0_403_2115">
<rect width="24" height="24" fill="white"/>
</clipPath>
</defs>
</svg>
