<svg width="24" height="24" viewBox="0 0 24 24" fill="none" xmlns="http://www.w3.org/2000/svg">
<g clip-path="url(#clip0_403_2121)">
<path d="M12.0029 -0.00219727C5.3653 -0.00219727 -0.015625 5.37872 -0.015625 12.0164C-0.015625 18.654 5.3653 24.0349 12.0029 24.0349C18.6406 24.0349 24.0215 18.654 24.0215 12.0164C24.0215 5.37872 18.6406 -0.00219727 12.0029 -0.00219727ZM21.9426 10.942L21.9376 10.938C20.0018 10.7372 18.1675 9.97219 16.6626 8.73802L19.7326 5.66804C20.9695 7.17193 21.7378 9.00563 21.9426 10.942ZM18.3147 4.25302L15.2487 7.32802C14.0141 5.82338 13.249 3.98902 13.0487 2.05304C14.9811 2.25647 16.8118 3.02124 18.3147 4.25302ZM11.0526 2.04802C11.2621 4.51674 12.2347 6.85908 13.8357 8.75002L11.9997 10.586L5.67566 4.26202C7.20772 3.00535 9.07995 2.23449 11.0526 2.04802ZM4.2612 5.67657L4.25666 5.67202L4.26167 5.67601C4.26148 5.67619 4.26134 5.67638 4.2612 5.67657L10.5857 12L8.74869 13.837C6.85887 12.2354 4.51705 11.2623 2.0487 11.053C2.2348 9.08063 3.00519 7.20863 4.2612 5.67657ZM2.05667 13.058V13.054C3.99266 13.2544 5.82702 14.0194 7.33166 15.254L4.26167 18.324C3.02811 16.8217 2.26156 14.991 2.05667 13.058ZM5.67964 19.738L8.74564 16.668C9.98023 18.1726 10.7453 20.007 10.9456 21.943C9.01264 21.7381 7.18194 20.9716 5.67964 19.738ZM12.9467 21.952C12.7376 19.4833 11.7644 17.1411 10.1627 15.251L11.9997 13.414L18.3237 19.738C16.7918 20.9951 14.9195 21.766 12.9467 21.952ZM19.7357 18.324L13.4136 12L15.2496 10.164C17.14 11.7646 19.4816 12.7372 21.9496 12.947C21.7632 14.9197 20.9923 16.7919 19.7357 18.324Z" fill="black"/>
</g>
<defs>
<clipPath id="clip0_403_2121">
<rect width="24" height="24" fill="white"/>
</clipPath>
</defs>
</svg>
