<svg width="24" height="24" viewBox="0 0 24 24" fill="none" xmlns="http://www.w3.org/2000/svg">
<path d="M19.5 8.9999H19V6.9999C19 6.73469 18.8946 6.48033 18.7071 6.2928C18.5196 6.10526 18.2652 5.9999 18 5.9999C18.0127 5.29059 17.8317 4.59123 17.4765 3.97715C17.1212 3.36306 16.6052 2.8575 15.984 2.5149C15.2657 2.11513 14.4437 1.9409 13.625 2.0149C13.5234 2.02751 13.4203 2.0136 13.3256 1.97452C13.231 1.93544 13.1481 1.87253 13.085 1.7919C12.6498 1.22171 12.0847 0.763593 11.4369 0.455593C10.7891 0.147594 10.0771 -0.00139659 9.36011 0.0209968C8.64313 0.0433901 7.94185 0.236521 7.31449 0.584348C6.68713 0.932176 6.15182 1.42466 5.753 2.0209C4.73854 2.08199 3.78555 2.52759 3.08823 3.26691C2.3909 4.00622 2.00173 4.98361 2 5.9999C1.73478 5.9999 1.48043 6.10526 1.29289 6.2928C1.10536 6.48033 1 6.73469 1 6.9999V18.9999C1.00159 20.3255 1.52888 21.5963 2.46622 22.5337C3.40356 23.471 4.67441 23.9983 6 23.9999H14C15.3256 23.9983 16.5964 23.471 17.5338 22.5337C18.4711 21.5963 18.9984 20.3255 19 18.9999H19.5C20.4283 18.9999 21.3185 18.6312 21.9749 17.9748C22.6313 17.3184 23 16.4282 23 15.4999V12.4999C23 11.5716 22.6313 10.6814 21.9749 10.025C21.3185 9.36865 20.4283 8.9999 19.5 8.9999ZM6 3.9999C6.05751 4.00178 6.11474 4.00881 6.171 4.0209C6.38651 4.05595 6.60756 4.01949 6.80041 3.91711C6.99325 3.81473 7.14729 3.65205 7.239 3.4539C7.42183 3.06576 7.70148 2.7312 8.05104 2.48242C8.4006 2.23364 8.8083 2.07901 9.23492 2.0334C9.66153 1.9878 10.0927 2.05276 10.487 2.22203C10.8812 2.39129 11.2253 2.65918 11.486 2.9999C11.754 3.35586 12.1097 3.63623 12.5185 3.8136C12.9272 3.99098 13.375 4.0593 13.818 4.0119C14.2452 3.97826 14.6727 4.07261 15.046 4.2829C15.3436 4.45814 15.5889 4.70972 15.7566 5.01159C15.9244 5.31346 16.0084 5.65467 16 5.9999H12C11.2044 5.9999 10.4413 6.31597 9.87868 6.87858C9.31607 7.44119 9 8.20426 9 8.9999V11.9999C9 12.2651 8.89464 12.5195 8.70711 12.707C8.51957 12.8945 8.26522 12.9999 8 12.9999C7.73478 12.9999 7.48043 12.8945 7.29289 12.707C7.10536 12.5195 7 12.2651 7 11.9999V8.9999C7 8.20426 6.68393 7.44119 6.12132 6.87858C5.55871 6.31597 4.79565 5.9999 4 5.9999C4 5.46947 4.21071 4.96076 4.58579 4.58569C4.96086 4.21062 5.46957 3.9999 6 3.9999ZM17 18.9999C17 19.7956 16.6839 20.5586 16.1213 21.1212C15.5587 21.6838 14.7956 21.9999 14 21.9999H6C5.20435 21.9999 4.44129 21.6838 3.87868 21.1212C3.31607 20.5586 3 19.7956 3 18.9999V7.9999H4C4.26522 7.9999 4.51957 8.10526 4.70711 8.2928C4.89464 8.48033 5 8.73469 5 8.9999V11.9999C5 12.7956 5.31607 13.5586 5.87868 14.1212C6.44129 14.6838 7.20435 14.9999 8 14.9999C8.79565 14.9999 9.55871 14.6838 10.1213 14.1212C10.6839 13.5586 11 12.7956 11 11.9999V8.9999C11 8.73469 11.1054 8.48033 11.2929 8.2928C11.4804 8.10526 11.7348 7.9999 12 7.9999H17V18.9999ZM21 15.4999C21 15.8977 20.842 16.2793 20.5607 16.5606C20.2794 16.8419 19.8978 16.9999 19.5 16.9999H19V10.9999H19.5C19.8978 10.9999 20.2794 11.1579 20.5607 11.4392C20.842 11.7205 21 12.1021 21 12.4999V15.4999Z" fill="black"/>
</svg>
