<svg width="24" height="24" viewBox="0 0 24 24" fill="none" xmlns="http://www.w3.org/2000/svg">
<g clip-path="url(#clip0_403_2131)">
<path d="M22.5535 13.6619L20.6535 6.82593C20.0966 4.82327 18.8863 3.06422 17.2149 1.8284C15.5435 0.592587 13.5069 -0.049079 11.429 0.00540109C9.35104 0.0598812 7.35093 0.807381 5.74658 2.12908C4.14223 3.45078 3.02572 5.27084 2.57452 7.29993L1.10352 13.9149C0.941032 14.6459 0.944789 15.404 1.11451 16.1333C1.28423 16.8625 1.61558 17.5444 2.0841 18.1285C2.55262 18.7126 3.14634 19.184 3.82143 19.5079C4.49652 19.8318 5.23574 20 5.98452 19.9999H7.09852C7.32803 21.1302 7.94125 22.1464 8.83426 22.8763C9.72727 23.6062 10.8452 24.0049 11.9985 24.0049C13.1519 24.0049 14.2698 23.6062 15.1628 22.8763C16.0558 22.1464 16.669 21.1302 16.8985 19.9999H17.7365C18.5073 20 19.2677 19.8218 19.9583 19.4794C20.6488 19.1369 21.2509 18.6394 21.7173 18.0258C22.1838 17.4122 22.5021 16.699 22.6473 15.942C22.7925 15.185 22.7608 14.4046 22.5545 13.6619H22.5535ZM11.9985 21.9999C11.3803 21.9974 10.7779 21.8039 10.2738 21.4458C9.76975 21.0878 9.3886 20.5828 9.18252 19.9999H14.8145C14.6084 20.5828 14.2273 21.0878 13.7232 21.4458C13.2191 21.8039 12.6168 21.9974 11.9985 21.9999ZM20.1245 16.8149C19.8459 17.1846 19.4848 17.4842 19.0701 17.6899C18.6554 17.8956 18.1984 18.0018 17.7355 17.9999H5.98452C5.5353 17.9999 5.09184 17.8989 4.68686 17.7045C4.28188 17.5101 3.92572 17.2273 3.64468 16.8768C3.36363 16.5264 3.16488 16.1173 3.06308 15.6798C2.96128 15.2423 2.95904 14.7874 3.05652 14.3489L4.52652 7.73293C4.88087 6.13914 5.75782 4.70954 7.01797 3.67138C8.27812 2.63323 9.84914 2.04611 11.4813 2.00335C13.1134 1.96059 14.713 2.46465 16.0258 3.4354C17.3386 4.40616 18.2892 5.78788 18.7265 7.36093L20.6265 14.1969C20.7521 14.6423 20.7721 15.1108 20.6849 15.5653C20.5978 16.0197 20.4059 16.4476 20.1245 16.8149Z" fill="black"/>
</g>
<defs>
<clipPath id="clip0_403_2131">
<rect width="24" height="24" fill="white"/>
</clipPath>
</defs>
</svg>
