<svg width="24" height="24" viewBox="0 0 24 24" fill="none" xmlns="http://www.w3.org/2000/svg">
<g clip-path="url(#clip0_403_2127)">
<path d="M20.8584 15.331L17.0864 21.486C16.6722 22.166 16.1084 22.7425 15.4377 23.1717C14.7671 23.601 14.0074 23.8716 13.2164 23.963C13.008 23.9877 12.7983 24 12.5884 24C11.5139 23.9985 10.4661 23.6649 9.58845 23.045C8.68151 23.7244 7.56118 24.0566 6.43046 23.9812C5.29973 23.9058 4.23341 23.4279 3.4247 22.634C2.61598 21.8402 2.11836 20.7829 2.02201 19.6538C1.92565 18.5247 2.23693 17.3984 2.89945 16.479L1.58445 15.166C1.02294 14.6044 0.595765 13.9231 0.334901 13.1731C0.0740364 12.423 -0.013751 11.6237 0.078113 10.8349C0.169977 10.0461 0.439111 9.28836 0.86536 8.61834C1.29161 7.94833 1.86393 7.38343 2.53945 6.96596L8.30645 3.39996C9.86866 2.39874 11.7058 1.91331 13.5587 2.01217C15.4116 2.11103 17.1866 2.78919 18.6334 3.95096L20.2924 2.29196C20.3847 2.19645 20.495 2.12027 20.617 2.06786C20.739 2.01545 20.8703 1.98786 21.003 1.98671C21.1358 1.98556 21.2675 2.01086 21.3904 2.06114C21.5133 2.11142 21.625 2.18567 21.7188 2.27956C21.8127 2.37346 21.887 2.48511 21.9373 2.60801C21.9876 2.7309 22.0129 2.86258 22.0117 2.99536C22.0105 3.12814 21.983 3.25936 21.9305 3.38136C21.8781 3.50337 21.802 3.61371 21.7064 3.70596L20.0494 5.36396C21.1608 6.7562 21.8314 8.44838 21.9756 10.224C22.1197 11.9995 21.7307 13.7777 20.8584 15.331ZM8.06445 21.647L4.34545 17.927C4.05483 18.4467 3.94273 19.0475 4.02637 19.6371C4.11 20.2267 4.38474 20.7725 4.80845 21.191C5.23587 21.597 5.77952 21.8592 6.36334 21.941C6.94716 22.0227 7.54194 21.9199 8.06445 21.647ZM17.9854 6.04696C16.875 4.9258 15.4132 4.21998 13.8446 4.0476C12.2761 3.87522 10.6959 4.24672 9.36845 5.09996L3.59145 8.66596C3.17249 8.92493 2.81755 9.27532 2.55321 9.69091C2.28886 10.1065 2.12197 10.5765 2.06502 11.0657C2.00808 11.555 2.06256 12.0507 2.22438 12.5159C2.3862 12.9811 2.65117 13.4037 2.99945 13.752L10.2894 21.043C10.6383 21.3922 11.0618 21.6578 11.528 21.8198C11.9943 21.9817 12.4912 22.0359 12.9815 21.9781C13.4717 21.9204 13.9424 21.7522 14.3583 21.4863C14.7742 21.2204 15.1243 20.8637 15.3824 20.443L19.1374 14.318C19.8709 13.0007 20.1552 11.4803 19.9473 9.98705C19.7394 8.49377 19.0507 7.10886 17.9854 6.04196V6.04696ZM19.2644 24C19.0533 24.0003 18.8474 23.9339 18.6763 23.81C18.5052 23.6862 18.3777 23.5114 18.3121 23.3107C18.2465 23.1099 18.2461 22.8936 18.311 22.6926C18.3759 22.4916 18.5028 22.3164 18.6734 22.192C20.4245 20.8755 21.6095 18.9426 21.9884 16.785C22.015 16.6551 22.0672 16.5318 22.1418 16.4222C22.2165 16.3127 22.3122 16.219 22.4234 16.1468C22.5345 16.0746 22.659 16.0252 22.7894 16.0015C22.9199 15.9778 23.0537 15.9803 23.1832 16.0088C23.3127 16.0373 23.4352 16.0913 23.5436 16.1675C23.652 16.2438 23.7442 16.3409 23.8148 16.4532C23.8853 16.5654 23.9329 16.6906 23.9546 16.8213C23.9764 16.9521 23.9719 17.0859 23.9414 17.215C23.4515 19.8466 21.9928 22.199 19.8534 23.808C19.6824 23.9327 19.4762 23.9999 19.2644 24ZM0.999449 5.73896C0.814752 5.73814 0.633891 5.68618 0.47692 5.58884C0.319949 5.49151 0.193002 5.3526 0.110153 5.18753C0.027305 5.02245 -0.00820713 4.83766 0.00755457 4.65363C0.0233163 4.46961 0.0897359 4.29354 0.199449 4.14496C1.83043 1.96555 4.23127 0.490282 6.91245 0.0199598C7.17236 -0.0330835 7.4427 0.0192954 7.66399 0.165574C7.88528 0.311852 8.03941 0.540048 8.09245 0.79996C8.14549 1.05987 8.09311 1.33021 7.94683 1.5515C7.80056 1.7728 7.57236 1.92692 7.31245 1.97996C5.11043 2.34358 3.13468 3.54559 1.79945 5.33396C1.70683 5.45908 1.58627 5.56084 1.44739 5.63115C1.3085 5.70146 1.15512 5.73838 0.999449 5.73896Z" fill="black"/>
</g>
<defs>
<clipPath id="clip0_403_2127">
<rect width="24" height="24" fill="white"/>
</clipPath>
</defs>
</svg>
