<svg width="24" height="24" viewBox="0 0 24 24" fill="none" xmlns="http://www.w3.org/2000/svg">
<g clip-path="url(#clip0_403_2129)">
<path d="M9.9988 8.00007C10.3944 8.00007 10.781 8.11737 11.1099 8.33713C11.4388 8.5569 11.6952 8.86925 11.8466 9.2347C11.9979 9.60016 12.0375 10.0023 11.9604 10.3903C11.8832 10.7782 11.6927 11.1346 11.413 11.4143C11.1333 11.694 10.7769 11.8845 10.389 11.9616C10.001 12.0388 9.59888 11.9992 9.23343 11.8478C8.86798 11.6965 8.55562 11.4401 8.33586 11.1112C8.11609 10.7823 7.9988 10.3956 7.9988 10.0001C7.9988 9.46964 8.20951 8.96093 8.58458 8.58586C8.95965 8.21079 9.46836 8.00007 9.9988 8.00007ZM23.9988 10.0001C23.9888 13.2937 22.8397 16.4825 20.7466 19.0254C18.6534 21.5684 15.7451 23.3091 12.5148 23.9521C12.087 24.0302 11.6473 24.0128 11.227 23.9012C10.8067 23.7895 10.4163 23.5863 10.0838 23.3061C9.74414 23.0232 9.47087 22.6692 9.28337 22.2689C9.09586 21.8687 8.9987 21.4321 8.9988 20.9901V19.9491C7.31598 19.7811 5.70326 19.189 4.31145 18.2283C2.91965 17.2676 1.79423 15.9696 1.04044 14.4557C0.286658 12.9418 -0.0708694 11.2614 0.00129776 9.57181C0.0734649 7.88217 0.572969 6.23843 1.4531 4.79432C2.33322 3.3502 3.56522 2.15289 5.03388 1.31435C6.50253 0.475806 8.15986 0.0234335 9.85087 -0.000466033C11.5419 -0.0243656 13.2113 0.380989 14.7031 1.17769C16.1949 1.97439 17.4602 3.13641 18.3808 4.55507C18.4524 4.66551 18.5016 4.78898 18.5255 4.91843C18.5495 5.04788 18.5476 5.18077 18.5202 5.30952C18.4928 5.43827 18.4402 5.56035 18.3656 5.6688C18.291 5.77725 18.1957 5.86994 18.0853 5.94157C17.9749 6.01321 17.8514 6.06239 17.7219 6.08631C17.5925 6.11023 17.4596 6.10841 17.3308 6.08098C17.2021 6.05354 17.08 6.00101 16.9716 5.92638C16.8631 5.85176 16.7704 5.75651 16.6988 5.64607C15.7597 4.19847 14.3776 3.09331 12.759 2.4955C11.1403 1.8977 9.37167 1.83929 7.71707 2.32899C6.06246 2.81869 4.61054 3.83025 3.57793 5.21273C2.54533 6.59522 1.98741 8.27452 1.98741 10.0001C1.98741 11.7256 2.54533 13.4049 3.57793 14.7874C4.61054 16.1699 6.06246 17.1815 7.71707 17.6712C9.37167 18.1609 11.1403 18.1024 12.759 17.5046C14.3776 16.9068 15.7597 15.8017 16.6988 14.3541C16.7704 14.244 16.8631 14.149 16.9714 14.0747C17.0797 14.0004 17.2016 13.9481 17.3301 13.9209C17.4586 13.8937 17.5912 13.8921 17.7204 13.9161C17.8495 13.9402 17.9727 13.9894 18.0828 14.0611C18.1929 14.1327 18.2878 14.2253 18.3622 14.3337C18.4365 14.442 18.4887 14.5639 18.5159 14.6924C18.5431 14.8209 18.5448 14.9535 18.5207 15.0827C18.4967 15.2118 18.4474 15.335 18.3758 15.4451C17.5622 16.6996 16.4767 17.7548 15.1996 18.5324C13.9225 19.31 12.4868 19.7901 10.9988 19.9371V20.9901C10.9989 21.1392 11.0318 21.2865 11.0953 21.4215C11.1587 21.5564 11.2511 21.6758 11.3658 21.7711C11.4733 21.8635 11.6002 21.9306 11.7371 21.9674C11.874 22.0043 12.0174 22.01 12.1568 21.9841C14.4332 21.5328 16.5336 20.4413 18.2111 18.8376C19.8886 17.234 21.0736 15.1849 21.6268 12.9311C21.4205 12.9764 21.21 12.9996 20.9988 13.0001C20.4055 13.0001 19.8254 12.8241 19.3321 12.4945C18.8387 12.1648 18.4542 11.6963 18.2272 11.1481C18.0001 10.5999 17.9407 9.99674 18.0564 9.4148C18.1722 8.83286 18.4579 8.29831 18.8775 7.87875C19.297 7.45919 19.8316 7.17347 20.4135 7.05772C20.9955 6.94196 21.5987 7.00137 22.1468 7.22843C22.695 7.4555 23.1636 7.84001 23.4932 8.33336C23.8229 8.82671 23.9988 9.40673 23.9988 10.0001ZM21.9988 10.0001C21.9988 9.80229 21.9401 9.60895 21.8303 9.4445C21.7204 9.28005 21.5642 9.15188 21.3815 9.07619C21.1988 9.0005 20.9977 8.9807 20.8037 9.01929C20.6097 9.05787 20.4315 9.15311 20.2917 9.29296C20.1518 9.43282 20.0566 9.611 20.018 9.80498C19.9794 9.99896 19.9992 10.2 20.0749 10.3828C20.1506 10.5655 20.2788 10.7217 20.4432 10.8315C20.6077 10.9414 20.801 11.0001 20.9988 11.0001C21.264 11.0001 21.5184 10.8947 21.7059 10.7072C21.8934 10.5196 21.9988 10.2653 21.9988 10.0001Z" fill="black"/>
</g>
<defs>
<clipPath id="clip0_403_2129">
<rect width="24" height="24" fill="white"/>
</clipPath>
</defs>
</svg>
