<svg width="24" height="24" viewBox="0 0 24 24" fill="none" xmlns="http://www.w3.org/2000/svg">
<path d="M19.7827 12.079C19.6187 11.493 19.4337 10.873 19.2277 10.206C18.6177 8.52422 18.2056 6.77712 17.9997 5C17.9997 4.73478 18.1051 4.48043 18.2926 4.29289C18.4802 4.10536 18.7345 4 18.9997 4C19.265 4 19.5193 4.10536 19.7069 4.29289C19.8944 4.48043 19.9997 4.73478 19.9997 5C19.9997 5.26522 20.1051 5.51957 20.2926 5.70711C20.4802 5.89464 20.7345 6 20.9997 6C21.265 6 21.5193 5.89464 21.7069 5.70711C21.8944 5.51957 21.9997 5.26522 21.9997 5C21.9997 4.20435 21.6837 3.44129 21.1211 2.87868C20.5585 2.31607 19.7954 2 18.9997 2C18.2041 2 17.441 2.31607 16.8784 2.87868C16.3158 3.44129 15.9997 4.20435 15.9997 5C16.0245 5.7636 16.1315 6.52231 16.3187 7.263L11.5187 11L5.97075 7H8.99975C9.26497 7 9.51932 6.89464 9.70685 6.70711C9.89439 6.51957 9.99975 6.26522 9.99975 6C9.99975 5.73478 9.89439 5.48043 9.70685 5.29289C9.51932 5.10536 9.26497 5 8.99975 5H5.97075C5.55531 4.99987 5.15048 5.13115 4.81418 5.37505C4.47788 5.61894 4.22733 5.96296 4.09839 6.35788C3.96945 6.75279 3.96873 7.17838 4.09632 7.57373C4.22391 7.96909 4.47328 8.31396 4.80875 8.559L9.87975 12.271L8.44175 13.39C7.54854 12.549 6.37506 12.0694 5.14851 12.044C3.92197 12.0185 2.72962 12.4491 1.80231 13.2523C0.875007 14.0555 0.278717 15.1743 0.128892 16.3919C-0.0209323 17.6095 0.286367 18.8394 0.991293 19.8435C1.69622 20.8475 2.74862 21.5543 3.94474 21.827C5.14087 22.0997 6.39562 21.9188 7.46605 21.3195C8.53649 20.7201 9.34647 19.7449 9.73916 18.5826C10.1319 17.4204 10.0793 16.1538 9.59175 15.028L16.8807 9.359C17.0217 9.835 17.6077 11.743 17.7367 12.182C16.5415 12.4941 15.5043 13.2381 14.8256 14.2703C14.1469 15.3025 13.8748 16.5497 14.062 17.7708C14.2492 18.9918 14.8824 20.1002 15.8391 20.8817C16.7958 21.6632 18.0083 22.0624 19.2422 22.0021C20.476 21.9418 21.6438 21.4263 22.5197 20.5552C23.3957 19.6841 23.9177 18.5193 23.985 17.2858C24.0522 16.0522 23.6598 14.8376 22.8837 13.8765C22.1076 12.9154 21.0028 12.276 19.7827 12.082V12.079ZM4.99975 20C4.4064 20 3.82638 19.8241 3.33304 19.4944C2.83969 19.1648 2.45517 18.6962 2.22811 18.1481C2.00105 17.5999 1.94164 16.9967 2.05739 16.4147C2.17315 15.8328 2.45887 15.2982 2.87843 14.8787C3.29799 14.4591 3.83253 14.1734 4.41448 14.0576C4.99642 13.9419 5.59962 14.0013 6.1478 14.2284C6.69598 14.4554 7.16451 14.8399 7.49416 15.3333C7.8238 15.8266 7.99975 16.4067 7.99975 17C7.99975 17.7956 7.68368 18.5587 7.12107 19.1213C6.55846 19.6839 5.7954 20 4.99975 20ZM18.9997 20C18.4064 20 17.8264 19.8241 17.333 19.4944C16.8397 19.1648 16.4552 18.6962 16.2281 18.1481C16.001 17.5999 15.9416 16.9967 16.0574 16.4147C16.1731 15.8328 16.4589 15.2982 16.8784 14.8787C17.298 14.4591 17.8325 14.1734 18.4145 14.0576C18.9964 13.9419 19.5996 14.0013 20.1478 14.2284C20.696 14.4554 21.1645 14.8399 21.4942 15.3333C21.8238 15.8266 21.9997 16.4067 21.9997 17C21.9997 17.7956 21.6837 18.5587 21.1211 19.1213C20.5585 19.6839 19.7954 20 18.9997 20Z" fill="black"/>
</svg>
