<svg width="24" height="24" viewBox="0 0 24 24" fill="none" xmlns="http://www.w3.org/2000/svg">
<g clip-path="url(#clip0_403_2145)">
<path d="M16.0008 16C16.0008 16.1978 15.9421 16.3911 15.8322 16.5556C15.7223 16.72 15.5662 16.8482 15.3834 16.9239C15.2007 16.9996 14.9996 17.0194 14.8057 16.9808C14.6117 16.9422 14.4335 16.847 14.2936 16.7071C14.1538 16.5673 14.0586 16.3891 14.02 16.1951C13.9814 16.0011 14.0012 15.8 14.0769 15.6173C14.1526 15.4346 14.2807 15.2784 14.4452 15.1685C14.6096 15.0586 14.803 15 15.0008 15C15.266 15 15.5203 15.1054 15.7079 15.2929C15.8954 15.4804 16.0008 15.7348 16.0008 16ZM19.0008 15C18.803 15 18.6096 15.0586 18.4452 15.1685C18.2807 15.2784 18.1526 15.4346 18.0769 15.6173C18.0012 15.8 17.9814 16.0011 18.02 16.1951C18.0586 16.3891 18.1538 16.5673 18.2936 16.7071C18.4335 16.847 18.6117 16.9422 18.8057 16.9808C18.9996 17.0194 19.2007 16.9996 19.3834 16.9239C19.5662 16.8482 19.7223 16.72 19.8322 16.5556C19.9421 16.3911 20.0008 16.1978 20.0008 16C20.0008 15.7348 19.8954 15.4804 19.7079 15.2929C19.5203 15.1054 19.266 15 19.0008 15ZM17.0008 12C16.803 12 16.6096 12.0586 16.4452 12.1685C16.2807 12.2784 16.1526 12.4346 16.0769 12.6173C16.0012 12.8 15.9814 13.0011 16.02 13.1951C16.0586 13.3891 16.1538 13.5673 16.2936 13.7071C16.4335 13.847 16.6117 13.9422 16.8057 13.9808C16.9996 14.0194 17.2007 13.9996 17.3834 13.9239C17.5662 13.8482 17.7223 13.72 17.8322 13.5556C17.9421 13.3911 18.0008 13.1978 18.0008 13C18.0008 12.7348 17.8954 12.4804 17.7079 12.2929C17.5203 12.1054 17.266 12 17.0008 12ZM24.0008 16C24.0027 17.5294 23.5656 19.0272 22.7415 20.3156C21.9174 21.6039 20.7408 22.6287 19.3515 23.2682C17.9622 23.9077 16.4186 24.135 14.904 23.9231C13.3893 23.7112 11.9673 23.0691 10.8068 22.073C10.4504 22.6602 9.949 23.1458 9.35078 23.4833C8.75255 23.8207 8.07759 23.9987 7.39075 24H4.61075C3.85057 24.0006 3.10596 23.7846 2.46413 23.3773C1.8223 22.9699 1.30983 22.3881 0.986753 21.7C0.318442 20.2243 -0.0181291 18.6199 0.000752699 17C0.120822 15.0638 0.717139 13.1873 1.73675 11.537C2.41838 10.4679 2.85041 9.25897 3.00075 8C2.88671 7.25882 2.70118 6.53042 2.44675 5.825C2.21866 5.23887 2.06871 4.62527 2.00075 4C2.00075 2.93913 2.42218 1.92172 3.17233 1.17157C3.92247 0.421427 4.93989 0 6.00075 0C7.06162 0 8.07903 0.421427 8.82918 1.17157C9.57933 1.92172 10.0008 2.93913 10.0008 4C9.9328 4.62527 9.78284 5.23887 9.55475 5.825C9.30032 6.53042 9.11479 7.25882 9.00075 8C9.0861 9.00243 9.3961 9.97276 9.90775 10.839C10.964 9.58638 12.3799 8.68891 13.9635 8.26831C15.5471 7.8477 17.2217 7.92432 18.7603 8.48776C20.2989 9.0512 21.6269 10.0742 22.5644 11.418C23.5018 12.7619 24.0033 14.3615 24.0008 16ZM4.00075 4C4.01675 4.15 4.21175 4.772 4.35475 5.226C4.69265 6.11777 4.90991 7.05069 5.00075 8H7.00075C7.0916 7.05069 7.30886 6.11777 7.64675 5.226C7.78734 4.81505 7.90552 4.39677 8.00075 3.973C7.99717 3.44257 7.78302 2.93528 7.40542 2.56274C7.02782 2.1902 6.51769 1.98292 5.98725 1.9865C5.45682 1.99008 4.94953 2.20423 4.57699 2.58183C4.20445 2.95944 3.99717 3.46957 4.00075 4ZM9.20075 20.856C9.74617 19.6446 10.0193 18.3284 10.0008 17C9.86801 15.3867 9.34945 13.829 8.48875 12.458C8.05568 11.6672 7.68134 10.8457 7.36875 10H4.63275C4.32017 10.8457 3.94583 11.6672 3.51275 12.458C2.65206 13.829 2.13349 15.3867 2.00075 17C1.98236 18.3287 2.25544 19.6452 2.80075 20.857C2.96315 21.1994 3.21951 21.4887 3.53996 21.691C3.86041 21.8934 4.23176 22.0006 4.61075 22H7.39075C7.76986 22.0005 8.14128 21.8932 8.46174 21.6906C8.7822 21.4881 9.0385 21.1986 9.20075 20.856ZM22.0008 16C22.0025 14.6964 21.579 13.4278 20.7945 12.3866C20.01 11.3455 18.9073 10.5886 17.6538 10.2309C16.4002 9.87315 15.0641 9.93407 13.8483 10.4044C12.6325 10.8747 11.6032 11.7288 10.9168 12.837C11.5865 14.1255 11.9571 15.5485 12.0008 17C12.001 18.0332 11.8638 19.0619 11.5928 20.059C12.4094 20.9487 13.4758 21.5709 14.6522 21.8441C15.8286 22.1172 17.0601 22.0286 18.1852 21.5898C19.3104 21.151 20.2767 20.3825 20.9576 19.385C21.6384 18.3876 22.002 17.2077 22.0008 16Z" fill="black"/>
</g>
<defs>
<clipPath id="clip0_403_2145">
<rect width="24" height="24" fill="white"/>
</clipPath>
</defs>
</svg>
