<svg width="24" height="24" viewBox="0 0 24 24" fill="none" xmlns="http://www.w3.org/2000/svg">
<path d="M16.9995 23H6.99952C5.67392 22.9984 4.40308 22.4711 3.46574 21.5338C2.5284 20.5965 2.00111 19.3256 1.99952 18V10.446C1.99149 10.2944 1.95269 10.146 1.88547 10.0098C1.81825 9.87365 1.72402 9.75259 1.60852 9.65402C1.0009 9.09419 0.541818 8.39223 0.272501 7.61116C0.00318468 6.83009 -0.0679384 5.99436 0.0655181 5.17902C0.481518 2.60002 2.84952 1.00002 6.24152 1.00002H18.8475C20.0512 0.98791 21.2207 1.40013 22.1507 2.16432C23.0808 2.92851 23.712 3.99585 23.9335 5.17902C24.067 5.99508 23.9957 6.83153 23.7258 7.61318C23.4559 8.39482 22.9961 9.09715 22.3875 9.65701C22.2727 9.75536 22.1792 9.87602 22.1125 10.0117C22.0458 10.1473 22.0073 10.2951 21.9995 10.446V18C21.9979 19.3256 21.4706 20.5965 20.5333 21.5338C19.596 22.4711 18.3251 22.9984 16.9995 23ZM6.24152 3.00002C3.82752 3.00002 2.29652 3.91102 2.04152 5.50002C1.95731 5.98916 1.99783 6.49163 2.15934 6.96096C2.32085 7.43028 2.59813 7.85128 2.96552 8.18502C3.28591 8.46902 3.5434 8.81687 3.72147 9.20624C3.89954 9.5956 3.99424 10.0179 3.99952 10.446V18C3.99952 18.7957 4.31559 19.5587 4.8782 20.1213C5.44081 20.6839 6.20387 21 6.99952 21H16.9995C17.7952 21 18.5582 20.6839 19.1208 20.1213C19.6834 19.5587 19.9995 18.7957 19.9995 18V10.446C20.0041 10.0178 20.0985 9.59527 20.2766 9.20581C20.4547 8.81634 20.7126 8.46859 21.0335 8.18502C21.401 7.85133 21.6784 7.43037 21.8401 6.96106C22.0018 6.49174 22.0425 5.98924 21.9585 5.50002C21.8163 4.78422 21.4266 4.14137 20.8577 3.68422C20.2888 3.22708 19.5771 2.98485 18.8475 3.00002H6.24152ZM7.99952 12C7.7343 12 7.47995 12.1054 7.29241 12.2929C7.10488 12.4804 6.99952 12.7348 6.99952 13C6.99952 13.2652 7.10488 13.5196 7.29241 13.7071C7.47995 13.8947 7.7343 14 7.99952 14C8.26473 14 8.51909 13.8947 8.70662 13.7071C8.89416 13.5196 8.99952 13.2652 8.99952 13C8.99952 12.7348 8.89416 12.4804 8.70662 12.2929C8.51909 12.1054 8.26473 12 7.99952 12ZM11.9995 16C11.7343 16 11.4799 16.1054 11.2924 16.2929C11.1049 16.4804 10.9995 16.7348 10.9995 17C10.9995 17.2652 11.1049 17.5196 11.2924 17.7071C11.4799 17.8947 11.7343 18 11.9995 18C12.2647 18 12.5191 17.8947 12.7066 17.7071C12.8942 17.5196 12.9995 17.2652 12.9995 17C12.9995 16.7348 12.8942 16.4804 12.7066 16.2929C12.5191 16.1054 12.2647 16 11.9995 16ZM7.99952 16C7.7343 16 7.47995 16.1054 7.29241 16.2929C7.10488 16.4804 6.99952 16.7348 6.99952 17C6.99952 17.2652 7.10488 17.5196 7.29241 17.7071C7.47995 17.8947 7.7343 18 7.99952 18C8.26473 18 8.51909 17.8947 8.70662 17.7071C8.89416 17.5196 8.99952 17.2652 8.99952 17C8.99952 16.7348 8.89416 16.4804 8.70662 16.2929C8.51909 16.1054 8.26473 16 7.99952 16Z" fill="black"/>
</svg>
