<svg width="24" height="24" viewBox="0 0 24 24" fill="none" xmlns="http://www.w3.org/2000/svg">
<g clip-path="url(#clip0_403_2166)">
<path d="M17.9934 2.28613C16.7729 1.19568 15.278 0.458716 13.6698 0.154564C12.0615 -0.149588 10.4008 -0.00941759 8.8663 0.559992C7.33179 1.1294 5.98162 2.10649 4.96107 3.3861C3.94052 4.66572 3.28825 6.19941 3.07444 7.82213C2.88242 9.24498 3.03599 10.6931 3.52216 12.0441C4.00833 13.395 4.81278 14.6089 5.86744 15.5831C6.51964 16.1551 7.04592 16.8563 7.41292 17.6422C7.77993 18.4282 7.97965 19.2819 7.99944 20.1491V20.3101C8.0005 21.2885 8.38961 22.2264 9.08139 22.9182C9.77317 23.61 10.7111 23.9991 11.6894 24.0001H12.3094C13.2878 23.9991 14.2257 23.61 14.9175 22.9182C15.6093 22.2264 15.9984 21.2885 15.9994 20.3101V19.7611C16.0144 18.9946 16.1948 18.2403 16.5282 17.55C16.8617 16.8596 17.3403 16.2494 17.9314 15.7611C18.89 14.9216 19.6593 13.8879 20.1882 12.7286C20.7172 11.5693 20.9937 10.3109 20.9996 9.0366C21.0054 7.76235 20.7405 6.5014 20.2222 5.33729C19.704 4.17317 18.9443 3.13247 17.9934 2.28413V2.28613ZM12.3094 22.0001H11.6894C11.2414 21.9996 10.8118 21.8214 10.495 21.5046C10.1782 21.1877 9.99997 20.7582 9.99944 20.3101C9.99944 20.3101 9.99244 20.0501 9.99144 20.0001H13.9994V20.3101C13.9989 20.7582 13.8207 21.1877 13.5039 21.5046C13.187 21.8214 12.7575 21.9996 12.3094 22.0001ZM16.6094 14.2591C15.4709 15.2467 14.6486 16.5479 14.2454 18.0001H12.9994V10.8161C13.5823 10.61 14.0873 10.2289 14.4454 9.72483C14.8034 9.22076 14.9969 8.61839 14.9994 8.00013C14.9994 7.73492 14.8941 7.48056 14.7065 7.29303C14.519 7.10549 14.2647 7.00013 13.9994 7.00013C13.7342 7.00013 13.4799 7.10549 13.2923 7.29303C13.1048 7.48056 12.9994 7.73492 12.9994 8.00013C12.9994 8.26535 12.8941 8.5197 12.7065 8.70724C12.519 8.89478 12.2647 9.00013 11.9994 9.00013C11.7342 9.00013 11.4799 8.89478 11.2923 8.70724C11.1048 8.5197 10.9994 8.26535 10.9994 8.00013C10.9994 7.73492 10.8941 7.48056 10.7065 7.29303C10.519 7.10549 10.2647 7.00013 9.99944 7.00013C9.73422 7.00013 9.47987 7.10549 9.29233 7.29303C9.1048 7.48056 8.99944 7.73492 8.99944 8.00013C9.002 8.61839 9.19552 9.22076 9.55353 9.72483C9.91153 10.2289 10.4165 10.61 10.9994 10.8161V18.0001H9.67744C9.22643 16.5093 8.38056 15.1683 7.22944 14.1191C6.25239 13.2087 5.55616 12.0378 5.22291 10.7446C4.88966 9.45141 4.93328 8.08985 5.34865 6.82063C5.76401 5.5514 6.53378 4.42748 7.56711 3.5815C8.60043 2.73551 9.8542 2.20277 11.1804 2.04613C11.4554 2.01544 11.7318 2.00008 12.0084 2.00013C13.726 1.99503 15.3841 2.62876 16.6604 3.77813C17.4001 4.43773 17.9912 5.24702 18.3944 6.15236C18.7976 7.05769 19.0038 8.0384 18.9992 9.02945C18.9947 10.0205 18.7795 10.9993 18.3681 11.9009C17.9566 12.8025 17.3581 13.6063 16.6124 14.2591H16.6094Z" fill="black"/>
</g>
<defs>
<clipPath id="clip0_403_2166">
<rect width="24" height="24" fill="white"/>
</clipPath>
</defs>
</svg>
