<svg width="24" height="24" viewBox="0 0 24 24" fill="none" xmlns="http://www.w3.org/2000/svg">
<g clip-path="url(#clip0_403_2168)">
<path d="M21.5008 12.932C23.0399 11.4481 23.9372 9.42093 24.0008 7.284C24.0008 1.63 21.2338 1.02 20.0448 1.02C17.0768 1.02 14.1608 3.92 12.0038 6.541C9.86285 3.942 6.93785 1.02 3.96185 1.02C-0.187141 0.76 -1.70514 9.091 2.50686 12.933C2.68286 13.107 2.86586 13.27 3.05086 13.423C2.17027 14.2671 1.54274 15.3403 1.23887 16.5216C0.935002 17.703 0.96686 18.9457 1.33086 20.11C1.49901 20.6829 1.79267 21.2112 2.19052 21.6564C2.58836 22.1017 3.08039 22.4527 3.63085 22.684C4.16477 22.9124 4.74283 23.0192 5.32311 22.9965C5.9034 22.9739 6.47137 22.8224 6.98585 22.553C8.46555 21.7856 9.81947 20.7969 11.0008 19.621V22C11.0008 22.2652 11.1062 22.5196 11.2937 22.7071C11.4813 22.8946 11.7356 23 12.0008 23C12.2661 23 12.5204 22.8946 12.708 22.7071C12.8955 22.5196 13.0008 22.2652 13.0008 22V19.621C14.1829 20.7972 15.5379 21.7856 17.0188 22.552C17.5332 22.8217 18.1011 22.9735 18.6814 22.9963C19.2618 23.0192 19.8399 22.9125 20.3738 22.684C20.9242 22.4527 21.4161 22.1018 21.8139 21.6568C22.2117 21.2118 22.5055 20.6837 22.6738 20.111C23.0501 18.9453 23.0929 17.6975 22.7972 16.5088C22.5016 15.32 21.8793 14.2377 21.0008 13.384C21.1718 13.242 21.3388 13.092 21.5008 12.932ZM11.0008 15.636C11.0008 17.114 8.92085 19.278 6.05385 20.782C5.80165 20.9156 5.52247 20.9905 5.23723 21.0009C4.952 21.0113 4.66811 20.9569 4.40685 20.842C4.12939 20.7249 3.88149 20.5475 3.68118 20.3227C3.48087 20.0978 3.33318 19.8311 3.24885 19.542C2.96154 18.643 2.95769 17.6774 3.23782 16.7762C3.51796 15.8749 4.06853 15.0817 4.81485 14.504C5.5718 14.8251 6.38465 14.9936 7.20685 15C8.50585 15.0178 9.79546 14.7775 11.0008 14.293V15.636ZM11.0008 11.985C9.86936 12.7244 8.53009 13.0802 7.18085 13C6.56328 12.9861 5.95498 12.8469 5.39286 12.5908C4.83074 12.3346 4.32653 11.9669 3.91085 11.51C2.75833 10.398 2.07798 8.88511 2.01086 7.285C2.01086 4.575 2.72386 3.021 3.96585 3.021C5.74685 3.02 8.10685 4.858 11.0008 8.491V11.985ZM13.0008 8.5C15.8808 4.87 18.2528 3.02 20.0448 3.02C21.2878 3.02 22.0008 4.574 22.0008 7.284C21.9335 8.88406 21.2532 10.3969 20.1008 11.509C19.2617 12.4108 18.1015 12.9464 16.8708 13C15.5052 13.08 14.1496 12.7227 13.0008 11.98V8.5ZM20.7528 19.548C20.6686 19.8372 20.521 20.1039 20.3207 20.3288C20.1203 20.5537 19.8724 20.7311 19.5948 20.848C19.3335 20.9627 19.0496 21.0168 18.7643 21.0063C18.4791 20.9957 18.2 20.9207 17.9478 20.787C15.0808 19.278 13.0008 17.114 13.0008 15.636V14.291C14.208 14.777 15.4997 15.018 16.8008 15C17.6352 14.9977 18.4603 14.8242 19.2248 14.49C19.9753 15.0675 20.5261 15.8653 20.8002 16.7717C21.0742 17.6781 21.0577 18.6475 20.7528 19.544V19.548ZM10.0008 2C10.0008 1.46957 10.2116 0.960859 10.5866 0.585786C10.9617 0.210714 11.4704 0 12.0008 0C12.5313 0 13.04 0.210714 13.4151 0.585786C13.7901 0.960859 14.0008 1.46957 14.0008 2C14.0008 2.53043 13.7901 3.03914 13.4151 3.41421C13.04 3.78929 12.5313 4 12.0008 4C11.4704 4 10.9617 3.78929 10.5866 3.41421C10.2116 3.03914 10.0008 2.53043 10.0008 2Z" fill="black"/>
</g>
<defs>
<clipPath id="clip0_403_2168">
<rect width="24" height="24" fill="white"/>
</clipPath>
</defs>
</svg>
