<svg width="24" height="24" viewBox="0 0 24 24" fill="none" xmlns="http://www.w3.org/2000/svg">
<g clip-path="url(#clip0_403_2183)">
<path d="M17.762 24C9.631 24.275 -5.01699 9.74504 1.78401 1.86704L2.934 0.867036C3.51613 0.304301 4.29642 -0.00658661 5.10603 0.00164798C5.91564 0.00988257 6.68944 0.336577 7.26 0.911036C7.29084 0.94244 7.31956 0.975846 7.346 1.01104L9.146 3.35004C9.69302 3.92887 9.99696 4.69561 9.9951 5.49203C9.99324 6.28845 9.68572 7.05376 9.136 7.63004L7.978 9.08604C8.61912 10.6431 9.56142 12.0582 10.7508 13.2502C11.9402 14.4422 13.3533 15.3876 14.909 16.032L16.373 14.867C16.9568 14.3309 17.7202 14.0329 18.5128 14.0318C19.3054 14.0307 20.0697 14.3265 20.655 14.861L22.995 16.661C23.0299 16.6874 23.0633 16.7158 23.095 16.746C23.6721 17.3284 23.9958 18.1152 23.9958 18.935C23.9958 19.7549 23.6721 20.5416 23.095 21.124L22.184 22.174C21.6061 22.7582 20.9172 23.2207 20.1577 23.5343C19.3982 23.848 18.5836 24.0063 17.762 24ZM5.071 2.00004C4.92729 1.99992 4.78497 2.02813 4.65217 2.08303C4.51936 2.13794 4.39867 2.21847 4.297 2.32004L3.146 3.32004C-2.49999 10.108 14.777 26.423 20.72 20.808L21.632 19.757C21.7404 19.6606 21.8286 19.5436 21.8916 19.4128C21.9546 19.2821 21.9911 19.1402 21.999 18.9952C22.0069 18.8503 21.9861 18.7053 21.9377 18.5684C21.8893 18.4316 21.8143 18.3057 21.717 18.198L19.39 16.411C19.3543 16.3848 19.3209 16.3557 19.29 16.324C19.0813 16.1252 18.8042 16.0143 18.516 16.0143C18.2278 16.0143 17.9506 16.1252 17.742 16.324C17.7154 16.3509 17.6874 16.3763 17.658 16.4L15.7 17.96C15.5641 18.0682 15.4023 18.1391 15.2306 18.1658C15.059 18.1925 14.8833 18.1739 14.721 18.112C12.7051 17.3611 10.8742 16.1856 9.3523 14.6652C7.83039 13.1449 6.65303 11.3151 5.9 9.30004C5.83334 9.13541 5.81172 8.95599 5.83738 8.78024C5.86304 8.60448 5.93505 8.43874 6.046 8.30004L7.6 6.34404C7.62311 6.31441 7.64817 6.28635 7.675 6.26004C7.87927 6.05402 7.99388 5.77565 7.99388 5.48554C7.99388 5.19542 7.87927 4.91705 7.675 4.71104C7.64383 4.67994 7.61508 4.64651 7.589 4.61104L5.806 2.28704C5.60453 2.105 5.34252 2.00448 5.071 2.00504V2.00004ZM22.564 12.576C27.554 5.23104 18.764 -3.54996 11.427 1.43904C11.3163 1.51291 11.2216 1.60812 11.1482 1.71908C11.0748 1.83005 11.0243 1.95454 10.9996 2.08527C10.9749 2.21601 10.9766 2.35035 11.0045 2.48043C11.0324 2.61051 11.086 2.73371 11.1621 2.84282C11.2382 2.95194 11.3353 3.04477 11.4478 3.11588C11.5602 3.18698 11.6857 3.23494 11.8169 3.25694C11.9481 3.27894 12.0824 3.27453 12.2119 3.24399C12.3414 3.21344 12.4635 3.15736 12.571 3.07904C18.045 -0.679964 24.681 5.96304 20.924 11.433C20.844 11.5405 20.7864 11.6629 20.7546 11.7931C20.7228 11.9232 20.7175 12.0584 20.7389 12.1906C20.7604 12.3229 20.8083 12.4494 20.8796 12.5628C20.9509 12.6762 21.0443 12.7741 21.1542 12.8507C21.2641 12.9273 21.3883 12.9811 21.5194 13.0087C21.6505 13.0364 21.7858 13.0375 21.9173 13.0119C22.0488 12.9862 22.1738 12.9345 22.2849 12.8596C22.396 12.7847 22.4909 12.6883 22.564 12.576ZM18.706 10.711C18.8935 10.5235 18.9988 10.2692 18.9988 10.004C18.9988 9.73887 18.8935 9.48456 18.706 9.29704L17 7.59004V5.00004C17 4.73482 16.8946 4.48047 16.7071 4.29293C16.5196 4.10539 16.2652 4.00004 16 4.00004C15.7348 4.00004 15.4804 4.10539 15.2929 4.29293C15.1053 4.48047 15 4.73482 15 5.00004V8.00004C15 8.26523 15.1054 8.51954 15.293 8.70704L17.293 10.707C17.4805 10.8945 17.7348 10.9998 18 10.9998C18.2652 10.9998 18.5195 10.8945 18.707 10.707L18.706 10.711Z" fill="black"/>
</g>
<defs>
<clipPath id="clip0_403_2183">
<rect width="24" height="24" fill="white"/>
</clipPath>
</defs>
</svg>
