<svg width="24" height="24" viewBox="0 0 24 24" fill="none" xmlns="http://www.w3.org/2000/svg">
<g clip-path="url(#clip0_403_2189)">
<path d="M23.9805 2.02292V6.02292C23.9805 6.28814 23.8752 6.54249 23.6876 6.73003C23.5001 6.91756 23.2457 7.02292 22.9805 7.02292C22.7153 7.02292 22.4609 6.91756 22.2734 6.73003C22.0859 6.54249 21.9805 6.28814 21.9805 6.02292V3.45992L16.6805 8.73192C16.4914 8.91362 16.2385 9.01376 15.9763 9.01077C15.714 9.00778 15.4635 8.9019 15.2786 8.71593C15.0937 8.52997 14.9892 8.27882 14.9877 8.01658C14.9862 7.75433 15.0878 7.50199 15.2705 7.31392L20.5905 2.02292H17.9805C17.7153 2.02292 17.4609 1.91756 17.2734 1.73003C17.0859 1.54249 16.9805 1.28814 16.9805 1.02292C16.9805 0.757705 17.0859 0.503351 17.2734 0.315814C17.4609 0.128278 17.7153 0.0229211 17.9805 0.0229211H21.9805C22.511 0.0229211 23.0197 0.233635 23.3947 0.608708C23.7698 0.98378 23.9805 1.49249 23.9805 2.02292ZM23.0755 16.7619C23.655 17.343 23.9805 18.1302 23.9805 18.9509C23.9805 19.7716 23.655 20.5588 23.0755 21.1399L22.1635 22.1899C13.9725 30.0279 -5.95648 10.1049 1.76352 1.88992L2.91252 0.889921C3.49461 0.326692 4.27486 0.014982 5.0848 0.0220917C5.89474 0.0292013 6.6694 0.35456 7.24152 0.927921C7.27152 0.958921 9.12452 3.36692 9.12452 3.36692C9.67419 3.94437 9.98026 4.71139 9.97914 5.50862C9.97802 6.30586 9.6698 7.07201 9.11852 7.64792L7.95952 9.10492C8.60036 10.662 9.54258 12.0772 10.732 13.269C11.9215 14.4609 13.3347 15.4059 14.8905 16.0499L16.3555 14.8849C16.9314 14.3339 17.6973 14.0259 18.4943 14.0248C19.2913 14.0237 20.0581 14.3295 20.6355 14.8789C20.6355 14.8789 23.0445 16.7319 23.0755 16.7619ZM21.7005 18.2159C21.7005 18.2159 19.3075 16.3739 19.2765 16.3439C19.0705 16.1397 18.7921 16.025 18.502 16.025C18.2119 16.025 17.9335 16.1397 17.7275 16.3439C17.7005 16.3699 15.6835 17.9779 15.6835 17.9779C15.5476 18.0861 15.3858 18.157 15.2142 18.1837C15.0425 18.2103 14.8668 18.1918 14.7045 18.1299C12.6877 17.3799 10.8559 16.2048 9.33337 14.6844C7.81083 13.1639 6.63324 11.3337 5.88052 9.31792C5.81467 9.15404 5.79339 8.97564 5.81886 8.80087C5.84433 8.6261 5.91563 8.46119 6.02552 8.32292C6.02552 8.32292 7.63252 6.30592 7.65952 6.27892C7.86378 6.07291 7.9784 5.79454 7.9784 5.50442C7.9784 5.2143 7.86378 4.93594 7.65952 4.72992C7.62952 4.69992 5.78752 2.30592 5.78752 2.30592C5.57854 2.1183 5.30572 2.01771 5.02496 2.02477C4.74421 2.03184 4.47679 2.14602 4.27752 2.34392L3.12852 3.34392C-2.51548 10.1259 14.7575 26.4419 20.7005 20.8259L21.6125 19.7759C21.8275 19.5786 21.957 19.3052 21.9735 19.0138C21.9899 18.7224 21.892 18.4362 21.7005 18.2159Z" fill="black"/>
</g>
<defs>
<clipPath id="clip0_403_2189">
<rect width="24" height="24" fill="white"/>
</clipPath>
</defs>
</svg>
