<svg width="24" height="24" viewBox="0 0 24 24" fill="none" xmlns="http://www.w3.org/2000/svg">
<g clip-path="url(#clip0_403_2187)">
<path d="M3.0002 7V3C3.0002 2.46957 3.21091 1.96086 3.58599 1.58579C3.96106 1.21071 4.46977 1 5.0002 1H9.0002C9.26542 1 9.51977 1.10536 9.70731 1.29289C9.89484 1.48043 10.0002 1.73478 10.0002 2C10.0002 2.26522 9.89484 2.51957 9.70731 2.70711C9.51977 2.89464 9.26542 3 9.0002 3H6.4392L12.3452 8.926C12.3658 8.9467 12.3902 8.96311 12.4172 8.97427C12.4441 8.98543 12.473 8.99112 12.5022 8.991C12.5311 8.99123 12.5599 8.98568 12.5866 8.97469C12.6134 8.96371 12.6378 8.94749 12.6582 8.927L19.5422 2.043C19.7308 1.86084 19.9834 1.76005 20.2456 1.76233C20.5078 1.7646 20.7586 1.86977 20.944 2.05518C21.1294 2.24059 21.2346 2.4914 21.2369 2.7536C21.2392 3.0158 21.1384 3.2684 20.9562 3.457L14.0722 10.341C13.8667 10.548 13.622 10.7121 13.3525 10.8237C13.083 10.9353 12.7939 10.9922 12.5022 10.991C12.21 10.9917 11.9205 10.9343 11.6507 10.8222C11.3808 10.7101 11.1359 10.5455 10.9302 10.338L5.0002 4.389V7C5.0002 7.26522 4.89484 7.51957 4.70731 7.70711C4.51977 7.89464 4.26542 8 4.0002 8C3.73498 8 3.48063 7.89464 3.29309 7.70711C3.10556 7.51957 3.0002 7.26522 3.0002 7ZM24.0002 20.107L23.9152 21.371C23.9005 22.0806 23.6078 22.756 23.1 23.2518C22.5921 23.7477 21.9099 24.0243 21.2002 24.022C21.1562 24.022 18.6782 23.7 18.6782 23.7C17.9809 23.6805 17.3177 23.3945 16.8249 22.9008C16.3321 22.4071 16.0474 21.7433 16.0292 21.046L15.8742 19.754C14.6382 19.2735 13.3262 19.0181 12.0002 19C10.6776 19.0067 9.36769 19.2589 8.1372 19.744L7.9802 21.044C7.9625 21.7425 7.67726 22.4075 7.18337 22.9018C6.68949 23.396 6.02468 23.6818 5.3262 23.7C5.3262 23.7 2.8482 24.022 2.8042 24.022C2.08262 24.0212 1.39083 23.7341 0.880686 23.2238C0.370542 22.7135 0.0837282 22.0216 0.0831989 21.3L0.000198866 20.176C-0.00590689 19.4746 0.128643 18.779 0.395897 18.1305C0.663152 17.4819 1.05769 16.8935 1.5562 16.4C6.0472 11.912 17.9562 11.913 22.4432 16.4C22.9351 16.8842 23.326 17.4611 23.5932 18.0974C23.8605 18.7338 23.9988 19.4168 24.0002 20.107ZM22.0002 20.037C21.9793 19.1979 21.6295 18.4006 21.0262 17.817C17.0442 13.832 6.3992 14.388 2.9692 17.817C2.66441 18.1154 2.42183 18.4712 2.2555 18.8639C2.08917 19.2567 2.0024 19.6785 2.0002 20.105L2.0812 21.232C2.06938 21.4247 2.13265 21.6146 2.25775 21.7617C2.38285 21.9088 2.56006 22.0017 2.7522 22.021C2.7522 22.021 5.2102 21.701 5.2522 21.701C5.44352 21.7005 5.62686 21.6242 5.76215 21.489C5.89743 21.3537 5.97367 21.1703 5.9742 20.979C5.9742 20.939 6.2132 18.929 6.2132 18.929C6.23377 18.7574 6.29848 18.594 6.40101 18.4549C6.50354 18.3157 6.64038 18.2055 6.7982 18.135C8.41309 17.3965 10.1665 17.0096 11.9422 17H12.0052C13.7899 17.026 15.5513 17.4096 17.1852 18.128C17.3466 18.197 17.4871 18.3072 17.5924 18.4476C17.6977 18.588 17.7642 18.7537 17.7852 18.928C17.7852 18.928 18.0242 20.938 18.0242 20.978C18.0247 21.1693 18.101 21.3527 18.2363 21.4879C18.3715 21.6232 18.5549 21.6995 18.7462 21.7C18.7902 21.7 21.2462 22.02 21.2462 22.02C21.4278 22.0066 21.5977 21.9251 21.7218 21.7918C21.8458 21.6584 21.9149 21.4831 21.9152 21.301L22.0002 20.037Z" fill="black"/>
</g>
<defs>
<clipPath id="clip0_403_2187">
<rect width="24" height="24" fill="white"/>
</clipPath>
</defs>
</svg>
