<svg width="24" height="24" viewBox="0 0 24 24" fill="none" xmlns="http://www.w3.org/2000/svg">
<path d="M9.00002 17.8802V6.71016C8.99886 6.51154 9.05688 6.31707 9.16669 6.15155C9.27649 5.98603 9.43309 5.85696 9.61654 5.78079C9.79998 5.70462 10.002 5.68481 10.1967 5.72388C10.3914 5.76295 10.5701 5.85913 10.71 6.00016L16.29 11.5902C16.4763 11.7775 16.5808 12.031 16.5808 12.2952C16.5808 12.5593 16.4763 12.8128 16.29 13.0002L10.71 18.5902C10.5701 18.7312 10.3914 18.8274 10.1967 18.8664C10.002 18.9055 9.79998 18.8857 9.61654 18.8095C9.43309 18.7334 9.27649 18.6043 9.16669 18.4388C9.05688 18.2733 8.99886 18.0788 9.00002 17.8802Z" fill="black"/>
</svg>
