<svg width="24" height="24" viewBox="0 0 24 24" fill="none" xmlns="http://www.w3.org/2000/svg">
<path d="M13.2888 18.5902L7.70876 13.0002C7.52251 12.8128 7.41797 12.5593 7.41797 12.2952C7.41797 12.031 7.52251 11.7775 7.70876 11.5902L13.2888 6.00016C13.4286 5.85913 13.6073 5.76295 13.8021 5.72388C13.9968 5.68481 14.1988 5.70462 14.3822 5.78079C14.5657 5.85696 14.7223 5.98603 14.8321 6.15155C14.9419 6.31707 14.9999 6.51154 14.9988 6.71016V17.8802C14.9999 18.0788 14.9419 18.2733 14.8321 18.4388C14.7223 18.6043 14.5657 18.7334 14.3822 18.8095C14.1988 18.8857 13.9968 18.9055 13.8021 18.8664C13.6073 18.8274 13.4286 18.7312 13.2888 18.5902Z" fill="black"/>
</svg>
