<svg width="24" height="24" viewBox="0 0 24 24" fill="none" xmlns="http://www.w3.org/2000/svg">
<g clip-path="url(#clip0_403_2206)">
<path d="M22.9991 5H20.4131L22.7061 2.707C22.8882 2.5184 22.989 2.2658 22.9867 2.0036C22.9845 1.7414 22.8793 1.49059 22.6939 1.30518C22.5085 1.11977 22.2577 1.0146 21.9955 1.01233C21.7333 1.01005 21.4807 1.11084 21.2921 1.293L18.9991 3.586V1C18.9991 0.734784 18.8937 0.48043 18.7062 0.292893C18.5186 0.105357 18.2643 0 17.9991 0C17.7338 0 17.4795 0.105357 17.292 0.292893C17.1044 0.48043 16.9991 0.734784 16.9991 1V5.456C16.1805 4.58461 15.2143 3.86486 14.1451 3.33C13.3943 2.99886 12.556 2.92204 11.7576 3.11122C10.9592 3.3004 10.2444 3.74522 9.72206 4.378C7.96406 6.136 3.06406 15.121 0.29906 20.319C0.0560493 20.792 -0.0305504 21.3298 0.0517373 21.8552C0.134025 22.3805 0.380952 22.8661 0.756942 23.2421C1.13293 23.6181 1.61857 23.865 2.1439 23.9473C2.66922 24.0296 3.20711 23.943 3.68006 23.7C8.88006 20.936 17.8631 16.035 19.6211 14.277C20.2537 13.7548 20.6984 13.0402 20.8878 12.2421C21.0771 11.4439 21.0007 10.6057 20.6701 9.855C20.1345 8.78564 19.4145 7.81916 18.5431 7H22.9991C23.2643 7 23.5186 6.89464 23.7062 6.70711C23.8937 6.51957 23.9991 6.26522 23.9991 6C23.9991 5.73478 23.8937 5.48043 23.7062 5.29289C23.5186 5.10536 23.2643 5 22.9991 5ZM18.2071 12.863C17.4921 13.4747 16.7248 14.0225 15.9141 14.5L13.7061 12.293C13.5175 12.1108 13.2649 12.01 13.0027 12.0123C12.7405 12.0146 12.4896 12.1198 12.3042 12.3052C12.1188 12.4906 12.0137 12.7414 12.0114 13.0036C12.0091 13.2658 12.1099 13.5184 12.2921 13.707L14.1621 15.576C11.4161 17.219 7.47306 19.418 2.74106 21.934C2.64654 21.9841 2.53843 22.0026 2.43262 21.9868C2.3268 21.9709 2.22887 21.9215 2.15322 21.8458C2.07756 21.7702 2.02817 21.6723 2.0123 21.5664C1.99643 21.4606 2.01492 21.3525 2.06506 21.258C3.58706 18.397 4.98806 15.834 6.22506 13.64L8.29206 15.707C8.48066 15.8892 8.73326 15.99 8.99546 15.9877C9.25766 15.9854 9.50847 15.8802 9.69388 15.6948C9.87929 15.5094 9.98446 15.2586 9.98673 14.9964C9.98901 14.7342 9.88822 14.4816 9.70606 14.293L7.25006 11.837C8.34006 9.948 9.25606 8.437 9.95906 7.374L12.2921 9.707C12.4807 9.88916 12.7333 9.98995 12.9955 9.98767C13.2577 9.9854 13.5085 9.88023 13.6939 9.69482C13.8793 9.50941 13.9845 9.2586 13.9867 8.9964C13.989 8.7342 13.8882 8.4816 13.7061 8.293L11.1731 5.76C12.0201 4.971 12.5391 4.838 13.3561 5.168C14.4901 5.8152 15.507 6.64887 16.3641 7.634C17.3496 8.49132 18.1836 9.50856 18.8311 10.643C19.0801 11.223 19.1771 11.894 18.2071 12.863Z" fill="black"/>
</g>
<defs>
<clipPath id="clip0_403_2206">
<rect width="24" height="24" fill="white"/>
</clipPath>
</defs>
</svg>
