<svg width="24" height="24" viewBox="0 0 24 24" fill="none" xmlns="http://www.w3.org/2000/svg">
<path d="M1 8H23C23.2652 8 23.5196 7.89464 23.7071 7.7071C23.8946 7.51957 24 7.26521 24 7C24 6.73478 23.8946 6.48043 23.7071 6.29289C23.5196 6.10536 23.2652 6 23 6H1C0.734784 6 0.48043 6.10536 0.292893 6.29289C0.105357 6.48043 0 6.73478 0 7C0 7.26521 0.105357 7.51957 0.292893 7.7071C0.48043 7.89464 0.734784 8 1 8Z" fill="black"/>
<path d="M1 14H9C9.26522 14 9.51957 13.8946 9.70711 13.7071C9.89464 13.5196 10 13.2652 10 13C10 12.7348 9.89464 12.4804 9.70711 12.2929C9.51957 12.1054 9.26522 12 9 12H1C0.734784 12 0.48043 12.1054 0.292893 12.2929C0.105357 12.4804 0 12.7348 0 13C0 13.2652 0.105357 13.5196 0.292893 13.7071C0.48043 13.8946 0.734784 14 1 14Z" fill="black"/>
<path d="M9 18H1C0.734784 18 0.48043 18.1054 0.292893 18.2929C0.105357 18.4804 0 18.7348 0 19C0 19.2652 0.105357 19.5196 0.292893 19.7071C0.48043 19.8947 0.734784 20 1 20H9C9.26522 20 9.51957 19.8947 9.70711 19.7071C9.89464 19.5196 10 19.2652 10 19C10 18.7348 9.89464 18.4804 9.70711 18.2929C9.51957 18.1054 9.26522 18 9 18Z" fill="black"/>
<path d="M23.707 21.707C23.5195 21.8945 23.2652 21.9998 23 21.9998C22.7348 21.9998 22.4805 21.8945 22.293 21.707L19.886 19.3C19.1732 19.755 18.3456 19.9977 17.5 20C16.61 20 15.74 19.7361 14.9999 19.2416C14.2599 18.7471 13.6831 18.0443 13.3425 17.2221C13.0019 16.3998 12.9128 15.495 13.0865 14.6221C13.2601 13.7492 13.6887 12.9474 14.318 12.318C14.9474 11.6887 15.7492 11.2601 16.6221 11.0865C17.495 10.9128 18.3998 11.0019 19.2221 11.3425C20.0443 11.6831 20.7471 12.2599 21.2416 12.9999C21.7361 13.74 22 14.61 22 15.5C21.9977 16.3456 21.755 17.1732 21.3 17.886L23.707 20.293C23.8945 20.4805 23.9998 20.7348 23.9998 21C23.9998 21.2652 23.8945 21.5195 23.707 21.707ZM17.5 18C17.9945 18 18.4778 17.8534 18.8889 17.5787C19.3001 17.304 19.6205 16.9135 19.8097 16.4567C19.9989 15.9999 20.0484 15.4972 19.952 15.0123C19.8555 14.5273 19.6174 14.0819 19.2678 13.7322C18.9181 13.3826 18.4727 13.1445 17.9877 13.048C17.5028 12.9516 17.0001 13.0011 16.5433 13.1903C16.0865 13.3795 15.696 13.7 15.4213 14.1111C15.1466 14.5222 15 15.0055 15 15.5C15 16.163 15.2634 16.7989 15.7322 17.2678C16.2011 17.7366 16.837 18 17.5 18Z" fill="black"/>
</svg>
