<svg width="24" height="24" viewBox="0 0 24 24" fill="none" xmlns="http://www.w3.org/2000/svg">
<g clip-path="url(#clip0_403_2208)">
<path d="M24.0005 11.9829C23.9984 11.1689 23.7476 10.3749 23.2817 9.70739C22.8157 9.03986 22.1569 8.53064 21.3935 8.24794L21.3555 8.15694C20.3635 5.73038 18.4643 3.78632 16.0615 2.73794L15.7325 2.59394C15.4493 1.83286 14.9401 1.1766 14.2732 0.713208C13.6063 0.249819 12.8136 0.00146484 12.0015 0.00146484C11.1895 0.00146484 10.3968 0.249819 9.72991 0.713208C9.06301 1.1766 8.55379 1.83286 8.27054 2.59394L7.85254 2.78194C5.47109 3.86359 3.59675 5.81956 2.61754 8.24494C1.85289 8.52354 1.19202 9.02984 0.723994 9.69563C0.255973 10.3614 0.00330135 11.1547 3.21294e-05 11.9685C-0.0032371 12.7823 0.243054 13.5776 0.70571 14.2471C1.16837 14.9166 1.82515 15.4282 2.58754 15.7129L2.71554 16.0129C3.71889 18.3418 5.56158 20.2081 7.87754 21.2409L8.27054 21.4169C8.55459 22.1769 9.06401 22.832 9.73061 23.2945C10.3972 23.757 11.1892 24.0049 12.0005 24.0049C12.8119 24.0049 13.6039 23.757 14.2705 23.2945C14.9371 22.832 15.4465 22.1769 15.7305 21.4169L16.0975 21.2539C18.5201 20.1707 20.4247 18.1854 21.4065 15.7199C22.1673 15.4343 22.8231 14.9237 23.2865 14.2561C23.7499 13.5885 23.999 12.7956 24.0005 11.9829ZM12.0005 1.99994C12.3961 1.99994 12.7828 2.11724 13.1117 2.337C13.4406 2.55676 13.6969 2.86912 13.8483 3.23457C13.9997 3.60003 14.0393 4.00216 13.9621 4.39012C13.8849 4.77808 13.6945 5.13445 13.4148 5.41415C13.1351 5.69386 12.7787 5.88434 12.3907 5.96151C12.0028 6.03868 11.6006 5.99908 11.2352 5.8477C10.8697 5.69632 10.5574 5.43998 10.3376 5.11108C10.1178 4.78218 10.0005 4.3955 10.0005 3.99994C10.0005 3.46951 10.2113 2.9608 10.5863 2.58573C10.9614 2.21065 11.4701 1.99994 12.0005 1.99994ZM3.98854 9.98494L4.07054 10.0159L4.08054 9.99094C4.58164 10.0358 5.04488 10.2763 5.36983 10.6604C5.69477 11.0445 5.85525 11.5412 5.81646 12.0428C5.77766 12.5444 5.54274 13.0105 5.1626 13.34C4.78246 13.6696 4.28775 13.836 3.78572 13.8033C3.28368 13.7705 2.81478 13.5412 2.48067 13.1651C2.14655 12.789 1.97415 12.2963 2.00084 11.7939C2.02753 11.2915 2.25115 10.8199 2.62323 10.4813C2.99531 10.1426 3.48586 9.96431 3.98854 9.98494ZM12.0005 21.9999C11.605 21.9999 11.2183 21.8826 10.8894 21.6629C10.5605 21.4431 10.3042 21.1308 10.1528 20.7653C10.0014 20.3999 9.9618 19.9977 10.039 19.6098C10.1161 19.2218 10.3066 18.8654 10.5863 18.5857C10.866 18.306 11.2224 18.1155 11.6104 18.0384C11.9983 17.9612 12.4005 18.0008 12.7659 18.1522C13.1314 18.3036 13.4437 18.5599 13.6635 18.8888C13.8832 19.2177 14.0005 19.6044 14.0005 19.9999C14.0005 20.5304 13.7898 21.0391 13.4148 21.4142C13.0397 21.7892 12.531 21.9999 12.0005 21.9999ZM15.8935 19.1139C15.6945 18.23 15.2005 17.44 14.4929 16.874C13.7853 16.3081 12.9062 15.9997 12 15.9997C11.0939 15.9997 10.2148 16.3081 9.50717 16.874C8.79956 17.44 8.30561 18.23 8.10654 19.1139C6.74113 18.3688 5.61938 17.246 4.87554 15.8799C5.75675 15.6808 6.54434 15.1886 7.10952 14.4838C7.6747 13.779 7.98403 12.9033 7.98694 11.9999C7.98984 11.0965 7.68614 10.2188 7.1255 9.51038C6.56486 8.80196 5.78046 8.30471 4.90054 8.09994C5.64711 6.75308 6.75829 5.64399 8.10654 4.89994C8.30644 5.78294 8.80062 6.57173 9.50794 7.13683C10.2153 7.70192 11.0937 8.00974 11.999 8.00974C12.9044 8.00974 13.7828 7.70192 14.4901 7.13683C15.1975 6.57173 15.6916 5.78294 15.8915 4.89994C17.2388 5.64316 18.3506 6.7494 19.1005 8.09294C18.2179 8.29453 17.4301 8.79023 16.8663 9.49864C16.3026 10.2071 15.9965 11.0861 15.9982 11.9914C16 12.8968 16.3095 13.7746 16.8759 14.4809C17.4424 15.1871 18.2322 15.6798 19.1155 15.8779C18.3693 17.2397 17.2521 18.3618 15.8935 19.1139ZM20.0005 13.9829C19.605 13.9829 19.2183 13.8656 18.8894 13.6459C18.5605 13.4261 18.3042 13.1138 18.1528 12.7483C18.0014 12.3829 17.9618 11.9807 18.039 11.5928C18.1161 11.2048 18.3066 10.8484 18.5863 10.5687C18.866 10.289 19.2224 10.0985 19.6104 10.0214C19.9983 9.9442 20.4005 9.98381 20.7659 10.1352C21.1314 10.2866 21.4437 10.5429 21.6635 10.8718C21.8832 11.2007 22.0005 11.5874 22.0005 11.9829C22.0005 12.5134 21.7898 13.0221 21.4148 13.3972C21.0397 13.7722 20.531 13.9829 20.0005 13.9829Z" fill="black"/>
</g>
<defs>
<clipPath id="clip0_403_2208">
<rect width="24" height="24" fill="white"/>
</clipPath>
</defs>
</svg>
