<svg width="24" height="24" viewBox="0 0 24 24" fill="none" xmlns="http://www.w3.org/2000/svg">
<g clip-path="url(#clip0_403_2219)">
<path d="M18.7136 11.9998H14.0006C13.4702 11.9998 12.9615 11.7891 12.5864 11.414C12.2114 11.0389 12.0006 10.5302 12.0006 9.9998V5.2738C12.002 4.81378 11.8976 4.35961 11.6954 3.94641C11.4932 3.5332 11.1987 3.17202 10.8346 2.8908C10.4897 2.61761 10.0865 2.42738 9.65635 2.33478C9.22616 2.24219 8.78045 2.24973 8.35364 2.3568C5.9293 2.95861 3.78297 4.36986 2.26961 6.35716C0.756255 8.34446 -0.0334836 10.7888 0.0310018 13.2859C0.0954873 15.783 1.01033 18.1832 2.62425 20.0898C4.23816 21.9963 6.45447 23.2949 8.90664 23.7708C11.6637 24.2985 14.5183 23.7522 16.8857 22.2437C19.2531 20.7352 20.9542 18.3787 21.6406 15.6568C21.7481 15.2294 21.7559 14.7831 21.6635 14.3522C21.5711 13.9214 21.3809 13.5175 21.1076 13.1718C20.8231 12.8083 20.4598 12.5139 20.0452 12.3109C19.6306 12.1079 19.1753 12.0016 18.7136 11.9998ZM19.7016 15.1678C19.3188 16.7097 18.5332 18.1222 17.4253 19.2608C16.3174 20.3995 14.927 21.2234 13.3962 21.6484C11.8654 22.0733 10.2492 22.0841 8.71284 21.6795C7.17653 21.2749 5.77526 20.4695 4.65235 19.3456C3.52944 18.2218 2.72519 16.8198 2.32186 15.2832C1.91854 13.7466 1.93061 12.1304 2.35684 10.5999C2.78307 9.06946 3.60817 7.67969 4.74774 6.57274C5.88731 5.4658 7.30046 4.68141 8.84264 4.2998C8.97457 4.26684 9.11239 4.26523 9.24506 4.29509C9.37773 4.32496 9.50156 4.38548 9.60664 4.4718C9.73073 4.56641 9.83136 4.68833 9.90073 4.8281C9.9701 4.96788 10.0063 5.12176 10.0066 5.2778V9.9998C10.0066 11.0607 10.4281 12.0781 11.1782 12.8282C11.9284 13.5784 12.9458 13.9998 14.0066 13.9998H18.7186C18.876 14.0004 19.0313 14.0368 19.1726 14.1061C19.3139 14.1753 19.4377 14.2758 19.5346 14.3998C19.6196 14.5063 19.6789 14.6311 19.7077 14.7643C19.7365 14.8976 19.7341 15.0357 19.7006 15.1678H19.7016Z" fill="black"/>
<path d="M23.6515 7.44614C23.1911 5.75361 22.2968 4.21064 21.0569 2.96992C19.8171 1.72919 18.2747 0.83373 16.5825 0.372139C16.4051 0.324449 16.2222 0.300242 16.0385 0.300139C15.7743 0.297629 15.5122 0.347507 15.2673 0.446892C15.0225 0.546277 14.7998 0.693198 14.612 0.879165C14.4243 1.06513 14.2753 1.28646 14.1736 1.53036C14.0719 1.77426 14.0195 2.03589 14.0195 2.30014V7.00014C14.0195 7.79579 14.3356 8.55885 14.8982 9.12146C15.4608 9.68407 16.2239 10.0001 17.0195 10.0001H21.7385C22.0472 9.99717 22.351 9.92308 22.6264 9.78362C22.9018 9.64416 23.1413 9.44309 23.3264 9.19602C23.5114 8.94896 23.637 8.66256 23.6934 8.35908C23.7498 8.05559 23.7355 7.74319 23.6515 7.44614ZM21.1535 8.00014H17.0155C16.7503 8.00014 16.496 7.89478 16.3084 7.70725C16.1209 7.51971 16.0155 7.26536 16.0155 7.00014L16.0075 2.30714C16.0149 2.30185 16.0235 2.29873 16.0325 2.29814H16.0585C17.4206 2.66922 18.6616 3.39105 19.6576 4.39158C20.6535 5.39211 21.3697 6.63636 21.7345 8.00014H21.1535Z" fill="black"/>
</g>
<defs>
<clipPath id="clip0_403_2219">
<rect width="24" height="24" fill="white"/>
</clipPath>
</defs>
</svg>
