<svg width="24" height="24" viewBox="0 0 24 24" fill="none" xmlns="http://www.w3.org/2000/svg">
<g clip-path="url(#clip0_403_2217)">
<path d="M20.0014 12C19.3879 11.9999 18.7827 12.1411 18.2326 12.4127C17.6825 12.6842 17.2023 13.0789 16.8294 13.566L16.7594 13.536C17.0344 12.684 17.0756 11.7738 16.8788 10.9004C16.6819 10.0271 16.2541 9.22262 15.6401 8.57104C15.0262 7.91947 14.2485 7.44469 13.3884 7.19631C12.5282 6.94792 11.6172 6.93503 10.7504 7.15898L10.6594 6.98698C11.3858 6.34071 11.8515 5.45172 11.9694 4.48663C12.0873 3.52153 11.8491 2.54658 11.2996 1.74449C10.7501 0.942394 9.92701 0.368214 8.9845 0.129556C8.04198 -0.109102 7.04478 0.0041444 6.17978 0.448071C5.31478 0.891997 4.64135 1.63613 4.28571 2.54102C3.93007 3.4459 3.91663 4.44942 4.2479 5.36351C4.57917 6.2776 5.23242 7.03951 6.08521 7.50645C6.93801 7.97339 7.93182 8.11331 8.88039 7.89998L8.95339 8.03698C7.95345 8.80431 7.28078 9.9215 7.07044 11.1643C6.8601 12.407 7.12765 13.6833 7.81939 14.737L5.93439 16.5C5.08236 16.0292 4.08791 15.8853 3.13738 16.0953C2.18686 16.3052 1.34551 16.8545 0.770989 17.6403C0.196469 18.4261 -0.0717874 19.3945 0.0164896 20.3639C0.104767 21.3333 0.543518 22.2373 1.25052 22.9064C1.95753 23.5755 2.88427 23.9638 3.85708 23.9986C4.82988 24.0334 5.78199 23.7122 6.53498 23.0953C7.28797 22.4784 7.79016 21.6081 7.94745 20.6475C8.10473 19.6868 7.90632 18.7018 7.38939 17.877L9.22739 16.159C10.2369 16.8337 11.4576 17.1175 12.6612 16.9572C13.8648 16.7968 14.9687 16.2034 15.7664 15.288L16.0454 15.407C15.9243 16.2144 16.0533 17.0396 16.4149 17.7716C16.7766 18.5037 17.3535 19.1075 18.0684 19.502C18.7832 19.8965 19.6017 20.0629 20.4138 19.9786C21.2259 19.8944 21.9928 19.5637 22.6115 19.0309C23.2302 18.4981 23.671 17.7887 23.8747 16.998C24.0784 16.2074 24.0353 15.3733 23.7511 14.6079C23.467 13.8425 22.9554 13.1823 22.2851 12.7161C21.6148 12.2499 20.8179 12 20.0014 12ZM6.00139 3.99998C6.00139 3.60442 6.11869 3.21774 6.33845 2.88884C6.55822 2.55995 6.87057 2.3036 7.23602 2.15223C7.60148 2.00085 8.00361 1.96124 8.39157 2.03841C8.77954 2.11558 9.1359 2.30607 9.41561 2.58577C9.69531 2.86548 9.88579 3.22184 9.96296 3.6098C10.0401 3.99777 10.0005 4.3999 9.84915 4.76535C9.69778 5.1308 9.44143 5.44316 9.11253 5.66292C8.78363 5.88269 8.39696 5.99998 8.00139 5.99998C7.47096 5.99998 6.96225 5.78927 6.58718 5.4142C6.21211 5.03913 6.00139 4.53042 6.00139 3.99998ZM4.00139 22C3.60583 22 3.21915 21.8827 2.89025 21.6629C2.56135 21.4432 2.30501 21.1308 2.15363 20.7654C2.00226 20.3999 1.96265 19.9978 2.03982 19.6098C2.11699 19.2218 2.30747 18.8655 2.58718 18.5858C2.86688 18.3061 3.22325 18.1156 3.61121 18.0384C3.99917 17.9612 4.40131 18.0009 4.76676 18.1522C5.13221 18.3036 5.44457 18.5599 5.66433 18.8888C5.88409 19.2177 6.00139 19.6044 6.00139 20C6.00139 20.5304 5.79068 21.0391 5.41561 21.4142C5.04053 21.7893 4.53182 22 4.00139 22ZM12.0014 15C11.3521 14.9987 10.7207 14.7868 10.2021 14.3961C9.68349 14.0054 9.30564 13.457 9.1253 12.8332C8.94495 12.2095 8.97185 11.544 9.20195 10.9369C9.43206 10.3297 9.85294 9.81355 10.4014 9.46598L10.8084 9.24898C11.2174 9.07109 11.6608 8.98662 12.1065 9.0017C12.5523 9.01679 12.989 9.13107 13.385 9.33621C13.781 9.54135 14.1263 9.83219 14.3957 10.1876C14.6651 10.543 14.8519 10.954 14.9425 11.3906C15.0331 11.8273 15.0252 12.2787 14.9194 12.7119C14.8135 13.1452 14.6124 13.5493 14.3307 13.8951C14.049 14.2408 13.6937 14.5194 13.2908 14.7105C12.8878 14.9016 12.4474 15.0005 12.0014 15ZM20.0014 18C19.6058 18 19.2192 17.8827 18.8903 17.6629C18.5614 17.4432 18.305 17.1308 18.1536 16.7654C18.0023 16.3999 17.9627 15.9978 18.0398 15.6098C18.117 15.2218 18.3075 14.8655 18.5872 14.5858C18.8669 14.3061 19.2232 14.1156 19.6112 14.0384C19.9992 13.9612 20.4013 14.0009 20.7668 14.1522C21.1322 14.3036 21.4446 14.5599 21.6643 14.8888C21.8841 15.2177 22.0014 15.6044 22.0014 16C22.0014 16.5304 21.7907 17.0391 21.4156 17.4142C21.0405 17.7893 20.5318 18 20.0014 18Z" fill="black"/>
</g>
<defs>
<clipPath id="clip0_403_2217">
<rect width="24" height="24" fill="white"/>
</clipPath>
</defs>
</svg>
