<svg width="24" height="24" viewBox="0 0 24 24" fill="none" xmlns="http://www.w3.org/2000/svg">
<g clip-path="url(#clip0_403_2224)">
<path d="M23.4137 18.24L15.5937 2.27497C15.2645 1.60271 14.7534 1.0363 14.1183 0.640129C13.4832 0.24396 12.7497 0.0339355 12.0012 0.0339355C11.2527 0.0339355 10.5192 0.24396 9.88411 0.640129C9.24903 1.0363 8.73785 1.60271 8.4087 2.27497L0.587697 18.24C0.288893 18.8498 0.15027 19.5257 0.184889 20.2039C0.219509 20.8821 0.426231 21.5403 0.785578 22.1166C1.14492 22.6928 1.64506 23.1681 2.23887 23.4976C2.83268 23.8271 3.5006 24 4.1797 24H19.8207C20.4999 24.0001 21.1679 23.8274 21.7619 23.4979C22.3558 23.1685 22.8561 22.6933 23.2156 22.117C23.575 21.5407 23.7818 20.8824 23.8165 20.2041C23.8512 19.5258 23.7125 18.8499 23.4137 18.24ZM19.6007 15H4.4007L6.8507 9.99997H17.1507L19.6007 15ZM10.2007 3.15497C10.3653 2.81898 10.6209 2.5359 10.9384 2.33791C11.2559 2.13992 11.6225 2.03497 11.9967 2.03497C12.3709 2.03497 12.7375 2.13992 13.055 2.33791C13.3725 2.5359 13.6281 2.81898 13.7927 3.15497L16.1697 7.99997H7.8307L10.2007 3.15497ZM21.5147 21.055C21.3374 21.346 21.0874 21.5858 20.7894 21.751C20.4913 21.9162 20.1554 22.0009 19.8147 21.997H4.1797C3.83981 21.9977 3.50535 21.9117 3.20791 21.7472C2.91046 21.5828 2.65984 21.3452 2.47969 21.057C2.29955 20.7688 2.19584 20.4394 2.17834 20.0999C2.16085 19.7605 2.23015 19.4222 2.3797 19.117L3.4217 17H20.5787L21.6167 19.12C21.7699 19.4238 21.8414 19.7622 21.8242 20.1019C21.807 20.4417 21.7017 20.7712 21.5187 21.058L21.5147 21.055Z" fill="black"/>
</g>
<defs>
<clipPath id="clip0_403_2224">
<rect width="24" height="24" fill="white"/>
</clipPath>
</defs>
</svg>
