<svg width="24" height="24" viewBox="0 0 24 24" fill="none" xmlns="http://www.w3.org/2000/svg">
<g clip-path="url(#clip0_403_2226)">
<path d="M19.9123 8.57339C19.9123 8.54967 19.9123 8.52595 19.9123 8.5012C19.9123 4.13297 16.3712 0.591797 12.0029 0.591797C7.63471 0.591797 4.09354 4.13297 4.09354 8.5012C4.09354 8.52591 4.09354 8.54962 4.09354 8.57339C0.269521 10.6849 -1.11878 15.4965 0.992708 19.3206C3.10419 23.1446 7.91586 24.5329 11.7399 22.4214C11.8285 22.3725 11.9163 22.3218 12.003 22.2695C15.7431 24.5263 20.6046 23.3238 22.8613 19.5837C25.1181 15.8436 23.9156 10.9821 20.1755 8.72536C20.0887 8.673 20.001 8.62233 19.9123 8.57339ZM12.0029 19.8443C10.9393 18.894 10.2541 17.592 10.0731 16.1773C11.3388 16.4943 12.6631 16.4943 13.9289 16.1773C13.7478 17.5897 13.0641 18.8897 12.0029 19.8394V19.8443ZM12.0029 14.4333C11.3788 14.4336 10.7584 14.3352 10.165 14.1416C10.4347 12.9296 11.0775 11.8325 12.0029 11.0046C12.9284 11.8325 13.5711 12.9296 13.8409 14.1416C13.2475 14.3352 12.6271 14.4336 12.0029 14.4333ZM8.37055 13.1875C7.2763 12.3401 6.51224 11.1372 6.21032 9.78652C7.5403 9.35339 8.98054 9.40416 10.2767 9.92986C9.38802 10.8462 8.73402 11.9639 8.37055 13.1875ZM13.7292 9.92489C15.0253 9.39919 16.4656 9.34842 17.7956 9.78155C17.4947 11.134 16.7305 12.3389 15.6353 13.1875C15.2726 11.9621 14.6186 10.8427 13.7292 9.92489ZM12.0029 2.56917C14.9876 2.57302 17.5061 4.79063 17.8875 7.75083C15.8935 7.25011 13.7829 7.54552 12.0029 8.57438C10.223 7.54547 8.11236 7.25011 6.11835 7.75083C6.49982 4.79067 9.01832 2.57302 12.0029 2.56917ZM2.11621 15.4219C2.1164 13.5882 2.96554 11.8578 4.41585 10.7356C4.99288 12.6811 6.29254 14.3321 8.04824 15.3497C8.04824 15.3735 8.04824 15.3972 8.04824 15.4219C8.04716 17.4745 8.84661 19.4466 10.2767 20.919C7.24049 22.1497 3.78144 20.6861 2.55069 17.6499C2.26382 16.9421 2.11626 16.1857 2.11621 15.4219ZM15.9576 21.354C15.1937 21.3545 14.4369 21.2068 13.7292 20.919C15.1593 19.4466 15.9587 17.4745 15.9576 15.422C15.9576 15.3973 15.9576 15.3735 15.9576 15.3498C17.7137 14.3323 19.0138 12.6813 19.591 10.7356C22.1792 12.7443 22.649 16.4707 20.6404 19.059C19.5174 20.5058 17.7891 21.3529 15.9576 21.354Z" fill="black"/>
</g>
<defs>
<clipPath id="clip0_403_2226">
<rect width="24" height="24" fill="white"/>
</clipPath>
</defs>
</svg>
