<svg width="24" height="24" viewBox="0 0 24 24" fill="none" xmlns="http://www.w3.org/2000/svg">
<g clip-path="url(#clip0_403_2230)">
<path d="M22.2923 12.7001L21.2063 13.7861L17.6213 10.2001C17.0497 9.65488 16.2902 9.35072 15.5003 9.35072C14.7104 9.35072 13.9509 9.65488 13.3793 10.2001L13.2063 10.3731C13.0159 10.5551 12.7627 10.6567 12.4993 10.6567C12.2359 10.6567 11.9827 10.5551 11.7923 10.3731L6.71929 5.29406C6.62704 5.19855 6.5167 5.12237 6.39469 5.06996C6.27269 5.01755 6.14147 4.98996 6.00869 4.98881C5.87591 4.98765 5.74423 5.01296 5.62133 5.06324C5.49844 5.11352 5.38679 5.18777 5.29289 5.28166C5.199 5.37556 5.12475 5.48721 5.07447 5.6101C5.02419 5.733 4.99888 5.86468 5.00004 5.99746C5.00119 6.13024 5.02878 6.26146 5.08119 6.38346C5.1336 6.50547 5.20978 6.61581 5.30529 6.70806L10.3773 11.7811C10.9487 12.3265 11.7083 12.6308 12.4983 12.6308C13.2882 12.6308 14.0478 12.3265 14.6193 11.7811L14.7923 11.6081C14.9827 11.426 15.2359 11.3244 15.4993 11.3244C15.7627 11.3244 16.0159 11.426 16.2063 11.6081L19.7923 15.2001L18.7063 16.2861C18.5665 16.4259 18.4713 16.6041 18.4327 16.798C18.3941 16.992 18.4139 17.193 18.4896 17.3757C18.5653 17.5584 18.6934 17.7146 18.8578 17.8245C19.0222 17.9343 19.2155 17.993 19.4133 17.9931H22.4993C22.8971 17.9931 23.2786 17.835 23.5599 17.5537C23.8413 17.2724 23.9993 16.8909 23.9993 16.4931V13.4001C23.9979 13.2029 23.9382 13.0106 23.8278 12.8472C23.7174 12.6839 23.5611 12.5568 23.3787 12.482C23.1963 12.4072 22.9959 12.388 22.8025 12.4268C22.6092 12.4656 22.4317 12.5607 22.2923 12.7001Z" fill="black"/>
<path d="M23 21.976H5C4.20435 21.976 3.44129 21.6599 2.87868 21.0973C2.31607 20.5347 2 19.7716 2 18.976V1C2 0.734784 1.89464 0.48043 1.70711 0.292893C1.51957 0.105357 1.26522 0 1 0C0.734784 0 0.48043 0.105357 0.292893 0.292893C0.105357 0.48043 0 0.734784 0 1L0 18.976C0.00158786 20.3016 0.528882 21.5724 1.46622 22.5098C2.40356 23.4471 3.67441 23.9744 5 23.976H23C23.2652 23.976 23.5196 23.8706 23.7071 23.6831C23.8946 23.4956 24 23.2412 24 22.976C24 22.7108 23.8946 22.4564 23.7071 22.2689C23.5196 22.0814 23.2652 21.976 23 21.976Z" fill="black"/>
</g>
<defs>
<clipPath id="clip0_403_2230">
<rect width="24" height="24" fill="white"/>
</clipPath>
</defs>
</svg>
