<svg width="24" height="24" viewBox="0 0 24 24" fill="none" xmlns="http://www.w3.org/2000/svg">
<g clip-path="url(#clip0_403_2243)">
<path d="M17 14C16.4696 14 15.9609 14.2107 15.5858 14.5858C15.2107 14.9609 15 15.4696 15 16C15 16.5304 15.2107 17.0391 15.5858 17.4142C15.9609 17.7893 16.4696 18 17 18C17.5304 18 18.0391 17.7893 18.4142 17.4142C18.7893 17.0391 19 16.5304 19 16C19 15.4696 18.7893 14.9609 18.4142 14.5858C18.0391 14.2107 17.5304 14 17 14Z" fill="black"/>
<path d="M7.99999 11C6.93913 11 5.92171 11.4214 5.17157 12.1716C4.42143 12.9217 4 13.9391 4 15C4 16.0609 4.42143 17.0783 5.17157 17.8284C5.92171 18.5786 6.93913 19 7.99999 19C9.06086 19 10.0783 18.5786 10.8284 17.8284C11.5786 17.0783 12 16.0609 12 15C12 13.9391 11.5786 12.9217 10.8284 12.1716C10.0783 11.4214 9.06086 11 7.99999 11ZM7.99999 17C7.46956 17 6.96085 16.7893 6.58578 16.4142C6.21071 16.0391 6 15.5304 6 15C6 14.4696 6.21071 13.9609 6.58578 13.5858C6.96085 13.2107 7.46956 13 7.99999 13C8.53043 13 9.03913 13.2107 9.4142 13.5858C9.78928 13.9609 9.99999 14.4696 9.99999 15C9.99999 15.5304 9.78928 16.0391 9.4142 16.4142C9.03913 16.7893 8.53043 17 7.99999 17Z" fill="black"/>
<path d="M21.5899 6.70024L13.7519 0.849235C12.905 0.277344 11.9021 -0.0189312 10.8804 0.000937808C9.85864 0.0208068 8.868 0.355849 8.04395 0.960235C4.80656 3.38291 2.38459 6.73488 1.10095 10.5692C1.08646 10.6204 1.07576 10.6725 1.06895 10.7252C0.958781 10.9412 0.864207 11.1648 0.785948 11.3942C-0.264587 14.3754 -0.264587 17.6261 0.785948 20.6072C1.12202 21.5974 1.76007 22.4573 2.61034 23.0659C3.46061 23.6746 4.48029 24.0013 5.52595 24.0002H9.14995C9.58363 23.9934 10.0038 23.8484 10.3495 23.5864C10.6951 23.3244 10.9482 22.9589 11.0719 22.5432C11.1733 22.2446 11.3656 21.9852 11.6219 21.8015C11.8782 21.6178 12.1856 21.519 12.5009 21.519C12.8163 21.519 13.1237 21.6178 13.38 21.8015C13.6363 21.9852 13.8286 22.2446 13.9299 22.5432C14.0537 22.9589 14.3068 23.3244 14.6524 23.5864C14.9981 23.8484 15.4183 23.9934 15.8519 24.0002H19.0009C20.3265 23.9986 21.5974 23.4714 22.5347 22.534C23.4721 21.5967 23.9994 20.3258 24.0009 19.0002V11.5072C23.9987 10.574 23.7798 9.65405 23.3614 8.81987C22.943 7.98568 22.3366 7.26008 21.5899 6.70024ZM9.24095 2.56224C9.72567 2.20747 10.3074 2.00964 10.9079 1.99534C11.5084 1.98103 12.0989 2.15095 12.5999 2.48224L19.9899 8.00024H5.52695C5.13766 7.99985 4.74967 8.04516 4.37095 8.13524C5.59519 5.96345 7.25284 4.06652 9.24095 2.56224ZM22.0009 19.0002C22.0009 19.7959 21.6849 20.5589 21.1223 21.1216C20.5597 21.6842 19.7966 22.0002 19.0009 22.0002L15.8349 21.9342C15.6005 21.2288 15.1483 20.6159 14.5433 20.1839C13.9383 19.7519 13.2118 19.5231 12.4684 19.5305C11.725 19.5378 11.0032 19.7809 10.4068 20.2248C9.81047 20.6686 9.37038 21.2903 9.14995 22.0002H5.52595C4.89846 22.0005 4.28667 21.8041 3.77668 21.4385C3.26668 21.0729 2.88416 20.5566 2.68295 19.9622C1.77544 17.3992 1.77544 14.6023 2.68295 12.0392C2.88483 11.445 3.26763 10.9289 3.77766 10.5632C4.28769 10.1976 4.89938 10.0007 5.52695 10.0002H21.7009C21.8974 10.4785 21.9993 10.9902 22.0009 11.5072V19.0002Z" fill="black"/>
</g>
<defs>
<clipPath id="clip0_403_2243">
<rect width="24" height="24" fill="white"/>
</clipPath>
</defs>
</svg>
