<svg width="24" height="24" viewBox="0 0 24 24" fill="none" xmlns="http://www.w3.org/2000/svg">
<g clip-path="url(#clip0_403_2247)">
<path d="M20.0263 22.0261H19.0263V20.3711C19.0242 19.835 18.9147 19.3047 18.7043 18.8116C18.494 18.3185 18.1869 17.8726 17.8013 17.5001C15.8773 15.6411 15.0923 13.5111 15.0353 10.0241H16.0233C16.2886 10.0241 16.5429 9.91873 16.7305 9.7312C16.918 9.54366 17.0233 9.28931 17.0233 9.02409C17.0233 8.75887 16.918 8.50452 16.7305 8.31698C16.5429 8.12945 16.2886 8.02409 16.0233 8.02409H15.4673C15.8277 7.41893 16.0197 6.72841 16.0233 6.02409C16.0233 4.64909 14.8613 2.30709 14.1303 1.15409C13.9043 0.800635 13.5928 0.509771 13.2248 0.308297C12.8568 0.106823 12.4439 0.0012207 12.0243 0.0012207C11.6048 0.0012207 11.1919 0.106823 10.8239 0.308297C10.4558 0.509771 10.1444 0.800635 9.91834 1.15409C9.18634 2.30809 8.02434 4.65409 8.02434 6.02509C8.02849 6.72934 8.22042 7.41974 8.58034 8.02509H8.02734C7.76213 8.02509 7.50777 8.13045 7.32024 8.31798C7.1327 8.50552 7.02734 8.75987 7.02734 9.02509C7.02734 9.29031 7.1327 9.54466 7.32024 9.7322C7.50777 9.91973 7.76213 10.0251 8.02734 10.0251H9.01634C8.95834 13.5121 8.17234 15.6411 6.25034 17.5001C5.86549 17.8728 5.55903 18.3187 5.34901 18.8116C5.13898 19.3045 5.02961 19.8343 5.02734 20.3701V22.0251H4.02734C3.76213 22.0251 3.50777 22.1304 3.32024 22.318C3.1327 22.5055 3.02734 22.7599 3.02734 23.0251C3.02734 23.2903 3.1327 23.5447 3.32024 23.7322C3.50777 23.9197 3.76213 24.0251 4.02734 24.0251H20.0273C20.2926 24.0251 20.5469 23.9197 20.7345 23.7322C20.922 23.5447 21.0273 23.2903 21.0273 23.0251C21.0273 22.7599 20.922 22.5055 20.7345 22.318C20.5469 22.1304 20.2926 22.0251 20.0273 22.0251L20.0263 22.0261ZM11.6093 2.22609C11.6549 2.15698 11.7169 2.10026 11.7897 2.06101C11.8626 2.02176 11.9441 2.00121 12.0268 2.00121C12.1096 2.00121 12.1911 2.02176 12.2639 2.06101C12.3368 2.10026 12.3988 2.15698 12.4443 2.22609C13.2115 3.37906 13.7487 4.66936 14.0263 6.02609C14.0263 6.55652 13.8156 7.06523 13.4406 7.4403C13.0655 7.81538 12.5568 8.02609 12.0263 8.02609C11.4959 8.02609 10.9872 7.81538 10.6121 7.4403C10.2371 7.06523 10.0263 6.55652 10.0263 6.02609C10.3047 4.66972 10.8422 3.37981 11.6093 2.22709V2.22609ZM13.0393 10.0261C13.0933 13.5421 13.8393 15.9771 15.5613 18.0261H8.49234C10.2123 15.9771 10.9603 13.5411 11.0153 10.0261H13.0393ZM7.02734 20.3711C7.02883 20.2552 7.04088 20.1398 7.06334 20.0261H16.9913C17.013 20.1399 17.0247 20.2553 17.0263 20.3711V22.0261H7.02634L7.02734 20.3711Z" fill="black"/>
</g>
<defs>
<clipPath id="clip0_403_2247">
<rect width="24" height="24" fill="white"/>
</clipPath>
</defs>
</svg>
