<svg width="24" height="24" viewBox="0 0 24 24" fill="none" xmlns="http://www.w3.org/2000/svg">
<g clip-path="url(#clip0_403_2249)">
<path d="M23.9996 11.5C23.999 10.8103 23.7948 10.1362 23.4124 9.56231C23.0301 8.98837 22.4867 8.54016 21.8506 8.27397C21.4445 5.95633 20.2343 3.85608 18.4327 2.34264C16.6311 0.8292 14.3535 -0.000488281 12.0006 -0.000488281C9.64762 -0.000488281 7.37004 0.8292 5.56843 2.34264C3.76682 3.85608 2.55657 5.95633 2.15056 8.27397C1.42456 8.5794 0.822808 9.12079 0.442604 9.81057C0.0624 10.5004 -0.0740269 11.2982 0.0553837 12.0752C0.184794 12.8521 0.572477 13.5626 1.15574 14.0919C1.73901 14.6213 2.48375 14.9384 3.26956 14.992C3.78605 16.088 4.48651 17.0875 5.34056 17.947C4.08914 19.3134 3.29495 21.036 3.06856 22.875C3.05217 23.0053 3.06163 23.1376 3.09638 23.2643C3.13114 23.391 3.19052 23.5096 3.27113 23.6133C3.35174 23.717 3.45199 23.8039 3.56617 23.8688C3.68035 23.9338 3.80621 23.9757 3.93656 23.992C3.97771 23.997 4.01911 23.9997 4.06056 24C4.30393 23.9997 4.53884 23.9107 4.72127 23.7496C4.90371 23.5885 5.02114 23.3664 5.05156 23.125C5.23286 21.6751 5.86817 20.3198 6.86656 19.253C8.3557 20.3522 10.1491 20.9625 11.9996 21C13.8446 20.9622 15.6327 20.3544 17.1186 19.26C18.1126 20.325 18.7453 21.6765 18.9266 23.122C18.9568 23.3636 19.0741 23.5859 19.2565 23.7472C19.439 23.9085 19.674 23.9977 19.9176 23.998C19.9593 23.9978 20.0011 23.9951 20.0426 23.99C20.3056 23.957 20.5448 23.8209 20.7076 23.6117C20.8704 23.4024 20.9434 23.1371 20.9106 22.874C20.6858 21.0397 19.8955 19.3208 18.6496 17.956C19.5083 17.0939 20.2126 16.0906 20.7316 14.99C21.6173 14.9311 22.4476 14.5379 23.0544 13.89C23.6611 13.242 23.999 12.3877 23.9996 11.5ZM20.2476 12.973C20.0143 12.9302 19.7735 12.9724 19.5686 13.0918C19.3637 13.2112 19.2083 13.4 19.1306 13.624C18.2146 16.222 15.1296 19 11.9996 19C8.86956 19 5.78456 16.22 4.86856 13.622C4.7906 13.3981 4.63518 13.2094 4.43036 13.0901C4.22553 12.9707 3.98479 12.9284 3.75156 12.971C3.66845 12.9873 3.58419 12.997 3.49956 13C3.12835 12.9955 2.77196 12.8536 2.49934 12.6016C2.22672 12.3496 2.05722 12.0055 2.02363 11.6358C1.99005 11.2661 2.09475 10.897 2.3175 10.6C2.54025 10.3031 2.86522 10.0992 3.22956 10.028C3.44217 9.98943 3.63658 9.88305 3.78368 9.72478C3.93078 9.5665 4.02266 9.36483 4.04556 9.14997C4.17911 7.87128 4.62036 6.64396 5.33158 5.57295C6.0428 4.50195 7.00282 3.61912 8.12956 2.99997C7.96582 3.63607 7.95827 4.30232 8.10756 4.94197C8.31087 5.78786 8.78442 6.54441 9.45642 7.09694C10.1284 7.64946 10.9622 7.96783 11.8315 8.00378C12.7007 8.03973 13.558 7.79132 14.2733 7.29618C14.9887 6.80104 15.5231 6.08618 15.7956 5.25997C15.84 5.1132 15.8492 4.95803 15.8226 4.80702C15.7959 4.65601 15.7341 4.5134 15.6421 4.39072C15.55 4.26804 15.4305 4.16874 15.293 4.10086C15.1554 4.03298 15.0039 3.99841 14.8506 3.99997H14.6996C14.5156 4.006 14.3384 4.07039 14.1935 4.18383C14.0486 4.29727 13.9436 4.45387 13.8936 4.63097C13.7773 4.98058 13.5668 5.29129 13.2851 5.52882C13.0035 5.76635 12.6617 5.92147 12.2975 5.97706C11.9333 6.03266 11.5608 5.98657 11.2211 5.84388C10.8815 5.7012 10.5878 5.46745 10.3725 5.16844C10.1573 4.86944 10.0288 4.51678 10.0013 4.14938C9.97377 3.78198 10.0483 3.41412 10.2166 3.08637C10.3849 2.75863 10.6404 2.48374 10.955 2.29204C11.2697 2.10033 11.6311 1.99926 11.9996 1.99997C13.9754 1.99524 15.8827 2.72387 17.3521 4.04476C18.8215 5.36564 19.7485 7.1848 19.9536 9.14997C19.9765 9.36483 20.0683 9.5665 20.2154 9.72478C20.3625 9.88305 20.5569 9.98943 20.7696 10.028C21.1339 10.0992 21.4589 10.3031 21.6816 10.6C21.9044 10.897 22.0091 11.2661 21.9755 11.6358C21.9419 12.0055 21.7724 12.3496 21.4998 12.6016C21.2271 12.8536 20.8708 12.9955 20.4996 13C20.415 12.9976 20.3307 12.9886 20.2476 12.973Z" fill="black"/>
<path d="M9.5 13C10.3284 13 11 12.3284 11 11.5C11 10.6716 10.3284 10 9.5 10C8.67157 10 8 10.6716 8 11.5C8 12.3284 8.67157 13 9.5 13Z" fill="black"/>
<path d="M14.5 13C15.3284 13 16 12.3284 16 11.5C16 10.6716 15.3284 10 14.5 10C13.6716 10 13 10.6716 13 11.5C13 12.3284 13.6716 13 14.5 13Z" fill="black"/>
</g>
<defs>
<clipPath id="clip0_403_2249">
<rect width="24" height="24" fill="white"/>
</clipPath>
</defs>
</svg>
