<svg width="24" height="24" viewBox="0 0 24 24" fill="none" xmlns="http://www.w3.org/2000/svg">
<g clip-path="url(#clip0_403_2255)">
<path d="M12 0C9.62663 0 7.30655 0.703788 5.33316 2.02236C3.35977 3.34094 1.8217 5.21509 0.913451 7.4078C0.00519943 9.60051 -0.232441 12.0133 0.230582 14.3411C0.693605 16.6689 1.83649 18.8071 3.51472 20.4853C5.19295 22.1635 7.33115 23.3064 9.65892 23.7694C11.9867 24.2324 14.3995 23.9948 16.5922 23.0866C18.7849 22.1783 20.6591 20.6402 21.9776 18.6668C23.2962 16.6935 24 14.3734 24 12C24 8.8174 22.7357 5.76516 20.4853 3.51472C18.2348 1.26428 15.1826 0 12 0V0ZM12 22C10.0222 22 8.08879 21.4135 6.4443 20.3147C4.79981 19.2159 3.51809 17.6541 2.76121 15.8268C2.00433 13.9996 1.8063 11.9889 2.19215 10.0491C2.578 8.10929 3.53041 6.32746 4.92894 4.92893C6.32746 3.53041 8.10929 2.578 10.0491 2.19215C11.9889 1.8063 13.9996 2.00433 15.8268 2.7612C17.6541 3.51808 19.2159 4.79981 20.3147 6.4443C21.4135 8.08879 22 10.0222 22 12C22 14.6522 20.9464 17.1957 19.0711 19.0711C17.1957 20.9464 14.6522 22 12 22Z" fill="black"/>
<path d="M15.1699 9.29324L10.9819 13.4932L8.73791 11.1532C8.64785 11.0548 8.539 10.9753 8.41777 10.9196C8.29654 10.8638 8.16537 10.8329 8.03201 10.8287C7.89864 10.8244 7.76577 10.8468 7.64121 10.8947C7.51666 10.9426 7.40295 11.0149 7.30678 11.1074C7.21061 11.1999 7.13393 11.3107 7.08124 11.4333C7.02856 11.5559 7.00094 11.6878 7.00002 11.8213C6.9991 11.9547 7.0249 12.087 7.07589 12.2103C7.12687 12.3336 7.20202 12.4454 7.29691 12.5392L9.60291 14.9393C9.77489 15.125 9.98275 15.2739 10.2139 15.3771C10.4451 15.4802 10.6948 15.5354 10.9479 15.5393H10.9809C11.229 15.5401 11.4747 15.4916 11.7039 15.3967C11.9331 15.3017 12.1411 15.1622 12.3159 14.9863L16.5879 10.7142C16.6812 10.6211 16.7553 10.5106 16.8058 10.3888C16.8564 10.2671 16.8825 10.1366 16.8826 10.0048C16.8828 9.87299 16.857 9.74244 16.8066 9.62061C16.7563 9.49877 16.6825 9.38804 16.5894 9.29474C16.4963 9.20144 16.3857 9.12738 16.264 9.07681C16.1423 9.02624 16.0118 9.00014 15.88 9C15.7482 8.99986 15.6176 9.02569 15.4958 9.076C15.3739 9.12631 15.2632 9.20013 15.1699 9.29324Z" fill="black"/>
</g>
<defs>
<clipPath id="clip0_403_2255">
<rect width="24" height="24" fill="white"/>
</clipPath>
</defs>
</svg>
