<svg width="24" height="24" viewBox="0 0 24 24" fill="none" xmlns="http://www.w3.org/2000/svg">
<g clip-path="url(#clip0_403_2258)">
<path d="M22.9498 9.5997C22.7623 9.41223 22.5079 9.30691 22.2428 9.30691C21.9776 9.30691 21.7233 9.41223 21.5358 9.5997L10.6438 20.5387C10.1795 21.003 9.62829 21.3714 9.02164 21.6227C8.41499 21.8741 7.76478 22.0035 7.10813 22.0035C5.78197 22.0036 4.51008 21.4769 3.57228 20.5392C2.63447 19.6015 2.10757 18.3297 2.10747 17.0035C2.10738 15.6774 2.63411 14.4055 3.57178 13.4677L14.1208 2.8757C14.6849 2.32059 15.4455 2.01087 16.2369 2.014C17.0283 2.01712 17.7864 2.33285 18.3461 2.8924C18.9058 3.45195 19.2217 4.20999 19.225 5.0014C19.2283 5.79282 18.9188 6.55348 18.3638 7.1177L7.81478 17.7097C7.62453 17.892 7.37124 17.9937 7.10778 17.9937C6.84431 17.9937 6.59103 17.892 6.40078 17.7097C6.21331 17.5222 6.10799 17.2679 6.10799 17.0027C6.10799 16.7375 6.21331 16.4832 6.40078 16.2957L15.7928 6.8607C15.9749 6.6721 16.0757 6.41949 16.0735 6.1573C16.0712 5.8951 15.966 5.64429 15.7806 5.45888C15.5952 5.27347 15.3444 5.1683 15.0822 5.16602C14.82 5.16374 14.5674 5.26454 14.3788 5.4467L4.98678 14.8817C4.70815 15.1603 4.48713 15.491 4.33633 15.855C4.18553 16.219 4.10792 16.6092 4.10792 17.0032C4.10792 17.3972 4.18553 17.7874 4.33633 18.1514C4.48713 18.5154 4.70815 18.8461 4.98678 19.1247C5.5584 19.6702 6.31816 19.9745 7.10828 19.9745C7.8984 19.9745 8.65816 19.6702 9.22978 19.1247L19.7778 8.5317C20.6958 7.59 21.2058 6.32455 21.1974 5.00947C21.1889 3.69439 20.6627 2.43558 19.7328 1.50572C18.8028 0.575864 17.5439 0.0498421 16.2288 0.0416022C14.9137 0.0333622 13.6483 0.543568 12.7068 1.4617L2.15778 12.0537C0.844957 13.3665 0.107422 15.1471 0.107422 17.0037C0.107422 18.8603 0.844957 20.6409 2.15778 21.9537C3.4706 23.2665 5.25117 24.0041 7.10778 24.0041C8.96439 24.0041 10.745 23.2665 12.0578 21.9537L22.9498 11.0177C23.0432 10.9248 23.1173 10.8143 23.1679 10.6926C23.2185 10.5709 23.2446 10.4405 23.2446 10.3087C23.2446 10.1769 23.2185 10.0464 23.1679 9.92478C23.1173 9.8031 23.0432 9.69263 22.9498 9.5997Z" fill="black"/>
</g>
<defs>
<clipPath id="clip0_403_2258">
<rect width="24" height="24" fill="white"/>
</clipPath>
</defs>
</svg>
