<svg width="24" height="24" viewBox="0 0 24 24" fill="none" xmlns="http://www.w3.org/2000/svg">
<path d="M17.7928 7.21221C17.3484 5.30149 16.2175 3.62065 14.615 2.48919C13.0124 1.35773 11.05 0.854523 9.10075 1.07522C7.15149 1.29592 5.35127 2.22514 4.04227 3.68625C2.73327 5.14736 2.00676 7.0385 2.00082 9.00021C1.99995 10.2786 2.30876 11.5382 2.90082 12.6712C1.82194 13.2493 0.967215 14.1714 0.472434 15.291C-0.0223463 16.4106 -0.1288 17.6634 0.169987 18.8503C0.468774 20.0373 1.15566 21.0904 2.12152 21.8423C3.08738 22.5942 4.2768 23.0017 5.50082 23.0002H16.0008C17.9599 22.9911 19.8476 22.2635 21.3058 20.9552C22.7641 19.647 23.6917 17.8491 23.9126 15.9025C24.1336 13.9559 23.6326 11.9959 22.5046 10.3941C21.3766 8.79234 19.7 7.66014 17.7928 7.21221ZM16.0008 21.0002H5.50082C4.64924 21.0028 3.8261 20.6939 3.18633 20.1319C2.54657 19.5699 2.1343 18.7934 2.02713 17.9486C1.91996 17.1037 2.12528 16.2489 2.60445 15.5449C3.08362 14.8409 3.80358 14.3364 4.62882 14.1262C4.78753 14.0854 4.93377 14.0061 5.05466 13.8955C5.17556 13.7848 5.26741 13.6462 5.32213 13.4917C5.37685 13.3372 5.39276 13.1716 5.36847 13.0096C5.34418 12.8475 5.28042 12.6939 5.18282 12.5622C4.41397 11.5339 3.99923 10.2841 4.00082 9.00021C4.01222 7.48619 4.5956 6.03246 5.63396 4.93056C6.67231 3.82866 8.08886 3.16005 9.59953 3.05884C11.1102 2.95762 12.6033 3.43127 13.7794 4.3848C14.9554 5.33834 15.7275 6.70125 15.9408 8.20021C15.9696 8.41786 16.0692 8.62 16.2243 8.77542C16.3793 8.93085 16.5812 9.03093 16.7988 9.06021C18.2976 9.27344 19.6604 10.0454 20.614 11.2212C21.5675 12.3971 22.0413 13.89 21.9404 15.4005C21.8394 16.911 21.1712 18.3276 20.0696 19.3661C18.9681 20.4046 17.5147 20.9883 16.0008 21.0002Z" fill="black"/>
</svg>
