<svg width="24" height="24" viewBox="0 0 24 24" fill="none" xmlns="http://www.w3.org/2000/svg">
<g clip-path="url(#clip0_403_2267)">
<path d="M18.7458 20.334C18.8334 20.4321 18.9007 20.5464 18.9441 20.6705C18.9874 20.7947 19.0058 20.9261 18.9983 21.0573C18.9908 21.1886 18.9574 21.317 18.9002 21.4354C18.843 21.5537 18.763 21.6596 18.6648 21.747L17.0788 23.161C16.8071 23.43 16.4848 23.6427 16.1306 23.7867C15.7764 23.9306 15.3972 24.0032 15.0148 24C14.6183 24.0008 14.2254 23.9233 13.8589 23.772C13.4924 23.6206 13.1593 23.3984 12.8788 23.118L11.3348 21.744C11.2367 21.6567 11.1568 21.5509 11.0996 21.4327C11.0424 21.3145 11.009 21.1861 11.0014 21.055C10.986 20.7902 11.0764 20.5302 11.2528 20.332C11.4292 20.1339 11.677 20.014 11.9418 19.9986C12.0729 19.991 12.2043 20.0093 12.3283 20.0524C12.4524 20.0956 12.5667 20.1627 12.6648 20.25L13.9998 21.444V14C13.9998 13.7348 14.1052 13.4805 14.2927 13.2929C14.4802 13.1054 14.7346 13 14.9998 13C15.265 13 15.5194 13.1054 15.7069 13.2929C15.8945 13.4805 15.9998 13.7348 15.9998 14V21.445L17.3348 20.253C17.5327 20.0768 17.7925 19.9864 18.0571 20.0016C18.3216 20.0168 18.5694 20.1363 18.7458 20.334ZM18.3558 7.36103C18.1841 7.30772 18.0283 7.21268 17.9023 7.08441C17.7763 6.95615 17.6841 6.79866 17.6338 6.62603C17.1043 4.92612 16.0229 3.45142 14.5608 2.43545C13.0986 1.41947 11.3394 0.920281 9.56151 1.01693C7.78367 1.11357 6.08888 1.80053 4.74549 2.96902C3.40211 4.1375 2.48691 5.72074 2.14482 7.46803C1.7938 9.23505 2.07708 11.0692 2.94482 12.648C1.93326 13.1703 1.11072 13.9963 0.592733 15.01C0.0747427 16.0238 -0.112671 17.1743 0.0568164 18.3C0.317468 19.6078 1.01763 20.7871 2.04103 21.6421C3.06444 22.4971 4.3495 22.9762 5.68282 23H7.99982C8.26503 23 8.51939 22.8947 8.70692 22.7071C8.89446 22.5196 8.99982 22.2653 8.99982 22C8.99982 21.7348 8.89446 21.4805 8.70692 21.2929C8.51939 21.1054 8.26503 21 7.99982 21H5.68282C4.82877 20.9836 4.00502 20.6807 3.34381 20.1399C2.6826 19.5992 2.2223 18.8519 2.03682 18.018C1.92823 17.3016 2.04671 16.5691 2.37564 15.9235C2.70457 15.2778 3.22742 14.7514 3.87082 14.418C4.32941 14.1646 4.66974 13.7407 4.81816 13.2382C4.96657 12.7357 4.91112 12.195 4.66382 11.733C4.27553 10.9925 4.04631 10.179 3.99087 9.34462C3.93544 8.51029 4.055 7.67358 4.3419 6.88817C4.6288 6.10276 5.0767 5.38598 5.65686 4.78383C6.23702 4.18167 6.93664 3.70743 7.71084 3.39152C8.48504 3.07561 9.31672 2.92501 10.1525 2.94938C10.9884 2.97375 11.8099 3.17255 12.5643 3.53303C13.3188 3.89351 13.9896 4.40771 14.5337 5.04265C15.0778 5.67759 15.4832 6.41924 15.7238 7.22003C15.8718 7.70274 16.1355 8.142 16.4919 8.49962C16.8483 8.85723 17.2866 9.12239 17.7688 9.27204C19.0751 9.66953 20.2057 10.5027 20.9722 11.6328C21.7386 12.7628 22.0946 14.1214 21.9808 15.482C21.9055 16.5401 21.519 17.5522 20.8698 18.391C20.7082 18.6014 20.6367 18.8673 20.6711 19.1303C20.7055 19.3933 20.843 19.6319 21.0533 19.7935C21.2636 19.9552 21.5296 20.0267 21.7926 19.9923C22.0556 19.9578 22.2942 19.8204 22.4558 19.61C23.3368 18.4614 23.8649 17.0814 23.9758 15.638C24.1268 13.8237 23.6514 12.0125 22.6287 10.5063C21.606 9.00007 20.0979 7.88996 18.3558 7.36103Z" fill="black"/>
</g>
<defs>
<clipPath id="clip0_403_2267">
<rect width="24" height="24" fill="white"/>
</clipPath>
</defs>
</svg>
