<svg width="24" height="24" viewBox="0 0 24 24" fill="none" xmlns="http://www.w3.org/2000/svg">
<g clip-path="url(#clip0_403_2263)">
<path d="M11.6926 22.9999C11.2986 23.0009 10.9082 22.9237 10.5441 22.7728C10.18 22.6219 9.8495 22.4003 9.57165 22.1209L6.18465 18.6999C6.07796 18.6105 5.9911 18.4998 5.92965 18.3748C5.8682 18.2499 5.8335 18.1136 5.82778 17.9745C5.82206 17.8354 5.84544 17.6967 5.89642 17.5671C5.9474 17.4376 6.02487 17.3201 6.12386 17.2223C6.22285 17.1244 6.34118 17.0483 6.47128 16.9988C6.60138 16.9493 6.74038 16.9275 6.8794 16.9348C7.01841 16.9421 7.15436 16.9783 7.27856 17.0412C7.40276 17.104 7.51246 17.1922 7.60065 17.2999L10.9846 20.7139C11.1751 20.8946 11.4276 20.9953 11.6901 20.9953C11.9527 20.9953 12.2052 20.8946 12.3957 20.7139L17.8097 15.2999C17.9972 15.1122 18.2515 15.0067 18.5168 15.0067C18.7821 15.0066 19.0365 15.1118 19.2241 15.2994C19.4118 15.4869 19.5173 15.7412 19.5174 16.0065C19.5174 16.2718 19.4122 16.5262 19.2247 16.7139L13.8097 22.1279C13.5318 22.4058 13.2017 22.6259 12.8384 22.7756C12.475 22.9253 12.0856 23.0015 11.6926 22.9999ZM7.00065 21.9999C7.00065 21.7346 6.89529 21.4803 6.70776 21.2927C6.52022 21.1052 6.26587 20.9999 6.00065 20.9999H5.68365C4.82961 20.9835 4.00585 20.6806 3.34464 20.1398C2.68343 19.599 2.22313 18.8517 2.03765 18.0179C1.92899 17.3013 2.04756 16.5687 2.37669 15.923C2.70582 15.2773 3.22897 14.7509 3.87265 14.4179C4.33114 14.164 4.67128 13.7399 4.81949 13.2373C4.96771 12.7346 4.91208 12.1938 4.66465 11.7319C4.27636 10.9913 4.04714 10.1778 3.99171 9.34344C3.93627 8.50911 4.05583 7.6724 4.34273 6.88699C4.62963 6.10158 5.07753 5.3848 5.65769 4.78265C6.23786 4.18049 6.93748 3.70625 7.71168 3.39034C8.48588 3.07443 9.31756 2.92383 10.1534 2.9482C10.9892 2.97257 11.8107 3.17137 12.5652 3.53185C13.3196 3.89233 13.9904 4.40654 14.5345 5.04147C15.0786 5.67641 15.484 6.41806 15.7247 7.21886C15.8724 7.70164 16.1359 8.14102 16.4921 8.49881C16.8483 8.8566 17.2865 9.12197 17.7687 9.27186C19.0753 9.6692 20.2063 10.5025 20.9729 11.6327C21.7396 12.763 22.0956 14.1219 21.9817 15.4829C21.8665 16.6649 21.394 17.7838 20.6271 18.6906C19.8602 19.5974 18.8352 20.2491 17.6887 20.5589C17.4398 20.6441 17.2345 20.8239 17.1173 21.0594C17.0001 21.2949 16.9804 21.5671 17.0624 21.817C17.1445 22.0669 17.3218 22.2744 17.5558 22.3946C17.7898 22.5147 18.0617 22.5378 18.3127 22.4589C19.9514 21.9912 21.3937 21.0035 22.4221 19.6447C23.4505 18.2859 24.0093 16.6295 24.0143 14.9254C24.0192 13.2213 23.4701 11.5617 22.4496 10.1969C21.4291 8.83211 19.9926 7.83604 18.3567 7.35886C18.185 7.30538 18.0293 7.21029 17.9033 7.08205C17.7774 6.95381 17.6851 6.7964 17.6347 6.62386C17.1055 4.92348 16.0241 3.44826 14.5618 2.43189C13.0996 1.41553 11.3399 0.916117 9.56176 1.01277C7.78357 1.10943 6.08847 1.79663 4.74497 2.96552C3.40146 4.1344 2.48637 5.71814 2.14465 7.46586C1.7932 9.23286 2.0765 11.0672 2.94465 12.6459C1.93242 13.1678 1.10939 13.9941 0.591483 15.0084C0.0735721 16.0227 -0.113137 17.1739 0.0576489 18.2999C0.3183 19.6077 1.01846 20.787 2.04187 21.6419C3.06527 22.4969 4.35033 22.9761 5.68365 22.9999H6.00065C6.26587 22.9999 6.52022 22.8945 6.70776 22.707C6.89529 22.5194 7.00065 22.2651 7.00065 21.9999Z" fill="black"/>
</g>
<defs>
<clipPath id="clip0_403_2263">
<rect width="24" height="24" fill="white"/>
</clipPath>
</defs>
</svg>
