<svg width="24" height="24" viewBox="0 0 24 24" fill="none" xmlns="http://www.w3.org/2000/svg">
<g clip-path="url(#clip0_403_2276)">
<path d="M3.00046 21.1232C2.7979 21.123 2.60017 21.0613 2.43346 20.9462C1.64108 20.4316 0.998504 19.717 0.570597 18.8747C0.14269 18.0323 -0.055396 17.092 -0.00366117 16.1486C0.0480737 15.2052 0.347797 14.2921 0.86525 13.5016C1.3827 12.7111 2.09957 12.0711 2.94346 11.6462C2.07522 10.0679 1.79191 8.23387 2.14346 6.4672C2.48532 4.71952 3.40052 3.13587 4.74409 1.96709C6.08766 0.798319 7.78279 0.111242 9.56097 0.0146998C11.3391 -0.0818428 13.0987 0.417668 14.5609 1.43411C16.0231 2.45055 17.1044 3.92581 17.6335 5.62619C17.6838 5.79858 17.776 5.95579 17.9021 6.08372C18.0281 6.21165 18.1839 6.3063 18.3555 6.3592C19.6136 6.74463 20.7569 7.43513 21.6837 8.36923C22.6105 9.30333 23.2919 10.4521 23.6675 11.7132C23.737 11.9654 23.705 12.2347 23.5783 12.4636C23.4515 12.6924 23.2402 12.8625 22.9895 12.9373C22.7389 13.0121 22.4689 12.9858 22.2374 12.8639C22.006 12.742 21.8315 12.5342 21.7515 12.2852C21.4696 11.3398 20.9585 10.4787 20.2636 9.77842C19.5688 9.07814 18.7116 8.56039 17.7685 8.2712C17.2866 8.1215 16.8485 7.85644 16.4923 7.49901C16.1361 7.14158 15.8725 6.70261 15.7245 6.22019C15.4841 5.41914 15.0789 4.67719 14.5349 4.04195C13.9909 3.40671 13.3201 2.89222 12.5656 2.53148C11.811 2.17074 10.9894 1.97173 10.1534 1.94723C9.31747 1.92272 8.4856 2.07325 7.71122 2.38916C6.93684 2.70507 6.23706 3.17939 5.65678 3.78167C5.07651 4.38395 4.62855 5.10089 4.34166 5.88648C4.05478 6.67208 3.93529 7.50897 3.99088 8.34346C4.04647 9.17795 4.27591 9.9916 4.66446 10.7322C4.91221 11.1943 4.96801 11.7353 4.81978 12.2382C4.67155 12.7411 4.33122 13.1654 3.87246 13.4192C3.33367 13.6842 2.87546 14.0883 2.54524 14.5898C2.21501 15.0913 2.02477 15.6719 1.99418 16.2715C1.96359 16.8712 2.09377 17.4681 2.37125 18.0006C2.64873 18.5331 3.06343 18.9817 3.57246 19.3002C3.74825 19.4215 3.88057 19.5959 3.95005 19.7979C4.01952 19.9999 4.02251 20.2188 3.95857 20.4226C3.89462 20.6264 3.76711 20.8043 3.5947 20.9304C3.42229 21.0565 3.21405 21.124 3.00046 21.1232ZM19.1005 24.0002C19.4589 23.9835 19.8147 23.9305 20.1625 23.8422C21.0635 23.6331 21.8878 23.1756 22.5418 22.5216C23.1959 21.8675 23.6534 21.0432 23.8625 20.1422C24.1649 18.876 23.9628 17.5418 23.2989 16.4219C22.635 15.3021 21.5615 14.4845 20.3055 14.1422C20.3055 14.1422 19.6765 13.9972 19.5395 13.6712C19.0557 12.5041 18.2159 11.5195 17.1397 10.8577C16.0636 10.1959 14.806 9.89071 13.5462 9.98558C12.2864 10.0805 11.0887 10.5706 10.1238 11.3861C9.15885 12.2016 8.47598 13.3008 8.17246 14.5272C7.95638 15.4231 7.93693 16.3551 8.11546 17.2592C7.44944 17.5456 6.88879 18.0318 6.51098 18.6506C6.13317 19.2694 5.95684 19.9902 6.00635 20.7135C6.05586 21.4368 6.32876 22.1269 6.78736 22.6884C7.24596 23.2499 7.86762 23.6552 8.56646 23.8482C8.83792 23.9298 9.11766 23.9808 9.40046 24.0002H19.1005ZM17.7005 14.4442C17.8742 14.8759 18.1587 15.2542 18.5253 15.5409C18.8919 15.8276 19.3276 16.0126 19.7885 16.0772C20.5442 16.2858 21.1892 16.7802 21.5871 17.4557C21.9849 18.1313 22.1045 18.9351 21.9205 19.6972C21.7912 20.23 21.5175 20.7167 21.1293 21.1038C20.7411 21.491 20.2536 21.7634 19.7205 21.8912C19.5055 21.9406 19.286 21.968 19.0655 21.9732C17.4005 22.0062 10.7945 22.0112 9.46546 21.9732C9.33747 21.9691 9.21034 21.9507 9.08646 21.9182C8.84174 21.8516 8.61838 21.7229 8.43809 21.5445C8.25779 21.3661 8.12667 21.1442 8.05746 20.9002C7.95436 20.5488 7.98399 20.1718 8.14071 19.8409C8.29743 19.5099 8.57031 19.2481 8.90746 19.1052C9.34338 18.9206 9.70047 18.5885 9.9162 18.1671C10.1319 17.7457 10.1926 17.2618 10.0875 16.8002C9.9618 16.2082 9.97241 15.5955 10.1185 15.0082C10.3222 14.1914 10.7783 13.4597 11.4221 12.9173C12.0658 12.3748 12.8642 12.0493 13.7037 11.987C14.5432 11.9248 15.3809 12.1289 16.0977 12.5705C16.8144 13.012 17.3735 13.6684 17.6955 14.4462L17.7005 14.4442Z" fill="black"/>
</g>
<defs>
<clipPath id="clip0_403_2276">
<rect width="24" height="24" fill="white"/>
</clipPath>
</defs>
</svg>
