<svg width="24" height="24" viewBox="0 0 24 24" fill="none" xmlns="http://www.w3.org/2000/svg">
<g clip-path="url(#clip0_403_2265)">
<path d="M21.7812 20.3669C23.0572 19.1049 23.8378 17.4268 23.9812 15.6379C24.1322 13.8235 23.6566 12.0121 22.6337 10.5059C21.6108 8.99968 20.1025 7.88965 18.3602 7.36092C18.1889 7.30747 18.0334 7.2125 17.9076 7.08444C17.7818 6.95638 17.6896 6.79921 17.6392 6.62692C17.2442 5.33202 16.5254 4.15927 15.5509 3.21955C14.5764 2.27983 13.3783 1.60419 12.0698 1.25652C10.7614 0.908843 9.38598 0.900622 8.07351 1.23263C6.76104 1.56464 5.55494 2.22591 4.56923 3.15392L1.70723 0.292919C1.51863 0.110761 1.26603 0.00996641 1.00383 0.0122448C0.741636 0.0145233 0.490824 0.119692 0.305416 0.3051C0.120008 0.490508 0.0148387 0.741321 0.0125602 1.00352C0.0102818 1.26571 0.111076 1.51832 0.293234 1.70692L22.2932 23.7069C22.4818 23.8891 22.7344 23.9899 22.9966 23.9876C23.2588 23.9853 23.5096 23.8801 23.6951 23.6947C23.8805 23.5093 23.9856 23.2585 23.9879 22.9963C23.9902 22.7341 23.8894 22.4815 23.7072 22.2929L21.7812 20.3669ZM9.10024 3.06492C10.5189 2.8496 11.9678 3.15055 13.1834 3.91304C14.399 4.67554 15.3006 5.84895 15.7242 7.21992C15.8721 7.70251 16.1356 8.1417 16.4919 8.4993C16.8481 8.85691 17.2862 9.12213 17.7682 9.27192C19.0747 9.66923 20.2055 10.5023 20.9722 11.6324C21.7388 12.7624 22.095 14.1211 21.9812 15.4819C21.878 16.7942 21.2995 18.0238 20.3542 18.9399L5.98223 4.56792C6.84973 3.7691 7.93496 3.24597 9.10024 3.06492ZM16.9932 21.8279C17.0213 22.0914 16.9436 22.3552 16.7773 22.5614C16.611 22.7677 16.3696 22.8995 16.1062 22.9279C15.6675 22.9751 15.2265 22.9985 14.7852 22.9979H5.68523C4.35185 22.9747 3.06654 22.496 2.04277 21.6414C1.01899 20.7868 0.318363 19.6077 0.0572343 18.2999C-0.112718 17.1752 0.0737376 16.0256 0.590436 15.0123C1.10713 13.999 1.92814 13.1729 2.93823 12.6499C2.13843 11.1896 1.83717 9.50809 2.08023 7.86092C2.1171 7.59822 2.25681 7.36093 2.46863 7.20124C2.68046 7.04155 2.94704 6.97255 3.20973 7.00942C3.47243 7.04628 3.70972 7.186 3.86941 7.39782C4.0291 7.60964 4.0981 7.87622 4.06123 8.13892C3.8836 9.36724 4.09333 10.6204 4.66123 11.7239C4.91154 12.1874 4.96886 12.731 4.82076 13.2365C4.67266 13.7421 4.33109 14.1687 3.87023 14.4239C3.22701 14.7573 2.7044 15.2839 2.37581 15.9296C2.04722 16.5753 1.92917 17.3077 2.03823 18.0239C2.22468 18.8565 2.68529 19.6025 3.34623 20.1421C4.00716 20.6817 4.83014 20.9838 5.68323 20.9999H14.7832C15.153 21.0002 15.5226 20.9805 15.8902 20.9409C16.1539 20.9139 16.4176 20.9919 16.6242 21.1579C16.8309 21.3239 16.9638 21.5646 16.9942 21.8279H16.9932Z" fill="black"/>
</g>
<defs>
<clipPath id="clip0_403_2265">
<rect width="24" height="24" fill="white"/>
</clipPath>
</defs>
</svg>
