<svg width="24" height="24" viewBox="0 0 24 24" fill="none" xmlns="http://www.w3.org/2000/svg">
<g clip-path="url(#clip0_403_2269)">
<path d="M21.0004 17.9998C20.2247 18.0007 19.4798 18.3034 18.9234 18.8438L15.9634 17.3628C15.9833 17.2427 15.9957 17.1214 16.0004 16.9998C15.9957 16.8781 15.9833 16.7569 15.9634 16.6368L18.9234 15.1558C19.4218 15.6332 20.0699 15.9237 20.7579 15.9783C21.4459 16.0328 22.1316 15.8479 22.699 15.455C23.2664 15.062 23.6806 14.4851 23.8715 13.8218C24.0625 13.1586 24.0184 12.4498 23.7467 11.8153C23.4751 11.1808 22.9926 10.6597 22.3809 10.34C21.7692 10.0204 21.0659 9.92192 20.3899 10.0613C19.714 10.2006 19.1069 10.5692 18.6715 11.1047C18.236 11.6401 17.9989 12.3096 18.0004 12.9998C18.0051 13.1214 18.0174 13.2427 18.0374 13.3628L15.0774 14.8438C14.654 14.4341 14.1193 14.1582 13.5402 14.0504C12.961 13.9426 12.3629 14.0078 11.8205 14.2377C11.278 14.4676 10.8153 14.8522 10.4901 15.3434C10.1648 15.8346 9.99131 16.4107 9.99131 16.9998C9.99131 17.5889 10.1648 18.165 10.4901 18.6562C10.8153 19.1474 11.278 19.5319 11.8205 19.7619C12.3629 19.9918 12.961 20.0569 13.5402 19.9492C14.1193 19.8414 14.654 19.5654 15.0774 19.1558L18.0374 20.6368C18.0174 20.7569 18.0051 20.8781 18.0004 20.9998C18.0004 21.5931 18.1763 22.1731 18.506 22.6665C18.8356 23.1598 19.3041 23.5444 19.8523 23.7714C20.4005 23.9985 21.0037 24.0579 21.5856 23.9421C22.1676 23.8264 22.7021 23.5407 23.1217 23.1211C23.5413 22.7015 23.827 22.167 23.9427 21.5851C24.0585 21.0031 23.9991 20.3999 23.772 19.8517C23.5449 19.3036 23.1604 18.835 22.6671 18.5054C22.1737 18.1757 21.5937 17.9998 21.0004 17.9998ZM21.0004 11.9998C21.1982 11.9998 21.3915 12.0584 21.5559 12.1683C21.7204 12.2782 21.8486 12.4344 21.9243 12.6171C21.9999 12.7998 22.0197 13.0009 21.9812 13.1949C21.9426 13.3889 21.8473 13.567 21.7075 13.7069C21.5676 13.8467 21.3894 13.942 21.1955 13.9806C21.0015 14.0192 20.8004 13.9994 20.6177 13.9237C20.435 13.848 20.2788 13.7198 20.1689 13.5554C20.059 13.3909 20.0004 13.1976 20.0004 12.9998C20.0004 12.7346 20.1057 12.4802 20.2933 12.2927C20.4808 12.1051 20.7352 11.9998 21.0004 11.9998ZM13.0004 17.9998C12.8026 17.9998 12.6093 17.9411 12.4448 17.8313C12.2804 17.7214 12.1522 17.5652 12.0765 17.3825C12.0008 17.1997 11.981 16.9987 12.0196 16.8047C12.0582 16.6107 12.1534 16.4325 12.2933 16.2927C12.4331 16.1528 12.6113 16.0576 12.8053 16.019C12.9993 15.9804 13.2003 16.0002 13.3831 16.0759C13.5658 16.1516 13.722 16.2798 13.8318 16.4442C13.9417 16.6087 14.0004 16.802 14.0004 16.9998C14.0004 17.265 13.895 17.5194 13.7075 17.7069C13.5199 17.8944 13.2656 17.9998 13.0004 17.9998ZM21.0004 21.9998C20.8026 21.9998 20.6093 21.9411 20.4448 21.8313C20.2804 21.7214 20.1522 21.5652 20.0765 21.3825C20.0008 21.1997 19.981 20.9987 20.0196 20.8047C20.0582 20.6107 20.1534 20.4325 20.2933 20.2927C20.4331 20.1528 20.6113 20.0576 20.8053 20.019C20.9993 19.9804 21.2003 20.0002 21.3831 20.0759C21.5658 20.1516 21.722 20.2798 21.8318 20.4442C21.9417 20.6087 22.0004 20.802 22.0004 20.9998C22.0004 21.265 21.895 21.5194 21.7075 21.7069C21.5199 21.8944 21.2656 21.9998 21.0004 21.9998ZM12.0004 21.9998C12.0004 22.265 11.895 22.5194 11.7075 22.7069C11.5199 22.8944 11.2656 22.9998 11.0004 22.9998H5.67937C4.34664 22.9754 3.06233 22.496 2.03967 21.6411C1.01701 20.7861 0.317533 19.6071 0.0573723 18.2998C-0.112919 17.1745 0.0738184 16.0241 0.59132 15.0104C1.10882 13.9968 1.93105 13.1708 2.94237 12.6488C2.07422 11.0701 1.79092 9.23579 2.14237 7.46879C2.48409 5.72107 3.39918 4.13733 4.74269 2.96845C6.08619 1.79956 7.7813 1.11236 9.55948 1.0157C11.3377 0.919046 13.0973 1.41846 14.5596 2.43482C16.0219 3.45119 17.1032 4.92641 17.6324 6.62679C17.6828 6.79933 17.7751 6.95674 17.901 7.08498C18.027 7.21321 18.1828 7.30831 18.3544 7.36179C18.4827 7.39791 18.6026 7.45935 18.7069 7.54248C18.8111 7.62562 18.8977 7.72877 18.9615 7.84586C19.0253 7.96296 19.0651 8.09163 19.0784 8.22432C19.0918 8.357 19.0785 8.49102 19.0392 8.61848C19 8.74594 18.9357 8.86426 18.8501 8.9665C18.7645 9.06873 18.6592 9.1528 18.5406 9.21377C18.422 9.27473 18.2924 9.31136 18.1595 9.3215C18.0265 9.33163 17.8928 9.31507 17.7664 9.27279C17.2842 9.1229 16.846 8.85753 16.4898 8.49974C16.1336 8.14195 15.8701 7.70257 15.7224 7.21979C15.4817 6.41899 15.0764 5.67734 14.5323 5.0424C13.9882 4.40747 13.3174 3.89326 12.5629 3.53278C11.8084 3.1723 10.9869 2.9735 10.1511 2.94913C9.31528 2.92476 8.4836 3.07536 7.7094 3.39127C6.9352 3.70718 6.23558 4.18142 5.65542 4.78358C5.07525 5.38573 4.62735 6.10251 4.34046 6.88792C4.05356 7.67333 3.93399 8.51004 3.98943 9.34437C4.04487 10.1787 4.27408 10.9922 4.66237 11.7328C4.90981 12.1947 4.96543 12.7355 4.81722 13.2382C4.669 13.7409 4.32886 14.165 3.87037 14.4188C3.22669 14.7519 2.70354 15.2782 2.37441 15.9239C2.04528 16.5696 1.92672 17.3022 2.03537 18.0188C2.22048 18.8523 2.68043 19.5995 3.34132 20.1401C4.00221 20.6808 4.82567 20.9835 5.67937 20.9998H11.0004C11.2656 20.9998 11.5199 21.1051 11.7075 21.2927C11.895 21.4802 12.0004 21.7346 12.0004 21.9998Z" fill="black"/>
</g>
<defs>
<clipPath id="clip0_403_2269">
<rect width="24" height="24" fill="white"/>
</clipPath>
</defs>
</svg>
