<svg width="24" height="24" viewBox="0 0 24 24" fill="none" xmlns="http://www.w3.org/2000/svg">
<g clip-path="url(#clip0_403_2287)">
<path d="M10.4996 16.9998C10.2366 17 9.97619 16.9484 9.73321 16.8478C9.49024 16.7472 9.26948 16.5998 9.08357 16.4138L5.29957 12.7148C5.10994 12.5291 5.00182 12.2758 4.99901 12.0104C4.9962 11.745 5.09891 11.4894 5.28457 11.2998C5.47022 11.1102 5.7236 11.0021 5.98896 10.9992C6.25432 10.9964 6.50994 11.0991 6.69957 11.2848L10.4926 14.9918L17.2986 8.2918C17.4905 8.12292 17.7398 8.03397 17.9953 8.04321C18.2508 8.05245 18.493 8.15919 18.6722 8.34148C18.8515 8.52378 18.9541 8.7678 18.959 9.0234C18.9639 9.279 18.8707 9.52677 18.6986 9.7158L11.9056 16.4228C11.7207 16.6067 11.5013 16.7523 11.26 16.8513C11.0188 16.9504 10.7604 17.0008 10.4996 16.9998ZM23.9996 18.9998V12.3398C24.0369 9.25725 22.9067 6.27469 20.8359 3.99097C18.7651 1.70725 15.9071 0.291436 12.8356 0.0277985C11.1212 -0.0921438 9.4011 0.157538 7.7916 0.759951C6.1821 1.36236 4.72077 2.30345 3.50648 3.51955C2.29219 4.73564 1.35327 6.19836 0.75324 7.80875C0.153213 9.41914 -0.0939187 11.1396 0.028565 12.8538C0.470565 19.2078 6.08157 23.9998 13.0826 23.9998H18.9996C20.3252 23.9982 21.596 23.4709 22.5333 22.5336C23.4707 21.5962 23.998 20.3254 23.9996 18.9998ZM12.6996 2.0238C15.266 2.25084 17.6515 3.44071 19.3767 5.35435C21.1018 7.268 22.0389 9.76362 21.9996 12.3398V18.9998C21.9996 19.7955 21.6835 20.5585 21.1209 21.1211C20.5583 21.6837 19.7952 21.9998 18.9996 21.9998H13.0826C7.04857 21.9998 2.39957 18.0998 2.02457 12.7158C1.92612 11.3444 2.11154 9.96739 2.56925 8.67087C3.02696 7.37434 3.74712 6.18613 4.68474 5.18047C5.62236 4.17481 6.75729 3.37331 8.01863 2.82605C9.27997 2.27878 10.6406 1.99751 12.0156 1.9998C12.2426 1.9998 12.4716 2.0088 12.6996 2.0238Z" fill="black"/>
</g>
<defs>
<clipPath id="clip0_403_2287">
<rect width="24" height="24" fill="white"/>
</clipPath>
</defs>
</svg>
