<svg width="24" height="24" viewBox="0 0 24 24" fill="none" xmlns="http://www.w3.org/2000/svg">
<g clip-path="url(#clip0_403_2289)">
<path d="M14.5005 6.99997C13.5689 6.98548 12.6696 7.34158 12.0005 7.98997C11.4861 7.50959 10.841 7.19214 10.1465 7.07759C9.45206 6.96304 8.73922 7.05651 8.09775 7.34624C7.45629 7.63597 6.91488 8.109 6.54169 8.70578C6.16849 9.30256 5.9802 9.99641 6.00051 10.7C6.00051 13.956 10.8745 17.436 11.4305 17.821C11.5979 17.9371 11.7968 17.9993 12.0005 17.9993C12.2042 17.9993 12.4031 17.9371 12.5705 17.821C13.1265 17.436 18.0005 13.956 18.0005 10.7C18.0253 9.74568 17.6708 8.82047 17.0148 8.12698C16.3588 7.43348 15.4547 7.02823 14.5005 6.99997ZM12.0005 15.762C10.2595 14.432 8.00051 12.202 8.00051 10.7C7.92451 8.69397 10.9135 8.29997 11.0005 10.454V11C11.0005 11.2652 11.1059 11.5195 11.2934 11.7071C11.4809 11.8946 11.7353 12 12.0005 12C12.2657 12 12.5201 11.8946 12.7076 11.7071C12.8952 11.5195 13.0005 11.2652 13.0005 11V10.454C13.0875 8.30197 16.0765 8.69397 16.0005 10.7C16.0005 12.2 13.7415 14.432 12.0005 15.762ZM12.8365 0.0279724C11.1222 -0.0918197 9.40224 0.157974 7.79286 0.760454C6.18349 1.36293 4.72228 2.30405 3.5081 3.52012C2.29392 4.7362 1.35509 6.19887 0.755123 7.80919C0.155155 9.4195 -0.091954 11.1399 0.0305131 12.854C0.470513 19.208 6.08251 24 13.0835 24H19.0005C20.3261 23.9984 21.597 23.4711 22.5343 22.5338C23.4716 21.5964 23.9989 20.3256 24.0005 19V12.34C24.0376 9.25749 22.9073 6.27506 20.8366 3.99139C18.7658 1.70772 15.9079 0.291838 12.8365 0.0279724ZM22.0005 19C22.0005 19.7956 21.6844 20.5587 21.1218 21.1213C20.5592 21.6839 19.7962 22 19.0005 22H13.0835C7.04951 22 2.40051 18.1 2.02551 12.716C1.92285 11.287 2.12844 9.8526 2.62836 8.50998C3.12828 7.16735 3.91086 5.94782 4.92311 4.93395C5.93537 3.92009 7.15365 3.13557 8.49548 2.63351C9.83731 2.13146 11.2714 1.92358 12.7005 2.02397C15.267 2.25101 17.6524 3.44088 19.3776 5.35453C21.1028 7.26817 22.0398 9.76379 22.0005 12.34V19Z" fill="black"/>
</g>
<defs>
<clipPath id="clip0_403_2289">
<rect width="24" height="24" fill="white"/>
</clipPath>
</defs>
</svg>
