<svg width="24" height="24" viewBox="0 0 24 24" fill="none" xmlns="http://www.w3.org/2000/svg">
<g clip-path="url(#clip0_403_2295)">
<path d="M24.0011 11.2471C23.8565 8.9071 23.0303 6.66059 21.6243 4.7845C20.2184 2.90841 18.2941 1.48477 16.0888 0.68907C13.8836 -0.106627 11.4936 -0.239591 9.21369 0.306571C6.93375 0.852733 4.86347 2.05415 3.25808 3.76269C1.65269 5.47124 0.582369 7.61224 0.179071 9.92173C-0.224228 12.2312 0.0571252 14.6083 0.988445 16.7598C1.91976 18.9113 3.46034 20.7433 5.42024 22.0298C7.38014 23.3164 9.67369 24.0013 12.0181 24.0001H19.0011C20.3268 23.9988 21.5978 23.4715 22.5352 22.5341C23.4726 21.5968 23.9998 20.3258 24.0011 19.0001V11.2471ZM22.0011 19.0001C22.0011 19.7957 21.6851 20.5588 21.1224 21.1214C20.5598 21.684 19.7968 22.0001 19.0011 22.0001H12.0181C10.6071 21.9994 9.21197 21.7014 7.92383 21.1254C6.63568 20.5494 5.4834 19.7083 4.54213 18.6571C3.5963 17.6063 2.88606 16.3655 2.45902 15.0179C2.03199 13.6702 1.89803 12.2468 2.06613 10.8431C2.33156 8.62902 3.32632 6.56626 4.89357 4.98C6.46082 3.39374 8.51143 2.37419 10.7221 2.08207C11.1534 2.02803 11.5875 2.00064 12.0221 2.00007C14.3526 1.99372 16.6109 2.80798 18.4011 4.30008C19.4467 5.16902 20.3048 6.24123 20.9237 7.45171C21.5425 8.66218 21.909 9.98572 22.0011 11.3421V19.0001Z" fill="black"/>
<path d="M8 8.99975H12C12.2652 8.99975 12.5196 8.8944 12.7071 8.70686C12.8946 8.51932 13 8.26497 13 7.99975C13 7.73454 12.8946 7.48018 12.7071 7.29265C12.5196 7.10511 12.2652 6.99976 12 6.99976H8C7.73478 6.99976 7.48043 7.10511 7.29289 7.29265C7.10536 7.48018 7 7.73454 7 7.99975C7 8.26497 7.10536 8.51932 7.29289 8.70686C7.48043 8.8944 7.73478 8.99975 8 8.99975Z" fill="black"/>
<path d="M16 11.0002H8C7.73478 11.0002 7.48043 11.1056 7.29289 11.2931C7.10536 11.4807 7 11.735 7 12.0002C7 12.2655 7.10536 12.5198 7.29289 12.7074C7.48043 12.8949 7.73478 13.0003 8 13.0003H16C16.2652 13.0003 16.5196 12.8949 16.7071 12.7074C16.8946 12.5198 17 12.2655 17 12.0002C17 11.735 16.8946 11.4807 16.7071 11.2931C16.5196 11.1056 16.2652 11.0002 16 11.0002Z" fill="black"/>
<path d="M16 15H8C7.73478 15 7.48043 15.1054 7.29289 15.2929C7.10536 15.4804 7 15.7348 7 16C7 16.2652 7.10536 16.5196 7.29289 16.7071C7.48043 16.8947 7.73478 17 8 17H16C16.2652 17 16.5196 16.8947 16.7071 16.7071C16.8946 16.5196 17 16.2652 17 16C17 15.7348 16.8946 15.4804 16.7071 15.2929C16.5196 15.1054 16.2652 15 16 15Z" fill="black"/>
</g>
<defs>
<clipPath id="clip0_403_2295">
<rect width="24" height="24" fill="white"/>
</clipPath>
</defs>
</svg>
