<svg width="24" height="24" viewBox="0 0 24 24" fill="none" xmlns="http://www.w3.org/2000/svg">
<g clip-path="url(#clip0_403_2307)">
<path d="M7 0C6.73478 0 6.48043 0.105357 6.29289 0.292893C6.10536 0.48043 6 0.734784 6 1V3C6 3.79565 5.68393 4.55871 5.12132 5.12132C4.55871 5.68393 3.79565 6 3 6H1C0.734784 6 0.48043 6.10536 0.292893 6.29289C0.105357 6.48043 0 6.73478 0 7C0 7.26522 0.105357 7.51957 0.292893 7.70711C0.48043 7.89464 0.734784 8 1 8H3C4.32559 7.99841 5.59644 7.47112 6.53378 6.53378C7.47112 5.59644 7.99841 4.32559 8 3V1C8 0.734784 7.89464 0.48043 7.70711 0.292893C7.51957 0.105357 7.26522 0 7 0V0Z" fill="black"/>
<path d="M23 15.9998H21C19.6744 16.0013 18.4036 16.5286 17.4662 17.466C16.5289 18.4033 16.0016 19.6742 16 20.9997V22.9997C16 23.265 16.1054 23.5193 16.2929 23.7068C16.4804 23.8944 16.7348 23.9997 17 23.9997C17.2652 23.9997 17.5196 23.8944 17.7071 23.7068C17.8946 23.5193 18 23.265 18 22.9997V20.9997C18 20.2041 18.3161 19.441 18.8787 18.8784C19.4413 18.3158 20.2043 17.9998 21 17.9998H23C23.2652 17.9998 23.5196 17.8944 23.7071 17.7069C23.8946 17.5193 24 17.265 24 16.9998C24 16.7345 23.8946 16.4802 23.7071 16.2926C23.5196 16.1051 23.2652 15.9998 23 15.9998Z" fill="black"/>
<path d="M21 8H23C23.2652 8 23.5196 7.89464 23.7071 7.70711C23.8946 7.51957 24 7.26522 24 7C24 6.73478 23.8946 6.48043 23.7071 6.29289C23.5196 6.10536 23.2652 6 23 6H21C20.2043 6 19.4413 5.68393 18.8787 5.12132C18.3161 4.55871 18 3.79565 18 3V1C18 0.734784 17.8946 0.48043 17.7071 0.292893C17.5196 0.105357 17.2652 0 17 0C16.7348 0 16.4804 0.105357 16.2929 0.292893C16.1054 0.48043 16 0.734784 16 1V3C16.0016 4.32559 16.5289 5.59644 17.4662 6.53378C18.4036 7.47112 19.6744 7.99841 21 8Z" fill="black"/>
<path d="M3 15.9998H1C0.734784 15.9998 0.48043 16.1051 0.292893 16.2926C0.105357 16.4802 0 16.7345 0 16.9998C0 17.265 0.105357 17.5193 0.292893 17.7069C0.48043 17.8944 0.734784 17.9998 1 17.9998H3C3.79565 17.9998 4.55871 18.3158 5.12132 18.8784C5.68393 19.441 6 20.2041 6 20.9997V22.9997C6 23.265 6.10536 23.5193 6.29289 23.7068C6.48043 23.8944 6.73478 23.9997 7 23.9997C7.26522 23.9997 7.51957 23.8944 7.70711 23.7068C7.89464 23.5193 8 23.265 8 22.9997V20.9997C7.99841 19.6742 7.47112 18.4033 6.53378 17.466C5.59644 16.5286 4.32559 16.0013 3 15.9998Z" fill="black"/>
</g>
<defs>
<clipPath id="clip0_403_2307">
<rect width="24" height="24" fill="white"/>
</clipPath>
</defs>
</svg>
