<svg width="24" height="24" viewBox="0 0 24 24" fill="none" xmlns="http://www.w3.org/2000/svg">
<g clip-path="url(#clip0_403_2302)">
<path d="M7.29243 2.09092L5.39943 3.98492L1.70643 0.292919C1.51783 0.110761 1.26523 0.00996641 1.00303 0.0122448C0.740833 0.0145233 0.49002 0.119692 0.304612 0.3051C0.119204 0.490508 0.014035 0.741321 0.0117566 1.00352C0.00947813 1.26571 0.110273 1.51832 0.292431 1.70692L3.98443 5.39992L2.09043 7.29292C1.9505 7.43289 1.85525 7.61124 1.81675 7.80538C1.77824 7.99952 1.79822 8.20072 1.87413 8.3835C1.95005 8.56628 2.0785 8.72242 2.24322 8.83216C2.40794 8.94189 2.60151 9.00027 2.79943 8.99992H7.56343C7.94428 8.99992 8.30953 8.84863 8.57884 8.57932C8.84814 8.31002 8.99943 7.94477 8.99943 7.56392V2.79992C8.99978 2.602 8.9414 2.40842 8.83167 2.24371C8.72194 2.07899 8.56579 1.95054 8.38301 1.87462C8.20023 1.7987 7.99903 1.77873 7.80489 1.81724C7.61075 1.85574 7.4324 1.95099 7.29243 2.09092Z" fill="black"/>
<path d="M20.015 18.6L21.909 16.706C22.0486 16.566 22.1435 16.3877 22.1818 16.1937C22.2201 15.9998 22.2001 15.7988 22.1242 15.6162C22.0483 15.4337 21.92 15.2777 21.7555 15.168C21.591 15.0583 21.3977 14.9998 21.2 15H16.436C16.0552 15 15.6899 15.1513 15.4206 15.4206C15.1513 15.6899 15 16.0552 15 16.436V21.2C14.9998 21.3978 15.0584 21.5913 15.1682 21.7558C15.278 21.9204 15.4341 22.0487 15.6169 22.1245C15.7996 22.2003 16.0007 22.2202 16.1948 22.1816C16.3888 22.1431 16.5671 22.0479 16.707 21.908L18.6 20.015L22.292 23.707C22.4806 23.8892 22.7332 23.99 22.9954 23.9877C23.2576 23.9854 23.5084 23.8802 23.6938 23.6948C23.8792 23.5094 23.9844 23.2586 23.9867 22.9964C23.989 22.7342 23.8882 22.4816 23.706 22.293L20.015 18.6Z" fill="black"/>
<path d="M16.436 8.99995H21.2C21.3978 9.0001 21.5913 8.94157 21.7558 8.83177C21.9204 8.72196 22.0487 8.5658 22.1245 8.38306C22.2003 8.20032 22.2201 7.99921 22.1816 7.80516C22.1431 7.61111 22.0478 7.43286 21.908 7.29295L20.015 5.39995L23.707 1.70795C23.8946 1.52044 24.0001 1.26607 24.0002 1.0008C24.0003 0.73553 23.895 0.481087 23.7075 0.293447C23.52 0.105806 23.2656 0.000337973 23.0003 0.000244203C22.7351 0.000150433 22.4806 0.105439 22.293 0.292947L18.6 3.98495L16.707 2.09095C16.567 1.95102 16.3887 1.85577 16.1945 1.81726C16.0004 1.77876 15.7992 1.79873 15.6164 1.87465C15.4336 1.95057 15.2775 2.07902 15.1678 2.24374C15.058 2.40845 14.9996 2.60203 15 2.79995V7.56395C15 7.9448 15.1513 8.31005 15.4206 8.57935C15.6899 8.84865 16.0551 8.99995 16.436 8.99995Z" fill="black"/>
<path d="M7.56457 15H2.80057C2.60273 14.9998 2.4093 15.0584 2.24473 15.1682C2.08017 15.278 1.95188 15.4341 1.87608 15.6169C1.80029 15.7996 1.7804 16.0007 1.81894 16.1948C1.85747 16.3888 1.9527 16.5671 2.09257 16.707L3.98557 18.6L0.293569 22.293C0.198059 22.3852 0.121877 22.4956 0.0694681 22.6176C0.0170591 22.7396 -0.0105272 22.8708 -0.011681 23.0036C-0.0128348 23.1364 0.0124669 23.268 0.0627478 23.3909C0.113029 23.5138 0.187282 23.6255 0.281174 23.7194C0.375067 23.8133 0.486719 23.8875 0.609615 23.9378C0.732512 23.9881 0.864191 24.0134 0.996971 24.0122C1.12975 24.0111 1.26097 23.9835 1.38297 23.9311C1.50498 23.8787 1.61532 23.8025 1.70757 23.707L5.40057 20.015L7.29457 21.909C7.43459 22.0486 7.61285 22.1435 7.80682 22.1818C8.00079 22.2201 8.20176 22.2001 8.38434 22.1242C8.56692 22.0483 8.7229 21.92 8.83258 21.7555C8.94227 21.591 9.00072 21.3977 9.00057 21.2V16.436C9.00057 16.0551 8.84928 15.6899 8.57998 15.4206C8.31067 15.1513 7.94542 15 7.56457 15Z" fill="black"/>
</g>
<defs>
<clipPath id="clip0_403_2302">
<rect width="24" height="24" fill="white"/>
</clipPath>
</defs>
</svg>
