<svg width="24" height="24" viewBox="0 0 24 24" fill="none" xmlns="http://www.w3.org/2000/svg">
<g clip-path="url(#clip0_403_2314)">
<path d="M5 14C5.55228 14 6 13.5523 6 13C6 12.4477 5.55228 12 5 12C4.44771 12 4 12.4477 4 13C4 13.5523 4.44771 14 5 14Z" fill="black"/>
<path d="M1 10.0002C1.55228 10.0002 2 9.55253 2 9.00024C2 8.44796 1.55228 8.00024 1 8.00024C0.447715 8.00024 0 8.44796 0 9.00024C0 9.55253 0.447715 10.0002 1 10.0002Z" fill="black"/>
<path d="M5 5.99975C5.55228 5.99975 6 5.55204 6 4.99975C6 4.44747 5.55228 3.99976 5 3.99976C4.44771 3.99976 4 4.44747 4 4.99975C4 5.55204 4.44771 5.99975 5 5.99975Z" fill="black"/>
<path d="M1 2C1.55228 2 2 1.55228 2 1C2 0.447715 1.55228 0 1 0C0.447715 0 0 0.447715 0 1C0 1.55228 0.447715 2 1 2Z" fill="black"/>
<path d="M23 14C23.5523 14 24 13.5523 24 13C24 12.4477 23.5523 12 23 12C22.4477 12 22 12.4477 22 13C22 13.5523 22.4477 14 23 14Z" fill="black"/>
<path d="M19 10.0002C19.5523 10.0002 20 9.55253 20 9.00024C20 8.44796 19.5523 8.00024 19 8.00024C18.4477 8.00024 18 8.44796 18 9.00024C18 9.55253 18.4477 10.0002 19 10.0002Z" fill="black"/>
<path d="M23 5.99975C23.5523 5.99975 24 5.55204 24 4.99975C24 4.44747 23.5523 3.99976 23 3.99976C22.4477 3.99976 22 4.44747 22 4.99975C22 5.55204 22.4477 5.99975 23 5.99975Z" fill="black"/>
<path d="M19 2C19.5523 2 20 1.55228 20 1C20 0.447715 19.5523 0 19 0C18.4477 0 18 0.447715 18 1C18 1.55228 18.4477 2 19 2Z" fill="black"/>
<path d="M14 23.9997C14.5523 23.9997 15 23.552 15 22.9997C15 22.4475 14.5523 21.9998 14 21.9998C13.4477 21.9998 13 22.4475 13 22.9997C13 23.552 13.4477 23.9997 14 23.9997Z" fill="black"/>
<path d="M10 20C10.5523 20 11 19.5523 11 19C11 18.4477 10.5523 18 10 18C9.44771 18 9 18.4477 9 19C9 19.5523 9.44771 20 10 20Z" fill="black"/>
<path d="M14 16.0003C14.5523 16.0003 15 15.5525 15 15.0002C15 14.448 14.5523 14.0002 14 14.0002C13.4477 14.0002 13 14.448 13 15.0002C13 15.5525 13.4477 16.0003 14 16.0003Z" fill="black"/>
<path d="M10 11.9998C10.5523 11.9998 11 11.552 11 10.9998C11 10.4475 10.5523 9.99976 10 9.99976C9.44771 9.99976 9 10.4475 9 10.9998C9 11.552 9.44771 11.9998 10 11.9998Z" fill="black"/>
<path d="M15 3C14.4696 3 13.9608 2.78929 13.5858 2.41421C13.2107 2.03914 13 1.53043 13 1C13 0.734784 12.8946 0.48043 12.7071 0.292893C12.5196 0.105357 12.2652 0 12 0C11.7348 0 11.4804 0.105357 11.2929 0.292893C11.1054 0.48043 11 0.734784 11 1C11 1.53043 10.7893 2.03914 10.4142 2.41421C10.0391 2.78929 9.53043 3 9 3C8.73478 3 8.48043 3.10536 8.29289 3.29289C8.10536 3.48043 8 3.73478 8 4C8 4.26522 8.10536 4.51957 8.29289 4.70711C8.48043 4.89464 8.73478 5 9 5C9.53043 5 10.0391 5.21071 10.4142 5.58579C10.7893 5.96086 11 6.46957 11 7C11 7.26522 11.1054 7.51957 11.2929 7.70711C11.4804 7.89464 11.7348 8 12 8C12.2652 8 12.5196 7.89464 12.7071 7.70711C12.8946 7.51957 13 7.26522 13 7C13 6.46957 13.2107 5.96086 13.5858 5.58579C13.9608 5.21071 14.4696 5 15 5C15.2652 5 15.5196 4.89464 15.7071 4.70711C15.8946 4.51957 16 4.26522 16 4C16 3.73478 15.8946 3.48043 15.7071 3.29289C15.5196 3.10536 15.2652 3 15 3Z" fill="black"/>
<path d="M7 18.9998C6.46957 18.9998 5.96086 18.789 5.58579 18.414C5.21071 18.0389 5 17.5302 5 16.9998C5 16.7345 4.89464 16.4802 4.70711 16.2926C4.51957 16.1051 4.26522 15.9998 4 15.9998C3.73478 15.9998 3.48043 16.1051 3.29289 16.2926C3.10536 16.4802 3 16.7345 3 16.9998C3 17.5302 2.78929 18.0389 2.41421 18.414C2.03914 18.789 1.53043 18.9998 1 18.9998C0.734784 18.9998 0.48043 19.1051 0.292893 19.2926C0.105357 19.4802 0 19.7345 0 19.9997C0 20.265 0.105357 20.5193 0.292893 20.7069C0.48043 20.8944 0.734784 20.9997 1 20.9997C1.53043 20.9997 2.03914 21.2105 2.41421 21.5855C2.78929 21.9606 3 22.4693 3 22.9997C3 23.265 3.10536 23.5193 3.29289 23.7068C3.48043 23.8944 3.73478 23.9997 4 23.9997C4.26522 23.9997 4.51957 23.8944 4.70711 23.7068C4.89464 23.5193 5 23.265 5 22.9997C5 22.4693 5.21071 21.9606 5.58579 21.5855C5.96086 21.2105 6.46957 20.9997 7 20.9997C7.26522 20.9997 7.51957 20.8944 7.70711 20.7069C7.89464 20.5193 8 20.265 8 19.9997C8 19.7345 7.89464 19.4802 7.70711 19.2926C7.51957 19.1051 7.26522 18.9998 7 18.9998Z" fill="black"/>
<path d="M23 18.9998C22.4696 18.9998 21.9608 18.789 21.5858 18.414C21.2107 18.0389 21 17.5302 21 16.9998C21 16.7345 20.8946 16.4802 20.7071 16.2926C20.5196 16.1051 20.2652 15.9998 20 15.9998C19.7348 15.9998 19.4804 16.1051 19.2929 16.2926C19.1054 16.4802 19 16.7345 19 16.9998C19 17.5302 18.7893 18.0389 18.4142 18.414C18.0391 18.789 17.5304 18.9998 17 18.9998C16.7348 18.9998 16.4804 19.1051 16.2929 19.2926C16.1054 19.4802 16 19.7345 16 19.9997C16 20.265 16.1054 20.5193 16.2929 20.7069C16.4804 20.8944 16.7348 20.9997 17 20.9997C17.5304 20.9997 18.0391 21.2105 18.4142 21.5855C18.7893 21.9606 19 22.4693 19 22.9997C19 23.265 19.1054 23.5193 19.2929 23.7068C19.4804 23.8944 19.7348 23.9997 20 23.9997C20.2652 23.9997 20.5196 23.8944 20.7071 23.7068C20.8946 23.5193 21 23.265 21 22.9997C21 22.4693 21.2107 21.9606 21.5858 21.5855C21.9608 21.2105 22.4696 20.9997 23 20.9997C23.2652 20.9997 23.5196 20.8944 23.7071 20.7069C23.8946 20.5193 24 20.265 24 19.9997C24 19.7345 23.8946 19.4802 23.7071 19.2926C23.5196 19.1051 23.2652 18.9998 23 18.9998Z" fill="black"/>
</g>
<defs>
<clipPath id="clip0_403_2314">
<rect width="24" height="24" fill="white"/>
</clipPath>
</defs>
</svg>
