<svg width="24" height="24" viewBox="0 0 24 24" fill="none" xmlns="http://www.w3.org/2000/svg">
<g clip-path="url(#clip0_403_2344)">
<path d="M23.6314 3.845C23.4444 3.584 23.1979 3.37125 22.9124 3.22432C22.6269 3.07739 22.3105 3.0005 21.9894 3H18.4454C18.9644 2.153 19.5454 0.108 18.0014 0C17.7362 0 17.4819 0.105357 17.2943 0.292893C17.1068 0.48043 17.0014 0.734784 17.0014 1C17.0014 1.53043 16.7907 2.03914 16.4157 2.41421C16.0406 2.78929 15.5319 3 15.0014 3H9.00144C8.47101 3 7.9623 2.78929 7.58723 2.41421C7.21215 2.03914 7.00144 1.53043 7.00144 1C7.00144 0.734784 6.89608 0.48043 6.70855 0.292893C6.52101 0.105357 6.26666 0 6.00144 0C4.45344 0.109 5.03944 2.152 5.55744 3H2.01344C1.69804 3.00037 1.38717 3.07503 1.10601 3.21794C0.824843 3.36084 0.581295 3.56796 0.395094 3.82253C0.208893 4.0771 0.085276 4.37194 0.0342577 4.68319C-0.0167606 4.99443 0.00625473 5.31331 0.101439 5.614C0.645072 7.08687 1.67474 8.33031 3.02044 9.139C3.02044 9.174 6.02044 21.204 6.02044 21.204C6.07061 21.961 6.4063 22.6707 6.95965 23.1898C7.51301 23.7088 8.24277 23.9984 9.00144 24H15.0014C15.7604 23.9978 16.4902 23.7074 17.0433 23.1876C17.5963 22.6678 17.9313 21.9574 17.9804 21.2C17.9804 21.2 20.9804 9.17 20.9804 9.135C22.326 8.32791 23.3563 7.08632 23.9014 5.615C24.0022 5.32001 24.0302 5.00508 23.9832 4.69693C23.9362 4.38879 23.8155 4.09654 23.6314 3.845ZM18.3814 7.962C17.694 7.92529 17.0062 8.02793 16.3594 8.26374C15.7126 8.49956 15.1201 8.8637 14.6176 9.33427C14.1151 9.80484 13.7129 10.3721 13.4352 11.0021C13.1574 11.632 13.0099 12.3116 13.0014 13V18H11.0014V13C10.993 12.3116 10.8455 11.632 10.5677 11.0021C10.29 10.3721 9.88779 9.80484 9.38527 9.33427C8.88276 8.8637 8.2903 8.49956 7.6435 8.26374C6.9967 8.02793 6.30891 7.92529 5.62144 7.962C6.31443 6.79446 7.24112 5.78265 8.34344 4.99L15.6434 5C16.7514 5.78706 17.6838 6.7957 18.3814 7.962ZM2.01344 5H5.33444C4.71933 5.67785 4.1826 6.42288 3.73444 7.221C2.94812 6.67305 2.34772 5.89822 2.01344 5ZM6.00144 10C6.35422 10.0029 6.70367 10.0686 7.03344 10.194C6.98461 10.4374 6.99666 10.6891 7.06852 10.9267C7.14039 11.1643 7.26985 11.3805 7.44538 11.5561C7.62092 11.7316 7.83711 11.861 8.07473 11.9329C8.31235 12.0048 8.56404 12.0168 8.80744 11.968C8.93281 12.2978 8.9985 12.6472 9.00144 13V18C8.434 18.0015 7.87882 18.1652 7.40144 18.472L5.26444 9.929C5.5082 9.96942 5.75444 9.99314 6.00144 10ZM15.0014 22H9.00144C8.73622 22 8.48187 21.8946 8.29433 21.7071C8.1068 21.5196 8.00144 21.2652 8.00144 21C8.00144 20.7348 8.1068 20.4804 8.29433 20.2929C8.48187 20.1054 8.73622 20 9.00144 20H15.0014C15.2667 20 15.521 20.1054 15.7085 20.2929C15.8961 20.4804 16.0014 20.7348 16.0014 21C16.0014 21.2652 15.8961 21.5196 15.7085 21.7071C15.521 21.8946 15.2667 22 15.0014 22ZM16.6014 18.472C16.1241 18.1652 15.5689 18.0015 15.0014 18V13C15.0044 12.6472 15.0701 12.2978 15.1954 11.968C15.4388 12.0168 15.6905 12.0048 15.9282 11.9329C16.1658 11.861 16.382 11.7316 16.5575 11.5561C16.733 11.3805 16.8625 11.1643 16.9344 10.9267C17.0062 10.6891 17.0183 10.4374 16.9694 10.194C17.547 10.0379 18.1405 9.94902 18.7384 9.929L16.6014 18.472ZM20.2654 7.215C19.8144 6.40909 19.2726 5.65752 18.6504 4.975L22.0014 4.97C21.6634 5.87685 21.0581 6.65971 20.2654 7.215Z" fill="black"/>
</g>
<defs>
<clipPath id="clip0_403_2344">
<rect width="24" height="24" fill="white"/>
</clipPath>
</defs>
</svg>
