<svg width="24" height="24" viewBox="0 0 24 24" fill="none" xmlns="http://www.w3.org/2000/svg">
<g clip-path="url(#clip0_403_2351)">
<path d="M22.3747 3.7848C20.8788 2.93331 19.2334 2.37691 17.5277 2.1458C17.2695 1.64888 16.9101 1.2115 16.4727 0.861799C16.0017 0.487228 15.4516 0.22477 14.864 0.0943079C14.2765 -0.0361541 13.667 -0.0311986 13.0817 0.108799C11.8307 0.424472 10.6174 0.874069 9.46272 1.4498C8.64304 1.06008 7.7275 0.917879 6.82822 1.04061C5.92895 1.16335 5.08499 1.54568 4.39972 2.1408C4.03272 2.4558 3.66372 2.7848 3.29972 3.1238C2.91772 3.4828 2.52872 3.8908 2.14072 4.3338C1.65456 4.88961 1.30761 5.55311 1.12851 6.2695C0.949416 6.98588 0.943318 7.73459 1.11072 8.4538C1.188 8.7933 1.30236 9.12328 1.45172 9.4378C0.872086 10.6006 0.418827 11.8223 0.0997225 13.0818C-0.0408753 13.6671 -0.0461321 14.2767 0.084352 14.8643C0.214836 15.4519 0.477624 16.002 0.852723 16.4728C1.20606 16.9148 1.64915 17.2767 2.15272 17.5348C2.38444 19.238 2.94047 20.881 3.79072 22.3748C4.12061 22.9674 4.63198 23.4385 5.2496 23.7188C5.86722 23.9991 6.5585 24.0737 7.22172 23.9318C7.90778 23.7959 8.53192 23.443 9.00192 22.9251C9.47193 22.4071 9.76286 21.7518 9.83172 21.0558C10.0184 19.7684 10.3567 18.5077 10.8397 17.2998C10.8397 17.2998 11.3847 16.9638 11.6337 16.7608C12.2333 16.2579 12.6588 15.5787 12.8497 14.8198C13.3121 14.6667 13.7325 14.4083 14.0777 14.0648C14.414 13.7225 14.6684 13.3085 14.8217 12.8538C15.578 12.6619 16.2546 12.2368 16.7557 11.6388C16.9557 11.3898 17.2957 10.8438 17.2957 10.8438C18.501 10.3478 19.7645 10.0074 21.0557 9.8308C21.7517 9.76194 22.4071 9.471 22.925 9.001C23.4429 8.531 23.7958 7.90685 23.9317 7.2208C24.076 6.5568 24.0024 5.86399 23.722 5.24508C23.4415 4.62617 22.9691 4.11411 22.3747 3.7848ZM7.83872 20.8328C7.81465 21.1086 7.70139 21.3691 7.51609 21.5748C7.33079 21.7804 7.08353 21.9202 6.81172 21.9728C6.56161 22.0297 6.29972 22.0028 6.06643 21.8962C5.83313 21.7896 5.64137 21.6092 5.52072 21.3828C4.91932 20.3295 4.48833 19.1878 4.24372 17.9998H8.14372C8.25272 17.9998 8.35872 17.9778 8.46672 17.9718C8.18072 18.8548 7.83872 20.8288 7.83872 20.8328ZM10.3687 15.2068C9.74086 15.7187 8.95583 15.9988 8.14572 15.9998H3.99972C3.69553 16.0005 3.3952 15.9317 3.12158 15.7988C2.84795 15.6659 2.60826 15.4723 2.42072 15.2328C2.23366 14.9984 2.10249 14.7245 2.03716 14.4318C1.97183 14.1392 1.97408 13.8355 2.04372 13.5438C2.24392 12.7365 2.51153 11.9474 2.84372 11.1848C3.15244 11.4264 3.49045 11.628 3.84972 11.7848L10.5267 14.7088C10.5887 14.7378 10.6547 14.7488 10.7177 14.7728C10.6282 14.9371 10.51 15.0841 10.3687 15.2068ZM12.6537 12.6548C12.4866 12.8242 12.2711 12.9377 12.0369 12.9796C11.8027 13.0215 11.5612 12.9898 11.3457 12.8888L4.65272 9.9578C4.25366 9.78296 3.90185 9.5158 3.62628 9.17833C3.35072 8.84087 3.15927 8.44276 3.06772 8.0168C2.97067 7.6039 2.97319 7.17384 3.07508 6.76211C3.17697 6.35038 3.37531 5.96878 3.65372 5.6488C3.99972 5.2548 4.34172 4.8948 4.67672 4.5798C5.01172 4.2648 5.35872 3.9548 5.70372 3.6598C6.02211 3.3827 6.40134 3.18457 6.81064 3.08148C7.21994 2.97839 7.64779 2.97325 8.05945 3.06647C8.47111 3.15969 8.85499 3.34865 9.17995 3.61802C9.5049 3.88739 9.76178 4.22957 9.92972 4.6168L12.8937 11.3068C12.9929 11.5298 13.023 11.7773 12.9802 12.0176C12.9375 12.2578 12.8237 12.4798 12.6537 12.6548ZM15.9997 8.1458C15.9991 8.9558 15.7194 9.74084 15.2077 10.3688C15.0908 10.5042 14.9519 10.6188 14.7967 10.7078C14.7707 10.6378 14.7517 10.5658 14.7217 10.4968L11.7587 3.8078C11.6089 3.46819 11.4203 3.14705 11.1967 2.8508C11.9555 2.51945 12.7405 2.25186 13.5437 2.0508C13.8354 1.98101 14.1391 1.97869 14.4318 2.04402C14.7245 2.10935 14.9984 2.24061 15.2327 2.4278C15.4728 2.61575 15.6667 2.85609 15.7996 3.13045C15.9325 3.40481 16.001 3.70593 15.9997 4.0108V8.1458ZM21.9727 6.8118C21.9201 7.0836 21.7804 7.33086 21.5747 7.51617C21.369 7.70147 21.1085 7.81473 20.8327 7.8388C20.8327 7.8388 18.8547 8.1808 17.9717 8.4688C17.9787 8.3608 17.9997 8.2548 17.9997 8.1458V4.2458C19.1877 4.4904 20.3295 4.9214 21.3827 5.5228C21.6083 5.64374 21.7882 5.83522 21.8947 6.06798C22.0012 6.30075 22.0286 6.56199 21.9727 6.8118Z" fill="black"/>
</g>
<defs>
<clipPath id="clip0_403_2351">
<rect width="24" height="24" fill="white"/>
</clipPath>
</defs>
</svg>
