<svg width="24" height="24" viewBox="0 0 24 24" fill="none" xmlns="http://www.w3.org/2000/svg">
<g clip-path="url(#clip0_403_2364)">
<path d="M23.6796 11.4081C22.8952 9.56651 21.6647 7.94913 20.0991 6.70192C18.5334 5.45471 16.6819 4.61692 14.7116 4.26415C14.9254 3.80786 15.0206 3.30498 14.9884 2.80209C14.9562 2.2992 14.7976 1.81258 14.5272 1.38731C14.2569 0.962046 13.8836 0.611894 13.4419 0.369298C13.0002 0.126702 12.5045 -0.000488281 12.0006 -0.000488281C11.4966 -0.000488281 11.0009 0.126702 10.5592 0.369298C10.1175 0.611894 9.7442 0.962046 9.47386 1.38731C9.20352 1.81258 9.0449 2.2992 9.01268 2.80209C8.98046 3.30498 9.07569 3.80786 9.28955 4.26415C7.31976 4.61747 5.46888 5.45549 3.90381 6.70267C2.33873 7.94984 1.10868 9.56694 0.324552 11.4081C0.0637754 12.0231 -0.040476 12.693 0.0211275 13.3581C0.082731 14.0232 0.308267 14.6626 0.677552 15.2191C1.03401 15.7536 1.5143 16.1941 2.07755 16.5031L2.67755 19.8751C2.88177 21.032 3.48735 22.0798 4.38777 22.8343C5.2882 23.5887 6.42582 24.0016 7.60055 24.0001H16.4006C17.5752 24.0017 18.7128 23.5889 19.6131 22.8344C20.5134 22.0799 21.1187 21.032 21.3226 19.8751L21.9226 16.5041C22.4861 16.1956 22.9665 15.755 23.3226 15.2201C23.6924 14.6637 23.9186 14.0243 23.9809 13.3591C24.0432 12.6939 23.9397 12.0236 23.6796 11.4081ZM12.0006 2.00015C12.2658 2.00015 12.5201 2.1055 12.7077 2.29304C12.8952 2.48058 13.0006 2.73493 13.0006 3.00015C13.0006 3.26536 12.8952 3.51972 12.7077 3.70725C12.5201 3.89479 12.2658 4.00015 12.0006 4.00015C11.7353 4.00015 11.481 3.89479 11.2934 3.70725C11.1059 3.51972 11.0006 3.26536 11.0006 3.00015C11.0006 2.73493 11.1059 2.48058 11.2934 2.29304C11.481 2.1055 11.7353 2.00015 12.0006 2.00015ZM19.3576 19.5251C19.2341 20.2194 18.8701 20.8481 18.3294 21.3007C17.7886 21.7533 17.1057 22.0009 16.4006 22.0001H7.60055C6.8959 22.0002 6.21371 21.7522 5.67358 21.2997C5.13346 20.8472 4.76987 20.2189 4.64655 19.5251L4.27555 17.4451C4.83061 17.8338 5.5009 18.0232 6.17729 17.9823C6.85368 17.9415 7.49632 17.6728 8.00055 17.2201C8.54956 17.7142 9.26199 17.9875 10.0006 17.9875C10.7391 17.9875 11.4515 17.7142 12.0006 17.2201C12.5496 17.7142 13.262 17.9875 14.0006 17.9875C14.7391 17.9875 15.4515 17.7142 16.0006 17.2201C16.505 17.6736 17.1482 17.9427 17.8253 17.9835C18.5023 18.0244 19.1732 17.8346 19.7286 17.4451L19.3576 19.5251ZM21.6576 14.1121C21.4782 14.3874 21.2323 14.6131 20.9427 14.7683C20.6531 14.9235 20.3291 15.0032 20.0006 15.0001C19.7642 15.0105 19.5329 15.0717 19.3223 15.1795C19.1118 15.2874 18.927 15.4394 18.7806 15.6251C18.6858 15.7403 18.5667 15.8331 18.4319 15.8968C18.297 15.9605 18.1497 15.9935 18.0006 15.9935C17.8514 15.9935 17.7041 15.9605 17.5692 15.8968C17.4344 15.8331 17.3153 15.7403 17.2206 15.6251C17.078 15.4365 16.8937 15.2834 16.682 15.178C16.4703 15.0726 16.237 15.0178 16.0006 15.0178C15.7641 15.0178 15.5308 15.0726 15.3191 15.178C15.1075 15.2834 14.9231 15.4365 14.7806 15.6251C14.6858 15.7403 14.5667 15.8331 14.4319 15.8968C14.297 15.9605 14.1497 15.9935 14.0006 15.9935C13.8514 15.9935 13.7041 15.9605 13.5692 15.8968C13.4344 15.8331 13.3153 15.7403 13.2206 15.6251C13.078 15.4365 12.8937 15.2834 12.682 15.178C12.4703 15.0726 12.237 15.0178 12.0006 15.0178C11.7641 15.0178 11.5308 15.0726 11.3191 15.178C11.1075 15.2834 10.9231 15.4365 10.7806 15.6251C10.6858 15.7403 10.5667 15.8331 10.4319 15.8968C10.297 15.9605 10.1497 15.9935 10.0006 15.9935C9.85141 15.9935 9.70411 15.9605 9.56925 15.8968C9.43439 15.8331 9.3153 15.7403 9.22055 15.6251C9.07801 15.4365 8.89365 15.2834 8.68196 15.178C8.47027 15.0726 8.23702 15.0178 8.00055 15.0178C7.76408 15.0178 7.53083 15.0726 7.31914 15.178C7.10745 15.2834 6.92309 15.4365 6.78055 15.6251C6.6858 15.7403 6.56672 15.8331 6.43186 15.8968C6.29699 15.9605 6.1497 15.9935 6.00055 15.9935C5.85141 15.9935 5.70411 15.9605 5.56925 15.8968C5.43439 15.8331 5.3153 15.7403 5.22055 15.6251C5.07419 15.4393 4.88941 15.2872 4.67885 15.1793C4.46829 15.0715 4.23691 15.0103 4.00055 15.0001C3.67215 15.0031 3.34829 14.9234 3.05887 14.7682C2.76944 14.613 2.52378 14.3873 2.34455 14.1121C2.15563 13.8315 2.04039 13.5077 2.00946 13.1708C1.97852 12.8339 2.03289 12.4945 2.16755 12.1841C5.43455 3.98415 18.5676 3.98415 21.8356 12.1841C21.9702 12.4945 22.0246 12.8339 21.9936 13.1708C21.9627 13.5077 21.8475 13.8315 21.6586 14.1121H21.6576Z" fill="black"/>
</g>
<defs>
<clipPath id="clip0_403_2364">
<rect width="24" height="24" fill="white"/>
</clipPath>
</defs>
</svg>
