<svg width="24" height="24" viewBox="0 0 24 24" fill="none" xmlns="http://www.w3.org/2000/svg">
<g clip-path="url(#clip0_403_2376)">
<path d="M19.9998 0.000258033H18.2428C17.7172 -0.00113153 17.1965 0.101737 16.7109 0.30291C16.2253 0.504083 15.7844 0.799566 15.4138 1.17226L12.1718 4.41426C11.4236 5.16559 11.0024 6.18196 10.9998 7.24226V10.7053C7.73379 13.1203 3.41879 16.3383 2.87879 16.8793C2.44368 17.3173 2.15468 17.8791 2.05138 18.4878C1.94808 19.0965 2.03555 19.7222 2.30179 20.2793L0.292786 22.2933C0.105315 22.4808 0 22.7351 0 23.0003C0 23.2654 0.105315 23.5197 0.292786 23.7073C0.480314 23.8947 0.734622 24 0.999786 24C1.26495 24 1.51926 23.8947 1.70679 23.7073L3.71379 21.7003C4.27093 21.972 4.89924 22.0623 5.51036 21.9584C6.12149 21.8546 6.68469 21.5618 7.12079 21.1213C7.66179 20.5803 10.8798 16.2663 13.2998 13.0003H16.7618C17.2874 13.0016 17.8081 12.8988 18.2937 12.6976C18.7793 12.4964 19.2201 12.201 19.5908 11.8283L22.8328 8.58626C23.5791 7.83412 23.9985 6.81784 23.9998 5.75826V4.00026C23.9998 2.93939 23.5784 1.92198 22.8282 1.17183C22.0781 0.421686 21.0607 0.000258033 19.9998 0.000258033ZM5.70679 19.7073C5.51665 19.8897 5.26332 19.9916 4.99979 19.9916C4.73625 19.9916 4.48292 19.8897 4.29279 19.7073C4.10532 19.5197 4 19.2654 4 19.0003C4 18.7351 4.10532 18.4808 4.29279 18.2933C4.63179 17.9573 7.29279 15.9503 10.2408 13.7593C8.04879 16.7063 6.04179 19.3693 5.70679 19.7073ZM21.9998 5.75826C21.9985 6.28841 21.7879 6.79659 21.4138 7.17226L18.1718 10.4143C17.9863 10.6006 17.7658 10.7483 17.5229 10.8488C17.28 10.9494 17.0197 11.0009 16.7568 11.0003H14.7708L15.7618 9.65226L19.7068 5.70726C19.8023 5.61501 19.8785 5.50467 19.9309 5.38266C19.9833 5.26066 20.0109 5.12944 20.012 4.99666C20.0132 4.86388 19.9879 4.7322 19.9376 4.6093C19.8873 4.48641 19.8131 4.37476 19.7192 4.28086C19.6253 4.18697 19.5136 4.11272 19.3907 4.06244C19.2678 4.01216 19.1362 3.98685 19.0034 3.98801C18.8706 3.98916 18.7394 4.01675 18.6174 4.06916C18.4954 4.12157 18.385 4.19775 18.2928 4.29326L14.3488 8.23726L12.9998 9.22926V7.24226C13.0011 6.71211 13.2117 6.20392 13.5858 5.82826L16.8278 2.58626C17.0132 2.39996 17.2338 2.25226 17.4767 2.15168C17.7195 2.0511 17.9799 1.99963 18.2428 2.00026H19.9998C20.5302 2.00026 21.0389 2.21097 21.414 2.58604C21.7891 2.96112 21.9998 3.46983 21.9998 4.00026V5.75826Z" fill="black"/>
</g>
<defs>
<clipPath id="clip0_403_2376">
<rect width="24" height="24" fill="white"/>
</clipPath>
</defs>
</svg>
