<svg width="24" height="24" viewBox="0 0 24 24" fill="none" xmlns="http://www.w3.org/2000/svg">
<g clip-path="url(#clip0_403_2382)">
<path d="M24.0009 11.5C23.9985 10.8258 23.8438 10.1609 23.5484 9.55482C23.253 8.94877 22.8245 8.41728 22.2949 8.00004C23.0276 7.42246 23.5617 6.63058 23.8228 5.73488C24.0838 4.83918 24.0588 3.88433 23.7512 3.00353C23.4436 2.12273 22.8687 1.35991 22.1068 0.821492C21.3448 0.283073 20.4339 -0.00409694 19.5009 4.4165e-05H4.50089C3.56793 -0.00409694 2.65694 0.283073 1.89501 0.821492C1.13307 1.35991 0.558201 2.12273 0.250583 3.00353C-0.0570363 3.88433 -0.0820586 4.83918 0.179006 5.73488C0.440071 6.63058 0.974203 7.42246 1.70689 8.00004C1.17543 8.41562 0.745596 8.94676 0.449977 9.55319C0.154358 10.1596 0.00072159 10.8254 0.00072159 11.5C0.00072159 12.1747 0.154358 12.8405 0.449977 13.4469C0.745596 14.0533 1.17543 14.5845 1.70689 15C0.974203 15.5776 0.440071 16.3695 0.179006 17.2652C-0.0820586 18.1609 -0.0570363 19.1158 0.250583 19.9966C0.558201 20.8774 1.13307 21.6402 1.89501 22.1786C2.65694 22.717 3.56793 23.0042 4.50089 23H19.5009C20.4339 23.0042 21.3448 22.717 22.1068 22.1786C22.8687 21.6402 23.4436 20.8774 23.7512 19.9966C24.0588 19.1158 24.0838 18.1609 23.8228 17.2652C23.5617 16.3695 23.0276 15.5776 22.2949 15C22.8245 14.5828 23.253 14.0513 23.5484 13.4453C23.8438 12.8392 23.9985 12.1743 24.0009 11.5ZM2.00089 4.50004C2.00089 3.837 2.26428 3.20112 2.73312 2.73228C3.20196 2.26344 3.83785 2.00004 4.50089 2.00004H5.00089V3.00004C5.00089 3.26526 5.10625 3.51961 5.29378 3.70715C5.48132 3.89469 5.73567 4.00004 6.00089 4.00004C6.26611 4.00004 6.52046 3.89469 6.708 3.70715C6.89553 3.51961 7.00089 3.26526 7.00089 3.00004V2.00004H9.00089V3.00004C9.00089 3.26526 9.10625 3.51961 9.29378 3.70715C9.48132 3.89469 9.73567 4.00004 10.0009 4.00004C10.2661 4.00004 10.5205 3.89469 10.708 3.70715C10.8955 3.51961 11.0009 3.26526 11.0009 3.00004V2.00004H19.5009C20.1639 2.00004 20.7998 2.26344 21.2687 2.73228C21.7375 3.20112 22.0009 3.837 22.0009 4.50004C22.0009 5.16309 21.7375 5.79897 21.2687 6.26781C20.7998 6.73665 20.1639 7.00004 19.5009 7.00004H4.50089C3.83785 7.00004 3.20196 6.73665 2.73312 6.26781C2.26428 5.79897 2.00089 5.16309 2.00089 4.50004ZM22.0009 18.5C22.0009 19.1631 21.7375 19.799 21.2687 20.2678C20.7998 20.7367 20.1639 21 19.5009 21H4.50089C3.83785 21 3.20196 20.7367 2.73312 20.2678C2.26428 19.799 2.00089 19.1631 2.00089 18.5C2.00089 17.837 2.26428 17.2011 2.73312 16.7323C3.20196 16.2634 3.83785 16 4.50089 16H5.00089V17C5.00089 17.2653 5.10625 17.5196 5.29378 17.7072C5.48132 17.8947 5.73567 18 6.00089 18C6.26611 18 6.52046 17.8947 6.708 17.7072C6.89553 17.5196 7.00089 17.2653 7.00089 17V16H9.00089V17C9.00089 17.2653 9.10625 17.5196 9.29378 17.7072C9.48132 17.8947 9.73567 18 10.0009 18C10.2661 18 10.5205 17.8947 10.708 17.7072C10.8955 17.5196 11.0009 17.2653 11.0009 17V16H19.5009C20.1639 16 20.7998 16.2634 21.2687 16.7323C21.7375 17.2011 22.0009 17.837 22.0009 18.5ZM4.50089 14C3.83785 14 3.20196 13.7367 2.73312 13.2678C2.26428 12.799 2.00089 12.1631 2.00089 11.5C2.00089 10.837 2.26428 10.2011 2.73312 9.73228C3.20196 9.26344 3.83785 9.00004 4.50089 9.00004H5.00089V10C5.00089 10.2653 5.10625 10.5196 5.29378 10.7072C5.48132 10.8947 5.73567 11 6.00089 11C6.26611 11 6.52046 10.8947 6.708 10.7072C6.89553 10.5196 7.00089 10.2653 7.00089 10V9.00004H9.00089V10C9.00089 10.2653 9.10625 10.5196 9.29378 10.7072C9.48132 10.8947 9.73567 11 10.0009 11C10.2661 11 10.5205 10.8947 10.708 10.7072C10.8955 10.5196 11.0009 10.2653 11.0009 10V9.00004H19.5009C20.1639 9.00004 20.7998 9.26344 21.2687 9.73228C21.7375 10.2011 22.0009 10.837 22.0009 11.5C22.0009 12.1631 21.7375 12.799 21.2687 13.2678C20.7998 13.7367 20.1639 14 19.5009 14H4.50089Z" fill="black"/>
</g>
<defs>
<clipPath id="clip0_403_2382">
<rect width="24" height="24" fill="white"/>
</clipPath>
</defs>
</svg>
