<svg width="24" height="24" viewBox="0 0 24 24" fill="none" xmlns="http://www.w3.org/2000/svg">
<g clip-path="url(#clip0_403_2386)">
<path d="M23.2189 5.743L20.2079 1.675C19.8377 1.15734 19.3494 0.735369 18.7835 0.444077C18.2176 0.152784 17.5904 0.000553721 16.9539 1.76239e-06H7.04395C6.41058 -0.000592735 5.78613 0.149225 5.22197 0.437125C4.65782 0.725025 4.1701 1.14278 3.79895 1.656L0.733949 5.753C0.234913 6.45669 -0.0228061 7.30308 -0.000633336 8.16547C0.0215394 9.02786 0.322411 9.85989 0.856949 10.537L9.64895 22.865C9.92913 23.2198 10.2862 23.5063 10.6933 23.7029C11.1004 23.8995 11.5469 24.0011 11.9989 24C12.4588 23.9991 12.9123 23.8927 13.3246 23.689C13.7368 23.4853 14.0969 23.1897 14.3769 22.825L23.0989 10.634C23.6574 9.94699 23.9722 9.0941 23.9939 8.20899C24.0156 7.32388 23.7431 6.45658 23.2189 5.743ZM18.5909 2.851L21.6089 6.929C21.625 6.951 21.6289 6.977 21.6449 7H16.7529L15.3249 2H16.9539C17.2749 2.001 17.591 2.07876 17.8757 2.2268C18.1605 2.37485 18.4057 2.58887 18.5909 2.851ZM11.9989 19.118L9.29895 9H14.6989L11.9989 19.118ZM9.32495 7L10.7529 2H13.2449L14.6729 7H9.32495ZM5.41595 2.837C5.6015 2.57839 5.8459 2.36762 6.12896 2.22208C6.41203 2.07655 6.72566 2.00043 7.04395 2H8.67295L7.24495 7H2.31695C2.33095 6.978 2.33495 6.951 2.35095 6.93L5.41595 2.837ZM2.44695 9.325C2.37474 9.22302 2.31278 9.11415 2.26195 9H7.23095L10.2249 20.23L2.44695 9.325ZM13.7699 20.24L16.7699 9H21.7559C21.6915 9.14927 21.61 9.29055 21.5129 9.421L13.7699 20.24Z" fill="black"/>
</g>
<defs>
<clipPath id="clip0_403_2386">
<rect width="24" height="24" fill="white"/>
</clipPath>
</defs>
</svg>
