<svg width="24" height="24" viewBox="0 0 24 24" fill="none" xmlns="http://www.w3.org/2000/svg">
<g clip-path="url(#clip0_403_2410)">
<path d="M21.5005 2.50013C19.8942 0.908539 17.7243 0.015625 15.463 0.015625C13.2017 0.015625 11.0319 0.908539 9.42553 2.50013C7.04853 4.87712 6.26853 10.4091 6.01553 13.5001C5.94596 14.3686 6.15057 15.237 6.60053 15.9831L2.80053 19.7831C2.65943 19.525 2.44555 19.3141 2.1855 19.1766C1.92546 19.0391 1.63073 18.9811 1.33797 19.0098C1.04522 19.0385 0.767372 19.1527 0.538992 19.3381C0.310612 19.5235 0.141783 19.7719 0.0535092 20.0525C-0.0347647 20.3331 -0.038587 20.6335 0.0425177 20.9162C0.123622 21.199 0.286074 21.4516 0.509662 21.6428C0.73325 21.8339 1.00811 21.9551 1.30003 21.9913C1.59196 22.0274 1.88807 21.9769 2.15153 21.8461C2.0207 22.1096 1.97022 22.4057 2.00637 22.6976C2.04252 22.9895 2.16371 23.2644 2.35485 23.488C2.546 23.7116 2.79867 23.874 3.08142 23.9551C3.36418 24.0362 3.66454 24.0324 3.94514 23.9441C4.22574 23.8559 4.47419 23.687 4.65958 23.4586C4.84497 23.2303 4.95913 22.9524 4.98784 22.6597C5.01655 22.3669 4.95855 22.0722 4.82105 21.8121C4.68356 21.5521 4.47264 21.3382 4.21453 21.1971L8.01453 17.3971C8.75937 17.8515 9.62882 18.0587 10.4985 17.9891C13.5845 17.7361 19.1155 16.9571 21.4985 14.5791C23.0918 12.973 23.9861 10.8024 23.9864 8.54003C23.9868 6.27767 23.0933 4.10678 21.5005 2.50013ZM20.0855 13.1621C18.6985 14.5471 15.0565 15.6061 10.3415 15.9931C10.0282 16.0203 9.71271 15.9785 9.41722 15.8708C9.12172 15.7631 8.85336 15.5921 8.63097 15.3697C8.40858 15.1473 8.23753 14.8789 8.12983 14.5834C8.02214 14.2879 7.98039 13.9725 8.00753 13.6591C8.39453 8.94412 9.45353 5.30012 10.8385 3.91513C11.4433 3.29712 12.1646 2.8052 12.9608 2.46782C13.7569 2.13045 14.612 1.95432 15.4767 1.94964C16.3414 1.94496 17.1984 2.11181 17.9981 2.44054C18.7979 2.76927 19.5245 3.25336 20.1359 3.86477C20.7473 4.47619 21.2314 5.2028 21.5601 6.00254C21.8889 6.80229 22.0557 7.65929 22.051 8.52395C22.0463 9.38861 21.8702 10.2438 21.5328 11.0399C21.1955 11.836 20.7035 12.5574 20.0855 13.1621Z" fill="black"/>
</g>
<defs>
<clipPath id="clip0_403_2410">
<rect width="24" height="24" fill="white"/>
</clipPath>
</defs>
</svg>
