<svg width="24" height="24" viewBox="0 0 24 24" fill="none" xmlns="http://www.w3.org/2000/svg">
<g clip-path="url(#clip0_403_2457)">
<path d="M22.8276 1.17402C22.3424 0.684373 21.738 0.329575 21.0739 0.144581C20.4099 -0.0404138 19.7091 -0.0492224 19.0406 0.119023C13.8581 1.47957 9.1119 4.14812 5.25657 7.86902C4.49817 8.63201 3.90676 9.54441 3.51992 10.5482C3.13309 11.5521 2.95929 12.6254 3.00957 13.7C3.0812 15.2599 3.62874 16.7605 4.57857 18L0.293569 22.293C0.198059 22.3853 0.121877 22.4956 0.0694681 22.6176C0.0170591 22.7396 -0.0105272 22.8708 -0.011681 23.0036C-0.0128348 23.1364 0.0124669 23.2681 0.0627478 23.391C0.113029 23.5139 0.187282 23.6255 0.281174 23.7194C0.375067 23.8133 0.486719 23.8876 0.609615 23.9378C0.732512 23.9881 0.864191 24.0134 0.996971 24.0123C1.12975 24.0111 1.26097 23.9835 1.38297 23.9311C1.50498 23.8787 1.61532 23.8025 1.70757 23.707L5.99157 19.423C7.30467 20.4483 8.92364 21.0035 10.5896 21C11.692 20.9841 12.7804 20.7511 13.7927 20.3144C14.8051 19.8777 15.7215 19.2459 16.4896 18.455C20.8896 14.055 23.3726 7.00902 23.8836 4.93002C24.0497 4.2662 24.0397 3.57052 23.8544 2.91176C23.6692 2.25301 23.3153 1.65402 22.8276 1.17402ZM5.00757 13.608C4.96993 12.8108 5.09851 12.0144 5.38515 11.2695C5.67178 10.5246 6.11021 9.84741 6.67257 9.28102C7.10057 8.85602 7.54557 8.45702 8.00057 8.06702V14.586L6.01057 16.576C5.40417 15.7005 5.05657 14.6719 5.00757 13.608ZM15.0456 17.067C14.0932 18.1021 12.8027 18.7635 11.4063 18.9321C10.0098 19.1008 8.59901 18.7656 7.42757 17.987L9.70657 15.708L12.4146 13H18.1766C17.2708 14.4565 16.2219 15.8189 15.0456 17.067ZM21.9456 4.44702C21.3428 6.72705 20.47 8.92695 19.3456 11H14.4146L17.7076 7.70702C17.8031 7.61478 17.8793 7.50443 17.9317 7.38243C17.9841 7.26042 18.0117 7.1292 18.0128 6.99643C18.014 6.86365 17.9887 6.73197 17.9384 6.60907C17.8881 6.48617 17.8139 6.37452 17.72 6.28063C17.6261 6.18674 17.5144 6.11248 17.3915 6.0622C17.2686 6.01192 17.1369 5.98662 17.0042 5.98777C16.8714 5.98893 16.7402 6.01651 16.6182 6.06892C16.4962 6.12133 16.3858 6.19751 16.2936 6.29302L11.2936 11.293L10.0006 12.586V6.51202C12.8916 4.48592 16.1139 2.97968 19.5226 2.06102C19.6808 2.02118 19.8434 2.0007 20.0066 2.00002C20.2686 2.00058 20.528 2.05291 20.7698 2.15398C21.0116 2.25506 21.2311 2.4029 21.4156 2.58902C21.6591 2.82495 21.836 3.12103 21.9284 3.4473C22.0208 3.77356 22.0253 4.11844 21.9416 4.44702H21.9456Z" fill="black"/>
</g>
<defs>
<clipPath id="clip0_403_2457">
<rect width="24" height="24" fill="white"/>
</clipPath>
</defs>
</svg>
