<svg width="24" height="24" viewBox="0 0 24 24" fill="none" xmlns="http://www.w3.org/2000/svg">
<g clip-path="url(#clip0_403_2459)">
<path d="M23.9985 11C23.9955 10.2339 23.6995 9.498 23.1713 8.94316C22.643 8.38832 21.9225 8.0566 21.1575 8.016C20.1553 5.69436 18.3042 3.84321 15.9825 2.841C15.9419 2.07598 15.6102 1.35548 15.0554 0.827234C14.5005 0.298983 13.7646 0.0030094 12.9985 0H10.9985C10.2324 0.0030094 9.49652 0.298983 8.94168 0.827234C8.38684 1.35548 8.05511 2.07598 8.01452 2.841C5.69305 3.84346 3.84198 5.69453 2.83952 8.016C2.13154 8.05055 1.45897 8.3359 0.942146 8.821C0.425326 9.3061 0.097995 9.95927 0.0187292 10.6636C-0.0605366 11.368 0.113437 12.0776 0.509516 12.6654C0.905595 13.2533 1.49793 13.681 2.18052 13.872C2.46429 15.3815 3.09322 16.805 4.01816 18.0313C4.94311 19.2576 6.13903 20.2534 7.51252 20.941L7.03252 22.741C6.96413 22.9972 7.0003 23.2701 7.13307 23.4996C7.26584 23.7291 7.48434 23.8965 7.74052 23.965C7.82465 23.9877 7.91137 23.9995 7.99852 24C8.21877 24 8.43286 23.9272 8.60753 23.7931C8.7822 23.6589 8.90769 23.4708 8.96452 23.258L9.39852 21.652C11.1045 22.116 12.9035 22.116 14.6095 21.652L15.0375 23.258C15.1094 23.5103 15.2776 23.7242 15.5058 23.8536C15.7339 23.9831 16.0038 24.0177 16.2572 23.95C16.5107 23.8823 16.7274 23.7177 16.8606 23.4918C16.9938 23.2658 17.033 22.9965 16.9695 22.742L16.4895 20.942C17.8628 20.2538 19.0587 19.2577 19.9837 18.0313C20.9088 16.805 21.5381 15.3815 21.8225 13.872C22.4478 13.6944 22.9984 13.3181 23.3909 12.8C23.7835 12.2819 23.9968 11.65 23.9985 11ZM10.9985 2H12.9985C13.2637 2 13.5181 2.10536 13.7056 2.29289C13.8932 2.48043 13.9985 2.73478 13.9985 3C13.9985 3.26522 13.8932 3.51957 13.7056 3.70711C13.5181 3.89464 13.2637 4 12.9985 4H10.9985C10.7333 4 10.4789 3.89464 10.2914 3.70711C10.1039 3.51957 9.99852 3.26522 9.99852 3C9.99852 2.73478 10.1039 2.48043 10.2914 2.29289C10.4789 2.10536 10.7333 2 10.9985 2ZM2.99852 10H4.99852C5.26373 10 5.51809 10.1054 5.70562 10.2929C5.89316 10.4804 5.99852 10.7348 5.99852 11C5.99852 11.2652 5.89316 11.5196 5.70562 11.7071C5.51809 11.8946 5.26373 12 4.99852 12H2.99852C2.7333 12 2.47895 11.8946 2.29141 11.7071C2.10387 11.5196 1.99852 11.2652 1.99852 11C1.99852 10.7348 2.10387 10.4804 2.29141 10.2929C2.47895 10.1054 2.7333 10 2.99852 10ZM11.9985 20C11.2926 19.999 10.5898 19.9049 9.90852 19.72L11.6085 13.356C11.6315 13.2691 11.6825 13.1923 11.7537 13.1375C11.8249 13.0827 11.9122 13.053 12.002 13.053C12.0919 13.053 12.1792 13.0827 12.2504 13.1375C12.3215 13.1923 12.3726 13.2691 12.3955 13.356L14.0955 19.72C13.4119 19.9054 12.7068 19.9995 11.9985 20ZM15.9535 18.951L14.3235 12.841C14.1911 12.3263 13.8903 11.8708 13.4689 11.5469C13.0476 11.223 12.5299 11.0495 11.9985 11.054C11.4669 11.0493 10.9491 11.2227 10.5275 11.5466C10.1059 11.8705 9.80495 12.3261 9.67252 12.841L8.04352 18.951C7.11211 18.4227 6.29684 17.7119 5.64649 16.8612C4.99613 16.0105 4.52406 15.0374 4.25852 14H4.99852C5.76778 13.972 6.49686 13.6495 7.03493 13.099C7.573 12.5485 7.87887 11.8122 7.88928 11.0425C7.89968 10.2728 7.61382 9.52858 7.09083 8.96375C6.56784 8.39892 5.84774 8.05674 5.07952 8.008C5.89627 6.5998 7.11839 5.47037 8.58652 4.767C8.86307 5.14793 9.22568 5.45816 9.64482 5.67243C10.064 5.88669 10.5278 5.99893 10.9985 6H12.9985C13.4693 5.99901 13.9331 5.88681 14.3523 5.67254C14.7714 5.45827 15.134 5.14799 15.4105 4.767C16.8785 5.47023 18.1003 6.59971 18.9165 8.008C18.1483 8.05684 17.4282 8.39913 16.9053 8.96405C16.3823 9.52896 16.0966 10.2733 16.1071 11.043C16.1177 11.8127 16.4237 12.549 16.9619 13.0993C17.5001 13.6497 18.2292 13.9722 18.9985 14H19.7385C19.4727 15.0372 19.0005 16.0102 18.3501 16.8609C17.6998 17.7116 16.8847 18.4224 15.9535 18.951ZM20.9985 12H18.9985C18.7333 12 18.4789 11.8946 18.2914 11.7071C18.1039 11.5196 17.9985 11.2652 17.9985 11C17.9985 10.7348 18.1039 10.4804 18.2914 10.2929C18.4789 10.1054 18.7333 10 18.9985 10H20.9985C21.2637 10 21.5181 10.1054 21.7056 10.2929C21.8932 10.4804 21.9985 10.7348 21.9985 11C21.9985 11.2652 21.8932 11.5196 21.7056 11.7071C21.5181 11.8946 21.2637 12 20.9985 12Z" fill="black"/>
</g>
<defs>
<clipPath id="clip0_403_2459">
<rect width="24" height="24" fill="white"/>
</clipPath>
</defs>
</svg>
