<svg width="24" height="24" viewBox="0 0 24 24" fill="none" xmlns="http://www.w3.org/2000/svg">
<g clip-path="url(#clip0_403_2480)">
<path d="M14.9563 10.3555C14.9575 10.6999 15.2369 10.9785 15.5813 10.9785C15.5813 10.9785 16.6533 10.9785 17.0673 10.9665C18.5993 10.9405 19.6993 9.60851 19.6993 7.80054C19.6993 5.90056 18.6193 4.62256 17.0133 4.62256H15.5703C15.2248 4.62368 14.9453 4.90404 14.9453 5.24956L14.9563 10.3555ZM17.0173 5.87248C18.0763 5.87248 18.4533 6.87246 18.4533 7.8005C18.4533 8.72853 18.0193 9.70048 17.0484 9.71651C16.8483 9.71651 16.5104 9.7235 16.2044 9.72551L16.1994 5.87253L17.0173 5.87248Z" fill="black"/>
<path d="M12.1233 7.2555C11.8503 7.1625 11.5674 7.1115 11.2884 7.03851C11.067 6.99384 10.8617 6.8902 10.6944 6.73851C10.5272 6.57998 10.4678 6.33853 10.5423 6.12051C10.6372 5.93264 10.8235 5.80818 11.0334 5.79253C11.2397 5.77968 11.4464 5.81001 11.6403 5.88154C11.9194 5.96864 12.1932 6.07181 12.4603 6.19054C12.7543 6.31954 13.1014 6.39656 13.3384 6.11653C13.5139 5.90615 13.527 5.60432 13.3704 5.37951C13.2669 5.22867 13.1269 5.10656 12.9634 5.02453C12.2313 4.59473 11.3578 4.47553 10.5373 4.69354C10.104 4.8307 9.73782 5.12545 9.51132 5.51953C9.40511 5.70647 9.33489 5.91168 9.30432 6.12454C9.24854 6.50737 9.33156 6.89756 9.53832 7.22456C9.77167 7.56618 10.1085 7.82381 10.4993 7.95956C10.9083 8.12756 11.3173 8.29054 11.7323 8.44256C11.9108 8.49923 12.0751 8.59331 12.2143 8.71856C12.3702 8.86743 12.428 9.09192 12.3633 9.29756C12.279 9.49458 12.1116 9.64401 11.9064 9.70556C11.5942 9.82293 11.2522 9.83522 10.9323 9.74057C10.6211 9.62793 10.3336 9.45839 10.0843 9.24056C10.0583 9.21956 9.97333 9.15558 9.95734 9.14057C9.72432 8.97398 9.406 8.99531 9.19735 9.19158C8.94165 9.42347 8.92234 9.81872 9.15418 10.0744C9.15423 10.0745 9.15428 10.0745 9.15432 10.0746C9.75095 10.7081 10.5842 11.0649 11.4543 11.0596C12.4856 11.1049 13.4021 10.4069 13.6324 9.40059C13.7294 8.79164 13.502 8.17617 13.0324 7.77661C12.7668 7.54439 12.4578 7.36729 12.1233 7.2555Z" fill="black"/>
<path d="M4.12109 5.16839V10.4304C4.12109 10.7756 4.40094 11.0554 4.74608 11.0554C5.09122 11.0554 5.37106 10.7755 5.37106 10.4304V8.76741H6.21107C7.37638 8.76741 8.32105 7.82274 8.32105 6.65743C8.32105 5.49211 7.37638 4.54744 6.21107 4.54744L6.20507 4.54346H4.74008C4.69766 4.54421 4.47397 4.55241 4.29711 4.73588C4.12794 4.91138 4.12142 5.12316 4.12109 5.16839ZM6.20507 7.51341H5.37308L5.36708 5.79343H6.20507C6.68005 5.79319 7.06527 6.17803 7.06551 6.65302C7.06574 7.128 6.6809 7.51322 6.20591 7.51346C6.20568 7.51341 6.20535 7.51341 6.20507 7.51341Z" fill="black"/>
<path d="M19 0H5.00002C2.23997 0.00332812 0.00332812 2.23997 0 5.00002V19C0.00332812 21.76 2.23997 23.9967 5.00002 24H16.343C17.6699 24.0038 18.9432 23.4766 19.879 22.536L22.535 19.878C23.4757 18.9426 24.0033 17.6697 24 16.343V5.00002C23.9967 2.23997 21.76 0.00332812 19 0ZM2.00002 19V5.00002C2.00002 3.34317 3.34317 2.00002 5.00002 2.00002H19C20.6569 2.00002 22 3.34317 22 5.00002V15H18C16.3432 15 15 16.3432 15 18V22H5.00002C3.34312 22 2.00002 20.6569 2.00002 19ZM18.465 21.122C18.063 21.523 17.5547 21.8006 17 21.922V18C17 17.4477 17.4477 17 18 17H21.925C21.8013 17.5535 21.524 18.0609 21.125 18.464L18.465 21.122Z" fill="black"/>
</g>
<defs>
<clipPath id="clip0_403_2480">
<rect width="24" height="24" fill="white"/>
</clipPath>
</defs>
</svg>
