<svg width="24" height="24" viewBox="0 0 24 24" fill="none" xmlns="http://www.w3.org/2000/svg">
<g clip-path="url(#clip0_403_2478)">
<path d="M15 12.0005C15 12.2657 14.8946 12.5201 14.7071 12.7076C14.5196 12.8952 14.2652 13.0005 14 13.0005H13V17.5005C13 17.995 12.8534 18.4783 12.5787 18.8894C12.304 19.3006 11.9135 19.621 11.4567 19.8102C10.9999 19.9994 10.4972 20.0489 10.0123 19.9525C9.52732 19.856 9.08186 19.6179 8.73223 19.2683C8.3826 18.9186 8.1445 18.4732 8.04804 17.9882C7.95157 17.5033 8.00108 17.0006 8.1903 16.5438C8.37952 16.087 8.69995 15.6965 9.11107 15.4218C9.5222 15.1471 10.0055 15.0005 10.5 15.0005C10.6679 15.0009 10.8354 15.0176 11 15.0505V13.0005C11 12.4701 11.2107 11.9614 11.5858 11.5863C11.9609 11.2112 12.4696 11.0005 13 11.0005H14C14.2652 11.0005 14.5196 11.1059 14.7071 11.2934C14.8946 11.4809 15 11.7353 15 12.0005ZM22 10.4855V19.0005C21.9984 20.3261 21.4711 21.597 20.5338 22.5343C19.5964 23.4716 18.3256 23.9989 17 24.0005H7C5.67441 23.9989 4.40356 23.4716 3.46622 22.5343C2.52888 21.597 2.00159 20.3261 2 19.0005V5.00051C2.00159 3.67492 2.52888 2.40407 3.46622 1.46673C4.40356 0.529394 5.67441 0.00209985 7 0.000511993H11.515C12.4347 -0.00188951 13.3458 0.178147 14.1954 0.530201C15.0451 0.882255 15.8165 1.39934 16.465 2.05151L19.949 5.53551C20.6012 6.184 21.1183 6.95541 21.4703 7.80508C21.8224 8.65474 22.0024 9.5658 22 10.4855ZM15.051 3.46551C14.7365 3.16014 14.3831 2.89754 14 2.68451V7.00051C14 7.26573 14.1054 7.52008 14.2929 7.70762C14.4804 7.89515 14.7348 8.00051 15 8.00051H19.316C19.103 7.61739 18.8404 7.26401 18.535 6.94951L15.051 3.46551ZM20 10.4855C20 10.3205 19.968 10.1625 19.953 10.0005H15C14.2044 10.0005 13.4413 9.68444 12.8787 9.12183C12.3161 8.55922 12 7.79616 12 7.00051V2.04751C11.838 2.03251 11.68 2.00051 11.515 2.00051H7C6.20435 2.00051 5.44129 2.31658 4.87868 2.87919C4.31607 3.4418 4 4.20486 4 5.00051V19.0005C4 19.7962 4.31607 20.5592 4.87868 21.1218C5.44129 21.6844 6.20435 22.0005 7 22.0005H17C17.7956 22.0005 18.5587 21.6844 19.1213 21.1218C19.6839 20.5592 20 19.7962 20 19.0005V10.4855Z" fill="black"/>
</g>
<defs>
<clipPath id="clip0_403_2478">
<rect width="24" height="24" fill="white"/>
</clipPath>
</defs>
</svg>
