<svg width="24" height="24" viewBox="0 0 24 24" fill="none" xmlns="http://www.w3.org/2000/svg">
<g clip-path="url(#clip0_403_2485)">
<path d="M19.949 5.53651L16.465 2.05051C15.8163 1.39865 15.0449 0.881842 14.1952 0.529971C13.3456 0.178099 12.4346 -0.0018556 11.515 0.00051133H7C5.67441 0.00209919 4.40356 0.529393 3.46622 1.46673C2.52888 2.40407 2.00159 3.67492 2 5.00051V19.0005C2.00159 20.3261 2.52888 21.597 3.46622 22.5343C4.40356 23.4716 5.67441 23.9989 7 24.0005H17C18.3256 23.9989 19.5964 23.4716 20.5338 22.5343C21.4711 21.597 21.9984 20.3261 22 19.0005V10.4855C22.0025 9.56593 21.8225 8.655 21.4704 7.80549C21.1184 6.95597 20.6012 6.18475 19.949 5.53651ZM18.535 6.95051C18.8404 7.26466 19.103 7.6177 19.316 8.00051H15C14.7348 8.00051 14.4804 7.89515 14.2929 7.70762C14.1054 7.52008 14 7.26573 14 7.00051V2.68451C14.3829 2.89744 14.7363 3.15967 15.051 3.46451L18.535 6.95051ZM20 19.0005C20 19.7962 19.6839 20.5592 19.1213 21.1218C18.5587 21.6844 17.7956 22.0005 17 22.0005H7C6.20435 22.0005 5.44129 21.6844 4.87868 21.1218C4.31607 20.5592 4 19.7962 4 19.0005V5.00051C4 4.20486 4.31607 3.4418 4.87868 2.87919C5.44129 2.31658 6.20435 2.00051 7 2.00051H11.515C11.679 2.00051 11.838 2.03251 12 2.04751V7.00051C12 7.79616 12.3161 8.55922 12.8787 9.12183C13.4413 9.68444 14.2044 10.0005 15 10.0005H19.953C19.968 10.1625 20 10.3205 20 10.4855V19.0005Z" fill="black"/>
</g>
<defs>
<clipPath id="clip0_403_2485">
<rect width="24" height="24" fill="white"/>
</clipPath>
</defs>
</svg>
