<svg width="24" height="24" viewBox="0 0 24 24" fill="none" xmlns="http://www.w3.org/2000/svg">
<path d="M14.0014 24C13.7851 24 13.5745 23.9298 13.4014 23.8L9.40145 20.8C9.27725 20.7069 9.17645 20.5861 9.10702 20.4472C9.03759 20.3084 9.00145 20.1552 9.00145 20V14.38L1.98545 6.487C1.48717 5.92488 1.16182 5.23082 1.04853 4.48823C0.935226 3.74565 1.03879 2.98615 1.34677 2.30101C1.65475 1.61588 2.15404 1.03426 2.78463 0.626066C3.41522 0.217873 4.15027 0.000474419 4.90145 0L19.1014 0C19.8526 0.000881051 20.5874 0.218639 21.2178 0.627107C21.8481 1.03557 22.3471 1.61737 22.6547 2.30259C22.9624 2.9878 23.0656 3.74727 22.952 4.48975C22.8384 5.23222 22.5129 5.9261 22.0144 6.488L15.0014 14.38V23C15.0014 23.2652 14.8961 23.5196 14.7086 23.7071C14.521 23.8946 14.2667 24 14.0014 24ZM11.0014 19.5L13.0014 21V14C13.0016 13.7552 13.0917 13.5189 13.2544 13.336L20.5224 5.159C20.7648 4.88508 20.9229 4.54704 20.9779 4.18545C21.0328 3.82387 20.9823 3.4541 20.8322 3.12056C20.6822 2.78701 20.4391 2.50386 20.132 2.30509C19.825 2.10632 19.4672 2.00038 19.1014 2H4.90145C4.5359 2.00055 4.17827 2.10655 3.87145 2.30527C3.56463 2.50399 3.32165 2.78699 3.17165 3.12035C3.02165 3.45371 2.971 3.82326 3.02577 4.18468C3.08054 4.5461 3.23841 4.88405 3.48045 5.158L10.7494 13.336C10.9119 13.519 11.0015 13.7553 11.0014 14V19.5Z" fill="black"/>
</svg>
