<svg width="24" height="24" viewBox="0 0 24 24" fill="none" xmlns="http://www.w3.org/2000/svg">
<g clip-path="url(#clip0_403_2495)">
<path d="M5.99927 19C5.99927 19.2652 5.89391 19.5196 5.70637 19.7071C5.51884 19.8946 5.26448 20 4.99927 20C4.73405 20 4.4797 19.8946 4.29216 19.7071C4.10462 19.5196 3.99927 19.2652 3.99927 19C3.99927 18.7348 4.10462 18.4804 4.29216 18.2929C4.4797 18.1054 4.73405 18 4.99927 18C5.26448 18 5.51884 18.1054 5.70637 18.2929C5.89391 18.4804 5.99927 18.7348 5.99927 19ZM23.7293 7.625C23.5228 8.03936 23.2045 8.38771 22.8105 8.63069C22.4164 8.87367 21.9622 9.00159 21.4993 9H16.9803C16.9603 10.061 16.9173 11.071 16.8313 12H17.1993C17.6019 11.992 18.0013 12.0725 18.3693 12.2361C18.7373 12.3996 19.0648 12.642 19.3286 12.9462C19.5925 13.2504 19.7862 13.609 19.896 13.9964C20.0059 14.3838 20.0292 14.7906 19.9643 15.188C19.8504 15.9663 19.4613 16.678 18.8676 17.1939C18.2738 17.7099 17.5148 17.9958 16.7283 18H15.3993C13.5993 21.889 7.99927 24 3.98627 24C3.44049 23.9981 2.90087 23.8846 2.40061 23.6664C1.90036 23.4481 1.45006 23.1298 1.07742 22.7311C0.704787 22.3323 0.417699 21.8615 0.233829 21.3476C0.0499592 20.8337 -0.0268032 20.2877 0.00826648 19.743C0.0616029 17.0847 0.743898 14.4768 1.99927 12.133V11.6C2.00567 9.80172 2.64064 8.06227 3.79425 6.68276C4.94785 5.30325 6.5475 4.37051 8.31627 4.046C8.7641 3.96952 9.22323 3.99192 9.66149 4.11163C10.0997 4.23134 10.5065 4.44547 10.8533 4.739C11.2082 5.03723 11.4944 5.40873 11.6922 5.82801C11.8901 6.2473 11.9948 6.70442 11.9993 7.168C12.9293 7.082 13.9403 7.039 14.9993 7.019V2.5C14.9993 2.03572 15.1286 1.58061 15.3726 1.18567C15.6167 0.790733 15.966 0.471566 16.3812 0.263933C16.7965 0.056301 17.2614 -0.031592 17.7238 0.0101029C18.1862 0.0517978 18.6278 0.221433 18.9993 0.500001C19.8962 1.15254 20.543 2.09221 20.8323 3.163C21.9051 3.4525 22.8464 4.10083 23.4993 5C23.7782 5.37274 23.9476 5.81596 23.9882 6.27974C24.0288 6.74352 23.9391 7.20944 23.7293 7.625ZM4.38427 9.541C6.06987 8.41756 7.99087 7.69604 9.99927 7.432V7.2C9.99927 7.02216 9.96033 6.84647 9.88518 6.68529C9.81003 6.5241 9.70049 6.38133 9.56427 6.267C9.4426 6.16041 9.29863 6.08237 9.14291 6.0386C8.98719 5.99482 8.82365 5.98642 8.66427 6.014C7.70657 6.18108 6.80867 6.59395 6.05842 7.2122C5.30818 7.83045 4.73131 8.6329 4.38427 9.541ZM8.78227 21.2C8.43917 19.746 7.69757 18.4163 6.64072 17.3603C5.58387 16.3044 4.25361 15.5639 2.79927 15.222C2.34998 16.7377 2.08145 18.3012 1.99927 19.88C1.98171 20.163 2.02452 20.4464 2.12485 20.7116C2.22518 20.9768 2.38074 21.2176 2.58122 21.4181C2.78169 21.6185 3.0225 21.7741 3.28766 21.8744C3.55283 21.9748 3.8363 22.0176 4.11927 22C5.69975 21.9185 7.265 21.6499 8.78227 21.2ZM14.9913 9.008C8.75227 9.115 5.35227 10.272 3.59127 13.37C5.27521 13.8304 6.8101 14.7217 8.04462 15.956C9.27913 17.1904 10.1706 18.7251 10.6313 20.409C13.7273 18.646 14.8843 15.247 14.9913 9.008ZM16.5673 14C16.4556 14.6743 16.307 15.342 16.1223 16H16.7283C17.0345 15.9985 17.3301 15.8873 17.5614 15.6866C17.7928 15.4859 17.9446 15.209 17.9893 14.906C18.013 14.792 18.01 14.6741 17.9806 14.5614C17.9511 14.4487 17.8959 14.3444 17.8194 14.2567C17.7429 14.1689 17.6471 14.1001 17.5395 14.0555C17.4319 14.011 17.3154 13.992 17.1993 14H16.5673ZM21.8993 6.189C21.6566 5.85839 21.3484 5.58125 20.994 5.37481C20.6396 5.16837 20.2466 5.03704 19.8393 4.989C19.634 4.95461 19.4446 4.85703 19.2974 4.70986C19.1502 4.56269 19.0527 4.37327 19.0183 4.168C18.9703 3.76066 18.8391 3.36754 18.6326 3.01314C18.4262 2.65873 18.149 2.35062 17.8183 2.108C17.7428 2.04937 17.6521 2.01359 17.5569 2.00491C17.4618 1.99622 17.3661 2.015 17.2813 2.059C17.1964 2.09701 17.1245 2.15901 17.0744 2.23736C17.0243 2.31572 16.9982 2.40701 16.9993 2.5V7H21.4993C21.5919 7.00267 21.6834 6.97827 21.7624 6.92979C21.8415 6.8813 21.9046 6.81083 21.9443 6.727C21.989 6.64242 22.0086 6.54677 22.0006 6.45141C21.9926 6.35604 21.9575 6.26497 21.8993 6.189Z" fill="black"/>
</g>
<defs>
<clipPath id="clip0_403_2495">
<rect width="24" height="24" fill="white"/>
</clipPath>
</defs>
</svg>
