<svg width="24" height="24" viewBox="0 0 24 24" fill="none" xmlns="http://www.w3.org/2000/svg">
<g clip-path="url(#clip0_403_2499)">
<path d="M16.6306 2.90015C15.8436 2.23316 15.0186 1.53215 14.1786 0.768133C13.5342 0.182101 12.6639 -0.0894925 11.8006 0.0261481C10.9639 0.136679 10.2196 0.612883 9.76859 1.32613C8.57656 3.31813 7.73375 5.49918 7.27657 7.77515C7.09718 7.51612 6.93804 7.24368 6.80056 6.96013C6.32693 5.96226 5.13406 5.53724 4.13618 6.01087C3.89459 6.12552 3.67845 6.28748 3.50056 6.48712C1.82323 8.20115 0.893371 10.51 0.914559 12.9081C0.866887 17.9487 4.2574 22.3742 9.13657 23.6401C10.0444 23.8686 10.9765 23.9867 11.9126 23.9921C11.9426 23.9921 12.2615 23.9891 12.3905 23.9801C18.3605 23.7868 23.098 18.8872 23.0906 12.9141C23.0866 8.38415 20.0946 5.84413 16.6306 2.90015ZM11.8876 21.9851C11.1433 21.9285 10.4079 21.627 9.85259 21.1791C8.98306 20.5638 8.40767 19.6616 8.27061 18.6221C8.10059 17.0001 9.10062 14.8791 11.1436 12.4831C11.3578 12.2329 11.6712 12.0895 12.0006 12.0911C12.3258 12.0888 12.6349 12.2318 12.8436 12.4811C14.7156 14.7031 15.7437 16.7531 15.7437 18.2541C15.7379 20.2261 14.1965 21.7861 12.2337 21.9761C12.1474 21.9845 12.0006 21.9971 11.8876 21.9851ZM17.5766 20.0831C17.5176 20.1291 17.4526 20.1661 17.3926 20.2101C17.6233 19.583 17.7422 18.9203 17.7436 18.2521C17.7436 15.7251 15.9086 13.0171 14.3706 11.1901C13.7822 10.4932 12.9167 10.0908 12.0046 10.0901H12.0006C11.0867 10.0884 10.218 10.488 9.62459 11.1831C7.17959 14.0471 6.05661 16.62 6.28657 18.831C6.34118 19.3443 6.47229 19.8465 6.67559 20.3211C4.301 18.6005 2.90182 15.8404 2.91757 12.9081C2.89826 11.0031 3.64948 9.17113 5.00056 7.82807C5.23123 8.3076 5.50821 8.76341 5.82757 9.18909C6.26618 9.78205 7.01548 10.0572 7.73356 9.88907C8.4657 9.72712 9.03415 9.14966 9.18457 8.41509C9.58634 6.29146 10.3541 4.2538 11.4536 2.3931C11.5888 2.18038 11.8123 2.03948 12.0626 2.0091C12.3423 1.97146 12.6242 2.05973 12.8326 2.25009C13.6906 3.03009 14.5326 3.75009 15.3326 4.4271C18.6706 7.2621 21.0836 9.31012 21.0836 12.9141C21.0922 15.7188 19.7975 18.3684 17.5796 20.0851L17.5766 20.0831Z" fill="black"/>
</g>
<defs>
<clipPath id="clip0_403_2499">
<rect width="24" height="24" fill="white"/>
</clipPath>
</defs>
</svg>
