<svg width="24" height="24" viewBox="0 0 24 24" fill="none" xmlns="http://www.w3.org/2000/svg">
<g clip-path="url(#clip0_403_2501)">
<path d="M10.2062 0.0685298H10.1992C9.97517 0.0179193 9.74056 0.0459597 9.53478 0.147939C9.329 0.249918 9.16459 0.419621 9.06919 0.62853L0.374184 19.7595C0.166563 20.2165 0.0769046 20.7182 0.113419 21.2188C0.149934 21.7194 0.311456 22.2028 0.583191 22.6248C0.854926 23.0467 1.22819 23.3938 1.6688 23.6342C2.10941 23.8745 2.60328 24.0005 3.10518 24.0005H9.99919C10.2644 24.0005 10.5188 23.8952 10.7063 23.7076C10.8938 23.5201 10.9992 23.2657 10.9992 23.0005V1.04653C10.9973 0.817807 10.9178 0.596504 10.7737 0.418838C10.6297 0.241172 10.4296 0.117665 10.2062 0.0685298ZM8.99919 22.0005H3.10518C2.93778 22.0007 2.77303 21.9587 2.62603 21.8787C2.47903 21.7986 2.35449 21.6829 2.26382 21.5421C2.17316 21.4014 2.11927 21.2402 2.10711 21.0732C2.09494 20.9063 2.12488 20.7389 2.19418 20.5865L8.99919 5.61653V22.0005Z" fill="black"/>
<path d="M23.625 19.7589L14.93 0.627929C14.8301 0.417823 14.6614 0.248106 14.452 0.146829C14.2425 0.0455515 14.0047 0.0187765 13.778 0.0709293C13.557 0.12124 13.3597 0.245117 13.2183 0.422259C13.077 0.599401 13 0.819303 13 1.04593V22.9999C13 23.2651 13.1054 23.5195 13.2929 23.707C13.4804 23.8946 13.7348 23.9999 14 23.9999H20.894C21.3959 23.9999 21.8898 23.8739 22.3304 23.6336C22.771 23.3932 23.1442 23.0461 23.416 22.6242C23.6877 22.2022 23.8492 21.7188 23.8858 21.2182C23.9223 20.7176 23.8326 20.2159 23.625 19.7589Z" fill="black"/>
</g>
<defs>
<clipPath id="clip0_403_2501">
<rect width="24" height="24" fill="white"/>
</clipPath>
</defs>
</svg>
