<svg width="24" height="24" viewBox="0 0 24 24" fill="none" xmlns="http://www.w3.org/2000/svg">
<g clip-path="url(#clip0_403_2504)">
<path d="M24.0002 11.1006C24.0088 10.3531 23.742 9.62863 23.2507 9.06522C22.7594 8.50181 22.0779 8.13888 21.3362 8.04561C21.6362 7.50061 22.0722 6.23261 21.9902 3.04561C21.9843 2.72468 21.9046 2.40943 21.7574 2.12419C21.6102 1.83896 21.3994 1.59139 21.1412 1.40061C20.8962 1.21812 20.6125 1.09421 20.3121 1.03839C20.0117 0.982574 19.7025 0.996331 19.4082 1.07861C17.9194 1.49578 16.5247 2.19549 15.3002 3.13961C14.8112 2.32773 14.2687 1.54934 13.6762 0.809605C13.4691 0.567794 13.2121 0.373674 12.9229 0.240581C12.6337 0.107488 12.3191 0.0385742 12.0007 0.0385742C11.6824 0.0385742 11.3678 0.107488 11.0785 0.240581C10.7893 0.373674 10.5323 0.567794 10.3252 0.809605C9.735 1.54792 9.19448 2.32463 8.70723 3.13461C7.47636 2.19325 6.07792 1.4942 4.58623 1.07461C4.29269 0.992408 3.98414 0.979062 3.6846 1.03561C3.38506 1.09215 3.1026 1.21706 2.85923 1.40061C2.60133 1.59092 2.39064 1.83798 2.24343 2.12269C2.09622 2.40741 2.01643 2.72215 2.01023 3.04261C1.92823 6.23061 2.36723 7.49761 2.66223 8.04261C1.92047 8.1366 1.23921 8.50021 0.748294 9.06416C0.257373 9.62811 -0.0088962 10.353 0.000226901 11.1006C0.000226901 15.3906 6.38723 18.2856 9.47823 19.4356C9.01354 19.853 8.612 20.3357 8.28623 20.8686C8.10031 21.1796 8.00114 21.5347 7.99903 21.897C7.99692 22.2593 8.09195 22.6155 8.27423 22.9286C8.46008 23.2538 8.72844 23.5241 9.05222 23.7123C9.376 23.9005 9.74372 24 10.1182 24.0006H13.8822C14.2571 23.9996 14.6251 23.8995 14.9489 23.7106C15.2727 23.5216 15.5409 23.2505 15.7262 22.9246C15.9085 22.6117 16.0036 22.2557 16.0016 21.8936C15.9997 21.5315 15.9008 21.1765 15.7152 20.8656C15.527 20.5575 15.31 20.2678 15.0672 20.0006H16.0002C16.5307 20.0006 17.0394 20.2113 17.4144 20.5864C17.7895 20.9615 18.0002 21.4702 18.0002 22.0006C18.0002 22.2658 18.1056 22.5202 18.2931 22.7077C18.4807 22.8953 18.735 23.0006 19.0002 23.0006C19.2654 23.0006 19.5198 22.8953 19.7073 22.7077C19.8949 22.5202 20.0002 22.2658 20.0002 22.0006C19.9977 21.1733 19.7381 20.3671 19.2575 19.6937C18.7768 19.0203 18.0988 18.5129 17.3172 18.2416C20.4152 16.7406 24.0002 14.3106 24.0002 11.1006ZM16.3722 4.88461C17.3995 3.9869 18.6223 3.34174 19.9432 3.00061C19.9432 3.00061 19.9892 3.01961 19.9912 3.09361C20.0542 5.52761 19.7772 6.81361 19.5212 7.17661C19.3747 7.39173 19.1855 7.57433 18.9652 7.71301C18.745 7.85169 18.4985 7.94347 18.2412 7.98261C17.9961 8.01723 17.7464 8.00062 17.508 7.93384C17.2697 7.86705 17.0477 7.75154 16.8562 7.59461C16.6414 7.45269 16.4577 7.2686 16.3162 7.05351C16.1747 6.83842 16.0784 6.59683 16.0332 6.34338C15.9879 6.08994 15.9946 5.82994 16.0529 5.57918C16.1112 5.32841 16.2198 5.0921 16.3722 4.88461ZM11.8922 2.05261C11.9051 2.03618 11.9216 2.02289 11.9404 2.01376C11.9592 2.00463 11.9798 1.99988 12.0007 1.99988C12.0216 1.99988 12.0422 2.00463 12.061 2.01376C12.0798 2.02289 12.0963 2.03618 12.1092 2.05261C12.8713 2.9623 13.5188 3.96211 14.0372 5.02961C14.0578 5.06453 14.0809 5.09794 14.1062 5.12961C13.9934 5.61965 13.9802 6.12734 14.0672 6.62261C13.9013 7.01973 13.6245 7.36065 13.27 7.6046C12.9154 7.84854 12.498 7.98517 12.0679 7.99815C11.6377 8.01112 11.2129 7.89989 10.8442 7.67776C10.4756 7.45563 10.1788 7.13201 9.98923 6.74561C9.96724 6.71368 9.94354 6.68296 9.91823 6.65361C10.0122 6.16042 10.006 5.65338 9.90023 5.16261C9.90548 5.15496 9.91016 5.14694 9.91423 5.13861C10.4332 4.02644 11.0984 2.98859 11.8922 2.05261ZM4.00923 3.09261C4.0088 3.07547 4.01196 3.05843 4.01851 3.04259C4.02505 3.02675 4.03483 3.01245 4.04723 3.00061C5.37693 3.34029 6.60941 3.9846 7.64723 4.88261C7.79499 5.09427 7.89877 5.33345 7.95241 5.58596C8.00605 5.83846 8.00846 6.09917 7.95951 6.35263C7.91055 6.60609 7.81122 6.84714 7.6674 7.06151C7.52358 7.27587 7.33819 7.45919 7.12223 7.60061C6.93286 7.7567 6.7131 7.87171 6.47691 7.93834C6.24072 8.00496 5.99325 8.02174 5.75023 7.98761C5.49402 7.94882 5.24866 7.85725 5.0297 7.71867C4.81074 7.5801 4.62295 7.39756 4.47823 7.18261C4.22223 6.81461 3.94623 5.52761 4.00923 3.09261ZM13.8822 22.0006H10.1182C10.0562 22.0006 10.0182 21.9546 10.0062 21.8846C10.508 21.1257 11.1802 20.4945 11.9692 20.0416C12.7889 20.4956 13.4828 21.1465 13.9882 21.9356C13.9778 21.9548 13.9626 21.9709 13.944 21.9824C13.9254 21.9938 13.9041 22.0001 13.8822 22.0006ZM14.6762 17.2096C15.3092 16.2903 15.7547 15.2552 15.9872 14.1636C16.0305 13.9018 15.9679 13.6336 15.8134 13.418C15.6589 13.2023 15.425 13.0568 15.1632 13.0136C14.9015 12.9704 14.6332 13.0329 14.4176 13.1874C14.2019 13.342 14.0565 13.5758 14.0132 13.8376C13.6323 15.1865 12.9482 16.4305 12.0132 17.4746C11.0889 16.396 10.3959 15.139 9.97723 13.7816C9.94847 13.6534 9.89475 13.5322 9.81913 13.4248C9.74351 13.3174 9.64747 13.2259 9.53651 13.1556C9.42554 13.0853 9.30182 13.0376 9.1724 13.0151C9.04298 12.9926 8.9104 12.9958 8.78223 13.0246C8.65406 13.0534 8.53281 13.1071 8.4254 13.1827C8.31799 13.2583 8.22653 13.3544 8.15624 13.4653C8.08594 13.5763 8.03819 13.7 8.01571 13.8294C7.99324 13.9589 7.99647 14.0914 8.02523 14.2196C8.30574 15.2935 8.76517 16.3124 9.38423 17.2336C6.30023 15.9656 2.00023 13.6406 2.00023 11.1006C1.99575 10.9565 2.02054 10.8129 2.0731 10.6786C2.12566 10.5443 2.2049 10.4221 2.30603 10.3193C2.40716 10.2164 2.52808 10.1352 2.66149 10.0804C2.7949 10.0257 2.93803 9.99851 3.08223 10.0006H20.9182C21.0624 9.99851 21.2056 10.0257 21.339 10.0804C21.4724 10.1352 21.5933 10.2164 21.6944 10.3193C21.7956 10.4221 21.8748 10.5443 21.9274 10.6786C21.9799 10.8129 22.0047 10.9565 22.0002 11.1006C22.0002 13.6236 17.7552 15.9356 14.6762 17.2096Z" fill="black"/>
</g>
<defs>
<clipPath id="clip0_403_2504">
<rect width="24" height="24" fill="white"/>
</clipPath>
</defs>
</svg>
