<svg width="24" height="24" viewBox="0 0 24 24" fill="none" xmlns="http://www.w3.org/2000/svg">
<g clip-path="url(#clip0_403_2506)">
<path d="M23.5354 14.7257C23.3283 14.4742 23.0626 14.2774 22.7617 14.1525C22.4607 14.0277 22.1337 13.9786 21.8094 14.0097C20.0671 14.1474 18.3759 14.6643 16.8542 15.5242C15.3326 16.3841 14.0173 17.5662 13.0004 18.9877V13.9107C14.397 13.6734 15.6647 12.9502 16.5796 11.8687C17.4945 10.7873 17.9978 9.41724 18.0004 8.00069C18.0004 5.20769 16.0574 2.84869 14.1564 0.909694C13.5801 0.34654 12.8062 0.03125 12.0004 0.03125C11.1946 0.03125 10.4208 0.34654 9.84441 0.909694C7.94341 2.84869 6.00041 5.20769 6.00041 8.00069C6.00304 9.41724 6.50628 10.7873 7.42121 11.8687C8.33614 12.9502 9.60387 13.6734 11.0004 13.9107V18.9877C9.98352 17.5662 8.66822 16.3841 7.14659 15.5242C5.62496 14.6643 3.93376 14.1474 2.19141 14.0097C1.8671 13.9788 1.54016 14.0279 1.23925 14.1528C0.938333 14.2776 0.672627 14.4743 0.465413 14.7257C0.259526 14.9701 0.116172 15.261 0.0477078 15.5732C-0.0207566 15.8854 -0.0122781 16.2095 0.0724127 16.5177C2.11141 23.8557 11.5914 24.0007 11.9944 24.0007H12.0064C12.4064 24.0007 21.8904 23.8557 23.9294 16.5177C24.0136 16.2094 24.0218 15.8853 23.9531 15.5732C23.8845 15.261 23.7412 14.9702 23.5354 14.7257ZM8.00041 8.00069C8.00041 5.34669 11.3184 2.28169 11.3384 2.26469C10.9734 3.20069 8.69341 8.90069 11.0004 9.00069C11.2656 9.00069 11.52 8.89534 11.7075 8.7078C11.8951 8.52026 12.0004 8.26591 12.0004 8.00069C12.0759 6.22213 12.5031 4.47616 13.2574 2.86369C14.6884 4.39369 16.0004 6.15469 16.0004 8.00069C16.0004 9.06156 15.579 10.079 14.8288 10.8291C14.0787 11.5793 13.0613 12.0007 12.0004 12.0007C10.9395 12.0007 9.92213 11.5793 9.17199 10.8291C8.42184 10.079 8.00041 9.06156 8.00041 8.00069ZM2.00641 16.0007C3.80815 16.1466 5.53943 16.7656 7.02526 17.7951C8.5111 18.8246 9.69883 20.2281 10.4684 21.8637C7.97141 21.5177 3.20041 20.3007 2.00641 16.0007ZM13.5454 21.8617C14.3213 20.2306 15.5093 18.8303 16.9922 17.7991C18.475 16.7678 20.2013 16.1414 22.0004 15.9817C20.8064 20.2837 16.0464 21.5117 13.5454 21.8617Z" fill="black"/>
</g>
<defs>
<clipPath id="clip0_403_2506">
<rect width="24" height="24" fill="white"/>
</clipPath>
</defs>
</svg>
