<svg width="24" height="24" viewBox="0 0 24 24" fill="none" xmlns="http://www.w3.org/2000/svg">
<g clip-path="url(#clip0_403_2508)">
<path d="M11.9991 16C10.9382 16 9.92083 15.5785 9.17068 14.8284C8.42054 14.0783 7.99911 13.0608 7.99911 12C7.99911 10.9391 8.42054 9.92169 9.17068 9.17155C9.92083 8.4214 10.9382 7.99998 11.9991 7.99998C13.06 7.99998 14.0774 8.4214 14.8275 9.17155C15.5777 9.92169 15.9991 10.9391 15.9991 12C15.9991 13.0608 15.5777 14.0783 14.8275 14.8284C14.0774 15.5785 13.06 16 11.9991 16ZM11.9991 9.99998C11.4687 9.99998 10.96 10.2107 10.5849 10.5858C10.2098 10.9608 9.99911 11.4695 9.99911 12C9.99911 12.5304 10.2098 13.0391 10.5849 13.4142C10.96 13.7893 11.4687 14 11.9991 14C12.5295 14 13.0383 13.7893 13.4133 13.4142C13.7884 13.0391 13.9991 12.5304 13.9991 12C13.9991 11.4695 13.7884 10.9608 13.4133 10.5858C13.0383 10.2107 12.5295 9.99998 11.9991 9.99998ZM11.9991 24C10.9083 23.9989 9.84764 23.6415 8.97852 22.9823C8.10939 22.3231 7.47932 21.3981 7.18411 20.348C6.12878 20.581 5.02661 20.471 4.03817 20.034C3.04973 19.5969 2.22665 18.8557 1.68885 17.9182C1.15105 16.9808 0.926623 15.8961 1.04826 14.8223C1.1699 13.7484 1.63126 12.7414 2.36511 11.948C-1.03489 8.43698 2.37411 2.34797 7.19911 3.59897C7.51034 2.56813 8.14516 1.66487 9.00964 1.02285C9.87411 0.380837 10.9223 0.0341797 11.9991 0.0341797C13.0759 0.0341797 14.1241 0.380837 14.9886 1.02285C15.8531 1.66487 16.4879 2.56813 16.7991 3.59897C21.6991 2.38297 24.9991 8.41198 21.6281 11.991C25.0361 15.529 21.6391 21.433 16.8141 20.348C16.5189 21.3981 15.8888 22.3231 15.0197 22.9823C14.1506 23.6415 13.0899 23.9989 11.9991 24ZM7.99911 18C8.26433 18 8.51868 18.1053 8.70622 18.2929C8.89375 18.4804 8.99911 18.7348 8.99911 19C8.99911 19.7956 9.31518 20.5587 9.87779 21.1213C10.4404 21.6839 11.2035 22 11.9991 22C12.7948 22 13.5578 21.6839 14.1204 21.1213C14.683 20.5587 14.9991 19.7956 14.9991 19C14.999 18.8238 15.0455 18.6508 15.1338 18.4983C15.2221 18.3459 15.3491 18.2195 15.5019 18.1319C15.6548 18.0443 15.828 17.9986 16.0042 17.9995C16.1804 18.0004 16.3532 18.0478 16.5051 18.137C19.9711 19.812 22.9051 14.955 19.5211 12.878C19.365 12.7906 19.2349 12.6632 19.1444 12.5089C19.0539 12.3546 19.0062 12.1789 19.0062 12C19.0062 11.8211 19.0539 11.6454 19.1444 11.491C19.2349 11.3367 19.365 11.2093 19.5211 11.122C22.8341 9.11298 20.0431 3.90297 16.5021 5.86797C16.3499 5.95658 16.1769 6.0034 16.0008 6.00369C15.8246 6.00399 15.6515 5.95775 15.499 5.86966C15.3465 5.78157 15.2199 5.65475 15.1321 5.50203C15.0443 5.34931 14.9985 5.17612 14.9991 4.99997C14.9991 4.20433 14.683 3.44126 14.1204 2.87865C13.5578 2.31605 12.7948 1.99997 11.9991 1.99997C11.2035 1.99997 10.4404 2.31605 9.87779 2.87865C9.31518 3.44126 8.99911 4.20433 8.99911 4.99997C8.99946 5.17568 8.95351 5.34837 8.86588 5.50067C8.77825 5.65296 8.65205 5.77948 8.49997 5.86748C8.34789 5.95548 8.17531 6.00186 7.99961 6.00195C7.8239 6.00204 7.65128 5.95583 7.49911 5.86797C3.99911 3.90797 1.13711 9.07998 4.47711 11.07C4.63324 11.1575 4.76323 11.285 4.85371 11.4394C4.94419 11.5938 4.99188 11.7695 4.99188 11.9485C4.99188 12.1274 4.94419 12.3032 4.85371 12.4576C4.76323 12.612 4.63324 12.7395 4.47711 12.827C1.12911 14.94 3.96311 19.8 7.49311 18.137C7.6466 18.0471 7.82126 17.9998 7.99911 18Z" fill="black"/>
</g>
<defs>
<clipPath id="clip0_403_2508">
<rect width="24" height="24" fill="white"/>
</clipPath>
</defs>
</svg>
