<svg width="24" height="24" viewBox="0 0 24 24" fill="none" xmlns="http://www.w3.org/2000/svg">
<path d="M16 15.0005C16 15.2657 15.8946 15.5201 15.7071 15.7076C15.5196 15.8951 15.2652 16.0005 15 16.0005H13V18.0005C13 18.2657 12.8946 18.5201 12.7071 18.7076C12.5196 18.8951 12.2652 19.0005 12 19.0005C11.7348 19.0005 11.4804 18.8951 11.2929 18.7076C11.1054 18.5201 11 18.2657 11 18.0005V16.0005H9C8.73478 16.0005 8.48043 15.8951 8.29289 15.7076C8.10536 15.5201 8 15.2657 8 15.0005C8 14.7353 8.10536 14.4809 8.29289 14.2934C8.48043 14.1058 8.73478 14.0005 9 14.0005H11V12.0005C11 11.7353 11.1054 11.4809 11.2929 11.2934C11.4804 11.1058 11.7348 11.0005 12 11.0005C12.2652 11.0005 12.5196 11.1058 12.7071 11.2934C12.8946 11.4809 13 11.7353 13 12.0005V14.0005H15C15.2652 14.0005 15.5196 14.1058 15.7071 14.2934C15.8946 14.4809 16 14.7353 16 15.0005ZM24 8.00049V18.0005C23.9984 19.3261 23.4711 20.5969 22.5338 21.5343C21.5964 22.4716 20.3256 22.9989 19 23.0005H5C3.67441 22.9989 2.40356 22.4716 1.46622 21.5343C0.528882 20.5969 0.00158786 19.3261 0 18.0005L0 6.00049C0.00158786 4.67489 0.528882 3.40405 1.46622 2.46671C2.40356 1.52937 3.67441 1.00208 5 1.00049H7.528C7.9934 1.00087 8.45239 1.10903 8.869 1.31649L12.025 2.90049C12.1644 2.96741 12.3173 3.00161 12.472 3.00049H19C20.3256 3.00208 21.5964 3.52937 22.5338 4.46671C23.4711 5.40405 23.9984 6.67489 24 8.00049ZM2 6.00049V7.00049H21.816C21.6099 6.41758 21.2288 5.91258 20.7247 5.55458C20.2206 5.19657 19.6183 5.00305 19 5.00049H12.472C12.0066 5.0001 11.5476 4.89194 11.131 4.68449L7.975 3.10549C7.83596 3.03684 7.68306 3.00092 7.528 3.00049H5C4.20435 3.00049 3.44129 3.31656 2.87868 3.87917C2.31607 4.44178 2 5.20484 2 6.00049ZM22 18.0005V9.00049H2V18.0005C2 18.7961 2.31607 19.5592 2.87868 20.1218C3.44129 20.6844 4.20435 21.0005 5 21.0005H19C19.7956 21.0005 20.5587 20.6844 21.1213 20.1218C21.6839 19.5592 22 18.7961 22 18.0005Z" fill="black"/>
</svg>
