<svg width="24" height="24" viewBox="0 0 24 24" fill="none" xmlns="http://www.w3.org/2000/svg">
<g clip-path="url(#clip0_403_2518)">
<path d="M12.0029 -0.00244141C5.3653 -0.00244141 -0.015625 5.37848 -0.015625 12.0161C-0.015625 18.6538 5.3653 24.0346 12.0029 24.0346C18.6406 24.0346 24.0215 18.6538 24.0215 12.0161C24.0215 5.37848 18.6406 -0.00244141 12.0029 -0.00244141ZM19.4517 8.83776L20.2277 6.32878C21.2734 7.84448 21.8775 9.62081 21.9727 11.4598L19.8307 9.95076C19.4765 9.70106 19.3235 9.25171 19.4517 8.83776ZM14.5997 2.35275H14.5917L12.5916 3.80873C12.2411 4.06359 11.7662 4.06359 11.4156 3.80873L9.41562 2.35275C11.1116 1.88212 12.9037 1.88212 14.5997 2.35275ZM3.77164 6.32976L4.54766 8.83776C4.67581 9.25171 4.52277 9.70106 4.16867 9.95076L2.02667 11.4598C2.12188 9.62114 2.726 7.84509 3.77164 6.32976ZM4.00667 17.9838L6.75369 17.9928C7.18733 17.9937 7.571 18.2739 7.7037 18.6868L8.5677 21.3798C6.75163 20.7113 5.16762 19.532 4.00667 17.9838ZM15.4326 21.3798L16.2957 18.6868C16.4282 18.2743 16.8114 17.9941 17.2446 17.9928L19.9926 17.9838C18.8323 19.5322 17.2486 20.7116 15.4326 21.3798ZM21.1686 15.9798L17.2386 15.9928C15.9374 15.9944 14.7865 16.8369 14.3916 18.0768L13.1566 21.9268C12.3883 22.0241 11.6109 22.0241 10.8426 21.9268L9.60763 18.0757C9.21228 16.8359 8.06094 15.9939 6.75964 15.9928L2.83063 15.9808C2.52823 15.2831 2.30712 14.5529 2.17161 13.8048L5.32062 11.5858C6.38506 10.8387 6.84505 9.48951 6.45861 8.24775L5.32363 4.57575C5.89719 4.05454 6.52944 3.60182 7.20763 3.22673L10.2356 5.42671C11.2866 6.1935 12.7126 6.1935 13.7636 5.42671L16.7916 3.22673C17.4696 3.60206 18.1018 4.05473 18.6756 4.57575L17.5406 8.24775C17.1542 9.48946 17.6142 10.8386 18.6786 11.5858L21.8276 13.8048C21.6922 14.5527 21.4711 15.2825 21.1686 15.9798Z" fill="black"/>
<path d="M15.3852 9.22379L13.4682 7.83179C12.5931 7.19279 11.4053 7.19279 10.5302 7.83179L8.61319 9.22379C7.73302 9.85975 7.36575 10.9923 7.70517 12.0238L8.43717 14.2768C8.77172 15.306 9.73191 16.002 10.8142 15.9998H13.1842C14.2675 15.9999 15.2276 15.3022 15.5622 14.2718L16.2932 12.0188C16.6305 10.9888 16.2634 9.85886 15.3852 9.22379ZM14.3912 11.4008L13.6601 13.6538C13.5933 13.8602 13.4011 13.9999 13.1841 13.9998H10.8141C10.5976 13.9995 10.4058 13.8598 10.3391 13.6538L9.60718 11.3998C9.53982 11.1934 9.61336 10.9671 9.78919 10.8398L11.7052 9.44978C11.8805 9.32237 12.1179 9.32237 12.2932 9.44978L14.2102 10.8418C14.3852 10.9693 14.4582 11.1949 14.3912 11.4008Z" fill="black"/>
</g>
<defs>
<clipPath id="clip0_403_2518">
<rect width="24" height="24" fill="white"/>
</clipPath>
</defs>
</svg>
