<svg width="24" height="24" viewBox="0 0 24 24" fill="none" xmlns="http://www.w3.org/2000/svg">
<g clip-path="url(#clip0_403_2522)">
<path d="M10 9.99953C9.20435 9.99953 8.44129 10.3156 7.87868 10.8782C7.31607 11.4408 7 12.2039 7 12.9995C7 13.7952 7.31607 14.5582 7.87868 15.1208C8.44129 15.6835 9.20435 15.9995 10 15.9995H14C14.7956 15.9995 15.5587 15.6835 16.1213 15.1208C16.6839 14.5582 17 13.7952 17 12.9995C17 12.2039 16.6839 11.4408 16.1213 10.8782C15.5587 10.3156 14.7956 9.99953 14 9.99953H10ZM15 12.9995C15 13.2647 14.8946 13.5191 14.7071 13.7066C14.5196 13.8942 14.2652 13.9995 14 13.9995H10C9.73478 13.9995 9.48043 13.8942 9.29289 13.7066C9.10536 13.5191 9 13.2647 9 12.9995C9 12.7343 9.10536 12.48 9.29289 12.2924C9.48043 12.1049 9.73478 11.9995 10 11.9995H14C14.2652 11.9995 14.5196 12.1049 14.7071 12.2924C14.8946 12.48 15 12.7343 15 12.9995ZM17 18.9995C17 19.2647 16.8946 19.5191 16.7071 19.7066C16.5196 19.8942 16.2652 19.9995 16 19.9995H8C7.73478 19.9995 7.48043 19.8942 7.29289 19.7066C7.10536 19.5191 7 19.2647 7 18.9995C7 18.7343 7.10536 18.48 7.29289 18.2924C7.48043 18.1049 7.73478 17.9995 8 17.9995H16C16.2652 17.9995 16.5196 18.1049 16.7071 18.2924C16.8946 18.48 17 18.7343 17 18.9995ZM19.536 3.12053L17.878 1.46453C17.4149 0.998778 16.864 0.629489 16.2572 0.378025C15.6504 0.126561 14.9998 -0.00208626 14.343 -0.0004733H8C6.67441 0.00111456 5.40356 0.528409 4.46622 1.46575C3.52888 2.40308 3.00159 3.67393 3 4.99953V18.9995C3.00159 20.3251 3.52888 21.596 4.46622 22.5333C5.40356 23.4706 6.67441 23.9979 8 23.9995H16C17.3256 23.9979 18.5964 23.4706 19.5338 22.5333C20.4711 21.596 20.9984 20.3251 21 18.9995V6.65653C21.0019 5.99961 20.8735 5.34885 20.6222 4.7419C20.3709 4.13494 20.0017 3.58386 19.536 3.12053ZM18.122 4.53453C18.2627 4.67696 18.3893 4.83268 18.5 4.99953H16V2.49953C16.1671 2.60906 16.3226 2.73538 16.464 2.87653L18.122 4.53453ZM19 18.9995C19 19.7952 18.6839 20.5582 18.1213 21.1208C17.5587 21.6835 16.7956 21.9995 16 21.9995H8C7.20435 21.9995 6.44129 21.6835 5.87868 21.1208C5.31607 20.5582 5 19.7952 5 18.9995V4.99953C5 4.20388 5.31607 3.44082 5.87868 2.87821C6.44129 2.3156 7.20435 1.99953 8 1.99953H14V4.99953C14 5.52996 14.2107 6.03867 14.5858 6.41374C14.9609 6.78881 15.4696 6.99953 16 6.99953H19V18.9995Z" fill="black"/>
</g>
<defs>
<clipPath id="clip0_403_2522">
<rect width="24" height="24" fill="white"/>
</clipPath>
</defs>
</svg>
