<svg width="24" height="24" viewBox="0 0 24 24" fill="none" xmlns="http://www.w3.org/2000/svg">
<g clip-path="url(#clip0_403_2541)">
<path d="M23.1461 9.471L22.3591 8.4C21.8138 7.65793 21.1019 7.0542 20.2807 6.63736C19.4596 6.22052 18.552 6.00222 17.6311 6H6.38214C5.48017 6.00236 4.59077 6.21176 3.7825 6.61209C2.97422 7.01241 2.26864 7.59296 1.72014 8.309L0.899142 9.383C0.232624 10.2623 -0.0807491 11.3592 0.0206633 12.4579C0.122076 13.5566 0.630933 14.5776 1.44714 15.32L9.43714 23.027C10.1389 23.6528 11.0469 23.9979 11.9871 23.996C12.9474 23.9941 13.8731 23.638 14.5871 22.996L22.5231 15.363C23.344 14.6361 23.8632 13.6283 23.9785 12.5379C24.0938 11.4476 23.7969 10.3535 23.1461 9.471ZM20.7461 9.578L21.5331 10.652C21.6122 10.7619 21.6818 10.8783 21.7411 11H16.9501C16.8778 10.5211 16.753 10.0516 16.5781 9.6L15.9381 8H17.6311C18.2376 8.00115 18.8353 8.1445 19.3763 8.41856C19.9173 8.69261 20.3865 9.08973 20.7461 9.578ZM11.9891 20.088L9.22014 13.818C9.11999 13.5528 9.04434 13.279 8.99414 13H14.9461C14.9042 13.2199 14.8454 13.4362 14.7701 13.647L11.9891 20.088ZM9.09914 11C9.14096 10.8207 9.19339 10.6441 9.25614 10.471L10.2401 8H13.7841L14.7211 10.343C14.8034 10.5569 14.8702 10.7765 14.9211 11H9.09914ZM3.31014 9.521C3.6717 9.04935 4.13668 8.66695 4.66927 8.40326C5.20185 8.13957 5.78785 8.00161 6.38214 8H8.08214L7.39914 9.729C7.23436 10.1392 7.1114 10.5651 7.03214 11H2.24414C2.31273 10.8587 2.39549 10.7246 2.49114 10.6L3.31014 9.521ZM2.81014 13.854C2.54927 13.6174 2.34432 13.3257 2.21014 13H6.98214C7.04846 13.5388 7.17837 14.0678 7.36914 14.576L10.1961 20.976L2.81014 13.854ZM13.7701 21.014L16.6241 14.4C16.7898 13.9474 16.9052 13.4779 16.9681 13H21.7991C21.6576 13.3433 21.4414 13.6507 21.1661 13.9L13.7701 21.014Z" fill="black"/>
<path d="M12 4C12.2652 4 12.5196 3.89464 12.7071 3.70711C12.8947 3.51957 13 3.26522 13 3V1C13 0.734784 12.8947 0.48043 12.7071 0.292893C12.5196 0.105357 12.2652 0 12 0C11.7348 0 11.4804 0.105357 11.2929 0.292893C11.1054 0.48043 11 0.734784 11 1V3C11 3.26522 11.1054 3.51957 11.2929 3.70711C11.4804 3.89464 11.7348 4 12 4Z" fill="black"/>
<path d="M16.5516 3.89993C16.6696 3.95929 16.7983 3.99466 16.9301 4.004C17.0619 4.01334 17.1943 3.99646 17.3196 3.95434C17.4448 3.91222 17.5605 3.84568 17.6599 3.75859C17.7592 3.6715 17.8404 3.56557 17.8986 3.44693L18.8986 1.44693C19.0171 1.20956 19.0365 0.934819 18.9525 0.683146C18.8685 0.431472 18.688 0.223481 18.4506 0.10493C18.2132 -0.0136223 17.9385 -0.0330241 17.6868 0.0509922C17.4351 0.135009 17.2271 0.315561 17.1086 0.552929L16.1086 2.55293C16.0489 2.67039 16.013 2.7985 16.0029 2.92989C15.9929 3.06127 16.0089 3.19335 16.0501 3.31852C16.0912 3.4437 16.1567 3.5595 16.2428 3.65928C16.3289 3.75906 16.4338 3.84084 16.5516 3.89993Z" fill="black"/>
<path d="M6.10432 3.44693C6.22288 3.68496 6.43113 3.86615 6.68327 3.95063C6.93542 4.03512 7.21079 4.01598 7.44882 3.89743C7.68686 3.77888 7.86804 3.57062 7.95253 3.31848C8.03701 3.06634 8.01788 2.79096 7.89932 2.55293L6.89932 0.552929C6.84062 0.435396 6.75935 0.330576 6.66014 0.244454C6.56093 0.158331 6.44572 0.0925929 6.32111 0.0509922C6.06943 -0.0330241 5.79469 -0.0136223 5.55732 0.10493C5.31996 0.223481 5.1394 0.431472 5.05539 0.683146C4.97137 0.934819 4.99077 1.20956 5.10932 1.44693L6.10432 3.44693Z" fill="black"/>
</g>
<defs>
<clipPath id="clip0_403_2541">
<rect width="24" height="24" fill="white"/>
</clipPath>
</defs>
</svg>
