<svg width="24" height="24" viewBox="0 0 24 24" fill="none" xmlns="http://www.w3.org/2000/svg">
<g clip-path="url(#clip0_403_2548)">
<path d="M23.9541 21.3188C23.9151 21.1933 23.8518 21.0768 23.7677 20.9759C23.6837 20.8749 23.5806 20.7915 23.4644 20.7304C23.3481 20.6693 23.2209 20.6317 23.0901 20.6198C22.9593 20.6078 22.8275 20.6217 22.7021 20.6608L21.4021 21.0608L20.4711 18.3238C21.4489 17.7751 22.2117 16.9108 22.6346 15.8723C23.0575 14.8338 23.1154 13.6825 22.7991 12.6068L20.9561 7.13177C20.7241 6.38432 20.2113 5.75596 19.5255 5.37885C18.8398 5.00175 18.0345 4.90529 17.2791 5.10977L13.4271 6.18377C12.8747 6.33747 12.3786 6.648 11.9991 7.07777C11.6195 6.648 11.1235 6.33747 10.5711 6.18377L6.71806 5.10977C5.96813 4.9029 5.16722 4.99463 4.48347 5.36568C3.79973 5.73673 3.28633 6.35826 3.05106 7.09977L1.18406 12.6568C0.880078 13.7317 0.94816 14.8778 1.37726 15.9092C1.80637 16.9405 2.57132 17.7967 3.54806 18.3388L2.60406 21.0668L1.29906 20.6608C1.17365 20.6214 1.0417 20.6071 0.91076 20.6187C0.779818 20.6303 0.652442 20.6675 0.535904 20.7283C0.419367 20.7892 0.31595 20.8723 0.231559 20.9731C0.147168 21.0739 0.0834555 21.1904 0.0440589 21.3158C0.00466237 21.4412 -0.00964662 21.5731 0.00194895 21.7041C0.0135445 21.835 0.0508176 21.9624 0.11164 22.0789C0.172462 22.1955 0.255643 22.2989 0.356432 22.3833C0.457222 22.4677 0.573647 22.5314 0.699059 22.5708L2.85906 23.2418C2.87406 23.2418 2.88306 23.2588 2.89806 23.2648C2.91306 23.2708 2.95006 23.2708 2.97606 23.2778L5.15706 23.9548C5.41034 24.0335 5.68454 24.0085 5.91934 23.8851C6.15413 23.7617 6.33029 23.55 6.40906 23.2968C6.48783 23.0435 6.46276 22.7693 6.33936 22.5345C6.21596 22.2997 6.00434 22.1235 5.75106 22.0448L4.51506 21.6598L5.45006 18.9598C5.63549 18.9836 5.82212 18.9969 6.00906 18.9998C7.09023 18.9971 8.1414 18.6441 9.00499 17.9936C9.86859 17.3431 10.4981 16.4302 10.7991 15.3918L11.9991 11.8358L13.1821 15.3358C13.4737 16.3874 14.1013 17.3148 14.9693 17.9763C15.8372 18.6379 16.8977 18.9973 17.9891 18.9998C18.1833 18.9979 18.3774 18.9846 18.5701 18.9598L19.4881 21.6598L18.2441 22.0458C17.9908 22.1245 17.7792 22.3007 17.6558 22.5355C17.5324 22.7703 17.5073 23.0445 17.5861 23.2978C17.6648 23.551 17.841 23.7627 18.0758 23.8861C18.3106 24.0095 18.5848 24.0345 18.8381 23.9558L21.0131 23.2808C21.0391 23.2738 21.0661 23.2808 21.0921 23.2678C21.1181 23.2548 21.1181 23.2488 21.1341 23.2428L23.2961 22.5718C23.4216 22.5328 23.5382 22.4694 23.6392 22.3853C23.7403 22.3012 23.8237 22.1981 23.8848 22.0817C23.946 21.9653 23.9835 21.838 23.9954 21.7071C24.0073 21.5762 23.9932 21.4442 23.9541 21.3188ZM13.3561 8.59177C13.4197 8.47459 13.5063 8.37148 13.6108 8.28865C13.7153 8.20582 13.8355 8.14497 13.9641 8.10976L17.8151 7.03677C17.901 7.01271 17.9898 7.00026 18.0791 6.99977C18.299 7.00209 18.5123 7.07523 18.6874 7.20835C18.8625 7.34146 18.99 7.52746 19.0511 7.73877L19.8121 9.99976H13.4891L13.2741 9.36276C13.2357 9.23526 13.2232 9.10139 13.2373 8.96899C13.2514 8.8366 13.2918 8.70835 13.3561 8.59177ZM5.91706 6.99977C6.0066 6.99993 6.09572 7.01204 6.18206 7.03576L10.0341 8.10976C10.2885 8.17995 10.5049 8.34791 10.6361 8.57702C10.7672 8.80613 10.8024 9.07779 10.7341 9.33277L10.5091 9.99976H4.18606L4.95606 7.70977C5.01961 7.50442 5.14714 7.32476 5.32002 7.19703C5.49291 7.0693 5.70211 7.00018 5.91706 6.99977ZM8.89106 14.7998C8.73133 15.3706 8.40609 15.8813 7.95639 16.2674C7.50669 16.6536 6.95268 16.8978 6.36428 16.9694C5.77588 17.041 5.17946 16.9366 4.65031 16.6696C4.12115 16.4025 3.68297 15.9846 3.39106 15.4688C3.00458 14.7948 2.89965 13.9956 3.09906 13.2448L3.51306 11.9998H9.83506L8.89106 14.7998ZM16.5231 16.6078C16.1727 16.4089 15.8656 16.142 15.6198 15.8228C15.3741 15.5035 15.1946 15.1384 15.0921 14.7488L14.1631 11.9998H20.4861L20.8861 13.1938C21.0457 13.7656 21.032 14.3719 20.8468 14.936C20.6616 15.5 20.3133 15.9965 19.8458 16.3624C19.3783 16.7284 18.8128 16.9474 18.2208 16.9918C17.6287 17.0362 17.0369 16.9039 16.5201 16.6118L16.5231 16.6078Z" fill="black"/>
<path d="M15.5516 3.89993C15.6696 3.95929 15.7983 3.99466 15.9301 4.004C16.0619 4.01334 16.1943 3.99646 16.3196 3.95434C16.4448 3.91222 16.5605 3.84568 16.6599 3.75859C16.7592 3.6715 16.8404 3.56557 16.8986 3.44693L17.8986 1.44693C18.0171 1.20956 18.0365 0.934819 17.9525 0.683146C17.8685 0.431472 17.688 0.223481 17.4506 0.10493C17.2132 -0.0136223 16.9385 -0.0330241 16.6868 0.0509922C16.4351 0.135009 16.2271 0.315561 16.1086 0.552929L15.1086 2.55293C15.0489 2.67039 15.013 2.7985 15.0029 2.92989C14.9929 3.06127 15.0089 3.19335 15.0501 3.31852C15.0912 3.4437 15.1567 3.5595 15.2428 3.65928C15.3289 3.75906 15.4338 3.84084 15.5516 3.89993Z" fill="black"/>
<path d="M7.10432 3.44693C7.22288 3.68496 7.43113 3.86615 7.68327 3.95063C7.80812 3.99247 7.93999 4.0093 8.07134 4.00017C8.20269 3.99104 8.33096 3.95613 8.44882 3.89743C8.56669 3.83873 8.67183 3.75739 8.75826 3.65805C8.84468 3.55872 8.9107 3.44333 8.95253 3.31848C8.99436 3.19363 9.01119 3.06177 9.00207 2.93041C8.99294 2.79906 8.95802 2.67079 8.89932 2.55293L7.89932 0.552929C7.84062 0.435396 7.75935 0.330576 7.66014 0.244454C7.56093 0.158331 7.44572 0.0925929 7.32111 0.0509922C7.06943 -0.0330241 6.79469 -0.0136223 6.55732 0.10493C6.31996 0.223481 6.1394 0.431472 6.05539 0.683146C5.97137 0.934819 5.99077 1.20956 6.10932 1.44693L7.10432 3.44693Z" fill="black"/>
<path d="M12 4C12.2652 4 12.5196 3.89464 12.7071 3.70711C12.8947 3.51957 13 3.26522 13 3V1C13 0.734784 12.8947 0.48043 12.7071 0.292893C12.5196 0.105357 12.2652 0 12 0C11.7348 0 11.4804 0.105357 11.2929 0.292893C11.1054 0.48043 11 0.734784 11 1V3C11 3.26522 11.1054 3.51957 11.2929 3.70711C11.4804 3.89464 11.7348 4 12 4Z" fill="black"/>
</g>
<defs>
<clipPath id="clip0_403_2548">
<rect width="24" height="24" fill="white"/>
</clipPath>
</defs>
</svg>
