<svg width="24" height="24" viewBox="0 0 24 24" fill="none" xmlns="http://www.w3.org/2000/svg">
<g clip-path="url(#clip0_403_2555)">
<path d="M12.9996 15.9996C14.5818 15.9996 16.1285 15.5304 17.4441 14.6514C18.7597 13.7723 19.7851 12.5229 20.3906 11.0611C20.9961 9.59928 21.1545 7.99075 20.8459 6.4389C20.5372 4.88705 19.7753 3.46159 18.6564 2.34277C17.5376 1.22395 16.1122 0.462019 14.5603 0.153337C13.0085 -0.155344 11.3999 0.00308233 9.93812 0.608583C8.47631 1.21408 7.22688 2.23946 6.34783 3.55506C5.46877 4.87065 4.99958 6.41737 4.99958 7.99962C5.00196 10.1206 5.84558 12.1541 7.34536 13.6538C8.84513 15.1536 10.8786 15.9972 12.9996 15.9996ZM12.9996 1.99962C14.1863 1.99962 15.3463 2.35151 16.333 3.0108C17.3197 3.67009 18.0887 4.60716 18.5429 5.70352C18.997 6.79988 19.1158 8.00628 18.8843 9.17016C18.6528 10.334 18.0813 11.4031 17.2422 12.2423C16.4031 13.0814 15.334 13.6528 14.1701 13.8843C13.0062 14.1158 11.7998 13.997 10.7035 13.5429C9.60713 13.0888 8.67005 12.3197 8.01077 11.333C7.35148 10.3463 6.99958 9.18631 6.99958 7.99962C7.00117 6.40881 7.63382 4.88361 8.7587 3.75873C9.88357 2.63386 11.4088 2.00121 12.9996 1.99962ZM22.9066 14.7726C21.8987 16.2411 20.5764 17.4667 19.0358 18.3602C17.4951 19.2538 15.7747 19.793 13.9996 19.9386V21.9996H17.9996C18.2648 21.9996 18.5192 22.105 18.7067 22.2925C18.8942 22.48 18.9996 22.7344 18.9996 22.9996C18.9996 23.2648 18.8942 23.5192 18.7067 23.7067C18.5192 23.8943 18.2648 23.9996 17.9996 23.9996H7.99958C7.73437 23.9996 7.48001 23.8943 7.29248 23.7067C7.10494 23.5192 6.99958 23.2648 6.99958 22.9996C6.99958 22.7344 7.10494 22.48 7.29248 22.2925C7.48001 22.105 7.73437 21.9996 7.99958 21.9996H11.9996V19.9486C9.81703 19.767 7.72585 18.9913 5.95286 17.7056C4.17987 16.4199 2.79276 14.6733 1.94198 12.6552C1.0912 10.6371 0.809227 8.42457 1.12664 6.2576C1.44406 4.09063 2.34875 2.05192 3.74258 0.36262C3.91152 0.158138 4.15478 0.0291432 4.41883 0.00401331C4.68288 -0.0211166 4.9461 0.0596768 5.15058 0.22862C5.35506 0.397563 5.48406 0.640816 5.50919 0.904867C5.53432 1.16892 5.45352 1.43214 5.28458 1.63662C4.42613 2.67913 3.78773 3.88472 3.4079 5.18068C3.02806 6.47663 2.91465 7.83609 3.07452 9.17707C3.23438 10.518 3.66421 11.8127 4.33806 12.9831C5.01192 14.1534 5.91584 15.1751 6.99532 15.9866C8.0748 16.7981 9.30746 17.3825 10.6189 17.7047C11.9304 18.0268 13.2936 18.0799 14.6262 17.8609C15.9588 17.6418 17.2332 17.1552 18.3726 16.4302C19.5119 15.7052 20.4927 14.7569 21.2556 13.6426C21.4054 13.4237 21.6361 13.2732 21.8969 13.2244C22.1577 13.1755 22.4271 13.2323 22.6461 13.3821C22.865 13.532 23.0155 13.7626 23.0643 14.0234C23.1132 14.2842 23.0564 14.5537 22.9066 14.7726Z" fill="black"/>
</g>
<defs>
<clipPath id="clip0_403_2555">
<rect width="24" height="24" fill="white"/>
</clipPath>
</defs>
</svg>
