<svg width="24" height="24" viewBox="0 0 24 24" fill="none" xmlns="http://www.w3.org/2000/svg">
<g clip-path="url(#clip0_403_2559)">
<path d="M12 9.9995C10.6514 9.99906 9.30605 10.1331 7.984 10.3995L7.978 8.1145L12.987 6.0385C13.2921 5.88347 13.5523 5.65273 13.7428 5.36838C13.9332 5.08402 14.0475 4.75555 14.0747 4.4144C14.1019 4.07324 14.041 3.73082 13.8981 3.41988C13.7551 3.10895 13.5347 2.83991 13.258 2.6385C13.2263 2.61449 13.1928 2.59277 13.158 2.5735L8.9 0.211502C8.59494 0.0577793 8.25558 -0.0152431 7.91429 -0.000603776C7.573 0.0140356 7.24114 0.115849 6.95036 0.29513C6.65958 0.474411 6.41957 0.725183 6.2532 1.02354C6.08684 1.3219 5.99967 1.6579 6 1.9995V10.9135C2.391 12.1085 0 14.3595 0 16.9995C0 20.9245 5.271 23.9995 12 23.9995C18.729 23.9995 24 20.9245 24 16.9995C24 13.0745 18.729 9.9995 12 9.9995ZM12.073 4.2545L7.973 5.9545L7.963 1.9835L12.073 4.2545ZM12 21.9995C6.58 21.9995 2 19.7095 2 16.9995C2 15.4055 3.591 13.9605 6 13.0375V16.9995C6 17.2647 6.10536 17.5191 6.29289 17.7066C6.48043 17.8941 6.73478 17.9995 7 17.9995C7.26522 17.9995 7.51957 17.8941 7.70711 17.7066C7.89464 17.5191 8 17.2647 8 16.9995L7.989 12.4395C9.30562 12.145 10.6508 11.9974 12 11.9995C17.42 11.9995 22 14.2895 22 16.9995C22 19.7095 17.42 21.9995 12 21.9995ZM17 16.9995C17 17.3951 16.8827 17.7817 16.6629 18.1106C16.4432 18.4395 16.1308 18.6959 15.7654 18.8473C15.3999 18.9986 14.9978 19.0382 14.6098 18.9611C14.2219 18.8839 13.8655 18.6934 13.5858 18.4137C13.3061 18.134 13.1156 17.7776 13.0384 17.3897C12.9613 17.0017 13.0009 16.5996 13.1522 16.2341C13.3036 15.8687 13.56 15.5563 13.8889 15.3366C14.2178 15.1168 14.6044 14.9995 15 14.9995C15.5304 14.9995 16.0391 15.2102 16.4142 15.5853C16.7893 15.9604 17 16.4691 17 16.9995Z" fill="black"/>
</g>
<defs>
<clipPath id="clip0_403_2559">
<rect width="24" height="24" fill="white"/>
</clipPath>
</defs>
</svg>
