<svg width="24" height="24" viewBox="0 0 24 24" fill="none" xmlns="http://www.w3.org/2000/svg">
<g clip-path="url(#clip0_403_2561)">
<path d="M22.0575 5.22998L14.6835 1.71698C13.0603 0.747414 11.04 0.730211 9.40052 1.67198L1.94355 5.22998C1.91557 5.24399 1.88655 5.25899 1.85955 5.27498C0.0899255 6.28682 -0.524418 8.54165 0.487425 10.3113C0.83041 10.9112 1.33493 11.4027 1.94355 11.73L4.00057 12.71V17.61C4.00178 19.8011 5.42749 21.7368 7.51957 22.388C8.97546 22.8092 10.4851 23.0154 12.0006 23C13.5159 23.017 15.0255 22.8125 16.4816 22.393C18.5737 21.7419 19.9994 19.8061 20.0006 17.615V12.708L22.0006 11.752V20C22.0006 20.5522 22.4483 20.9999 23.0006 20.9999C23.5529 20.9999 24.0006 20.5522 24.0006 20V7.99996C24.0072 6.8257 23.0801 5.74091 22.0575 5.22998ZM18.0005 17.615C18.0011 18.9256 17.1507 20.0849 15.9005 20.478C14.6328 20.8402 13.319 21.0161 12.0005 21C10.6821 21.0161 9.36832 20.8402 8.10054 20.478C6.85033 20.0848 6.00002 18.9256 6.00054 17.615V13.663L9.31755 15.243C10.136 15.729 11.0707 15.9844 12.0226 15.982C12.9286 15.9884 13.8193 15.7486 14.5996 15.288L18.0005 13.663V17.615ZM21.2006 9.92498L13.6586 13.525C12.607 14.1373 11.3035 14.12 10.2686 13.48L2.88953 9.96998C2.06702 9.52645 1.7598 8.50012 2.20333 7.67765C2.35333 7.39949 2.57824 7.16891 2.85255 7.01198L10.3475 3.43199C11.3995 2.82102 12.7022 2.83832 13.7375 3.47699L21.1115 6.98999C21.6538 7.29112 21.9931 7.85976 22.0005 8.48001C22.0015 9.06754 21.699 9.61391 21.2006 9.92498Z" fill="black"/>
</g>
<defs>
<clipPath id="clip0_403_2561">
<rect width="24" height="24" fill="white"/>
</clipPath>
</defs>
</svg>
