<svg width="24" height="24" viewBox="0 0 24 24" fill="none" xmlns="http://www.w3.org/2000/svg">
<path d="M19 4.00049H7C5.67441 4.00208 4.40356 4.52937 3.46622 5.46671C2.52888 6.40405 2.00159 7.67489 2 9.00049V11.0005H1C0.734784 11.0005 0.48043 11.1058 0.292893 11.2934C0.105357 11.4809 0 11.7353 0 12.0005C0 12.2657 0.105357 12.5201 0.292893 12.7076C0.48043 12.8951 0.734784 13.0005 1 13.0005H2V15.0005C2.00159 16.3261 2.52888 17.5969 3.46622 18.5343C4.40356 19.4716 5.67441 19.9989 7 20.0005H19C20.3256 19.9989 21.5964 19.4716 22.5338 18.5343C23.4711 17.5969 23.9984 16.3261 24 15.0005V9.00049C23.9984 7.67489 23.4711 6.40405 22.5338 5.46671C21.5964 4.52937 20.3256 4.00208 19 4.00049ZM4 15.0005V13.0005C4.26522 13.0005 4.51957 12.8951 4.70711 12.7076C4.89464 12.5201 5 12.2657 5 12.0005C5 11.7353 4.89464 11.4809 4.70711 11.2934C4.51957 11.1058 4.26522 11.0005 4 11.0005V9.00049C4 8.20484 4.31607 7.44178 4.87868 6.87917C5.44129 6.31656 6.20435 6.00049 7 6.00049V18.0005C6.20435 18.0005 5.44129 17.6844 4.87868 17.1218C4.31607 16.5592 4 15.7961 4 15.0005ZM22 15.0005C22 15.7961 21.6839 16.5592 21.1213 17.1218C20.5587 17.6844 19.7956 18.0005 19 18.0005H9V6.00049H19C19.7956 6.00049 20.5587 6.31656 21.1213 6.87917C21.6839 7.44178 22 8.20484 22 9.00049V15.0005Z" fill="black"/>
</svg>
