<svg width="24" height="24" viewBox="0 0 24 24" fill="none" xmlns="http://www.w3.org/2000/svg">
<g clip-path="url(#clip0_403_2567)">
<path d="M4.5 17.5005H2C1.46957 17.5005 0.960859 17.7112 0.585786 18.0863C0.210714 18.4613 0 18.9701 0 19.5005L0 22.0005C0 22.5309 0.210714 23.0396 0.585786 23.4147C0.960859 23.7898 1.46957 24.0005 2 24.0005H4.5C5.03043 24.0005 5.53914 23.7898 5.91421 23.4147C6.28929 23.0396 6.5 22.5309 6.5 22.0005V19.5005C6.5 18.9701 6.28929 18.4613 5.91421 18.0863C5.53914 17.7112 5.03043 17.5005 4.5 17.5005ZM4.5 22.0005H2V19.5005H4.5V22.0005Z" fill="black"/>
<path d="M22 17.5005H19.5C18.9696 17.5005 18.4609 17.7112 18.0858 18.0863C17.7107 18.4613 17.5 18.9701 17.5 19.5005V22.0005C17.5 22.5309 17.7107 23.0396 18.0858 23.4147C18.4609 23.7898 18.9696 24.0005 19.5 24.0005H22C22.5304 24.0005 23.0391 23.7898 23.4142 23.4147C23.7893 23.0396 24 22.5309 24 22.0005V19.5005C24 18.9701 23.7893 18.4613 23.4142 18.0863C23.0391 17.7112 22.5304 17.5005 22 17.5005ZM22 22.0005H19.5V19.5005H22V22.0005Z" fill="black"/>
<path d="M4.5 8.74951H2C1.46957 8.74951 0.960859 8.96023 0.585786 9.3353C0.210714 9.71037 0 10.2191 0 10.7495L0 13.2495C0 13.7799 0.210714 14.2886 0.585786 14.6637C0.960859 15.0388 1.46957 15.2495 2 15.2495H4.5C5.03043 15.2495 5.53914 15.0388 5.91421 14.6637C6.28929 14.2886 6.5 13.7799 6.5 13.2495V10.7495C6.5 10.2191 6.28929 9.71037 5.91421 9.3353C5.53914 8.96023 5.03043 8.74951 4.5 8.74951ZM4.5 13.2495H2V10.7495H4.5V13.2495Z" fill="black"/>
<path d="M22 8.74951H19.5C18.9696 8.74951 18.4609 8.96023 18.0858 9.3353C17.7107 9.71037 17.5 10.2191 17.5 10.7495V13.2495C17.5 13.7799 17.7107 14.2886 18.0858 14.6637C18.4609 15.0388 18.9696 15.2495 19.5 15.2495H22C22.5304 15.2495 23.0391 15.0388 23.4142 14.6637C23.7893 14.2886 24 13.7799 24 13.2495V10.7495C24 10.2191 23.7893 9.71037 23.4142 9.3353C23.0391 8.96023 22.5304 8.74951 22 8.74951ZM22 13.2495H19.5V10.7495H22V13.2495Z" fill="black"/>
<path d="M4.5 0H2C1.46957 0 0.960859 0.210714 0.585786 0.585786C0.210714 0.960859 0 1.46957 0 2L0 4.5C0 5.03043 0.210714 5.53914 0.585786 5.91421C0.960859 6.28929 1.46957 6.5 2 6.5H4.5C5.03043 6.5 5.53914 6.28929 5.91421 5.91421C6.28929 5.53914 6.5 5.03043 6.5 4.5V2C6.5 1.46957 6.28929 0.960859 5.91421 0.585786C5.53914 0.210714 5.03043 0 4.5 0V0ZM4.5 4.5H2V2H4.5V4.5Z" fill="black"/>
<path d="M13.25 17.5005H10.75C10.2196 17.5005 9.71086 17.7112 9.33579 18.0863C8.96071 18.4613 8.75 18.9701 8.75 19.5005V22.0005C8.75 22.5309 8.96071 23.0396 9.33579 23.4147C9.71086 23.7898 10.2196 24.0005 10.75 24.0005H13.25C13.7804 24.0005 14.2891 23.7898 14.6642 23.4147C15.0393 23.0396 15.25 22.5309 15.25 22.0005V19.5005C15.25 18.9701 15.0393 18.4613 14.6642 18.0863C14.2891 17.7112 13.7804 17.5005 13.25 17.5005ZM13.25 22.0005H10.75V19.5005H13.25V22.0005Z" fill="black"/>
<path d="M13.25 8.74951H10.75C10.2196 8.74951 9.71086 8.96023 9.33579 9.3353C8.96071 9.71037 8.75 10.2191 8.75 10.7495V13.2495C8.75 13.7799 8.96071 14.2886 9.33579 14.6637C9.71086 15.0388 10.2196 15.2495 10.75 15.2495H13.25C13.7804 15.2495 14.2891 15.0388 14.6642 14.6637C15.0393 14.2886 15.25 13.7799 15.25 13.2495V10.7495C15.25 10.2191 15.0393 9.71037 14.6642 9.3353C14.2891 8.96023 13.7804 8.74951 13.25 8.74951ZM13.25 13.2495H10.75V10.7495H13.25V13.2495Z" fill="black"/>
<path d="M13.25 0H10.75C10.2196 0 9.71086 0.210714 9.33579 0.585786C8.96071 0.960859 8.75 1.46957 8.75 2V4.5C8.75 5.03043 8.96071 5.53914 9.33579 5.91421C9.71086 6.28929 10.2196 6.5 10.75 6.5H13.25C13.7804 6.5 14.2891 6.28929 14.6642 5.91421C15.0393 5.53914 15.25 5.03043 15.25 4.5V2C15.25 1.46957 15.0393 0.960859 14.6642 0.585786C14.2891 0.210714 13.7804 0 13.25 0V0ZM13.25 4.5H10.75V2H13.25V4.5Z" fill="black"/>
<path d="M22 0H19.5C18.9696 0 18.4609 0.210714 18.0858 0.585786C17.7107 0.960859 17.5 1.46957 17.5 2V4.5C17.5 5.03043 17.7107 5.53914 18.0858 5.91421C18.4609 6.28929 18.9696 6.5 19.5 6.5H22C22.5304 6.5 23.0391 6.28929 23.4142 5.91421C23.7893 5.53914 24 5.03043 24 4.5V2C24 1.46957 23.7893 0.960859 23.4142 0.585786C23.0391 0.210714 22.5304 0 22 0V0ZM22 4.5H19.5V2H22V4.5Z" fill="black"/>
</g>
<defs>
<clipPath id="clip0_403_2567">
<rect width="24" height="24" fill="white"/>
</clipPath>
</defs>
</svg>
