<svg width="24" height="24" viewBox="0 0 24 24" fill="none" xmlns="http://www.w3.org/2000/svg">
<g clip-path="url(#clip0_403_2577)">
<path d="M10 16C11.1046 16 12 15.1046 12 14C12 12.8954 11.1046 12 10 12C8.89543 12 8 12.8954 8 14C8 15.1046 8.89543 16 10 16Z" fill="black"/>
<path d="M5.70643 16.2924C5.51783 16.1103 5.26523 16.0095 5.00303 16.0118C4.74083 16.014 4.49002 16.1192 4.30461 16.3046C4.1192 16.49 4.01403 16.7408 4.01176 17.003C4.00948 17.2652 4.11027 17.5178 4.29243 17.7064L6.29243 19.7064C6.38468 19.8019 6.49502 19.8781 6.61703 19.9305C6.73903 19.9829 6.87025 20.0105 7.00303 20.0117C7.13581 20.0128 7.26749 19.9875 7.39038 19.9372C7.51328 19.887 7.62493 19.8127 7.71883 19.7188C7.81272 19.6249 7.88697 19.5133 7.93725 19.3904C7.98753 19.2675 8.01284 19.1358 8.01168 19.003C8.01053 18.8702 7.98294 18.739 7.93053 18.617C7.87812 18.495 7.80194 18.3847 7.70643 18.2924L5.70643 16.2924Z" fill="black"/>
<path d="M23.4815 0.518085C23.3174 0.353841 23.1225 0.223548 22.9081 0.134652C22.6936 0.0457557 22.4637 0 22.2315 0C21.9993 0 21.7694 0.0457557 21.555 0.134652C21.3405 0.223548 21.1456 0.353841 20.9815 0.518085L20.7675 0.732085C20.0413 1.46043 19.5132 2.3623 19.2335 3.35208L16.2585 6.32709C15.1607 5.43555 13.7789 4.96845 12.3654 5.01104C10.9518 5.05364 9.60065 5.60307 8.55851 6.55908C8.39874 6.71805 8.25006 6.88778 8.11351 7.06708C7.93442 7.32527 7.70397 7.54371 7.43657 7.70872C7.16917 7.87374 6.87059 7.98178 6.55951 8.02608C4.86292 8.1409 3.26488 8.86463 2.05951 10.0641C-0.896492 13.0211 -0.640492 18.0891 2.63451 21.3641C4.26456 23.0253 6.4863 23.9731 8.81351 24.0001C9.76101 24.0127 10.7016 23.8372 11.5808 23.4837C12.46 23.1303 13.2604 22.606 13.9355 21.9411C15.135 20.7357 15.8587 19.1377 15.9735 17.4411C16.0178 17.13 16.1259 16.8314 16.2909 16.564C16.4559 16.2966 16.6743 16.0662 16.9325 15.8871C17.1118 15.7505 17.2815 15.6018 17.4405 15.4421C18.3954 14.3994 18.944 13.0484 18.9866 11.6352C19.0292 10.2219 18.5629 8.8404 17.6725 7.74208L20.6475 4.76709C21.6373 4.48737 22.5392 3.95933 23.2675 3.23308L23.4815 3.01908C23.6459 2.85497 23.7763 2.66004 23.8653 2.44547C23.9543 2.23089 24.0001 2.00088 24.0001 1.76858C24.0001 1.53629 23.9543 1.30628 23.8653 1.0917C23.7763 0.877128 23.6459 0.682204 23.4815 0.518085ZM16.0265 14.0271C15.9328 14.1223 15.8325 14.2108 15.7265 14.2921C15.2395 14.6375 14.8319 15.0829 14.5309 15.5985C14.23 16.1142 14.0427 16.6882 13.9815 17.2821C13.9018 18.5022 13.384 19.6525 12.5235 20.5211C10.3485 22.6961 6.54851 22.4411 4.05551 19.9471C1.56251 17.4531 1.29951 13.6551 3.47851 11.4791C4.34714 10.6186 5.4974 10.1008 6.71751 10.0211C7.31142 9.95992 7.88541 9.7726 8.40106 9.47166C8.91671 9.17072 9.36213 8.7631 9.70751 8.27608C9.7888 8.17008 9.87734 8.06984 9.97251 7.97608C10.2952 7.65937 10.6776 7.40998 11.0975 7.24243C11.5174 7.07487 11.9665 6.99249 12.4185 7.00008C13.2794 7.01102 14.1186 7.27231 14.8335 7.75208L13.2925 9.29309C13.197 9.38533 13.1208 9.49568 13.0684 9.61768C13.016 9.73968 12.9884 9.8709 12.9873 10.0037C12.9861 10.1365 13.0114 10.2681 13.0617 10.391C13.112 10.5139 13.1862 10.6256 13.2801 10.7195C13.374 10.8134 13.4857 10.8876 13.6086 10.9379C13.7315 10.9882 13.8631 11.0135 13.9959 11.0123C14.1287 11.0112 14.2599 10.9836 14.3819 10.9312C14.5039 10.8788 14.6143 10.8026 14.7065 10.7071L16.2445 9.16908C16.7712 9.88089 17.037 10.7522 16.9973 11.6368C16.9576 12.5213 16.6148 13.3653 16.0265 14.0271Z" fill="black"/>
</g>
<defs>
<clipPath id="clip0_403_2577">
<rect width="24" height="24" fill="white"/>
</clipPath>
</defs>
</svg>
