<svg width="24" height="24" viewBox="0 0 24 24" fill="none" xmlns="http://www.w3.org/2000/svg">
<g clip-path="url(#clip0_403_2589)">
<path d="M22.1396 17.7784L13.5926 5.53437C14.997 4.65513 15.4226 2.80394 14.5434 1.39962C13.6642 -0.00471237 11.813 -0.430384 10.4087 0.448897C9.00433 1.32818 8.57866 3.17932 9.45794 4.58365C9.69883 4.9684 10.0239 5.29348 10.4087 5.53437L1.86161 17.7784C0.931473 18.9964 0.753911 20.6299 1.4006 22.0194C2.16325 23.3367 3.60907 24.1052 5.12763 24.0003H18.8736C20.3922 24.1052 21.838 23.3367 22.6006 22.0194C23.2473 20.6299 23.0697 18.9964 22.1396 17.7784ZM11.7316 22.0003L17.1896 14.1814L18.6006 16.2084L14.5616 22.0004H11.7316V22.0003ZM6.53965 22.0003L14.5937 10.4623L15.9697 12.4343L9.29261 22.0003H6.53965ZM3.17065 21.0943C2.87407 20.3646 3.00072 19.5311 3.50065 18.9223L12.0006 6.74735L13.3816 8.72533C13.3676 8.74333 13.3476 8.75233 13.3346 8.77034L4.20063 21.8593C3.76755 21.755 3.39565 21.4788 3.17065 21.0943ZM20.8306 21.0943C20.402 21.7421 19.6448 22.0926 18.8736 22.0003H17.0006L19.8227 17.9563L20.4977 18.9223C20.9986 19.5305 21.1264 20.3641 20.8306 21.0943Z" fill="black"/>
</g>
<defs>
<clipPath id="clip0_403_2589">
<rect width="24" height="24" fill="white"/>
</clipPath>
</defs>
</svg>
