<svg width="24" height="24" viewBox="0 0 24 24" fill="none" xmlns="http://www.w3.org/2000/svg">
<path d="M21.0007 12.4235V10.9995C21.0007 8.61256 20.0525 6.32338 18.3646 4.63555C16.6768 2.94772 14.3876 1.99951 12.0007 1.99951C9.61373 1.99951 7.32455 2.94772 5.63672 4.63555C3.94889 6.32338 3.00068 8.61256 3.00068 10.9995V12.4235C1.95184 12.8853 1.09348 13.6935 0.569305 14.7126C0.0451257 15.7317 -0.113056 16.8999 0.121241 18.0218C0.355537 19.1436 0.96809 20.1508 1.85635 20.875C2.74462 21.5991 3.85467 21.9961 5.00068 21.9995C5.53112 21.9995 6.03982 21.7888 6.4149 21.4137C6.78997 21.0387 7.00068 20.5299 7.00068 19.9995V13.9995C7.00068 13.4691 6.78997 12.9604 6.4149 12.5853C6.03982 12.2102 5.53112 11.9995 5.00068 11.9995V10.9995C5.00068 9.143 5.73818 7.36252 7.05094 6.04976C8.36369 4.73701 10.1442 3.99951 12.0007 3.99951C13.8572 3.99951 15.6377 4.73701 16.9504 6.04976C18.2632 7.36252 19.0007 9.143 19.0007 10.9995V11.9995C18.4702 11.9995 17.9615 12.2102 17.5865 12.5853C17.2114 12.9604 17.0007 13.4691 17.0007 13.9995V19.9995H14.0007C13.7355 19.9995 13.4811 20.1049 13.2936 20.2924C13.106 20.4799 13.0007 20.7343 13.0007 20.9995C13.0007 21.2647 13.106 21.5191 13.2936 21.7066C13.4811 21.8942 13.7355 21.9995 14.0007 21.9995H19.0007C20.1467 21.9961 21.2568 21.5991 22.145 20.875C23.0333 20.1508 23.6458 19.1436 23.8801 18.0218C24.1144 16.8999 23.9562 15.7317 23.4321 14.7126C22.9079 13.6935 22.0495 12.8853 21.0007 12.4235ZM5.00068 19.9995C4.20503 19.9995 3.44197 19.6834 2.87936 19.1208C2.31675 18.5582 2.00068 17.7952 2.00068 16.9995C2.00068 16.2039 2.31675 15.4408 2.87936 14.8782C3.44197 14.3156 4.20503 13.9995 5.00068 13.9995V19.9995ZM19.0007 19.9995V13.9995C19.7963 13.9995 20.5594 14.3156 21.122 14.8782C21.6846 15.4408 22.0007 16.2039 22.0007 16.9995C22.0007 17.7952 21.6846 18.5582 21.122 19.1208C20.5594 19.6834 19.7963 19.9995 19.0007 19.9995Z" fill="black"/>
</svg>
