<svg width="24" height="24" viewBox="0 0 24 24" fill="none" xmlns="http://www.w3.org/2000/svg">
<g clip-path="url(#clip0_403_2591)">
<path d="M19.7987 4.41934C18.6263 2.83074 17.0445 1.5904 15.2221 0.830769C13.3997 0.0711395 11.4053 -0.17925 9.45168 0.10634C7.55152 0.376489 5.75512 1.1391 4.24093 2.31841C2.72673 3.49772 1.54745 5.05269 0.820224 6.82884C0.0930018 8.60499 -0.156848 10.5405 0.0954964 12.4431C0.347841 14.3457 1.0936 16.1492 2.25868 17.6743C2.75474 18.358 3.01452 19.1848 2.99868 20.0293V21.0003C2.99868 21.796 3.31475 22.5591 3.87736 23.1217C4.43997 23.6843 5.20303 24.0003 5.99868 24.0003H12.9987C13.7943 24.0003 14.5574 23.6843 15.12 23.1217C15.6826 22.5591 15.9987 21.796 15.9987 21.0003H16.4927C17.7045 20.9974 18.8742 20.5557 19.7855 19.7569C20.6968 18.9581 21.288 17.8563 21.4497 16.6553L21.6687 15.0003H21.9987C22.2629 15.0059 22.5254 14.958 22.7706 14.8595C23.0158 14.761 23.2385 14.6138 23.4253 14.427C23.6122 14.2402 23.7593 14.0174 23.8578 13.7723C23.9564 13.5271 24.0043 13.2645 23.9987 13.0003C23.9987 11.5803 21.0667 5.98534 19.7987 4.41934ZM20.7917 13.0003C20.5492 13.0004 20.315 13.0886 20.1327 13.2485C19.9505 13.4083 19.8324 13.629 19.8007 13.8693L19.4667 16.3943C19.3695 17.1147 19.0148 17.7756 18.4681 18.2547C17.9213 18.7338 17.2196 18.9986 16.4927 19.0003H14.9987C14.7335 19.0003 14.4791 19.1057 14.2916 19.2932C14.104 19.4808 13.9987 19.7351 13.9987 20.0003V21.0003C13.9987 21.2656 13.8933 21.5199 13.7058 21.7074C13.5182 21.895 13.2639 22.0003 12.9987 22.0003H5.99868C5.73346 22.0003 5.47911 21.895 5.29157 21.7074C5.10403 21.5199 4.99868 21.2656 4.99868 21.0003V20.0293C5.01379 18.7455 4.60968 17.4917 3.84768 16.4583C2.89554 15.2111 2.28603 13.7366 2.07961 12.1811C1.87319 10.6256 2.07704 9.04319 2.67094 7.59079C3.26484 6.1384 4.22814 4.86651 5.46529 3.9013C6.70244 2.93609 8.17044 2.31111 9.72368 2.08834C10.1478 2.02946 10.5755 2.00006 11.0037 2.00034C12.4088 1.99845 13.7946 2.32776 15.0487 2.96158C16.3028 3.5954 17.3898 4.51587 18.2217 5.64834C19.801 7.92073 21.0712 10.3931 21.9987 13.0003H20.7917ZM16.1987 8.01134C16.1333 7.89737 16.046 7.7974 15.942 7.71717C15.8379 7.63693 15.719 7.57799 15.5922 7.54372C15.4653 7.50945 15.3329 7.50052 15.2026 7.51744C15.0723 7.53436 14.9466 7.57681 14.8327 7.64234L13.8507 8.20634C13.3414 7.69012 12.7012 7.3223 11.9987 7.14234V6.00034C11.9987 5.73512 11.8933 5.48077 11.7058 5.29323C11.5182 5.1057 11.2639 5.00034 10.9987 5.00034C10.7335 5.00034 10.4791 5.1057 10.2916 5.29323C10.104 5.48077 9.99868 5.73512 9.99868 6.00034V7.14234C9.29512 7.3218 8.6538 7.68965 8.14368 8.20634L7.16168 7.64234C7.04782 7.57668 6.92215 7.53409 6.79183 7.51699C6.66151 7.4999 6.52911 7.50865 6.40217 7.54272C6.27523 7.5768 6.15625 7.63555 6.05201 7.71561C5.94778 7.79568 5.86034 7.89548 5.79468 8.00934C5.72902 8.1232 5.68642 8.24887 5.66933 8.37919C5.65224 8.5095 5.66098 8.64191 5.69506 8.76885C5.72914 8.89579 5.78789 9.01477 5.86795 9.119C5.94801 9.22324 6.04782 9.31068 6.16168 9.37634L7.15468 9.94734C7.05526 10.2897 7.00278 10.6439 6.99868 11.0003C7.00375 11.3569 7.05724 11.7112 7.15768 12.0533L6.16468 12.6243C5.93473 12.7569 5.76689 12.9755 5.69806 13.2318C5.62924 13.4882 5.66507 13.7614 5.79768 13.9913C5.93028 14.2213 6.14881 14.3891 6.40517 14.458C6.66153 14.5268 6.93473 14.4909 7.16468 14.3583L8.14668 13.7943C8.65597 14.3106 9.2962 14.6784 9.99868 14.8583V16.0003C9.99868 16.2656 10.104 16.5199 10.2916 16.7074C10.4791 16.895 10.7335 17.0003 10.9987 17.0003C11.2639 17.0003 11.5182 16.895 11.7058 16.7074C11.8933 16.5199 11.9987 16.2656 11.9987 16.0003V14.8583C12.7022 14.6789 13.3436 14.311 13.8537 13.7943L14.8357 14.3583C14.9495 14.424 15.0752 14.4666 15.2055 14.4837C15.3358 14.5008 15.4682 14.492 15.5952 14.458C15.7221 14.4239 15.8411 14.3651 15.9453 14.2851C16.0496 14.205 16.137 14.1052 16.2027 13.9913C16.2683 13.8775 16.3109 13.7518 16.328 13.6215C16.3451 13.4912 16.3364 13.3588 16.3023 13.2318C16.2682 13.1049 16.2095 12.9859 16.1294 12.8817C16.0493 12.7774 15.9495 12.69 15.8357 12.6243L14.8427 12.0533C14.9421 11.711 14.9946 11.3568 14.9987 11.0003C14.9936 10.6438 14.9401 10.2895 14.8397 9.94734L15.8327 9.37634C16.0621 9.24373 16.2295 9.0255 16.2981 8.76956C16.3667 8.51363 16.331 8.24093 16.1987 8.01134ZM10.9987 13.0003C10.6031 13.0003 10.2164 12.883 9.88754 12.6633C9.55864 12.4435 9.30229 12.1312 9.15092 11.7657C8.99954 11.4003 8.95994 10.9981 9.03711 10.6102C9.11428 10.2222 9.30476 9.86583 9.58446 9.58613C9.86417 9.30642 10.2205 9.11594 10.6085 9.03877C10.9965 8.9616 11.3986 9.00121 11.764 9.15258C12.1295 9.30396 12.4419 9.5603 12.6616 9.8892C12.8814 10.2181 12.9987 10.6048 12.9987 11.0003C12.9987 11.5308 12.788 12.0395 12.4129 12.4146C12.0378 12.7896 11.5291 13.0003 10.9987 13.0003Z" fill="black"/>
</g>
<defs>
<clipPath id="clip0_403_2591">
<rect width="24" height="24" fill="white"/>
</clipPath>
</defs>
</svg>
