<svg width="24" height="24" viewBox="0 0 24 24" fill="none" xmlns="http://www.w3.org/2000/svg">
<g clip-path="url(#clip0_403_2599)">
<path d="M17.5009 1.9165C16.3749 1.93402 15.2734 2.24836 14.3077 2.82778C13.342 3.40719 12.5463 4.23117 12.0009 5.2165C11.4556 4.23117 10.6599 3.40719 9.69417 2.82778C8.72848 2.24836 7.62698 1.93402 6.50094 1.9165C4.70588 1.99449 3.01464 2.77976 1.79672 4.10074C0.578794 5.42171 -0.0668157 7.17103 0.000934853 8.9665C0.000934853 13.5135 4.78693 18.4795 8.80093 21.8465C9.69715 22.5996 10.8303 23.0125 12.0009 23.0125C13.1716 23.0125 14.3047 22.5996 15.2009 21.8465C19.2149 18.4795 24.0009 13.5135 24.0009 8.9665C24.0687 7.17103 23.4231 5.42171 22.2052 4.10074C20.9872 2.77976 19.296 1.99449 17.5009 1.9165ZM13.9159 20.3165C13.3799 20.7679 12.7017 21.0154 12.0009 21.0154C11.3002 21.0154 10.622 20.7679 10.0859 20.3165C4.94793 16.0055 2.00093 11.8695 2.00093 8.9665C1.93258 7.70122 2.3673 6.46023 3.2103 5.5142C4.0533 4.56817 5.23617 3.99385 6.50094 3.9165C7.7657 3.99385 8.94857 4.56817 9.79157 5.5142C10.6346 6.46023 11.0693 7.70122 11.0009 8.9665C11.0009 9.23172 11.1063 9.48607 11.2938 9.67361C11.4814 9.86115 11.7357 9.9665 12.0009 9.9665C12.2662 9.9665 12.5205 9.86115 12.708 9.67361C12.8956 9.48607 13.0009 9.23172 13.0009 8.9665C12.9326 7.70122 13.3673 6.46023 14.2103 5.5142C15.0533 4.56817 16.2362 3.99385 17.5009 3.9165C18.7657 3.99385 19.9486 4.56817 20.7916 5.5142C21.6346 6.46023 22.0693 7.70122 22.0009 8.9665C22.0009 11.8695 19.0539 16.0055 13.9159 20.3125V20.3165Z" fill="black"/>
</g>
<defs>
<clipPath id="clip0_403_2599">
<rect width="24" height="24" fill="white"/>
</clipPath>
</defs>
</svg>
