<svg width="24" height="24" viewBox="0 0 24 24" fill="none" xmlns="http://www.w3.org/2000/svg">
<g clip-path="url(#clip0_403_2597)">
<path d="M22.9994 17.0004C22.7342 17.0004 22.4799 17.1058 22.2923 17.2933C22.1048 17.4808 21.9994 17.7352 21.9994 18.0004V20.5864L19.0054 17.5924C21.1994 15.2504 22.9994 12.5474 22.9994 9.98741C23.0547 8.47032 22.5072 6.99303 21.4766 5.87833C20.4461 4.76363 19.0162 4.10214 17.4994 4.03841C16.5974 4.05015 15.7127 4.28812 14.9265 4.73049C14.1403 5.17287 13.4777 5.8055 12.9994 6.57041C12.5212 5.8055 11.8586 5.17287 11.0724 4.73049C10.2861 4.28812 9.40148 4.05015 8.49943 4.03841C7.65137 4.04088 6.81716 4.25356 6.07143 4.65741L1.70643 0.293407C1.51783 0.111249 1.26523 0.0104547 1.00303 0.0127331C0.740833 0.0150115 0.49002 0.12018 0.304612 0.305589C0.119204 0.490997 0.014035 0.741809 0.0117566 1.00401C0.00947813 1.2662 0.110273 1.51881 0.292431 1.70741L4.49943 5.91541C3.52429 7.04717 2.9915 8.49351 2.99943 9.98741C2.99943 13.7784 6.95043 17.8874 10.2644 20.6634C11.0301 21.3077 11.9987 21.661 12.9994 21.661C14.0001 21.661 14.9687 21.3077 15.7344 20.6634C16.3424 20.1534 16.9724 19.5984 17.5954 19.0094L20.5854 22.0004H17.9994C17.7342 22.0004 17.4799 22.1058 17.2923 22.2933C17.1048 22.4808 16.9994 22.7352 16.9994 23.0004C16.9994 23.2656 17.1048 23.52 17.2923 23.7075C17.4799 23.8951 17.7342 24.0004 17.9994 24.0004H21.9994C22.5299 24.0004 23.0386 23.7897 23.4136 23.4146C23.7887 23.0395 23.9994 22.5308 23.9994 22.0004V18.0004C23.9994 17.7352 23.8941 17.4808 23.7065 17.2933C23.519 17.1058 23.2646 17.0004 22.9994 17.0004ZM14.4494 19.1324C14.0386 19.4634 13.527 19.6439 12.9994 19.6439C12.4719 19.6439 11.9602 19.4634 11.5494 19.1324C7.38643 15.6434 4.99943 12.3104 4.99943 9.98741C4.94463 9.00076 5.28159 8.03238 5.93702 7.29287C6.59245 6.55336 7.51335 6.10252 8.49943 6.03841C9.48551 6.10252 10.4064 6.55336 11.0618 7.29287C11.7173 8.03238 12.0542 9.00076 11.9994 9.98741C11.9994 10.2526 12.1048 10.507 12.2923 10.6945C12.4799 10.8821 12.7342 10.9874 12.9994 10.9874C13.2646 10.9874 13.519 10.8821 13.7065 10.6945C13.8941 10.507 13.9994 10.2526 13.9994 9.98741C13.9446 9.00076 14.2816 8.03238 14.937 7.29287C15.5925 6.55336 16.5133 6.10252 17.4994 6.03841C18.4855 6.10252 19.4064 6.55336 20.0618 7.29287C20.7173 8.03238 21.0542 9.00076 20.9994 9.98741C20.9994 12.3094 18.6114 15.6424 14.4494 19.1324Z" fill="black"/>
</g>
<defs>
<clipPath id="clip0_403_2597">
<rect width="24" height="24" fill="white"/>
</clipPath>
</defs>
</svg>
