<svg width="24" height="24" viewBox="0 0 24 24" fill="none" xmlns="http://www.w3.org/2000/svg">
<g clip-path="url(#clip0_403_2601)">
<path d="M24 9.72357V18.9996C23.9984 20.3252 23.4711 21.596 22.5338 22.5334C21.5964 23.4707 20.3256 23.998 19 23.9996H18C17.7348 23.9996 17.4804 23.8942 17.2929 23.7067C17.1054 23.5191 17 23.2648 17 22.9996C17 22.7344 17.1054 22.48 17.2929 22.2925C17.4804 22.1049 17.7348 21.9996 18 21.9996H19C19.7957 21.9996 20.5587 21.6835 21.1213 21.1209C21.6839 20.5583 22 19.7952 22 18.9996V9.72357C22 9.23249 21.8795 8.74891 21.649 8.31528C21.4185 7.88166 21.0851 7.51125 20.678 7.23657L13.678 2.51357C13.1834 2.17638 12.5986 1.99602 12 1.99602C11.4014 1.99602 10.8166 2.17638 10.322 2.51357L3.322 7.23657C2.91493 7.51125 2.5815 7.88166 2.351 8.31528C2.1205 8.74891 1.99998 9.23249 2 9.72357V18.9996C2 19.7952 2.31607 20.5583 2.87868 21.1209C3.44129 21.6835 4.20435 21.9996 5 21.9996H6C6.26522 21.9996 6.51957 22.1049 6.70711 22.2925C6.89465 22.48 7 22.7344 7 22.9996C7 23.2648 6.89465 23.5191 6.70711 23.7067C6.51957 23.8942 6.26522 23.9996 6 23.9996H5C3.67441 23.998 2.40356 23.4707 1.46622 22.5334C0.528886 21.596 0.00159177 20.3252 3.91707e-06 18.9996V9.72357C-0.00102096 8.90529 0.199083 8.0993 0.582708 7.37651C0.966334 6.65373 1.52172 6.0363 2.2 5.57857L9.2 0.85457C10.0253 0.294523 10.9997 -0.00488281 11.997 -0.00488281C12.9944 -0.00488281 13.9687 0.294523 14.794 0.85457L21.794 5.57857C22.473 6.03607 23.0292 6.65328 23.4138 7.37601C23.7985 8.09874 23.9998 8.90486 24 9.72357ZM19 15.0066C19.0026 15.9261 18.8227 16.8369 18.4708 17.6865C18.1189 18.536 17.602 19.3072 16.95 19.9556L13.435 23.3936C13.0502 23.7661 12.5356 23.9744 12 23.9744C11.4644 23.9744 10.9498 23.7661 10.565 23.3936L7.058 19.9636C6.2424 19.1505 5.63999 18.1488 5.30419 17.0472C4.96839 15.9456 4.90957 14.7782 5.13293 13.6484C5.3563 12.5186 5.85496 11.4614 6.58471 10.5705C7.31445 9.67956 8.25274 8.98244 9.31639 8.54094C10.38 8.09943 11.5362 7.92717 12.6823 8.03942C13.8285 8.15168 14.9293 8.54499 15.887 9.18448C16.8448 9.82397 17.63 10.6899 18.173 11.7055C18.716 12.7211 19.0001 13.8549 19 15.0066ZM17 15.0066C17 14.1843 16.7973 13.3748 16.4097 12.6496C16.0221 11.9245 15.4617 11.3061 14.778 10.8493C14.0944 10.3924 13.3086 10.1112 12.4904 10.0306C11.6721 9.94997 10.8466 10.0724 10.0869 10.387C9.32726 10.7016 8.6569 11.1987 8.13523 11.8342C7.61356 12.4697 7.25667 13.2241 7.09618 14.0306C6.93569 14.837 6.97654 15.6705 7.21513 16.4574C7.45372 17.2442 7.88268 17.9601 8.464 18.5416L11.964 21.9636L15.544 18.5336C16.0076 18.071 16.375 17.5211 16.6249 16.9158C16.8748 16.3104 17.0023 15.6615 17 15.0066ZM15 14.9996C15 15.5929 14.8241 16.1729 14.4944 16.6663C14.1648 17.1596 13.6962 17.5441 13.1481 17.7712C12.5999 17.9983 11.9967 18.0577 11.4147 17.9419C10.8328 17.8262 10.2982 17.5405 9.87868 17.1209C9.45913 16.7013 9.1734 16.1668 9.05765 15.5848C8.94189 15.0029 9.0013 14.3997 9.22837 13.8515C9.45543 13.3033 9.83995 12.8348 10.3333 12.5052C10.8266 12.1755 11.4067 11.9996 12 11.9996C12.7957 11.9996 13.5587 12.3156 14.1213 12.8783C14.6839 13.4409 15 14.2039 15 14.9996Z" fill="black"/>
</g>
<defs>
<clipPath id="clip0_403_2601">
<rect width="24" height="24" fill="white"/>
</clipPath>
</defs>
</svg>
