<svg width="24" height="24" viewBox="0 0 24 24" fill="none" xmlns="http://www.w3.org/2000/svg">
<path d="M17.001 24H7.00596C6.42767 23.9997 5.85628 23.8744 5.3309 23.6328C4.80552 23.3912 4.33855 23.0389 3.96196 22.6C3.59067 22.1707 3.31651 21.6663 3.15824 21.1212C2.99997 20.5762 2.96133 20.0034 3.04496 19.442C3.58187 16.5175 5.14193 13.8795 7.44596 12C5.14189 10.1199 3.58217 7.48109 3.04596 4.556C2.96249 3.99502 3.00112 3.42262 3.15921 2.87794C3.3173 2.33326 3.59112 1.82913 3.96196 1.4C4.33855 0.961146 4.80552 0.608844 5.3309 0.36721C5.85628 0.125575 6.42767 0.000313842 7.00596 0L17.001 0C17.5792 0.000512143 18.1505 0.125862 18.6759 0.367483C19.2012 0.609104 19.6682 0.9613 20.045 1.4C20.4158 1.82895 20.6898 2.33285 20.8483 2.87732C21.0067 3.42179 21.0458 3.99403 20.963 4.555C20.4213 7.48095 18.858 10.1194 16.552 12C18.8567 13.8822 20.4182 16.5217 20.958 19.448C21.0409 20.0091 21.0018 20.5815 20.8434 21.1262C20.685 21.6708 20.4109 22.1749 20.04 22.604C19.6634 23.0413 19.1971 23.3924 18.6726 23.6333C18.1482 23.8742 17.5781 23.9993 17.001 24ZM17.001 2H7.00596C6.71589 1.99982 6.4292 2.06227 6.16549 2.18308C5.90178 2.30389 5.66726 2.48022 5.47796 2.7C5.29311 2.91043 5.15652 3.15874 5.07775 3.42753C4.99898 3.69632 4.97994 3.97908 5.02196 4.256C5.39796 6.756 6.94596 9.096 9.62196 11.213C9.7402 11.3066 9.83574 11.4258 9.90141 11.5615C9.96709 11.6973 10.0012 11.8462 10.0012 11.997C10.0012 12.1478 9.96709 12.2967 9.90141 12.4325C9.83574 12.5682 9.7402 12.6874 9.62196 12.781C6.94596 14.9 5.40096 17.242 5.02196 19.741C4.97948 20.0184 4.99829 20.3017 5.07708 20.5711C5.15586 20.8404 5.29269 21.0892 5.47796 21.3C5.66726 21.5198 5.90178 21.6961 6.16549 21.8169C6.4292 21.9377 6.71589 22.0002 7.00596 22H17.001C17.291 22.0002 17.5777 21.9378 17.8415 21.817C18.1052 21.6962 18.3397 21.5198 18.529 21.3C18.7138 21.0899 18.8503 20.842 18.9291 20.5735C19.0079 20.3051 19.027 20.0226 18.985 19.746C18.612 17.259 17.065 14.917 14.385 12.784C14.2674 12.6903 14.1725 12.5714 14.1073 12.436C14.0421 12.3006 14.0082 12.1523 14.0082 12.002C14.0082 11.8517 14.0421 11.7034 14.1073 11.568C14.1725 11.4326 14.2674 11.3137 14.385 11.22C17.066 9.087 18.613 6.745 18.985 4.257C19.0268 3.97955 19.0072 3.69629 18.9276 3.42725C18.8479 3.1582 18.7101 2.90994 18.524 2.7C18.3353 2.4808 18.1015 2.30482 17.8387 2.18403C17.5759 2.06324 17.2902 2.00047 17.001 2ZM15.682 20H8.31896C8.15534 19.9999 7.99423 19.9597 7.84978 19.8829C7.70532 19.806 7.58193 19.6949 7.49041 19.5593C7.3989 19.4236 7.34207 19.2676 7.32491 19.1049C7.30774 18.9422 7.33077 18.7777 7.39196 18.626C8.17504 16.9351 9.36817 15.4666 10.863 14.354L11.381 13.942C11.5579 13.8012 11.7774 13.7246 12.0035 13.7246C12.2296 13.7246 12.449 13.8012 12.626 13.942L13.135 14.348C14.6276 15.465 15.8208 16.934 16.608 18.624C16.6695 18.7758 16.6929 18.9403 16.676 19.1033C16.6591 19.2662 16.6024 19.4224 16.511 19.5583C16.4195 19.6942 16.2961 19.8055 16.1516 19.8826C16.007 19.9596 15.8457 19.9999 15.682 20ZM10.035 18H13.963C13.3924 17.2563 12.7336 16.5847 12.001 16C11.2651 16.5824 10.6047 17.2543 10.035 18Z" fill="black"/>
</svg>
