<svg width="24" height="24" viewBox="0 0 24 24" fill="none" xmlns="http://www.w3.org/2000/svg">
<path d="M16.9989 24H7.00387C6.42548 23.9994 5.85403 23.8741 5.32852 23.6325C4.80301 23.3908 4.33583 23.0387 3.95887 22.6C3.58804 22.1705 3.31425 21.666 3.15617 21.121C2.99808 20.576 2.95944 20.0033 3.04287 19.442C3.57937 16.5173 5.1395 13.8792 7.44387 12C5.13947 10.1202 3.57966 7.48124 3.04387 4.556C2.9606 3.99509 2.99924 3.42283 3.15714 2.8782C3.31504 2.33357 3.58849 1.82939 3.95887 1.4C4.33583 0.961326 4.80301 0.60916 5.32852 0.367548C5.85403 0.125935 6.42548 0.000566288 7.00387 0L16.9989 0C17.5771 0.000512143 18.1485 0.125862 18.6738 0.367483C19.1992 0.609104 19.6662 0.9613 20.0429 1.4C20.4138 1.82895 20.6877 2.33285 20.8462 2.87732C21.0046 3.42179 21.0437 3.99403 20.9609 4.555C20.4192 7.48095 18.856 10.1194 16.5499 12C18.8546 13.8822 20.4161 16.5217 20.9559 19.448C21.0388 20.0091 20.9997 20.5815 20.8413 21.1262C20.6829 21.6708 20.4088 22.1749 20.0379 22.604C19.6613 23.0413 19.195 23.3924 18.6706 23.6333C18.1461 23.8742 17.576 23.9993 16.9989 24ZM16.9989 2H7.00387C6.71379 1.99976 6.42708 2.06218 6.16336 2.18299C5.89964 2.30381 5.66513 2.48016 5.47587 2.7C5.29096 2.91037 5.1544 3.15871 5.07579 3.42754C4.99718 3.69636 4.97844 3.97915 5.02087 4.256C5.39587 6.756 6.94287 9.096 9.62087 11.213C9.73911 11.3066 9.83465 11.4258 9.90032 11.5615C9.966 11.6973 10.0001 11.8462 10.0001 11.997C10.0001 12.1478 9.966 12.2967 9.90032 12.4325C9.83465 12.5682 9.73911 12.6874 9.62087 12.781C6.94287 14.9 5.39887 17.242 5.02087 19.741C4.97798 20.0183 4.9965 20.3017 5.07512 20.5711C5.15374 20.8404 5.29054 21.0893 5.47587 21.3C5.66513 21.5198 5.89964 21.6962 6.16336 21.817C6.42708 21.9378 6.71379 22.0002 7.00387 22H16.9989C17.2889 22.0002 17.5757 21.9378 17.8394 21.817C18.1031 21.6962 18.3376 21.5198 18.5269 21.3C18.7117 21.0899 18.8483 20.842 18.927 20.5735C19.0058 20.3051 19.0249 20.0226 18.9829 19.746C18.6099 17.259 17.0629 14.917 14.3829 12.784C14.2654 12.6903 14.1705 12.5714 14.1052 12.436C14.04 12.3006 14.0061 12.1523 14.0061 12.002C14.0061 11.8517 14.04 11.7034 14.1052 11.568C14.1705 11.4326 14.2654 11.3137 14.3829 11.22C17.0639 9.087 18.6109 6.745 18.9829 4.257C19.0247 3.97955 19.0051 3.69629 18.9255 3.42725C18.8458 3.1582 18.708 2.90994 18.5219 2.7C18.3332 2.4808 18.0995 2.30482 17.8367 2.18403C17.5738 2.06324 17.2881 2.00047 16.9989 2Z" fill="black"/>
</svg>
