<svg width="24" height="24" viewBox="0 0 24 24" fill="none" xmlns="http://www.w3.org/2000/svg">
<g clip-path="url(#clip0_403_2613)">
<path d="M23 18.9995C22.7348 18.9995 22.4804 19.1049 22.2929 19.2924C22.1054 19.4799 22 19.7343 22 19.9995C22 20.5299 21.7893 21.0387 21.4142 21.4137C21.0391 21.7888 20.5304 21.9995 20 21.9995H16V17.9995H18.1C19.1339 17.9982 20.1251 17.5869 20.8563 16.8558C21.5874 16.1247 21.9987 15.1335 22 14.0995C21.9973 12.7133 21.5157 11.3706 20.6369 10.2986C19.758 9.22653 18.5358 8.49104 17.177 8.21652L13.3 7.43952C12.8903 7.35789 12.5165 7.15005 12.231 6.84516C11.9455 6.54027 11.7626 6.15364 11.708 5.73952L11.3 2.57552C11.2408 2.16117 11.0955 1.7638 10.8735 1.40895C10.6515 1.05411 10.3578 0.749639 10.0111 0.515122C9.66438 0.280605 9.27245 0.12123 8.86049 0.0472423C8.44852 -0.0267454 8.02563 -0.0137082 7.619 0.0855157L2.91 1.41952C2.07333 1.65903 1.33714 2.1639 0.812295 2.8581C0.28745 3.55231 0.00237401 4.39824 0 5.26852L0 13.9995C0 15.0604 0.421427 16.0778 1.17157 16.8279C1.92172 17.5781 2.93913 17.9995 4 17.9995H5V21.9995H1C0.734784 21.9995 0.48043 22.1049 0.292893 22.2924C0.105357 22.4799 0 22.7343 0 22.9995C0 23.2647 0.105357 23.5191 0.292893 23.7066C0.48043 23.8942 0.734784 23.9995 1 23.9995H20C21.0609 23.9995 22.0783 23.5781 22.8284 22.8279C23.5786 22.0778 24 21.0604 24 19.9995C24 19.7343 23.8946 19.4799 23.7071 19.2924C23.5196 19.1049 23.2652 18.9995 23 18.9995ZM2 13.9995V5.26852C2.00149 4.8334 2.14413 4.41051 2.4065 4.06339C2.66887 3.71627 3.03679 3.46366 3.455 3.34352L8.107 2.02352C8.17961 2.00774 8.25369 1.9997 8.328 1.99952C8.56647 2.00008 8.79688 2.08585 8.97768 2.24134C9.15847 2.39684 9.27775 2.61182 9.314 2.84752L9.466 3.99952H7C6.73478 3.99952 6.48043 4.10487 6.29289 4.29241C6.10536 4.47995 6 4.7343 6 4.99952C6 5.26473 6.10536 5.51909 6.29289 5.70662C6.48043 5.89416 6.73478 5.99952 7 5.99952H9.729C9.77374 6.31322 9.856 6.62042 9.974 6.91452L7.635 8.33752C7.40837 8.4753 7.24576 8.69746 7.18294 8.95513C7.15183 9.08272 7.14615 9.21519 7.16624 9.34497C7.18633 9.47475 7.23178 9.5993 7.3 9.71152C7.36822 9.82373 7.45788 9.92141 7.56385 9.99897C7.66982 10.0765 7.79003 10.1325 7.91762 10.1636C8.17529 10.2264 8.44737 10.1843 8.674 10.0465L11.14 8.54652C11.4039 8.76461 11.695 8.94748 12.006 9.09052L10.631 11.5035C10.4997 11.734 10.4654 12.0072 10.5355 12.263C10.6056 12.5188 10.7745 12.7362 11.005 12.8675C11.2355 12.9988 11.5087 13.0331 11.7645 12.963C12.0203 12.8929 12.2377 12.724 12.369 12.4935L14.007 9.61952L16.784 10.1755C17.6902 10.3588 18.5052 10.8494 19.0912 11.5644C19.6773 12.2795 19.9983 13.175 20 14.0995C20 14.6034 19.7998 15.0867 19.4435 15.443C19.0872 15.7993 18.6039 15.9995 18.1 15.9995H4C3.46957 15.9995 2.96086 15.7888 2.58579 15.4137C2.21071 15.0387 2 14.5299 2 13.9995ZM7 17.9995H14V21.9995H7V17.9995Z" fill="black"/>
</g>
<defs>
<clipPath id="clip0_403_2613">
<rect width="24" height="24" fill="white"/>
</clipPath>
</defs>
</svg>
