<svg width="24" height="24" viewBox="0 0 24 24" fill="none" xmlns="http://www.w3.org/2000/svg">
<path d="M16.8988 4.02044C16.6616 2.89664 16.0452 1.88854 15.1531 1.16511C14.261 0.441677 13.1474 0.046875 11.9988 0.046875C10.8502 0.046875 9.73657 0.441677 8.84447 1.16511C7.95237 1.88854 7.33605 2.89664 7.0988 4.02044C6.17057 4.09392 5.27614 4.40161 4.49914 4.91474C3.72215 5.42786 3.08798 6.12965 2.65593 6.95448C2.22389 7.77932 2.00808 8.70025 2.02869 9.63116C2.04931 10.5621 2.30567 11.4725 2.7738 12.2774L9.0178 22.3334C9.33489 22.8373 9.77456 23.2525 10.2957 23.5403C10.8169 23.8281 11.4025 23.9791 11.9978 23.9791C12.5931 23.9791 13.1787 23.8281 13.6999 23.5403C14.221 23.2525 14.6607 22.8373 14.9778 22.3334L21.2388 12.2534C21.7015 11.4481 21.9529 10.5388 21.9698 9.61021C21.9866 8.68159 21.7684 7.76379 21.3353 6.94218C20.9021 6.12058 20.2683 5.42186 19.4926 4.91102C18.7169 4.40018 17.8247 4.09382 16.8988 4.02044ZM19.9988 9.50044C19.9967 9.6927 19.978 9.88441 19.9428 10.0734C17.7684 10.5808 15.5501 10.8768 13.3188 10.9574C11.3278 5.64744 19.5918 3.84244 19.9988 9.50044ZM11.9988 2.00044C12.6617 2.00297 13.3052 2.22503 13.8286 2.63192C14.352 3.0388 14.7258 3.6076 14.8918 4.24944C13.7224 4.60706 12.7048 5.3429 11.9988 6.34144C11.2928 5.3429 10.2752 4.60706 9.1058 4.24944C9.27176 3.6076 9.64564 3.0388 10.169 2.63192C10.6924 2.22503 11.3359 2.00297 11.9988 2.00044ZM7.4988 6.00044C8.08324 6.00518 8.65728 6.15549 9.16904 6.4378C9.6808 6.7201 10.1141 7.12549 10.4299 7.61732C10.7456 8.10915 10.9338 8.67191 10.9775 9.25474C11.0211 9.83756 10.9188 10.4221 10.6798 10.9554C8.44928 10.8683 6.23171 10.5737 4.0558 10.0754C3.97243 9.57485 3.99891 9.06212 4.13341 8.57278C4.26792 8.08345 4.50723 7.62921 4.83475 7.24157C5.16227 6.85392 5.57018 6.54214 6.03019 6.32783C6.4902 6.11352 6.99132 6.00181 7.4988 6.00044ZM13.2768 21.2864C13.136 21.4964 12.9457 21.6685 12.7226 21.7875C12.4995 21.9064 12.2506 21.9687 11.9978 21.9687C11.745 21.9687 11.4961 21.9064 11.273 21.7875C11.05 21.6685 10.8596 21.4964 10.7188 21.2864L5.1688 12.3464C9.68333 13.1724 14.3103 13.1724 18.8248 12.3464L13.2768 21.2864Z" fill="black"/>
</svg>
