<svg width="24" height="24" viewBox="0 0 24 24" fill="none" xmlns="http://www.w3.org/2000/svg">
<path d="M21 12H18C17.4696 12 16.9609 12.2107 16.5858 12.5858C16.2107 12.9609 16 13.4696 16 14C16 14.5304 15.7893 15.0391 15.4142 15.4142C15.0391 15.7893 14.5304 16 14 16H10C9.46957 16 8.96086 15.7893 8.58579 15.4142C8.21071 15.0391 8 14.5304 8 14C8 13.4696 7.78929 12.9609 7.41421 12.5858C7.03914 12.2107 6.53043 12 6 12H3C2.20435 12 1.44129 12.3161 0.87868 12.8787C0.31607 13.4413 0 14.2044 0 15L0 19C0.00158786 20.3256 0.528882 21.5964 1.46622 22.5338C2.40356 23.4711 3.67441 23.9984 5 24H19C20.3256 23.9984 21.5964 23.4711 22.5338 22.5338C23.4711 21.5964 23.9984 20.3256 24 19V15C24 14.2044 23.6839 13.4413 23.1213 12.8787C22.5587 12.3161 21.7956 12 21 12ZM22 19C22 19.7956 21.6839 20.5587 21.1213 21.1213C20.5587 21.6839 19.7956 22 19 22H5C4.20435 22 3.44129 21.6839 2.87868 21.1213C2.31607 20.5587 2 19.7956 2 19V15C2 14.7348 2.10536 14.4804 2.29289 14.2929C2.48043 14.1054 2.73478 14 3 14H6C6 15.0609 6.42143 16.0783 7.17157 16.8284C7.92172 17.5786 8.93913 18 10 18H14C15.0609 18 16.0783 17.5786 16.8284 16.8284C17.5786 16.0783 18 15.0609 18 14H21C21.2652 14 21.5196 14.1054 21.7071 14.2929C21.8946 14.4804 22 14.7348 22 15V19Z" fill="black"/>
<path d="M3 9.99951H21C21.2652 9.99951 21.5196 9.89415 21.7071 9.70662C21.8946 9.51908 22 9.26473 22 8.99951C22 8.73429 21.8946 8.47994 21.7071 8.2924C21.5196 8.10487 21.2652 7.99951 21 7.99951H3C2.73478 7.99951 2.48043 8.10487 2.29289 8.2924C2.10536 8.47994 2 8.73429 2 8.99951C2 9.26473 2.10536 9.51908 2.29289 9.70662C2.48043 9.89415 2.73478 9.99951 3 9.99951Z" fill="black"/>
<path d="M3 6.00048H21C21.2652 6.00048 21.5196 5.89513 21.7071 5.70759C21.8946 5.52006 22 5.2657 22 5.00049C22 4.73527 21.8946 4.48092 21.7071 4.29338C21.5196 4.10585 21.2652 4.00049 21 4.00049H3C2.73478 4.00049 2.48043 4.10585 2.29289 4.29338C2.10536 4.48092 2 4.73527 2 5.00049C2 5.2657 2.10536 5.52006 2.29289 5.70759C2.48043 5.89513 2.73478 6.00048 3 6.00048Z" fill="black"/>
</svg>
