<svg width="24" height="24" viewBox="0 0 24 24" fill="none" xmlns="http://www.w3.org/2000/svg">
<path d="M1 6.00048H23C23.2652 6.00048 23.5196 5.89513 23.7071 5.70759C23.8946 5.52006 24 5.2657 24 5.00049C24 4.73527 23.8946 4.48092 23.7071 4.29338C23.5196 4.10585 23.2652 4.00049 23 4.00049H1C0.734784 4.00049 0.48043 4.10585 0.292893 4.29338C0.105357 4.48092 0 4.73527 0 5.00049C0 5.2657 0.105357 5.52006 0.292893 5.70759C0.48043 5.89513 0.734784 6.00048 1 6.00048Z" fill="black"/>
<path d="M23 9H9C8.73478 9 8.48043 9.10536 8.29289 9.29289C8.10536 9.48043 8 9.73478 8 10C8 10.2652 8.10536 10.5196 8.29289 10.7071C8.48043 10.8946 8.73478 11 9 11H23C23.2652 11 23.5196 10.8946 23.7071 10.7071C23.8946 10.5196 24 10.2652 24 10C24 9.73478 23.8946 9.48043 23.7071 9.29289C23.5196 9.10536 23.2652 9 23 9Z" fill="black"/>
<path d="M23 19.0005H1C0.734784 19.0005 0.48043 19.1058 0.292893 19.2934C0.105357 19.4809 0 19.7353 0 20.0005C0 20.2657 0.105357 20.5201 0.292893 20.7076C0.48043 20.8951 0.734784 21.0005 1 21.0005H23C23.2652 21.0005 23.5196 20.8951 23.7071 20.7076C23.8946 20.5201 24 20.2657 24 20.0005C24 19.7353 23.8946 19.4809 23.7071 19.2934C23.5196 19.1058 23.2652 19.0005 23 19.0005Z" fill="black"/>
<path d="M23 13.9995H9C8.73478 13.9995 8.48043 14.1049 8.29289 14.2924C8.10536 14.4799 8 14.7343 8 14.9995C8 15.2647 8.10536 15.5191 8.29289 15.7066C8.48043 15.8942 8.73478 15.9995 9 15.9995H23C23.2652 15.9995 23.5196 15.8942 23.7071 15.7066C23.8946 15.5191 24 15.2647 24 14.9995C24 14.7343 23.8946 14.4799 23.7071 14.2924C23.5196 14.1049 23.2652 13.9995 23 13.9995Z" fill="black"/>
<path d="M1.707 16.2447L4.681 13.2707C4.88508 13.066 4.99968 12.7887 4.99968 12.4997C4.99968 12.2107 4.88508 11.9334 4.681 11.7287L1.707 8.7547C1.56709 8.61483 1.38883 8.5196 1.19479 8.48107C1.00074 8.44253 0.799624 8.46242 0.616884 8.53821C0.434143 8.61401 0.27799 8.7423 0.168182 8.90687C0.0583736 9.07143 -0.00015534 9.26487 3.09641e-07 9.4627V15.5367C-0.00015534 15.7345 0.0583736 15.928 0.168182 16.0925C0.27799 16.2571 0.434143 16.3854 0.616884 16.4612C0.799624 16.537 1.00074 16.5569 1.19479 16.5183C1.38883 16.4798 1.56709 16.3846 1.707 16.2447Z" fill="black"/>
</svg>
