<svg width="24" height="24" viewBox="0 0 24 24" fill="none" xmlns="http://www.w3.org/2000/svg">
<path d="M10 6.00048H23C23.2652 6.00048 23.5196 5.89513 23.7071 5.70759C23.8946 5.52006 24 5.2657 24 5.00049C24 4.73527 23.8946 4.48092 23.7071 4.29338C23.5196 4.10585 23.2652 4.00049 23 4.00049H10C9.73478 4.00049 9.48043 4.10585 9.29289 4.29338C9.10536 4.48092 9 4.73527 9 5.00049C9 5.2657 9.10536 5.52006 9.29289 5.70759C9.48043 5.89513 9.73478 6.00048 10 6.00048Z" fill="black"/>
<path d="M23 10.9995H10C9.73478 10.9995 9.48043 11.1049 9.29289 11.2924C9.10536 11.4799 9 11.7343 9 11.9995C9 12.2647 9.10536 12.5191 9.29289 12.7066C9.48043 12.8942 9.73478 12.9995 10 12.9995H23C23.2652 12.9995 23.5196 12.8942 23.7071 12.7066C23.8946 12.5191 24 12.2647 24 11.9995C24 11.7343 23.8946 11.4799 23.7071 11.2924C23.5196 11.1049 23.2652 10.9995 23 10.9995Z" fill="black"/>
<path d="M23 18H10C9.73478 18 9.48043 18.1054 9.29289 18.2929C9.10536 18.4804 9 18.7348 9 19C9 19.2652 9.10536 19.5196 9.29289 19.7071C9.48043 19.8947 9.73478 20 10 20H23C23.2652 20 23.5196 19.8947 23.7071 19.7071C23.8946 19.5196 24 19.2652 24 19C24 18.7348 23.8946 18.4804 23.7071 18.2929C23.5196 18.1054 23.2652 18 23 18Z" fill="black"/>
<path d="M6.08789 6.00034C6.18683 6.00032 6.28354 5.97094 6.36577 5.91594C6.44801 5.86094 6.51208 5.78277 6.54987 5.69134C6.58766 5.59991 6.59748 5.49932 6.57808 5.4023C6.55868 5.30529 6.51094 5.21621 6.4409 5.14634L4.0009 2.70734C3.81337 2.51987 3.55906 2.41455 3.29389 2.41455C3.02873 2.41455 2.77442 2.51987 2.58689 2.70734L0.147895 5.14634C0.0778485 5.21621 0.0301048 5.30529 0.0107063 5.4023C-0.0086922 5.49932 0.00112665 5.59991 0.0389201 5.69134C0.0767136 5.78277 0.140783 5.86094 0.223018 5.91594C0.305254 5.97094 0.401959 6.00032 0.500895 6.00034H2.29489V18.0003H0.500895C0.401874 18.0002 0.305031 18.0294 0.222642 18.0843C0.140252 18.1392 0.076028 18.2174 0.0381105 18.3089C0.000192974 18.4003 -0.00971013 18.501 0.00965666 18.5981C0.0290234 18.6952 0.0767879 18.7844 0.146895 18.8543L2.58689 21.2933C2.77442 21.4808 3.02873 21.5861 3.29389 21.5861C3.55906 21.5861 3.81337 21.4808 4.0009 21.2933L6.4409 18.8543C6.51094 18.7845 6.55868 18.6954 6.57808 18.5984C6.59748 18.5014 6.58766 18.4008 6.54987 18.3093C6.51208 18.2179 6.44801 18.1397 6.36577 18.0847C6.28354 18.0297 6.18683 18.0004 6.08789 18.0003H4.2949V6.00034H6.08789Z" fill="black"/>
</svg>
