<svg width="24" height="24" viewBox="0 0 24 24" fill="none" xmlns="http://www.w3.org/2000/svg">
<g clip-path="url(#clip0_403_2635)">
<path d="M23.7076 22.2927L22.6306 21.2157L20.9006 19.4887L23.6896 16.6997C23.8083 16.5808 23.8952 16.434 23.9421 16.2726C23.989 16.1113 23.9946 15.9407 23.9582 15.7767C23.9218 15.6127 23.8447 15.4605 23.734 15.3341C23.6232 15.2077 23.4824 15.1113 23.3246 15.0537L14.3556 11.7997C13.9983 11.6706 13.6117 11.6459 13.2409 11.7285C12.8701 11.8111 12.5305 11.9976 12.2618 12.2662C11.9932 12.5347 11.8066 12.8743 11.7238 13.245C11.6411 13.6158 11.6656 14.0024 11.7946 14.3597L15.0576 23.3287C15.1149 23.4867 15.2111 23.6277 15.3373 23.7387C15.4635 23.8497 15.6156 23.9271 15.7796 23.9637C15.8509 23.9793 15.9236 23.987 15.9966 23.9867C16.2618 23.9867 16.5161 23.8813 16.7036 23.6937L19.4896 20.8997L21.2166 22.6267L22.2936 23.7037C22.4822 23.8859 22.7348 23.9867 22.997 23.9844C23.2592 23.9821 23.51 23.877 23.6954 23.6916C23.8808 23.5062 23.986 23.2553 23.9883 22.9931C23.9906 22.731 23.8898 22.4784 23.7076 22.2897V22.2927ZM16.4006 21.1647L13.6766 13.6747L21.1666 16.3987L16.4006 21.1647Z" fill="black"/>
<path d="M10 20C8.02219 20 6.08879 19.4135 4.4443 18.3147C2.79981 17.2159 1.51809 15.6541 0.761209 13.8268C0.00433284 11.9996 -0.193701 9.98891 0.192152 8.0491C0.578004 6.10929 1.53041 4.32746 2.92894 2.92894C4.32746 1.53041 6.10929 0.578004 8.0491 0.192152C9.98891 -0.193701 11.9996 0.00433284 13.8268 0.761209C15.6541 1.51809 17.2159 2.79981 18.3147 4.4443C19.4135 6.08879 20 8.02219 20 10C20 10.2652 19.8946 10.5196 19.7071 10.7071C19.5196 10.8946 19.2652 11 19 11C18.7348 11 18.4804 10.8946 18.2929 10.7071C18.1054 10.5196 18 10.2652 18 10C18 8.41775 17.5308 6.87104 16.6518 5.55544C15.7727 4.23985 14.5233 3.21447 13.0615 2.60897C11.5997 2.00347 9.99113 1.84504 8.43928 2.15372C6.88743 2.4624 5.46197 3.22433 4.34315 4.34315C3.22433 5.46197 2.4624 6.88743 2.15372 8.43928C1.84504 9.99113 2.00347 11.5997 2.60897 13.0615C3.21447 14.5233 4.23985 15.7727 5.55544 16.6518C6.87104 17.5308 8.41775 18 10 18C10.2652 18 10.5196 18.1054 10.7071 18.2929C10.8946 18.4804 11 18.7348 11 19C11 19.2652 10.8946 19.5196 10.7071 19.7071C10.5196 19.8946 10.2652 20 10 20Z" fill="black"/>
<path d="M8.08355 15.62C7.95213 15.6201 7.82198 15.5942 7.70055 15.544C6.7894 15.1656 5.98563 14.5683 5.36043 13.8051C4.73523 13.0418 4.30788 12.1362 4.11624 11.1684C3.92459 10.2006 3.97456 9.20044 4.26173 8.25655C4.5489 7.31266 5.06439 6.45414 5.76256 5.75704C6.46073 5.05994 7.32003 4.54576 8.26436 4.26004C9.20869 3.97432 10.2089 3.92588 11.1764 4.119C12.144 4.31213 13.0489 4.74086 13.8112 5.36723C14.5735 5.9936 15.1695 6.79828 15.5465 7.71C15.5994 7.83181 15.6275 7.96292 15.6291 8.09569C15.6307 8.22846 15.6059 8.36023 15.5561 8.4833C15.5062 8.60638 15.4324 8.71829 15.3388 8.81253C15.2453 8.90676 15.1339 8.98142 15.0112 9.03215C14.8885 9.08287 14.7569 9.10866 14.6242 9.10799C14.4914 9.10733 14.3601 9.08023 14.2379 9.02827C14.1157 8.97632 14.0051 8.90055 13.9125 8.80538C13.8199 8.71022 13.7471 8.59757 13.6985 8.474C13.4466 7.86674 13.0489 7.33093 12.5405 6.914C12.0322 6.49708 11.4289 6.21187 10.7841 6.08364C10.1393 5.9554 9.47277 5.98809 8.84359 6.1788C8.2144 6.36951 7.64193 6.71237 7.17681 7.17703C6.7117 7.6417 6.3683 8.21385 6.17699 8.84285C5.98567 9.47185 5.95235 10.1383 6.07997 10.7833C6.20759 11.4282 6.49221 12.0317 6.90866 12.5405C7.3251 13.0492 7.86052 13.4475 8.46755 13.7C8.68147 13.7885 8.85805 13.9485 8.96716 14.1527C9.07626 14.3569 9.11113 14.5927 9.06582 14.8197C9.0205 15.0468 8.89781 15.251 8.71868 15.3977C8.53954 15.5444 8.31507 15.6244 8.08355 15.624V15.62Z" fill="black"/>
</g>
<defs>
<clipPath id="clip0_403_2635">
<rect width="24" height="24" fill="white"/>
</clipPath>
</defs>
</svg>
