<svg width="24" height="24" viewBox="0 0 24 24" fill="none" xmlns="http://www.w3.org/2000/svg">
<g clip-path="url(#clip0_403_2652)">
<path d="M7.50498 23.9995C5.69473 23.9984 3.94598 23.3425 2.58143 22.153C1.21688 20.9634 0.328614 19.3205 0.0805405 17.5273C-0.167533 15.7341 0.241329 13.9118 1.23168 12.3964C2.22203 10.8811 3.72703 9.77511 5.46898 9.28253C6.7351 8.91996 8.07527 8.90338 9.34998 9.23453L17.258 1.32853C17.6778 0.905814 18.1774 0.570665 18.7277 0.342527C19.2781 0.114388 19.8682 -0.00219808 20.464 -0.000469334C21.4015 0.000325098 22.3005 0.373122 22.9634 1.03608C23.6264 1.69903 23.9992 2.59797 24 3.53553C24.0015 4.13132 23.885 4.72151 23.657 5.27197C23.4291 5.82243 23.0943 6.32225 22.672 6.74253L22 7.41453C21.624 7.78797 21.1159 7.99816 20.586 7.99953H19V8.99953C19 9.52996 18.7893 10.0387 18.4142 10.4137C18.0391 10.7888 17.5304 10.9995 17 10.9995H16V12.5855C16.0007 12.8483 15.9493 13.1085 15.8487 13.3513C15.7481 13.594 15.6003 13.8143 15.414 13.9995L14.764 14.6495C15.0969 15.9236 15.0807 17.2639 14.717 18.5295C14.3077 19.9715 13.4773 21.2585 12.3321 22.2257C11.1869 23.1929 9.77913 23.7963 8.28898 23.9585C8.02852 23.9856 7.76684 23.9993 7.50498 23.9995ZM7.50498 10.9995C6.48113 10.9985 5.47732 11.2834 4.60656 11.8219C3.73581 12.3605 3.03266 13.1314 2.57628 14.0479C2.1199 14.9644 1.92841 15.9901 2.02335 17.0096C2.1183 18.029 2.49591 19.0017 3.1137 19.8182C3.73148 20.6346 4.5649 21.2625 5.52013 21.631C6.47537 21.9994 7.51451 22.094 8.52057 21.9039C9.52662 21.7139 10.4597 21.2468 11.2147 20.5552C11.9696 19.8637 12.5166 18.9751 12.794 17.9895C13.106 16.9061 13.071 15.7521 12.694 14.6895C12.6324 14.5121 12.6221 14.3209 12.6642 14.1378C12.7063 13.9548 12.7991 13.7873 12.932 13.6545L14 12.5855V10.9995C14 10.4691 14.2107 9.96039 14.5858 9.58532C14.9608 9.21025 15.4695 8.99953 16 8.99953H17V7.99953C17 7.4691 17.2107 6.96039 17.5858 6.58532C17.9608 6.21024 18.4695 5.99953 19 5.99953H20.586L21.258 5.32753C21.4939 5.09268 21.681 4.81339 21.8084 4.50581C21.9357 4.19822 22.0008 3.86844 22 3.53553C21.9997 3.12841 21.8379 2.73803 21.5502 2.45006C21.2624 2.16209 20.8721 2.00006 20.465 1.99953C20.1318 1.99871 19.8018 2.06396 19.4941 2.19149C19.1863 2.31902 18.9069 2.50632 18.672 2.74253L10.341 11.0725C10.208 11.2054 10.0403 11.2981 9.85707 11.34C9.67383 11.382 9.48248 11.3714 9.30498 11.3095C8.72505 11.1053 8.1148 11.0005 7.49998 10.9995H7.50498ZM4.99998 17.9995C4.99998 18.1973 5.05863 18.3907 5.16851 18.5551C5.27839 18.7196 5.43457 18.8477 5.61729 18.9234C5.80002 18.9991 6.00109 19.0189 6.19507 18.9803C6.38905 18.9417 6.56723 18.8465 6.70708 18.7066C6.84694 18.5668 6.94218 18.3886 6.98076 18.1946C7.01935 18.0006 6.99954 17.7996 6.92386 17.6168C6.84817 17.4341 6.72 17.2779 6.55555 17.1681C6.3911 17.0582 6.19776 16.9995 5.99998 16.9995C5.73476 16.9995 5.48041 17.1049 5.29287 17.2924C5.10533 17.48 4.99998 17.7343 4.99998 17.9995Z" fill="black"/>
</g>
<defs>
<clipPath id="clip0_403_2652">
<rect width="24" height="24" fill="white"/>
</clipPath>
</defs>
</svg>
