<svg width="24" height="24" viewBox="0 0 24 24" fill="none" xmlns="http://www.w3.org/2000/svg">
<path d="M19 5.99951H13V2.99951C13 2.7343 12.8946 2.47994 12.7071 2.2924C12.5196 2.10487 12.2652 1.99951 12 1.99951C11.7348 1.99951 11.4804 2.10487 11.2929 2.2924C11.1054 2.47994 11 2.7343 11 2.99951V5.99951H5C3.67441 6.0011 2.40356 6.52839 1.46622 7.46573C0.528882 8.40307 0.00158786 9.67392 0 10.9995L0 14.9995C0.00158786 16.3251 0.528882 17.596 1.46622 18.5333C2.40356 19.4706 3.67441 19.9979 5 19.9995H19C20.3256 19.9979 21.5964 19.4706 22.5338 18.5333C23.4711 17.596 23.9984 16.3251 24 14.9995V10.9995C23.9984 9.67392 23.4711 8.40307 22.5338 7.46573C21.5964 6.52839 20.3256 6.0011 19 5.99951ZM22 14.9995C22 15.7952 21.6839 16.5582 21.1213 17.1208C20.5587 17.6834 19.7956 17.9995 19 17.9995H5C4.20435 17.9995 3.44129 17.6834 2.87868 17.1208C2.31607 16.5582 2 15.7952 2 14.9995V10.9995C2 10.2039 2.31607 9.4408 2.87868 8.87819C3.44129 8.31558 4.20435 7.99951 5 7.99951H19C19.7956 7.99951 20.5587 8.31558 21.1213 8.87819C21.6839 9.4408 22 10.2039 22 10.9995V14.9995Z" fill="black"/>
<path d="M15 13.9995H9C8.73478 13.9995 8.48043 14.1049 8.29289 14.2924C8.10536 14.4799 8 14.7343 8 14.9995C8 15.2647 8.10536 15.5191 8.29289 15.7066C8.48043 15.8942 8.73478 15.9995 9 15.9995H15C15.2652 15.9995 15.5196 15.8942 15.7071 15.7066C15.8946 15.5191 16 15.2647 16 14.9995C16 14.7343 15.8946 14.4799 15.7071 14.2924C15.5196 14.1049 15.2652 13.9995 15 13.9995Z" fill="black"/>
<path d="M10 12.0005H11C11.2652 12.0005 11.5196 11.8951 11.7071 11.7076C11.8946 11.5201 12 11.2657 12 11.0005C12 10.7353 11.8946 10.4809 11.7071 10.2934C11.5196 10.1058 11.2652 10.0005 11 10.0005H10C9.73478 10.0005 9.48043 10.1058 9.29289 10.2934C9.10536 10.4809 9 10.7353 9 11.0005C9 11.2657 9.10536 11.5201 9.29289 11.7076C9.48043 11.8951 9.73478 12.0005 10 12.0005Z" fill="black"/>
<path d="M19 10.0005H15C14.7348 10.0005 14.4804 10.1058 14.2929 10.2934C14.1054 10.4809 14 10.7353 14 11.0005C14 11.2657 14.1054 11.5201 14.2929 11.7076C14.4804 11.8951 14.7348 12.0005 15 12.0005H19C19.2652 12.0005 19.5196 11.8951 19.7071 11.7076C19.8946 11.5201 20 11.2657 20 11.0005C20 10.7353 19.8946 10.4809 19.7071 10.2934C19.5196 10.1058 19.2652 10.0005 19 10.0005Z" fill="black"/>
<path d="M6 10.0005H5C4.73478 10.0005 4.48043 10.1058 4.29289 10.2934C4.10536 10.4809 4 10.7353 4 11.0005C4 11.2657 4.10536 11.5201 4.29289 11.7076C4.48043 11.8951 4.73478 12.0005 5 12.0005H6C6.26522 12.0005 6.51957 11.8951 6.70711 11.7076C6.89464 11.5201 7 11.2657 7 11.0005C7 10.7353 6.89464 10.4809 6.70711 10.2934C6.51957 10.1058 6.26522 10.0005 6 10.0005Z" fill="black"/>
<path d="M5 15.9995C5.55228 15.9995 6 15.5518 6 14.9995C6 14.4472 5.55228 13.9995 5 13.9995C4.44771 13.9995 4 14.4472 4 14.9995C4 15.5518 4.44771 15.9995 5 15.9995Z" fill="black"/>
<path d="M19 15.9995C19.5523 15.9995 20 15.5518 20 14.9995C20 14.4472 19.5523 13.9995 19 13.9995C18.4477 13.9995 18 14.4472 18 14.9995C18 15.5518 18.4477 15.9995 19 15.9995Z" fill="black"/>
</svg>
