<svg width="24" height="24" viewBox="0 0 24 24" fill="none" xmlns="http://www.w3.org/2000/svg">
<path d="M22.0006 15.184V8C21.999 6.67441 21.4718 5.40356 20.5344 4.46622C19.5971 3.52888 18.3262 3.00159 17.0006 3H7.00063C5.67504 3.00159 4.40419 3.52888 3.46685 4.46622C2.52951 5.40356 2.00222 6.67441 2.00063 8V15.184C1.33395 15.4188 0.771886 15.882 0.413992 16.4915C0.0560976 17.1011 -0.0745307 17.8176 0.0452433 18.5142C0.165017 19.2108 0.527464 19.8425 1.06839 20.2975C1.60931 20.7525 2.2938 21.0013 3.00063 21H21.0006C21.7075 21.0013 22.392 20.7525 22.9329 20.2975C23.4738 19.8425 23.8362 19.2108 23.956 18.5142C24.0758 17.8176 23.9452 17.1011 23.5873 16.4915C23.2294 15.882 22.6673 15.4188 22.0006 15.184ZM7.00063 5H17.0006C17.7963 5 18.5593 5.31607 19.122 5.87868C19.6846 6.44129 20.0006 7.20435 20.0006 8V15H15.8496C15.5588 14.9998 15.2714 15.0631 15.0075 15.1853C14.7436 15.3076 14.5095 15.486 14.3216 15.708L14.0746 16H9.92563L9.67963 15.708C9.49174 15.486 9.25768 15.3076 8.99378 15.1853C8.72988 15.0631 8.44248 14.9998 8.15163 15H4.00063V8C4.00063 7.20435 4.3167 6.44129 4.87931 5.87868C5.44192 5.31607 6.20498 5 7.00063 5ZM21.0006 19H3.00063C2.73541 19 2.48106 18.8946 2.29352 18.7071C2.10599 18.5196 2.00063 18.2652 2.00063 18C2.00063 17.7348 2.10599 17.4804 2.29352 17.2929C2.48106 17.1054 2.73541 17 3.00063 17H8.15263L8.39863 17.292C8.58641 17.5139 8.82031 17.6922 9.08403 17.8145C9.34774 17.9367 9.63494 18 9.92563 18H14.0746C14.3655 18.0002 14.6529 17.9369 14.9168 17.8147C15.1807 17.6924 15.4147 17.514 15.6026 17.292L15.8496 17H21.0006C21.2658 17 21.5202 17.1054 21.7077 17.2929C21.8953 17.4804 22.0006 17.7348 22.0006 18C22.0006 18.2652 21.8953 18.5196 21.7077 18.7071C21.5202 18.8946 21.2658 19 21.0006 19Z" fill="black"/>
</svg>
