<svg width="24" height="24" viewBox="0 0 24 24" fill="none" xmlns="http://www.w3.org/2000/svg">
<path d="M7.39994 5.55245C7.30767 5.39746 7.17671 5.2691 7.01991 5.17996C6.8631 5.09081 6.68581 5.04395 6.50544 5.04395C6.32506 5.04395 6.14778 5.09081 5.99097 5.17996C5.83416 5.2691 5.7032 5.39746 5.61094 5.55245L0.110937 16.5525C0.0510231 16.67 0.014979 16.7983 0.00488329 16.9299C-0.00521246 17.0615 0.0108398 17.1938 0.0521146 17.3192C0.0933894 17.4445 0.15907 17.5605 0.24537 17.6603C0.33167 17.7602 0.436882 17.842 0.55494 17.901C0.672997 17.9599 0.801565 17.995 0.933231 18.0041C1.0649 18.0131 1.19706 17.996 1.32209 17.9538C1.44712 17.9115 1.56255 17.845 1.66173 17.7579C1.7609 17.6708 1.84186 17.565 1.89994 17.4465L3.61894 13.9995H9.38294L11.1069 17.4465C11.165 17.565 11.246 17.6708 11.3451 17.7579C11.4443 17.845 11.5598 17.9115 11.6848 17.9538C11.8098 17.996 11.942 18.0131 12.0736 18.0041C12.2053 17.995 12.3339 17.9599 12.4519 17.901C12.57 17.842 12.6752 17.7602 12.7615 17.6603C12.8478 17.5605 12.9135 17.4445 12.9548 17.3192C12.996 17.1938 13.0121 17.0615 13.002 16.9299C12.9919 16.7983 12.9559 16.67 12.8959 16.5525L7.39994 5.55245ZM4.61894 11.9995L6.49994 8.23545L8.38294 11.9995H4.61894Z" fill="black"/>
<path d="M23 7.99951C22.7348 7.99951 22.4804 8.10487 22.2929 8.29241C22.1053 8.47994 22 8.7343 22 8.99951V9.02551C21.1396 8.36371 20.0855 8.00319 19 7.99951C17.6739 7.99951 16.4021 8.5263 15.4645 9.46398C14.5268 10.4017 14 11.6734 14 12.9995C14 14.3256 14.5268 15.5974 15.4645 16.535C16.4021 17.4727 17.6739 17.9995 19 17.9995C20.0855 17.9958 21.1396 17.6353 22 16.9735V16.9995C22 17.2647 22.1053 17.5191 22.2929 17.7066C22.4804 17.8942 22.7348 17.9995 23 17.9995C23.2652 17.9995 23.5195 17.8942 23.7071 17.7066C23.8946 17.5191 24 17.2647 24 16.9995V8.99951C24 8.7343 23.8946 8.47994 23.7071 8.29241C23.5195 8.10487 23.2652 7.99951 23 7.99951ZM19 15.9995C18.4066 15.9995 17.8266 15.8236 17.3333 15.4939C16.8399 15.1643 16.4554 14.6957 16.2284 14.1476C16.0013 13.5994 15.9419 12.9962 16.0576 12.4142C16.1734 11.8323 16.4591 11.2977 16.8787 10.8782C17.2982 10.4586 17.8328 10.1729 18.4147 10.0572C18.9967 9.9414 19.5999 10.0008 20.148 10.2279C20.6962 10.4549 21.1647 10.8395 21.4944 11.3328C21.824 11.8261 22 12.4062 22 12.9995C22 13.7952 21.6839 14.5582 21.1213 15.1208C20.5587 15.6834 19.7956 15.9995 19 15.9995Z" fill="black"/>
</svg>
