<svg width="24" height="24" viewBox="0 0 24 24" fill="none" xmlns="http://www.w3.org/2000/svg">
<g clip-path="url(#clip0_403_2687)">
<path d="M21.1549 19.7414C22.9915 17.5803 23.9999 14.8365 23.9999 12.0004C23.9999 9.16431 22.9915 6.42057 21.1549 4.25942L22.0149 3.39942C22.2024 3.21178 22.3077 2.95734 22.3076 2.69207C22.3075 2.4268 22.2021 2.17243 22.0144 1.98493C21.8268 1.79742 21.5724 1.69213 21.3071 1.69222C21.0418 1.69232 20.7874 1.79778 20.5999 1.98542L19.7399 2.84542C17.5788 1.00885 14.8351 0.000488281 11.9989 0.000488281C9.16282 0.000488281 6.41909 1.00885 4.25794 2.84542L3.39794 1.98542C3.20921 1.8034 2.95653 1.70278 2.69433 1.70524C2.43214 1.7077 2.1814 1.81305 1.99612 1.99859C1.81084 2.18413 1.70585 2.43502 1.70376 2.69722C1.70166 2.95942 1.80264 3.21195 1.98494 3.40042L2.84494 4.26043C1.00836 6.42157 0 9.16531 0 12.0014C0 14.8375 1.00836 17.5813 2.84494 19.7424L1.98494 20.6024C1.88949 20.6947 1.81339 20.8051 1.76107 20.9272C1.70875 21.0492 1.68126 21.1805 1.6802 21.3132C1.67914 21.446 1.70454 21.5777 1.7549 21.7005C1.80527 21.8234 1.8796 21.935 1.97356 22.0288C2.06752 22.1226 2.17922 22.1968 2.30215 22.247C2.42508 22.2972 2.55678 22.3224 2.68956 22.3212C2.82233 22.3199 2.95353 22.2922 3.0755 22.2397C3.19747 22.1873 3.30776 22.111 3.39994 22.0154L4.25994 21.1554C6.42109 22.992 9.16482 24.0004 12.0009 24.0004C14.8371 24.0004 17.5808 22.992 19.7419 21.1554L20.6019 22.0154C20.7907 22.1975 21.0433 22.2981 21.3055 22.2956C21.5677 22.2931 21.8185 22.1878 22.0038 22.0023C22.189 21.8167 22.294 21.5658 22.2961 21.3036C22.2982 21.0414 22.1972 20.7889 22.0149 20.6004L21.1549 19.7414ZM21.9999 12.0004C22.0018 14.3069 21.2022 16.5424 19.7379 18.3244L16.1669 14.7534C16.7101 13.938 16.9999 12.9802 16.9999 12.0004C16.9999 11.0207 16.7101 10.0628 16.1669 9.24743L19.7379 5.67642C21.2022 7.4585 22.0018 9.69395 21.9999 12.0004ZM8.99994 12.0004C8.99994 11.4071 9.17588 10.8271 9.50553 10.3337C9.83517 9.84037 10.3037 9.45585 10.8519 9.22879C11.4001 9.00172 12.0033 8.94231 12.5852 9.05807C13.1672 9.17383 13.7017 9.45955 14.1213 9.8791C14.5408 10.2987 14.8265 10.8332 14.9423 11.4152C15.058 11.9971 14.9986 12.6003 14.7716 13.1485C14.5445 13.6967 14.16 14.1652 13.6666 14.4948C13.1733 14.8245 12.5933 15.0004 11.9999 15.0004C11.2043 15.0004 10.4412 14.6844 9.87862 14.1217C9.31601 13.5591 8.99994 12.7961 8.99994 12.0004ZM11.9999 2.00042C14.3064 1.99859 16.5419 2.79817 18.3239 4.26242L14.7529 7.83343C13.9375 7.29029 12.9797 7.00048 11.9999 7.00048C11.0202 7.00048 10.0623 7.29029 9.24694 7.83343L5.67594 4.26242C7.45801 2.79817 9.69347 1.99859 11.9999 2.00042ZM1.99994 12.0004C1.9981 9.69395 2.79769 7.4585 4.26194 5.67642L7.83294 9.24743C7.2898 10.0628 6.99999 11.0207 6.99999 12.0004C6.99999 12.9802 7.2898 13.938 7.83294 14.7534L4.26194 18.3244C2.79769 16.5424 1.9981 14.3069 1.99994 12.0004ZM11.9999 22.0004C9.69347 22.0023 7.45801 21.2027 5.67594 19.7384L9.24694 16.1674C10.0623 16.7106 11.0202 17.0004 11.9999 17.0004C12.9797 17.0004 13.9375 16.7106 14.7529 16.1674L18.3239 19.7384C16.5419 21.2027 14.3064 22.0023 11.9999 22.0004Z" fill="black"/>
</g>
<defs>
<clipPath id="clip0_403_2687">
<rect width="24" height="24" fill="white"/>
</clipPath>
</defs>
</svg>
