<svg width="24" height="24" viewBox="0 0 24 24" fill="none" xmlns="http://www.w3.org/2000/svg">
<g clip-path="url(#clip0_403_2689)">
<path d="M21.5 24.0005H2.5C2.1717 24.0005 1.84661 23.9358 1.54329 23.8102C1.23998 23.6845 0.964379 23.5004 0.732233 23.2683C0.500087 23.0361 0.315938 22.7605 0.190301 22.4572C0.0646644 22.1539 0 21.8288 0 21.5005C0 20.8374 0.263392 20.2016 0.732233 19.7327C1.20107 19.2639 1.83696 19.0005 2.5 19.0005H21.5C21.8283 19.0005 22.1534 19.0652 22.4567 19.1908C22.76 19.3164 23.0356 19.5006 23.2678 19.7327C23.4999 19.9649 23.6841 20.2405 23.8097 20.5438C23.9353 20.8471 24 21.1722 24 21.5005C24 21.8288 23.9353 22.1539 23.8097 22.4572C23.6841 22.7605 23.4999 23.0361 23.2678 23.2683C23.0356 23.5004 22.76 23.6845 22.4567 23.8102C22.1534 23.9358 21.8283 24.0005 21.5 24.0005ZM24 14.0005C24 13.4701 23.7893 12.9613 23.4142 12.5863C23.0391 12.2112 22.5304 12.0005 22 12.0005H2C1.46957 12.0005 0.960859 12.2112 0.585786 12.5863C0.210714 12.9613 0 13.4701 0 14.0005C0 14.5309 0.210714 15.0396 0.585786 15.4147C0.960859 15.7898 1.46957 16.0005 2 16.0005H22C22.5304 16.0005 23.0391 15.7898 23.4142 15.4147C23.7893 15.0396 24 14.5309 24 14.0005ZM24 7.50049C24 7.10266 23.842 6.72113 23.5607 6.43983C23.2794 6.15852 22.8978 6.00049 22.5 6.00049H1.5C1.10218 6.00049 0.720644 6.15852 0.43934 6.43983C0.158035 6.72113 0 7.10266 0 7.50049C0 7.89831 0.158035 8.27984 0.43934 8.56115C0.720644 8.84245 1.10218 9.00049 1.5 9.00049H22.5C22.8978 9.00049 23.2794 8.84245 23.5607 8.56115C23.842 8.27984 24 7.89831 24 7.50049ZM24 2.00049C24 1.73527 23.8946 1.48092 23.7071 1.29338C23.5196 1.10585 23.2652 1.00049 23 1.00049H1C0.734784 1.00049 0.48043 1.10585 0.292893 1.29338C0.105357 1.48092 0 1.73527 0 2.00049C0 2.2657 0.105357 2.52006 0.292893 2.7076C0.48043 2.89513 0.734784 3.00049 1 3.00049H23C23.2652 3.00049 23.5196 2.89513 23.7071 2.7076C23.8946 2.52006 24 2.2657 24 2.00049Z" fill="black"/>
</g>
<defs>
<clipPath id="clip0_403_2689">
<rect width="24" height="24" fill="white"/>
</clipPath>
</defs>
</svg>
