<svg width="24" height="24" viewBox="0 0 24 24" fill="none" xmlns="http://www.w3.org/2000/svg">
<g clip-path="url(#clip0_403_2691)">
<path d="M13.8443 17.2669L10.5823 20.5289C9.63521 21.4507 8.3633 21.9625 7.04174 21.9537C5.72018 21.9448 4.45524 21.416 3.5206 20.4816C2.58596 19.5472 2.05678 18.2825 2.04755 16.9609C2.03833 15.6393 2.54979 14.3673 3.47129 13.4199L6.73329 10.155C6.9208 9.96731 7.02608 9.71287 7.02599 9.4476C7.0259 9.18233 6.92043 8.92796 6.73279 8.74046C6.54515 8.55295 6.29071 8.44766 6.02544 8.44775C5.76017 8.44785 5.5058 8.55332 5.31829 8.74096L2.05729 12.0059C0.73956 13.3243 -0.000468632 15.1122 2.22651e-07 16.9762C0.000469078 18.8402 0.741397 20.6277 2.05979 21.9454C3.37818 23.2632 5.16604 24.0032 7.03006 24.0027C8.89407 24.0022 10.6816 23.2613 11.9993 21.9429L15.2613 18.6809C15.4434 18.4923 15.5442 18.2397 15.542 17.9775C15.5397 17.7153 15.4345 17.4645 15.2491 17.2791C15.0637 17.0937 14.8129 16.9885 14.5507 16.9863C14.2885 16.984 14.0359 17.0848 13.8473 17.2669H13.8443Z" fill="black"/>
<path d="M21.9445 2.06151C21.2938 1.40633 20.5195 0.886792 19.6665 0.533009C18.8136 0.179226 17.8989 -0.00176817 16.9755 0.000512922C16.0525 -0.00193881 15.1383 0.178591 14.2855 0.531664C13.4328 0.884738 12.6585 1.40335 12.0075 2.05751L8.74047 5.32051C8.55283 5.50802 8.44736 5.76239 8.44727 6.02766C8.44717 6.29293 8.55246 6.54737 8.73997 6.73501C8.92748 6.92265 9.18184 7.02812 9.44712 7.02822C9.71239 7.02831 9.96683 6.92302 10.1545 6.73551L13.4195 3.47351C13.885 3.00516 14.4389 2.63382 15.0489 2.38097C15.659 2.12813 16.3131 1.99881 16.9735 2.00051C17.9677 2.00084 18.9396 2.29594 19.7662 2.84851C20.5927 3.40108 21.2369 4.18631 21.6173 5.10493C21.9977 6.02356 22.0972 7.03433 21.9032 8.00949C21.7092 8.98465 21.2305 9.8804 20.5275 10.5835L17.2655 13.8455C17.0778 14.0332 16.9724 14.2877 16.9724 14.553C16.9724 14.8184 17.0778 15.0729 17.2655 15.2605C17.4531 15.4482 17.7076 15.5536 17.973 15.5536C18.2383 15.5536 18.4928 15.4482 18.6805 15.2605L21.9425 12.0005C23.2585 10.6816 23.9978 8.89462 23.9982 7.03143C23.9985 5.16824 23.26 3.38095 21.9445 2.06151Z" fill="black"/>
<path d="M14.2936 8.29341L8.29357 14.2934C8.19806 14.3856 8.12188 14.496 8.06947 14.618C8.01706 14.74 7.98947 14.8712 7.98832 15.004C7.98717 15.1368 8.01247 15.2685 8.06275 15.3913C8.11303 15.5142 8.18728 15.6259 8.28117 15.7198C8.37507 15.8137 8.48672 15.8879 8.60962 15.9382C8.73251 15.9885 8.86419 16.0138 8.99697 16.0126C9.12975 16.0115 9.26097 15.9839 9.38297 15.9315C9.50498 15.8791 9.61532 15.8029 9.70757 15.7074L15.7076 9.7074C15.8897 9.5188 15.9905 9.2662 15.9882 9.004C15.986 8.74181 15.8808 8.491 15.6954 8.30559C15.51 8.12018 15.2592 8.01501 14.997 8.01273C14.7348 8.01045 14.4822 8.11125 14.2936 8.29341Z" fill="black"/>
</g>
<defs>
<clipPath id="clip0_403_2691">
<rect width="24" height="24" fill="white"/>
</clipPath>
</defs>
</svg>
