<svg width="24" height="24" viewBox="0 0 24 24" fill="none" xmlns="http://www.w3.org/2000/svg">
<g clip-path="url(#clip0_403_2695)">
<path d="M17 13.1843V10.0003C17 9.73504 16.8946 9.48069 16.7071 9.29315C16.5196 9.10561 16.2652 9.00026 16 9.00026V2.41426C16.0001 2.00296 15.8949 1.59849 15.6946 1.23927C15.4943 0.880051 15.2055 0.578019 14.8556 0.361875C14.5056 0.145731 14.1063 0.0226561 13.6954 0.00434507C13.2845 -0.013966 12.8758 0.0730954 12.508 0.257256L9.886 1.56726C9.3182 1.84963 8.84069 2.28517 8.50741 2.82467C8.17414 3.36417 7.99838 3.98612 8 4.62026V9.00026C7.73478 9.00026 7.48043 9.10561 7.29289 9.29315C7.10536 9.48069 7 9.73504 7 10.0003V13.1843C6.41709 13.3903 5.91209 13.7715 5.55409 14.2756C5.19608 14.7796 5.00256 15.382 5 16.0003V19.0003C5.00159 20.3259 5.52888 21.5967 6.46622 22.534C7.40356 23.4714 8.67441 23.9987 10 24.0003H14C15.3256 23.9987 16.5964 23.4714 17.5338 22.534C18.4711 21.5967 18.9984 20.3259 19 19.0003V16.0003C18.9974 15.382 18.8039 14.7796 18.4459 14.2756C18.0879 13.7715 17.5829 13.3903 17 13.1843ZM9 13.0003V11.0003H15V13.0003H9ZM10 4.62026C9.99927 4.35768 10.072 4.10014 10.21 3.87676C10.3481 3.65338 10.5458 3.47308 10.781 3.35626L13.4 2.04626C13.4629 2.01369 13.5331 1.99793 13.6039 2.00048C13.6746 2.00304 13.7435 2.02384 13.8039 2.06086C13.8643 2.09789 13.914 2.14987 13.9484 2.21179C13.9827 2.27371 14.0005 2.34345 14 2.41426V9.00026H10V4.62026ZM17 19.0003C17 19.7959 16.6839 20.559 16.1213 21.1216C15.5587 21.6842 14.7956 22.0003 14 22.0003H10C9.20435 22.0003 8.44129 21.6842 7.87868 21.1216C7.31607 20.559 7 19.7959 7 19.0003V16.0003C7 15.735 7.10536 15.4807 7.29289 15.2931C7.48043 15.1056 7.73478 15.0003 8 15.0003H16C16.2652 15.0003 16.5196 15.1056 16.7071 15.2931C16.8946 15.4807 17 15.735 17 16.0003V19.0003Z" fill="black"/>
</g>
<defs>
<clipPath id="clip0_403_2695">
<rect width="24" height="24" fill="white"/>
</clipPath>
</defs>
</svg>
