<svg width="24" height="24" viewBox="0 0 24 24" fill="none" xmlns="http://www.w3.org/2000/svg">
<g clip-path="url(#clip0_403_2706)">
<path d="M12.0001 16.0003C12.4657 16.0012 12.9251 15.8937 13.3421 15.6863L15.3421 14.6863C16.3615 14.1801 17.0045 13.1384 17.0001 12.0003V9.03332C17.0036 7.89618 16.3607 6.85583 15.3421 6.35033L13.3421 5.35035C12.497 4.93035 11.5041 4.93035 10.6591 5.35035L8.65905 6.35033C7.64008 6.85555 6.99672 7.89599 7.00005 9.03332V12.0003C6.9964 13.1377 7.63929 14.1785 8.65807 14.6843L10.6581 15.6843C11.0748 15.8924 11.5343 16.0006 12.0001 16.0003ZM9.00007 12.0003V9.03332C9.00166 8.93132 9.01886 8.83011 9.05107 8.73332L11.2311 9.8233C11.7152 10.0653 12.285 10.0653 12.7691 9.8233L14.9491 8.73332C14.9813 8.83011 14.9985 8.93132 15.0001 9.03332V12.0003C15.0017 12.3797 14.7872 12.727 14.4471 12.8953L12.4471 13.8953C12.1651 14.0348 11.8341 14.0348 11.5521 13.8953L9.55211 12.8953C9.21241 12.7267 8.99829 12.3795 9.00007 12.0003ZM19.0001 22.0003H16.2911L19.778 18.7783C24.0739 14.4826 24.074 7.5178 19.7783 3.22194C15.4826 -1.07392 8.51782 -1.07396 4.22196 3.22171C-0.0739003 7.51738 -0.0739944 14.4823 4.22172 18.7781C4.23115 18.7875 7.70908 22.0003 7.70908 22.0003H5.00008C4.4478 22.0003 4.0001 22.448 4.0001 23.0003C4.0001 23.5526 4.4478 24.0003 5.00008 24.0003H19.0001C19.5524 24.0003 20.0001 23.5526 20.0001 23.0003C20.0001 22.448 19.5523 22.0003 19.0001 22.0003ZM5.63608 4.6363C9.14308 1.11355 14.8418 1.1008 18.3646 4.6078C21.8873 8.1148 21.9001 13.8135 18.3931 17.3363L14.4081 21.0173C13.048 22.2993 10.9222 22.2918 9.5711 21.0003L5.63608 17.3643C2.12679 13.8473 2.12683 8.15333 5.63608 4.6363Z" fill="black"/>
</g>
<defs>
<clipPath id="clip0_403_2706">
<rect width="24" height="24" fill="white"/>
</clipPath>
</defs>
</svg>
