<svg width="24" height="24" viewBox="0 0 24 24" fill="none" xmlns="http://www.w3.org/2000/svg">
<g clip-path="url(#clip0_403_2715)">
<path d="M18.0014 9.06371C18.0015 8.66147 17.922 8.26318 17.7676 7.89178C17.6131 7.52038 17.3867 7.18321 17.1014 6.89971C16.5175 6.34256 15.7414 6.0317 14.9344 6.0317C14.1273 6.0317 13.3512 6.34256 12.7674 6.89971L0.901352 18.7687C0.35977 19.3494 0.0647931 20.1177 0.0785879 20.9117C0.0923827 21.7056 0.413872 22.4632 0.9753 23.0248C1.53673 23.5863 2.29424 23.908 3.08819 23.922C3.88214 23.936 4.6505 23.6412 5.23135 23.0997L17.1014 11.2307C17.3871 10.9469 17.6138 10.6093 17.7683 10.2373C17.9228 9.86536 18.002 9.46647 18.0014 9.06371ZM3.81735 21.6877C3.6152 21.8804 3.34663 21.9879 3.06735 21.9879C2.78807 21.9879 2.51951 21.8804 2.31735 21.6877C2.11877 21.4886 2.00725 21.2189 2.00725 20.9377C2.00725 20.6565 2.11877 20.3868 2.31735 20.1877L10.0864 12.4177L11.5914 13.9227L3.81735 21.6877ZM15.6894 9.81571L13.0014 12.5047L11.5014 10.9997L14.1904 8.31171C14.2862 8.2022 14.4035 8.11355 14.535 8.05123C14.6666 7.98892 14.8095 7.95428 14.9549 7.94945C15.1004 7.94462 15.2453 7.96971 15.3806 8.02316C15.516 8.07662 15.6389 8.1573 15.7419 8.26021C15.8448 8.36312 15.9254 8.48606 15.9789 8.62142C16.0323 8.75678 16.0574 8.90167 16.0526 9.04713C16.0478 9.19258 16.0131 9.33549 15.9508 9.46701C15.8885 9.59853 15.7999 9.71585 15.6904 9.81171L15.6894 9.81571ZM4.86435 2.85471L6.41435 2.41271L6.85635 0.862707C6.92756 0.613991 7.07781 0.395224 7.28439 0.239487C7.49097 0.0837495 7.74264 -0.000488281 8.00135 -0.000488281C8.26006 -0.000488281 8.51173 0.0837495 8.71831 0.239487C8.92489 0.395224 9.07515 0.613991 9.14635 0.862707L9.58835 2.41271L11.1384 2.85471C11.3871 2.92591 11.6058 3.07617 11.7616 3.28275C11.9173 3.48933 12.0015 3.741 12.0015 3.99971C12.0015 4.25841 11.9173 4.51009 11.7616 4.71667C11.6058 4.92325 11.3871 5.0735 11.1384 5.14471L9.58835 5.58671L9.14635 7.13671C9.07515 7.38542 8.92489 7.60419 8.71831 7.75993C8.51173 7.91566 8.26006 7.9999 8.00135 7.9999C7.74264 7.9999 7.49097 7.91566 7.28439 7.75993C7.07781 7.60419 6.92756 7.38542 6.85635 7.13671L6.41435 5.58671L4.86435 5.14471C4.61564 5.0735 4.39687 4.92325 4.24113 4.71667C4.08539 4.51009 4.00116 4.25841 4.00116 3.99971C4.00116 3.741 4.08539 3.48933 4.24113 3.28275C4.39687 3.07617 4.61564 2.92591 4.86435 2.85471ZM23.1384 17.1447L21.5884 17.5867L21.1464 19.1367C21.0751 19.3854 20.9249 19.6042 20.7183 19.7599C20.5117 19.9157 20.2601 19.9999 20.0014 19.9999C19.7426 19.9999 19.491 19.9157 19.2844 19.7599C19.0778 19.6042 18.9276 19.3854 18.8564 19.1367L18.4144 17.5867L16.8644 17.1447C16.6156 17.0735 16.3969 16.9232 16.2411 16.7167C16.0854 16.5101 16.0012 16.2584 16.0012 15.9997C16.0012 15.741 16.0854 15.4893 16.2411 15.2827C16.3969 15.0762 16.6156 14.9259 16.8644 14.8547L18.4144 14.4127L18.8564 12.8627C18.9276 12.614 19.0778 12.3952 19.2844 12.2395C19.491 12.0838 19.7426 11.9995 20.0014 11.9995C20.2601 11.9995 20.5117 12.0838 20.7183 12.2395C20.9249 12.3952 21.0751 12.614 21.1464 12.8627L21.5884 14.4127L23.1384 14.8547C23.3871 14.9259 23.6058 15.0762 23.7616 15.2827C23.9173 15.4893 24.0015 15.741 24.0015 15.9997C24.0015 16.2584 23.9173 16.5101 23.7616 16.7167C23.6058 16.9232 23.3871 17.0735 23.1384 17.1447ZM17.7564 2.49971L19.1124 2.11271L19.5014 0.754707C19.5647 0.538524 19.6963 0.348679 19.8766 0.21362C20.0569 0.0785608 20.2761 0.00556181 20.5014 0.00556181C20.7266 0.00556181 20.9458 0.0785608 21.1261 0.21362C21.3064 0.348679 21.438 0.538524 21.5014 0.754707L21.8884 2.11071L23.2444 2.49771C23.4605 2.56102 23.6504 2.69268 23.7854 2.87296C23.9205 3.05325 23.9935 3.27244 23.9935 3.49771C23.9935 3.72297 23.9205 3.94217 23.7854 4.12245C23.6504 4.30273 23.4605 4.4344 23.2444 4.49771L21.8884 4.88471L21.5014 6.24371C21.438 6.45989 21.3064 6.64973 21.1261 6.78479C20.9458 6.91985 20.7266 6.99285 20.5014 6.99285C20.2761 6.99285 20.0569 6.91985 19.8766 6.78479C19.6963 6.64973 19.5647 6.45989 19.5014 6.24371L19.1144 4.88871L17.7564 4.49971C17.5402 4.4364 17.3503 4.30473 17.2153 4.12445C17.0802 3.94417 17.0072 3.72497 17.0072 3.49971C17.0072 3.27444 17.0802 3.05525 17.2153 2.87496C17.3503 2.69468 17.5402 2.56302 17.7564 2.49971Z" fill="black"/>
</g>
<defs>
<clipPath id="clip0_403_2715">
<rect width="24" height="24" fill="white"/>
</clipPath>
</defs>
</svg>
