<svg width="24" height="24" viewBox="0 0 24 24" fill="none" xmlns="http://www.w3.org/2000/svg">
<g clip-path="url(#clip0_403_2719)">
<path d="M14.5001 13.0005C14.2034 13.0005 13.9134 12.9125 13.6668 12.7477C13.4201 12.5829 13.2278 12.3486 13.1143 12.0745C13.0008 11.8005 12.971 11.4988 13.0289 11.2079C13.0868 10.9169 13.2297 10.6496 13.4394 10.4399C13.6492 10.2301 13.9165 10.0872 14.2075 10.0293C14.4984 9.97146 14.8 10.0012 15.0741 10.1147C15.3482 10.2282 15.5825 10.4205 15.7473 10.6672C15.9121 10.9138 16.0001 11.2038 16.0001 11.5005C16.0001 11.8983 15.8421 12.2799 15.5608 12.5612C15.2795 12.8425 14.8979 13.0005 14.5001 13.0005ZM21.8511 8.27451C21.4496 5.95461 20.2405 3.85149 18.4377 2.33726C16.6348 0.823031 14.3545 -0.00470306 12.0001 0.000512782C5.1001 0.000512782 3.1241 4.67451 1.8191 7.76751C1.55449 8.64266 1.10464 9.45062 0.500104 10.1365C0.319513 10.2418 0.176474 10.4011 0.091097 10.5919C0.0057198 10.7828 -0.0177015 10.9956 0.0241261 11.2004C0.0659537 11.4052 0.170926 11.5918 0.324286 11.7339C0.477645 11.876 0.671678 11.9664 0.879104 11.9925C3.35091 12.2004 5.83693 11.8235 8.1361 10.8925C8.00925 11.1736 7.97214 11.487 8.02982 11.79C8.0875 12.093 8.23717 12.3708 8.45845 12.5857C8.67973 12.8005 8.96186 12.9419 9.2664 12.9906C9.57095 13.0394 9.88311 12.993 10.1604 12.8579C10.4376 12.7228 10.6665 12.5056 10.8158 12.2357C10.9651 11.9658 11.0277 11.6565 10.9948 11.3498C10.962 11.0432 10.8355 10.7541 10.6324 10.5219C10.4294 10.2898 10.1597 10.1259 9.8601 10.0525C11.8247 8.95196 13.5181 7.42565 14.8161 5.58551C14.8985 5.47912 14.9585 5.35721 14.9927 5.22706C15.0268 5.09691 15.0343 4.96122 15.0148 4.82809C14.9953 4.69497 14.9491 4.56716 14.879 4.45231C14.8089 4.33747 14.7163 4.23795 14.6068 4.15972C14.4974 4.08149 14.3732 4.02616 14.2419 3.99703C14.1105 3.9679 13.9746 3.96559 13.8423 3.99022C13.7101 4.01485 13.5841 4.06592 13.4721 4.14037C13.36 4.21482 13.2641 4.31112 13.1901 4.42351C12.0239 6.06536 10.5016 7.42226 8.73701 8.39271C6.9724 9.36316 5.01119 9.92203 3.0001 10.0275C3.2271 9.57451 3.4381 9.07151 3.6621 8.54451C4.8921 5.62851 6.4231 2.00051 12.0001 2.00051C13.9759 1.99579 15.8832 2.72442 17.3526 4.0453C18.8221 5.36619 19.749 7.18535 19.9541 9.15051C19.977 9.36538 20.0689 9.56704 20.216 9.72532C20.3631 9.8836 20.5575 9.98997 20.7701 10.0285C21.1344 10.0998 21.4594 10.3036 21.6822 10.6006C21.9049 10.8976 22.0096 11.2666 21.976 11.6363C21.9424 12.0061 21.7729 12.3502 21.5003 12.6022C21.2277 12.8541 20.8713 12.9961 20.5001 13.0005C20.4155 12.9982 20.3313 12.9891 20.2481 12.9735C20.0149 12.931 19.7741 12.9732 19.5693 13.0926C19.3645 13.212 19.2091 13.4006 19.1311 13.6245C18.2151 16.2215 15.1321 19.0005 12.0001 19.0005C9.10011 19.0005 6.4001 16.7175 5.2341 14.4615C5.11211 14.226 4.90155 14.0486 4.64875 13.9683C4.39595 13.8881 4.12162 13.9115 3.8861 14.0335C3.65059 14.1555 3.47319 14.3661 3.39292 14.6189C3.31266 14.8717 3.3361 15.146 3.4581 15.3815C4.49452 17.3153 6.07314 18.9044 8.0001 19.9535V23.0005C8.0001 23.2657 8.10546 23.5201 8.293 23.7076C8.48053 23.8952 8.73489 24.0005 9.0001 24.0005C9.26532 24.0005 9.51968 23.8952 9.70721 23.7076C9.89475 23.5201 10.0001 23.2657 10.0001 23.0005V20.7385C11.3102 21.0905 12.69 21.0905 14.0001 20.7385V23.0005C14.0001 23.2657 14.1055 23.5201 14.293 23.7076C14.4805 23.8952 14.7349 24.0005 15.0001 24.0005C15.2653 24.0005 15.5197 23.8952 15.7072 23.7076C15.8947 23.5201 16.0001 23.2657 16.0001 23.0005V19.9545C18.0642 18.8448 19.7216 17.1069 20.7321 14.9925C21.5179 14.9389 22.2627 14.6218 22.8459 14.0925C23.4292 13.5632 23.8169 12.8526 23.9463 12.0757C24.0757 11.2988 23.9393 10.5009 23.5591 9.81112C23.1789 9.12133 22.5771 8.57995 21.8511 8.27451Z" fill="black"/>
</g>
<defs>
<clipPath id="clip0_403_2719">
<rect width="24" height="24" fill="white"/>
</clipPath>
</defs>
</svg>
