<svg width="24" height="24" viewBox="0 0 24 24" fill="none" xmlns="http://www.w3.org/2000/svg">
<g clip-path="url(#clip0_403_2729)">
<path d="M11.9981 12C12.7892 12 13.5626 11.7654 14.2204 11.3259C14.8782 10.8864 15.3909 10.2616 15.6936 9.53073C15.9964 8.79983 16.0756 7.99556 15.9212 7.21964C15.7669 6.44371 15.3859 5.73098 14.8265 5.17157C14.2671 4.61216 13.5544 4.2312 12.7785 4.07686C12.0025 3.92252 11.1983 4.00173 10.4674 4.30448C9.73646 4.60723 9.11175 5.11992 8.67222 5.77772C8.2327 6.43552 7.9981 7.20887 7.9981 8C7.9981 9.06087 8.41953 10.0783 9.16968 10.8284C9.91982 11.5786 10.9372 12 11.9981 12ZM11.9981 6C12.3937 6 12.7803 6.1173 13.1092 6.33706C13.4381 6.55682 13.6945 6.86918 13.8459 7.23463C13.9972 7.60009 14.0368 8.00222 13.9597 8.39018C13.8825 8.77814 13.692 9.13451 13.4123 9.41421C13.1326 9.69392 12.7762 9.8844 12.3883 9.96157C12.0003 10.0387 11.5982 9.99913 11.2327 9.84776C10.8673 9.69638 10.5549 9.44004 10.3352 9.11114C10.1154 8.78224 9.9981 8.39556 9.9981 8C9.9981 7.46957 10.2088 6.96086 10.5839 6.58579C10.959 6.21071 11.4677 6 11.9981 6ZM20.6581 9.157L19.9391 8.918C20.0685 7.79792 19.9596 6.66315 19.6197 5.58809C19.2798 4.51302 18.7164 3.52196 17.9666 2.67989C17.2168 1.83782 16.2974 1.16376 15.2688 0.701913C14.2402 0.240067 13.1256 0.000867481 11.9981 0C10.8559 0.000440969 9.72698 0.245694 8.68752 0.719235C7.64806 1.19278 6.72217 1.8836 5.97223 2.74518C5.22228 3.60675 4.66571 4.61905 4.34001 5.71387C4.01431 6.80869 3.92705 7.96061 4.0841 9.092C3.12714 9.27043 2.24223 9.72192 1.5361 10.392C1.04728 10.8567 0.658672 11.4166 0.394181 12.037C0.12969 12.6575 -0.0050985 13.3255 -0.00189742 14V18.075C0.000204178 19.1563 0.351895 20.208 1.00069 21.0731C1.64949 21.9381 2.56062 22.5702 3.5981 22.875L6.4681 23.775C6.95017 23.925 7.45224 24.0009 7.9571 24C8.41509 23.9994 8.8709 23.9368 9.3121 23.814L15.0921 22.104C15.607 21.9635 16.1502 21.9635 16.6651 22.104L19.0521 22.904C19.6404 23.0472 20.2535 23.055 20.8453 22.9267C21.437 22.7985 21.9919 22.5376 22.4682 22.1637C22.9444 21.7898 23.3295 21.3127 23.5946 20.7683C23.8596 20.2239 23.9976 19.6265 23.9981 19.021V13.872C23.9958 12.8374 23.6736 11.8288 23.0757 10.9845C22.4777 10.1402 21.6333 9.50155 20.6581 9.156V9.157ZM7.7561 3.762C8.31236 3.20349 8.97343 2.76032 9.70139 2.45793C10.4293 2.15554 11.2098 1.99988 11.9981 1.99988C12.7864 1.99988 13.5669 2.15554 14.2948 2.45793C15.0228 2.76032 15.6838 3.20349 16.2401 3.762C17.3623 4.89114 17.993 6.41782 17.9951 8.00974C17.9971 9.60166 17.3703 11.13 16.2511 12.262L12.6981 15.717C12.5127 15.8988 12.2633 16.0007 12.0036 16.0007C11.7439 16.0007 11.4945 15.8988 11.3091 15.717L7.7561 12.277C6.63157 11.1454 6.00041 9.61484 6.00041 8.0195C6.00041 6.42416 6.63157 4.89361 7.7561 3.762ZM21.9981 19.021C21.9987 19.3239 21.9302 19.6229 21.7978 19.8953C21.6654 20.1677 21.4726 20.4063 21.2341 20.593C21.0087 20.7742 20.7462 20.9035 20.4652 20.9718C20.1841 21.0401 19.8915 21.0456 19.6081 20.988L17.2631 20.2C16.3761 19.9452 15.436 19.9396 14.5461 20.184L8.7621 21.892C8.20638 22.0453 7.61826 22.0352 7.0681 21.863L4.1741 20.963C3.54776 20.7819 2.99706 20.4025 2.6047 19.8817C2.21234 19.361 1.99949 18.727 1.9981 18.075V14C1.99586 13.5958 2.07631 13.1954 2.23453 12.8234C2.39274 12.4514 2.62537 12.1157 2.9181 11.837C3.37636 11.4003 3.96012 11.1184 4.5871 11.031C4.99021 12.0302 5.59048 12.9379 6.3521 13.7L9.9191 17.153C10.4766 17.6989 11.2258 18.0046 12.0061 18.0046C12.7864 18.0046 13.5356 17.6989 14.0931 17.153L17.6561 13.69C18.4539 12.889 19.0719 11.9274 19.4691 10.869L20.0061 11.047C20.5885 11.2557 21.0923 11.639 21.4488 12.1445C21.8053 12.6501 21.9971 13.2534 21.9981 13.872V19.021Z" fill="black"/>
</g>
<defs>
<clipPath id="clip0_403_2729">
<rect width="24" height="24" fill="white"/>
</clipPath>
</defs>
</svg>
