<svg width="24" height="24" viewBox="0 0 24 24" fill="none" xmlns="http://www.w3.org/2000/svg">
<path d="M8.33792 13.3222L10.6243 11.0359L8.33792 8.7495C7.94183 8.36695 7.93081 7.73569 8.31341 7.33959C8.69596 6.9435 9.32722 6.93248 9.72331 7.31508C9.73161 7.32309 9.73982 7.3313 9.74783 7.33959L12.0342 9.62597L14.3206 7.33959C14.7032 6.9435 15.3344 6.93253 15.7305 7.31512C16.1266 7.69772 16.1376 8.32894 15.755 8.72503C15.7469 8.73333 15.7388 8.74148 15.7305 8.7495L13.4441 11.0359L15.7305 13.3222C16.1266 13.7048 16.1376 14.3361 15.755 14.7322C15.3724 15.1282 14.7411 15.1392 14.345 14.7566C14.3368 14.7486 14.3286 14.7405 14.3206 14.7322L12.0342 12.4458L9.74783 14.7322C9.35174 15.1147 8.72052 15.1038 8.33792 14.7077C7.96471 14.3213 7.96471 13.7087 8.33792 13.3222ZM4.30663 18.8183C-0.0280446 14.587 -0.111857 7.64283 4.1195 3.30811C8.35086 -1.02661 15.295 -1.11037 19.6297 3.12098C19.6835 3.17358 19.7369 3.22673 19.7897 3.28041C24.0728 7.5637 24.0728 14.5081 19.7897 18.7914L15.8092 22.4697C13.6971 24.5153 10.3401 24.507 8.23822 22.4508L4.30663 18.8183ZM3.06027 11.0359C3.05375 13.4173 4.00021 15.7022 5.68864 17.3815L9.61227 21.0069C10.9593 22.2943 13.0782 22.3026 14.4353 21.0259L18.4078 17.3545C21.9049 13.8422 21.8926 8.16 18.3803 4.66289C14.868 1.16578 9.1858 1.17802 5.68869 4.69031C4.00016 6.36956 3.05375 8.65458 3.06027 11.0359Z" fill="black"/>
</svg>
