<svg width="24" height="24" viewBox="0 0 24 24" fill="none" xmlns="http://www.w3.org/2000/svg">
<g clip-path="url(#clip0_403_2725)">
<path d="M8.17454 22.4537C10.2785 24.5119 13.6388 24.5203 15.753 22.4727L19.7374 18.7907C24.0536 14.532 24.1001 7.58067 19.8414 3.26446C15.5828 -1.05174 8.63138 -1.09833 4.31518 3.1604C4.28026 3.19485 4.24557 3.22954 4.21112 3.26446C-0.0760721 7.55235 -0.0755095 14.5039 4.21238 18.7911C4.22129 18.8 4.23015 18.8088 4.2391 18.8176L8.17454 22.4537ZM5.62243 4.67573C9.12272 1.15973 14.8106 1.14698 18.3266 4.64728C21.8426 8.14757 21.8553 13.8354 18.355 17.3514L14.3776 21.0264C13.0194 22.3046 10.8985 22.2967 9.5499 21.0084L5.62243 17.3794C2.1144 13.8714 2.1144 8.18381 5.62233 4.67578C5.62238 4.67578 5.62238 4.67578 5.62243 4.67573ZM6.98382 11.0276C6.98382 10.4763 7.43068 10.0295 7.98193 10.0295H15.9666C16.5179 10.0295 16.9647 10.4763 16.9647 11.0276C16.9647 11.5788 16.5179 12.0257 15.9666 12.0257H7.98193C7.43068 12.0256 6.98382 11.5788 6.98382 11.0276Z" fill="black"/>
</g>
<defs>
<clipPath id="clip0_403_2725">
<rect width="24" height="24" fill="white"/>
</clipPath>
</defs>
</svg>
