<svg width="24" height="24" viewBox="0 0 24 24" fill="none" xmlns="http://www.w3.org/2000/svg">
<path d="M8.17391 22.4473C10.2765 24.5042 13.6347 24.5126 15.7476 22.4663L19.7294 18.7866C24.0429 14.5306 24.0895 7.58363 19.8334 3.27019C15.5774 -1.04325 8.63043 -1.08984 4.31699 3.16622C4.28212 3.20063 4.24743 3.23531 4.21302 3.27019C-0.0714921 7.55536 -0.0709295 14.5025 4.21424 18.787C4.2231 18.7958 4.23201 18.8047 4.24091 18.8136L8.17391 22.4473ZM5.6234 4.68061C9.12149 1.1671 14.8055 1.15458 18.319 4.65267C21.8325 8.15077 21.8451 13.8348 18.347 17.3483L14.3731 21.021C13.0158 22.2984 10.8962 22.2905 9.54838 21.003L5.6234 17.3762C2.11762 13.8705 2.11757 8.18649 5.62331 4.68066C5.62335 4.68066 5.6234 4.68061 5.6234 4.68061ZM6.98395 11.0284C6.98395 10.4775 7.43052 10.031 7.9814 10.031H10.9738V7.03861C10.9738 6.48774 11.4203 6.04116 11.9712 6.04116C12.5221 6.04116 12.9687 6.48774 12.9687 7.03861V10.031H15.961C16.5119 10.031 16.9585 10.4775 16.9585 11.0284C16.9585 11.5793 16.5119 12.0259 15.961 12.0259H12.9687V15.0182C12.9687 15.5691 12.5221 16.0157 11.9712 16.0157C11.4203 16.0157 10.9738 15.5691 10.9738 15.0182V12.0259H7.9814C7.43052 12.0259 6.98395 11.5793 6.98395 11.0284Z" fill="black"/>
</svg>
