<svg width="24" height="24" viewBox="0 0 24 24" fill="none" xmlns="http://www.w3.org/2000/svg">
<g clip-path="url(#clip0_403_2731)">
<path d="M20.68 1.16743L20.659 1.16043L17.944 0.260432C17.0062 -0.0509115 15.9974 -0.078394 15.044 0.181432L9.468 1.80043C8.78525 1.98137 8.06072 1.91769 7.42 1.62043L6.92 1.38843C6.16059 1.07261 5.335 0.948989 4.51639 1.02854C3.69779 1.10809 2.91144 1.38834 2.22705 1.84447C1.54266 2.3006 0.981356 2.91852 0.592883 3.64345C0.204411 4.36839 0.000767286 5.17796 0 6.00043L0 18.0754C0.0021016 19.1567 0.353792 20.2084 1.00259 21.0735C1.65139 21.9385 2.56251 22.5706 3.6 22.8754L6.469 23.7754C6.95302 23.9259 7.45713 24.0018 7.964 24.0004C8.41581 24.0061 8.866 23.9451 9.3 23.8194L15.1 22.2194C15.63 22.0757 16.1893 22.0802 16.717 22.2324L19.06 22.9084C19.6482 23.0506 20.261 23.0575 20.8523 22.9286C21.4436 22.7996 21.9979 22.5382 22.4735 22.164C22.9491 21.7898 23.3336 21.3125 23.598 20.7682C23.8624 20.2238 23.9999 19.6266 24 19.0214V5.87643C23.9985 4.84526 23.6788 3.83969 23.0847 2.99692C22.4905 2.15416 21.6507 1.51527 20.68 1.16743ZM4.176 20.9594C3.55031 20.7785 3.00009 20.3997 2.6078 19.8797C2.2155 19.3598 2.00225 18.7267 2 18.0754V6.00043C1.99514 5.50511 2.11496 5.01652 2.34842 4.57965C2.58189 4.14277 2.9215 3.77164 3.336 3.50043C3.8292 3.17327 4.40816 2.99931 5 3.00043C5.38166 3.00053 5.75955 3.07598 6.112 3.22243C6.112 3.22243 6.857 3.54143 6.999 3.59243V21.8424L4.176 20.9594ZM9 21.8274V3.87943C9.33966 3.8614 9.67667 3.80948 10.006 3.72443L15 2.27343V20.2004L9 21.8274ZM22 19.0214C22.0002 19.3209 21.9331 19.6167 21.8037 19.8869C21.6743 20.157 21.4859 20.3946 21.2524 20.5822C21.0188 20.7698 20.7461 20.9025 20.4544 20.9705C20.1627 21.0386 19.8594 21.0403 19.567 20.9754L17 20.2524V2.07543L20.018 3.05443C20.598 3.26458 21.0993 3.64811 21.4539 4.15295C21.8085 4.65779 21.9991 5.25951 22 5.87643V19.0214Z" fill="black"/>
</g>
<defs>
<clipPath id="clip0_403_2731">
<rect width="24" height="24" fill="white"/>
</clipPath>
</defs>
</svg>
