<svg width="24" height="24" viewBox="0 0 24 24" fill="none" xmlns="http://www.w3.org/2000/svg">
<g clip-path="url(#clip0_403_2738)">
<path d="M21.9993 6H18.9993C18.7341 6 18.4798 6.10536 18.2922 6.29289C18.1047 6.48043 17.9993 6.73478 17.9993 7C17.9993 7.26522 18.1047 7.51957 18.2922 7.70711C18.4798 7.89464 18.7341 8 18.9993 8H20.5853L17.1853 11.4C16.2332 10.6841 15.113 10.225 13.9323 10.067C13.774 8.887 13.3149 7.76752 12.5993 6.816L15.9993 3.416V5C15.9993 5.26522 16.1047 5.51957 16.2922 5.70711C16.4798 5.89464 16.7341 6 16.9993 6C17.2645 6 17.5189 5.89464 17.7064 5.70711C17.894 5.51957 17.9993 5.26522 17.9993 5V2C17.9993 1.46957 17.7886 0.960859 17.4135 0.585787C17.0385 0.210714 16.5298 0 15.9993 0L12.9993 0C12.7341 0 12.4798 0.105357 12.2922 0.292893C12.1047 0.48043 11.9993 0.734784 11.9993 1C11.9993 1.26522 12.1047 1.51957 12.2922 1.70711C12.4798 1.89464 12.7341 2 12.9993 2H14.5853L11.1853 5.4C10.3298 4.76013 9.33908 4.32478 8.28915 4.12736C7.23922 3.92994 6.15801 3.97571 5.12851 4.26115C4.09902 4.54658 3.14861 5.0641 2.35024 5.77398C1.55186 6.48386 0.926747 7.36722 0.522872 8.35627C0.118997 9.34532 -0.0529 10.4138 0.0203757 11.4796C0.0936515 12.5454 0.410151 13.5802 0.945583 14.5047C1.48101 15.4292 2.22114 16.2187 3.10915 16.8126C3.99717 17.4066 5.00946 17.7891 6.06833 17.931C6.20622 18.9939 6.58634 20.0109 7.17938 20.9036C7.77242 21.7964 8.56254 22.5411 9.48884 23.0802C10.4151 23.6194 11.4529 23.9386 12.522 24.0134C13.5912 24.0881 14.6633 23.9163 15.6556 23.5113C16.6479 23.1062 17.5339 22.4787 18.2454 21.6772C18.9569 20.8756 19.4748 19.9213 19.7592 18.888C20.0436 17.8546 20.0869 16.7698 19.8858 15.717C19.6847 14.6643 19.2446 13.6718 18.5993 12.816L21.9993 9.416V11C21.9993 11.2652 22.1047 11.5196 22.2922 11.7071C22.4798 11.8946 22.7341 12 22.9993 12C23.2645 12 23.5189 11.8946 23.7064 11.7071C23.894 11.5196 23.9993 11.2652 23.9993 11V8C23.9993 7.46957 23.7886 6.96086 23.4135 6.58579C23.0385 6.21071 22.5298 6 21.9993 6ZM1.99933 11C1.99933 10.0111 2.29257 9.0444 2.84198 8.22215C3.39139 7.3999 4.17228 6.75904 5.08591 6.3806C5.99954 6.00216 7.00488 5.90315 7.97478 6.09607C8.94469 6.289 9.8356 6.7652 10.5349 7.46447C11.2341 8.16373 11.7103 9.05464 11.9033 10.0245C12.0962 10.9945 11.9972 11.9998 11.6187 12.9134C11.2403 13.827 10.5994 14.6079 9.77718 15.1573C8.95494 15.7068 7.98824 16 6.99933 16C5.67374 15.9984 4.40289 15.4711 3.46555 14.5338C2.52821 13.5964 2.00092 12.3256 1.99933 11ZM12.9993 22C11.832 21.9978 10.7022 21.5873 9.80579 20.8396C8.90938 20.0918 8.30285 19.054 8.09133 17.906C9.54954 17.6734 10.8969 16.9859 11.9411 15.9418C12.9852 14.8976 13.6727 13.5502 13.9053 12.092C15.1317 12.317 16.2295 12.9925 16.9832 13.9858C17.7368 14.979 18.0918 16.2182 17.9782 17.4599C17.8647 18.7015 17.2909 19.8558 16.3696 20.6959C15.4483 21.536 14.2461 22.0012 12.9993 22Z" fill="black"/>
</g>
<defs>
<clipPath id="clip0_403_2738">
<rect width="24" height="24" fill="white"/>
</clipPath>
</defs>
</svg>
