<svg width="24" height="24" viewBox="0 0 24 24" fill="none" xmlns="http://www.w3.org/2000/svg">
<g clip-path="url(#clip0_403_2742)">
<path d="M22.513 10.972C22.1052 10.6072 21.6239 10.3342 21.1015 10.1714C20.5791 10.0085 20.0279 9.95962 19.485 10.028C17.2979 10.2924 15.1398 10.7577 13.038 11.418C13.358 8.913 15.749 8 17.999 8C18.7947 8 19.5578 7.68393 20.1204 7.12132C20.683 6.55871 20.999 5.79565 20.999 5C20.999 4.20435 20.683 3.44129 20.1204 2.87868C19.5578 2.31607 18.7947 2 17.999 2C17.0668 1.99978 16.144 2.18649 15.2852 2.54908C14.4264 2.91166 13.649 3.44277 12.999 4.111V1C12.999 0.734784 12.8937 0.48043 12.7061 0.292893C12.5186 0.105357 12.2643 0 11.999 0C11.7338 0 11.4795 0.105357 11.2919 0.292893C11.1044 0.48043 10.999 0.734784 10.999 1V4.11C10.3488 3.44214 9.57137 2.91133 8.7126 2.54893C7.85383 2.18653 6.93115 1.99988 5.99904 2C5.20339 2 4.44033 2.31607 3.87772 2.87868C3.31511 3.44129 2.99904 4.20435 2.99904 5C2.99904 5.79565 3.31511 6.55871 3.87772 7.12132C4.44033 7.68393 5.20339 8 5.99904 8C8.24904 8 10.64 8.913 10.96 11.418C8.85826 10.7578 6.70015 10.2925 4.51304 10.028C3.97018 9.96001 3.41906 10.0091 2.89676 10.1719C2.37445 10.3348 1.89308 10.6076 1.48504 10.972C1.01436 11.4032 0.64017 11.929 0.387003 12.5149C0.133835 13.1009 0.007416 13.7337 0.0160382 14.372C0.0160382 23.062 4.85104 24 6.93004 24C8.05896 23.9395 9.14013 23.5249 10.02 22.815C10.58 22.3407 11.2694 22.0453 11.999 21.967C12.7287 22.0453 13.4181 22.3407 13.978 22.815C14.858 23.5247 15.9392 23.9393 17.068 24C19.147 24 23.982 23.062 23.982 14.375C23.9908 13.7363 23.8645 13.1029 23.6113 12.5165C23.3582 11.93 22.9839 11.4037 22.513 10.972ZM17.999 4C18.2643 4 18.5186 4.10536 18.7061 4.29289C18.8937 4.48043 18.999 4.73478 18.999 5C18.999 5.26522 18.8937 5.51957 18.7061 5.70711C18.5186 5.89464 18.2643 6 17.999 6C16.3142 5.94531 14.6561 6.43098 13.267 7.386C13.6046 6.39892 14.2422 5.54196 15.0906 4.93489C15.939 4.32782 16.9558 4.00096 17.999 4ZM5.99904 6C5.73382 6 5.47947 5.89464 5.29193 5.70711C5.1044 5.51957 4.99904 5.26522 4.99904 5C4.99904 4.73478 5.1044 4.48043 5.29193 4.29289C5.47947 4.10536 5.73382 4 5.99904 4C7.04232 4.0012 8.05919 4.32814 8.9077 4.93516C9.75621 5.54218 10.394 6.399 10.732 7.386C9.3427 6.43077 7.68419 5.9451 5.99904 6ZM17.068 22C16.3384 21.9217 15.649 21.6263 15.089 21.152C14.2089 20.4426 13.1279 20.028 11.999 19.967C10.8702 20.028 9.78919 20.4426 8.90904 21.152C8.34908 21.6263 7.6597 21.9217 6.93004 22C3.76104 22 2.01604 19.292 2.01604 14.375C2.00973 14.019 2.0776 13.6656 2.21534 13.3373C2.35307 13.009 2.55764 12.7129 2.81604 12.468C3.01147 12.2897 3.2438 12.1567 3.49649 12.0784C3.74919 12.0001 4.01603 11.9784 4.27804 12.015C6.78843 12.3104 9.25578 12.8977 11.63 13.765C11.8688 13.8607 12.1353 13.8607 12.374 13.765C14.7478 12.8961 17.2153 12.3087 19.726 12.015C19.988 11.9789 20.2548 12.0008 20.5074 12.0791C20.76 12.1573 20.9923 12.2901 21.188 12.468C21.4466 12.7128 21.6513 13.0088 21.7891 13.3372C21.9268 13.6655 21.9946 14.019 21.988 14.375C21.982 19.292 20.237 22 17.068 22Z" fill="black"/>
<path d="M17.83 15.0227C15.309 15.5997 12 16.6477 12 16.6477C14.009 16.8607 16.056 18.6987 17.114 18.9927C18.223 19.3007 18.641 18.1487 18.981 16.2677C19.02 16.1047 19.0183 15.9346 18.9759 15.7724C18.9335 15.6102 18.8518 15.4609 18.738 15.3378C18.6242 15.2147 18.4818 15.1216 18.3234 15.0666C18.1651 15.0117 17.9956 14.9966 17.83 15.0227Z" fill="black"/>
<path d="M5.02022 16.2682C5.36022 18.1492 5.77822 19.3012 6.88722 18.9932C7.94522 18.6992 9.98723 16.8612 12.0012 16.6482C12.0012 16.6482 8.69222 15.5962 6.17122 15.0232C6.00563 14.9971 5.83615 15.0122 5.67778 15.0671C5.51941 15.1221 5.37702 15.2152 5.26322 15.3383C5.14942 15.4614 5.06771 15.6107 5.02533 15.7729C4.98294 15.935 4.98119 16.1052 5.02022 16.2682Z" fill="black"/>
</g>
<defs>
<clipPath id="clip0_403_2742">
<rect width="24" height="24" fill="white"/>
</clipPath>
</defs>
</svg>
