<svg width="24" height="24" viewBox="0 0 24 24" fill="none" xmlns="http://www.w3.org/2000/svg">
<g clip-path="url(#clip0_403_2746)">
<path d="M16 6.99953L15.977 5.82253C16.648 5.59303 17.2158 5.13262 17.5789 4.52343C17.942 3.91423 18.0769 3.19586 17.9595 2.49643C17.8422 1.797 17.4802 1.16199 16.9381 0.70467C16.3961 0.247346 15.7092 -0.00255897 15 -0.000475357H9C8.29317 -0.00181468 7.60868 0.247044 7.06776 0.702024C6.52683 1.157 6.16439 1.78874 6.04461 2.48535C5.92484 3.18195 6.05547 3.89847 6.41336 4.50799C6.77126 5.11751 7.33332 5.5807 8 5.81553V6.99953C6.67441 7.00111 5.40356 7.52841 4.46622 8.46575C3.52888 9.40308 3.00159 10.6739 3 11.9995V18.9995C3.00159 20.3251 3.52888 21.596 4.46622 22.5333C5.40356 23.4706 6.67441 23.9979 8 23.9995H16C17.3256 23.9979 18.5964 23.4706 19.5338 22.5333C20.4711 21.596 20.9984 20.3251 21 18.9995V11.9995C20.9984 10.6739 20.4711 9.40308 19.5338 8.46575C18.5964 7.52841 17.3256 7.00111 16 6.99953ZM9 1.99952H15C15.2652 1.99952 15.5196 2.10488 15.7071 2.29242C15.8946 2.47995 16 2.73431 16 2.99953C16 3.26474 15.8946 3.5191 15.7071 3.70663C15.5196 3.89417 15.2652 3.99953 15 3.99953H9C8.73478 3.99953 8.48043 3.89417 8.29289 3.70663C8.10536 3.5191 8 3.26474 8 2.99953C8 2.73431 8.10536 2.47995 8.29289 2.29242C8.48043 2.10488 8.73478 1.99952 9 1.99952ZM19 18.9995C19 19.7952 18.6839 20.5582 18.1213 21.1208C17.5587 21.6835 16.7956 21.9995 16 21.9995H8C7.20435 21.9995 6.44129 21.6835 5.87868 21.1208C5.31607 20.5582 5 19.7952 5 18.9995V11.9995C5 11.2039 5.31607 10.4408 5.87868 9.87821C6.44129 9.3156 7.20435 8.99953 8 8.99953H9C9.26522 8.99953 9.51957 8.89417 9.70711 8.70663C9.89464 8.5191 10 8.26474 10 7.99953V5.99953H13.973L14 8.01353C14.0037 8.27631 14.1107 8.52708 14.2978 8.7116C14.4849 8.89612 14.7372 8.99955 15 8.99953H16C16.7956 8.99953 17.5587 9.3156 18.1213 9.87821C18.6839 10.4408 19 11.2039 19 11.9995V18.9995ZM16 14.9995C16 15.2647 15.8946 15.5191 15.7071 15.7066C15.5196 15.8942 15.2652 15.9995 15 15.9995H13V17.9995C13 18.2647 12.8946 18.5191 12.7071 18.7066C12.5196 18.8942 12.2652 18.9995 12 18.9995C11.7348 18.9995 11.4804 18.8942 11.2929 18.7066C11.1054 18.5191 11 18.2647 11 17.9995V15.9995H9C8.73478 15.9995 8.48043 15.8942 8.29289 15.7066C8.10536 15.5191 8 15.2647 8 14.9995C8 14.7343 8.10536 14.48 8.29289 14.2924C8.48043 14.1049 8.73478 13.9995 9 13.9995H11V11.9995C11 11.7343 11.1054 11.48 11.2929 11.2924C11.4804 11.1049 11.7348 10.9995 12 10.9995C12.2652 10.9995 12.5196 11.1049 12.7071 11.2924C12.8946 11.48 13 11.7343 13 11.9995V13.9995H15C15.2652 13.9995 15.5196 14.1049 15.7071 14.2924C15.8946 14.48 16 14.7343 16 14.9995Z" fill="black"/>
</g>
<defs>
<clipPath id="clip0_403_2746">
<rect width="24" height="24" fill="white"/>
</clipPath>
</defs>
</svg>
