<svg width="24" height="24" viewBox="0 0 24 24" fill="none" xmlns="http://www.w3.org/2000/svg">
<path d="M20 10.9995H4C3.44772 10.9995 3 11.4472 3 11.9995C3 12.5518 3.44772 12.9995 4 12.9995H20C20.5523 12.9995 21 12.5518 21 11.9995C21 11.4472 20.5523 10.9995 20 10.9995Z" fill="black"/>
<path d="M20 5.00049H4C3.44772 5.00049 3 5.4482 3 6.00049C3 6.55277 3.44772 7.00048 4 7.00048H20C20.5523 7.00048 21 6.55277 21 6.00049C21 5.4482 20.5523 5.00049 20 5.00049Z" fill="black"/>
<path d="M20 17H4C3.44772 17 3 17.4477 3 18C3 18.5523 3.44772 19 4 19H20C20.5523 19 21 18.5523 21 18C21 17.4477 20.5523 17 20 17Z" fill="black"/>
</svg>
