<svg width="24" height="24" viewBox="0 0 24 24" fill="none" xmlns="http://www.w3.org/2000/svg">
<g clip-path="url(#clip0_403_2764)">
<path d="M18.7572 16.0007C18.0686 15.9991 17.3864 16.1339 16.7502 16.3973C16.1139 16.6608 15.5362 17.0477 15.0502 17.5357C13.6383 18.9557 11.9586 20.0816 10.1086 20.848C8.25851 21.6144 6.27477 22.0062 4.27224 22.0007H3.12224C2.90035 22.001 2.68334 21.9355 2.49872 21.8124C2.3141 21.6893 2.17016 21.5142 2.08513 21.3092C2.00011 21.1043 1.97782 20.8787 2.0211 20.6611C2.06438 20.4434 2.17127 20.2435 2.32824 20.0867L3.02124 19.3937C4.94406 19.2946 6.76156 18.4849 8.12124 17.1217L12.4472 12.8007C12.8694 12.9141 13.3026 12.9812 13.7392 13.0007C13.8252 13.0007 13.9122 13.0007 14.0002 13.0007C15.5924 12.9994 17.1192 12.3673 18.2462 11.2427L19.2462 10.2427C19.8334 9.65445 20.2922 8.95082 20.5935 8.17627C20.8949 7.40171 21.0324 6.57307 20.9972 5.74268C20.9639 4.90865 20.7553 4.09098 20.385 3.34289C20.0148 2.5948 19.4911 1.93304 18.8482 1.40068C17.6471 0.449353 16.1354 -0.0217739 14.6064 0.0787503C13.0775 0.179275 11.6405 0.844279 10.5742 1.94468L9.94124 2.57868C9.1762 3.34097 8.61893 4.28633 8.32242 5.32481C8.02591 6.3633 8.00003 7.46037 8.24724 8.51168L3.87924 12.8797C2.51532 14.2389 1.70551 16.0567 1.60724 17.9797L0.914241 18.6727C0.477653 19.1092 0.180347 19.6654 0.0599349 20.271C-0.0604775 20.8765 0.00141336 21.5042 0.237778 22.0745C0.474143 22.6449 0.874362 23.1323 1.3878 23.4752C1.90125 23.8181 2.50485 24.0009 3.12224 24.0007H4.27224C6.53741 24.0068 8.7813 23.5637 10.8741 22.6968C12.9668 21.83 14.8669 20.5567 16.4642 18.9507C16.9177 18.4973 17.4955 18.1885 18.1244 18.0633C18.7533 17.9382 19.4053 18.0023 19.9978 18.2476C20.5903 18.4929 21.0968 18.9084 21.4532 19.4415C21.8096 19.9746 22 20.6014 22.0002 21.2427V23.0007C22.0002 23.2659 22.1056 23.5203 22.2931 23.7078C22.4807 23.8953 22.735 24.0007 23.0002 24.0007C23.2655 24.0007 23.5198 23.8953 23.7073 23.7078C23.8949 23.5203 24.0002 23.2659 24.0002 23.0007V21.2427C23.9984 19.8528 23.4454 18.5204 22.4625 17.5377C21.4796 16.555 20.1471 16.0023 18.7572 16.0007ZM11.3572 3.98868L11.9902 3.35468C12.8116 2.52934 13.9259 2.06207 15.0902 2.05468C15.9917 2.0459 16.8671 2.35659 17.5612 2.93168C17.9907 3.28633 18.3408 3.72736 18.5887 4.22611C18.8366 4.72487 18.9768 5.2702 19.0002 5.82668C19.0233 6.3802 18.9316 6.93251 18.7307 7.44882C18.5299 7.96514 18.2243 8.43427 17.8332 8.82668L16.8332 9.82668C16.4403 10.2196 15.9699 10.5263 15.4519 10.7274C14.9339 10.9284 14.3797 11.0193 13.8246 10.9943C13.2695 10.9692 12.7257 10.8288 12.2279 10.582C11.7301 10.3352 11.2892 9.98735 10.9332 9.56068C10.3013 8.74448 9.99458 7.72284 10.0725 6.69352C10.1505 5.6642 10.6076 4.7004 11.3552 3.98868H11.3572ZM5.29324 14.2937L9.12924 10.4567C9.22024 10.5867 9.29324 10.7267 9.39624 10.8497C9.72817 11.2418 10.1082 11.5905 10.5272 11.8877L6.70724 15.7077C5.88507 16.5324 4.83327 17.09 3.68924 17.3077C3.90875 16.1646 4.46773 15.1143 5.29324 14.2937Z" fill="black"/>
</g>
<defs>
<clipPath id="clip0_403_2764">
<rect width="24" height="24" fill="white"/>
</clipPath>
</defs>
</svg>
