<svg width="24" height="24" viewBox="0 0 24 24" fill="none" xmlns="http://www.w3.org/2000/svg">
<g clip-path="url(#clip0_403_2775)">
<path d="M17.9994 18.9996C18.1972 18.9996 18.3905 18.9409 18.5549 18.831C18.7193 18.7212 18.8474 18.565 18.9231 18.3823C18.9988 18.1996 19.0186 17.9986 18.98 17.8046C18.9414 17.6107 18.8462 17.4325 18.7064 17.2926L12.5344 11.1216C11.5968 10.1843 10.3253 9.65771 8.99943 9.65771C7.67361 9.65771 6.40207 10.1843 5.46443 11.1216L3.29243 13.2926C3.11027 13.4812 3.00948 13.7339 3.01176 13.996C3.01403 14.2582 3.1192 14.5091 3.30461 14.6945C3.49002 14.8799 3.74083 14.985 4.00303 14.9873C4.26523 14.9896 4.51783 14.8888 4.70643 14.7066L6.87843 12.5356C7.44965 11.9898 8.20933 11.6852 8.99943 11.6852C9.78953 11.6852 10.5492 11.9898 11.1204 12.5356L17.2924 18.7066C17.4799 18.8942 17.7342 18.9996 17.9994 18.9996Z" fill="black"/>
<path d="M16 10.4995C16.6922 10.4995 17.3689 10.2942 17.9445 9.90966C18.5201 9.52507 18.9687 8.97845 19.2336 8.33891C19.4985 7.69936 19.5678 6.99563 19.4327 6.3167C19.2977 5.63776 18.9644 5.01412 18.4749 4.52464C17.9854 4.03516 17.3617 3.70181 16.6828 3.56676C16.0039 3.43172 15.3001 3.50103 14.6606 3.76593C14.0211 4.03084 13.4744 4.47945 13.0899 5.05502C12.7053 5.63059 12.5 6.30728 12.5 6.99951C12.5 7.92777 12.8687 8.81801 13.5251 9.47439C14.1815 10.1308 15.0717 10.4995 16 10.4995ZM16 5.49951C16.2967 5.49951 16.5867 5.58749 16.8334 5.75231C17.08 5.91713 17.2723 6.1514 17.3858 6.42549C17.4994 6.69958 17.5291 7.00118 17.4712 7.29215C17.4133 7.58312 17.2704 7.8504 17.0607 8.06017C16.8509 8.26995 16.5836 8.41281 16.2926 8.47069C16.0017 8.52857 15.7001 8.49886 15.426 8.38533C15.1519 8.2718 14.9176 8.07954 14.7528 7.83287C14.588 7.5862 14.5 7.29619 14.5 6.99951C14.5 6.60169 14.658 6.22016 14.9393 5.93885C15.2206 5.65755 15.6022 5.49951 16 5.49951Z" fill="black"/>
<path d="M23 16.0005C22.7348 16.0005 22.4804 16.1058 22.2929 16.2934C22.1053 16.4809 22 16.7353 22 17.0005V19.0005C22 19.7961 21.6839 20.5592 21.1213 21.1218C20.5587 21.6844 19.7956 22.0005 19 22.0005H17C16.7348 22.0005 16.4804 22.1058 16.2929 22.2934C16.1054 22.4809 16 22.7353 16 23.0005C16 23.2657 16.1054 23.52 16.2929 23.7076C16.4804 23.8951 16.7348 24.0005 17 24.0005H19C20.3256 23.9989 21.5964 23.4716 22.5338 22.5343C23.4711 21.5969 23.9984 20.3261 24 19.0005V17.0005C24 16.7353 23.8946 16.4809 23.7071 16.2934C23.5196 16.1058 23.2652 16.0005 23 16.0005Z" fill="black"/>
<path d="M1 8C1.26522 8 1.51957 7.89464 1.70711 7.70711C1.89464 7.51957 2 7.26522 2 7V5C2 4.20435 2.31607 3.44129 2.87868 2.87868C3.44129 2.31607 4.20435 2 5 2H7C7.26522 2 7.51957 1.89464 7.70711 1.70711C7.89464 1.51957 8 1.26522 8 1C8 0.734784 7.89464 0.48043 7.70711 0.292893C7.51957 0.105357 7.26522 0 7 0L5 0C3.67441 0.00158786 2.40356 0.528882 1.46622 1.46622C0.528882 2.40356 0.00158786 3.67441 0 5L0 7C0 7.26522 0.105357 7.51957 0.292893 7.70711C0.48043 7.89464 0.734784 8 1 8Z" fill="black"/>
<path d="M7 22.0005H5C4.20435 22.0005 3.44129 21.6844 2.87868 21.1218C2.31607 20.5592 2 19.7961 2 19.0005V17.0005C2 16.7353 1.89464 16.4809 1.70711 16.2934C1.51957 16.1058 1.26522 16.0005 1 16.0005C0.734784 16.0005 0.48043 16.1058 0.292893 16.2934C0.105357 16.4809 0 16.7353 0 17.0005L0 19.0005C0.00158786 20.3261 0.528882 21.5969 1.46622 22.5343C2.40356 23.4716 3.67441 23.9989 5 24.0005H7C7.26522 24.0005 7.51957 23.8951 7.70711 23.7076C7.89464 23.52 8 23.2657 8 23.0005C8 22.7353 7.89464 22.4809 7.70711 22.2934C7.51957 22.1058 7.26522 22.0005 7 22.0005Z" fill="black"/>
<path d="M19 0H17C16.7348 0 16.4804 0.105357 16.2929 0.292893C16.1054 0.48043 16 0.734784 16 1C16 1.26522 16.1054 1.51957 16.2929 1.70711C16.4804 1.89464 16.7348 2 17 2H19C19.7956 2 20.5587 2.31607 21.1213 2.87868C21.6839 3.44129 22 4.20435 22 5V7C22 7.26522 22.1053 7.51957 22.2929 7.70711C22.4804 7.89464 22.7348 8 23 8C23.2652 8 23.5196 7.89464 23.7071 7.70711C23.8946 7.51957 24 7.26522 24 7V5C23.9984 3.67441 23.4711 2.40356 22.5338 1.46622C21.5964 0.528882 20.3256 0.00158786 19 0V0Z" fill="black"/>
</g>
<defs>
<clipPath id="clip0_403_2775">
<rect width="24" height="24" fill="white"/>
</clipPath>
</defs>
</svg>
