<svg width="24" height="24" viewBox="0 0 24 24" fill="none" xmlns="http://www.w3.org/2000/svg">
<g clip-path="url(#clip0_403_2782)">
<path d="M23 16.0005C22.7348 16.0005 22.4804 16.1058 22.2929 16.2934C22.1053 16.4809 22 16.7353 22 17.0005V19.0005C22 19.7961 21.6839 20.5592 21.1213 21.1218C20.5587 21.6844 19.7956 22.0005 19 22.0005H17C16.7348 22.0005 16.4804 22.1058 16.2929 22.2934C16.1054 22.4809 16 22.7353 16 23.0005C16 23.2657 16.1054 23.52 16.2929 23.7076C16.4804 23.8951 16.7348 24.0005 17 24.0005H19C20.3256 23.9989 21.5964 23.4716 22.5338 22.5343C23.4711 21.5969 23.9984 20.3261 24 19.0005V17.0005C24 16.7353 23.8946 16.4809 23.7071 16.2934C23.5196 16.1058 23.2652 16.0005 23 16.0005Z" fill="black"/>
<path d="M1 8C1.26522 8 1.51957 7.89464 1.70711 7.70711C1.89464 7.51957 2 7.26522 2 7V5C2 4.20435 2.31607 3.44129 2.87868 2.87868C3.44129 2.31607 4.20435 2 5 2H7C7.26522 2 7.51957 1.89464 7.70711 1.70711C7.89464 1.51957 8 1.26522 8 1C8 0.734784 7.89464 0.48043 7.70711 0.292893C7.51957 0.105357 7.26522 0 7 0L5 0C3.67441 0.00158786 2.40356 0.528882 1.46622 1.46622C0.528882 2.40356 0.00158786 3.67441 0 5L0 7C0 7.26522 0.105357 7.51957 0.292893 7.70711C0.48043 7.89464 0.734784 8 1 8Z" fill="black"/>
<path d="M7 22.0005H5C4.20435 22.0005 3.44129 21.6844 2.87868 21.1218C2.31607 20.5592 2 19.7961 2 19.0005V17.0005C2 16.7353 1.89464 16.4809 1.70711 16.2934C1.51957 16.1058 1.26522 16.0005 1 16.0005C0.734784 16.0005 0.48043 16.1058 0.292893 16.2934C0.105357 16.4809 0 16.7353 0 17.0005L0 19.0005C0.00158786 20.3261 0.528882 21.5969 1.46622 22.5343C2.40356 23.4716 3.67441 23.9989 5 24.0005H7C7.26522 24.0005 7.51957 23.8951 7.70711 23.7076C7.89464 23.52 8 23.2657 8 23.0005C8 22.7353 7.89464 22.4809 7.70711 22.2934C7.51957 22.1058 7.26522 22.0005 7 22.0005Z" fill="black"/>
<path d="M19 0H17C16.7348 0 16.4804 0.105357 16.2929 0.292893C16.1054 0.48043 16 0.734784 16 1C16 1.26522 16.1054 1.51957 16.2929 1.70711C16.4804 1.89464 16.7348 2 17 2H19C19.7956 2 20.5587 2.31607 21.1213 2.87868C21.6839 3.44129 22 4.20435 22 5V7C22 7.26522 22.1053 7.51957 22.2929 7.70711C22.4804 7.89464 22.7348 8 23 8C23.2652 8 23.5196 7.89464 23.7071 7.70711C23.8946 7.51957 24 7.26522 24 7V5C23.9984 3.67441 23.4711 2.40356 22.5338 1.46622C21.5964 0.528882 20.3256 0.00158786 19 0V0Z" fill="black"/>
<path d="M12 11C12.7911 11 13.5645 10.7654 14.2223 10.3259C14.8801 9.88635 15.3928 9.26164 15.6955 8.53074C15.9983 7.79983 16.0775 6.99556 15.9231 6.21964C15.7688 5.44372 15.3878 4.73098 14.8284 4.17157C14.269 3.61216 13.5563 3.2312 12.7804 3.07686C12.0044 2.92252 11.2002 3.00173 10.4693 3.30448C9.73836 3.60723 9.11365 4.11992 8.67412 4.77772C8.2346 5.43552 8 6.20888 8 7C8 8.06087 8.42143 9.07828 9.17157 9.82843C9.92172 10.5786 10.9391 11 12 11ZM12 5C12.3956 5 12.7822 5.1173 13.1111 5.33706C13.44 5.55683 13.6964 5.86918 13.8478 6.23463C13.9991 6.60009 14.0387 7.00222 13.9616 7.39018C13.8844 7.77814 13.6939 8.13451 13.4142 8.41422C13.1345 8.69392 12.7781 8.8844 12.3902 8.96157C12.0022 9.03874 11.6001 8.99914 11.2346 8.84776C10.8692 8.69639 10.5568 8.44004 10.3371 8.11114C10.1173 7.78224 10 7.39556 10 7C10 6.46957 10.2107 5.96086 10.5858 5.58579C10.9609 5.21072 11.4696 5 12 5Z" fill="black"/>
<path d="M18 20.0005C18.2652 20.0005 18.5196 19.8951 18.7071 19.7076C18.8946 19.5201 19 19.2657 19 19.0005C18.9984 17.4097 18.3658 15.8845 17.2409 14.7596C16.116 13.6347 14.5908 13.0021 13 13.0005H11C9.40919 13.0021 7.88399 13.6347 6.75911 14.7596C5.63424 15.8845 5.00159 17.4097 5 19.0005C5 19.2657 5.10536 19.5201 5.29289 19.7076C5.48043 19.8951 5.73478 20.0005 6 20.0005C6.26522 20.0005 6.51957 19.8951 6.70711 19.7076C6.89464 19.5201 7 19.2657 7 19.0005C7 17.9396 7.42143 16.9222 8.17157 16.1721C8.92172 15.4219 9.93913 15.0005 11 15.0005H13C14.0609 15.0005 15.0783 15.4219 15.8284 16.1721C16.5786 16.9222 17 17.9396 17 19.0005C17 19.2657 17.1054 19.5201 17.2929 19.7076C17.4804 19.8951 17.7348 20.0005 18 20.0005Z" fill="black"/>
</g>
<defs>
<clipPath id="clip0_403_2782">
<rect width="24" height="24" fill="white"/>
</clipPath>
</defs>
</svg>
