<svg width="24" height="24" viewBox="0 0 24 24" fill="none" xmlns="http://www.w3.org/2000/svg">
<path d="M19 20.0005H5C3.67441 19.9989 2.40356 19.4716 1.46622 18.5343C0.528882 17.5969 0.00158786 16.3261 0 15.0005L0 9.00049C0.00158786 7.67489 0.528882 6.40405 1.46622 5.46671C2.40356 4.52937 3.67441 4.00208 5 4.00049H19C20.3256 4.00208 21.5964 4.52937 22.5338 5.46671C23.4711 6.40405 23.9984 7.67489 24 9.00049V15.0005C23.9984 16.3261 23.4711 17.5969 22.5338 18.5343C21.5964 19.4716 20.3256 19.9989 19 20.0005ZM5 6.00049C4.20435 6.00049 3.44129 6.31656 2.87868 6.87917C2.31607 7.44178 2 8.20484 2 9.00049V15.0005C2 15.7961 2.31607 16.5592 2.87868 17.1218C3.44129 17.6844 4.20435 18.0005 5 18.0005H19C19.7956 18.0005 20.5587 17.6844 21.1213 17.1218C21.6839 16.5592 22 15.7961 22 15.0005V9.00049C22 8.20484 21.6839 7.44178 21.1213 6.87917C20.5587 6.31656 19.7956 6.00049 19 6.00049H5ZM12 16.0005C11.2089 16.0005 10.4355 15.7659 9.77772 15.3264C9.11992 14.8868 8.60723 14.2621 8.30448 13.5312C8.00173 12.8003 7.92252 11.9961 8.07686 11.2201C8.2312 10.4442 8.61216 9.73147 9.17157 9.17206C9.73098 8.61265 10.4437 8.23169 11.2196 8.07735C11.9956 7.92301 12.7998 8.00222 13.5307 8.30497C14.2616 8.60772 14.8864 9.12041 15.3259 9.77821C15.7654 10.436 16 11.2094 16 12.0005C16 13.0614 15.5786 14.0788 14.8284 14.8289C14.0783 15.5791 13.0609 16.0005 12 16.0005ZM12 10.0005C11.6044 10.0005 11.2178 10.1178 10.8889 10.3375C10.56 10.5573 10.3036 10.8697 10.1522 11.2351C10.0009 11.6006 9.96126 12.0027 10.0384 12.3907C10.1156 12.7786 10.3061 13.135 10.5858 13.4147C10.8655 13.6944 11.2219 13.8849 11.6098 13.9621C11.9978 14.0392 12.3999 13.9996 12.7654 13.8482C13.1308 13.6969 13.4432 13.4405 13.6629 13.1116C13.8827 12.7827 14 12.3961 14 12.0005C14 11.4701 13.7893 10.9613 13.4142 10.5863C13.0391 10.2112 12.5304 10.0005 12 10.0005ZM5 8.00049C4.80222 8.00049 4.60888 8.05914 4.44443 8.16902C4.27998 8.2789 4.15181 8.43508 4.07612 8.6178C4.00043 8.80053 3.98063 9.0016 4.01921 9.19558C4.0578 9.38956 4.15304 9.56774 4.29289 9.70759C4.43275 9.84745 4.61093 9.94269 4.80491 9.98127C4.99889 10.0199 5.19996 10.0001 5.38268 9.92437C5.56541 9.84868 5.72159 9.72051 5.83147 9.55606C5.94135 9.39161 6 9.19827 6 9.00049C6 8.73527 5.89464 8.48092 5.70711 8.29338C5.51957 8.10585 5.26522 8.00049 5 8.00049ZM18 9.00049C18 9.19827 18.0586 9.39161 18.1685 9.55606C18.2784 9.72051 18.4346 9.84868 18.6173 9.92437C18.8 10.0001 19.0011 10.0199 19.1951 9.98127C19.3891 9.94269 19.5673 9.84745 19.7071 9.70759C19.847 9.56774 19.9422 9.38956 19.9808 9.19558C20.0194 9.0016 19.9996 8.80053 19.9239 8.6178C19.8482 8.43508 19.72 8.2789 19.5556 8.16902C19.3911 8.05914 19.1978 8.00049 19 8.00049C18.7348 8.00049 18.4804 8.10585 18.2929 8.29338C18.1054 8.48092 18 8.73527 18 9.00049ZM5 14.0005C4.80222 14.0005 4.60888 14.0591 4.44443 14.169C4.27998 14.2789 4.15181 14.4351 4.07612 14.6178C4.00043 14.8005 3.98063 15.0016 4.01921 15.1956C4.0578 15.3896 4.15304 15.5677 4.29289 15.7076C4.43275 15.8474 4.61093 15.9427 4.80491 15.9813C4.99889 16.0199 5.19996 16.0001 5.38268 15.9244C5.56541 15.8487 5.72159 15.7205 5.83147 15.5561C5.94135 15.3916 6 15.1983 6 15.0005C6 14.7353 5.89464 14.4809 5.70711 14.2934C5.51957 14.1058 5.26522 14.0005 5 14.0005ZM18 15.0005C18 15.1983 18.0586 15.3916 18.1685 15.5561C18.2784 15.7205 18.4346 15.8487 18.6173 15.9244C18.8 16.0001 19.0011 16.0199 19.1951 15.9813C19.3891 15.9427 19.5673 15.8474 19.7071 15.7076C19.847 15.5677 19.9422 15.3896 19.9808 15.1956C20.0194 15.0016 19.9996 14.8005 19.9239 14.6178C19.8482 14.4351 19.72 14.2789 19.5556 14.169C19.3911 14.0591 19.1978 14.0005 19 14.0005C18.7348 14.0005 18.4804 14.1058 18.2929 14.2934C18.1054 14.4809 18 14.7353 18 15.0005Z" fill="black"/>
</svg>
