<svg width="24" height="24" viewBox="0 0 24 24" fill="none" xmlns="http://www.w3.org/2000/svg">
<g clip-path="url(#clip0_403_2791)">
<path d="M15.0002 24.0001C13.3197 23.9988 11.6581 23.6452 10.1227 22.9621C8.58732 22.279 7.21222 21.2815 6.08615 20.0341C4.95159 18.7852 4.09557 17.3093 3.5749 15.7044C3.05423 14.0995 2.88081 12.4022 3.06615 10.7251C3.36496 8.1151 4.50355 5.67282 6.31052 3.76594C8.11748 1.85906 10.495 0.590793 13.0852 0.152087C14.7596 -0.106538 16.4683 -0.0369114 18.1162 0.357087C18.5476 0.467946 18.9417 0.692091 19.2575 1.00633C19.5732 1.32056 19.7993 1.71348 19.9123 2.14441C20.0253 2.57534 20.0211 3.02864 19.9001 3.45739C19.7791 3.88615 19.5457 4.27478 19.2242 4.58309C14.6642 8.74909 15.0602 15.2271 20.0312 18.9931C20.3826 19.269 20.6538 19.634 20.8163 20.0502C20.9789 20.4664 21.0269 20.9185 20.9554 21.3596C20.884 21.8006 20.6956 22.2145 20.4099 22.558C20.1243 22.9016 19.7518 23.1623 19.3312 23.3131C17.933 23.7699 16.4711 24.0018 15.0002 24.0001ZM15.0762 2.00009C14.5147 1.99874 13.954 2.0412 13.3992 2.12709C11.2427 2.4918 9.26301 3.54713 7.75817 5.13422C6.25332 6.72131 5.30472 8.75427 5.05515 10.9271C4.89916 12.3271 5.04292 13.7443 5.47689 15.0845C5.91087 16.4247 6.62511 17.6572 7.57215 18.7001C8.95849 20.1798 10.7444 21.2253 12.7133 21.7099C14.6822 22.1945 16.7494 22.0973 18.6642 21.4301C18.7467 21.3992 18.8196 21.347 18.8755 21.2788C18.9313 21.2106 18.9682 21.1289 18.9823 21.0419C18.9964 20.9549 18.9873 20.8657 18.9558 20.7834C18.9244 20.7011 18.8717 20.6285 18.8032 20.5731C12.8742 16.0951 12.4032 8.08709 17.8552 3.12409C17.9177 3.066 17.9628 2.99162 17.9854 2.9093C18.0081 2.82698 18.0073 2.73998 17.9832 2.65809C17.9624 2.57117 17.9182 2.49159 17.8555 2.42796C17.7927 2.36433 17.7138 2.31908 17.6272 2.29709C16.7919 2.09561 15.9354 1.99589 15.0762 2.00009Z" fill="black"/>
</g>
<defs>
<clipPath id="clip0_403_2791">
<rect width="24" height="24" fill="white"/>
</clipPath>
</defs>
</svg>
