<svg width="24" height="24" viewBox="0 0 24 24" fill="none" xmlns="http://www.w3.org/2000/svg">
<g clip-path="url(#clip0_403_2793)">
<path d="M20.0013 8C18.9404 8 17.923 7.57857 17.1729 6.82843C16.4227 6.07828 16.0013 5.06087 16.0013 4C16.0013 2.93913 16.4227 1.92172 17.1729 1.17157C17.923 0.421427 18.9404 0 20.0013 0C21.0622 0 22.0796 0.421427 22.8297 1.17157C23.5799 1.92172 24.0013 2.93913 24.0013 4C24.0013 5.06087 23.5799 6.07828 22.8297 6.82843C22.0796 7.57857 21.0622 8 20.0013 8ZM20.0013 2C19.4709 2 18.9622 2.21071 18.5871 2.58579C18.212 2.96086 18.0013 3.46957 18.0013 4C18.0013 4.53043 18.212 5.03914 18.5871 5.41421C18.9622 5.78929 19.4709 6 20.0013 6C20.5317 6 21.0404 5.78929 21.4155 5.41421C21.7906 5.03914 22.0013 4.53043 22.0013 4C22.0013 3.46957 21.7906 2.96086 21.4155 2.58579C21.0404 2.21071 20.5317 2 20.0013 2ZM21.4533 24H12.5903C12.142 24.004 11.7005 23.8895 11.3106 23.6683C10.9206 23.4471 10.5959 23.1269 10.3693 22.74C10.1472 22.3672 10.0276 21.9423 10.0225 21.5084C10.0174 21.0745 10.127 20.6469 10.3403 20.269L14.7763 12.31C15.0047 11.9155 15.3328 11.588 15.7277 11.3604C16.1227 11.1327 16.5705 11.0129 17.0263 11.0129C17.4821 11.0129 17.93 11.1327 18.3249 11.3604C18.7198 11.588 19.0479 11.9155 19.2763 12.31L23.7013 20.263C23.915 20.6415 24.0249 21.0697 24.02 21.5043C24.0151 21.9389 23.8955 22.3645 23.6733 22.738C23.4468 23.1249 23.1223 23.4452 22.7326 23.6668C22.3428 23.8883 21.9016 24.0033 21.4533 24ZM17.0243 13C16.9232 12.9976 16.8233 13.0227 16.7352 13.0725C16.6472 13.1223 16.5743 13.1951 16.5243 13.283L12.0883 21.242C12.0454 21.3159 12.0234 21.3999 12.0244 21.4853C12.0255 21.5707 12.0496 21.6542 12.0943 21.727C12.1455 21.8131 12.219 21.8839 12.3069 21.932C12.3949 21.98 12.4941 22.0035 12.5943 22H21.4573C21.5576 22.003 21.6569 21.979 21.7448 21.9307C21.8327 21.8823 21.9061 21.8113 21.9573 21.725C22.0012 21.651 22.0244 21.5665 22.0244 21.4805C22.0244 21.3945 22.0012 21.31 21.9573 21.236L17.5253 13.284C17.4755 13.1956 17.4026 13.1224 17.3143 13.0724C17.226 13.0223 17.1257 12.9973 17.0243 13ZM8.00131 23C8.00131 22.7348 7.89595 22.4804 7.70841 22.2929C7.52088 22.1054 7.26652 22 7.00131 22H3.3513C3.11744 21.9999 2.88763 21.9389 2.68442 21.8232C2.48121 21.7074 2.31159 21.5408 2.19219 21.3397C2.07279 21.1387 2.00771 20.91 2.00335 20.6762C1.99899 20.4423 2.05549 20.2114 2.1673 20.006L8.81931 7.706C8.93308 7.49161 9.10339 7.31246 9.31176 7.18801C9.52013 7.06355 9.7586 6.99853 10.0013 7C10.2442 6.99801 10.4831 7.06281 10.6917 7.18731C10.9003 7.31181 11.0707 7.49124 11.1843 7.706L12.4113 9.973C12.4738 10.0886 12.5585 10.1907 12.6604 10.2735C12.7624 10.3564 12.8797 10.4183 13.0056 10.4558C13.1316 10.4934 13.2636 10.5057 13.3943 10.4922C13.525 10.4786 13.6517 10.4395 13.7673 10.377C13.8829 10.3145 13.985 10.2298 14.0678 10.1279C14.1507 10.0259 14.2126 9.90859 14.2501 9.78267C14.2877 9.65675 14.3 9.52468 14.2865 9.39399C14.273 9.26331 14.2338 9.13656 14.1713 9.021L12.9453 6.755C12.6587 6.22424 12.234 5.78088 11.7159 5.47187C11.1979 5.16286 10.606 4.99972 10.0028 4.99972C9.39963 4.99972 8.80768 5.16286 8.28967 5.47187C7.77166 5.78088 7.34687 6.22424 7.06031 6.755L0.407304 19.055C0.131408 19.5652 -0.0073442 20.1382 0.00461933 20.7181C0.0165829 21.298 0.178852 21.8649 0.475556 22.3632C0.77226 22.8616 1.19324 23.2744 1.69731 23.5613C2.20139 23.8482 2.7713 23.9994 3.3513 24H7.00131C7.26652 24 7.52088 23.8946 7.70841 23.7071C7.89595 23.5196 8.00131 23.2652 8.00131 23Z" fill="black"/>
</g>
<defs>
<clipPath id="clip0_403_2793">
<rect width="24" height="24" fill="white"/>
</clipPath>
</defs>
</svg>
