<svg width="24" height="24" viewBox="0 0 24 24" fill="none" xmlns="http://www.w3.org/2000/svg">
<g clip-path="url(#clip0_403_2802)">
<path d="M19 1.00049H13C11.6744 1.00208 10.4036 1.52937 9.46622 2.46671C8.52888 3.40405 8.00159 4.67489 8 6.00049V14.0265C7.13961 13.3647 6.08547 13.0042 5 13.0005C4.0111 13.0005 3.0444 13.2937 2.22215 13.8431C1.39991 14.3925 0.759043 15.1734 0.380605 16.0871C0.00216642 17.0007 -0.0968503 18.006 0.0960759 18.9759C0.289002 19.9458 0.765206 20.8368 1.46447 21.536C2.16373 22.2353 3.05465 22.7115 4.02455 22.9044C4.99446 23.0973 5.99979 22.9983 6.91342 22.6199C7.82705 22.2414 8.60794 21.6006 9.15735 20.7783C9.70676 19.9561 10 18.9894 10 18.0005V6.00049C10 5.20484 10.3161 4.44178 10.8787 3.87917C11.4413 3.31656 12.2044 3.00049 13 3.00049H19C19.7957 3.00049 20.5587 3.31656 21.1213 3.87917C21.6839 4.44178 22 5.20484 22 6.00049V14.0265C21.1396 13.3647 20.0855 13.0042 19 13.0005C18.0111 13.0005 17.0444 13.2937 16.2222 13.8431C15.3999 14.3925 14.759 15.1734 14.3806 16.0871C14.0022 17.0007 13.9032 18.006 14.0961 18.9759C14.289 19.9458 14.7652 20.8368 15.4645 21.536C16.1637 22.2353 17.0546 22.7115 18.0246 22.9044C18.9945 23.0973 19.9998 22.9983 20.9134 22.6199C21.8271 22.2414 22.6079 21.6006 23.1574 20.7783C23.7068 19.9561 24 18.9894 24 18.0005V6.00049C23.9984 4.67489 23.4711 3.40405 22.5338 2.46671C21.5964 1.52937 20.3256 1.00208 19 1.00049ZM5 21.0005C4.40666 21.0005 3.82664 20.8245 3.33329 20.4949C2.83994 20.1653 2.45543 19.6967 2.22836 19.1485C2.0013 18.6004 1.94189 17.9972 2.05765 17.4152C2.1734 16.8333 2.45912 16.2987 2.87868 15.8792C3.29824 15.4596 3.83279 15.1739 4.41473 15.0581C4.99668 14.9424 5.59987 15.0018 6.14805 15.2288C6.69623 15.4559 7.16477 15.8404 7.49441 16.3338C7.82406 16.8271 8 17.4071 8 18.0005C8 18.7961 7.68393 19.5592 7.12132 20.1218C6.55871 20.6844 5.79565 21.0005 5 21.0005ZM19 21.0005C18.4067 21.0005 17.8266 20.8245 17.3333 20.4949C16.8399 20.1653 16.4554 19.6967 16.2284 19.1485C16.0013 18.6004 15.9419 17.9972 16.0576 17.4152C16.1734 16.8333 16.4591 16.2987 16.8787 15.8792C17.2982 15.4596 17.8328 15.1739 18.4147 15.0581C18.9967 14.9424 19.5999 15.0018 20.1481 15.2288C20.6962 15.4559 21.1648 15.8404 21.4944 16.3338C21.8241 16.8271 22 17.4071 22 18.0005C22 18.7961 21.6839 19.5592 21.1213 20.1218C20.5587 20.6844 19.7957 21.0005 19 21.0005Z" fill="black"/>
</g>
<defs>
<clipPath id="clip0_403_2802">
<rect width="24" height="24" fill="white"/>
</clipPath>
</defs>
</svg>
