<svg width="24" height="24" viewBox="0 0 24 24" fill="none" xmlns="http://www.w3.org/2000/svg">
<g clip-path="url(#clip0_403_2806)">
<path d="M23 19.9998H14.816C14.5135 19.1529 13.847 18.4864 13 18.1839V14.0219C14.344 14.0219 15.52 14.0099 16.095 13.9989C16.454 13.9921 16.8112 13.9482 17.161 13.8679C18.9986 13.4403 20.4334 12.0054 20.861 10.1679C21.489 7.53504 19.9136 4.87905 17.302 4.16787L17.13 4.12985C16.83 4.06287 16.6791 4.02987 16.542 3.70085C15.273 0.639772 11.7627 -0.812978 8.70159 0.456068C6.94144 1.18577 5.63255 2.70818 5.175 4.55782C4.95848 5.45365 4.93903 6.38576 5.118 7.28983C3.34237 8.05385 2.52234 10.1126 3.28631 11.8882C3.70566 12.8628 4.54448 13.5946 5.56697 13.8778C5.83908 13.9501 6.11855 13.9911 6.39998 13.9998C7.05497 14.0178 8.934 14.0259 10.894 14.0259H11V18.1848C10.1533 18.4871 9.48675 19.1533 9.18398 19.9998H0.999984C0.447703 19.9998 0 20.4476 0 20.9998C0 21.5521 0.447703 21.9998 0.999984 21.9998H9.18398C9.72581 23.555 11.4258 24.3766 12.981 23.8348C13.8407 23.5353 14.5165 22.8595 14.816 21.9998H23C23.5522 21.9998 24 21.5521 24 20.9998C24 20.4476 23.5523 19.9998 23 19.9998ZM6.456 11.9998C6.32761 11.9952 6.20011 11.9761 6.07598 11.9428C5.58164 11.8041 5.19516 11.4181 5.05598 10.9238C4.84317 10.1949 5.20861 9.42194 5.907 9.12382C6.80508 8.74371 7.30205 7.77504 7.08698 6.8238C6.63108 4.66221 8.01384 2.54032 10.1754 2.08446C10.2476 2.06922 10.3201 2.05601 10.393 2.0448C10.588 2.01597 10.7849 2.00093 10.982 1.9998C12.6069 1.99418 14.0748 2.96899 14.7 4.4688C15.053 5.34602 15.8476 5.96791 16.784 6.09982C18.3549 6.53486 19.2981 8.13715 18.916 9.7218C18.6527 10.8078 17.8029 11.6545 16.716 11.9138C16.5002 11.9644 16.2796 11.9919 16.058 11.9958C15.365 12.0088 7.21102 12.0198 6.456 11.9998ZM12 21.9998C11.4477 21.9998 11 21.5521 11 20.9998C11 20.4476 11.4477 19.9998 12 19.9998C12.5523 19.9998 13 20.4476 13 20.9998C13 21.5521 12.5523 21.9998 12 21.9998Z" fill="black"/>
</g>
<defs>
<clipPath id="clip0_403_2806">
<rect width="24" height="24" fill="white"/>
</clipPath>
</defs>
</svg>
