<svg width="24" height="24" viewBox="0 0 24 24" fill="none" xmlns="http://www.w3.org/2000/svg">
<g clip-path="url(#clip0_403_2812)">
<path d="M2.88686 6.83615C3.05013 6.83668 3.21105 6.79722 3.35556 6.72122C3.50007 6.64522 3.62377 6.53498 3.71586 6.40016C4.45927 5.29971 5.41413 4.35811 6.52486 3.63015C6.63464 3.55793 6.72913 3.46478 6.80291 3.35604C6.8767 3.2473 6.92835 3.12509 6.95491 2.99639C6.98146 2.86769 6.98241 2.73501 6.9577 2.60594C6.93298 2.47688 6.88308 2.35394 6.81086 2.24415C6.73863 2.13437 6.64549 2.03989 6.53674 1.9661C6.428 1.89231 6.30579 1.84066 6.17709 1.8141C6.04839 1.78755 5.91572 1.7866 5.78665 1.81132C5.65758 1.83603 5.53464 1.88593 5.42486 1.95815C4.09481 2.82999 2.95132 3.9575 2.06086 5.27515C1.95904 5.4254 1.90003 5.60051 1.89015 5.78173C1.88028 5.96295 1.9199 6.14345 2.00479 6.30386C2.08967 6.46428 2.21661 6.59857 2.372 6.69234C2.52739 6.78611 2.70537 6.83583 2.88686 6.83615Z" fill="black"/>
<path d="M2.00049 11.9998C2.00031 11.3387 2.06495 10.6792 2.19349 10.0308C2.22132 9.90123 2.22312 9.76742 2.19878 9.63715C2.17444 9.50688 2.12446 9.38275 2.05172 9.27197C1.97899 9.16119 1.88496 9.06597 1.77511 8.99185C1.66525 8.91773 1.54176 8.86618 1.41181 8.8402C1.28186 8.81422 1.14804 8.81434 1.01813 8.84053C0.88822 8.86673 0.764814 8.91848 0.655083 8.99279C0.545352 9.06709 0.451485 9.16247 0.378937 9.27337C0.30639 9.38427 0.25661 9.50849 0.232491 9.6388C-0.0774969 11.1996 -0.0774969 12.806 0.232491 14.3668C0.278597 14.5927 0.401327 14.7957 0.57991 14.9415C0.758493 15.0872 0.98196 15.1668 1.21249 15.1668C1.27962 15.1671 1.34661 15.1607 1.41249 15.1478C1.67253 15.0957 1.90123 14.9424 2.04825 14.7217C2.19528 14.5009 2.2486 14.2308 2.19649 13.9708C2.06674 13.3218 2.00109 12.6616 2.00049 11.9998Z" fill="black"/>
<path d="M6.52906 20.3724C5.41811 19.646 4.46287 18.7058 3.71906 17.6064C3.64532 17.4977 3.55089 17.4045 3.44116 17.3323C3.33142 17.2601 3.20853 17.2101 3.07951 17.1854C2.81892 17.1354 2.54916 17.191 2.32956 17.3399C2.10996 17.4888 1.95852 17.7189 1.90854 17.9795C1.85856 18.2401 1.91414 18.5098 2.06306 18.7294C2.95534 20.0471 4.10092 21.1739 5.43306 22.0444C5.65478 22.1903 5.92537 22.2421 6.1853 22.1885C6.44522 22.1348 6.67319 21.9801 6.81906 21.7584C6.96493 21.5367 7.01675 21.2661 6.96311 21.0062C6.90948 20.7463 6.75478 20.5183 6.53306 20.3724H6.52906Z" fill="black"/>
<path d="M12.0006 0C11.2724 0.00124052 10.5458 0.0681785 9.82965 0.2C9.58384 0.244507 9.36359 0.379402 9.21224 0.578139C9.0609 0.776877 8.98941 1.02506 9.01186 1.27386C9.03431 1.52265 9.14906 1.75404 9.33353 1.92247C9.51801 2.09091 9.75884 2.18421 10.0086 2.184C10.0693 2.18355 10.1298 2.1782 10.1896 2.168C10.787 2.05729 11.3931 2.00106 12.0006 2V22C11.3933 22.0003 10.7871 21.9454 10.1896 21.836C9.92868 21.7883 9.65943 21.8461 9.44113 21.9969C9.22284 22.1477 9.07339 22.379 9.02565 22.64C8.97791 22.901 9.0358 23.1702 9.18658 23.3885C9.33736 23.6068 9.56868 23.7563 9.82965 23.804C11.5603 24.1206 13.3394 24.053 15.0411 23.6062C16.7427 23.1593 18.3255 22.344 19.6773 21.218C21.0291 20.092 22.117 18.6827 22.8641 17.0898C23.6112 15.4969 23.9992 13.7594 24.0006 12C23.9972 8.81846 22.7318 5.76821 20.4821 3.51852C18.2324 1.26883 15.1822 0.00344108 12.0006 0V0Z" fill="black"/>
</g>
<defs>
<clipPath id="clip0_403_2812">
<rect width="24" height="24" fill="white"/>
</clipPath>
</defs>
</svg>
