<svg width="24" height="24" viewBox="0 0 24 24" fill="none" xmlns="http://www.w3.org/2000/svg">
<g clip-path="url(#clip0_403_2817)">
<path d="M21 7.99972H17C16.2044 7.99972 15.4413 8.31579 14.8787 8.8784C14.3161 9.44101 14 10.2041 14 10.9997V15.9997H12V11.9997C11.9994 10.9263 11.7108 9.87262 11.1643 8.94867C10.6178 8.02472 9.83344 7.26431 8.893 6.74672C9.43391 6.18023 9.7966 5.4674 9.93607 4.69666C10.0755 3.92592 9.98567 3.13119 9.67759 2.41106C9.36952 1.69094 8.8568 1.07711 8.20304 0.645719C7.54928 0.214332 6.78326 -0.015625 6 -0.015625C5.21674 -0.015625 4.45072 0.214332 3.79696 0.645719C3.1432 1.07711 2.63048 1.69094 2.32241 2.41106C2.01433 3.13119 1.92445 3.92592 2.06393 4.69666C2.2034 5.4674 2.56609 6.18023 3.107 6.74672C2.16656 7.26431 1.3822 8.02472 0.835712 8.94867C0.289224 9.87262 0.000622181 10.9263 0 11.9997L0 22.9997C0 23.2649 0.105357 23.5193 0.292893 23.7068C0.48043 23.8944 0.734784 23.9997 1 23.9997C1.26522 23.9997 1.51957 23.8944 1.70711 23.7068C1.89464 23.5193 2 23.2649 2 22.9997V17.9997H22V22.9997C22 23.2649 22.1054 23.5193 22.2929 23.7068C22.4804 23.8944 22.7348 23.9997 23 23.9997C23.2652 23.9997 23.5196 23.8944 23.7071 23.7068C23.8946 23.5193 24 23.2649 24 22.9997V10.9997C24 10.2041 23.6839 9.44101 23.1213 8.8784C22.5587 8.31579 21.7956 7.99972 21 7.99972ZM4 3.99972C4 3.60416 4.1173 3.21748 4.33706 2.88858C4.55682 2.55968 4.86918 2.30334 5.23463 2.15196C5.60009 2.00059 6.00222 1.96098 6.39018 2.03815C6.77814 2.11532 7.13451 2.3058 7.41421 2.58551C7.69392 2.86521 7.8844 3.22158 7.96157 3.60954C8.03874 3.9975 7.99913 4.39964 7.84776 4.76509C7.69638 5.13054 7.44004 5.4429 7.11114 5.66266C6.78224 5.88242 6.39556 5.99972 6 5.99972C5.46957 5.99972 4.96086 5.78901 4.58579 5.41393C4.21071 5.03886 4 4.53015 4 3.99972ZM6 7.99972C7.06087 7.99972 8.07828 8.42115 8.82843 9.17129C9.57857 9.92144 10 10.9389 10 11.9997V15.9997H2V11.9997C2 10.9389 2.42143 9.92144 3.17157 9.17129C3.92172 8.42115 4.93913 7.99972 6 7.99972ZM16 15.9997V10.9997C16 10.7345 16.1054 10.4802 16.2929 10.2926C16.4804 10.1051 16.7348 9.99972 17 9.99972H18V10.9997C18 11.2649 18.1054 11.5193 18.2929 11.7068C18.4804 11.8944 18.7348 11.9997 19 11.9997C19.2652 11.9997 19.5196 11.8944 19.7071 11.7068C19.8946 11.5193 20 11.2649 20 10.9997V9.99972H21C21.2652 9.99972 21.5196 10.1051 21.7071 10.2926C21.8946 10.4802 22 10.7345 22 10.9997V15.9997H16Z" fill="black"/>
</g>
<defs>
<clipPath id="clip0_403_2817">
<rect width="24" height="24" fill="white"/>
</clipPath>
</defs>
</svg>
