<svg width="24" height="24" viewBox="0 0 24 24" fill="none" xmlns="http://www.w3.org/2000/svg">
<g clip-path="url(#clip0_403_2819)">
<path d="M23.099 0.899786C22.5154 0.343808 21.7402 0.0336914 20.934 0.0336914C20.1279 0.0336914 19.3527 0.343808 18.769 0.899786L7.56205 12.0998C7.21339 12.0327 6.8591 11.9992 6.50405 11.9998C5.78225 11.9977 5.06721 12.1388 4.40034 12.415C3.73347 12.6912 3.12802 13.097 2.61905 13.6088C1.26705 14.9618 0.313046 18.5918 0.0300459 20.5628C-0.0327343 20.9891 -0.00290607 21.4241 0.1175 21.8379C0.237906 22.2517 0.446063 22.6347 0.727801 22.9609C1.00954 23.287 1.35824 23.5486 1.75017 23.7279C2.1421 23.9072 2.56806 23.9999 2.99905 23.9998C3.14593 23.9998 3.29263 23.9895 3.43805 23.9688C5.40905 23.6858 9.03805 22.7318 10.392 21.3798C11.0278 20.7422 11.4971 19.9581 11.7587 19.0965C12.0203 18.2349 12.0661 17.3222 11.892 16.4388L23.099 5.22978C23.6717 4.65478 23.9932 3.87631 23.9932 3.06478C23.9932 2.25326 23.6717 1.47478 23.099 0.899786ZM8.97605 19.9658C8.25105 20.6908 5.47605 21.6548 3.15205 21.9888C2.99673 22.0112 2.83833 21.9973 2.68928 21.9482C2.54024 21.8991 2.40461 21.8161 2.29305 21.7058C2.18188 21.5948 2.09842 21.4592 2.04943 21.3099C2.00043 21.1607 1.98728 21.002 2.01105 20.8468C2.34405 18.5238 3.31105 15.7468 4.03305 15.0228C4.69929 14.4227 5.57042 14.1012 6.46674 14.1246C7.36307 14.1481 8.21622 14.5146 8.85024 15.1486C9.48425 15.7826 9.85076 16.6357 9.87417 17.5321C9.89758 18.4284 9.5761 19.2995 8.97605 19.9658ZM21.687 3.81578L11.066 14.4378C10.6714 13.8403 10.1615 13.3276 9.56605 12.9298L20.183 2.31178C20.3851 2.11886 20.6537 2.01121 20.933 2.01121C21.2124 2.01121 21.481 2.11886 21.683 2.31178C21.7822 2.41017 21.861 2.52717 21.9149 2.65607C21.9688 2.78497 21.9968 2.92324 21.9972 3.06295C21.9975 3.20267 21.9703 3.34108 21.9171 3.47027C21.8639 3.59945 21.7857 3.71686 21.687 3.81578Z" fill="black"/>
</g>
<defs>
<clipPath id="clip0_403_2819">
<rect width="24" height="24" fill="white"/>
</clipPath>
</defs>
</svg>
