<svg width="24" height="24" viewBox="0 0 24 24" fill="none" xmlns="http://www.w3.org/2000/svg">
<g clip-path="url(#clip0_403_2821)">
<path d="M17.1148 8.0503C16.8281 8.12647 16.5704 8.28595 16.3744 8.50856C16.1783 8.73117 16.0526 9.00692 16.0133 9.30095C15.9739 9.59498 16.0226 9.89408 16.1532 10.1604C16.2838 10.4268 16.4905 10.6484 16.7471 10.7973C17.0036 10.9462 17.2986 11.0157 17.5947 10.997C17.8907 10.9783 18.1746 10.8722 18.4104 10.6922C18.6461 10.5121 18.8232 10.2662 18.9193 9.98555C19.0153 9.70487 19.0259 9.40202 18.9498 9.11529C18.8993 8.92486 18.8118 8.74625 18.6922 8.58966C18.5726 8.43307 18.4234 8.30157 18.253 8.20267C18.0826 8.10377 17.8943 8.03941 17.6991 8.01326C17.5038 7.98712 17.3053 7.9997 17.1148 8.0503Z" fill="black"/>
<path d="M12.1148 5.0503C11.8281 5.12647 11.5704 5.28595 11.3744 5.50856C11.1783 5.73117 11.0526 6.00693 11.0133 6.30095C10.9739 6.59498 11.0226 6.89408 11.1532 7.16043C11.2838 7.42678 11.4905 7.64842 11.7471 7.79733C12.0036 7.94624 12.2986 8.01573 12.5946 7.99701C12.8907 7.97829 13.1746 7.87221 13.4103 7.69217C13.6461 7.51214 13.8232 7.26623 13.9192 6.98555C14.0153 6.70487 14.0259 6.40202 13.9498 6.1153C13.8993 5.92486 13.8117 5.74625 13.6922 5.58966C13.5726 5.43307 13.4234 5.30157 13.2529 5.20267C13.0825 5.10377 12.8943 5.03941 12.699 5.01327C12.5038 4.98712 12.3052 4.9997 12.1148 5.0503Z" fill="black"/>
<path d="M7.11483 8.0503C6.82812 8.12647 6.57044 8.28595 6.37437 8.50856C6.17829 8.73117 6.05263 9.00692 6.01327 9.30095C5.9739 9.59498 6.0226 9.89408 6.15322 10.1604C6.28383 10.4268 6.49048 10.6484 6.74705 10.7973C7.00362 10.9462 7.29858 11.0157 7.59464 10.997C7.8907 10.9783 8.17457 10.8722 8.41034 10.6922C8.64611 10.5121 8.82321 10.2662 8.91923 9.98555C9.01526 9.70487 9.0259 9.40202 8.94982 9.11529C8.89929 8.92486 8.81174 8.74625 8.69217 8.58966C8.5726 8.43307 8.42335 8.30157 8.25294 8.20267C8.08254 8.10377 7.89432 8.03941 7.69904 8.01326C7.50376 7.98712 7.30524 7.9997 7.11483 8.0503Z" fill="black"/>
<path d="M7.11483 14.0503C6.82812 14.1265 6.57044 14.2859 6.37437 14.5086C6.17829 14.7312 6.05263 15.0069 6.01327 15.301C5.9739 15.595 6.0226 15.8941 6.15322 16.1604C6.28383 16.4268 6.49048 16.6484 6.74705 16.7973C7.00362 16.9462 7.29858 17.0157 7.59464 16.997C7.8907 16.9783 8.17457 16.8722 8.41034 16.6922C8.64611 16.5121 8.82321 16.2662 8.91923 15.9856C9.01526 15.7049 9.0259 15.402 8.94982 15.1153C8.89929 14.9249 8.81174 14.7462 8.69217 14.5897C8.5726 14.4331 8.42335 14.3016 8.25294 14.2027C8.08254 14.1038 7.89432 14.0394 7.69904 14.0133C7.50376 13.9871 7.30524 13.9997 7.11483 14.0503Z" fill="black"/>
<path d="M12.501 0.0067597C10.891 -0.049222 9.28617 0.21955 7.78225 0.797052C6.27834 1.37455 4.9061 2.24896 3.74735 3.36814C2.5886 4.48733 1.66706 5.82837 1.03768 7.31132C0.408295 8.79428 0.0839511 10.3888 0.0839844 11.9998C0.0876896 15.1812 1.35316 18.2313 3.6028 20.4809C5.85243 22.7306 8.90252 23.9961 12.084 23.9998C12.422 23.9998 12.754 23.9778 13.084 23.9498C13.3344 23.9287 13.5677 23.8141 13.7374 23.6288C13.9071 23.4435 14.0009 23.201 14 22.9498L13.968 19.3618C13.9599 18.6527 14.1633 17.9574 14.5522 17.3645C14.9412 16.7716 15.498 16.3081 16.1516 16.0331C16.8052 15.7582 17.5259 15.6842 18.2217 15.8208C18.9175 15.9573 19.5568 16.2982 20.058 16.7998L20.158 16.8998C20.385 17.1287 20.6662 17.2965 20.9755 17.3876C21.2848 17.4787 21.6121 17.4901 21.927 17.4208C22.2368 17.3557 22.5252 17.2139 22.7659 17.0082C23.0065 16.8025 23.1915 16.5397 23.304 16.2438C23.8561 14.7941 24.12 13.2505 24.081 11.6998C23.9684 8.65377 22.7156 5.76124 20.5708 3.59549C18.426 1.42974 15.5457 0.148872 12.501 0.0067597ZM21.483 15.4068L21.469 15.3928C20.6873 14.6124 19.6912 14.0822 18.6074 13.8696C17.5235 13.657 16.4009 13.7716 15.3824 14.1989C14.3638 14.6261 13.4954 15.3467 12.8876 16.2689C12.2798 17.1911 11.96 18.2733 11.969 19.3778L11.993 21.9998C9.34082 21.9878 6.80202 20.9228 4.9351 19.039C3.06817 17.1552 2.02605 14.6069 2.03798 11.9548C2.04992 9.3026 3.11493 6.7638 4.99874 4.89687C6.88254 3.02995 9.43082 1.98782 12.083 1.99976C12.2 1.99976 12.318 1.99976 12.436 2.00576C14.9724 2.12489 17.3715 3.1925 19.1578 4.99702C20.9442 6.80155 21.9875 9.2113 22.081 11.7488C22.114 12.9923 21.9121 14.231 21.486 15.3998L21.483 15.4068Z" fill="black"/>
</g>
<defs>
<clipPath id="clip0_403_2821">
<rect width="24" height="24" fill="white"/>
</clipPath>
</defs>
</svg>
