<svg width="24" height="24" viewBox="0 0 24 24" fill="none" xmlns="http://www.w3.org/2000/svg">
<g clip-path="url(#clip0_403_2827)">
<path d="M23.1202 0.88238C22.7617 0.519508 22.3157 0.255235 21.8252 0.115097C21.3347 -0.0250423 20.8163 -0.0363107 20.3202 0.0823801L4.32023 3.45238C3.39881 3.57875 2.53096 3.95986 1.81443 4.55279C1.0979 5.14573 0.561144 5.92694 0.264606 6.80844C-0.0319323 7.68995 -0.0764718 8.63674 0.136003 9.5422C0.348478 10.4476 0.809528 11.2758 1.46723 11.9334L3.18523 13.6504C3.27822 13.7433 3.35196 13.8537 3.40223 13.9752C3.45251 14.0967 3.47833 14.2269 3.47823 14.3584V17.5264C3.48044 17.9718 3.58298 18.411 3.77823 18.8114L3.77023 18.8184L3.79623 18.8444C4.08924 19.4335 4.56781 19.91 5.15823 20.2004L5.18423 20.2264L5.19123 20.2184C5.59159 20.4136 6.0308 20.5162 6.47623 20.5184H9.64423C9.90928 20.5182 10.1636 20.6232 10.3512 20.8104L12.0682 22.5274C12.5288 22.993 13.0769 23.3629 13.681 23.6157C14.2851 23.8685 14.9333 23.9992 15.5882 24.0004C16.134 23.9997 16.676 23.9105 17.1932 23.7364C18.0667 23.4496 18.8426 22.9244 19.4335 22.2201C20.0243 21.5158 20.4066 20.6604 20.5372 19.7504L23.9122 3.71538C24.0371 3.21502 24.0297 2.6908 23.8909 2.19414C23.752 1.69749 23.4865 1.24545 23.1202 0.88238ZM4.60123 12.2384L2.88223 10.5214C2.48195 10.1307 2.2014 9.63403 2.07352 9.08954C1.94563 8.54505 1.97571 7.97537 2.16023 7.44738C2.33913 6.9057 2.66984 6.42681 3.11303 6.06764C3.55622 5.70848 4.09324 5.48417 4.66023 5.42138L20.5012 2.08638L5.47623 17.1134V14.3584C5.47775 13.9647 5.40119 13.5747 5.251 13.2108C5.10081 12.8469 4.87996 12.5164 4.60123 12.2384ZM18.5722 19.4084C18.4954 19.9607 18.2662 20.4807 17.9103 20.91C17.5544 21.3393 17.0859 21.6609 16.5574 21.8387C16.0288 22.0165 15.4612 22.0435 14.9182 21.9166C14.3751 21.7897 13.8782 21.514 13.4832 21.1204L11.7632 19.4004C11.4856 19.1212 11.1554 18.8999 10.7917 18.7492C10.4279 18.5985 10.0379 18.5214 9.64423 18.5224H6.88923L21.9162 3.50038L18.5722 19.4084Z" fill="black"/>
</g>
<defs>
<clipPath id="clip0_403_2827">
<rect width="24" height="24" fill="white"/>
</clipPath>
</defs>
</svg>
