<svg width="24" height="24" viewBox="0 0 24 24" fill="none" xmlns="http://www.w3.org/2000/svg">
<path d="M15.0006 16.9996C15.0006 17.2648 14.8952 17.5191 14.7077 17.7067C14.5201 17.8942 14.2658 17.9996 14.0006 17.9996H10.0006C9.73535 17.9996 9.481 17.8942 9.29346 17.7067C9.10593 17.5191 9.00057 17.2648 9.00057 16.9996C9.00057 16.7344 9.10593 16.48 9.29346 16.2925C9.481 16.1049 9.73535 15.9996 10.0006 15.9996H14.0006C14.2658 15.9996 14.5201 16.1049 14.7077 16.2925C14.8952 16.48 15.0006 16.7344 15.0006 16.9996ZM14.7076 7.29259C14.52 7.10512 14.2657 6.99981 14.0006 6.99981C13.7354 6.99981 13.4811 7.10512 13.2936 7.29259L12.0006 8.58559L10.7076 7.29259C10.6153 7.19708 10.505 7.1209 10.383 7.06849C10.261 7.01608 10.1297 6.9885 9.99697 6.98734C9.86419 6.98619 9.73251 7.01149 9.60962 7.06177C9.48672 7.11205 9.37507 7.1863 9.28117 7.2802C9.18728 7.37409 9.11303 7.48574 9.06275 7.60864C9.01247 7.73153 8.98716 7.86321 8.98832 7.99599C8.98947 8.12877 9.01706 8.25999 9.06947 8.382C9.12188 8.504 9.19806 8.61434 9.29357 8.70659L10.5866 9.99959L9.29357 11.2926C9.19806 11.3848 9.12188 11.4952 9.06947 11.6172C9.01706 11.7392 8.98947 11.8704 8.98832 12.0032C8.98716 12.136 9.01247 12.2676 9.06275 12.3905C9.11303 12.5134 9.18728 12.6251 9.28117 12.719C9.37507 12.8129 9.48672 12.8871 9.60962 12.9374C9.73251 12.9877 9.86419 13.013 9.99697 13.0118C10.1297 13.0107 10.261 12.9831 10.383 12.9307C10.505 12.8783 10.6153 12.8021 10.7076 12.7066L12.0006 11.4136L13.2936 12.7066C13.4822 12.8887 13.7348 12.9895 13.997 12.9873C14.2592 12.985 14.51 12.8798 14.6954 12.6944C14.8808 12.509 14.986 12.2582 14.9882 11.996C14.9905 11.7338 14.8897 11.4812 14.7076 11.2926L13.4146 9.99959L14.7076 8.70659C14.895 8.51906 15.0004 8.26476 15.0004 7.99959C15.0004 7.73443 14.895 7.48012 14.7076 7.29259ZM22.0006 15.9996H18.0006C17.7354 15.9996 17.481 16.1049 17.2935 16.2925C17.1059 16.48 17.0006 16.7344 17.0006 16.9996C17.0006 17.2648 17.1059 17.5191 17.2935 17.7067C17.481 17.8942 17.7354 17.9996 18.0006 17.9996H22.0006C22.2658 17.9996 22.5201 17.8942 22.7077 17.7067C22.8952 17.5191 23.0006 17.2648 23.0006 16.9996C23.0006 16.7344 22.8952 16.48 22.7077 16.2925C22.5201 16.1049 22.2658 15.9996 22.0006 15.9996ZM21.4146 9.99959L22.7076 8.70659C22.8031 8.61434 22.8793 8.504 22.9317 8.382C22.9841 8.25999 23.0117 8.12877 23.0128 7.99599C23.014 7.86321 22.9887 7.73153 22.9384 7.60864C22.8881 7.48574 22.8139 7.37409 22.72 7.2802C22.6261 7.1863 22.5144 7.11205 22.3915 7.06177C22.2686 7.01149 22.1369 6.98619 22.0042 6.98734C21.8714 6.9885 21.7402 7.01608 21.6182 7.06849C21.4962 7.1209 21.3858 7.19708 21.2936 7.29259L20.0006 8.58559L18.7076 7.29259C18.6153 7.19708 18.505 7.1209 18.383 7.06849C18.261 7.01608 18.1298 6.9885 17.997 6.98734C17.8642 6.98619 17.7325 7.01149 17.6096 7.06177C17.4867 7.11205 17.3751 7.1863 17.2812 7.2802C17.1873 7.37409 17.113 7.48574 17.0627 7.60864C17.0125 7.73153 16.9872 7.86321 16.9883 7.99599C16.9895 8.12877 17.0171 8.25999 17.0695 8.382C17.1219 8.504 17.1981 8.61434 17.2936 8.70659L18.5866 9.99959L17.2936 11.2926C17.1981 11.3848 17.1219 11.4952 17.0695 11.6172C17.0171 11.7392 16.9895 11.8704 16.9883 12.0032C16.9872 12.136 17.0125 12.2676 17.0627 12.3905C17.113 12.5134 17.1873 12.6251 17.2812 12.719C17.3751 12.8129 17.4867 12.8871 17.6096 12.9374C17.7325 12.9877 17.8642 13.013 17.997 13.0118C18.1298 13.0107 18.261 12.9831 18.383 12.9307C18.505 12.8783 18.6153 12.8021 18.7076 12.7066L20.0006 11.4136L21.2936 12.7066C21.4822 12.8887 21.7348 12.9895 21.997 12.9873C22.2592 12.985 22.51 12.8798 22.6954 12.6944C22.8808 12.509 22.986 12.2582 22.9882 11.996C22.9905 11.7338 22.8897 11.4812 22.7076 11.2926L21.4146 9.99959ZM6.00057 15.9996H2.00057C1.73535 15.9996 1.481 16.1049 1.29346 16.2925C1.10593 16.48 1.00057 16.7344 1.00057 16.9996C1.00057 17.2648 1.10593 17.5191 1.29346 17.7067C1.481 17.8942 1.73535 17.9996 2.00057 17.9996H6.00057C6.26579 17.9996 6.52014 17.8942 6.70768 17.7067C6.89521 17.5191 7.00057 17.2648 7.00057 16.9996C7.00057 16.7344 6.89521 16.48 6.70768 16.2925C6.52014 16.1049 6.26579 15.9996 6.00057 15.9996ZM6.70757 7.29259C6.52004 7.10512 6.26573 6.99981 6.00057 6.99981C5.7354 6.99981 5.4811 7.10512 5.29357 7.29259L4.00057 8.58559L2.70757 7.29259C2.61532 7.19708 2.50498 7.1209 2.38297 7.06849C2.26097 7.01608 2.12975 6.9885 1.99697 6.98734C1.86419 6.98619 1.73251 7.01149 1.60962 7.06177C1.48672 7.11205 1.37507 7.1863 1.28117 7.2802C1.18728 7.37409 1.11303 7.48574 1.06275 7.60864C1.01247 7.73153 0.987165 7.86321 0.988319 7.99599C0.989473 8.12877 1.01706 8.25999 1.06947 8.382C1.12188 8.504 1.19806 8.61434 1.29357 8.70659L2.58657 9.99959L1.29357 11.2926C1.19806 11.3848 1.12188 11.4952 1.06947 11.6172C1.01706 11.7392 0.989473 11.8704 0.988319 12.0032C0.987165 12.136 1.01247 12.2676 1.06275 12.3905C1.11303 12.5134 1.18728 12.6251 1.28117 12.719C1.37507 12.8129 1.48672 12.8871 1.60962 12.9374C1.73251 12.9877 1.86419 13.013 1.99697 13.0118C2.12975 13.0107 2.26097 12.9831 2.38297 12.9307C2.50498 12.8783 2.61532 12.8021 2.70757 12.7066L4.00057 11.4136L5.29357 12.7066C5.38582 12.8021 5.49616 12.8783 5.61817 12.9307C5.74017 12.9831 5.87139 13.0107 6.00417 13.0118C6.13695 13.013 6.26863 12.9877 6.39152 12.9374C6.51442 12.8871 6.62607 12.8129 6.71996 12.719C6.81386 12.6251 6.88811 12.5134 6.93839 12.3905C6.98867 12.2676 7.01397 12.136 7.01282 12.0032C7.01167 11.8704 6.98408 11.7392 6.93167 11.6172C6.87926 11.4952 6.80308 11.3848 6.70757 11.2926L5.41457 9.99959L6.70757 8.70659C6.89504 8.51906 7.00036 8.26476 7.00036 7.99959C7.00036 7.73443 6.89504 7.48012 6.70757 7.29259Z" fill="black"/>
</svg>
