<svg width="24" height="24" viewBox="0 0 24 24" fill="none" xmlns="http://www.w3.org/2000/svg">
<g clip-path="url(#clip0_403_2844)">
<path d="M19.9805 7.02251V1.02251C19.9805 0.757296 20.0858 0.502942 20.2733 0.315406C20.4609 0.127869 20.7152 0.0225124 20.9805 0.0225124C21.2457 0.0225124 21.5 0.127869 21.6876 0.315406C21.8751 0.502942 21.9805 0.757296 21.9805 1.02251V7.02251C21.9805 7.28773 21.8751 7.54208 21.6876 7.72962C21.5 7.91716 21.2457 8.02251 20.9805 8.02251C20.7152 8.02251 20.4609 7.91716 20.2733 7.72962C20.0858 7.54208 19.9805 7.28773 19.9805 7.02251ZM16.9805 8.02251C17.2457 8.02251 17.5 7.91716 17.6876 7.72962C17.8751 7.54208 17.9805 7.28773 17.9805 7.02251V1.02251C17.9805 0.757296 17.8751 0.502942 17.6876 0.315406C17.5 0.127869 17.2457 0.0225124 16.9805 0.0225124C16.7152 0.0225124 16.4609 0.127869 16.2733 0.315406C16.0858 0.502942 15.9805 0.757296 15.9805 1.02251V7.02251C15.9805 7.28773 16.0858 7.54208 16.2733 7.72962C16.4609 7.91716 16.7152 8.02251 16.9805 8.02251ZM23.0755 21.1385L22.1635 22.1885C13.9735 30.0285 -5.95655 10.1045 1.76345 1.88851L2.91345 0.888513C3.49528 0.324777 4.27578 0.012972 5.08587 0.0206462C5.89597 0.0283204 6.67042 0.354856 7.24145 0.929513C7.27245 0.959513 9.12345 3.36651 9.12345 3.36651C9.67326 3.94383 9.97951 4.71078 9.97858 5.50801C9.97765 6.30525 9.66961 7.07148 9.11845 7.64751L7.95845 9.09951C8.59929 10.657 9.5416 12.0726 10.7312 13.2648C11.9208 14.4569 13.3343 15.4023 14.8905 16.0465L16.3545 14.8815C16.9303 14.3298 17.6966 14.0212 18.4941 14.0199C19.2915 14.0186 20.0588 14.3247 20.6365 14.8745C20.6365 14.8745 23.0435 16.7275 23.0745 16.7585C23.6547 17.3396 23.9807 18.1271 23.9809 18.9483C23.9811 19.7695 23.6554 20.5572 23.0755 21.1385ZM21.6995 18.2155C21.6995 18.2155 19.2995 16.3735 19.2745 16.3435C19.0659 16.1442 18.7885 16.0329 18.5 16.0329C18.2114 16.0329 17.934 16.1442 17.7255 16.3435C17.6995 16.3705 15.6815 17.9785 15.6815 17.9785C15.5454 18.0865 15.3836 18.1573 15.212 18.1838C15.0403 18.2102 14.8647 18.1915 14.7025 18.1295C12.6859 17.3794 10.8542 16.2043 9.33186 14.6838C7.80951 13.1633 6.63207 11.3332 5.87945 9.31751C5.81374 9.15355 5.79263 8.9751 5.81828 8.80033C5.84392 8.62555 5.91541 8.46069 6.02545 8.32251C6.02545 8.32251 7.63245 6.30551 7.66045 6.27851C7.86503 6.07246 7.97983 5.79387 7.97983 5.50351C7.97983 5.21315 7.86503 4.93457 7.66045 4.72851C7.62845 4.69951 5.78745 2.30551 5.78745 2.30551C5.57848 2.11789 5.30566 2.0173 5.0249 2.02437C4.74415 2.03143 4.47673 2.14562 4.27745 2.34351L3.12645 3.34851C-2.51355 10.1275 14.7575 26.4415 20.6995 20.8255L21.6115 19.7755C21.826 19.5779 21.9552 19.3046 21.9716 19.0133C21.9881 18.7221 21.8904 18.436 21.6995 18.2155Z" fill="black"/>
</g>
<defs>
<clipPath id="clip0_403_2844">
<rect width="24" height="24" fill="white"/>
</clipPath>
</defs>
</svg>
