<svg width="24" height="24" viewBox="0 0 24 24" fill="none" xmlns="http://www.w3.org/2000/svg">
<g clip-path="url(#clip0_403_2846)">
<path d="M23.6992 0.307347C23.5117 0.120181 23.2576 0.0150599 22.9927 0.0150599C22.7278 0.0150599 22.4737 0.120181 22.2862 0.307347L10.0922 12.4943C9.23038 11.4637 8.51928 10.3159 7.98018 9.08535L9.13818 7.63135C9.68843 7.05577 9.99609 6.29053 9.9974 5.49425C9.9987 4.69797 9.69354 3.93172 9.14518 3.35435C9.14518 3.35435 7.29318 0.950347 7.26318 0.920347C6.69311 0.346086 5.91994 0.0192309 5.11082 0.0104361C4.30169 0.00164123 3.52161 0.311613 2.93918 0.873347L1.79018 1.87335C-2.22582 6.32135 1.15218 12.5873 5.33918 17.2443L0.299183 22.2803C0.124431 22.4702 0.0298396 22.7203 0.0351847 22.9783C0.0405298 23.2363 0.145398 23.4822 0.327863 23.6647C0.510329 23.8471 0.756266 23.952 1.01426 23.9573C1.27225 23.9627 1.52232 23.8681 1.71218 23.6933L23.6992 1.72035C23.8864 1.53286 23.9915 1.27877 23.9915 1.01385C23.9915 0.748928 23.8864 0.494834 23.6992 0.307347ZM2.00618 6.24535C1.99069 5.16269 2.40243 4.11753 3.15218 3.33635L4.30118 2.33635C4.50028 2.1386 4.76742 2.02442 5.04794 2.01717C5.32846 2.00992 5.60114 2.11015 5.81018 2.29735C5.81018 2.29735 7.65118 4.68635 7.68118 4.71635C7.8863 4.92151 8.00153 5.19974 8.00153 5.48985C8.00153 5.77996 7.8863 6.05819 7.68118 6.26335C7.65518 6.28935 6.04718 8.30035 6.04718 8.30035C5.9359 8.43886 5.86353 8.60451 5.83752 8.78027C5.81151 8.95603 5.83279 9.13555 5.89918 9.30035C6.56042 10.9816 7.49502 12.5419 8.66518 13.9183L6.75118 15.8333C3.80818 12.6743 2.00618 9.08735 2.00618 6.24535ZM23.0842 16.7333C23.6622 17.3143 23.9866 18.1004 23.9866 18.9198C23.9866 19.7393 23.6622 20.5254 23.0842 21.1063L22.1742 22.1543C18.2992 25.6813 13.5992 23.6184 9.19918 20.6453C9.09412 20.5666 9.00562 20.4678 8.93871 20.3548C8.8718 20.2418 8.82781 20.1168 8.80923 19.9868C8.77173 19.7242 8.84005 19.4575 8.99918 19.2453C9.15831 19.0332 9.39521 18.8929 9.65776 18.8554C9.92031 18.8179 10.187 18.8862 10.3992 19.0453C13.9082 21.3603 17.7312 23.3874 20.7192 20.7943L21.6302 19.7453C21.8446 19.548 21.9735 19.2747 21.9894 18.9836C22.0053 18.6926 21.9069 18.4069 21.7152 18.1873C21.7152 18.1873 19.3232 16.3473 19.2932 16.3173C19.0872 16.1134 18.8091 15.999 18.5192 15.999C18.2293 15.999 17.9512 16.1134 17.7452 16.3173C17.7182 16.3443 15.7022 17.9503 15.7022 17.9503C15.5686 18.0573 15.4097 18.1279 15.2408 18.1554C15.0719 18.1829 14.8988 18.1664 14.7382 18.1073C14.0815 17.8576 13.4427 17.5632 12.8262 17.2263C12.613 17.0919 12.4584 16.882 12.3934 16.6385C12.3284 16.395 12.3577 16.1359 12.4755 15.9131C12.5932 15.6903 12.7908 15.5202 13.0287 15.4368C13.2665 15.3534 13.527 15.3629 13.7582 15.4633C14.1292 15.6633 14.5142 15.8543 14.9142 16.0243L16.3762 14.8613C16.9519 14.3109 17.7175 14.0033 18.514 14.0022C19.3105 14.001 20.0769 14.3066 20.6542 14.8553C20.6542 14.8553 23.0532 16.7003 23.0842 16.7333Z" fill="black"/>
</g>
<defs>
<clipPath id="clip0_403_2846">
<rect width="24" height="24" fill="white"/>
</clipPath>
</defs>
</svg>
