<svg width="24" height="24" viewBox="0 0 24 24" fill="none" xmlns="http://www.w3.org/2000/svg">
<g clip-path="url(#clip0_403_2842)">
<path d="M22.9993 16.6528L20.6593 14.8528C20.0818 14.3031 19.3148 13.9971 18.5176 13.9982C17.7203 13.9993 16.9542 14.3075 16.3783 14.8588L14.9093 16.0268C13.3535 15.3828 11.9402 14.4377 10.7508 13.2459C9.56134 12.054 8.61912 10.6389 7.97828 9.0818L9.13628 7.6258C9.68799 7.04997 9.99657 6.28368 9.99788 5.4862C9.99918 4.68873 9.6931 3.92143 9.14328 3.3438L7.34528 0.999801C7.31887 0.964591 7.29014 0.931183 7.25928 0.899801C6.6882 0.325986 5.91421 -1.57347e-06 5.10468 -0.00767395C4.29515 -0.0153463 3.51513 0.295913 2.93328 0.858801L1.78328 1.8588C-5.93572 10.0688 13.9833 30.0038 22.1833 22.1588L23.0933 21.1098C23.6728 20.5287 23.9982 19.7415 23.9982 18.9208C23.9982 18.1001 23.6728 17.3129 23.0933 16.7318C23.0634 16.7038 23.032 16.6774 22.9993 16.6528ZM21.6353 19.7528L20.7243 20.8028C14.7873 26.4178 -2.50072 10.1138 3.14628 3.3248L4.29628 2.3248C4.49542 2.12676 4.76277 2.0124 5.04352 2.00515C5.32428 1.9979 5.59718 2.09831 5.80628 2.2858L7.59228 4.6088C7.61846 4.64419 7.6472 4.67762 7.67828 4.7088C7.88254 4.91481 7.99715 5.19318 7.99715 5.4833C7.99715 5.77342 7.88254 6.05179 7.67828 6.2578C7.65014 6.28334 7.62374 6.31073 7.59928 6.3398L6.04328 8.2998C5.93249 8.4386 5.86066 8.60439 5.83518 8.78014C5.8097 8.95589 5.83147 9.13526 5.89828 9.2998C6.65142 11.3149 7.82895 13.1445 9.35104 14.6647C10.8731 16.1849 12.7043 17.3602 14.7203 18.1108C14.8826 18.1727 15.0583 18.1912 15.2299 18.1646C15.4016 18.1379 15.5634 18.067 15.6993 17.9588L17.6593 16.3998C17.6887 16.3761 17.7167 16.3507 17.7433 16.3238C17.8546 16.2164 17.9868 16.133 18.1316 16.0788C18.2765 16.0247 18.431 16.0009 18.5855 16.009C18.7399 16.017 18.8911 16.0568 19.0295 16.1257C19.168 16.1947 19.2908 16.2914 19.3903 16.4098L21.7163 18.1968C21.907 18.4166 22.0047 18.7019 21.9888 18.9925C21.973 19.2831 21.8448 19.5561 21.6313 19.7538L21.6353 19.7528ZM23.7063 6.2928C23.8884 6.4814 23.9892 6.734 23.9869 6.9962C23.9847 7.2584 23.8795 7.50921 23.6941 7.69462C23.5087 7.88003 23.2579 7.9852 22.9957 7.98747C22.7335 7.98975 22.4809 7.88896 22.2923 7.7068L19.9993 5.4138L17.7063 7.7068C17.5177 7.88896 17.2651 7.98975 17.0029 7.98747C16.7407 7.9852 16.4899 7.88003 16.3045 7.69462C16.119 7.50921 16.0139 7.2584 16.0116 6.9962C16.0093 6.734 16.1101 6.4814 16.2923 6.2928L18.5853 3.9998L16.2923 1.7068C16.1101 1.5182 16.0093 1.2656 16.0116 1.0034C16.0139 0.741203 16.119 0.49039 16.3045 0.304982C16.4899 0.119574 16.7407 0.0144052 17.0029 0.0121268C17.2651 0.00984839 17.5177 0.110643 17.7063 0.292801L19.9993 2.5858L22.2923 0.292801C22.4809 0.110643 22.7335 0.00984839 22.9957 0.0121268C23.2579 0.0144052 23.5087 0.119574 23.6941 0.304982C23.8795 0.49039 23.9847 0.741203 23.9869 1.0034C23.9892 1.2656 23.8884 1.5182 23.7063 1.7068L21.4133 3.9998L23.7063 6.2928Z" fill="black"/>
</g>
<defs>
<clipPath id="clip0_403_2842">
<rect width="24" height="24" fill="white"/>
</clipPath>
</defs>
</svg>
