<svg width="24" height="24" viewBox="0 0 24 24" fill="none" xmlns="http://www.w3.org/2000/svg">
<g clip-path="url(#clip0_403_2848)">
<path d="M22.5626 1.43717C20.1886 -0.936832 16.6436 -0.357832 11.9996 3.13716C7.35662 -0.357832 3.81262 -0.937832 1.43662 1.43717C-0.939379 3.81216 -0.358379 7.35616 3.13662 12.0002C-0.358379 16.6431 -0.938379 20.1881 1.43662 22.5631C1.88192 23.0249 2.41701 23.3906 3.00897 23.6377C3.60092 23.8848 4.2372 24.0082 4.87862 24.0001C6.84962 24.0001 9.22962 22.9481 11.9996 20.8641C14.7686 22.9481 17.1486 24.0001 19.1206 24.0001C19.762 24.0082 20.3983 23.8848 20.9903 23.6377C21.5822 23.3906 22.1173 23.0249 22.5626 22.5631C24.9376 20.1881 24.3626 16.6441 20.8626 12.0002C24.3576 7.35616 24.9376 3.81216 22.5626 1.43717ZM19.0846 2.02816C19.4668 2.01666 19.8473 2.08337 20.2027 2.22421C20.5581 2.36504 20.8811 2.57703 21.1516 2.84716C22.8976 4.59416 21.6076 7.56016 19.5636 10.3862C18.7256 9.39816 17.7816 8.37116 16.7056 7.29416C15.6296 6.21716 14.5996 5.27316 13.6116 4.43416C15.5096 3.06116 17.4716 2.02816 19.0846 2.02816ZM18.3106 12.0002C17.2996 13.2202 16.2286 14.3611 15.2946 15.3001C14.3606 16.2391 13.2196 17.3001 11.9996 18.3111C10.7796 17.3001 9.63862 16.2291 8.70462 15.3001C7.77062 14.3712 6.69962 13.2202 5.68862 12.0002C6.69962 10.7802 7.77062 9.63815 8.70462 8.70516C9.63862 7.77216 10.7796 6.70016 11.9996 5.68816C13.2196 6.69816 14.3606 7.77116 15.2996 8.70516C16.2386 9.63916 17.2996 10.7802 18.3106 12.0002ZM2.84762 2.84816C3.11789 2.57756 3.44073 2.3652 3.79623 2.22417C4.15173 2.08314 4.53235 2.01643 4.91462 2.02816C6.52762 2.02816 8.48962 3.06116 10.3876 4.43416C9.39962 5.27316 8.37162 6.21716 7.29362 7.29416C6.21562 8.37116 5.27362 9.39416 4.43462 10.3862C2.39162 7.56016 1.09962 4.59416 2.84762 2.84816ZM2.84762 21.1481C1.10162 19.4021 2.39162 16.4351 4.43462 13.6102C5.27362 14.5981 6.21762 15.6251 7.29362 16.7021C8.36962 17.7791 9.39362 18.7251 10.3826 19.5631C7.55762 21.6091 4.59162 22.9001 2.84762 21.1521V21.1481ZM21.1476 21.1481C19.4026 22.8921 16.4376 21.6051 13.6126 19.5631C14.5986 18.7251 15.6266 17.7761 16.7016 16.7021C17.7766 15.6281 18.7216 14.6021 19.5596 13.6102C21.6076 16.4401 22.8996 19.4061 21.1516 21.1521L21.1476 21.1481Z" fill="black"/>
<path d="M12 14.0005C13.1046 14.0005 14 13.1051 14 12.0005C14 10.8959 13.1046 10.0005 12 10.0005C10.8954 10.0005 10 10.8959 10 12.0005C10 13.1051 10.8954 14.0005 12 14.0005Z" fill="black"/>
</g>
<defs>
<clipPath id="clip0_403_2848">
<rect width="24" height="24" fill="white"/>
</clipPath>
</defs>
</svg>
