<svg width="24" height="24" viewBox="0 0 24 24" fill="none" xmlns="http://www.w3.org/2000/svg">
<g clip-path="url(#clip0_403_2854)">
<path d="M21.2603 2.73897C19.5437 1.0795 17.2822 0.10103 14.8974 -0.0139669C12.5127 -0.128964 10.1675 0.627367 8.29926 2.11397C7.89389 1.46348 7.32871 0.927606 6.65756 0.557418C5.98642 0.187229 5.23166 -0.004948 4.46521 -0.000805283C3.69875 0.00333743 2.94612 0.203662 2.27901 0.581084C1.61191 0.958506 1.05255 1.50045 0.654237 2.1553C0.25592 2.81014 0.0319083 3.55606 0.00354393 4.32201C-0.0248205 5.08795 0.143407 5.8484 0.492199 6.53091C0.840991 7.21342 1.35873 7.79525 1.99609 8.22098C2.63345 8.64671 3.36921 8.90215 4.13326 8.96298C3.8182 10.8939 4.1125 12.875 4.97526 14.631C5.02223 14.721 5.04069 14.8231 5.02818 14.9239C5.01568 15.0246 4.97281 15.1192 4.90526 15.195L1.99926 16.945C1.25978 17.3343 0.671861 17.9599 0.329169 18.7221C-0.0135229 19.4843 -0.0912746 20.3393 0.108301 21.1508C0.307876 21.9624 0.773297 22.6838 1.43042 23.2001C2.08754 23.7165 2.89855 23.998 3.73426 24C3.88699 24 4.03959 23.9909 4.19126 23.973C4.747 23.9083 5.28087 23.7186 5.75281 23.4181C6.22476 23.1176 6.62252 22.7142 6.91626 22.238L8.98426 19.111C9.05884 19.038 9.15437 18.9902 9.25748 18.9742C9.36059 18.9583 9.46611 18.975 9.55926 19.022C11.426 19.9258 13.5339 20.205 15.5716 19.8184C17.6092 19.4317 19.4684 18.3997 20.8743 16.875C22.788 14.9897 23.9064 12.4427 23.9993 9.75798C24.051 8.46244 23.8344 7.1702 23.363 5.96234C22.8917 4.75448 22.1758 3.65707 21.2603 2.73897ZM1.99926 4.49997C1.99926 4.00552 2.14588 3.52217 2.42059 3.11105C2.69529 2.69993 3.08574 2.37949 3.54255 2.19028C3.99937 2.00106 4.50203 1.95155 4.98699 2.04801C5.47194 2.14447 5.9174 2.38258 6.26703 2.73221C6.61666 3.08184 6.85476 3.5273 6.95122 4.01225C7.04769 4.4972 6.99818 4.99987 6.80896 5.45668C6.61974 5.9135 6.29931 6.30395 5.88819 6.57865C5.47706 6.85335 4.99371 6.99997 4.49926 6.99997C3.83622 6.99997 3.20033 6.73658 2.73149 6.26774C2.26265 5.7989 1.99926 5.16302 1.99926 4.49997ZM10.4393 17.226C9.9383 16.978 9.36854 16.9055 8.82143 17.0201C8.27432 17.1347 7.78157 17.4298 7.42226 17.858C7.39826 17.887 7.37626 17.917 7.35526 17.948L5.22826 21.166C5.01861 21.5088 4.69691 21.7685 4.31766 21.9012C3.93841 22.034 3.52493 22.0315 3.14728 21.8943C2.76963 21.7571 2.45103 21.4935 2.24545 21.1483C2.03987 20.8031 1.95996 20.3974 2.01926 20C2.06211 19.7201 2.17183 19.4547 2.33913 19.2263C2.50643 18.9979 2.72636 18.8132 2.98026 18.688L6.02126 16.857C6.06562 16.8304 6.10776 16.8003 6.14726 16.767C6.57433 16.407 6.86796 15.9138 6.98095 15.3668C7.09395 14.8198 7.01974 14.2507 6.77026 13.751C6.11722 12.433 5.87576 10.949 6.07726 9.49197L14.5103 17.925C13.1143 18.0882 11.7008 17.8455 10.4393 17.226ZM19.4603 15.461C18.6746 16.2484 17.7478 16.8811 16.7283 17.326C16.7193 17.316 16.7163 17.303 16.7063 17.293L7.35926 7.94497C7.86973 7.5272 8.28147 7.00169 8.565 6.40611C8.84853 5.81052 8.99683 5.1596 8.99926 4.49997C8.99926 4.38097 8.97326 4.26897 8.96426 4.15297C10.4448 2.78261 12.3879 2.02138 14.4053 2.02138C16.4226 2.02138 18.3657 2.78261 19.8463 4.15297C20.5683 4.87906 21.1324 5.74669 21.5029 6.70131C21.8734 7.65593 22.0424 8.67688 21.9993 9.69998C21.9209 11.8744 21.0123 13.9361 19.4603 15.461Z" fill="black"/>
</g>
<defs>
<clipPath id="clip0_403_2854">
<rect width="24" height="24" fill="white"/>
</clipPath>
</defs>
</svg>
