<svg width="24" height="24" viewBox="0 0 24 24" fill="none" xmlns="http://www.w3.org/2000/svg">
<g clip-path="url(#clip0_403_2856)">
<path d="M23.2008 0.800232C22.83 0.426245 22.3584 0.168144 21.8435 0.0573547C21.3286 -0.0534347 20.7926 -0.0121326 20.3008 0.176232L3.15581 6.92923C2.03544 7.37231 1.11387 8.20682 0.56216 9.27788C0.0104478 10.3489 -0.133933 11.5838 0.155817 12.7532C0.882849 15.407 2.28801 17.8259 4.23314 19.7721C6.17827 21.7183 8.59641 23.1248 11.2498 23.8532C12.4205 24.1412 13.6558 23.9949 14.7269 23.4416C15.7979 22.8884 16.6321 21.9656 17.0748 20.8442L23.8328 3.67223C24.015 3.18347 24.0523 2.6525 23.9402 2.14305C23.8281 1.63361 23.5714 1.16735 23.2008 0.800232ZM11.7468 21.9112C9.43785 21.2775 7.33349 20.054 5.64053 18.3609C3.94757 16.6677 2.72426 14.5633 2.09081 12.2542C1.94474 11.6584 1.98809 11.0319 2.21483 10.462C2.44157 9.89197 2.84041 9.40688 3.35581 9.07423C3.45919 12.1099 4.71115 14.9932 6.85868 17.1413C9.0062 19.2894 11.8891 20.5421 14.9248 20.6462C14.5925 21.1615 14.1077 21.5602 13.5381 21.787C12.9685 22.0137 12.3423 22.0572 11.7468 21.9112ZM15.7738 18.6842C9.58281 18.5842 5.41881 14.4192 5.31781 8.22723L21.0108 2.04723C21.1418 1.997 21.2847 1.98633 21.4218 2.01655C21.5589 2.04677 21.684 2.11655 21.7818 2.21723C21.8815 2.31051 21.9518 2.43094 21.984 2.56367C22.0162 2.6964 22.0088 2.83564 21.9628 2.96423L21.3008 4.64523C15.5428 2.66523 12.3588 10.8542 17.8878 13.3132L15.7738 18.6842ZM18.6208 11.4522C17.9936 11.1757 17.4977 10.6673 17.237 10.0334C16.9762 9.39947 16.9708 8.68926 17.2219 8.05147C17.473 7.41369 17.9612 6.89778 18.5841 6.6118C19.207 6.32581 19.9164 6.29192 20.5638 6.51723L18.6208 11.4522Z" fill="black"/>
<path d="M11 9C10.4696 9 9.96086 9.21071 9.58579 9.58579C9.21071 9.96086 9 10.4696 9 11C9 11.5304 9.21071 12.0391 9.58579 12.4142C9.96086 12.7893 10.4696 13 11 13C11.5304 13 12.0391 12.7893 12.4142 12.4142C12.7893 12.0391 13 11.5304 13 11C13 10.4696 12.7893 9.96086 12.4142 9.58579C12.0391 9.21071 11.5304 9 11 9Z" fill="black"/>
</g>
<defs>
<clipPath id="clip0_403_2856">
<rect width="24" height="24" fill="white"/>
</clipPath>
</defs>
</svg>
