<svg width="24" height="24" viewBox="0 0 24 24" fill="none" xmlns="http://www.w3.org/2000/svg">
<g clip-path="url(#clip0_403_2859)">
<path d="M21 10H17.693L13.4459 1.563C13.1878 1.0899 12.8069 0.695073 12.3434 0.420035C11.8799 0.144997 11.3509 -9.72477e-05 10.8119 2.5083e-06H10.6299C10.2218 -0.000561108 9.81917 0.0938663 9.45384 0.275813C9.08851 0.457759 8.77055 0.722231 8.5251 1.0483C8.27965 1.37437 8.11345 1.75309 8.03966 2.15449C7.96587 2.55589 7.98651 2.96896 8.09995 3.361L10.0279 10H7.64395C7.2497 10.001 6.85916 9.92388 6.49492 9.77301C6.13069 9.62213 5.79998 9.40052 5.52195 9.121L4.10495 7.7C3.74277 7.33819 3.27474 7.10117 2.76876 7.02331C2.26278 6.94545 1.74514 7.03081 1.29095 7.267C1.00991 7.412 0.76149 7.61295 0.560972 7.85749C0.360454 8.10203 0.212072 8.385 0.124948 8.689C0.0285895 9.01517 -0.000884354 9.35744 0.038295 9.69527C0.0774744 10.0331 0.184499 10.3595 0.352948 10.655L1.96695 13.48C2.40511 14.2446 3.03712 14.8802 3.79925 15.3226C4.56139 15.765 5.4267 15.9987 6.30795 16H10.0189L8.35095 20.447C8.20163 20.8448 8.15093 21.2728 8.20319 21.6944C8.25545 22.116 8.40911 22.5187 8.65103 22.868C8.89294 23.2172 9.2159 23.5026 9.59224 23.6998C9.96858 23.897 10.3871 24 10.8119 24C11.3416 24.0028 11.8624 23.864 12.3204 23.598C12.7784 23.332 13.1569 22.9484 13.4169 22.487L17.464 16H21C21.7956 16 22.5587 15.6839 23.1213 15.1213C23.6839 14.5587 24 13.7957 24 13C24 12.2044 23.6839 11.4413 23.1213 10.8787C22.5587 10.3161 21.7956 10 21 10ZM10.0249 2.805C9.99782 2.71118 9.99287 2.61234 10.0105 2.51628C10.0281 2.42022 10.0679 2.32958 10.1265 2.2515C10.1852 2.17343 10.2612 2.11007 10.3486 2.06642C10.436 2.02277 10.5323 2.00003 10.6299 2H10.8119C10.9863 1.9985 11.158 2.04313 11.3095 2.12936C11.4611 2.21558 11.5872 2.34035 11.6749 2.491L15.4549 10H12.1099L10.0249 2.805ZM21 14H16.909C16.7393 14.0001 16.5724 14.0434 16.424 14.1258C16.2757 14.2082 16.1507 14.327 16.061 14.471L11.6899 21.479C11.6039 21.6367 11.4769 21.7683 11.3224 21.86C11.1679 21.9517 10.9916 22 10.8119 22C10.7103 22.0001 10.6101 21.9755 10.5201 21.9283C10.43 21.8812 10.3528 21.8129 10.2949 21.7293C10.2371 21.6457 10.2004 21.5493 10.1881 21.4484C10.1757 21.3475 10.188 21.2451 10.2239 21.15L12.3979 15.35C12.4545 15.1987 12.4735 15.036 12.4534 14.8757C12.4334 14.7155 12.3748 14.5625 12.2827 14.4298C12.1906 14.2971 12.0678 14.1887 11.9247 14.1139C11.7816 14.039 11.6225 14 11.4609 14H6.30795C5.77984 13.9991 5.26131 13.8589 4.80478 13.5934C4.34825 13.3279 3.96989 12.9466 3.70795 12.488L2.08895 9.662C2.05507 9.60175 2.03347 9.53537 2.0254 9.46671C2.01733 9.39805 2.02296 9.32847 2.04195 9.262C2.05197 9.2177 2.07122 9.17601 2.09844 9.13965C2.12567 9.10329 2.16026 9.07309 2.19995 9.051C2.26159 9.01828 2.33017 9.00079 2.39995 9C2.50727 9.00074 2.61014 9.04304 2.68695 9.118L4.10395 10.535C4.5678 11.0012 5.11953 11.3707 5.72718 11.6222C6.33483 11.8736 6.98632 12.0021 7.64395 12H21C21.2652 12 21.5195 12.1054 21.7071 12.2929C21.8946 12.4804 22 12.7348 22 13C22 13.2652 21.8946 13.5196 21.7071 13.7071C21.5195 13.8946 21.2652 14 21 14Z" fill="black"/>
</g>
<defs>
<clipPath id="clip0_403_2859">
<rect width="24" height="24" fill="white"/>
</clipPath>
</defs>
</svg>
