<svg width="24" height="24" viewBox="0 0 24 24" fill="none" xmlns="http://www.w3.org/2000/svg">
<g clip-path="url(#clip0_403_2873)">
<path d="M19 0H5C3.67441 0.00158786 2.40356 0.528882 1.46622 1.46622C0.528882 2.40356 0.00158786 3.67441 0 5L0 19C0.00158786 20.3256 0.528882 21.5964 1.46622 22.5338C2.40356 23.4711 3.67441 23.9984 5 24H19C20.3256 23.9984 21.5964 23.4711 22.5338 22.5338C23.4711 21.5964 23.9984 20.3256 24 19V5C23.9984 3.67441 23.4711 2.40356 22.5338 1.46622C21.5964 0.528882 20.3256 0.00158786 19 0V0ZM7 22V21C7 19.6739 7.52678 18.4021 8.46447 17.4645C9.40215 16.5268 10.6739 16 12 16C13.3261 16 14.5979 16.5268 15.5355 17.4645C16.4732 18.4021 17 19.6739 17 21V22H7ZM22 19C22 19.7956 21.6839 20.5587 21.1213 21.1213C20.5587 21.6839 19.7956 22 19 22V21C19 19.1435 18.2625 17.363 16.9497 16.0503C15.637 14.7375 13.8565 14 12 14C10.1435 14 8.36301 14.7375 7.05025 16.0503C5.7375 17.363 5 19.1435 5 21V22C4.20435 22 3.44129 21.6839 2.87868 21.1213C2.31607 20.5587 2 19.7956 2 19V5C2 4.20435 2.31607 3.44129 2.87868 2.87868C3.44129 2.31607 4.20435 2 5 2H19C19.7956 2 20.5587 2.31607 21.1213 2.87868C21.6839 3.44129 22 4.20435 22 5V19Z" fill="black"/>
<path d="M12 4.00049C11.2089 4.00049 10.4355 4.23508 9.77772 4.67461C9.11993 5.11414 8.60723 5.73885 8.30448 6.46975C8.00173 7.20066 7.92252 8.00493 8.07686 8.78085C8.2312 9.55677 8.61216 10.2695 9.17157 10.8289C9.73098 11.3883 10.4437 11.7693 11.2196 11.9236C11.9956 12.078 12.7998 11.9988 13.5307 11.696C14.2616 11.3933 14.8864 10.8806 15.3259 10.2228C15.7654 9.56497 16 8.79161 16 8.00049C16 6.93962 15.5786 5.92221 14.8284 5.17206C14.0783 4.42192 13.0609 4.00049 12 4.00049ZM12 10.0005C11.6044 10.0005 11.2178 9.88319 10.8889 9.66343C10.56 9.44366 10.3036 9.13131 10.1522 8.76585C10.0009 8.4004 9.96126 7.99827 10.0384 7.61031C10.1156 7.22235 10.3061 6.86598 10.5858 6.58627C10.8655 6.30657 11.2219 6.11609 11.6098 6.03892C11.9978 5.96175 12.3999 6.00135 12.7654 6.15273C13.1308 6.3041 13.4432 6.56045 13.6629 6.88935C13.8827 7.21825 14 7.60493 14 8.00049C14 8.53092 13.7893 9.03963 13.4142 9.4147C13.0391 9.78977 12.5304 10.0005 12 10.0005Z" fill="black"/>
</g>
<defs>
<clipPath id="clip0_403_2873">
<rect width="24" height="24" fill="white"/>
</clipPath>
</defs>
</svg>
