<svg width="24" height="24" viewBox="0 0 24 24" fill="none" xmlns="http://www.w3.org/2000/svg">
<g clip-path="url(#clip0_403_2878)">
<path d="M14.9985 3.84852C15.0017 4.04738 15.0629 4.24099 15.1746 4.40551C15.2864 4.57004 15.4438 4.6983 15.6275 4.77452C17.2697 5.4971 18.6585 6.69402 19.6155 8.21162C20.5726 9.72922 21.0542 11.4982 20.9985 13.2915C20.9598 15.6785 19.9744 17.9523 18.2592 19.6127C16.544 21.2732 14.2395 22.1842 11.8525 22.1455C9.46557 22.1068 7.19176 21.1214 5.53132 19.4062C3.87087 17.691 2.95979 15.3865 2.99852 12.9995C3.00083 11.2557 3.50966 9.55019 4.46317 8.0902C5.41667 6.6302 6.77378 5.47864 8.36952 4.77552C8.55331 4.69884 8.71072 4.57019 8.82245 4.40535C8.93419 4.24051 8.99537 4.04663 8.99852 3.84752C8.99877 3.68373 8.95879 3.52238 8.88209 3.37766C8.80539 3.23294 8.69432 3.10927 8.55863 3.01753C8.42295 2.92579 8.2668 2.86878 8.10392 2.85152C7.94105 2.83425 7.77642 2.85726 7.62452 2.91852C5.3038 3.92466 3.40074 5.69986 2.23588 7.94511C1.07102 10.1904 0.715544 12.7685 1.22932 15.2452C1.74311 17.7219 3.09475 19.9458 5.05659 21.5425C7.01843 23.1391 9.47058 24.0108 12 24.0108C14.5295 24.0108 16.9816 23.1391 18.9434 21.5425C20.9053 19.9458 22.2569 17.7219 22.7707 15.2452C23.2845 12.7685 22.929 10.1904 21.7642 7.94511C20.5993 5.69986 18.6962 3.92466 16.3755 2.91852C16.2234 2.85659 16.0583 2.83309 15.895 2.8501C15.7316 2.86711 15.5749 2.92409 15.4388 3.01602C15.3027 3.10795 15.1913 3.232 15.1145 3.37719C15.0377 3.52239 14.9979 3.68427 14.9985 3.84852Z" fill="black"/>
<path d="M13 1C13 0.447715 12.5523 0 12 0C11.4477 0 11 0.447715 11 1V7C11 7.55228 11.4477 8 12 8C12.5523 8 13 7.55228 13 7V1Z" fill="black"/>
</g>
<defs>
<clipPath id="clip0_403_2878">
<rect width="24" height="24" fill="white"/>
</clipPath>
</defs>
</svg>
