<svg width="24" height="24" viewBox="0 0 24 24" fill="none" xmlns="http://www.w3.org/2000/svg">
<path d="M19 0.999512H5C3.67441 1.0011 2.40356 1.52839 1.46622 2.46573C0.528882 3.40307 0.00158786 4.67392 0 5.99951L0 13.9995C0.00158786 15.3251 0.528882 16.596 1.46622 17.5333C2.40356 18.4706 3.67441 18.9979 5 18.9995H11V20.9995H7C6.73478 20.9995 6.48043 21.1049 6.29289 21.2924C6.10536 21.4799 6 21.7343 6 21.9995C6 22.2647 6.10536 22.5191 6.29289 22.7066C6.48043 22.8942 6.73478 22.9995 7 22.9995H17C17.2652 22.9995 17.5196 22.8942 17.7071 22.7066C17.8946 22.5191 18 22.2647 18 21.9995C18 21.7343 17.8946 21.4799 17.7071 21.2924C17.5196 21.1049 17.2652 20.9995 17 20.9995H13V18.9995H19C20.3256 18.9979 21.5964 18.4706 22.5338 17.5333C23.4711 16.596 23.9984 15.3251 24 13.9995V5.99951C23.9984 4.67392 23.4711 3.40307 22.5338 2.46573C21.5964 1.52839 20.3256 1.0011 19 0.999512ZM22 13.9995C22 14.7952 21.6839 15.5582 21.1213 16.1208C20.5587 16.6834 19.7956 16.9995 19 16.9995H5C4.20435 16.9995 3.44129 16.6834 2.87868 16.1208C2.31607 15.5582 2 14.7952 2 13.9995V5.99951C2 5.20386 2.31607 4.4408 2.87868 3.87819C3.44129 3.31558 4.20435 2.99951 5 2.99951H19C19.7956 2.99951 20.5587 3.31558 21.1213 3.87819C21.6839 4.4408 22 5.20386 22 5.99951V13.9995ZM20 9.99951C20 10.2647 19.8946 10.5191 19.7071 10.7066C19.5196 10.8942 19.2652 10.9995 19 10.9995H16.035L14.335 13.5545C14.2434 13.6919 14.1192 13.8044 13.9735 13.882C13.8278 13.9597 13.6651 14 13.5 13.9995C13.479 13.9995 13.458 13.9995 13.438 13.9995C13.263 13.9887 13.094 13.9322 12.9478 13.8355C12.8016 13.7387 12.6834 13.6053 12.605 13.4485L10.376 8.98751L9.332 10.5545C9.24065 10.6914 9.11692 10.8037 8.97178 10.8813C8.82665 10.9589 8.66459 10.9995 8.5 10.9995H5C4.73478 10.9995 4.48043 10.8942 4.29289 10.7066C4.10536 10.5191 4 10.2647 4 9.99951C4 9.73429 4.10536 9.47994 4.29289 9.29241C4.48043 9.10487 4.73478 8.99951 5 8.99951H7.965L9.665 6.44451C9.76123 6.29707 9.89516 6.17806 10.0529 6.09982C10.2106 6.02157 10.3864 5.98694 10.562 5.99951C10.737 6.01029 10.906 6.06687 11.0522 6.16357C11.1984 6.26028 11.3166 6.39372 11.395 6.55051L13.624 11.0095L14.668 9.44251C14.7596 9.30597 14.8834 9.19411 15.0285 9.11683C15.1737 9.03956 15.3356 8.99927 15.5 8.99951H19C19.2652 8.99951 19.5196 9.10487 19.7071 9.29241C19.8946 9.47994 20 9.73429 20 9.99951Z" fill="black"/>
</svg>
