<svg width="24" height="24" viewBox="0 0 24 24" fill="none" xmlns="http://www.w3.org/2000/svg">
<g clip-path="url(#clip0_403_2890)">
<path d="M20.0362 23.9995H3.9642C3.28838 24.0011 2.62344 23.8295 2.03281 23.501C1.44219 23.1726 0.945575 22.6982 0.590365 22.1233C0.235154 21.5484 0.0331947 20.892 0.00375493 20.2168C-0.0256848 19.5417 0.118377 18.8702 0.422197 18.2665L8.4592 2.18854C8.76558 1.56909 9.22981 1.04133 9.80512 0.658436C10.3804 0.275541 11.0465 0.0510362 11.7362 0.00754229C12.5144 -0.0419814 13.29 0.13836 13.9665 0.526136C14.643 0.913913 15.1906 1.49201 15.5412 2.18854L23.5782 18.2665C23.8802 18.8704 24.0229 19.5414 23.9927 20.216C23.9624 20.8905 23.7603 21.5461 23.4054 22.1205C23.0505 22.6949 22.5547 23.169 21.965 23.4979C21.3753 23.8268 20.7114 23.9995 20.0362 23.9995ZM2.0002 20.0425C2.0044 20.5615 2.21289 21.0579 2.5805 21.4242C2.94812 21.7905 3.44525 21.9972 3.9642 21.9995H20.0362C20.5551 21.9972 21.0523 21.7905 21.4199 21.4242C21.7875 21.0579 21.996 20.5615 22.0002 20.0425C21.9997 19.7363 21.9271 19.4345 21.7882 19.1615L13.7532 3.08254C13.5907 2.75671 13.3405 2.48263 13.0309 2.29105C12.7212 2.09948 12.3643 1.998 12.0002 1.998C11.6361 1.998 11.2792 2.09948 10.9695 2.29105C10.6599 2.48263 10.4097 2.75671 10.2472 3.08254L2.2102 19.1615C2.07202 19.4347 2.00008 19.7365 2.0002 20.0425Z" fill="black"/>
</g>
<defs>
<clipPath id="clip0_403_2890">
<rect width="24" height="24" fill="white"/>
</clipPath>
</defs>
</svg>
