<svg width="24" height="24" viewBox="0 0 24 24" fill="none" xmlns="http://www.w3.org/2000/svg">
<path d="M8 3.99951H4C2.93913 3.99951 1.92172 4.42094 1.17157 5.17108C0.421427 5.92123 0 6.93865 0 7.99951L0 11.9995C0 12.5299 0.210714 13.0387 0.585786 13.4137C0.960859 13.7888 1.46957 13.9995 2 13.9995H7.91C7.67273 15.3961 6.94948 16.6638 5.86803 17.5787C4.78658 18.4936 3.41655 18.9969 2 18.9995C1.73478 18.9995 1.48043 19.1049 1.29289 19.2924C1.10536 19.4799 1 19.7343 1 19.9995C1 20.2647 1.10536 20.5191 1.29289 20.7066C1.48043 20.8942 1.73478 20.9995 2 20.9995C4.121 20.9971 6.15445 20.1535 7.65422 18.6537C9.154 17.154 9.99762 15.1205 10 12.9995V5.99951C10 5.46908 9.78929 4.96037 9.41421 4.5853C9.03914 4.21023 8.53043 3.99951 8 3.99951Z" fill="black"/>
<path d="M22 3.99951H18C16.9391 3.99951 15.9217 4.42094 15.1716 5.17108C14.4214 5.92123 14 6.93865 14 7.99951V11.9995C14 12.5299 14.2107 13.0387 14.5858 13.4137C14.9609 13.7888 15.4696 13.9995 16 13.9995H21.91C21.6727 15.3961 20.9495 16.6638 19.868 17.5787C18.7866 18.4936 17.4166 18.9969 16 18.9995C15.7348 18.9995 15.4804 19.1049 15.2929 19.2924C15.1054 19.4799 15 19.7343 15 19.9995C15 20.2647 15.1054 20.5191 15.2929 20.7066C15.4804 20.8942 15.7348 20.9995 16 20.9995C18.121 20.9971 20.1544 20.1535 21.6542 18.6537C23.154 17.154 23.9976 15.1205 24 12.9995V5.99951C24 5.46908 23.7893 4.96037 23.4142 4.5853C23.0391 4.21023 22.5304 3.99951 22 3.99951Z" fill="black"/>
</svg>
