<svg width="24" height="24" viewBox="0 0 24 24" fill="none" xmlns="http://www.w3.org/2000/svg">
<g clip-path="url(#clip0_403_2897)">
<path d="M13 23.9991C11.4092 23.9975 9.88399 23.3649 8.75911 22.24C7.63424 21.1151 7.00159 19.5899 7 17.9991C7 16.4391 8.2 13.9541 10.552 10.6111C10.8313 10.2221 11.1991 9.90522 11.6252 9.68662C12.0512 9.46802 12.5232 9.354 13.002 9.354C13.4808 9.354 13.9528 9.46802 14.3788 9.68662C14.8049 9.90522 15.1727 10.2221 15.452 10.6111C17.805 13.9541 19 16.4391 19 17.9991C18.9984 19.5899 18.3658 21.1151 17.2409 22.24C16.116 23.3649 14.5908 23.9975 13 23.9991ZM13 11.3421C12.8404 11.3409 12.6829 11.3787 12.5412 11.4523C12.3995 11.5258 12.2779 11.6329 12.187 11.7641C9.311 15.8431 9 17.4831 9 17.9991C9 19.06 9.42143 20.0774 10.1716 20.8275C10.9217 21.5777 11.9391 21.9991 13 21.9991C14.0609 21.9991 15.0783 21.5777 15.8284 20.8275C16.5786 20.0774 17 19.06 17 17.9991C17 17.4831 16.689 15.8431 13.813 11.7641C13.7221 11.6329 13.6005 11.5258 13.4588 11.4523C13.3171 11.3787 13.1596 11.3409 13 11.3421Z" fill="black"/>
<path d="M5 11.001C3.67441 10.9994 2.40356 10.4721 1.46622 9.53477C0.528882 8.59743 0.00158786 7.32659 0 6.00099C0 4.74099 0.842 3.14599 2.574 1.12399C2.87441 0.774743 3.24669 0.494473 3.66538 0.302341C4.08408 0.110208 4.53932 0.0107422 5 0.0107422C5.46068 0.0107422 5.91592 0.110208 6.33462 0.302341C6.75331 0.494473 7.12559 0.774743 7.426 1.12399C9.158 3.14399 10 4.73899 10 6.00099C9.99841 7.32659 9.47112 8.59743 8.53378 9.53477C7.59644 10.4721 6.32559 10.9994 5 11.001ZM5 2.00099C4.8273 2.00015 4.65655 2.03744 4.49994 2.11022C4.34333 2.18299 4.20471 2.28945 4.094 2.42199C2.151 4.68999 2 5.73299 2 6.00099C2 6.79664 2.31607 7.5597 2.87868 8.12231C3.44129 8.68492 4.20435 9.00099 5 9.00099C5.79565 9.00099 6.55871 8.68492 7.12132 8.12231C7.68393 7.5597 8 6.79664 8 6.00099C8 5.73499 7.849 4.69199 5.906 2.42499C5.79567 2.2918 5.6572 2.18469 5.50055 2.11138C5.3439 2.03807 5.17296 2.00037 5 2.00099Z" fill="black"/>
<path d="M19.5 9.96294C18.3069 9.96162 17.1631 9.48709 16.3195 8.64346C15.4759 7.79983 15.0013 6.65601 15 5.46294C15 4.37194 15.7 2.95694 17.146 1.13694C17.429 0.784801 17.7874 0.500639 18.1948 0.305393C18.6022 0.110146 19.0482 0.00878906 19.5 0.00878906C19.9518 0.00878906 20.3978 0.110146 20.8052 0.305393C21.2126 0.500639 21.571 0.784801 21.854 1.13694C23.3 2.95694 24 4.37194 24 5.46294C23.9987 6.65601 23.5241 7.79983 22.6805 8.64346C21.8369 9.48709 20.6931 9.96162 19.5 9.96294ZM19.5 1.99894C19.3485 1.9987 19.199 2.03287 19.0627 2.09887C18.9263 2.16487 18.8068 2.26098 18.713 2.37994C17.123 4.38394 17 5.24594 17 5.46294C17 6.12598 17.2634 6.76187 17.7322 7.23071C18.2011 7.69955 18.837 7.96294 19.5 7.96294C20.163 7.96294 20.7989 7.69955 21.2678 7.23071C21.7366 6.76187 22 6.12598 22 5.46294C22 5.24594 21.877 4.38394 20.287 2.38094C20.1933 2.2618 20.0738 2.1655 19.9375 2.09932C19.8011 2.03314 19.6516 1.99882 19.5 1.99894Z" fill="black"/>
</g>
<defs>
<clipPath id="clip0_403_2897">
<rect width="24" height="24" fill="white"/>
</clipPath>
</defs>
</svg>
