<svg width="24" height="24" viewBox="0 0 24 24" fill="none" xmlns="http://www.w3.org/2000/svg">
<g clip-path="url(#clip0_403_2907)">
<path d="M12 0C9.62663 0 7.30655 0.703788 5.33316 2.02236C3.35977 3.34094 1.8217 5.21509 0.913451 7.4078C0.00519943 9.60051 -0.232441 12.0133 0.230582 14.3411C0.693605 16.6689 1.83649 18.8071 3.51472 20.4853C5.19295 22.1635 7.33115 23.3064 9.65892 23.7694C11.9867 24.2324 14.3995 23.9948 16.5922 23.0866C18.7849 22.1783 20.6591 20.6402 21.9776 18.6668C23.2962 16.6935 24 14.3734 24 12C23.9966 8.81846 22.7312 5.76821 20.4815 3.51852C18.2318 1.26883 15.1815 0.00344108 12 0V0ZM12 22C10.0222 22 8.08879 21.4135 6.4443 20.3147C4.79981 19.2159 3.51809 17.6541 2.76121 15.8268C2.00433 13.9996 1.8063 11.9889 2.19215 10.0491C2.578 8.10929 3.53041 6.32746 4.92894 4.92893C6.32746 3.53041 8.10929 2.578 10.0491 2.19215C11.9889 1.8063 13.9996 2.00433 15.8268 2.7612C17.6541 3.51808 19.2159 4.79981 20.3147 6.4443C21.4135 8.08879 22 10.0222 22 12C21.9971 14.6513 20.9426 17.1931 19.0679 19.0679C17.1931 20.9426 14.6513 21.9971 12 22Z" fill="black"/>
<path d="M12 6.99951C11.0111 6.99951 10.0444 7.29276 9.22215 7.84216C8.39991 8.39157 7.75904 9.17246 7.3806 10.0861C7.00217 10.9997 6.90315 12.0051 7.09608 12.975C7.289 13.9449 7.76521 14.8358 8.46447 15.535C9.16373 16.2343 10.0546 16.7105 11.0246 16.9034C11.9945 17.0964 12.9998 16.9973 13.9134 16.6189C14.827 16.2405 15.6079 15.5996 16.1574 14.7774C16.7068 13.9551 17 12.9884 17 11.9995C16.9984 10.6739 16.4711 9.40307 15.5338 8.46573C14.5964 7.52839 13.3256 7.0011 12 6.99951ZM12 14.9995C11.4067 14.9995 10.8266 14.8236 10.3333 14.4939C9.83994 14.1643 9.45543 13.6957 9.22836 13.1476C9.0013 12.5994 8.94189 11.9962 9.05765 11.4142C9.1734 10.8323 9.45912 10.2977 9.87868 9.87819C10.2982 9.45863 10.8328 9.17291 11.4147 9.05716C11.9967 8.9414 12.5999 9.00081 13.1481 9.22787C13.6962 9.45494 14.1648 9.83945 14.4944 10.3328C14.8241 10.8261 15 11.4062 15 11.9995C15 12.7952 14.6839 13.5582 14.1213 14.1208C13.5587 14.6834 12.7957 14.9995 12 14.9995Z" fill="black"/>
<path d="M12 13.0005C12.5523 13.0005 13 12.5528 13 12.0005C13 11.4482 12.5523 11.0005 12 11.0005C11.4477 11.0005 11 11.4482 11 12.0005C11 12.5528 11.4477 13.0005 12 13.0005Z" fill="black"/>
</g>
<defs>
<clipPath id="clip0_403_2907">
<rect width="24" height="24" fill="white"/>
</clipPath>
</defs>
</svg>
