<svg width="24" height="24" viewBox="0 0 24 24" fill="none" xmlns="http://www.w3.org/2000/svg">
<path d="M19 5.00049H5C3.67392 5.00049 2.40215 5.52727 1.46447 6.46495C0.526784 7.40264 0 8.67441 0 10.0005L0 14.0005C0 15.3266 0.526784 16.5983 1.46447 17.536C2.40215 18.4737 3.67392 19.0005 5 19.0005H19C19.6566 19.0005 20.3068 18.8712 20.9134 18.6199C21.52 18.3686 22.0712 18.0003 22.5355 17.536C22.9998 17.0717 23.3681 16.5205 23.6194 15.9139C23.8707 15.3073 24 14.6571 24 14.0005V10.0005C24 9.34388 23.8707 8.6937 23.6194 8.08707C23.3681 7.48044 22.9998 6.92925 22.5355 6.46495C22.0712 6.00066 21.52 5.63236 20.9134 5.38109C20.3068 5.12982 19.6566 5.00049 19 5.00049ZM22 14.0005C22 14.7961 21.6839 15.5592 21.1213 16.1218C20.5587 16.6844 19.7956 17.0005 19 17.0005H5C4.20435 17.0005 3.44129 16.6844 2.87868 16.1218C2.31607 15.5592 2 14.7961 2 14.0005V10.0005C2 9.20484 2.31607 8.44178 2.87868 7.87917C3.44129 7.31656 4.20435 7.00049 5 7.00049H19C19.7956 7.00049 20.5587 7.31656 21.1213 7.87917C21.6839 8.44178 22 9.20484 22 10.0005V14.0005Z" fill="black"/>
</svg>
