<svg width="24" height="24" viewBox="0 0 24 24" fill="none" xmlns="http://www.w3.org/2000/svg">
<g clip-path="url(#clip0_403_2917)">
<path d="M10.3573 2.92006L8.94134 5.22006C8.79549 5.43028 8.57462 5.5766 8.32417 5.62891C8.07372 5.68122 7.81274 5.63554 7.59495 5.50128C7.37715 5.36701 7.2191 5.15438 7.15333 4.90712C7.08755 4.65986 7.11905 4.3968 7.24134 4.17206L8.65734 1.87206C9.01242 1.30508 9.50576 0.83762 10.091 0.513576C10.6763 0.189533 11.3343 0.0195312 12.0033 0.0195312C12.6723 0.0195312 13.3304 0.189533 13.9156 0.513576C14.5009 0.83762 14.9943 1.30508 15.3493 1.87206L19.5493 8.70606L19.9903 6.34106C20.0389 6.08022 20.189 5.84935 20.4078 5.69922C20.6266 5.5491 20.896 5.49203 21.1568 5.54056C21.4177 5.5891 21.6486 5.73926 21.7987 5.95802C21.9488 6.17679 22.0059 6.44622 21.9573 6.70706L21.4573 9.37706C21.3294 10.0644 20.9654 10.6855 20.4282 11.133C19.8911 11.5805 19.2145 11.8264 18.5153 11.8281C18.3203 11.8281 15.2983 11.2521 15.2983 11.2521C15.0425 11.1965 14.8187 11.0428 14.6749 10.824C14.5312 10.6052 14.479 10.3387 14.5295 10.0818C14.5801 9.82497 14.7293 9.59816 14.9452 9.45011C15.1612 9.30207 15.4265 9.24461 15.6843 9.29006L17.8173 9.71106L13.6433 2.92006C13.4698 2.64059 13.2278 2.41001 12.9403 2.25012C12.6528 2.09023 12.3293 2.00631 12.0003 2.00631C11.6714 2.00631 11.3478 2.09023 11.0603 2.25012C10.7728 2.41001 10.5309 2.64059 10.3573 2.92006ZM23.4093 14.9791L22.4413 13.4071C22.3764 13.2877 22.2878 13.1829 22.181 13.0989C22.0742 13.0149 21.9514 12.9536 21.82 12.9186C21.6887 12.8837 21.5517 12.8759 21.4173 12.8957C21.2828 12.9155 21.1539 12.9625 21.0382 13.0338C20.9225 13.1051 20.8226 13.1992 20.7445 13.3104C20.6665 13.4216 20.6119 13.5476 20.5841 13.6806C20.5563 13.8136 20.5559 13.9509 20.583 14.084C20.61 14.2172 20.6639 14.3434 20.7413 14.4551L21.7093 16.0271C21.894 16.3228 21.9953 16.6629 22.0025 17.0114C22.0097 17.36 21.9226 17.704 21.7503 18.0071C21.5847 18.3093 21.3403 18.5612 21.0431 18.7358C20.7459 18.9105 20.407 19.0014 20.0623 18.9991H12.6763L13.9473 17.7301C14.1298 17.5417 14.2309 17.2893 14.229 17.0271C14.2271 16.7648 14.1223 16.5139 13.9372 16.3282C13.752 16.1425 13.5014 16.037 13.2392 16.0343C12.9769 16.0317 12.7242 16.1322 12.5353 16.3141L10.8433 17.9991C10.3153 18.5241 10.0128 19.2345 10.0003 19.9791C10.0003 19.9791 10.0003 19.9891 10.0003 19.9931C10.0003 19.9971 10.0003 20.0061 10.0003 20.0131C9.99749 20.3979 10.0717 20.7793 10.2185 21.135C10.3653 21.4907 10.5819 21.8134 10.8553 22.0841L12.5373 23.7361C12.63 23.8327 12.7411 23.9097 12.8641 23.9625C12.9871 24.0154 13.1195 24.043 13.2534 24.0438C13.3872 24.0445 13.5199 24.0184 13.6435 23.9669C13.7671 23.9154 13.879 23.8397 13.9728 23.7441C14.0665 23.6485 14.1402 23.5351 14.1893 23.4106C14.2384 23.286 14.262 23.1529 14.2587 23.0191C14.2554 22.8853 14.2252 22.7535 14.17 22.6315C14.1148 22.5095 14.0357 22.3999 13.9373 22.3091L12.6093 20.9991H20.0623C20.7639 20.9967 21.4521 20.8074 22.0562 20.4506C22.6603 20.0939 23.1584 19.5827 23.4993 18.9695C23.8402 18.3564 24.0116 17.6635 23.9958 16.9621C23.98 16.2607 23.7775 15.5762 23.4093 14.9791ZM6.78034 7.21206C6.45261 6.98889 6.0837 6.83326 5.69514 6.75428C5.30659 6.6753 4.90619 6.67454 4.51734 6.75206L1.88834 7.27006C1.75738 7.29315 1.63233 7.34213 1.52053 7.41413C1.40872 7.48614 1.3124 7.57972 1.2372 7.6894C1.162 7.79908 1.10943 7.92265 1.08257 8.0529C1.05571 8.18314 1.0551 8.31743 1.08077 8.44791C1.10644 8.5784 1.15788 8.70245 1.23208 8.81281C1.30627 8.92317 1.40174 9.01762 1.51288 9.09064C1.62402 9.16366 1.74862 9.21378 1.87936 9.23806C2.01011 9.26235 2.14439 9.26031 2.27434 9.23206L4.38234 8.81706L0.59134 14.9791C0.223191 15.5762 0.0207739 16.2606 0.00491553 16.9618C-0.0109428 17.6631 0.16033 18.356 0.501112 18.9691C0.841894 19.5822 1.33988 20.0935 1.94383 20.4503C2.54778 20.807 3.23588 20.9965 3.93734 20.9991H7.08034C7.34556 20.9991 7.59991 20.8937 7.78745 20.7062C7.97498 20.5186 8.08034 20.2643 8.08034 19.9991C8.08034 19.7338 7.97498 19.4795 7.78745 19.292C7.59991 19.1044 7.34556 18.9991 7.08034 18.9991H3.93734C3.59333 19.0007 3.25526 18.9094 2.95884 18.7348C2.66243 18.5602 2.41868 18.3087 2.25334 18.0071C2.08108 17.704 1.99396 17.36 2.00117 17.0114C2.00839 16.6629 2.10968 16.3228 2.29434 16.0271L6.13234 9.78906L6.57834 12.1831C6.62714 12.4439 6.77756 12.6747 6.99651 12.8246C7.21546 12.9745 7.485 13.0314 7.74584 12.9826C8.00668 12.9338 8.23745 12.7833 8.38739 12.5644C8.53732 12.3454 8.59414 12.0759 8.54534 11.8151L8.04534 9.14506C7.97349 8.75498 7.82462 8.38312 7.60742 8.05123C7.39022 7.71933 7.10905 7.43406 6.78034 7.21206Z" fill="black"/>
</g>
<defs>
<clipPath id="clip0_403_2917">
<rect width="24" height="24" fill="white"/>
</clipPath>
</defs>
</svg>
