<svg width="24" height="24" viewBox="0 0 24 24" fill="none" xmlns="http://www.w3.org/2000/svg">
<g clip-path="url(#clip0_403_2919)">
<path d="M16.9 14.7235C17.0875 14.911 17.3418 15.0163 17.607 15.0163C17.8722 15.0163 18.1265 14.911 18.314 14.7235L23.263 9.77349C23.4952 9.54133 23.6794 9.26571 23.8051 8.96235C23.9308 8.65899 23.9955 8.33385 23.9955 8.00549C23.9955 7.67713 23.9308 7.35198 23.8051 7.04863C23.6794 6.74527 23.4952 6.46964 23.263 6.23749L18.313 1.28849C18.1228 1.11606 17.8736 1.02336 17.617 1.02959C17.3604 1.03582 17.116 1.14049 16.9344 1.32194C16.7529 1.50339 16.648 1.74771 16.6416 2.00433C16.6352 2.26095 16.7277 2.5102 16.9 2.70049L21.2 7.00049H5C3.67392 7.00049 2.40215 7.52727 1.46447 8.46495C0.526784 9.40264 0 10.6744 0 12.0005L0 19.0005C0.00158786 20.3261 0.528882 21.5969 1.46622 22.5343C2.40356 23.4716 3.67441 23.9989 5 24.0005H19C19.2652 24.0005 19.5196 23.8951 19.7071 23.7076C19.8946 23.5201 20 23.2657 20 23.0005C20 22.7353 19.8946 22.4809 19.7071 22.2934C19.5196 22.1058 19.2652 22.0005 19 22.0005H5C4.20435 22.0005 3.44129 21.6844 2.87868 21.1218C2.31607 20.5592 2 19.7961 2 19.0005V12.0005C2 11.2048 2.31607 10.4418 2.87868 9.87917C3.44129 9.31656 4.20435 9.00049 5 9.00049H21.212L16.9 13.3095C16.7125 13.497 16.6072 13.7513 16.6072 14.0165C16.6072 14.2817 16.7125 14.536 16.9 14.7235Z" fill="black"/>
</g>
<defs>
<clipPath id="clip0_403_2919">
<rect width="24" height="24" fill="white"/>
</clipPath>
</defs>
</svg>
