<svg width="24" height="24" viewBox="0 0 24 24" fill="none" xmlns="http://www.w3.org/2000/svg">
<g clip-path="url(#clip0_403_2921)">
<path d="M0 22.9991V15.9991C0.00264685 13.613 0.951708 11.3254 2.63896 9.6381C4.32622 7.95085 6.61386 7.00179 9 6.99914H13.83V5.41315C13.8301 5.01765 13.9474 4.63105 14.1672 4.30223C14.387 3.97341 14.6993 3.71713 15.0647 3.56579C15.4301 3.41445 15.8322 3.37485 16.2201 3.45198C16.608 3.52912 16.9643 3.71953 17.244 3.99915L23.124 9.87814C23.6864 10.4407 24.0024 11.2036 24.0024 11.9991C24.0024 12.7946 23.6864 13.5576 23.124 14.1201L17.244 19.9991C16.9643 20.2787 16.608 20.4692 16.2201 20.5463C15.8322 20.6234 15.4301 20.5838 15.0647 20.4325C14.6993 20.2811 14.387 20.0249 14.1672 19.696C13.9474 19.3672 13.8301 18.9806 13.83 18.5851V16.9991H8C6.40919 17.0007 4.88399 17.6334 3.75911 18.7582C2.63424 19.8831 2.00159 21.4083 2 22.9991C2 23.2643 1.89464 23.5187 1.70711 23.7062C1.51957 23.8938 1.26522 23.9991 1 23.9991C0.734784 23.9991 0.48043 23.8938 0.292893 23.7062C0.105357 23.5187 0 23.2643 0 22.9991ZM15.83 7.99914C15.83 8.26436 15.7246 8.51871 15.5371 8.70625C15.3496 8.89378 15.0952 8.99914 14.83 8.99914H9C7.14414 9.00126 5.36489 9.73943 4.05259 11.0517C2.7403 12.364 2.00212 14.1433 2 15.9991V17.7131C2.74957 16.8601 3.67249 16.1767 4.70715 15.7087C5.74182 15.2407 6.86441 14.9988 8 14.9991H14.83C15.0952 14.9991 15.3496 15.1045 15.5371 15.292C15.7246 15.4796 15.83 15.7339 15.83 15.9991V18.5851L21.709 12.7061C21.8965 12.5186 22.0018 12.2643 22.0018 11.9991C22.0018 11.734 21.8965 11.4797 21.709 11.2921L15.83 5.41315V7.99914Z" fill="black"/>
</g>
<defs>
<clipPath id="clip0_403_2921">
<rect width="24" height="24" fill="white"/>
</clipPath>
</defs>
</svg>
