<svg width="24" height="24" viewBox="0 0 24 24" fill="none" xmlns="http://www.w3.org/2000/svg">
<g clip-path="url(#clip0_403_2932)">
<path d="M10.4203 20.6562C9.61663 20.6555 8.83424 20.398 8.18728 19.9212L1.54628 15.0512C1.06757 14.6997 0.678326 14.2404 0.410039 13.7106C0.141751 13.1807 0.00195313 12.5952 0.00195312 12.0012C0.00195313 11.4073 0.141751 10.8218 0.410039 10.2919C0.678326 9.76204 1.06757 9.30277 1.54628 8.95124L8.18728 4.08124C8.73195 3.68099 9.37392 3.43399 10.0464 3.36591C10.7189 3.29784 11.3973 3.41119 12.0112 3.69417C12.625 3.97715 13.1518 4.41942 13.5368 4.97499C13.9218 5.53056 14.1509 6.17913 14.2003 6.85324L17.9823 4.07924C18.5461 3.66679 19.2132 3.41849 19.9095 3.36186C20.6058 3.30522 21.3042 3.44246 21.9273 3.75836C22.5505 4.07427 23.074 4.55651 23.4398 5.15166C23.8057 5.74681 23.9997 6.43162 24.0003 7.13024V16.8702C24.0001 17.5694 23.8062 18.2548 23.4402 18.8504C23.0742 19.4461 22.5503 19.9287 21.9267 20.2447C21.303 20.5607 20.6041 20.6977 19.9073 20.6406C19.2105 20.5836 18.5431 20.3345 17.9793 19.9212L14.2003 17.1472C14.1294 18.1007 13.7008 18.9921 13.0003 19.6429C12.2999 20.2936 11.3794 20.6556 10.4233 20.6562H10.4203ZM13.2073 14.1812C13.4202 14.1812 13.6276 14.2492 13.7993 14.3752L19.1623 18.3082C19.4281 18.5029 19.7426 18.6201 20.071 18.647C20.3993 18.6738 20.7287 18.6092 21.0226 18.4603C21.3165 18.3114 21.5634 18.084 21.736 17.8033C21.9085 17.5227 22 17.1997 22.0003 16.8702V7.13024C21.9998 6.80076 21.9081 6.47785 21.7354 6.19725C21.5628 5.91666 21.3158 5.68933 21.0218 5.54045C20.7279 5.39158 20.3985 5.32695 20.0701 5.35375C19.7417 5.38054 19.4272 5.49769 19.1613 5.69224L13.8003 9.62524C13.6513 9.73469 13.4749 9.80068 13.2906 9.81591C13.1064 9.83113 12.9215 9.79498 12.7566 9.71148C12.5916 9.62797 12.4531 9.50038 12.3563 9.34288C12.2595 9.18537 12.2083 9.00411 12.2083 8.81924V7.13024C12.2082 6.80061 12.1167 6.47746 11.9441 6.19664C11.7715 5.91582 11.5244 5.68832 11.2304 5.53938C10.9363 5.39043 10.6068 5.32587 10.2782 5.35285C9.94971 5.37984 9.63509 5.49731 9.36928 5.69224L2.72928 10.5622C2.50338 10.7278 2.31967 10.9443 2.19305 11.1942C2.06642 11.444 2.00043 11.7201 2.00043 12.0002C2.00043 12.2803 2.06642 12.5565 2.19305 12.8063C2.31967 13.0562 2.50338 13.2726 2.72928 13.4382L9.36928 18.3082C9.63509 18.5029 9.94961 18.6201 10.278 18.647C10.6063 18.6738 10.9357 18.6092 11.2296 18.4603C11.5235 18.3114 11.7704 18.084 11.943 17.8033C12.1155 17.5227 12.207 17.1997 12.2073 16.8702V15.1812C12.2073 14.916 12.3126 14.6617 12.5002 14.4741C12.6877 14.2866 12.9421 14.1812 13.2073 14.1812Z" fill="black"/>
</g>
<defs>
<clipPath id="clip0_403_2932">
<rect width="24" height="24" fill="white"/>
</clipPath>
</defs>
</svg>
