<svg width="24" height="24" viewBox="0 0 24 24" fill="none" xmlns="http://www.w3.org/2000/svg">
<g clip-path="url(#clip0_403_2934)">
<path d="M12.0002 23.9269C11.3436 23.9278 10.6933 23.7992 10.0865 23.5483C9.47977 23.2974 8.92847 22.9293 8.46424 22.4649L1.53424 15.5339C0.596889 14.5963 0.0703125 13.3247 0.0703125 11.9989C0.0703125 10.6731 0.596889 9.40155 1.53424 8.46391L8.46424 1.53292C9.403 0.596904 10.6746 0.0712891 12.0002 0.0712891C13.3259 0.0712891 14.5975 0.596904 15.5362 1.53292L22.4662 8.46391C23.4036 9.40155 23.9302 10.6731 23.9302 11.9989C23.9302 13.3247 23.4036 14.5963 22.4662 15.5339L15.5362 22.4649C15.072 22.9293 14.5207 23.2974 13.9139 23.5483C13.3072 23.7992 12.6568 23.9278 12.0002 23.9269ZM12.0002 2.06992C11.6062 2.06917 11.2159 2.14626 10.8518 2.29676C10.4876 2.44726 10.1568 2.66821 9.87825 2.94692L2.94824 9.87791C2.38583 10.4405 2.06989 11.2034 2.06989 11.9989C2.06989 12.7944 2.38583 13.5573 2.94824 14.1199L9.87825 21.0509C10.1568 21.3297 10.4876 21.5508 10.8518 21.7017C11.2159 21.8526 11.6061 21.9303 12.0002 21.9303C12.3944 21.9303 12.7846 21.8526 13.1487 21.7017C13.5128 21.5508 13.8436 21.3297 14.1222 21.0509L21.0522 14.1199C21.6147 13.5573 21.9306 12.7944 21.9306 11.9989C21.9306 11.2034 21.6147 10.4405 21.0522 9.87791L14.1222 2.94692C13.8437 2.66821 13.5129 2.44726 13.1487 2.29676C12.7846 2.14626 12.3943 2.06917 12.0002 2.06992Z" fill="black"/>
</g>
<defs>
<clipPath id="clip0_403_2934">
<rect width="24" height="24" fill="white"/>
</clipPath>
</defs>
</svg>
