<svg width="24" height="24" viewBox="0 0 24 24" fill="none" xmlns="http://www.w3.org/2000/svg">
<g clip-path="url(#clip0_403_2936)">
<path d="M16.0004 7.99944C14.8701 8.0004 13.753 8.24163 12.723 8.70711C11.6931 9.1726 10.7739 9.85172 10.0264 10.6994C9.54985 10.4678 9.04819 10.292 8.53135 10.1754L9.90035 7.44644C9.97635 7.29429 10.0123 7.12528 10.0048 6.95537C9.99723 6.78546 9.9465 6.62028 9.85735 6.47544C9.5399 6.01278 9.11289 5.63587 8.61438 5.37833C8.11588 5.12078 7.56138 4.99062 7.00035 4.99944C6.44016 4.99145 5.88667 5.12201 5.38911 5.37952C4.89155 5.63702 4.46533 6.01349 4.14835 6.47544C4.0592 6.62028 4.00847 6.78546 4.00095 6.95537C3.99342 7.12528 4.02936 7.29429 4.10535 7.44644L5.46935 10.1734C4.44032 10.4 3.47572 10.856 2.64747 11.5073C1.81923 12.1587 1.14871 12.9886 0.68592 13.9352C0.223133 14.8818 -0.0199844 15.9207 -0.0253015 16.9744C-0.0306186 18.028 0.202001 19.0693 0.655212 20.0205C1.10842 20.9718 1.77053 21.8084 2.59216 22.4681C3.41379 23.1278 4.37374 23.5934 5.40043 23.8304C6.42713 24.0673 7.49406 24.0695 8.52169 23.8366C9.54931 23.6037 10.5111 23.1418 11.3354 22.4854C12.3587 23.2243 13.5424 23.7106 14.7897 23.9045C16.037 24.0984 17.3124 23.9944 18.5118 23.601C19.7112 23.2076 20.8004 22.5359 21.6906 21.641C22.5807 20.746 23.2464 19.6532 23.6333 18.4517C24.0203 17.2502 24.1174 15.9742 23.9168 14.728C23.7162 13.4818 23.2235 12.3007 22.4791 11.2814C21.7347 10.262 20.7596 9.43326 19.6336 8.86285C18.5076 8.29245 17.2626 7.99659 16.0004 7.99944ZM11.2344 19.6294C10.5703 18.7666 10.1559 17.738 10.0363 16.6558C9.91678 15.5737 10.0967 14.4794 10.5564 13.4924C11.3487 14.2868 11.8474 15.327 11.9706 16.4422C12.0938 17.5573 11.8342 18.6813 11.2344 19.6294ZM2.00035 16.9994C1.99824 16.1797 2.19821 15.3722 2.58258 14.6482C2.96694 13.9242 3.52384 13.3061 4.20399 12.8486C4.88415 12.3911 5.66659 12.1083 6.48207 12.0253C7.29755 11.9422 8.12093 12.0615 8.87935 12.3724C8.16579 13.7618 7.8769 15.3304 8.04868 16.8828C8.22046 18.4352 8.84531 19.9027 9.84535 21.1024C9.09654 21.6248 8.21875 21.9317 7.30758 21.9898C6.39641 22.0478 5.48677 21.8548 4.67773 21.4316C3.86868 21.0085 3.19123 20.3715 2.71915 19.59C2.24706 18.8085 1.99844 17.9125 2.00035 16.9994ZM16.0004 21.9994C14.8353 21.9998 13.6957 21.6588 12.7224 21.0184C13.7069 19.6267 14.1467 17.9221 13.9584 16.2277C13.77 14.5334 12.9666 12.967 11.7004 11.8254C12.3899 11.1134 13.2451 10.5833 14.1896 10.2824C15.134 9.98162 16.1383 9.91947 17.1127 10.1015C18.087 10.2836 19.0011 10.7042 19.7732 11.3258C20.5452 11.9474 21.1513 12.7506 21.5372 13.6636C21.9231 14.5766 22.0767 15.571 21.9845 16.5579C21.8922 17.5449 21.5569 18.4935 21.0085 19.3192C20.46 20.1449 19.7156 20.8218 18.8417 21.2895C17.9677 21.7572 16.9916 22.0011 16.0004 21.9994Z" fill="black"/>
<path d="M10.5535 4.89542C10.6712 4.95495 10.7996 4.9906 10.9312 5.00029C11.0628 5.00998 11.195 4.99353 11.3203 4.95188C11.4455 4.91024 11.5612 4.84422 11.6608 4.75764C11.7604 4.67106 11.8418 4.56563 11.9005 4.44742L12.9005 2.44742C13.019 2.21005 13.0384 1.93531 12.9544 1.68363C12.8704 1.43196 12.6898 1.22397 12.4525 1.10542C12.3349 1.04672 12.207 1.01174 12.0759 1.00249C11.9449 0.993231 11.8133 1.00988 11.6887 1.05148C11.437 1.1355 11.229 1.31605 11.1105 1.55342L10.1105 3.55342C9.99145 3.79016 9.97125 4.06446 10.0543 4.31608C10.1374 4.5677 10.3169 4.77606 10.5535 4.89542Z" fill="black"/>
<path d="M2.10432 4.44742C2.22288 4.68545 2.43113 4.86664 2.68327 4.95112C2.80812 4.99296 2.93999 5.00979 3.07134 5.00066C3.20269 4.99153 3.33096 4.95662 3.44882 4.89792C3.56669 4.83922 3.67183 4.75788 3.75826 4.65854C3.84468 4.5592 3.9107 4.44382 3.95253 4.31897C3.99436 4.19412 4.01119 4.06226 4.00207 3.9309C3.99294 3.79955 3.95803 3.67128 3.89932 3.55342L2.89932 1.55342C2.78077 1.31605 2.57278 1.1355 2.32111 1.05148C2.06943 0.967464 1.79469 0.986866 1.55732 1.10542C1.31996 1.22397 1.1394 1.43196 1.05539 1.68363C0.97137 1.93531 0.990772 2.21005 1.10932 2.44742L2.10432 4.44742Z" fill="black"/>
<path d="M7 4C7.26521 4 7.51957 3.89464 7.7071 3.70711C7.89464 3.51957 8 3.26522 8 3V1C8 0.734784 7.89464 0.48043 7.7071 0.292893C7.51957 0.105357 7.26521 0 7 0C6.73478 0 6.48043 0.105357 6.29289 0.292893C6.10536 0.48043 6 0.734784 6 1V3C6 3.26522 6.10536 3.51957 6.29289 3.70711C6.48043 3.89464 6.73478 4 7 4Z" fill="black"/>
</g>
<defs>
<clipPath id="clip0_403_2936">
<rect width="24" height="24" fill="white"/>
</clipPath>
</defs>
</svg>
