<svg width="24" height="24" viewBox="0 0 24 24" fill="none" xmlns="http://www.w3.org/2000/svg">
<g clip-path="url(#clip0_403_2941)">
<path d="M21.4608 4.13401C21.2586 2.97525 20.6538 1.92511 19.7529 1.16878C18.8521 0.412449 17.7131 -0.00147549 16.5368 5.77515e-06H7.45181C6.27463 -0.00178403 5.13469 0.412492 4.23334 1.16966C3.33198 1.92683 2.7272 2.97818 2.52582 4.13801L0.0768181 18.138C-0.0489456 18.8566 -0.0159526 19.594 0.173482 20.2984C0.362917 21.0029 0.704205 21.6574 1.1734 22.2159C1.6426 22.7745 2.22834 23.2237 2.88952 23.5319C3.55071 23.8401 4.27132 23.9998 5.00081 24H19.0008C19.7308 24.0001 20.4519 23.8403 21.1136 23.532C21.7752 23.2236 22.3613 22.7741 22.8307 22.215C23.3 21.656 23.6413 21.0009 23.8305 20.2959C24.0197 19.5909 24.0522 18.8529 23.9258 18.134L21.4608 4.13401ZM21.3008 20.929C21.0189 21.2647 20.667 21.5346 20.2696 21.7196C19.8722 21.9046 19.4391 22.0004 19.0008 22H5.00081C4.56299 22 4.13047 21.9042 3.73362 21.7193C3.33677 21.5343 2.9852 21.2648 2.7036 20.9295C2.422 20.5943 2.2172 20.2015 2.10356 19.7786C1.98993 19.3558 1.97022 18.9133 2.04582 18.482L4.49481 4.48201C4.61675 3.78644 4.98014 3.15618 5.52103 2.70217C6.06192 2.24817 6.74564 1.99952 7.45181 2.00001H16.5368C17.2422 2.00014 17.9249 2.24883 18.4652 2.70237C19.0054 3.15591 19.3685 3.78531 19.4908 4.48001L21.9538 18.48C22.0303 18.9111 22.0114 19.3538 21.8986 19.7769C21.7858 20.1999 21.5818 20.5932 21.3008 20.929ZM13.0008 5.00001V7.00001C13.0008 7.26522 12.8954 7.51958 12.7079 7.70711C12.5204 7.89465 12.266 8.00001 12.0008 8.00001C11.7356 8.00001 11.4812 7.89465 11.2937 7.70711C11.1062 7.51958 11.0008 7.26522 11.0008 7.00001V5.00001C11.0008 4.73479 11.1062 4.48044 11.2937 4.2929C11.4812 4.10536 11.7356 4.00001 12.0008 4.00001C12.266 4.00001 12.5204 4.10536 12.7079 4.2929C12.8954 4.48044 13.0008 4.73479 13.0008 5.00001ZM13.0008 11V13C13.0008 13.2652 12.8954 13.5196 12.7079 13.7071C12.5204 13.8946 12.266 14 12.0008 14C11.7356 14 11.4812 13.8946 11.2937 13.7071C11.1062 13.5196 11.0008 13.2652 11.0008 13V11C11.0008 10.7348 11.1062 10.4804 11.2937 10.2929C11.4812 10.1054 11.7356 10 12.0008 10C12.266 10 12.5204 10.1054 12.7079 10.2929C12.8954 10.4804 13.0008 10.7348 13.0008 11ZM13.0008 17V19C13.0008 19.2652 12.8954 19.5196 12.7079 19.7071C12.5204 19.8946 12.266 20 12.0008 20C11.7356 20 11.4812 19.8946 11.2937 19.7071C11.1062 19.5196 11.0008 19.2652 11.0008 19V17C11.0008 16.7348 11.1062 16.4804 11.2937 16.2929C11.4812 16.1054 11.7356 16 12.0008 16C12.266 16 12.5204 16.1054 12.7079 16.2929C12.8954 16.4804 13.0008 16.7348 13.0008 17Z" fill="black"/>
</g>
<defs>
<clipPath id="clip0_403_2941">
<rect width="24" height="24" fill="white"/>
</clipPath>
</defs>
</svg>
