<svg width="24" height="24" viewBox="0 0 24 24" fill="none" xmlns="http://www.w3.org/2000/svg">
<path d="M23 18.9998V16.9998C22.9964 14.2571 21.9692 11.6145 20.1196 9.58939C18.27 7.56425 15.7311 6.30237 13 6.05077V4.72277C13.3813 4.50264 13.6793 4.16284 13.8478 3.75609C14.0162 3.34933 14.0458 2.89835 13.9319 2.47308C13.8179 2.04782 13.5668 1.67203 13.2175 1.40402C12.8682 1.136 12.4403 0.990723 12 0.990723C11.5597 0.990723 11.1318 1.136 10.7825 1.40402C10.4332 1.67203 10.1821 2.04782 10.0681 2.47308C9.9542 2.89835 9.98376 3.34933 10.1522 3.75609C10.3207 4.16284 10.6187 4.50264 11 4.72277V6.05077C8.26889 6.30237 5.73002 7.56425 3.88041 9.58939C2.0308 11.6145 1.00363 14.2571 1 16.9998V18.9998C0.734784 18.9998 0.48043 19.1051 0.292893 19.2927C0.105357 19.4802 0 19.7346 0 19.9998C0 20.265 0.105357 20.5193 0.292893 20.7069C0.48043 20.8944 0.734784 20.9998 1 20.9998H23C23.2652 20.9998 23.5196 20.8944 23.7071 20.7069C23.8946 20.5193 24 20.265 24 19.9998C24 19.7346 23.8946 19.4802 23.7071 19.2927C23.5196 19.1051 23.2652 18.9998 23 18.9998ZM3 16.9998C3.473 5.06577 20.531 5.07477 21 16.9998V18.9998H3V16.9998Z" fill="black"/>
</svg>
