<svg width="24" height="24" viewBox="0 0 24 24" fill="none" xmlns="http://www.w3.org/2000/svg">
<g clip-path="url(#clip0_403_2949)">
<path d="M22.1011 1.90034C18.6651 -1.53066 9.37309 -0.0666595 4.65309 4.65234C-0.0669084 9.37134 -1.52991 18.6643 1.90109 22.1003C3.50768 23.4497 5.5749 24.1236 7.66809 23.9803C12.0022 23.942 16.1666 22.2907 19.3491 19.3483C24.0671 14.6293 25.5321 5.33634 22.1011 1.90034ZM16.3341 2.00034C17.8981 1.87499 19.4519 2.34423 20.6851 3.31434C21.7011 4.33134 22.1121 6.30034 21.9601 8.54534L15.4601 2.04534C15.7551 2.02634 16.0511 2.00034 16.3341 2.00034ZM3.31709 20.6843C2.30109 19.6693 1.89009 17.7003 2.04209 15.4553L8.54209 21.9553C6.30109 22.1103 4.33209 21.7003 3.31709 20.6843ZM17.9351 17.9343C15.9992 19.7584 13.6043 21.0223 11.0061 21.5913L2.40609 12.9913C2.97639 10.3939 4.24181 8.0003 6.06709 6.06634C8.00611 4.24292 10.4054 2.98243 13.0071 2.42034L21.5931 11.0063C21.0242 13.6045 19.7598 15.9992 17.9351 17.9343ZM17.7081 11.7073C17.5206 11.8948 17.2663 12.0001 17.0011 12.0001C16.7359 12.0001 16.4816 11.8948 16.2941 11.7073L15.0011 10.4143L13.4151 12.0003L14.7081 13.2933C14.8036 13.3856 14.8798 13.4959 14.9322 13.6179C14.9846 13.7399 15.0122 13.8712 15.0133 14.0039C15.0145 14.1367 14.9892 14.2684 14.9389 14.3913C14.8886 14.5142 14.8144 14.6258 14.7205 14.7197C14.6266 14.8136 14.5149 14.8879 14.392 14.9382C14.2691 14.9884 14.1375 15.0137 14.0047 15.0126C13.8719 15.0114 13.7407 14.9839 13.6187 14.9314C13.4967 14.879 13.3863 14.8029 13.2941 14.7073L12.0011 13.4143L10.4151 15.0003L11.7081 16.2933C11.8036 16.3856 11.8798 16.4959 11.9322 16.6179C11.9846 16.7399 12.0122 16.8712 12.0133 17.0039C12.0145 17.1367 11.9892 17.2684 11.9389 17.3913C11.8886 17.5142 11.8144 17.6258 11.7205 17.7197C11.6266 17.8136 11.5149 17.8879 11.392 17.9382C11.2691 17.9884 11.1375 18.0137 11.0047 18.0126C10.8719 18.0114 10.7407 17.9839 10.6187 17.9314C10.4967 17.879 10.3863 17.8029 10.2941 17.7073L6.29409 13.7073C6.11193 13.5187 6.01114 13.2661 6.01342 13.0039C6.0157 12.7417 6.12086 12.4909 6.30627 12.3055C6.49168 12.1201 6.74249 12.0149 7.00469 12.0127C7.26689 12.0104 7.51949 12.1112 7.70809 12.2933L9.00109 13.5863L10.5871 12.0003L9.29409 10.7073C9.11193 10.5187 9.01114 10.2661 9.01342 10.0039C9.0157 9.74174 9.12086 9.49093 9.30627 9.30552C9.49168 9.12012 9.74249 9.01495 10.0047 9.01267C10.2669 9.01039 10.5195 9.11118 10.7081 9.29334L12.0011 10.5863L13.5871 9.00034L12.2941 7.70734C12.1119 7.51874 12.0111 7.26614 12.0134 7.00394C12.0157 6.74174 12.1209 6.49093 12.3063 6.30552C12.4917 6.12011 12.7425 6.01495 13.0047 6.01267C13.2669 6.01039 13.5195 6.11118 13.7081 6.29334L17.7081 10.2933C17.8956 10.4809 18.0009 10.7352 18.0009 11.0003C18.0009 11.2655 17.8956 11.5198 17.7081 11.7073Z" fill="black"/>
</g>
<defs>
<clipPath id="clip0_403_2949">
<rect width="24" height="24" fill="white"/>
</clipPath>
</defs>
</svg>
