<svg width="24" height="24" viewBox="0 0 24 24" fill="none" xmlns="http://www.w3.org/2000/svg">
<g clip-path="url(#clip0_403_2955)">
<path d="M19 1.9996H16.461C15.7695 1.21141 14.8807 0.621541 13.8858 0.290609C12.8909 -0.0403237 11.8258 -0.100383 10.8 0.116602C9.55068 0.371372 8.42128 1.03367 7.589 1.9996H5C3.67441 2.00119 2.40356 2.52848 1.46622 3.46582C0.528882 4.40316 0.00158786 5.67401 0 6.9996L0 18.9996C0.00158786 20.3252 0.528882 21.596 1.46622 22.5334C2.40356 23.4707 3.67441 23.998 5 23.9996H19C20.3256 23.998 21.5964 23.4707 22.5338 22.5334C23.4711 21.596 23.9984 20.3252 24 18.9996V6.9996C23.9984 5.67401 23.4711 4.40316 22.5338 3.46582C21.5964 2.52848 20.3256 2.00119 19 1.9996ZM12 1.9996C13.0609 1.9996 14.0783 2.42103 14.8284 3.17117C15.5786 3.92132 16 4.93874 16 5.9996C16 6.26482 15.8946 6.51917 15.7071 6.70671C15.5196 6.89424 15.2652 6.9996 15 6.9996H12.868L13.832 5.5546C13.9792 5.33394 14.0327 5.06385 13.9808 4.80373C13.9288 4.54362 13.7757 4.3148 13.555 4.1676C13.3343 4.02041 13.0642 3.9669 12.8041 4.01884C12.544 4.07079 12.3152 4.22394 12.168 4.4446L10.465 6.9996H9C8.73478 6.9996 8.48043 6.89424 8.29289 6.70671C8.10536 6.51917 8 6.26482 8 5.9996C8 4.93874 8.42143 3.92132 9.17157 3.17117C9.92172 2.42103 10.9391 1.9996 12 1.9996ZM22 18.9996C22 19.7952 21.6839 20.5583 21.1213 21.1209C20.5587 21.6835 19.7956 21.9996 19 21.9996H5C4.20435 21.9996 3.44129 21.6835 2.87868 21.1209C2.31607 20.5583 2 19.7952 2 18.9996V6.9996C2 6.20395 2.31607 5.44089 2.87868 4.87828C3.44129 4.31567 4.20435 3.9996 5 3.9996H6.393C6.1339 4.70939 6.0009 5.45901 6 6.2146C6.00079 6.95299 6.29447 7.6609 6.81658 8.18302C7.3387 8.70513 8.04662 8.99881 8.785 8.9996H15.215C15.932 9.00619 16.6235 8.73369 17.1432 8.23972C17.6629 7.74574 17.9702 7.06901 18 6.3526C18.01 5.55504 17.8939 4.76091 17.656 3.9996H19C19.7956 3.9996 20.5587 4.31567 21.1213 4.87828C21.6839 5.44089 22 6.20395 22 6.9996V18.9996Z" fill="black"/>
</g>
<defs>
<clipPath id="clip0_403_2955">
<rect width="24" height="24" fill="white"/>
</clipPath>
</defs>
</svg>
