<svg width="24" height="24" viewBox="0 0 24 24" fill="none" xmlns="http://www.w3.org/2000/svg">
<path d="M20 10.9995H19V4.99951C19 3.93865 18.5786 2.92123 17.8284 2.17108C17.0783 1.42094 16.0609 0.999512 15 0.999512H4C2.93913 0.999512 1.92172 1.42094 1.17157 2.17108C0.421427 2.92123 0 3.93865 0 4.99951L0 15.9995C0.0021456 16.6304 0.203551 17.2446 0.575468 17.7542C0.947384 18.2639 1.4708 18.643 2.071 18.8375C2.02573 19.0553 2.00195 19.2771 2 19.4995C2 20.4278 2.36875 21.318 3.02513 21.9744C3.6815 22.6308 4.57174 22.9995 5.5 22.9995C6.42826 22.9995 7.3185 22.6308 7.97487 21.9744C8.63125 21.318 9 20.4278 9 19.4995C8.99843 19.3321 8.98473 19.165 8.959 18.9995H15.041C15.0153 19.165 15.0016 19.3321 15 19.4995C15 20.4278 15.3687 21.318 16.0251 21.9744C16.6815 22.6308 17.5717 22.9995 18.5 22.9995C19.4283 22.9995 20.3185 22.6308 20.9749 21.9744C21.6313 21.318 22 20.4278 22 19.4995C21.998 19.2771 21.9743 19.0553 21.929 18.8375C22.5292 18.643 23.0526 18.2639 23.4245 17.7542C23.7964 17.2446 23.9979 16.6304 24 15.9995V14.9995C24 13.9386 23.5786 12.9212 22.8284 12.1711C22.0783 11.4209 21.0609 10.9995 20 10.9995ZM2 10.9995V6.99951H4V10.9995H2ZM6 6.99951H8V10.9995H6V6.99951ZM10 6.99951H13V16.9995H10V6.99951ZM15 6.99951H17V10.9995H15V6.99951ZM4 2.99951H15C15.5304 2.99951 16.0391 3.21023 16.4142 3.5853C16.7893 3.96037 17 4.46908 17 4.99951H2C2 4.46908 2.21071 3.96037 2.58579 3.5853C2.96086 3.21023 3.46957 2.99951 4 2.99951ZM2 12.9995H8V16.9995H3C2.73478 16.9995 2.48043 16.8942 2.29289 16.7066C2.10536 16.5191 2 16.2647 2 15.9995V12.9995ZM7 19.4995C7 19.8973 6.84196 20.2789 6.56066 20.5602C6.27936 20.8415 5.89782 20.9995 5.5 20.9995C5.10218 20.9995 4.72064 20.8415 4.43934 20.5602C4.15804 20.2789 4 19.8973 4 19.4995C4.00044 19.3286 4.03195 19.1592 4.093 18.9995H6.907C6.96805 19.1592 6.99956 19.3286 7 19.4995ZM18.5 20.9995C18.1022 20.9995 17.7206 20.8415 17.4393 20.5602C17.158 20.2789 17 19.8973 17 19.4995C17.0004 19.3286 17.0319 19.1592 17.093 18.9995H19.907C19.9681 19.1592 19.9996 19.3286 20 19.4995C20 19.8973 19.842 20.2789 19.5607 20.5602C19.2794 20.8415 18.8978 20.9995 18.5 20.9995ZM22 15.9995C22 16.2647 21.8946 16.5191 21.7071 16.7066C21.5196 16.8942 21.2652 16.9995 21 16.9995H15V12.9995H20C20.5304 12.9995 21.0391 13.2102 21.4142 13.5853C21.7893 13.9604 22 14.4691 22 14.9995V15.9995Z" fill="black"/>
</svg>
