<svg width="24" height="24" viewBox="0 0 24 24" fill="none" xmlns="http://www.w3.org/2000/svg">
<g clip-path="url(#clip0_403_2967)">
<path d="M23.7188 22.3005L17.7584 16.3401C21.2548 12.0638 20.6227 5.76278 16.3464 2.26637C12.0702 -1.23004 5.76917 -0.597974 2.27272 3.67829C-1.22374 7.95456 -0.591579 14.2556 3.68469 17.752C7.36803 20.7637 12.6631 20.7637 16.3465 17.752L22.3069 23.7124C22.7036 24.0955 23.3357 24.0846 23.7188 23.6879C24.0925 23.3009 24.0925 22.6874 23.7188 22.3005ZM2.04303 10.0252C2.04303 5.61324 5.61959 2.03668 10.0315 2.03668C14.4434 2.03668 18.02 5.61324 18.02 10.0252C18.02 14.4371 14.4434 18.0136 10.0315 18.0136C5.62165 18.0087 2.048 14.435 2.04303 10.0252ZM12.0287 6.0309C11.2827 6.03428 10.567 6.32626 10.0316 6.84573C9.49616 6.32631 8.78042 6.03428 8.03445 6.0309C6.32666 6.09006 4.98772 7.51824 5.03876 9.22628C5.03876 11.2234 7.07684 13.2834 8.78736 14.6584C9.51547 15.2383 10.5477 15.2383 11.2758 14.6584C12.9863 13.2834 15.0244 11.2234 15.0244 9.22628C15.0754 7.51824 13.7365 6.09006 12.0287 6.0309ZM10.0375 13.1007C8.18619 11.6129 7.03583 10.125 7.03583 9.22632C6.986 8.62135 7.43033 8.0881 8.0344 8.02806C8.63844 8.0881 9.08281 8.62135 9.03298 9.22632C9.03298 9.77781 9.48003 10.2249 10.0316 10.2249C10.583 10.2249 11.0301 9.77785 11.0301 9.22632C10.9803 8.62135 11.4246 8.0881 12.0287 8.02806C12.6327 8.0881 13.0771 8.62135 13.0273 9.22632C13.0272 10.125 11.8769 11.6129 10.0375 13.1007Z" fill="black"/>
</g>
<defs>
<clipPath id="clip0_403_2967">
<rect width="24" height="24" fill="white"/>
</clipPath>
</defs>
</svg>
