<svg width="24" height="24" viewBox="0 0 24 24" fill="none" xmlns="http://www.w3.org/2000/svg">
<g clip-path="url(#clip0_403_2978)">
<path d="M19.3322 14.6677C18.5761 14.6684 17.8315 14.8529 17.1627 15.2056C16.4939 15.5582 15.9209 16.0682 15.4932 16.6917L8.9842 13.7527C9.44651 12.6364 9.44831 11.3824 8.9892 10.2647L15.4892 7.31074C16.1231 8.22749 17.0645 8.8867 18.1428 9.16878C19.2211 9.45087 20.3647 9.33714 21.3663 8.84824C22.3679 8.35933 23.1611 7.52763 23.602 6.504C24.043 5.48037 24.1024 4.33261 23.7696 3.26891C23.4367 2.20521 22.7337 1.29603 21.7879 0.706291C20.8422 0.11655 19.7164 -0.114692 18.6147 0.0545119C17.5131 0.223715 16.5086 0.782157 15.7834 1.62854C15.0583 2.47492 14.6605 3.55318 14.6622 4.66774C14.6664 4.93154 14.6932 5.19449 14.7422 5.45374L7.8322 8.59374C7.16854 7.97196 6.33771 7.55757 5.44177 7.4015C4.54584 7.24542 3.62383 7.35445 2.78901 7.71519C1.95419 8.07593 1.24293 8.67267 0.742596 9.4321C0.242267 10.1915 -0.0253343 11.0806 -0.0273325 11.99C-0.0293306 12.8994 0.234362 13.7896 0.731349 14.5512C1.22834 15.3128 1.93697 15.9127 2.7702 16.2771C3.60342 16.6415 4.52495 16.7546 5.42156 16.6025C6.31817 16.4503 7.15081 16.0396 7.8172 15.4207L14.7452 18.5487C14.6971 18.8078 14.6707 19.0703 14.6662 19.3337C14.666 20.2569 14.9396 21.1593 15.4523 21.927C15.9651 22.6946 16.6939 23.2929 17.5468 23.6463C18.3996 23.9997 19.338 24.0922 20.2434 23.9121C21.1488 23.7321 21.9805 23.2876 22.6333 22.6348C23.286 21.9821 23.7305 21.1504 23.9106 20.245C24.0906 19.3396 23.9981 18.4011 23.6448 17.5483C23.2914 16.6955 22.6931 15.9666 21.9254 15.4539C21.1578 14.9411 20.2553 14.6675 19.3322 14.6677ZM19.3322 2.00074C19.8597 2.00054 20.3755 2.15679 20.8142 2.44972C21.2529 2.74265 21.5949 3.15911 21.7969 3.64643C21.9989 4.13374 22.0519 4.67002 21.9491 5.18743C21.8463 5.70484 21.5924 6.18015 21.2194 6.55324C20.8465 6.92632 20.3712 7.18043 19.8539 7.28342C19.3365 7.38641 18.8002 7.33365 18.3128 7.13182C17.8254 6.92999 17.4088 6.58815 17.1157 6.14955C16.8226 5.71094 16.6662 5.19526 16.6662 4.66774C16.6667 3.96074 16.9478 3.28284 17.4476 2.78282C17.9474 2.2828 18.6252 2.00153 19.3322 2.00074ZM4.6662 14.6677C4.13867 14.6679 3.62294 14.5117 3.18422 14.2188C2.7455 13.9258 2.40351 13.5094 2.2015 13.022C1.99949 12.5347 1.94653 11.9985 2.04932 11.481C2.15212 10.9636 2.40605 10.4883 2.77899 10.1152C3.15194 9.74215 3.62715 9.48804 4.14453 9.38506C4.6619 9.28207 5.1982 9.33483 5.68559 9.53665C6.17297 9.73848 6.58956 10.0803 6.88266 10.5189C7.17576 10.9575 7.3322 11.4732 7.3322 12.0007C7.33141 12.7077 7.0503 13.3854 6.55053 13.8854C6.05076 14.3853 5.37312 14.6667 4.6662 14.6677ZM19.3322 22.0007C18.8047 22.0007 18.2891 21.8443 17.8505 21.5513C17.4119 21.2582 17.0701 20.8417 16.8682 20.3544C16.6664 19.867 16.6135 19.3308 16.7164 18.8134C16.8194 18.2961 17.0734 17.8209 17.4463 17.4479C17.8193 17.0749 18.2945 16.8209 18.8119 16.718C19.3292 16.6151 19.8655 16.6679 20.3528 16.8698C20.8401 17.0716 21.2567 17.4134 21.5497 17.852C21.8428 18.2906 21.9992 18.8063 21.9992 19.3337C21.9987 20.0409 21.7175 20.719 21.2175 21.219C20.7174 21.7191 20.0394 22.0002 19.3322 22.0007Z" fill="black"/>
</g>
<defs>
<clipPath id="clip0_403_2978">
<rect width="24" height="24" fill="white"/>
</clipPath>
</defs>
</svg>
