<svg width="24" height="24" viewBox="0 0 24 24" fill="none" xmlns="http://www.w3.org/2000/svg">
<g clip-path="url(#clip0_403_2985)">
<path d="M12 15.0002C11.7348 15.0002 11.4804 14.8949 11.2929 14.7073C11.1054 14.5198 11 14.2655 11 14.0002C11.0371 13.3468 11.2359 12.7128 11.5785 12.1552C11.9212 11.5975 12.3969 11.1337 12.963 10.8052C13.3329 10.6025 13.629 10.2877 13.8087 9.906C13.9884 9.52434 14.0424 9.09553 13.963 8.68124C13.886 8.28552 13.6925 7.92183 13.4075 7.63677C13.1224 7.3517 12.7587 7.15826 12.363 7.08124C12.0741 7.02792 11.7771 7.03889 11.4929 7.11337C11.2088 7.18785 10.9445 7.32401 10.7189 7.51216C10.4933 7.70032 10.312 7.93586 10.1877 8.20203C10.0635 8.46821 9.99938 8.75849 10 9.05224C10 9.31745 9.89465 9.57181 9.70711 9.75934C9.51957 9.94688 9.26522 10.0522 9 10.0522C8.73479 10.0522 8.48043 9.94688 8.2929 9.75934C8.10536 9.57181 8 9.31745 8 9.05224C7.9999 8.46799 8.12779 7.89082 8.37467 7.3613C8.62155 6.83177 8.98143 6.36276 9.429 5.98724C9.85676 5.62964 10.3545 5.36542 10.8904 5.21152C11.4263 5.05762 11.9884 5.01745 12.5407 5.09358C13.0931 5.16971 13.6234 5.36046 14.0976 5.6536C14.5719 5.94673 14.9796 6.33577 15.2947 6.79576C15.6097 7.25574 15.8251 7.77651 15.9271 8.32465C16.029 8.87278 16.0153 9.43618 15.8867 9.97868C15.7581 10.5212 15.5175 11.0308 15.1804 11.4749C14.8433 11.9189 14.417 12.2876 13.929 12.5572C13.6762 12.713 13.4615 12.9235 13.3007 13.1733C13.1399 13.423 13.0372 13.7056 13 14.0002C13 14.2655 12.8946 14.5198 12.7071 14.7073C12.5196 14.8949 12.2652 15.0002 12 15.0002ZM12.793 23.7602C14.953 22.8922 22 19.4792 22 12.0432V6.87224C22.0011 5.82125 21.6706 4.79671 21.0554 3.94455C20.4403 3.0924 19.5719 2.45608 18.574 2.12624L12.315 0.0512379C12.1107 -0.0177303 11.8893 -0.0177303 11.685 0.0512379L5.426 2.12624C4.42811 2.45608 3.55975 3.0924 2.9446 3.94455C2.32946 4.79671 1.99889 5.82125 2 6.87224V12.0432C2 18.6052 9.005 22.6192 11.153 23.6932C11.4127 23.8497 11.7004 23.954 12 24.0002C12.277 23.9702 12.5459 23.8888 12.793 23.7602ZM17.944 4.02424C18.5425 4.22265 19.0633 4.60462 19.4324 5.11587C19.8015 5.62713 20.0001 6.24168 20 6.87224V12.0432C20 18.2262 13.913 21.1542 12.047 21.9042C10.159 20.9602 4 17.4592 4 12.0432V6.87224C3.99992 6.24168 4.19852 5.62713 4.56761 5.11587C4.93669 4.60462 5.45748 4.22265 6.056 4.02424L12 2.05424L17.944 4.02424ZM12 17.0002C11.8022 17.0002 11.6089 17.0589 11.4444 17.1688C11.28 17.2787 11.1518 17.4348 11.0761 17.6176C11.0004 17.8003 10.9806 18.0013 11.0192 18.1953C11.0578 18.3893 11.153 18.5675 11.2929 18.7073C11.4327 18.8472 11.6109 18.9424 11.8049 18.981C11.9989 19.0196 12.2 18.9998 12.3827 18.9241C12.5654 18.8484 12.7216 18.7203 12.8315 18.5558C12.9414 18.3914 13 18.198 13 18.0002C13 17.735 12.8946 17.4807 12.7071 17.2931C12.5196 17.1056 12.2652 17.0002 12 17.0002Z" fill="black"/>
</g>
<defs>
<clipPath id="clip0_403_2985">
<rect width="24" height="24" fill="white"/>
</clipPath>
</defs>
</svg>
