<svg width="24" height="24" viewBox="0 0 24 24" fill="none" xmlns="http://www.w3.org/2000/svg">
<g clip-path="url(#clip0_403_2983)">
<path d="M12 15.0002C11.7348 15.0002 11.4804 14.8949 11.2929 14.7073C11.1054 14.5198 11 14.2655 11 14.0002V6.00024C11 5.73502 11.1054 5.48067 11.2929 5.29313C11.4804 5.1056 11.7348 5.00024 12 5.00024C12.2652 5.00024 12.5196 5.1056 12.7071 5.29313C12.8946 5.48067 13 5.73502 13 6.00024V14.0002C13 14.2655 12.8946 14.5198 12.7071 14.7073C12.5196 14.8949 12.2652 15.0002 12 15.0002ZM12.793 23.7602C14.953 22.8922 22 19.4792 22 12.0432V6.87224C22.0011 5.82125 21.6706 4.79671 21.0554 3.94455C20.4403 3.0924 19.5719 2.45608 18.574 2.12624L12.315 0.0512379C12.1107 -0.0177303 11.8893 -0.0177303 11.685 0.0512379L5.426 2.12624C4.42811 2.45608 3.55975 3.0924 2.9446 3.94455C2.32946 4.79671 1.99889 5.82125 2 6.87224V12.0432C2 18.6052 9.005 22.6192 11.153 23.6932C11.4247 23.8229 11.7084 23.9257 12 24.0002C12.2712 23.9448 12.5366 23.8645 12.793 23.7602ZM17.944 4.02424C18.5425 4.22265 19.0633 4.60462 19.4324 5.11587C19.8015 5.62713 20.0001 6.24168 20 6.87224V12.0432C20 18.2262 13.913 21.1542 12.047 21.9042C10.159 20.9602 4 17.4592 4 12.0432V6.87224C3.99992 6.24168 4.19852 5.62713 4.56761 5.11587C4.93669 4.60462 5.45748 4.22265 6.056 4.02424L12 2.05424L17.944 4.02424ZM12 17.0002C11.8022 17.0002 11.6089 17.0589 11.4444 17.1688C11.28 17.2787 11.1518 17.4348 11.0761 17.6176C11.0004 17.8003 10.9806 18.0013 11.0192 18.1953C11.0578 18.3893 11.153 18.5675 11.2929 18.7073C11.4327 18.8472 11.6109 18.9424 11.8049 18.981C11.9989 19.0196 12.2 18.9998 12.3827 18.9241C12.5654 18.8484 12.7216 18.7203 12.8315 18.5558C12.9414 18.3914 13 18.198 13 18.0002C13 17.735 12.8946 17.4807 12.7071 17.2931C12.5196 17.1056 12.2652 17.0002 12 17.0002Z" fill="black"/>
</g>
<defs>
<clipPath id="clip0_403_2983">
<rect width="24" height="24" fill="white"/>
</clipPath>
</defs>
</svg>
