<svg width="24" height="24" viewBox="0 0 24 24" fill="none" xmlns="http://www.w3.org/2000/svg">
<g clip-path="url(#clip0_403_2987)">
<path d="M18.581 2.14073L12.316 0.0517291C12.1109 -0.016592 11.8891 -0.016592 11.684 0.0517291L5.419 2.14073C4.42291 2.47161 3.55642 3.10799 2.94265 3.95944C2.32887 4.81089 1.99904 5.83412 2 6.88373V12.0007C2 19.5637 11.2 23.7407 11.594 23.9147C11.7218 23.9715 11.8601 24.0009 12 24.0009C12.1399 24.0009 12.2782 23.9715 12.406 23.9147C12.8 23.7407 22 19.5637 22 12.0007V6.88373C22.001 5.83412 21.6711 4.81089 21.0574 3.95944C20.4436 3.10799 19.5771 2.47161 18.581 2.14073ZM20 12.0007C20 17.4557 13.681 21.0337 12 21.8897C10.317 21.0367 4 17.4697 4 12.0007V6.88373C4.00006 6.25401 4.19828 5.64027 4.56657 5.12947C4.93486 4.61868 5.45455 4.23672 6.052 4.03773L12 2.05473L17.948 4.03773C18.5455 4.23672 19.0651 4.61868 19.4334 5.12947C19.8017 5.64027 19.9999 6.25401 20 6.88373V12.0007Z" fill="black"/>
<path d="M15 9.99951H13V7.99951C13 7.73429 12.8946 7.47994 12.7071 7.2924C12.5196 7.10487 12.2652 6.99951 12 6.99951C11.7348 6.99951 11.4804 7.10487 11.2929 7.2924C11.1054 7.47994 11 7.73429 11 7.99951V9.99951H9C8.73478 9.99951 8.48043 10.1049 8.29289 10.2924C8.10536 10.4799 8 10.7343 8 10.9995C8 11.2647 8.10536 11.5191 8.29289 11.7066C8.48043 11.8941 8.73478 11.9995 9 11.9995H11V13.9995C11 14.2647 11.1054 14.5191 11.2929 14.7066C11.4804 14.8941 11.7348 14.9995 12 14.9995C12.2652 14.9995 12.5196 14.8941 12.7071 14.7066C12.8946 14.5191 13 14.2647 13 13.9995V11.9995H15C15.2652 11.9995 15.5196 11.8941 15.7071 11.7066C15.8946 11.5191 16 11.2647 16 10.9995C16 10.7343 15.8946 10.4799 15.7071 10.2924C15.5196 10.1049 15.2652 9.99951 15 9.99951Z" fill="black"/>
</g>
<defs>
<clipPath id="clip0_403_2987">
<rect width="24" height="24" fill="white"/>
</clipPath>
</defs>
</svg>
