<svg width="24" height="24" viewBox="0 0 24 24" fill="none" xmlns="http://www.w3.org/2000/svg">
<g clip-path="url(#clip0_403_2980)">
<path d="M18.581 2.14073L12.316 0.0517291C12.1109 -0.016592 11.8891 -0.016592 11.684 0.0517291L5.419 2.14073C4.42291 2.47161 3.55642 3.10799 2.94265 3.95944C2.32887 4.81089 1.99904 5.83412 2 6.88373V12.0007C2 19.5637 11.2 23.7407 11.594 23.9147C11.7218 23.9715 11.8601 24.0009 12 24.0009C12.1399 24.0009 12.2782 23.9715 12.406 23.9147C12.8 23.7407 22 19.5637 22 12.0007V6.88373C22.001 5.83412 21.6711 4.81089 21.0574 3.95944C20.4436 3.10799 19.5771 2.47161 18.581 2.14073ZM20 12.0007C20 17.4557 13.681 21.0337 12 21.8897C10.317 21.0367 4 17.4697 4 12.0007V6.88373C4.00006 6.25401 4.19828 5.64027 4.56657 5.12947C4.93486 4.61868 5.45455 4.23672 6.052 4.03773L12 2.05473L17.948 4.03773C18.5455 4.23672 19.0651 4.61868 19.4334 5.12947C19.8017 5.64027 19.9999 6.25401 20 6.88373V12.0007Z" fill="black"/>
<path d="M15.2988 8.30008L11.1108 12.5001L8.86682 10.1601C8.77676 10.0616 8.66791 9.98217 8.54668 9.92643C8.42544 9.87068 8.29428 9.83976 8.16091 9.83549C8.02755 9.83122 7.89467 9.85368 7.77012 9.90156C7.64557 9.94943 7.53186 10.0218 7.43569 10.1143C7.33952 10.2068 7.26283 10.3176 7.21015 10.4402C7.15747 10.5628 7.12985 10.6947 7.12893 10.8281C7.12801 10.9615 7.1538 11.0938 7.20479 11.2171C7.25578 11.3404 7.33093 11.4523 7.42582 11.5461L9.73182 13.9461C9.90379 14.1318 10.1117 14.2808 10.3428 14.3839C10.574 14.487 10.8237 14.5422 11.0768 14.5461H11.1098C11.3579 14.5469 11.6036 14.4984 11.8328 14.4035C12.062 14.3086 12.27 14.1691 12.4448 13.9931L16.7168 9.72108C16.8101 9.62797 16.8842 9.5174 16.9347 9.39567C16.9853 9.27395 17.0114 9.14345 17.0116 9.01164C17.0117 8.87982 16.9859 8.74928 16.9356 8.62744C16.8852 8.50561 16.8114 8.39488 16.7183 8.30158C16.6252 8.20827 16.5146 8.13422 16.3929 8.08365C16.2712 8.03308 16.1407 8.00698 16.0089 8.00684C15.8771 8.0067 15.7465 8.03252 15.6247 8.08284C15.5028 8.13315 15.3921 8.20697 15.2988 8.30008Z" fill="black"/>
</g>
<defs>
<clipPath id="clip0_403_2980">
<rect width="24" height="24" fill="white"/>
</clipPath>
</defs>
</svg>
