<svg width="24" height="24" viewBox="0 0 24 24" fill="none" xmlns="http://www.w3.org/2000/svg">
<g clip-path="url(#clip0_403_2992)">
<path d="M19.989 12.0007H18.653C17.69 9.73382 16.2074 7.72511 14.325 6.13673C13.4278 5.40316 12.3049 5.00188 11.146 5.00073H8.818L8.11 2.31573C8.00593 1.92111 7.82515 1.55085 7.57798 1.2261C7.33082 0.901339 7.0221 0.628445 6.66947 0.422996C6.31684 0.217546 5.9272 0.083564 5.52279 0.0286991C5.11838 -0.0261657 4.70712 -0.000838831 4.3125 0.103234C3.91788 0.207306 3.54762 0.388086 3.22286 0.635252C2.89811 0.882418 2.62521 1.19113 2.41976 1.54376C2.21431 1.89639 2.08033 2.28603 2.02547 2.69044C1.9706 3.09485 1.99593 3.50611 2.1 3.90073L2.394 5.00073H1C0.734784 5.00073 0.48043 5.10609 0.292893 5.29363C0.105357 5.48116 0 5.73552 0 6.00073C0 6.26595 0.105357 6.5203 0.292893 6.70784C0.48043 6.89538 0.734784 7.00073 1 7.00073H11.146C11.8438 7.00256 12.5195 7.24523 13.059 7.68773C14.4732 8.87831 15.626 10.3484 16.445 12.0057H15.625C15.0239 12.0013 14.4351 12.1753 13.933 12.5057L11.949 13.8277C11.7871 13.9383 11.5961 13.9985 11.4 14.0007H1C0.734784 14.0007 0.48043 14.1061 0.292893 14.2936C0.105357 14.4812 0 14.7355 0 15.0007C0 15.266 0.105357 15.5203 0.292893 15.7078C0.48043 15.8954 0.734784 16.0007 1 16.0007H11.4C11.9919 16.0023 12.571 15.8283 13.064 15.5007L15.047 14.1787C15.2152 14.0623 15.4166 14.0033 15.621 14.0107H19.99C20.3294 14.0095 20.6636 14.0947 20.961 14.2583C21.2584 14.4219 21.5093 14.6584 21.69 14.9457C21.8734 15.2269 21.9811 15.5506 22.0027 15.8856C22.0242 16.2206 21.9589 16.5554 21.813 16.8577C21.0792 18.3964 19.9249 19.6959 18.4836 20.606C17.0422 21.5161 15.3727 21.9997 13.668 22.0007H1C0.734784 22.0007 0.48043 22.1061 0.292893 22.2936C0.105357 22.4812 0 22.7355 0 23.0007C0 23.266 0.105357 23.5203 0.292893 23.7078C0.48043 23.8954 0.734784 24.0007 1 24.0007H13.668C15.7517 23.9965 17.7917 23.4026 19.552 22.2877C21.3124 21.1729 22.7214 19.5826 23.616 17.7007C23.9025 17.0906 24.0301 16.4181 23.9871 15.7454C23.9441 15.0728 23.7318 14.422 23.3699 13.8533C23.0081 13.2847 22.5085 12.8167 21.9174 12.4928C21.3263 12.169 20.663 11.9997 19.989 12.0007ZM4.037 3.38873C3.97168 3.10819 4.01828 2.81323 4.16691 2.56649C4.31555 2.31974 4.5545 2.14065 4.83304 2.06724C5.11158 1.99383 5.40777 2.03189 5.6587 2.17332C5.90964 2.31476 6.09557 2.54843 6.177 2.82473L6.75 5.00073H4.462L4.037 3.38873ZM0 10.0007C0 9.73552 0.105357 9.48116 0.292893 9.29363C0.48043 9.10609 0.734784 9.00073 1 9.00073H10C10.2652 9.00073 10.5196 9.10609 10.7071 9.29363C10.8946 9.48116 11 9.73552 11 10.0007C11 10.266 10.8946 10.5203 10.7071 10.7078C10.5196 10.8954 10.2652 11.0007 10 11.0007H1C0.734784 11.0007 0.48043 10.8954 0.292893 10.7078C0.105357 10.5203 0 10.266 0 10.0007ZM4 20.0007C3.80222 20.0007 3.60888 19.9421 3.44443 19.8322C3.27998 19.7223 3.15181 19.5661 3.07612 19.3834C3.00043 19.2007 2.98063 18.9996 3.01922 18.8056C3.0578 18.6117 3.15304 18.4335 3.29289 18.2936C3.43275 18.1538 3.61093 18.0585 3.80491 18.0199C3.99889 17.9814 4.19996 18.0012 4.38268 18.0769C4.56541 18.1525 4.72159 18.2807 4.83147 18.4452C4.94135 18.6096 5 18.803 5 19.0007C5 19.266 4.89464 19.5203 4.70711 19.7078C4.51957 19.8954 4.26522 20.0007 4 20.0007ZM8 20.0007C7.80222 20.0007 7.60888 19.9421 7.44443 19.8322C7.27998 19.7223 7.15181 19.5661 7.07612 19.3834C7.00043 19.2007 6.98063 18.9996 7.01922 18.8056C7.0578 18.6117 7.15304 18.4335 7.29289 18.2936C7.43275 18.1538 7.61093 18.0585 7.80491 18.0199C7.99889 17.9814 8.19996 18.0012 8.38268 18.0769C8.56541 18.1525 8.72159 18.2807 8.83147 18.4452C8.94135 18.6096 9 18.803 9 19.0007C9 19.266 8.89464 19.5203 8.70711 19.7078C8.51957 19.8954 8.26522 20.0007 8 20.0007ZM12 20.0007C11.8022 20.0007 11.6089 19.9421 11.4444 19.8322C11.28 19.7223 11.1518 19.5661 11.0761 19.3834C11.0004 19.2007 10.9806 18.9996 11.0192 18.8056C11.0578 18.6117 11.153 18.4335 11.2929 18.2936C11.4327 18.1538 11.6109 18.0585 11.8049 18.0199C11.9989 17.9814 12.2 18.0012 12.3827 18.0769C12.5654 18.1525 12.7216 18.2807 12.8315 18.4452C12.9414 18.6096 13 18.803 13 19.0007C13 19.266 12.8946 19.5203 12.7071 19.7078C12.5196 19.8954 12.2652 20.0007 12 20.0007Z" fill="black"/>
</g>
<defs>
<clipPath id="clip0_403_2992">
<rect width="24" height="24" fill="white"/>
</clipPath>
</defs>
</svg>
