<svg width="24" height="24" viewBox="0 0 24 24" fill="none" xmlns="http://www.w3.org/2000/svg">
<g clip-path="url(#clip0_403_3008)">
<path d="M7 24.0005C8.10456 24.0005 8.99999 23.1051 8.99999 22.0005C8.99999 20.8959 8.10456 20.0005 7 20.0005C5.89543 20.0005 5 20.8959 5 22.0005C5 23.1051 5.89543 24.0005 7 24.0005Z" fill="black"/>
<path d="M17 24.0005C18.1046 24.0005 19 23.1051 19 22.0005C19 20.8959 18.1046 20.0005 17 20.0005C15.8954 20.0005 15 20.8959 15 22.0005C15 23.1051 15.8954 24.0005 17 24.0005Z" fill="black"/>
<path d="M23.6849 1.33527C23.4974 1.1478 23.2431 1.04248 22.9779 1.04248C22.7127 1.04248 22.4584 1.1478 22.2709 1.33527L17.1119 6.49927L15.5609 4.88027C15.4699 4.78558 15.3611 4.70975 15.2408 4.6571C15.1205 4.60445 14.991 4.57602 14.8597 4.57342C14.7284 4.57082 14.5979 4.59411 14.4756 4.64195C14.3533 4.6898 14.2416 4.76126 14.1469 4.85227C14.0522 4.94327 13.9764 5.05204 13.9237 5.17235C13.8711 5.29266 13.8426 5.42217 13.84 5.55347C13.8348 5.81864 13.9351 6.07505 14.1189 6.26627L15.7329 7.94527C15.9049 8.13102 16.1127 8.27996 16.3439 8.38309C16.5751 8.48622 16.8248 8.54139 17.0779 8.54527H17.1109C17.3589 8.54609 17.6047 8.49762 17.8339 8.40269C18.063 8.30776 18.2711 8.16825 18.4459 7.99227L23.6849 2.74927C23.8724 2.56174 23.9777 2.30743 23.9777 2.04227C23.9777 1.7771 23.8724 1.52279 23.6849 1.33527Z" fill="black"/>
<path d="M21.9 9.016C21.7707 8.99264 21.6381 8.99499 21.5097 9.02291C21.3813 9.05083 21.2597 9.10377 21.1518 9.17871C21.0439 9.25366 20.9518 9.34913 20.8808 9.45968C20.8098 9.57023 20.7613 9.69369 20.738 9.823L20.61 10.532C20.4853 11.2243 20.1212 11.8508 19.5814 12.3019C19.0416 12.753 18.3605 13.0001 17.657 13H5.418L4.478 5H11C11.2652 5 11.5196 4.89464 11.7071 4.70711C11.8946 4.51957 12 4.26522 12 4C12 3.73478 11.8946 3.48043 11.7071 3.29289C11.5196 3.10536 11.2652 3 11 3H4.242L4.2 2.648C4.11382 1.9186 3.76306 1.24615 3.21419 0.758104C2.66532 0.270054 1.95647 0.000312836 1.222 0L1 0C0.734784 0 0.48043 0.105357 0.292893 0.292893C0.105357 0.48043 0 0.734784 0 1C0 1.26522 0.105357 1.51957 0.292893 1.70711C0.48043 1.89464 0.734784 2 1 2H1.222C1.46693 2.00003 1.70334 2.08996 1.88637 2.25272C2.06941 2.41547 2.18634 2.63975 2.215 2.883L3.591 14.583C3.73385 15.7998 4.31848 16.9218 5.23391 17.736C6.14934 18.5502 7.33185 19 8.557 19H19C19.2652 19 19.5196 18.8946 19.7071 18.7071C19.8946 18.5196 20 18.2652 20 18C20 17.7348 19.8946 17.4804 19.7071 17.2929C19.5196 17.1054 19.2652 17 19 17H8.557C7.93652 17.0001 7.33127 16.8078 6.82461 16.4497C6.31796 16.0915 5.93483 15.585 5.728 15H17.657C18.8293 15.0001 19.9643 14.5882 20.8638 13.8364C21.7633 13.0846 22.37 12.0407 22.578 10.887L22.706 10.177C22.7529 9.91618 22.6944 9.6474 22.5432 9.42972C22.3921 9.21203 22.1608 9.06323 21.9 9.016Z" fill="black"/>
</g>
<defs>
<clipPath id="clip0_403_3008">
<rect width="24" height="24" fill="white"/>
</clipPath>
</defs>
</svg>
