<svg width="24" height="24" viewBox="0 0 24 24" fill="none" xmlns="http://www.w3.org/2000/svg">
<g clip-path="url(#clip0_403_3017)">
<path d="M23.4209 16.582L20.1299 13.291C20.0381 13.1934 19.9277 13.1151 19.8052 13.0609C19.6826 13.0068 19.5504 12.9778 19.4164 12.9757C19.2825 12.9736 19.1494 12.9985 19.0252 13.0488C18.9011 13.0992 18.7883 13.1739 18.6936 13.2687C18.5988 13.3635 18.5241 13.4764 18.4739 13.6006C18.4236 13.7248 18.3989 13.8578 18.401 13.9918C18.4032 14.1258 18.4323 14.258 18.4866 14.3805C18.5408 14.503 18.6191 14.6134 18.7169 14.705L21.0069 16.999C19.762 17.0019 18.5292 16.7556 17.3809 16.2747C16.2327 15.7939 15.1922 15.0881 14.3209 14.199C14.2241 14.1099 14.1104 14.0412 13.9866 13.9968C13.8628 13.9525 13.7313 13.9335 13.5999 13.941C13.4686 13.9484 13.3401 13.9822 13.2221 14.0403C13.1041 14.0983 12.9989 14.1795 12.9129 14.279L12.8999 14.299C12.7318 14.4946 12.6457 14.7476 12.6597 15.0051C12.6736 15.2626 12.7866 15.5048 12.9749 15.681C14.0247 16.7427 15.2765 17.5833 16.6566 18.1532C18.0366 18.7231 19.5168 19.0107 21.0099 18.999L18.7169 21.292C18.6124 21.3819 18.5276 21.4924 18.4679 21.6166C18.4081 21.7408 18.3747 21.876 18.3696 22.0137C18.3646 22.1514 18.3881 22.2887 18.4387 22.4169C18.4892 22.5452 18.5657 22.6615 18.6634 22.7588C18.761 22.856 18.8777 22.932 19.0062 22.982C19.1346 23.032 19.272 23.055 19.4097 23.0493C19.5474 23.0437 19.6824 23.0097 19.8064 22.9494C19.9303 22.8892 20.0404 22.8039 20.1299 22.699L23.4209 19.408C23.7952 19.0331 24.0054 18.5249 24.0054 17.995C24.0054 17.4652 23.7952 16.957 23.4209 16.582Z" fill="black"/>
<path d="M21.0068 6.99935L18.7168 9.28935C18.6973 9.31567 18.6793 9.34305 18.6628 9.37135C18.5015 9.5681 18.4219 9.81934 18.4405 10.0731C18.4592 10.3269 18.5746 10.5638 18.763 10.7349C18.9514 10.9059 19.1983 10.998 19.4527 10.9922C19.7071 10.9863 19.9495 10.8829 20.1298 10.7034L21.8358 8.99935L23.4218 7.41435C23.69 7.14411 23.8754 6.80294 23.9564 6.43095C24.0373 6.05896 24.0104 5.67158 23.8788 5.31435C23.7817 5.0409 23.6253 4.7923 23.4208 4.58635L20.1298 1.29935C20.0385 1.20016 19.9281 1.12045 19.8053 1.06502C19.6824 1.00958 19.5495 0.979569 19.4148 0.976777C19.28 0.973985 19.146 0.998473 19.021 1.04877C18.8959 1.09907 18.7823 1.17413 18.6869 1.26946C18.5916 1.36478 18.5166 1.47839 18.4663 1.60347C18.416 1.72854 18.3915 1.8625 18.3943 1.99728C18.3971 2.13206 18.4271 2.26488 18.4825 2.38776C18.5379 2.51065 18.6176 2.62106 18.7168 2.71235L21.0098 5.00435C16.0768 5.01635 13.3728 7.67835 10.9208 10.4783C8.66885 7.93635 5.99985 5.39935 1.48686 5.04535L1.00586 4.99935C0.740642 4.99935 0.486288 5.10471 0.298752 5.29224C0.111216 5.47978 0.00585938 5.73413 0.00585938 5.99935C0.0109795 6.26296 0.11798 6.51435 0.304418 6.70079C0.490856 6.88723 0.742245 6.99423 1.00586 6.99935C1.07786 6.99935 1.29286 7.03235 1.29286 7.03235C5.18885 7.32735 7.42485 9.52135 9.59985 11.9993C7.43785 14.4653 5.21685 16.6993 1.35286 16.9593L0.952858 16.9804C0.689631 16.9968 0.443717 17.1171 0.269215 17.3149C0.0947126 17.5126 0.00591595 17.7716 0.0223594 18.0348C0.0388028 18.2981 0.159139 18.544 0.356896 18.7185C0.554653 18.893 0.813631 18.9818 1.07686 18.9653C1.23286 18.9583 1.48686 18.9524 1.61186 18.9424C6.63185 18.5554 9.35485 15.3424 11.7828 12.5333C14.2348 9.69935 16.5508 7.01735 21.0068 6.99935Z" fill="black"/>
</g>
<defs>
<clipPath id="clip0_403_3017">
<rect width="24" height="24" fill="white"/>
</clipPath>
</defs>
</svg>
