<svg width="24" height="24" viewBox="0 0 24 24" fill="none" xmlns="http://www.w3.org/2000/svg">
<g clip-path="url(#clip0_403_3020)">
<path d="M18.9 -0.000285054H5.1C3.76103 -0.0122838 2.472 0.507462 1.51584 1.44487C0.559682 2.38229 0.0145152 3.66077 0 4.99971L0 7.99971C0 8.26493 0.105357 8.51929 0.292893 8.70682C0.48043 8.89436 0.734784 8.99971 1 8.99971C1.26522 8.99971 1.51957 8.89436 1.70711 8.70682C1.89464 8.51929 2 8.26493 2 7.99971V4.99971C2.01421 4.19111 2.34856 3.42116 2.92971 2.85875C3.51087 2.29634 4.29137 1.98741 5.1 1.99971H18.9C19.7086 1.98741 20.4891 2.29634 21.0703 2.85875C21.6514 3.42116 21.9858 4.19111 22 4.99971V18.9997C21.9858 19.8083 21.6514 20.5783 21.0703 21.1407C20.4891 21.7031 19.7086 22.012 18.9 21.9997H5.1C4.29137 22.012 3.51087 21.7031 2.92971 21.1407C2.34856 20.5783 2.01421 19.8083 2 18.9997V15.9997C2 15.7345 1.89464 15.4801 1.70711 15.2926C1.51957 15.1051 1.26522 14.9997 1 14.9997C0.734784 14.9997 0.48043 15.1051 0.292893 15.2926C0.105357 15.4801 0 15.7345 0 15.9997L0 18.9997C0.0145152 20.3387 0.559682 21.6171 1.51584 22.5546C2.472 23.492 3.76103 24.0117 5.1 23.9997H18.9C20.239 24.0117 21.528 23.492 22.4842 22.5546C23.4403 21.6171 23.9855 20.3387 24 18.9997V4.99971C23.9855 3.66077 23.4403 2.38229 22.4842 1.44487C21.528 0.507462 20.239 -0.0122838 18.9 -0.000285054Z" fill="black"/>
<path d="M3 11.9989C3 12.2642 3.10536 12.5185 3.29289 12.706C3.48043 12.8936 3.73478 12.9989 4 12.9989L17.188 12.9689L12.865 17.2919C12.7695 17.3842 12.6933 17.4945 12.6409 17.6165C12.5885 17.7385 12.5609 17.8698 12.5597 18.0025C12.5586 18.1353 12.5839 18.267 12.6342 18.3899C12.6845 18.5128 12.7587 18.6244 12.8526 18.7183C12.9465 18.8122 13.0581 18.8865 13.181 18.9368C13.3039 18.987 13.4356 19.0123 13.5684 19.0112C13.7012 19.01 13.8324 18.9825 13.9544 18.93C14.0764 18.8776 14.1868 18.8015 14.279 18.7059L18.865 14.1199C19.4274 13.5574 19.7434 12.7944 19.7434 11.9989C19.7434 11.2034 19.4274 10.4405 18.865 9.87794L14.281 5.29194C14.0924 5.10978 13.8398 5.00899 13.5776 5.01127C13.3154 5.01355 13.0646 5.11872 12.8792 5.30412C12.6938 5.48953 12.5886 5.74034 12.5863 6.00254C12.584 6.26474 12.6848 6.51734 12.867 6.70594L17.129 10.9689L4 10.9989C3.73478 10.9989 3.48043 11.1043 3.29289 11.2918C3.10536 11.4794 3 11.7337 3 11.9989Z" fill="black"/>
</g>
<defs>
<clipPath id="clip0_403_3020">
<rect width="24" height="24" fill="white"/>
</clipPath>
</defs>
</svg>
