<svg width="24" height="24" viewBox="0 0 24 24" fill="none" xmlns="http://www.w3.org/2000/svg">
<g clip-path="url(#clip0_403_3029)">
<path d="M22.8283 9.17094L18.9493 5.29194C18.7607 5.10978 18.5081 5.00899 18.2459 5.01127C17.9837 5.01355 17.7329 5.11872 17.5475 5.30412C17.3621 5.48953 17.2569 5.74034 17.2546 6.00254C17.2523 6.26474 17.3531 6.51734 17.5353 6.70594L21.4143 10.5849C21.5295 10.7025 21.6302 10.8334 21.7143 10.9749C21.6993 10.9749 21.6873 10.9669 21.6723 10.9669L5.98828 10.9989C5.72306 10.9989 5.46871 11.1043 5.28117 11.2918C5.09364 11.4794 4.98828 11.7337 4.98828 11.9989C4.98828 12.2642 5.09364 12.5185 5.28117 12.706C5.46871 12.8936 5.72306 12.9989 5.98828 12.9989L21.6663 12.9669C21.6943 12.9669 21.7173 12.9529 21.7443 12.9509C21.6556 13.1201 21.5431 13.2757 21.4103 13.4129L17.5313 17.2919C17.4358 17.3842 17.3596 17.4945 17.3072 17.6165C17.2548 17.7385 17.2272 17.8698 17.226 18.0025C17.2249 18.1353 17.2502 18.267 17.3005 18.3899C17.3507 18.5128 17.425 18.6244 17.5189 18.7183C17.6128 18.8122 17.7244 18.8865 17.8473 18.9368C17.9702 18.987 18.1019 19.0123 18.2347 19.0112C18.3675 19.01 18.4987 18.9825 18.6207 18.93C18.7427 18.8776 18.853 18.8015 18.9453 18.7059L22.8243 14.8269C23.5742 14.0768 23.9954 13.0596 23.9954 11.9989C23.9954 10.9383 23.5742 9.92105 22.8243 9.17094H22.8283Z" fill="black"/>
<path d="M7 22H5C4.20435 22 3.44129 21.6839 2.87868 21.1213C2.31607 20.5587 2 19.7956 2 19V5C2 4.20435 2.31607 3.44129 2.87868 2.87868C3.44129 2.31607 4.20435 2 5 2H7C7.26522 2 7.51957 1.89464 7.70711 1.70711C7.89464 1.51957 8 1.26522 8 1C8 0.734784 7.89464 0.48043 7.70711 0.292893C7.51957 0.105357 7.26522 0 7 0L5 0C3.67441 0.00158786 2.40356 0.528882 1.46622 1.46622C0.528882 2.40356 0.00158786 3.67441 0 5L0 19C0.00158786 20.3256 0.528882 21.5964 1.46622 22.5338C2.40356 23.4711 3.67441 23.9984 5 24H7C7.26522 24 7.51957 23.8946 7.70711 23.7071C7.89464 23.5196 8 23.2652 8 23C8 22.7348 7.89464 22.4804 7.70711 22.2929C7.51957 22.1054 7.26522 22 7 22Z" fill="black"/>
</g>
<defs>
<clipPath id="clip0_403_3029">
<rect width="24" height="24" fill="white"/>
</clipPath>
</defs>
</svg>
