<svg width="24" height="24" viewBox="0 0 24 24" fill="none" xmlns="http://www.w3.org/2000/svg">
<g clip-path="url(#clip0_403_3023)">
<path d="M7 22H5C4.20435 22 3.44129 21.6839 2.87868 21.1213C2.31607 20.5587 2 19.7956 2 19V5C2 4.20435 2.31607 3.44129 2.87868 2.87868C3.44129 2.31607 4.20435 2 5 2H7C7.26522 2 7.51957 1.89464 7.70711 1.70711C7.89464 1.51957 8 1.26522 8 1C8 0.734784 7.89464 0.48043 7.70711 0.292893C7.51957 0.105357 7.26522 0 7 0L5 0C3.67441 0.00158786 2.40356 0.528882 1.46622 1.46622C0.528882 2.40356 0.00158786 3.67441 0 5L0 19C0.00158786 20.3256 0.528882 21.5964 1.46622 22.5338C2.40356 23.4711 3.67441 23.9984 5 24H7C7.26522 24 7.51957 23.8946 7.70711 23.7071C7.89464 23.5196 8 23.2652 8 23C8 22.7348 7.89464 22.4804 7.70711 22.2929C7.51957 22.1054 7.26522 22 7 22Z" fill="black"/>
<path d="M22.9991 11.0001L7.22208 11.0321C7.30979 10.8692 7.41948 10.7191 7.54808 10.5861L11.4271 6.70708C11.5226 6.61483 11.5988 6.50449 11.6512 6.38249C11.7036 6.26048 11.7312 6.12926 11.7323 5.99648C11.7335 5.8637 11.7082 5.73202 11.6579 5.60913C11.6076 5.48623 11.5334 5.37458 11.4395 5.28069C11.3456 5.18679 11.2339 5.11254 11.111 5.06226C10.9881 5.01198 10.8565 4.98668 10.7237 4.98783C10.5909 4.98898 10.4597 5.01657 10.3377 5.06898C10.2157 5.12139 10.1053 5.19757 10.0131 5.29308L6.13208 9.17208C5.3822 9.92219 4.96094 10.9394 4.96094 12.0001C4.96094 13.0607 5.3822 14.078 6.13208 14.8281L10.0111 18.7071C10.1033 18.8026 10.2137 18.8788 10.3357 18.9312C10.4577 18.9836 10.5889 19.0112 10.7217 19.0123C10.8545 19.0135 10.9861 18.9882 11.109 18.9379C11.2319 18.8876 11.3436 18.8134 11.4375 18.7195C11.5314 18.6256 11.6056 18.5139 11.6559 18.391C11.7062 18.2681 11.7315 18.1365 11.7303 18.0037C11.7292 17.8709 11.7016 17.7397 11.6492 17.6177C11.5968 17.4957 11.5206 17.3853 11.4251 17.2931L7.54608 13.4141C7.43417 13.2988 7.33647 13.1706 7.25508 13.0321L22.9991 13.0001C23.2643 13.0001 23.5187 12.8947 23.7062 12.7072C23.8937 12.5197 23.9991 12.2653 23.9991 12.0001C23.9991 11.7349 23.8937 11.4805 23.7062 11.293C23.5187 11.1054 23.2643 11.0001 22.9991 11.0001Z" fill="black"/>
</g>
<defs>
<clipPath id="clip0_403_3023">
<rect width="24" height="24" fill="white"/>
</clipPath>
</defs>
</svg>
