<svg width="24" height="24" viewBox="0 0 24 24" fill="none" xmlns="http://www.w3.org/2000/svg">
<g clip-path="url(#clip0_403_3044)">
<path d="M21.835 2.16585C21.1488 1.47951 20.3342 0.935071 19.4376 0.563617C18.541 0.192163 17.58 0.000976562 16.6095 0.000976562C15.639 0.000976562 14.678 0.192163 13.7814 0.563617C12.8848 0.935071 12.0701 1.47951 11.384 2.16585L2.16496 11.3849C1.47569 12.0704 0.928456 12.8852 0.554609 13.7826C0.180762 14.68 -0.0123504 15.6423 -0.0136651 16.6145C-0.0149798 17.5866 0.175529 18.5495 0.546948 19.4479C0.918366 20.3463 1.46339 21.1626 2.15081 21.85C2.83822 22.5374 3.65451 23.0824 4.55291 23.4539C5.45132 23.8253 6.41417 24.0158 7.38632 24.0145C8.35847 24.0132 9.32081 23.8201 10.2182 23.4462C11.1156 23.0724 11.9304 22.5251 12.616 21.8359L21.835 12.6169C22.5213 11.9307 23.0657 11.1161 23.4372 10.2194C23.8087 9.32285 23.9998 8.36185 23.9998 7.39135C23.9998 6.42085 23.8087 5.45986 23.4372 4.56326C23.0657 3.66665 22.5213 2.85201 21.835 2.16585ZM20.421 11.2009L11.2 20.4219C10.7034 20.9393 10.1086 21.3524 9.45031 21.637C8.79206 21.9216 8.08363 22.0721 7.36651 22.0794C6.6494 22.0868 5.93803 21.951 5.27406 21.68C4.6101 21.4089 4.0069 21.0081 3.4998 20.501C2.9927 19.9939 2.59189 19.3907 2.32086 18.7267C2.04983 18.0628 1.91402 17.3514 1.92139 16.6343C1.92876 15.9172 2.07917 15.2088 2.36379 14.5505C2.64842 13.8923 3.06154 13.2974 3.57896 12.8009L12.8 3.57985C13.2965 3.06243 13.8914 2.64931 14.5496 2.36468C15.2079 2.08006 15.9163 1.92965 16.6334 1.92228C17.3505 1.91491 18.0619 2.05072 18.7259 2.32175C19.3898 2.59278 19.993 2.99359 20.5001 3.50069C21.0072 4.00779 21.408 4.61099 21.6791 5.27496C21.9501 5.93892 22.0859 6.65029 22.0785 7.36741C22.0712 8.08452 21.9208 8.79295 21.6361 9.4512C21.3515 10.1095 20.9384 10.7043 20.421 11.2009ZM19.707 8.29185C19.8944 8.47938 19.9997 8.73369 19.9997 8.99885C19.9997 9.26402 19.8944 9.51832 19.707 9.70585L16.707 12.7059C16.5184 12.888 16.2658 12.9888 16.0036 12.9865C15.7414 12.9842 15.4906 12.8791 15.3051 12.6937C15.1197 12.5083 15.0146 12.2575 15.0123 11.9953C15.01 11.7331 15.1108 11.4805 15.293 11.2919L16.086 10.4989L13.5 7.91485L12.707 8.70785C12.5184 8.89001 12.2658 8.9908 12.0036 8.98853C11.7414 8.98625 11.4906 8.88108 11.3051 8.69567C11.1197 8.51026 11.0146 8.25945 11.0123 7.99725C11.01 7.73506 11.1108 7.48245 11.293 7.29385L14.293 4.29385C14.3852 4.19834 14.4956 4.12216 14.6176 4.06975C14.7396 4.01734 14.8708 3.98976 15.0036 3.9886C15.1363 3.98745 15.268 4.01275 15.3909 4.06303C15.5138 4.11331 15.6255 4.18756 15.7194 4.28146C15.8132 4.37535 15.8875 4.487 15.9378 4.6099C15.9881 4.73279 16.0134 4.86447 16.0122 4.99725C16.0111 5.13003 15.9835 5.26125 15.9311 5.38326C15.8787 5.50526 15.8025 5.61561 15.707 5.70785L14.914 6.50085L17.5 9.08685L18.293 8.29385C18.4805 8.10638 18.7348 8.00107 19 8.00107C19.2651 8.00107 19.5194 8.10638 19.707 8.29385V8.29185ZM12.707 15.2919C12.8944 15.4794 12.9997 15.7337 12.9997 15.9989C12.9997 16.264 12.8944 16.5183 12.707 16.7059L9.70696 19.7059C9.51836 19.888 9.26576 19.9888 9.00356 19.9865C8.74136 19.9842 8.49055 19.8791 8.30514 19.6937C8.11974 19.5083 8.01457 19.2575 8.01229 18.9953C8.01001 18.7331 8.1108 18.4805 8.29296 18.2919L9.08596 17.4989L6.49996 14.9149L5.70696 15.7079C5.51836 15.89 5.26576 15.9908 5.00356 15.9885C4.74136 15.9862 4.49055 15.8811 4.30514 15.6957C4.11973 15.5103 4.01457 15.2594 4.01229 14.9973C4.01001 14.7351 4.1108 14.4825 4.29296 14.2939L7.29296 11.2939C7.48156 11.1117 7.73417 11.0109 7.99636 11.0132C8.25856 11.0155 8.50937 11.1206 8.69478 11.306C8.88019 11.4914 8.98536 11.7423 8.98764 12.0045C8.98991 12.2666 8.88912 12.5192 8.70696 12.7079L7.91396 13.5009L10.5 16.0869L11.293 15.2939C11.4805 15.1064 11.7348 15.0011 12 15.0011C12.2651 15.0011 12.5194 15.1064 12.707 15.2939V15.2919Z" fill="black"/>
</g>
<defs>
<clipPath id="clip0_403_3044">
<rect width="24" height="24" fill="white"/>
</clipPath>
</defs>
</svg>
