<svg width="24" height="24" viewBox="0 0 24 24" fill="none" xmlns="http://www.w3.org/2000/svg">
<g clip-path="url(#clip0_403_3053)">
<path d="M22.7608 13.9701L20.3158 14.6161C19.9587 14.7114 19.6248 14.8789 19.3348 15.1081L16.7178 13.5861C17.0859 12.5601 17.0859 11.4381 16.7178 10.4121L19.3348 8.89012C19.6248 9.11938 19.9587 9.28682 20.3158 9.38212C20.3158 9.38212 22.9328 10.0611 23.0158 10.0611C23.2558 10.0571 23.4862 9.96703 23.6652 9.80722C23.8442 9.64742 23.9598 9.42858 23.9909 9.19064C24.0219 8.9527 23.9664 8.71153 23.8344 8.51115C23.7024 8.31076 23.5027 8.16452 23.2718 8.09912L20.8278 7.45212C20.6448 7.40353 20.4885 7.28433 20.3933 7.12066C20.2981 6.957 20.2716 6.76224 20.3198 6.57912L20.9668 4.13512C21.0004 4.00813 21.0087 3.87576 20.9912 3.74558C20.9736 3.61539 20.9306 3.48993 20.8646 3.37637C20.7986 3.2628 20.7109 3.16335 20.6064 3.08369C20.5019 3.00404 20.3828 2.94574 20.2558 2.91212C20.1288 2.8785 19.9965 2.87022 19.8663 2.88776C19.7361 2.9053 19.6106 2.9483 19.4971 3.01433C19.3835 3.08035 19.2841 3.16809 19.2044 3.27255C19.1247 3.37701 19.0664 3.49613 19.0328 3.62312L18.3868 6.06712C18.2917 6.42585 18.272 6.80038 18.3288 7.16712L15.7128 8.68312C15.0032 7.87612 14.0514 7.32044 12.9998 7.09912V4.09912C13.3443 3.96473 13.6572 3.76044 13.9188 3.49912L15.7068 1.71112C15.895 1.52361 16.001 1.26903 16.0014 1.00339C16.0019 0.737741 15.8968 0.482789 15.7093 0.294618C15.5218 0.106447 15.2672 0.000470405 15.0016 1.56222e-06C14.736 -0.000467281 14.481 0.10461 14.2928 0.292118L12.5048 2.08012C12.3704 2.21312 12.1889 2.28773 11.9998 2.28773C11.8107 2.28773 11.6293 2.21312 11.4948 2.08012L9.70683 0.292118C9.51822 0.10996 9.26562 0.00916585 9.00343 0.0114443C8.74123 0.0137227 8.49042 0.118892 8.30501 0.3043C8.1196 0.489708 8.01443 0.74052 8.01215 1.00272C8.00988 1.26491 8.11067 1.51752 8.29283 1.70612L10.0808 3.49912C10.3424 3.76044 10.6553 3.96473 10.9998 4.09912V7.09912C9.94823 7.32044 8.99648 7.87612 8.28683 8.68312L5.67083 7.16112C5.72766 6.79438 5.70792 6.41985 5.61283 6.06112L4.96683 3.61912C4.93321 3.49213 4.87491 3.37301 4.79525 3.26855C4.7156 3.16409 4.61615 3.07635 4.50258 3.01033C4.38901 2.9443 4.26356 2.9013 4.13337 2.88376C4.00318 2.86622 3.87082 2.8745 3.74383 2.90812C3.61684 2.94174 3.49772 3.00004 3.39326 3.07969C3.2888 3.15935 3.20106 3.2588 3.13504 3.37237C3.06901 3.48593 3.02601 3.61139 3.00847 3.74158C2.99093 3.87176 2.99921 4.00413 3.03283 4.13112L3.67983 6.57512C3.72801 6.75824 3.70159 6.953 3.60635 7.11666C3.51111 7.28033 3.35484 7.39953 3.17183 7.44812L0.727826 8.09912C0.493812 8.16174 0.290485 8.30718 0.155623 8.50842C0.0207611 8.70966 -0.0364663 8.95301 -0.00542668 9.19326C0.025613 9.43351 0.142809 9.65433 0.324388 9.81468C0.505966 9.97504 0.73958 10.064 0.981826 10.0651C1.06683 10.0651 3.68183 9.38612 3.68183 9.38612C4.03899 9.29082 4.37285 9.12338 4.66283 8.89412L7.27983 10.4161C6.91178 11.4421 6.91178 12.5641 7.27983 13.5901L4.66483 15.1081C4.37485 14.8789 4.04099 14.7114 3.68383 14.6161L1.23883 13.9701C0.989837 13.9217 0.731746 13.9697 0.516815 14.1044C0.301883 14.2391 0.146176 14.4504 0.0812215 14.6956C0.0162672 14.9408 0.0469209 15.2016 0.166975 15.425C0.28703 15.6485 0.487512 15.8179 0.727826 15.8991L3.17183 16.5461C3.35484 16.5947 3.51111 16.7139 3.60635 16.8776C3.70159 17.0412 3.72801 17.236 3.67983 17.4191L3.03283 19.8631C2.99921 19.9901 2.99093 20.1225 3.00847 20.2527C3.02601 20.3828 3.06901 20.5083 3.13504 20.6219C3.20106 20.7354 3.2888 20.8349 3.39326 20.9145C3.49772 20.9942 3.61684 21.0525 3.74383 21.0861C3.87082 21.1197 4.00318 21.128 4.13337 21.1105C4.26356 21.0929 4.38901 21.0499 4.50258 20.9839C4.61615 20.9179 4.7156 20.8301 4.79525 20.7257C4.87491 20.6212 4.93321 20.5021 4.96683 20.3751L5.61283 17.9311C5.70792 17.5724 5.72766 17.1979 5.67083 16.8311L8.28683 15.3091C8.99561 16.1183 9.94745 16.6762 10.9998 16.8991V19.8991C10.6555 20.0339 10.3427 20.2381 10.0808 20.4991L8.29283 22.2921C8.11067 22.4807 8.00988 22.7333 8.01215 22.9955C8.01443 23.2577 8.1196 23.5085 8.30501 23.6939C8.49042 23.8793 8.74123 23.9845 9.00343 23.9868C9.26562 23.9891 9.51822 23.8883 9.70683 23.7061L11.4998 21.9181C11.6343 21.7851 11.8157 21.7105 12.0048 21.7105C12.1939 21.7105 12.3754 21.7851 12.5098 21.9181L14.2978 23.7061C14.4864 23.8883 14.739 23.9891 15.0012 23.9868C15.2634 23.9845 15.5142 23.8793 15.6996 23.6939C15.8851 23.5085 15.9902 23.2577 15.9925 22.9955C15.9948 22.7333 15.894 22.4807 15.7118 22.2921L13.9238 20.5041C13.661 20.2407 13.3463 20.0347 12.9998 19.8991V16.8991C14.0513 16.6781 15.003 16.1227 15.7128 15.3161L18.3288 16.8381C18.272 17.2049 18.2917 17.5794 18.3868 17.9381L19.0328 20.3821C19.1007 20.6386 19.2677 20.8576 19.4971 20.9909C19.7264 21.1242 19.9994 21.161 20.2558 21.0931C20.5123 21.0252 20.7313 20.8582 20.8646 20.6289C20.998 20.3995 21.0347 20.1266 20.9668 19.8701L20.3198 17.4261C20.2716 17.243 20.2981 17.0482 20.3933 16.8846C20.4885 16.7209 20.6448 16.6017 20.8278 16.5531L23.2718 15.9061C23.4016 15.8752 23.5238 15.8186 23.6314 15.7397C23.7389 15.6609 23.8296 15.5613 23.8981 15.4468C23.9666 15.3323 24.0115 15.2053 24.0301 15.0733C24.0488 14.9412 24.0408 14.8067 24.0068 14.6778C23.9727 14.5488 23.9131 14.428 23.8316 14.3224C23.7501 14.2168 23.6484 14.1286 23.5323 14.0629C23.4162 13.9973 23.2881 13.9555 23.1556 13.9401C23.0231 13.9247 22.8889 13.9359 22.7608 13.9731V13.9701ZM11.9998 14.9991C11.2042 14.9991 10.4411 14.683 9.87851 14.1204C9.3159 13.5578 8.99983 12.7948 8.99983 11.9991C8.99983 11.2035 9.3159 10.4404 9.87851 9.8778C10.4411 9.31519 11.2042 8.99912 11.9998 8.99912C12.7955 8.99912 13.5585 9.31519 14.1211 9.8778C14.6838 10.4404 14.9998 11.2035 14.9998 11.9991C14.9998 12.7948 14.6838 13.5578 14.1211 14.1204C13.5585 14.683 12.7955 14.9991 11.9998 14.9991Z" fill="black"/>
</g>
<defs>
<clipPath id="clip0_403_3053">
<rect width="24" height="24" fill="white"/>
</clipPath>
</defs>
</svg>
