<svg width="24" height="24" viewBox="0 0 24 24" fill="none" xmlns="http://www.w3.org/2000/svg">
<g clip-path="url(#clip0_403_3057)">
<path d="M13.8602 24H10.1382C7.79732 24.0103 5.54618 23.1002 3.87017 21.466C2.12349 19.7055 0.848577 17.5333 0.16317 15.15C-0.0138176 14.5524 -0.0491066 13.9218 0.0601026 13.3082C0.169312 12.6946 0.420014 12.1148 0.79232 11.615C1.16463 11.1152 1.64829 10.709 2.20494 10.4286C2.76159 10.1483 3.37592 10.0015 3.99917 10H19.9992C20.6225 10.0014 21.237 10.1481 21.7938 10.4284C22.3506 10.7086 22.8344 11.1148 23.2069 11.6146C23.5794 12.1144 23.8303 12.6942 23.9397 13.3078C24.0491 13.9215 24.014 14.5522 23.8372 15.15C23.1522 17.5337 21.8768 19.7061 20.1292 21.466C18.4532 23.1008 16.2015 24.011 13.8602 24ZM3.99917 12C3.68842 11.9985 3.38168 12.0701 3.10373 12.2091C2.82578 12.3481 2.58443 12.5505 2.39917 12.8C2.20906 13.0525 2.08088 13.3461 2.02495 13.6572C1.96903 13.9682 1.98691 14.2881 2.07717 14.591C2.67521 16.6479 3.77479 18.5241 5.27717 20.051C6.57883 21.3136 8.32481 22.0136 10.1382 22H13.8602C15.6722 22.0125 17.4165 21.3118 18.7162 20.049C20.219 18.5225 21.3187 16.6462 21.9162 14.589C22.0064 14.2861 22.0243 13.9662 21.9684 13.6552C21.9125 13.3441 21.7843 13.0505 21.5942 12.798C21.4094 12.5494 21.1688 12.3476 20.8917 12.209C20.6147 12.0704 20.309 11.9988 19.9992 12H3.99917ZM15.9992 6C16.0009 5.42009 15.8876 4.84561 15.6656 4.30986C15.4436 3.77411 15.1175 3.28775 14.7062 2.879C14.4809 2.65482 14.3024 2.38813 14.1811 2.09441C14.0597 1.8007 13.9979 1.4858 13.9992 1.168V1C13.9992 0.734784 13.8938 0.48043 13.7063 0.292893C13.5187 0.105357 13.2644 0 12.9992 0C12.734 0 12.4796 0.105357 12.2921 0.292893C12.1045 0.48043 11.9992 0.734784 11.9992 1V1.168C11.9975 1.74804 12.1109 2.32265 12.3329 2.85855C12.5548 3.39445 12.8809 3.881 13.2922 4.29C13.5173 4.51406 13.6957 4.78059 13.8171 5.07412C13.9385 5.36766 14.0003 5.68237 13.9992 6C13.9992 6.26522 14.1045 6.51957 14.2921 6.70711C14.4796 6.89464 14.734 7 14.9992 7C15.2644 7 15.5187 6.89464 15.7063 6.70711C15.8938 6.51957 15.9992 6.26522 15.9992 6ZM11.9992 7V6.692C12.0007 6.11221 11.8874 5.53787 11.6656 5.00217C11.4438 4.46646 11.1181 3.98004 10.7072 3.571C10.4822 3.34738 10.3038 3.08137 10.1823 2.78838C10.0608 2.49538 9.99852 2.1812 9.99917 1.864V1C9.99917 0.734784 9.89381 0.48043 9.70628 0.292893C9.51874 0.105357 9.26439 0 8.99917 0C8.73395 0 8.4796 0.105357 8.29206 0.292893C8.10453 0.48043 7.99917 0.734784 7.99917 1V1.864C7.99768 2.44386 8.11119 3.01827 8.33313 3.55398C8.55507 4.08969 8.88104 4.57608 9.29217 4.985C9.51695 5.20871 9.69517 5.47475 9.81652 5.76774C9.93787 6.06073 9.99995 6.37487 9.99917 6.692V7C9.99917 7.26522 10.1045 7.51957 10.2921 7.70711C10.4796 7.89464 10.734 8 10.9992 8C11.2644 8 11.5187 7.89464 11.7063 7.70711C11.8938 7.51957 11.9992 7.26522 11.9992 7Z" fill="black"/>
</g>
<defs>
<clipPath id="clip0_403_3057">
<rect width="24" height="24" fill="white"/>
</clipPath>
</defs>
</svg>
