<svg width="24" height="24" viewBox="0 0 24 24" fill="none" xmlns="http://www.w3.org/2000/svg">
<path d="M16 0H8C6.67441 0.00158786 5.40356 0.528882 4.46622 1.46622C3.52888 2.40356 3.00159 3.67441 3 5V19C3.00159 20.3256 3.52888 21.5964 4.46622 22.5338C5.40356 23.4711 6.67441 23.9984 8 24H16C17.3256 23.9984 18.5964 23.4711 19.5338 22.5338C20.4711 21.5964 20.9984 20.3256 21 19V5C20.9984 3.67441 20.4711 2.40356 19.5338 1.46622C18.5964 0.528882 17.3256 0.00158786 16 0V0ZM19 19C19 19.7956 18.6839 20.5587 18.1213 21.1213C17.5587 21.6839 16.7956 22 16 22H8C7.20435 22 6.44129 21.6839 5.87868 21.1213C5.31607 20.5587 5 19.7956 5 19V5C5 4.20435 5.31607 3.44129 5.87868 2.87868C6.44129 2.31607 7.20435 2 8 2H16C16.7956 2 17.5587 2.31607 18.1213 2.87868C18.6839 3.44129 19 4.20435 19 5V19Z" fill="black"/>
<path d="M12 7.5C12.8284 7.5 13.5 6.82843 13.5 6C13.5 5.17157 12.8284 4.5 12 4.5C11.1716 4.5 10.5 5.17157 10.5 6C10.5 6.82843 11.1716 7.5 12 7.5Z" fill="black"/>
<path d="M12 9.99951C11.0111 9.99951 10.0444 10.2928 9.22215 10.8422C8.39991 11.3916 7.75904 12.1725 7.3806 13.0861C7.00217 13.9997 6.90315 15.0051 7.09608 15.975C7.289 16.9449 7.76521 17.8358 8.46447 18.535C9.16373 19.2343 10.0546 19.7105 11.0246 19.9034C11.9945 20.0964 12.9998 19.9973 13.9134 19.6189C14.827 19.2405 15.6079 18.5996 16.1574 17.7774C16.7068 16.9551 17 15.9884 17 14.9995C16.9984 13.6739 16.4711 12.4031 15.5338 11.4657C14.5964 10.5284 13.3256 10.0011 12 9.99951ZM12 17.9995C11.4067 17.9995 10.8266 17.8236 10.3333 17.4939C9.83994 17.1643 9.45543 16.6957 9.22836 16.1476C9.0013 15.5994 8.94189 14.9962 9.05765 14.4142C9.1734 13.8323 9.45912 13.2977 9.87868 12.8782C10.2982 12.4586 10.8328 12.1729 11.4147 12.0572C11.9967 11.9414 12.5999 12.0008 13.1481 12.2279C13.6962 12.4549 14.1648 12.8395 14.4944 13.3328C14.8241 13.8261 15 14.4062 15 14.9995C15 15.7952 14.6839 16.5582 14.1213 17.1208C13.5587 17.6834 12.7957 17.9995 12 17.9995Z" fill="black"/>
<path d="M12 16.0005C12.5523 16.0005 13 15.5528 13 15.0005C13 14.4482 12.5523 14.0005 12 14.0005C11.4477 14.0005 11 14.4482 11 15.0005C11 15.5528 11.4477 16.0005 12 16.0005Z" fill="black"/>
</svg>
