<svg width="24" height="24" viewBox="0 0 24 24" fill="none" xmlns="http://www.w3.org/2000/svg">
<g clip-path="url(#clip0_403_3070)">
<path d="M11.9993 24C9.86448 23.9995 7.76849 23.4296 5.92745 22.3489C4.0864 21.2683 2.56696 19.7161 1.52583 17.8524C0.484699 15.9887 -0.0404214 13.8811 0.00462575 11.7468C0.0496729 9.61249 0.663257 7.52885 1.78209 5.71077C2.90093 3.89268 4.48452 2.40598 6.36952 1.40398C8.25452 0.401986 10.3727 -0.079019 12.5056 0.010575C14.6385 0.100169 16.7088 0.757119 18.5032 1.91367C20.2975 3.07022 21.7508 4.68449 22.7133 6.59C22.7772 6.70766 22.8168 6.83697 22.8298 6.97024C22.8429 7.10351 22.829 7.23804 22.789 7.36585C22.7491 7.49366 22.6838 7.61213 22.5972 7.71426C22.5106 7.81638 22.4044 7.90007 22.2848 7.96035C22.1652 8.02064 22.0348 8.0563 21.9012 8.06522C21.7675 8.07413 21.6335 8.05612 21.507 8.01225C21.3805 7.96838 21.2641 7.89955 21.1646 7.80984C21.0652 7.72013 20.9848 7.61137 20.9283 7.49C19.9147 5.48322 18.2546 3.87651 16.2157 2.92921C14.1768 1.98191 11.8782 1.74929 9.69086 2.2689C7.50353 2.7885 5.55511 4.03002 4.16008 5.79305C2.76505 7.55609 2.00482 9.73778 2.00208 11.986C1.99934 14.2342 2.75427 16.4177 4.145 18.1841C5.53573 19.9506 7.48113 21.1968 9.66718 21.7217C11.8532 22.2467 14.1524 22.0196 16.1936 21.0773C18.2348 20.135 19.8988 18.5323 20.9173 16.528C21.0422 16.3 21.2511 16.1296 21.4996 16.053C21.7481 15.9764 22.0167 15.9996 22.2484 16.1177C22.48 16.2358 22.6566 16.4396 22.7406 16.6857C22.8246 16.9318 22.8094 17.2009 22.6983 17.436C21.6987 19.4144 20.1688 21.076 18.2795 22.2351C16.3902 23.3942 14.2158 24.0053 11.9993 24Z" fill="black"/>
</g>
<defs>
<clipPath id="clip0_403_3070">
<rect width="24" height="24" fill="white"/>
</clipPath>
</defs>
</svg>
