<svg width="24" height="24" viewBox="0 0 24 24" fill="none" xmlns="http://www.w3.org/2000/svg">
<path d="M16.0394 4.00049C15.3836 4.00206 14.7463 4.21783 14.2244 4.61496C13.7026 5.01209 13.3247 5.56884 13.1484 6.20049L9.09943 20.7685C9.00262 21.1197 8.79414 21.4299 8.5055 21.6521C8.21685 21.8744 7.86371 21.9967 7.49943 22.0005C7.14314 21.9958 6.7968 21.8822 6.50689 21.6751C6.21697 21.4679 5.99733 21.177 5.87743 20.8415L3.08443 13.1615C2.90241 12.6382 2.59741 12.1663 2.19509 11.7853C1.79277 11.4044 1.30488 11.1257 0.772437 10.9725C0.514647 10.91 0.292227 10.7477 0.154106 10.5213C0.0159858 10.2948 -0.0265206 10.0228 0.0359378 9.76499C0.0983962 9.5072 0.260703 9.28478 0.487153 9.14666C0.713603 9.00854 0.985646 8.96603 1.24344 9.02849C2.09756 9.25739 2.88292 9.69127 3.53136 10.2925C4.1798 10.8937 4.67172 11.6441 4.96443 12.4785L7.43843 19.2785L11.2224 5.66249C11.5171 4.61084 12.147 3.68412 13.0164 3.02315C13.8858 2.36219 14.9473 2.00311 16.0394 2.00049H22.9994C23.2646 2.00049 23.519 2.10585 23.7065 2.29338C23.8941 2.48092 23.9994 2.73527 23.9994 3.00049C23.9994 3.2657 23.8941 3.52006 23.7065 3.7076C23.519 3.89513 23.2646 4.00049 22.9994 4.00049H16.0394ZM23.5994 12.2005C23.3872 12.0414 23.1205 11.973 22.858 12.0105C22.5954 12.048 22.3585 12.1883 22.1994 12.4005L19.9994 15.3335L17.7994 12.4005C17.6403 12.1883 17.4034 12.048 17.1408 12.0105C16.8783 11.973 16.6116 12.0414 16.3994 12.2005C16.1872 12.3596 16.047 12.5965 16.0095 12.8591C15.972 13.1216 16.0403 13.3883 16.1994 13.6005L18.7494 17.0005L16.1994 20.4005C16.1206 20.5055 16.0633 20.6251 16.0307 20.7523C15.9981 20.8795 15.9909 21.0119 16.0095 21.1419C16.028 21.2719 16.072 21.397 16.1389 21.51C16.2059 21.623 16.2944 21.7217 16.3994 21.8005C16.5045 21.8793 16.624 21.9366 16.7512 21.9692C16.8785 22.0018 17.0108 22.009 17.1408 21.9904C17.2708 21.9719 17.3959 21.9279 17.5089 21.861C17.6219 21.7941 17.7206 21.7055 17.7994 21.6005L19.9994 18.6675L22.1994 21.6005C22.2782 21.7055 22.3769 21.7941 22.4899 21.861C22.6029 21.9279 22.728 21.9719 22.858 21.9904C22.988 22.009 23.1204 22.0018 23.2476 21.9692C23.3748 21.9366 23.4944 21.8793 23.5994 21.8005C23.7045 21.7217 23.793 21.623 23.8599 21.51C23.9268 21.397 23.9708 21.2719 23.9894 21.1419C24.0079 21.0119 24.0007 20.8795 23.9681 20.7523C23.9355 20.6251 23.8782 20.5055 23.7994 20.4005L21.2494 17.0005L23.7994 13.6005C23.8782 13.4954 23.9355 13.3759 23.9681 13.2487C24.0007 13.1215 24.0079 12.9891 23.9894 12.8591C23.9708 12.7291 23.9268 12.604 23.8599 12.491C23.793 12.378 23.7045 12.2793 23.5994 12.2005Z" fill="black"/>
</svg>
