<svg width="24" height="24" viewBox="0 0 24 24" fill="none" xmlns="http://www.w3.org/2000/svg">
<g clip-path="url(#clip0_403_3076)">
<path d="M21.7687 8.94826C21.6056 8.88992 21.4564 8.79797 21.331 8.67835C21.2056 8.55874 21.1067 8.41414 21.0408 8.25389C20.9748 8.09365 20.9432 7.92134 20.948 7.74811C20.9528 7.57488 20.9939 7.40459 21.0687 7.24826C21.3557 6.64431 21.4488 5.96635 21.3351 5.30742C21.2214 4.64849 20.9066 4.04089 20.4338 3.56802C19.9611 3.09515 19.3535 2.78018 18.6946 2.66635C18.0357 2.55252 17.3577 2.64541 16.7537 2.93226C16.5974 3.00688 16.4271 3.04789 16.2539 3.05263C16.0807 3.05737 15.9085 3.02574 15.7483 2.95977C15.5881 2.89381 15.4435 2.79498 15.3239 2.66966C15.2042 2.54435 15.1122 2.39534 15.0537 2.23226C14.8289 1.60334 14.4152 1.05929 13.8692 0.674629C13.3232 0.289966 12.6716 0.0834961 12.0037 0.0834961C11.3358 0.0834961 10.6843 0.289966 10.1383 0.674629C9.59228 1.05929 9.17854 1.60334 8.95373 2.23226C8.89539 2.39544 8.80344 2.54455 8.68383 2.66995C8.56422 2.79535 8.41961 2.89424 8.25937 2.96023C8.09912 3.02621 7.92681 3.05781 7.75358 3.053C7.58035 3.04818 7.41006 3.00704 7.25373 2.93226C6.64941 2.64313 5.9703 2.5485 5.30995 2.66141C4.64961 2.77432 4.04052 3.08921 3.56659 3.5627C3.09266 4.03619 2.7772 4.64499 2.66369 5.30523C2.55017 5.96547 2.64416 6.64466 2.93273 7.24926C3.00768 7.40556 3.04894 7.57587 3.05384 7.74915C3.05873 7.92242 3.02716 8.09479 2.96116 8.25508C2.89516 8.41537 2.7962 8.55999 2.67072 8.67958C2.54523 8.79917 2.39601 8.89105 2.23273 8.94926C1.60426 9.17452 1.06072 9.58843 0.676448 10.1344C0.292177 10.6803 0.0859375 11.3316 0.0859375 11.9993C0.0859375 12.6669 0.292177 13.3182 0.676448 13.8641C1.06072 14.4101 1.60426 14.824 2.23273 15.0493C2.39635 15.1071 2.54599 15.1987 2.67193 15.318C2.79787 15.4374 2.89731 15.582 2.96379 15.7423C3.03026 15.9026 3.0623 16.0751 3.05781 16.2485C3.05332 16.422 3.01241 16.5926 2.93773 16.7493C2.65057 17.3528 2.55723 18.0305 2.67051 18.6892C2.7838 19.3479 3.09816 19.9555 3.57046 20.4284C4.04276 20.9014 4.64985 21.2166 5.30842 21.3308C5.96699 21.445 6.64476 21.3526 7.24873 21.0663C7.40506 20.9915 7.57535 20.9503 7.74858 20.9455C7.92181 20.9407 8.09412 20.9723 8.25437 21.0383C8.41461 21.1043 8.55922 21.2032 8.67883 21.3286C8.79844 21.454 8.89039 21.6031 8.94873 21.7663C9.17354 22.3952 9.58728 22.9392 10.1333 23.3239C10.6793 23.7086 11.3308 23.915 11.9987 23.915C12.6666 23.915 13.3182 23.7086 13.8642 23.3239C14.4102 22.9392 14.8239 22.3952 15.0487 21.7663C15.1071 21.6031 15.199 21.454 15.3186 21.3286C15.4382 21.2032 15.5829 21.1043 15.7431 21.0383C15.9033 20.9723 16.0757 20.9407 16.2489 20.9455C16.4221 20.9503 16.5924 20.9915 16.7487 21.0663C17.3527 21.3533 18.0306 21.4463 18.6896 21.3326C19.3485 21.2189 19.9561 20.9041 20.429 20.4314C20.9018 19.9586 21.2168 19.3511 21.3306 18.6922C21.4445 18.0333 21.3516 17.3553 21.0647 16.7513C20.9901 16.5949 20.9491 16.4246 20.9444 16.2515C20.9396 16.0783 20.9713 15.906 21.0372 15.7458C21.1032 15.5856 21.202 15.441 21.3273 15.3214C21.4526 15.2018 21.6016 15.1097 21.7647 15.0513C22.3937 14.8264 22.9377 14.4127 23.3224 13.8667C23.707 13.3207 23.9135 12.6692 23.9135 12.0013C23.9135 11.3334 23.707 10.6818 23.3224 10.1358C22.9377 9.58981 22.3937 9.17607 21.7647 8.95126L21.7687 8.94826ZM21.0987 13.1673C20.6718 13.3191 20.2815 13.5589 19.953 13.871C19.6245 14.1832 19.3652 14.5608 19.1917 14.9794C19.0183 15.3981 18.9347 15.8484 18.9462 16.3014C18.9578 16.7544 19.0642 17.2 19.2587 17.6093C19.3688 17.8404 19.4046 18.1 19.3611 18.3523C19.3176 18.6047 19.197 18.8373 19.0159 19.0183C18.8348 19.1993 18.6021 19.3197 18.3497 19.3631C18.0974 19.4064 17.8378 19.3705 17.6067 19.2603C17.1975 19.0658 16.7521 18.9593 16.2991 18.9478C15.8462 18.9362 15.3959 19.0199 14.9773 19.1933C14.5588 19.3667 14.1812 19.6261 13.8692 19.9546C13.5571 20.283 13.3175 20.6734 13.1657 21.1003C13.0803 21.3415 12.9222 21.5503 12.7132 21.698C12.5043 21.8457 12.2546 21.925 11.9987 21.925C11.7428 21.925 11.4932 21.8457 11.2842 21.698C11.0752 21.5503 10.9172 21.3415 10.8317 21.1003C10.6797 20.6734 10.4399 20.2832 10.1277 19.9548C9.81557 19.6264 9.43799 19.3671 9.01938 19.1937C8.60078 19.0203 8.15045 18.9367 7.6975 18.9481C7.24455 18.9596 6.79903 19.0659 6.38973 19.2603C6.1586 19.37 5.89916 19.4055 5.64705 19.3618C5.39495 19.3182 5.16253 19.1976 4.98172 19.0166C4.80091 18.8355 4.68058 18.603 4.63725 18.3508C4.59392 18.0987 4.62972 17.8393 4.73973 17.6083C4.93421 17.199 5.04062 16.7535 5.05208 16.3005C5.06354 15.8475 4.97981 15.3972 4.80629 14.9786C4.63276 14.56 4.37332 14.1825 4.04473 13.8705C3.71614 13.5585 3.32573 13.3189 2.89873 13.1673C2.65795 13.0814 2.44963 12.9231 2.30232 12.7142C2.15502 12.5053 2.07594 12.2559 2.07594 12.0003C2.07594 11.7446 2.15502 11.4952 2.30232 11.2863C2.44963 11.0774 2.65795 10.9191 2.89873 10.8333C3.32587 10.6817 3.7164 10.4421 4.04506 10.13C4.37372 9.81785 4.63318 9.44021 4.80663 9.02147C4.98008 8.60274 5.06366 8.15224 5.05197 7.69916C5.04027 7.24607 4.93356 6.80049 4.73873 6.39126C4.62886 6.16019 4.59322 5.90078 4.6367 5.64864C4.68018 5.39651 4.80065 5.16402 4.98157 4.9831C5.16249 4.80218 5.39498 4.68171 5.64712 4.63823C5.89925 4.59474 6.15867 4.63039 6.38973 4.74026C6.79901 4.93476 7.24454 5.04123 7.69754 5.05276C8.15054 5.0643 8.60092 4.98066 9.01957 4.80725C9.43822 4.63383 9.81582 4.3745 10.128 4.04601C10.4401 3.71753 10.6799 3.3272 10.8317 2.90026C10.9172 2.65902 11.0752 2.45019 11.2842 2.30249C11.4932 2.15479 11.7428 2.07548 11.9987 2.07548C12.2546 2.07548 12.5043 2.15479 12.7132 2.30249C12.9222 2.45019 13.0803 2.65902 13.1657 2.90026C13.3176 3.3272 13.5573 3.71753 13.8695 4.04601C14.1816 4.3745 14.5592 4.63383 14.9779 4.80725C15.3965 4.98066 15.8469 5.0643 16.2999 5.05276C16.7529 5.04123 17.1985 4.93476 17.6077 4.74026C17.8389 4.63018 18.0985 4.59443 18.3508 4.63791C18.6031 4.68139 18.8358 4.80197 19.0168 4.98307C19.1978 5.16417 19.3182 5.3969 19.3615 5.64924C19.4049 5.90159 19.3689 6.16116 19.2587 6.39226C19.0642 6.80146 18.9578 7.24693 18.9463 7.69986C18.9347 8.15279 19.0184 8.6031 19.1918 9.02167C19.3652 9.44024 19.6246 9.81776 19.953 10.1298C20.2815 10.4419 20.6718 10.6815 21.0987 10.8333C21.34 10.9187 21.5488 11.0768 21.6965 11.2857C21.8442 11.4947 21.9235 11.7443 21.9235 12.0003C21.9235 12.2562 21.8442 12.5058 21.6965 12.7148C21.5488 12.9238 21.34 13.0818 21.0987 13.1673Z" fill="black"/>
</g>
<defs>
<clipPath id="clip0_403_3076">
<rect width="24" height="24" fill="white"/>
</clipPath>
</defs>
</svg>
