<svg width="24" height="24" viewBox="0 0 24 24" fill="none" xmlns="http://www.w3.org/2000/svg">
<g clip-path="url(#clip0_403_3092)">
<path d="M23.9667 10.4162C23.665 8.19347 22.7483 6.09921 21.3201 4.36955C19.8919 2.63988 18.0089 1.34359 15.8834 0.626829C13.7578 -0.0899361 11.4743 -0.198674 9.29034 0.312875C7.10633 0.824425 5.10865 1.93592 3.52253 3.52204C1.93641 5.10816 0.824913 7.10584 0.313364 9.28985C-0.198185 11.4739 -0.0894478 13.7573 0.627317 15.8829C1.34408 18.0084 2.64037 19.8914 4.37004 21.3196C6.0997 22.7479 8.19396 23.6645 10.4167 23.9662C10.5788 23.9873 10.7422 23.998 10.9057 23.9982C11.9604 23.9895 12.9688 23.5638 13.7107 22.8142L22.8107 13.7142C23.2427 13.2895 23.5716 12.7713 23.772 12.1995C23.9724 11.6278 24.039 11.0177 23.9667 10.4162ZM2.06669 10.8902C2.33565 8.51693 3.44237 6.31743 5.18789 4.68712C6.93341 3.05681 9.20325 2.10262 11.5893 1.99609C13.9754 1.88956 16.3213 2.63767 18.2051 4.10595C20.089 5.57422 21.3873 7.66634 21.8667 10.0062C18.7344 10.044 15.7409 11.3046 13.5251 13.5189C11.3093 15.7332 10.0466 18.7259 10.0067 21.8582C7.54688 21.3622 5.36391 19.9584 3.89197 17.9262C2.42002 15.8939 1.76697 13.382 2.06269 10.8902H2.06669ZM12.2997 21.3992C12.2135 21.4819 12.1205 21.5572 12.0217 21.6242C12.1188 19.1075 13.162 16.72 14.9428 14.939C16.7237 13.158 19.111 12.1146 21.6277 12.0172C21.5613 12.1166 21.4864 12.2099 21.4037 12.2962L12.2997 21.3992Z" fill="black"/>
</g>
<defs>
<clipPath id="clip0_403_3092">
<rect width="24" height="24" fill="white"/>
</clipPath>
</defs>
</svg>
