<svg width="24" height="24" viewBox="0 0 24 24" fill="none" xmlns="http://www.w3.org/2000/svg">
<path d="M19 22.0005H5C3.67441 21.9989 2.40356 21.4716 1.46622 20.5343C0.528882 19.5969 0.00158786 18.3261 0 17.0005L0 7.00049C0.00158786 5.67489 0.528882 4.40405 1.46622 3.46671C2.40356 2.52937 3.67441 2.00208 5 2.00049H19C20.3256 2.00208 21.5964 2.52937 22.5338 3.46671C23.4711 4.40405 23.9984 5.67489 24 7.00049V17.0005C23.9984 18.3261 23.4711 19.5969 22.5338 20.5343C21.5964 21.4716 20.3256 21.9989 19 22.0005ZM5 4.00049C4.20435 4.00049 3.44129 4.31656 2.87868 4.87917C2.31607 5.44178 2 6.20484 2 7.00049V17.0005C2 17.7961 2.31607 18.5592 2.87868 19.1218C3.44129 19.6844 4.20435 20.0005 5 20.0005H19C19.7956 20.0005 20.5587 19.6844 21.1213 19.1218C21.6839 18.5592 22 17.7961 22 17.0005V7.00049C22 6.20484 21.6839 5.44178 21.1213 4.87917C20.5587 4.31656 19.7956 4.00049 19 4.00049H5Z" fill="black"/>
<path d="M19 13.0005H11C10.7348 13.0005 10.4804 12.8951 10.2929 12.7076C10.1054 12.5201 10 12.2657 10 12.0005C10 11.7353 10.1054 11.4809 10.2929 11.2934C10.4804 11.1058 10.7348 11.0005 11 11.0005H19C19.2652 11.0005 19.5196 11.1058 19.7071 11.2934C19.8946 11.4809 20 11.7353 20 12.0005C20 12.2657 19.8946 12.5201 19.7071 12.7076C19.5196 12.8951 19.2652 13.0005 19 13.0005Z" fill="black"/>
<path d="M6.99999 13.0005H5C4.73478 13.0005 4.48043 12.8951 4.29289 12.7076C4.10536 12.5201 4 12.2657 4 12.0005C4 11.7353 4.10536 11.4809 4.29289 11.2934C4.48043 11.1058 4.73478 11.0005 5 11.0005H6.99999C7.26521 11.0005 7.51956 11.1058 7.7071 11.2934C7.89464 11.4809 7.99999 11.7353 7.99999 12.0005C7.99999 12.2657 7.89464 12.5201 7.7071 12.7076C7.51956 12.8951 7.26521 13.0005 6.99999 13.0005Z" fill="black"/>
<path d="M13 17.9995H5C4.73478 17.9995 4.48043 17.8942 4.29289 17.7066C4.10536 17.5191 4 17.2647 4 16.9995C4 16.7343 4.10536 16.4799 4.29289 16.2924C4.48043 16.1049 4.73478 15.9995 5 15.9995H13C13.2652 15.9995 13.5196 16.1049 13.7071 16.2924C13.8946 16.4799 14 16.7343 14 16.9995C14 17.2647 13.8946 17.5191 13.7071 17.7066C13.5196 17.8942 13.2652 17.9995 13 17.9995Z" fill="black"/>
<path d="M19 17.9995H17C16.7348 17.9995 16.4804 17.8942 16.2929 17.7066C16.1054 17.5191 16 17.2647 16 16.9995C16 16.7343 16.1054 16.4799 16.2929 16.2924C16.4804 16.1049 16.7348 15.9995 17 15.9995H19C19.2652 15.9995 19.5196 16.1049 19.7071 16.2924C19.8946 16.4799 20 16.7343 20 16.9995C20 17.2647 19.8946 17.5191 19.7071 17.7066C19.5196 17.8942 19.2652 17.9995 19 17.9995Z" fill="black"/>
</svg>
