<svg width="24" height="24" viewBox="0 0 24 24" fill="none" xmlns="http://www.w3.org/2000/svg">
<g clip-path="url(#clip0_403_3108)">
<path d="M20.0001 0.0104146C16.1881 0.0104146 11.8751 2.04841 8.46113 5.46141C5.02784 8.86525 2.26696 12.8858 0.323132 17.3124C0.00529513 18.0477 -0.0835135 18.8617 0.0682958 19.6482C0.220105 20.4347 0.605482 21.1572 1.17413 21.7214L2.28013 22.8264C2.84323 23.3938 3.56408 23.7784 4.34885 23.9304C5.13362 24.0824 5.94596 23.9946 6.68013 23.6784C11.1095 21.7374 15.1316 18.9759 18.5341 15.5394C21.9521 12.1264 23.9901 7.81341 23.9901 4.00041C24.0464 3.46263 23.9818 2.91907 23.8012 2.40941C23.6205 1.89975 23.3284 1.43686 22.946 1.05451C22.5637 0.672164 22.1008 0.380012 21.5911 0.199378C21.0815 0.0187434 20.5379 -0.0458149 20.0001 0.0104146ZM17.1251 14.1254C13.903 17.3814 10.0945 19.999 5.90013 21.8404C5.56662 21.977 5.20247 22.0212 4.84596 21.9685C4.48945 21.9157 4.15374 21.7678 3.87413 21.5404L16.7071 8.70741C16.8026 8.61517 16.8788 8.50482 16.9312 8.38282C16.9836 8.26082 17.0112 8.12959 17.0124 7.99682C17.0135 7.86404 16.9882 7.73236 16.938 7.60946C16.8877 7.48656 16.8134 7.37491 16.7195 7.28102C16.6256 7.18713 16.514 7.11287 16.3911 7.06259C16.2682 7.01231 16.1365 6.98701 16.0037 6.98816C15.871 6.98932 15.7397 7.0169 15.6177 7.06931C15.4957 7.12172 15.3854 7.1979 15.2931 7.29341L2.45713 20.1294C2.22947 19.8495 2.08146 19.5135 2.02866 19.1566C1.97587 18.7997 2.02025 18.4352 2.15713 18.1014C4.00123 13.9075 6.61964 10.099 9.87513 6.87541C13.4631 3.28841 17.4581 2.01041 20.0001 2.01041C21.4511 2.01041 21.9901 2.54941 21.9901 4.00041C21.9901 6.54341 20.7121 10.5384 17.1251 14.1254Z" fill="black"/>
</g>
<defs>
<clipPath id="clip0_403_3108">
<rect width="24" height="24" fill="white"/>
</clipPath>
</defs>
</svg>
