<svg width="24" height="24" viewBox="0 0 24 24" fill="none" xmlns="http://www.w3.org/2000/svg">
<g clip-path="url(#clip0_403_3110)">
<path d="M23.4146 0.586424C23.1637 0.339307 22.8527 0.161984 22.5122 0.0720071C22.1718 -0.0179699 21.8138 -0.0174814 21.4736 0.0734242C19.0326 0.87714 16.8137 2.24121 14.9946 4.05642L5.51857 13.5314C4.15035 12.7941 2.67304 12.2803 1.14257 12.0094C0.88295 11.9775 0.621139 12.0485 0.413275 12.2073C0.20541 12.3661 0.0680438 12.6 0.0306295 12.8589C-0.00678477 13.1178 0.0587322 13.381 0.213132 13.5922C0.367532 13.8033 0.598521 13.9456 0.85657 13.9884C2.80337 14.3534 4.63706 15.1711 6.20957 16.3754L2.50057 20.0854L1.70757 19.2924C1.61532 19.1969 1.50498 19.1207 1.38297 19.0683C1.26097 19.0159 1.12975 18.9883 0.996971 18.9872C0.864191 18.986 0.732512 19.0113 0.609616 19.0616C0.486719 19.1119 0.375067 19.1861 0.281175 19.28C0.187282 19.3739 0.113029 19.4856 0.0627478 19.6085C0.0124669 19.7314 -0.0128348 19.863 -0.011681 19.9958C-0.0105272 20.1286 0.0170591 20.2598 0.0694681 20.3818C0.121877 20.5038 0.198059 20.6142 0.29357 20.7064L3.29357 23.7064C3.38582 23.8019 3.49616 23.8781 3.61817 23.9305C3.74017 23.9829 3.87139 24.0105 4.00417 24.0117C4.13695 24.0128 4.26863 23.9875 4.39152 23.9372C4.51442 23.887 4.62607 23.8127 4.71996 23.7188C4.81386 23.6249 4.88811 23.5133 4.93839 23.3904C4.98867 23.2675 5.01397 23.1358 5.01282 23.003C5.01167 22.8702 4.98408 22.739 4.93167 22.617C4.87926 22.495 4.80308 22.3847 4.70757 22.2924L3.91457 21.4994L7.62357 17.7894C8.8288 19.3618 9.64657 21.196 10.0106 23.1434C10.0452 23.3813 10.1643 23.5987 10.3461 23.7559C10.5279 23.9131 10.7602 23.9995 11.0006 23.9994C11.0488 23.9997 11.097 23.996 11.1446 23.9884C11.4066 23.9505 11.6429 23.8103 11.8016 23.5985C11.9604 23.3867 12.0287 23.1205 11.9916 22.8584C11.7218 21.3277 11.2079 19.8502 10.4696 18.4824L19.9446 9.00642C21.7804 7.16157 23.1544 4.90904 23.9546 2.43242C24.0275 2.10415 24.0163 1.76277 23.9219 1.44001C23.8274 1.11726 23.6529 0.823626 23.4146 0.586424ZM18.5296 7.59142L9.36257 16.7594C9.05914 16.3596 8.72905 15.9808 8.37457 15.6254C8.01913 15.2714 7.64064 14.9414 7.24157 14.6374L16.4086 5.47042C17.9777 3.90037 19.8889 2.71476 21.9926 2.00642C21.2824 4.1093 20.0974 6.02036 18.5296 7.59142Z" fill="black"/>
</g>
<defs>
<clipPath id="clip0_403_3110">
<rect width="24" height="24" fill="white"/>
</clipPath>
</defs>
</svg>
