<svg width="24" height="24" viewBox="0 0 24 24" fill="none" xmlns="http://www.w3.org/2000/svg">
<g clip-path="url(#clip0_403_3112)">
<path d="M23.7076 5.29341L18.7076 0.293407C18.519 0.111249 18.2664 0.0104547 18.0042 0.0127331C17.742 0.0150115 17.4912 0.12018 17.3058 0.305589C17.1203 0.490997 17.0152 0.741809 17.0129 1.00401C17.0106 1.2662 17.1114 1.5188 17.2936 1.70741L19.0866 3.50041L17.6006 4.98341C16.6402 4.27822 15.4595 3.93919 14.2713 4.02737C13.083 4.11556 11.9654 4.62517 11.1196 5.46441L5.05057 11.5364C4.39865 12.1848 3.88179 12.9561 3.52991 13.8056C3.17803 14.6551 2.99811 15.5659 3.00057 16.4854V19.5854L0.293569 22.2934C0.198059 22.3857 0.121877 22.496 0.0694681 22.618C0.0170591 22.74 -0.0105272 22.8712 -0.011681 23.004C-0.0128348 23.1368 0.0124669 23.2685 0.0627478 23.3914C0.113029 23.5143 0.187282 23.6259 0.281174 23.7198C0.375067 23.8137 0.486719 23.8879 0.609615 23.9382C0.732512 23.9885 0.864191 24.0138 0.996971 24.0127C1.12975 24.0115 1.26097 23.9839 1.38297 23.9315C1.50498 23.8791 1.61532 23.8029 1.70757 23.7074L4.41457 21.0004H7.51457C8.43405 21.0029 9.34489 20.8229 10.1944 20.4711C11.0439 20.1192 11.8151 19.6023 12.4636 18.9504L18.5356 12.8784C19.3755 12.0337 19.8857 10.9165 19.9741 9.72851C20.0624 8.54056 19.7232 7.36016 19.0176 6.40041L20.5006 4.91441L22.2936 6.70741C22.4822 6.88956 22.7348 6.99036 22.997 6.98808C23.2592 6.9858 23.51 6.88063 23.6954 6.69523C23.8808 6.50982 23.986 6.25901 23.9882 5.99681C23.9905 5.73461 23.8897 5.48201 23.7076 5.29341ZM17.1226 11.4644L11.0506 17.5364C10.5874 18.002 10.0365 18.3712 9.42969 18.6224C8.82291 18.8737 8.17232 19.0022 7.51557 19.0004H5.00057V16.4854C5.00087 16.1578 5.03269 15.8309 5.09557 15.5094L6.29557 16.7094C6.38782 16.8049 6.49816 16.8811 6.62016 16.9335C6.74217 16.9859 6.87339 17.0135 7.00617 17.0147C7.13895 17.0158 7.27063 16.9905 7.39352 16.9402C7.51642 16.8899 7.62807 16.8157 7.72196 16.7218C7.81586 16.6279 7.89011 16.5163 7.94039 16.3934C7.99067 16.2705 8.01597 16.1388 8.01482 16.006C8.01367 15.8732 7.98608 15.742 7.93367 15.62C7.88126 15.498 7.80508 15.3877 7.70957 15.2954L5.96857 13.5544C6.1193 13.3416 6.28648 13.141 6.46857 12.9544L7.50057 11.9144L9.29357 13.7074C9.48217 13.8896 9.73477 13.9904 9.99697 13.9881C10.2592 13.9858 10.51 13.8806 10.6954 13.6952C10.8808 13.5098 10.986 13.259 10.9882 12.9968C10.9905 12.7346 10.8897 12.482 10.7076 12.2934L8.91457 10.5004L10.5006 8.91441L12.2936 10.7074C12.4822 10.8896 12.7348 10.9904 12.997 10.9881C13.2592 10.9858 13.51 10.8806 13.6954 10.6952C13.8808 10.5098 13.986 10.259 13.9882 9.99681C13.9905 9.73461 13.8897 9.48201 13.7076 9.29341L11.9146 7.50041L12.5366 6.87841C13.1081 6.33323 13.8677 6.02907 14.6576 6.02907C15.4475 6.02907 16.207 6.33323 16.7786 6.87841L17.1226 7.22241C17.685 7.78499 18.0009 8.54792 18.0009 9.34341C18.0009 10.1389 17.685 10.9018 17.1226 11.4644Z" fill="black"/>
</g>
<defs>
<clipPath id="clip0_403_3112">
<rect width="24" height="24" fill="white"/>
</clipPath>
</defs>
</svg>
