<svg width="24" height="24" viewBox="0 0 24 24" fill="none" xmlns="http://www.w3.org/2000/svg">
<g clip-path="url(#clip0_403_3118)">
<path d="M23.0012 11C23.2664 11 23.5208 10.8946 23.7083 10.7071C23.8959 10.5196 24.0012 10.2652 24.0012 10C24.0012 9.73478 23.8959 9.48043 23.7083 9.29289C23.5208 9.10536 23.2664 9 23.0012 9H21.6012L20.8312 6.519C20.5501 5.60459 20.0107 4.7909 19.278 4.17582C18.5453 3.56074 17.6505 3.17049 16.7012 3.052C16.3218 2.14915 15.6848 1.37814 14.8697 0.835324C14.0546 0.292507 13.0975 0.00196172 12.1182 0L11.8842 0C10.9049 0.00196172 9.94788 0.292507 9.13277 0.835324C8.31765 1.37814 7.6806 2.14915 7.30122 3.052C6.35242 3.17077 5.45811 3.56105 4.72581 4.17591C3.9935 4.79078 3.45437 5.60406 3.17322 6.518L2.40122 9H1.00122C0.736 9 0.481646 9.10536 0.29411 9.29289C0.106573 9.48043 0.00121639 9.73478 0.00121639 10C0.00121639 10.2652 0.106573 10.5196 0.29411 10.7071C0.481646 10.8946 0.736 11 1.00122 11H1.78222L1.06722 13.3C0.658686 13.7368 0.354465 14.2606 0.177409 14.8318C0.00035353 15.4031 -0.0449315 16.0071 0.0449564 16.5984C0.134844 17.1897 0.357568 17.7529 0.696392 18.2458C1.03522 18.7386 1.48133 19.1483 2.00122 19.444V21C2.00122 21.7956 2.31729 22.5587 2.8799 23.1213C3.44251 23.6839 4.20557 24 5.00122 24C5.79687 24 6.55993 23.6839 7.12254 23.1213C7.68515 22.5587 8.00122 21.7956 8.00122 21V20H16.0012V21C16.0012 21.7956 16.3173 22.5587 16.8799 23.1213C17.4425 23.6839 18.2056 24 19.0012 24C19.7969 24 20.5599 23.6839 21.1225 23.1213C21.6852 22.5587 22.0012 21.7956 22.0012 21V19.444C22.5208 19.1483 22.9666 18.7387 23.3052 18.246C23.6438 17.7533 23.8664 17.1903 23.9562 16.5993C24.0461 16.0083 24.0009 15.4045 23.8241 14.8335C23.6473 14.2624 23.3434 13.7388 22.9352 13.302L22.2202 11H23.0012ZM11.8842 2H12.1182C12.5387 2.00085 12.9543 2.09035 13.3378 2.26266C13.7214 2.43497 14.0643 2.68621 14.3442 3H9.65822C9.938 2.68606 10.2809 2.43472 10.6645 2.2624C11.0481 2.09008 11.4637 2.00066 11.8842 2ZM5.08422 7.11C5.27214 6.49762 5.652 5.96191 6.16772 5.58196C6.68343 5.20202 7.30766 4.99799 7.94822 5H16.0542C16.6951 4.99784 17.3196 5.20191 17.8356 5.58207C18.3515 5.96222 18.7314 6.49827 18.9192 7.111L20.4512 12.045C20.3022 12.0214 20.152 12.0064 20.0012 12H4.00122C3.85048 12.0064 3.70023 12.0214 3.55122 12.045L5.08422 7.11ZM6.00122 21C6.00122 21.2652 5.89586 21.5196 5.70832 21.7071C5.52079 21.8946 5.26643 22 5.00122 22C4.736 22 4.48165 21.8946 4.29411 21.7071C4.10657 21.5196 4.00122 21.2652 4.00122 21V20H6.00122V21ZM20.0012 21C20.0012 21.2652 19.8959 21.5196 19.7083 21.7071C19.5208 21.8946 19.2664 22 19.0012 22C18.736 22 18.4816 21.8946 18.2941 21.7071C18.1066 21.5196 18.0012 21.2652 18.0012 21V20H20.0012V21ZM20.0012 18H4.00122C3.47078 18 2.96208 17.7893 2.587 17.4142C2.21193 17.0391 2.00122 16.5304 2.00122 16C2.00122 15.4696 2.21193 14.9609 2.587 14.5858C2.96208 14.2107 3.47078 14 4.00122 14V15C4.00122 15.2652 4.10657 15.5196 4.29411 15.7071C4.48165 15.8946 4.736 16 5.00122 16C5.26643 16 5.52079 15.8946 5.70832 15.7071C5.89586 15.5196 6.00122 15.2652 6.00122 15V14H18.0012V15C18.0012 15.2652 18.1066 15.5196 18.2941 15.7071C18.4816 15.8946 18.736 16 19.0012 16C19.2664 16 19.5208 15.8946 19.7083 15.7071C19.8959 15.5196 20.0012 15.2652 20.0012 15V14C20.5317 14 21.0404 14.2107 21.4154 14.5858C21.7905 14.9609 22.0012 15.4696 22.0012 16C22.0012 16.5304 21.7905 17.0391 21.4154 17.4142C21.0404 17.7893 20.5317 18 20.0012 18Z" fill="black"/>
</g>
<defs>
<clipPath id="clip0_403_3118">
<rect width="24" height="24" fill="white"/>
</clipPath>
</defs>
</svg>
