<svg width="24" height="24" viewBox="0 0 24 24" fill="none" xmlns="http://www.w3.org/2000/svg">
<g clip-path="url(#clip0_403_3130)">
<path d="M11.107 14.4469C11.1651 14.5654 11.2461 14.6713 11.3452 14.7584C11.4444 14.8454 11.5598 14.912 11.6849 14.9543C11.8099 14.9965 11.9421 15.0136 12.0737 15.0045C12.2054 14.9955 12.334 14.9604 12.452 14.9014C12.5701 14.8424 12.6753 14.7607 12.7616 14.6608C12.8479 14.561 12.9136 14.445 12.9549 14.3196C12.9961 14.1943 13.0122 14.062 13.0021 13.9304C12.992 13.7988 12.9559 13.6705 12.896 13.5529L7.39603 2.55293C7.31299 2.38679 7.18532 2.24705 7.02733 2.14939C6.86934 2.05173 6.68727 2 6.50153 2C6.31579 2 6.13372 2.05173 5.97573 2.14939C5.81774 2.24705 5.69007 2.38679 5.60703 2.55293L0.107031 13.5529C0.0471169 13.6705 0.0110728 13.7988 0.000977042 13.9304C-0.00911871 14.062 0.00693358 14.1943 0.0482084 14.3196C0.0894832 14.445 0.155164 14.561 0.241464 14.6608C0.327764 14.7607 0.432976 14.8424 0.551033 14.9014C0.669091 14.9604 0.797659 14.9955 0.929325 15.0045C1.06099 15.0136 1.19315 14.9965 1.31818 14.9543C1.44321 14.912 1.55865 14.8454 1.65782 14.7584C1.757 14.6713 1.83796 14.5654 1.89603 14.4469L3.61903 10.9999H9.38303L11.107 14.4469ZM4.61903 8.99993L6.50003 5.23593L8.38303 8.99993H4.61903Z" fill="black"/>
<path d="M23.7076 11.2923C23.52 11.1048 23.2657 10.9995 23.0006 10.9995C22.7354 10.9995 22.4811 11.1048 22.2936 11.2923L13.0006 20.5853L8.70757 16.2923C8.61532 16.1968 8.50498 16.1206 8.38297 16.0682C8.26097 16.0158 8.12975 15.9882 7.99697 15.987C7.86419 15.9859 7.73251 16.0112 7.60962 16.0615C7.48672 16.1118 7.37507 16.186 7.28117 16.2799C7.18728 16.3738 7.11303 16.4854 7.06275 16.6083C7.01247 16.7312 6.98717 16.8629 6.98832 16.9957C6.98947 17.1285 7.01706 17.2597 7.06947 17.3817C7.12188 17.5037 7.19806 17.614 7.29357 17.7063L12.2936 22.7063C12.4811 22.8938 12.7354 22.9991 13.0006 22.9991C13.2657 22.9991 13.52 22.8938 13.7076 22.7063L23.7076 12.7063C23.895 12.5188 24.0004 12.2645 24.0004 11.9993C24.0004 11.7341 23.895 11.4798 23.7076 11.2923Z" fill="black"/>
</g>
<defs>
<clipPath id="clip0_403_3130">
<rect width="24" height="24" fill="white"/>
</clipPath>
</defs>
</svg>
