<svg width="24" height="24" viewBox="0 0 24 24" fill="none" xmlns="http://www.w3.org/2000/svg">
<g clip-path="url(#clip0_403_3135)">
<path d="M13 14.1842V8.00024C13 7.73502 12.8946 7.48067 12.7071 7.29314C12.5196 7.1056 12.2652 7.00024 12 7.00024C11.7348 7.00024 11.4804 7.1056 11.2929 7.29314C11.1054 7.48067 11 7.73502 11 8.00024V14.1842C10.3345 14.4201 9.77369 14.8835 9.41674 15.4928C9.0598 16.102 8.92965 16.8178 9.0493 17.5136C9.16895 18.2095 9.53069 18.8407 10.0706 19.2957C10.6105 19.7507 11.2939 20.0003 12 20.0003C12.7061 20.0003 13.3895 19.7507 13.9294 19.2957C14.4693 18.8407 14.8311 18.2095 14.9507 17.5136C15.0704 16.8178 14.9402 16.102 14.5833 15.4928C14.2263 14.8835 13.6655 14.4201 13 14.1842ZM17 12.1112V5.00025C16.789 -1.60875 7.209 -1.59975 7 5.00025V12.1112C6.03533 13.0958 5.38281 14.3432 5.12426 15.6972C4.8657 17.0511 5.01262 18.4512 5.5466 19.722C6.08058 20.9927 6.97784 22.0775 8.12587 22.8404C9.27391 23.6033 10.6216 24.0102 12 24.0102C13.3784 24.0102 14.7261 23.6033 15.8741 22.8404C17.0222 22.0775 17.9194 20.9927 18.4534 19.722C18.9874 18.4512 19.1343 17.0511 18.8758 15.6972C18.6172 14.3432 17.9647 13.0958 17 12.1112ZM12 22.0002C10.9935 21.9889 10.0137 21.6752 9.18785 21.0999C8.36198 20.5245 7.72823 19.7141 7.36892 18.7738C7.00961 17.8336 6.94136 16.8071 7.17303 15.8276C7.4047 14.8481 7.92558 13.9609 8.668 13.2812C8.77246 13.1875 8.85601 13.0728 8.91321 12.9446C8.97041 12.8164 8.99998 12.6776 9 12.5372V5.00025C9 4.2046 9.31607 3.44154 9.87868 2.87893C10.4413 2.31632 11.2044 2.00025 12 2.00025C12.7957 2.00025 13.5587 2.31632 14.1213 2.87893C14.6839 3.44154 15 4.2046 15 5.00025V12.5372C15 12.6776 15.0296 12.8164 15.0868 12.9446C15.144 13.0728 15.2275 13.1875 15.332 13.2812C16.0744 13.9609 16.5953 14.8481 16.827 15.8276C17.0586 16.8071 16.9904 17.8336 16.6311 18.7738C16.2718 19.7141 15.638 20.5245 14.8122 21.0999C13.9863 21.6752 13.0065 21.9889 12 22.0002Z" fill="black"/>
</g>
<defs>
<clipPath id="clip0_403_3135">
<rect width="24" height="24" fill="white"/>
</clipPath>
</defs>
</svg>
