<svg width="24" height="24" viewBox="0 0 24 24" fill="none" xmlns="http://www.w3.org/2000/svg">
<g clip-path="url(#clip0_403_3150)">
<path d="M23.7067 16.324C23.5192 16.1366 23.2649 16.0312 22.9997 16.0312C22.7346 16.0312 22.4802 16.1366 22.2927 16.324L16.6657 21.952L13.9777 19.299C13.7921 19.1087 13.5384 19 13.2726 18.9967C13.0068 18.9934 12.7505 19.0959 12.5602 19.2815C12.3699 19.4672 12.2612 19.7208 12.2579 19.9867C12.2546 20.2525 12.3571 20.5087 12.5427 20.699L15.2867 23.399C15.4588 23.5846 15.6667 23.7334 15.8979 23.8365C16.129 23.9397 16.3786 23.9949 16.6317 23.999H16.6647C16.9128 23.9999 17.1585 23.9514 17.3877 23.8565C17.6169 23.7615 17.8249 23.622 17.9997 23.446L23.7067 17.738C23.8942 17.5505 23.9995 17.2962 23.9995 17.031C23.9995 16.7659 23.8942 16.5116 23.7067 16.324Z" fill="black"/>
<path d="M11.09 21.9584C9.15904 21.782 7.32103 21.0479 5.79973 19.8457C4.27842 18.6435 3.13945 17.0249 2.52147 15.187C1.9035 13.3491 1.83317 11.3712 2.31906 9.49404C2.80494 7.6169 3.82608 5.92151 5.25816 4.61426C6.69024 3.30701 8.47147 2.4443 10.385 2.13116C12.2986 1.81802 14.2619 2.06794 16.036 2.85052C17.81 3.63309 19.3183 4.91455 20.3772 6.5389C21.4361 8.16324 21.9999 10.0604 22 11.9994C22 12.3064 21.985 12.6104 21.959 12.9104C21.9468 13.0415 21.9605 13.1738 21.9995 13.2995C22.0385 13.4253 22.102 13.5421 22.1863 13.6433C22.2706 13.7445 22.374 13.828 22.4906 13.8891C22.6073 13.9503 22.7348 13.9877 22.866 13.9994C22.9971 14.0126 23.1295 13.9995 23.2554 13.9608C23.3813 13.9221 23.4982 13.8587 23.5993 13.7742C23.7004 13.6897 23.7836 13.5858 23.844 13.4688C23.9043 13.3517 23.9407 13.2237 23.951 13.0924C23.983 12.7294 24 12.3664 24 11.9994C23.9999 9.67251 23.3233 7.39585 22.0525 5.44659C20.7817 3.49734 18.9717 1.95958 16.8427 1.02055C14.7137 0.0815194 12.3576 -0.21828 10.0613 0.157653C7.76496 0.533586 5.62746 1.56903 3.90904 3.13793C2.19062 4.70683 0.965399 6.74149 0.382551 8.9942C-0.200297 11.2469 -0.115628 13.6205 0.62625 15.8259C1.36813 18.0314 2.73521 19.9736 4.56105 21.4161C6.38689 22.8585 8.59273 23.739 10.91 23.9504H11.001C11.2662 23.9622 11.5253 23.8682 11.7211 23.689C11.917 23.5098 12.0337 23.2601 12.0455 22.9949C12.0573 22.7297 11.9633 22.4706 11.7841 22.2748C11.6049 22.0789 11.3552 21.9622 11.09 21.9504V21.9584Z" fill="black"/>
<path d="M11.0006 7V11.586L8.29357 14.293C8.19806 14.3852 8.12188 14.4956 8.06947 14.6176C8.01706 14.7396 7.98947 14.8708 7.98832 15.0036C7.98717 15.1364 8.01247 15.268 8.06275 15.3909C8.11303 15.5138 8.18728 15.6255 8.28117 15.7194C8.37507 15.8133 8.48672 15.8875 8.60961 15.9378C8.73251 15.9881 8.86419 16.0134 8.99697 16.0122C9.12975 16.0111 9.26097 15.9835 9.38297 15.9311C9.50497 15.8787 9.61532 15.8025 9.70756 15.707L12.7076 12.707C12.8951 12.5195 13.0005 12.2652 13.0006 12V7C13.0006 6.73478 12.8952 6.48043 12.7077 6.29289C12.5201 6.10536 12.2658 6 12.0006 6C11.7353 6 11.481 6.10536 11.2935 6.29289C11.1059 6.48043 11.0006 6.73478 11.0006 7Z" fill="black"/>
</g>
<defs>
<clipPath id="clip0_403_3150">
<rect width="24" height="24" fill="white"/>
</clipPath>
</defs>
</svg>
