<svg width="24" height="24" viewBox="0 0 24 24" fill="none" xmlns="http://www.w3.org/2000/svg">
<g clip-path="url(#clip0_403_3164)">
<path d="M13.9993 18C13.6587 18 13.3206 18.0579 12.9993 18.171V18C12.9993 17.7348 13.1047 17.4805 13.2922 17.2929C13.4797 17.1054 13.7341 17 13.9993 17C14.1414 16.9991 14.282 17.0289 14.4114 17.0875C14.5409 17.146 14.6561 17.2318 14.7493 17.3391C14.8351 17.4412 14.9403 17.5251 15.059 17.586C15.1777 17.6468 15.3073 17.6833 15.4403 17.6933C15.5732 17.7033 15.7069 17.6866 15.8333 17.6442C15.9597 17.6018 16.0764 17.5345 16.1764 17.4463C16.2765 17.3582 16.3579 17.2509 16.4158 17.1308C16.4738 17.0107 16.5071 16.8802 16.5139 16.747C16.5207 16.6139 16.5008 16.4807 16.4554 16.3553C16.4099 16.2299 16.3399 16.1149 16.2493 16.017C15.8463 15.5601 15.3138 15.2367 14.7225 15.0898C14.1312 14.943 13.5092 14.9796 12.9393 15.1949C12.3693 15.4102 11.8784 15.7939 11.5319 16.295C11.1853 16.7961 10.9996 17.3908 10.9993 18V21C10.9995 21.6514 11.2117 22.285 11.6038 22.805C11.9959 23.3251 12.5466 23.7035 13.1727 23.8829C13.7989 24.0624 14.4664 24.0332 15.0745 23.7998C15.6825 23.5664 16.1981 23.1414 16.5433 22.5891C16.8218 22.1407 16.9793 21.6278 17.0005 21.1005C17.0217 20.5732 16.9059 20.0493 16.6643 19.58C16.411 19.0949 16.0274 18.6899 15.5566 18.4108C15.0859 18.1317 14.5465 17.9895 13.9993 18ZM14.8483 21.529C14.7562 21.6768 14.6272 21.7979 14.4739 21.8805C14.3206 21.963 14.1485 22.0041 13.9744 21.9997C13.8004 21.9953 13.6305 21.9456 13.4816 21.8554C13.3327 21.7652 13.2099 21.6377 13.1254 21.4855C13.0409 21.3333 12.9976 21.1617 12.9998 20.9876C13.0019 20.8135 13.0495 20.643 13.1378 20.493C13.2261 20.3429 13.352 20.2185 13.5031 20.1321C13.6542 20.0456 13.8252 20.0001 13.9993 20C14.1713 19.9907 14.3426 20.028 14.4951 20.1081C14.6475 20.1882 14.7755 20.3081 14.8653 20.455C14.9576 20.6196 15.0046 20.8057 15.0017 20.9943C14.9987 21.183 14.9458 21.3675 14.8483 21.529ZM20.9993 15C20.2037 15 19.4406 15.3161 18.878 15.8787C18.3154 16.4413 17.9993 17.2044 17.9993 18V21C17.9993 21.7957 18.3154 22.5588 18.878 23.1214C19.4406 23.684 20.2037 24 20.9993 24C21.795 24 22.558 23.684 23.1206 23.1214C23.6832 22.5588 23.9993 21.7957 23.9993 21V18C23.9993 17.2044 23.6832 16.4413 23.1206 15.8787C22.558 15.3161 21.795 15 20.9993 15ZM21.9993 21C21.9993 21.2653 21.894 21.5196 21.7064 21.7072C21.5189 21.8947 21.2645 22 20.9993 22C20.7341 22 20.4797 21.8947 20.2922 21.7072C20.1047 21.5196 19.9993 21.2653 19.9993 21V18C19.9993 17.7348 20.1047 17.4805 20.2922 17.2929C20.4797 17.1054 20.7341 17 20.9993 17C21.2645 17 21.5189 17.1054 21.7064 17.2929C21.894 17.4805 21.9993 17.7348 21.9993 18V21ZM11.9993 13H7.99931C7.7341 13 7.47974 12.8947 7.29221 12.7072C7.10467 12.5196 6.99931 12.2653 6.99931 12C6.99931 11.7348 7.10467 11.4805 7.29221 11.2929C7.47974 11.1054 7.7341 11 7.99931 11H10.9993V7.00005C10.9993 6.73483 11.1047 6.48048 11.2922 6.29294C11.4797 6.10541 11.7341 6.00005 11.9993 6.00005C12.2645 6.00005 12.5189 6.10541 12.7064 6.29294C12.894 6.48048 12.9993 6.73483 12.9993 7.00005V12C12.9993 12.2653 12.894 12.5196 12.7064 12.7072C12.5189 12.8947 12.2645 13 11.9993 13ZM23.9993 3.00005V6.00005C23.9993 6.7957 23.6832 7.55876 23.1206 8.12137C22.558 8.68398 21.795 9.00005 20.9993 9.00005H17.9993C17.7341 9.00005 17.4797 8.89469 17.2922 8.70716C17.1047 8.51962 16.9993 8.26527 16.9993 8.00005C16.9993 7.73483 17.1047 7.48048 17.2922 7.29294C17.4797 7.10541 17.7341 7.00005 17.9993 7.00005H20.6363C19.8362 5.61918 18.7168 4.45009 17.3721 3.59064C16.0273 2.7312 14.4962 2.20641 12.907 2.06022C11.3177 1.91402 9.7166 2.15067 8.2376 2.75035C6.7586 3.35004 5.44478 4.2953 4.40613 5.50702C3.36748 6.71874 2.63422 8.16164 2.26774 9.71494C1.90126 11.2682 1.91222 12.8867 2.2997 14.4349C2.68718 15.9831 3.43991 17.416 4.49487 18.6135C5.54984 19.8111 6.87633 20.7384 8.36331 21.3181C8.6105 21.4146 8.8092 21.6054 8.91572 21.8484C9.02225 22.0915 9.02785 22.3669 8.93131 22.614C8.83478 22.8612 8.644 23.0599 8.40095 23.1665C8.1579 23.273 7.8825 23.2786 7.63531 23.182C5.87797 22.4966 4.30697 21.4065 3.04979 20.0002C1.79261 18.5939 0.884662 16.911 0.399613 15.0882C-0.085437 13.2653 -0.133923 11.3537 0.258088 9.50861C0.650098 7.66349 1.47156 5.93677 2.65583 4.46855C3.8401 3.00034 5.35381 1.83198 7.07415 1.05829C8.79448 0.284601 10.673 -0.0726351 12.5572 0.015569C14.4415 0.103773 16.2784 0.634933 17.9189 1.56595C19.5594 2.49697 20.9574 3.80162 21.9993 5.37405V3.00005C21.9993 2.73483 22.1047 2.48048 22.2922 2.29294C22.4797 2.10541 22.7341 2.00005 22.9993 2.00005C23.2645 2.00005 23.5189 2.10541 23.7064 2.29294C23.894 2.48048 23.9993 2.73483 23.9993 3.00005Z" fill="black"/>
</g>
<defs>
<clipPath id="clip0_403_3164">
<rect width="24" height="24" fill="white"/>
</clipPath>
</defs>
</svg>
