<svg width="24" height="24" viewBox="0 0 24 24" fill="none" xmlns="http://www.w3.org/2000/svg">
<g clip-path="url(#clip0_403_3166)">
<path d="M21 15C20.2044 15 19.4413 15.3161 18.8787 15.8787C18.3161 16.4413 18 17.2044 18 18V21C18 21.7956 18.3161 22.5587 18.8787 23.1213C19.4413 23.6839 20.2044 24 21 24C21.7956 24 22.5587 23.6839 23.1213 23.1213C23.6839 22.5587 24 21.7956 24 21V18C24 17.2044 23.6839 16.4413 23.1213 15.8787C22.5587 15.3161 21.7956 15 21 15ZM22 21C22 21.2652 21.8946 21.5196 21.7071 21.7071C21.5196 21.8946 21.2652 22 21 22C20.7348 22 20.4804 21.8946 20.2929 21.7071C20.1054 21.5196 20 21.2652 20 21V18C20 17.7348 20.1054 17.4804 20.2929 17.2929C20.4804 17.1054 20.7348 17 21 17C21.2652 17 21.5196 17.1054 21.7071 17.2929C21.8946 17.4804 22 17.7348 22 18V21Z" fill="black"/>
<path d="M13 12V7C13 6.73478 12.8946 6.48043 12.7071 6.29289C12.5196 6.10536 12.2652 6 12 6C11.7348 6 11.4804 6.10536 11.2929 6.29289C11.1054 6.48043 11 6.73478 11 7V11H8C7.73478 11 7.48043 11.1054 7.29289 11.2929C7.10536 11.4804 7 11.7348 7 12C7 12.2652 7.10536 12.5196 7.29289 12.7071C7.48043 12.8946 7.73478 13 8 13H12C12.2652 13 12.5196 12.8946 12.7071 12.7071C12.8946 12.5196 13 12.2652 13 12Z" fill="black"/>
<path d="M22.9993 2.00005C22.7341 2.00005 22.4797 2.10541 22.2922 2.29294C22.1047 2.48048 21.9993 2.73483 21.9993 3.00005V5.37405C20.9574 3.80162 19.5594 2.49697 17.9189 1.56595C16.2784 0.634933 14.4415 0.103773 12.5572 0.015569C10.673 -0.0726351 8.79448 0.284601 7.07415 1.05829C5.35381 1.83198 3.8401 3.00034 2.65583 4.46855C1.47156 5.93677 0.650098 7.66349 0.258088 9.50861C-0.133923 11.3537 -0.085437 13.2653 0.399613 15.0882C0.884662 16.911 1.79261 18.5939 3.04979 20.0002C4.30697 21.4065 5.87797 22.4966 7.63531 23.182C7.75145 23.2268 7.87484 23.2499 7.99931 23.25C8.23267 23.2504 8.45881 23.1691 8.63856 23.0203C8.81832 22.8715 8.94036 22.6645 8.98357 22.4352C9.02678 22.2059 8.98842 21.9687 8.87514 21.7646C8.76187 21.5606 8.58081 21.4026 8.36331 21.3181C6.87134 20.7411 5.53953 19.8147 4.4797 18.6166C3.41986 17.4184 2.66292 15.9835 2.27242 14.4322C1.88192 12.881 1.86926 11.2587 2.23549 9.70159C2.60172 8.14444 3.33616 6.69788 4.37716 5.48332C5.41816 4.26877 6.73534 3.32167 8.21812 2.72152C9.70091 2.12138 11.306 1.88571 12.8987 2.03429C14.4915 2.18288 16.0253 2.71138 17.3715 3.57544C18.7177 4.4395 19.8369 5.6139 20.6353 7.00005H17.9993C17.7341 7.00005 17.4797 7.10541 17.2922 7.29294C17.1047 7.48048 16.9993 7.73483 16.9993 8.00005C16.9993 8.26527 17.1047 8.51962 17.2922 8.70716C17.4797 8.89469 17.7341 9.00005 17.9993 9.00005H20.9993C21.795 9.00005 22.558 8.68398 23.1206 8.12137C23.6832 7.55876 23.9993 6.7957 23.9993 6.00005V3.00005C23.9993 2.73483 23.894 2.48048 23.7064 2.29294C23.5189 2.10541 23.2645 2.00005 22.9993 2.00005Z" fill="black"/>
<path d="M15.3824 15.0756C15.1997 14.9999 14.9985 14.9801 14.8045 15.0188C14.6105 15.0574 14.4323 15.1527 14.2924 15.2926L11.2924 18.2926C11.1103 18.4812 11.0095 18.7338 11.0118 18.996C11.014 19.2582 11.1192 19.5091 11.3046 19.6945C11.49 19.8799 11.7408 19.985 12.003 19.9873C12.2652 19.9896 12.5178 19.8888 12.7064 19.7066L13.9994 18.4136V22.9997C13.9994 23.2649 14.1048 23.5192 14.2923 23.7068C14.4799 23.8943 14.7342 23.9997 14.9994 23.9997C15.2646 23.9997 15.519 23.8943 15.7065 23.7068C15.8941 23.5192 15.9994 23.2649 15.9994 22.9997V15.9996C15.9995 15.8019 15.9409 15.6085 15.8311 15.4441C15.7212 15.2796 15.5651 15.1514 15.3824 15.0756Z" fill="black"/>
</g>
<defs>
<clipPath id="clip0_403_3166">
<rect width="24" height="24" fill="white"/>
</clipPath>
</defs>
</svg>
