<svg width="24" height="24" viewBox="0 0 24 24" fill="none" xmlns="http://www.w3.org/2000/svg">
<g clip-path="url(#clip0_403_3158)">
<path d="M9 23.9995H1C0.734784 23.9995 0.48043 23.8941 0.292893 23.7066C0.105357 23.5191 0 23.2647 0 22.9995C0 22.7343 0.105357 22.4799 0.292893 22.2924C0.48043 22.1049 0.734784 21.9995 1 21.9995H9C9.26522 21.9995 9.51957 22.1049 9.70711 22.2924C9.89464 22.4799 10 22.7343 10 22.9995C10 23.2647 9.89464 23.5191 9.70711 23.7066C9.51957 23.8941 9.26522 23.9995 9 23.9995Z" fill="black"/>
<path d="M7 20H1C0.734784 20 0.48043 19.8947 0.292893 19.7071C0.105357 19.5196 0 19.2652 0 19C0 18.7348 0.105357 18.4804 0.292893 18.2929C0.48043 18.1054 0.734784 18 1 18H7C7.26522 18 7.51957 18.1054 7.70711 18.2929C7.89464 18.4804 8 18.7348 8 19C8 19.2652 7.89464 19.5196 7.70711 19.7071C7.51957 19.8947 7.26522 20 7 20Z" fill="black"/>
<path d="M5 16.0005H1C0.734784 16.0005 0.48043 15.8951 0.292893 15.7076C0.105357 15.5201 0 15.2657 0 15.0005C0 14.7353 0.105357 14.4809 0.292893 14.2934C0.48043 14.1058 0.734784 14.0005 1 14.0005H5C5.26522 14.0005 5.51957 14.1058 5.70711 14.2934C5.89464 14.4809 6 14.7353 6 15.0005C6 15.2657 5.89464 15.5201 5.70711 15.7076C5.51957 15.8951 5.26522 16.0005 5 16.0005Z" fill="black"/>
<path d="M13 23.9544C12.7348 23.9662 12.4757 23.8721 12.2798 23.693C12.0839 23.5138 11.9673 23.2641 11.9555 22.9989C11.9437 22.7337 12.0377 22.4746 12.2169 22.2787C12.3961 22.0829 12.6458 21.9662 12.911 21.9544C14.8034 21.7812 16.6074 21.0724 18.1115 19.911C19.6156 18.7495 20.7577 17.1835 21.4039 15.3964C22.0501 13.6093 22.1737 11.675 21.7602 9.82019C21.3467 7.96536 20.4133 6.26674 19.0692 4.92329C17.7252 3.57983 16.0261 2.64718 14.1711 2.23455C12.3161 1.82193 10.3819 1.94642 8.59504 2.59344C6.80822 3.24047 5.24276 4.38324 4.082 5.88791C2.92125 7.39258 2.21327 9.19684 2.04098 11.0894C2.01711 11.3535 1.88928 11.5974 1.68562 11.7673C1.48196 11.9372 1.21914 12.0193 0.954982 11.9954C0.690826 11.9715 0.446972 11.8437 0.277064 11.64C0.107157 11.4364 0.0251132 11.1735 0.0489827 10.9094C0.327871 7.83269 1.78258 4.98208 4.11031 2.95095C6.43803 0.919813 9.45941 -0.135353 12.5455 0.00509434C15.6316 0.145542 18.5447 1.47078 20.6783 3.70495C22.8119 5.93912 24.0017 8.91008 24 11.9994C24.0153 14.9977 22.9014 17.892 20.8799 20.1064C18.8583 22.3208 16.0773 23.6931 13.09 23.9504C13.06 23.9534 13.029 23.9544 13 23.9544Z" fill="black"/>
<path d="M12 6C11.7348 6 11.4804 6.10536 11.2929 6.29289C11.1054 6.48043 11 6.73478 11 7V12C11.0001 12.2652 11.1055 12.5195 11.293 12.707L14.293 15.707C14.4816 15.8892 14.7342 15.99 14.9964 15.9877C15.2586 15.9854 15.5094 15.8802 15.6948 15.6948C15.8802 15.5094 15.9854 15.2586 15.9877 14.9964C15.99 14.7342 15.8892 14.4816 15.707 14.293L13 11.586V7C13 6.73478 12.8946 6.48043 12.7071 6.29289C12.5196 6.10536 12.2652 6 12 6Z" fill="black"/>
</g>
<defs>
<clipPath id="clip0_403_3158">
<rect width="24" height="24" fill="white"/>
</clipPath>
</defs>
</svg>
