<svg width="24" height="24" viewBox="0 0 24 24" fill="none" xmlns="http://www.w3.org/2000/svg">
<g clip-path="url(#clip0_403_3185)">
<path d="M14.5993 21.3C14.2993 21.526 13.9803 21.764 13.7093 22H15.9993C16.2645 22 16.5189 22.1054 16.7064 22.2929C16.894 22.4805 16.9993 22.7348 16.9993 23C16.9993 23.2653 16.894 23.5196 16.7064 23.7072C16.5189 23.8947 16.2645 24 15.9993 24H11.9993C11.7341 24 11.4797 23.8947 11.2922 23.7072C11.1047 23.5196 10.9993 23.2653 10.9993 23C10.9993 21.5 12.2743 20.5441 13.3993 19.7001C14.1493 19.1381 14.9993 18.5 14.9993 18C14.9993 17.7348 14.894 17.4805 14.7064 17.2929C14.5189 17.1054 14.2645 17 13.9993 17C13.7341 17 13.4797 17.1054 13.2922 17.2929C13.1047 17.4805 12.9993 17.7348 12.9993 18C12.9993 18.2653 12.894 18.5196 12.7064 18.7072C12.5189 18.8947 12.2645 19 11.9993 19C11.7341 19 11.4797 18.8947 11.2922 18.7072C11.1047 18.5196 10.9993 18.2653 10.9993 18C10.9993 17.2044 11.3154 16.4413 11.878 15.8787C12.4406 15.3161 13.2037 15 13.9993 15C14.795 15 15.558 15.3161 16.1206 15.8787C16.6832 16.4413 16.9993 17.2044 16.9993 18C16.9993 19.5 15.7243 20.456 14.5993 21.3ZM22.9993 15C22.7341 15 22.4797 15.1054 22.2922 15.2929C22.1047 15.4805 21.9993 15.7348 21.9993 16V19H20.9993C20.7341 19 20.4797 18.8947 20.2922 18.7072C20.1047 18.5196 19.9993 18.2653 19.9993 18V16C19.9993 15.7348 19.894 15.4805 19.7064 15.2929C19.5189 15.1054 19.2645 15 18.9993 15C18.7341 15 18.4797 15.1054 18.2922 15.2929C18.1047 15.4805 17.9993 15.7348 17.9993 16V18C17.9993 18.7957 18.3154 19.5588 18.878 20.1214C19.4406 20.684 20.2037 21 20.9993 21H21.9993V23C21.9993 23.2653 22.1047 23.5196 22.2922 23.7072C22.4797 23.8947 22.7341 24 22.9993 24C23.2645 24 23.5189 23.8947 23.7064 23.7072C23.894 23.5196 23.9993 23.2653 23.9993 23V16C23.9993 15.7348 23.894 15.4805 23.7064 15.2929C23.5189 15.1054 23.2645 15 22.9993 15ZM12.9993 12V7.00005C12.9993 6.73483 12.894 6.48048 12.7064 6.29294C12.5189 6.10541 12.2645 6.00005 11.9993 6.00005C11.7341 6.00005 11.4797 6.10541 11.2922 6.29294C11.1047 6.48048 10.9993 6.73483 10.9993 7.00005V11H7.99931C7.7341 11 7.47974 11.1054 7.29221 11.2929C7.10467 11.4805 6.99931 11.7348 6.99931 12C6.99931 12.2653 7.10467 12.5196 7.29221 12.7072C7.47974 12.8947 7.7341 13 7.99931 13H11.9993C12.2645 13 12.5189 12.8947 12.7064 12.7072C12.894 12.5196 12.9993 12.2653 12.9993 12ZM22.9993 2.00005C22.7341 2.00005 22.4797 2.10541 22.2922 2.29294C22.1047 2.48048 21.9993 2.73483 21.9993 3.00005V5.37405C20.9574 3.80162 19.5594 2.49697 17.9189 1.56595C16.2784 0.634933 14.4415 0.103773 12.5572 0.015569C10.673 -0.0726351 8.79448 0.284601 7.07415 1.05829C5.35381 1.83198 3.8401 3.00034 2.65583 4.46855C1.47156 5.93677 0.650098 7.66349 0.258088 9.50861C-0.133923 11.3537 -0.085437 13.2653 0.399613 15.0882C0.884662 16.911 1.79261 18.5939 3.04979 20.0002C4.30697 21.4065 5.87797 22.4966 7.63531 23.182C7.75145 23.2268 7.87484 23.2499 7.99931 23.25C8.23267 23.2504 8.45881 23.1691 8.63856 23.0203C8.81832 22.8715 8.94036 22.6645 8.98357 22.4352C9.02678 22.2059 8.98842 21.9687 8.87514 21.7646C8.76187 21.5606 8.58081 21.4026 8.36331 21.3181C6.87134 20.7411 5.53953 19.8147 4.4797 18.6166C3.41986 17.4184 2.66292 15.9835 2.27242 14.4322C1.88192 12.881 1.86926 11.2587 2.23549 9.70159C2.60172 8.14444 3.33616 6.69788 4.37716 5.48332C5.41816 4.26877 6.73534 3.32167 8.21812 2.72152C9.70091 2.12138 11.306 1.88571 12.8987 2.03429C14.4915 2.18288 16.0253 2.71138 17.3715 3.57544C18.7177 4.4395 19.8369 5.6139 20.6353 7.00005H17.9993C17.7341 7.00005 17.4797 7.10541 17.2922 7.29294C17.1047 7.48048 16.9993 7.73483 16.9993 8.00005C16.9993 8.26527 17.1047 8.51962 17.2922 8.70716C17.4797 8.89469 17.7341 9.00005 17.9993 9.00005H20.9993C21.795 9.00005 22.558 8.68398 23.1206 8.12137C23.6832 7.55876 23.9993 6.7957 23.9993 6.00005V3.00005C23.9993 2.73483 23.894 2.48048 23.7064 2.29294C23.5189 2.10541 23.2645 2.00005 22.9993 2.00005Z" fill="black"/>
</g>
<defs>
<clipPath id="clip0_403_3185">
<rect width="24" height="24" fill="white"/>
</clipPath>
</defs>
</svg>
