<svg width="24" height="24" viewBox="0 0 24 24" fill="none" xmlns="http://www.w3.org/2000/svg">
<g clip-path="url(#clip0_403_3154)">
<path d="M23.7076 15.2938C23.52 15.1063 23.2657 15.001 23.0006 15.001C22.7354 15.001 22.4811 15.1063 22.2936 15.2938L19.5006 18.0868L16.7076 15.2938C16.519 15.1116 16.2664 15.0108 16.0042 15.0131C15.742 15.0154 15.4912 15.1205 15.3058 15.3059C15.1203 15.4914 15.0152 15.7422 15.0129 16.0044C15.0106 16.2666 15.1114 16.5192 15.2936 16.7078L18.0866 19.5008L15.2936 22.2938C15.1981 22.386 15.1219 22.4963 15.0695 22.6183C15.0171 22.7404 14.9895 22.8716 14.9883 23.0043C14.9872 23.1371 15.0125 23.2688 15.0627 23.3917C15.113 23.5146 15.1873 23.6263 15.2812 23.7201C15.3751 23.814 15.4867 23.8883 15.6096 23.9386C15.7325 23.9889 15.8642 24.0142 15.997 24.013C16.1297 24.0118 16.261 23.9843 16.383 23.9319C16.505 23.8794 16.6153 23.8033 16.7076 23.7078L19.5006 20.9148L22.2936 23.7078C22.4822 23.8899 22.7348 23.9907 22.997 23.9884C23.2592 23.9861 23.51 23.881 23.6954 23.6956C23.8808 23.5102 23.986 23.2593 23.9882 22.9972C23.9905 22.735 23.8897 22.4824 23.7076 22.2938L20.9146 19.5008L23.7076 16.7078C23.895 16.5202 24.0003 16.2659 24.0003 16.0008C24.0003 15.7356 23.895 15.4813 23.7076 15.2938Z" fill="black"/>
<path d="M12 22C10.0222 22 8.08879 21.4135 6.4443 20.3147C4.79981 19.2159 3.51809 17.6541 2.76121 15.8268C2.00433 13.9996 1.8063 11.9889 2.19215 10.0491C2.578 8.10929 3.53041 6.32746 4.92894 4.92894C6.32746 3.53041 8.10929 2.578 10.0491 2.19215C11.9889 1.8063 13.9996 2.00433 15.8268 2.76121C17.6541 3.51809 19.2159 4.79981 20.3147 6.4443C21.4135 8.08879 22 10.0222 22 12C22 12.2652 22.1054 12.5196 22.2929 12.7071C22.4804 12.8946 22.7348 13 23 13C23.2652 13 23.5196 12.8946 23.7071 12.7071C23.8946 12.5196 24 12.2652 24 12C24 9.62663 23.2962 7.30655 21.9776 5.33316C20.6591 3.35977 18.7849 1.8217 16.5922 0.913451C14.3995 0.00519943 11.9867 -0.232441 9.65892 0.230582C7.33115 0.693605 5.19295 1.83649 3.51472 3.51472C1.83649 5.19295 0.693605 7.33115 0.230582 9.65892C-0.232441 11.9867 0.00519943 14.3995 0.913451 16.5922C1.8217 18.7849 3.35977 20.6591 5.33316 21.9776C7.30655 23.2962 9.62663 24 12 24C12.2652 24 12.5196 23.8946 12.7071 23.7071C12.8946 23.5196 13 23.2652 13 23C13 22.7348 12.8946 22.4804 12.7071 22.2929C12.5196 22.1054 12.2652 22 12 22Z" fill="black"/>
<path d="M12.0006 6C11.7353 6 11.481 6.10536 11.2935 6.29289C11.1059 6.48043 11.0006 6.73478 11.0006 7V11.586L8.29357 14.293C8.19806 14.3852 8.12188 14.4956 8.06947 14.6176C8.01706 14.7396 7.98947 14.8708 7.98832 15.0036C7.98717 15.1364 8.01247 15.268 8.06275 15.3909C8.11303 15.5138 8.18728 15.6255 8.28117 15.7194C8.37507 15.8133 8.48672 15.8875 8.60961 15.9378C8.73251 15.9881 8.86419 16.0134 8.99697 16.0122C9.12975 16.0111 9.26097 15.9835 9.38297 15.9311C9.50497 15.8787 9.61532 15.8025 9.70756 15.707L12.7076 12.707C12.8951 12.5195 13.0005 12.2652 13.0006 12V7C13.0006 6.73478 12.8952 6.48043 12.7077 6.29289C12.5201 6.10536 12.2658 6 12.0006 6Z" fill="black"/>
</g>
<defs>
<clipPath id="clip0_403_3154">
<rect width="24" height="24" fill="white"/>
</clipPath>
</defs>
</svg>
