<svg width="24" height="24" viewBox="0 0 24 24" fill="none" xmlns="http://www.w3.org/2000/svg">
<g clip-path="url(#clip0_403_3193)">
<path d="M15.9995 24H13.9995C13.7343 24 13.4799 23.8946 13.2924 23.7071C13.1048 23.5196 12.9995 23.2652 12.9995 23C12.9995 22.7348 13.1048 22.4804 13.2924 22.2929C13.4799 22.1054 13.7343 22 13.9995 22H15.9995C16.2647 22 16.5191 21.8946 16.7066 21.7071C16.8941 21.5196 16.9995 21.2652 16.9995 21C16.9995 20.7348 16.8941 20.4804 16.7066 20.2929C16.5191 20.1054 16.2647 20 15.9995 20H11.9995C11.2038 20 10.4408 19.6839 9.87816 19.1213C9.31556 18.5587 8.99949 17.7956 8.99949 17C8.99949 16.2044 9.31556 15.4413 9.87816 14.8787C10.4408 14.3161 11.2038 14 11.9995 14H18.9995C19.2647 14 19.5191 13.8946 19.7066 13.7071C19.8941 13.5196 19.9995 13.2652 19.9995 13C19.9995 12.7348 19.8941 12.4804 19.7066 12.2929C19.5191 12.1054 19.2647 12 18.9995 12H5.99948C-1.93252 11.747 -1.92652 0.25 5.99948 0H19.9995C21.0604 0 22.0778 0.421427 22.8279 1.17157C23.5781 1.92172 23.9995 2.93913 23.9995 4C23.9995 5.06087 23.5781 6.07828 22.8279 6.82843C22.0778 7.57857 21.0604 8 19.9995 8H5.99948C5.73427 8 5.47991 7.89464 5.29238 7.70711C5.10484 7.51957 4.99948 7.26522 4.99948 7C4.99948 6.73478 5.10484 6.48043 5.29238 6.29289C5.47991 6.10536 5.73427 6 5.99948 6H19.9995C20.5299 6 21.0386 5.78929 21.4137 5.41421C21.7888 5.03914 21.9995 4.53043 21.9995 4C21.9995 3.46957 21.7888 2.96086 21.4137 2.58579C21.0386 2.21071 20.5299 2 19.9995 2H5.99948C4.93862 2 3.9212 2.42143 3.17106 3.17157C2.42091 3.92172 1.99948 4.93913 1.99948 6C1.99948 7.06087 2.42091 8.07828 3.17106 8.82843C3.9212 9.57857 4.93862 10 5.99948 10H18.9995C19.7951 10 20.5582 10.3161 21.1208 10.8787C21.6834 11.4413 21.9995 12.2044 21.9995 13C21.9995 13.7956 21.6834 14.5587 21.1208 15.1213C20.5582 15.6839 19.7951 16 18.9995 16H11.9995C11.7343 16 11.4799 16.1054 11.2924 16.2929C11.1048 16.4804 10.9995 16.7348 10.9995 17C10.9995 17.2652 11.1048 17.5196 11.2924 17.7071C11.4799 17.8946 11.7343 18 11.9995 18H15.9995C16.7951 18 17.5582 18.3161 18.1208 18.8787C18.6834 19.4413 18.9995 20.2044 18.9995 21C18.9995 21.7956 18.6834 22.5587 18.1208 23.1213C17.5582 23.6839 16.7951 24 15.9995 24Z" fill="black"/>
</g>
<defs>
<clipPath id="clip0_403_3193">
<rect width="24" height="24" fill="white"/>
</clipPath>
</defs>
</svg>
