<svg width="24" height="24" viewBox="0 0 24 24" fill="none" xmlns="http://www.w3.org/2000/svg">
<path d="M19.99 15.0011H1C0.734784 15.0011 0.48043 15.1064 0.292893 15.294C0.105357 15.4815 0 15.7358 0 16.0011C0 16.2663 0.105357 16.5206 0.292893 16.7082C0.48043 16.8957 0.734784 17.0011 1 17.0011H19.99C20.618 17.0022 21.2375 16.8554 21.7982 16.5726C22.359 16.2898 22.8452 15.8789 23.2177 15.3733C23.5901 14.8676 23.8383 14.2814 23.9421 13.662C24.0458 13.0426 24.0023 12.4075 23.815 11.8081C22.9307 8.95893 21.1556 6.46867 18.7508 4.70338C16.3459 2.93808 13.4382 1.99089 10.455 2.00106H1C0.734784 2.00106 0.48043 2.10641 0.292893 2.29395C0.105357 2.48149 0 2.73584 0 3.00106C0 3.26627 0.105357 3.52063 0.292893 3.70816C0.48043 3.8957 0.734784 4.00106 1 4.00106H4V7.00106H1C0.734784 7.00106 0.48043 7.10642 0.292893 7.29395C0.105357 7.48149 0 7.73584 0 8.00106C0 8.26627 0.105357 8.52063 0.292893 8.70817C0.48043 8.8957 0.734784 9.00106 1 9.00106H20.213C20.9545 10.0395 21.5263 11.1892 21.907 12.4071C22.0014 12.7052 22.0234 13.0215 21.9712 13.3298C21.9191 13.6381 21.7942 13.9296 21.607 14.1801C21.4217 14.4351 21.1785 14.6425 20.8973 14.7852C20.6162 14.928 20.3053 15.0019 19.99 15.0011ZM9 7.00106H6V4.00106H9V7.00106ZM11 7.00106V4.02306C13.7373 4.13744 16.3523 5.18879 18.407 7.00106H11Z" fill="black"/>
<path d="M23 20.0005H1C0.734784 20.0005 0.48043 20.1058 0.292893 20.2934C0.105357 20.4809 0 20.7353 0 21.0005C0 21.2657 0.105357 21.5201 0.292893 21.7076C0.48043 21.8951 0.734784 22.0005 1 22.0005H23C23.2652 22.0005 23.5196 21.8951 23.7071 21.7076C23.8946 21.5201 24 21.2657 24 21.0005C24 20.7353 23.8946 20.4809 23.7071 20.2934C23.5196 20.1058 23.2652 20.0005 23 20.0005Z" fill="black"/>
</svg>
