<svg width="24" height="24" viewBox="0 0 24 24" fill="none" xmlns="http://www.w3.org/2000/svg">
<path d="M20.468 17.2997C20.447 17.2697 18.911 15.4847 18.911 15.4847C19.4691 15.0736 19.8454 14.4615 19.9604 13.7779C20.0753 13.0943 19.9199 12.3928 19.527 11.8217C19.502 11.7857 17.642 9.73073 17.642 9.73073C18.1073 9.4961 18.4867 9.12059 18.726 8.65773C18.9319 8.26125 19.0244 7.81565 18.9934 7.36997C18.9623 6.9243 18.8089 6.49583 18.55 6.13173C18.529 6.09973 13.887 0.845731 13.887 0.845731C13.6435 0.590922 13.3509 0.388112 13.0268 0.249551C12.7028 0.110989 12.354 0.0395508 12.0015 0.0395508C11.6491 0.0395508 11.3003 0.110989 10.9762 0.249551C10.6521 0.388112 10.3595 0.590922 10.116 0.845731C10.116 0.845731 5.47302 6.09973 5.45202 6.12973C5.19313 6.49383 5.03972 6.9223 5.00866 7.36797C4.97761 7.81365 5.07012 8.25925 5.27602 8.65573C5.51539 9.11859 5.89474 9.4941 6.36002 9.72873C6.36002 9.72873 4.50102 11.7837 4.47502 11.8197C4.08212 12.3908 3.92671 13.0923 4.04167 13.7759C4.15663 14.4595 4.53294 15.0716 5.09102 15.4827C5.09102 15.4827 3.55502 17.2677 3.53402 17.2997C3.22447 17.7498 3.04369 18.2759 3.01118 18.8212C2.97867 19.3665 3.09567 19.9103 3.34955 20.394C3.60343 20.8777 3.98457 21.2829 4.45183 21.5659C4.91909 21.8488 5.45475 21.9988 6.00102 21.9997H11.001V22.9997C11.001 23.2649 11.1064 23.5193 11.2939 23.7068C11.4815 23.8944 11.7358 23.9997 12.001 23.9997C12.2662 23.9997 12.5206 23.8944 12.7081 23.7068C12.8957 23.5193 13.001 23.2649 13.001 22.9997V21.9997H18.001C18.5476 21.9996 19.0838 21.8501 19.5516 21.5674C20.0195 21.2847 20.4012 20.8796 20.6556 20.3958C20.9099 19.912 21.0273 19.3678 20.9949 18.8222C20.9626 18.2766 20.7818 17.7501 20.472 17.2997H20.468ZM18.883 19.4667C18.7996 19.6283 18.673 19.7637 18.5173 19.8578C18.3616 19.9519 18.1829 20.001 18.001 19.9997H6.00102C5.8225 20 5.64717 19.9524 5.49323 19.862C5.33929 19.7716 5.21236 19.6416 5.12562 19.4856C5.03888 19.3296 4.99549 19.1532 4.99996 18.9747C5.00442 18.7962 5.05658 18.6222 5.15102 18.4707L7.28602 15.9997H13.001C13.2662 15.9997 13.5206 15.8944 13.7081 15.7068C13.8957 15.5193 14.001 15.2649 14.001 14.9997C14.001 14.7345 13.8957 14.4802 13.7081 14.2926C13.5206 14.1051 13.2662 13.9997 13.001 13.9997H6.67102C6.55398 13.9997 6.439 13.969 6.33762 13.9105C6.23624 13.852 6.15204 13.7678 6.09347 13.6665C6.0349 13.5652 6.00403 13.4502 6.00395 13.3332C6.00387 13.2161 6.03459 13.1011 6.09302 12.9997L8.81502 9.99973H12.001C12.2662 9.99973 12.5206 9.89437 12.7081 9.70684C12.8957 9.5193 13.001 9.26495 13.001 8.99973C13.001 8.73451 12.8957 8.48016 12.7081 8.29262C12.5206 8.10509 12.2662 7.99973 12.001 7.99973H7.50102C7.40855 8.00301 7.31706 7.97993 7.23721 7.93319C7.15735 7.88645 7.09243 7.81796 7.05002 7.73573C7.01464 7.67138 6.99693 7.5988 6.99869 7.52538C7.00045 7.45197 7.02161 7.38032 7.06002 7.31773L11.612 2.16873C11.6597 2.11282 11.719 2.06792 11.7857 2.03713C11.8524 2.00634 11.925 1.9904 11.9985 1.9904C12.072 1.9904 12.1446 2.00634 12.2114 2.03713C12.2781 2.06792 12.3373 2.11282 12.385 2.16873L16.935 7.31673C16.9737 7.3792 16.9951 7.45081 16.997 7.52424C16.9989 7.59768 16.9813 7.67032 16.946 7.73473C16.9042 7.81621 16.8403 7.88427 16.7616 7.93114C16.6829 7.978 16.5926 8.00177 16.501 7.99973H15.633C15.4405 8.00239 15.2529 8.06022 15.0923 8.16635C14.9317 8.27248 14.8049 8.42246 14.727 8.59849C14.6491 8.77452 14.6233 8.9692 14.6527 9.15944C14.6822 9.34968 14.7656 9.52747 14.893 9.67173L17.909 12.9997C17.9675 13.1011 17.9982 13.2161 17.9981 13.3332C17.998 13.4502 17.9671 13.5652 17.9086 13.6665C17.85 13.7678 17.7658 13.852 17.6644 13.9105C17.563 13.969 17.4481 13.9997 17.331 13.9997H17.174C16.9838 14.0026 16.7983 14.0594 16.639 14.1634C16.4797 14.2674 16.3531 14.4144 16.2738 14.5873C16.1946 14.7603 16.166 14.9522 16.1914 15.1407C16.2167 15.3293 16.295 15.5068 16.417 15.6527L18.847 18.4707C18.9413 18.6181 18.9943 18.788 19.0007 18.9628C19.007 19.1376 18.9664 19.3109 18.883 19.4647V19.4667Z" fill="black"/>
</svg>
