<svg width="24" height="24" viewBox="0 0 24 24" fill="none" xmlns="http://www.w3.org/2000/svg">
<path d="M20.44 16.8545L18.959 14.6335C19.2015 14.4726 19.41 14.2654 19.5724 14.0239C19.7348 13.7823 19.848 13.5112 19.9055 13.2258C19.963 12.9405 19.9636 12.6466 19.9074 12.361C19.8513 12.0754 19.7393 11.8037 19.578 11.5615L17.487 8.42647C17.6701 8.25975 17.8242 8.06374 17.943 7.84647C18.1331 7.49761 18.2256 7.10395 18.2108 6.70694C18.196 6.30993 18.0745 5.92425 17.859 5.59048C17.834 5.55268 17.807 5.51629 17.778 5.48148L13.678 0.699483C13.453 0.476607 13.1858 0.300869 12.8921 0.182566C12.5983 0.0642622 12.2839 0.00577198 11.9673 0.0105216C11.6506 0.0152713 11.3381 0.0831653 11.048 0.210226C10.758 0.337287 10.4962 0.520959 10.278 0.750483L6.20598 5.47748C6.17639 5.51111 6.14932 5.54687 6.12498 5.58448C5.83752 6.02715 5.71782 6.55803 5.78751 7.08123C5.85719 7.60443 6.11167 8.08547 6.50498 8.43747L4.42198 11.5615C4.26067 11.8037 4.14872 12.0754 4.09252 12.361C4.03632 12.6466 4.03699 12.9405 4.09448 13.2258C4.15198 13.5112 4.26517 13.7823 4.42758 14.0239C4.58999 14.2654 4.79843 14.4726 5.04098 14.6335L3.55998 16.8545C3.22768 17.3527 3.03684 17.9318 3.0078 18.53C2.97876 19.1282 3.11261 19.7231 3.39509 20.2512C3.67756 20.7793 4.09807 21.2208 4.61176 21.5287C5.12546 21.8366 5.71308 21.9993 6.31198 21.9995H11V22.9995C11 23.2647 11.1053 23.519 11.2929 23.7066C11.4804 23.8941 11.7348 23.9995 12 23.9995C12.2652 23.9995 12.5196 23.8941 12.7071 23.7066C12.8946 23.519 13 23.2647 13 22.9995V21.9995H17.687C18.286 21.9995 18.8737 21.8369 19.3876 21.5291C19.9014 21.2213 20.3221 20.7797 20.6046 20.2516C20.8872 19.7235 21.0212 19.1285 20.9922 18.5303C20.9632 17.932 20.7723 17.3528 20.44 16.8545ZM18.84 19.3085C18.7297 19.5183 18.5638 19.6938 18.3604 19.8157C18.1571 19.9376 17.9241 20.0012 17.687 19.9995H6.31198C6.07517 19.9992 5.84285 19.9348 5.63978 19.8129C5.43671 19.6911 5.27049 19.5165 5.15883 19.3076C5.04718 19.0988 4.99427 18.8636 5.00574 18.627C5.01722 18.3905 5.09264 18.1615 5.22398 17.9645L7.49998 14.5545C7.60056 14.4037 7.65828 14.2285 7.66698 14.0475C7.67568 13.8665 7.63504 13.6865 7.54939 13.5268C7.46374 13.3671 7.3363 13.2337 7.18071 13.1408C7.02511 13.0479 6.8472 12.9991 6.66598 12.9995H6.26098C6.2226 13.0008 6.18464 12.991 6.15166 12.9713C6.11867 12.9516 6.09205 12.9229 6.07498 12.8885C6.05571 12.8551 6.0465 12.8168 6.04845 12.7783C6.0504 12.7398 6.06343 12.7027 6.08598 12.6715L8.83098 8.55447C8.92997 8.40294 8.98598 8.22737 8.99302 8.04651C9.00006 7.86564 8.95789 7.68625 8.87098 7.52747C8.7833 7.36758 8.65423 7.2342 8.4973 7.1413C8.34037 7.04841 8.16135 6.99943 7.97898 6.99948C7.9407 7.00088 7.90282 6.99126 7.86985 6.97176C7.83688 6.95226 7.8102 6.9237 7.79298 6.88948C7.7775 6.86268 7.76845 6.83266 7.76655 6.80177C7.76464 6.77088 7.76992 6.73997 7.78198 6.71148L11.744 2.11148C11.7708 2.07725 11.8041 2.0487 11.8421 2.02751C11.8801 2.00632 11.9219 1.99291 11.9651 1.98806C12.0083 1.98322 12.052 1.98704 12.0937 1.99931C12.1354 2.01157 12.1743 2.03203 12.208 2.05948L16.2 6.71248C16.212 6.74097 16.2173 6.77188 16.2154 6.80277C16.2135 6.83366 16.2045 6.86368 16.189 6.89048C16.1714 6.92499 16.1442 6.95367 16.1107 6.97302C16.0771 6.99237 16.0387 7.00156 16 6.99948C15.8189 6.99945 15.6413 7.04857 15.486 7.1416C15.3307 7.23463 15.2035 7.36808 15.1181 7.52771C15.0327 7.68734 14.9922 7.86716 15.001 8.04799C15.0098 8.22882 15.0675 8.40387 15.168 8.55447L17.913 12.6715C17.9355 12.7027 17.9486 12.7398 17.9505 12.7783C17.9525 12.8168 17.9433 12.8551 17.924 12.8885C17.9069 12.9229 17.8803 12.9516 17.8473 12.9713C17.8143 12.991 17.7764 13.0008 17.738 12.9995H17.333C17.1519 12.9994 16.9743 13.0486 16.819 13.1416C16.6637 13.2346 16.5365 13.3681 16.4511 13.5277C16.3657 13.6873 16.3252 13.8672 16.334 14.048C16.3428 14.2288 16.4005 14.4039 16.501 14.5545L18.775 17.9645C18.9087 18.1607 18.9856 18.39 18.9973 18.6272C19.0089 18.8643 18.9548 19.1001 18.841 19.3085H18.84Z" fill="black"/>
<path d="M9 17.9995C9.55228 17.9995 10 17.5518 10 16.9995C10 16.4472 9.55228 15.9995 9 15.9995C8.44771 15.9995 8 16.4472 8 16.9995C8 17.5518 8.44771 17.9995 9 17.9995Z" fill="black"/>
<path d="M14 17.9995C14.5523 17.9995 15 17.5518 15 16.9995C15 16.4472 14.5523 15.9995 14 15.9995C13.4477 15.9995 13 16.4472 13 16.9995C13 17.5518 13.4477 17.9995 14 17.9995Z" fill="black"/>
<path d="M11 14C11.5523 14 12 13.5523 12 13C12 12.4477 11.5523 12 11 12C10.4477 12 10 12.4477 10 13C10 13.5523 10.4477 14 11 14Z" fill="black"/>
<path d="M13 11C13.5523 11 14 10.5523 14 10C14 9.44771 13.5523 9 13 9C12.4477 9 12 9.44771 12 10C12 10.5523 12.4477 11 13 11Z" fill="black"/>
<path d="M11 8C11.5523 8 12 7.55228 12 7C12 6.44771 11.5523 6 11 6C10.4477 6 10 6.44771 10 7C10 7.55228 10.4477 8 11 8Z" fill="black"/>
</svg>
