<svg width="24" height="24" viewBox="0 0 24 24" fill="none" xmlns="http://www.w3.org/2000/svg">
<g clip-path="url(#clip0_403_3217)">
<path d="M19.9481 24.0004H4.05207C3.36103 24.0044 2.68056 23.8307 2.07604 23.4958C1.47151 23.161 0.963252 22.6763 0.600072 22.0884C0.241383 21.5146 0.0362524 20.8582 0.00438072 20.1822C-0.027491 19.5063 0.114966 18.8335 0.418072 18.2284L8.38007 4.21242C8.7227 3.54419 9.2436 2.98385 9.88509 2.59344C10.5266 2.20304 11.2636 1.99782 12.0145 2.00051C12.7655 2.00321 13.501 2.21371 14.1397 2.6087C14.7784 3.00369 15.2952 3.56775 15.6331 4.23842L23.5551 18.1794C23.8691 18.7889 24.0198 19.4694 23.9924 20.1545C23.9651 20.8396 23.7607 21.5059 23.3991 22.0884C23.036 22.6762 22.5279 23.1608 21.9235 23.4956C21.3192 23.8304 20.6389 24.0043 19.9481 24.0004ZM12.0001 4.00042C11.6175 3.99408 11.241 4.09691 10.9148 4.29687C10.5885 4.49683 10.3261 4.78562 10.1581 5.12942L10.1321 5.17842L2.18407 19.1674C2.04253 19.4627 1.97888 19.7892 1.99918 20.116C2.01949 20.4428 2.12307 20.759 2.30007 21.0344C2.48483 21.3321 2.743 21.5773 3.0498 21.7464C3.35661 21.9156 3.70174 22.003 4.05207 22.0004H19.9521C20.3024 22.003 20.6475 21.9156 20.9543 21.7464C21.2611 21.5773 21.5193 21.3321 21.7041 21.0344C21.8841 20.7504 21.9871 20.4243 22.0029 20.0883C22.0187 19.7524 21.9467 19.4181 21.7941 19.1184L13.8681 5.17842C13.7027 4.82341 13.4386 4.52353 13.1074 4.31463C12.7761 4.10572 12.3917 3.99664 12.0001 4.00042Z" fill="black"/>
</g>
<defs>
<clipPath id="clip0_403_3217">
<rect width="24" height="24" fill="white"/>
</clipPath>
</defs>
</svg>
