<svg width="24" height="24" viewBox="0 0 24 24" fill="none" xmlns="http://www.w3.org/2000/svg">
<g clip-path="url(#clip0_403_3223)">
<path d="M23.7185 9.549C22.7695 7.45173 21.2738 5.64831 19.3883 4.32773C17.5028 3.00714 15.2968 2.218 13.0015 2.043V1C13.0015 0.734784 12.8961 0.48043 12.7086 0.292893C12.521 0.105357 12.2667 0 12.0015 0C11.7362 0 11.4819 0.105357 11.2943 0.292893C11.1068 0.48043 11.0015 0.734784 11.0015 1V2.043C8.7036 2.21616 6.49465 3.00439 4.60625 4.32502C2.71784 5.64566 1.21954 7.45005 0.268456 9.549C0.0294036 10.149 -0.0586826 10.7985 0.0119327 11.4405C0.0825481 12.0825 0.309705 12.6973 0.673456 13.231C1.04106 13.7757 1.53673 14.2218 2.11699 14.5303C2.69724 14.8387 3.34432 15 4.00146 15H11.0015V21C11.0015 21.2652 10.8961 21.5196 10.7086 21.7071C10.521 21.8946 10.2667 22 10.0015 22C9.73624 22 9.48189 21.8946 9.29435 21.7071C9.10681 21.5196 9.00146 21.2652 9.00146 21C9.00146 20.7348 8.8961 20.4804 8.70856 20.2929C8.52103 20.1054 8.26667 20 8.00146 20C7.73624 20 7.48189 20.1054 7.29435 20.2929C7.10681 20.4804 7.00146 20.7348 7.00146 21C7.00146 21.7956 7.31753 22.5587 7.88014 23.1213C8.44275 23.6839 9.20581 24 10.0015 24C10.7971 24 11.5602 23.6839 12.1228 23.1213C12.6854 22.5587 13.0015 21.7956 13.0015 21V15H19.9845C20.6417 15 21.289 14.8387 21.8694 14.5303C22.4498 14.2218 22.9456 13.7757 23.3135 13.231C23.677 12.6972 23.904 12.0824 23.9746 11.4404C24.0452 10.7985 23.9572 10.149 23.7185 9.549ZM21.6575 12.11C21.4744 12.3855 21.2256 12.6112 20.9335 12.7666C20.6414 12.9219 20.3153 13.0022 19.9845 13H4.00146C3.67053 13.0021 3.34428 12.9218 3.05219 12.7662C2.76009 12.6107 2.51136 12.3848 2.32846 12.109C2.14714 11.8462 2.03394 11.5426 1.99903 11.2252C1.96412 10.9079 2.00859 10.5869 2.12846 10.291C3.58246 6.646 7.73546 4 12.0015 4C14.0751 3.99242 16.1072 4.5815 17.8553 5.69695C19.6034 6.81241 20.9937 8.40716 21.8605 10.291C21.9804 10.5872 22.0247 10.9086 21.9892 11.2262C21.9538 11.5438 21.8398 11.8475 21.6575 12.11Z" fill="black"/>
</g>
<defs>
<clipPath id="clip0_403_3223">
<rect width="24" height="24" fill="white"/>
</clipPath>
</defs>
</svg>
