<svg width="24" height="24" viewBox="0 0 24 24" fill="none" xmlns="http://www.w3.org/2000/svg">
<g clip-path="url(#clip0_403_3230)">
<path d="M23.0014 23.9991C22.7361 23.9991 22.4818 23.8938 22.2943 23.7062C22.1067 23.5187 22.0014 23.2643 22.0014 22.9991C21.9998 21.4083 21.3671 19.8831 20.2422 18.7582C19.1174 17.6334 17.5922 17.0007 16.0014 16.9991H10.1714V18.5851C10.1713 18.9806 10.0539 19.3672 9.83416 19.696C9.6144 20.0249 9.30207 20.2811 8.93667 20.4325C8.57127 20.5838 8.1692 20.6234 7.7813 20.5463C7.39339 20.4692 7.03706 20.2787 6.75736 19.9991L0.878359 14.1201C0.315946 13.5576 0 12.7946 0 11.9991C0 11.2036 0.315946 10.4407 0.878359 9.87814L6.75736 3.99915C7.03706 3.71953 7.39339 3.52912 7.7813 3.45198C8.1692 3.37485 8.57127 3.41445 8.93667 3.56579C9.30207 3.71713 9.6144 3.97341 9.83416 4.30223C10.0539 4.63105 10.1713 5.01765 10.1714 5.41315V6.99914H15.0014C17.3875 7.00179 19.6751 7.95085 21.3624 9.6381C23.0497 11.3254 23.9987 13.613 24.0014 15.9991V22.9991C24.0014 23.2643 23.896 23.5187 23.7085 23.7062C23.5209 23.8938 23.2666 23.9991 23.0014 23.9991ZM8.17136 5.41315L2.29236 11.2921C2.10489 11.4797 1.99957 11.734 1.99957 11.9991C1.99957 12.2643 2.10489 12.5186 2.29236 12.7061L8.17136 18.5851V15.9991C8.17136 15.7339 8.27672 15.4796 8.46425 15.292C8.65179 15.1045 8.90614 14.9991 9.17136 14.9991H16.0014C17.137 14.9988 18.2595 15.2407 19.2942 15.7087C20.3289 16.1767 21.2518 16.8601 22.0014 17.7131V15.9991C21.9992 14.1433 21.2611 12.364 19.9488 11.0517C18.6365 9.73943 16.8572 9.00126 15.0014 8.99914H9.17136C8.90614 8.99914 8.65179 8.89378 8.46425 8.70625C8.27672 8.51871 8.17136 8.26436 8.17136 7.99914V5.41315Z" fill="black"/>
</g>
<defs>
<clipPath id="clip0_403_3230">
<rect width="24" height="24" fill="white"/>
</clipPath>
</defs>
</svg>
