<svg width="24" height="24" viewBox="0 0 24 24" fill="none" xmlns="http://www.w3.org/2000/svg">
<g clip-path="url(#clip0_403_3228)">
<path d="M22.535 8.46021C22.0715 7.99523 21.5205 7.62678 20.9137 7.37617C20.3069 7.12556 19.6565 6.99778 19 7.00021H2.79997L7.09997 2.70021C7.28721 2.51217 7.39209 2.25745 7.39152 1.99209C7.39096 1.72673 7.285 1.47245 7.09697 1.28521C6.90893 1.09797 6.65421 0.993092 6.38884 0.993655C6.12348 0.994217 5.86921 1.10017 5.68197 1.28821L0.731966 6.23721C0.263288 6.70603 0 7.3418 0 8.00471C0 8.66762 0.263288 9.30339 0.731966 9.77221L5.68197 14.7232C5.77481 14.8163 5.88508 14.8902 6.00649 14.9407C6.1279 14.9912 6.25806 15.0173 6.38955 15.0175C6.52104 15.0177 6.65128 14.9919 6.77283 14.9418C6.89438 14.8917 7.00486 14.8181 7.09797 14.7252C7.19107 14.6324 7.26498 14.5221 7.31547 14.4007C7.36596 14.2793 7.39204 14.1491 7.39223 14.0176C7.39242 13.8861 7.3667 13.7559 7.31655 13.6344C7.26641 13.5128 7.19281 13.4023 7.09997 13.3092L2.78797 9.00021H19C19.7956 9.00021 20.5587 9.31628 21.1213 9.87889C21.6839 10.4415 22 11.2046 22 12.0002V19.0002C22 19.7959 21.6839 20.5589 21.1213 21.1215C20.5587 21.6841 19.7956 22.0002 19 22.0002H4.99997C4.73475 22.0002 4.4804 22.1056 4.29286 22.2931C4.10532 22.4806 3.99997 22.735 3.99997 23.0002C3.99997 23.2654 4.10532 23.5198 4.29286 23.7073C4.4804 23.8949 4.73475 24.0002 4.99997 24.0002H19C20.3256 23.9986 21.5964 23.4713 22.5337 22.534C23.4711 21.5967 23.9984 20.3258 24 19.0002V12.0002C24.0022 11.3426 23.8738 10.691 23.6224 10.0833C23.3709 9.47567 23.0013 8.92397 22.535 8.46021Z" fill="black"/>
</g>
<defs>
<clipPath id="clip0_403_3228">
<rect width="24" height="24" fill="white"/>
</clipPath>
</defs>
</svg>
