<svg width="24" height="24" viewBox="0 0 24 24" fill="none" xmlns="http://www.w3.org/2000/svg">
<g clip-path="url(#clip0_403_3242)">
<path d="M23 11.0005H21V9.00049C21 8.73527 20.8946 8.48092 20.7071 8.29338C20.5196 8.10585 20.2652 8.00049 20 8.00049C19.7348 8.00049 19.4804 8.10585 19.2929 8.29338C19.1054 8.48092 19 8.73527 19 9.00049V11.0005H17C16.7348 11.0005 16.4804 11.1058 16.2929 11.2934C16.1054 11.4809 16 11.7353 16 12.0005C16 12.2657 16.1054 12.5201 16.2929 12.7076C16.4804 12.8951 16.7348 13.0005 17 13.0005H19V15.0005C19 15.2657 19.1054 15.52 19.2929 15.7076C19.4804 15.8951 19.7348 16.0005 20 16.0005C20.2652 16.0005 20.5196 15.8951 20.7071 15.7076C20.8946 15.52 21 15.2657 21 15.0005V13.0005H23C23.2652 13.0005 23.5196 12.8951 23.7071 12.7076C23.8946 12.5201 24 12.2657 24 12.0005C24 11.7353 23.8946 11.4809 23.7071 11.2934C23.5196 11.1058 23.2652 11.0005 23 11.0005Z" fill="black"/>
<path d="M9 12C10.1867 12 11.3467 11.6481 12.3334 10.9888C13.3201 10.3295 14.0892 9.39246 14.5433 8.2961C14.9974 7.19975 15.1162 5.99335 14.8847 4.82946C14.6532 3.66558 14.0818 2.59648 13.2426 1.75736C12.4035 0.918247 11.3344 0.346802 10.1705 0.115291C9.00666 -0.11622 7.80026 0.00259972 6.7039 0.456726C5.60754 0.910851 4.67047 1.67989 4.01118 2.66658C3.35189 3.65328 3 4.81331 3 6C3.00159 7.59081 3.63424 9.11602 4.75911 10.2409C5.88399 11.3658 7.40919 11.9984 9 12ZM9 2C9.79113 2 10.5645 2.2346 11.2223 2.67412C11.8801 3.11365 12.3928 3.73836 12.6955 4.46927C12.9983 5.20017 13.0775 6.00444 12.9231 6.78036C12.7688 7.55629 12.3878 8.26902 11.8284 8.82843C11.269 9.38784 10.5563 9.7688 9.78036 9.92314C9.00444 10.0775 8.20017 9.99827 7.46927 9.69552C6.73836 9.39277 6.11365 8.88008 5.67412 8.22228C5.2346 7.56449 5 6.79113 5 6C5 4.93914 5.42143 3.92172 6.17157 3.17158C6.92172 2.42143 7.93913 2 9 2Z" fill="black"/>
<path d="M9 14.0005C6.61386 14.0031 4.32622 14.9522 2.63896 16.6395C0.951708 18.3267 0.00264685 20.6144 0 23.0005C0 23.2657 0.105357 23.5201 0.292893 23.7076C0.48043 23.8951 0.734784 24.0005 1 24.0005C1.26522 24.0005 1.51957 23.8951 1.70711 23.7076C1.89464 23.5201 2 23.2657 2 23.0005C2 21.144 2.7375 19.3635 4.05025 18.0507C5.36301 16.738 7.14348 16.0005 9 16.0005C10.8565 16.0005 12.637 16.738 13.9497 18.0507C15.2625 19.3635 16 21.144 16 23.0005C16 23.2657 16.1054 23.5201 16.2929 23.7076C16.4804 23.8951 16.7348 24.0005 17 24.0005C17.2652 24.0005 17.5196 23.8951 17.7071 23.7076C17.8946 23.5201 18 23.2657 18 23.0005C17.9974 20.6144 17.0483 18.3267 15.361 16.6395C13.6738 14.9522 11.3861 14.0031 9 14.0005Z" fill="black"/>
</g>
<defs>
<clipPath id="clip0_403_3242">
<rect width="24" height="24" fill="white"/>
</clipPath>
</defs>
</svg>
