<svg width="24" height="24" viewBox="0 0 24 24" fill="none" xmlns="http://www.w3.org/2000/svg">
<g clip-path="url(#clip0_403_3257)">
<path d="M21 16.0005V12.0005C20.9997 10.657 20.698 9.33075 20.1172 8.11929C19.5364 6.90784 18.6912 5.84209 17.644 5.00053H20.277C20.4986 5.37814 20.8385 5.67218 21.2441 5.83711C21.6497 6.00205 22.0983 6.02869 22.5206 5.91291C22.9429 5.79714 23.3152 5.5454 23.5799 5.19667C23.8447 4.84794 23.9871 4.42166 23.9851 3.98382C23.9831 3.54599 23.8369 3.12101 23.569 2.77467C23.3011 2.42834 22.9266 2.17996 22.5033 2.06799C22.08 1.95602 21.6316 1.9867 21.2275 2.15528C20.8235 2.32386 20.4862 2.62094 20.268 3.00053H15.858C15.6397 2.14295 15.1419 1.38253 14.4433 0.839421C13.7446 0.29631 12.8849 0.00146484 12 0.00146484C11.1151 0.00146484 10.2554 0.29631 9.55672 0.839421C8.85806 1.38253 8.36027 2.14295 8.142 3.00053H3.723C3.50139 2.62292 3.16148 2.32888 2.75589 2.16395C2.3503 1.99901 1.90166 1.97237 1.4794 2.08814C1.05714 2.20392 0.684827 2.45566 0.42008 2.80439C0.155333 3.15312 0.0129225 3.5794 0.0148928 4.01724C0.0168631 4.45507 0.163104 4.88005 0.430979 5.22639C0.698853 5.57272 1.07342 5.8211 1.4967 5.93307C1.91999 6.04504 2.36837 6.01436 2.77246 5.84578C3.17655 5.6772 3.51379 5.38012 3.732 5.00053H6.356C5.30876 5.84209 4.46362 6.90784 3.88281 8.11929C3.30201 9.33075 3.00033 10.657 3 12.0005V16.0005C2.20435 16.0005 1.44129 16.3166 0.87868 16.8792C0.31607 17.4418 0 18.2049 0 19.0005L0 21.0005C0 21.7962 0.31607 22.5592 0.87868 23.1219C1.44129 23.6845 2.20435 24.0005 3 24.0005H5C5.79565 24.0005 6.55871 23.6845 7.12132 23.1219C7.68393 22.5592 8 21.7962 8 21.0005V19.0005C8 18.2049 7.68393 17.4418 7.12132 16.8792C6.55871 16.3166 5.79565 16.0005 5 16.0005V12.0005C5.00163 10.7692 5.32801 9.56015 5.94621 8.4953C6.5644 7.43044 7.45254 6.54748 8.521 5.93553C8.86194 6.5605 9.36493 7.08209 9.97712 7.44549C10.5893 7.80888 11.2881 8.00065 12 8.00065C12.7119 8.00065 13.4107 7.80888 14.0229 7.44549C14.6351 7.08209 15.1381 6.5605 15.479 5.93553C16.5475 6.54748 17.4356 7.43044 18.0538 8.4953C18.672 9.56015 18.9984 10.7692 19 12.0005V16.0005C18.2044 16.0005 17.4413 16.3166 16.8787 16.8792C16.3161 17.4418 16 18.2049 16 19.0005V21.0005C16 21.7962 16.3161 22.5592 16.8787 23.1219C17.4413 23.6845 18.2044 24.0005 19 24.0005H21C21.7956 24.0005 22.5587 23.6845 23.1213 23.1219C23.6839 22.5592 24 21.7962 24 21.0005V19.0005C24 18.2049 23.6839 17.4418 23.1213 16.8792C22.5587 16.3166 21.7956 16.0005 21 16.0005ZM6 19.0005V21.0005C6 21.2657 5.89464 21.5201 5.70711 21.7076C5.51957 21.8952 5.26522 22.0005 5 22.0005H3C2.73478 22.0005 2.48043 21.8952 2.29289 21.7076C2.10536 21.5201 2 21.2657 2 21.0005V19.0005C2 18.7353 2.10536 18.481 2.29289 18.2934C2.48043 18.1059 2.73478 18.0005 3 18.0005H5C5.26522 18.0005 5.51957 18.1059 5.70711 18.2934C5.89464 18.481 6 18.7353 6 19.0005ZM12 6.00053C11.6044 6.00053 11.2178 5.88323 10.8889 5.66347C10.56 5.44371 10.3036 5.13135 10.1522 4.7659C10.0009 4.40044 9.96126 3.99831 10.0384 3.61035C10.1156 3.22239 10.3061 2.86602 10.5858 2.58632C10.8655 2.30661 11.2219 2.11613 11.6098 2.03896C11.9978 1.96179 12.3999 2.0014 12.7654 2.15277C13.1308 2.30415 13.4432 2.56049 13.6629 2.88939C13.8827 3.21829 14 3.60497 14 4.00053C14 4.53096 13.7893 5.03967 13.4142 5.41474C13.0391 5.78982 12.5304 6.00053 12 6.00053ZM22 21.0005C22 21.2657 21.8946 21.5201 21.7071 21.7076C21.5196 21.8952 21.2652 22.0005 21 22.0005H19C18.7348 22.0005 18.4804 21.8952 18.2929 21.7076C18.1054 21.5201 18 21.2657 18 21.0005V19.0005C18 18.7353 18.1054 18.481 18.2929 18.2934C18.4804 18.1059 18.7348 18.0005 19 18.0005H21C21.2652 18.0005 21.5196 18.1059 21.7071 18.2934C21.8946 18.481 22 18.7353 22 19.0005V21.0005Z" fill="black"/>
</g>
<defs>
<clipPath id="clip0_403_3257">
<rect width="24" height="24" fill="white"/>
</clipPath>
</defs>
</svg>
