<svg width="24" height="24" viewBox="0 0 24 24" fill="none" xmlns="http://www.w3.org/2000/svg">
<g clip-path="url(#clip0_403_3259)">
<path d="M10.007 3L8 2.986C7.9963 2.19278 7.67859 1.43331 7.11639 0.873724C6.55418 0.314139 5.79323 -8.63726e-06 5 1.78109e-10L3 1.7811e-10C2.20435 1.7811e-10 1.44129 0.31607 0.87868 0.87868C0.31607 1.44129 0 2.20435 0 3L0 5C-2.16263e-06 5.79444 0.315107 6.55644 0.876203 7.11885C1.4373 7.68126 2.19856 7.99815 2.993 8L2.979 9.993C2.97808 10.1244 3.00306 10.2547 3.05253 10.3764C3.102 10.4982 3.17497 10.609 3.26729 10.7025C3.3596 10.796 3.46945 10.8704 3.59054 10.9215C3.71163 10.9725 3.84159 10.9992 3.973 11H3.979C4.24301 11 4.49631 10.8956 4.68364 10.7096C4.87098 10.5236 4.97715 10.271 4.979 10.007L4.993 8H5C5.79565 8 6.55871 7.68393 7.12132 7.12132C7.68393 6.55871 8 5.79565 8 5V4.986L9.993 5H10C10.1313 5.00046 10.2614 4.97505 10.3829 4.92522C10.5045 4.87539 10.6149 4.80212 10.7081 4.70958C10.8013 4.61705 10.8754 4.50707 10.926 4.38592C10.9767 4.26477 11.003 4.13482 11.0035 4.0035C11.004 3.87218 10.9785 3.74205 10.9287 3.62055C10.8789 3.49905 10.8056 3.38855 10.7131 3.29537C10.6205 3.20218 10.5106 3.12814 10.3894 3.07746C10.2683 3.02678 10.1383 3.00046 10.007 3ZM6 5C6 5.26522 5.89464 5.51957 5.70711 5.70711C5.51957 5.89464 5.26522 6 5 6H3C2.73478 6 2.48043 5.89464 2.29289 5.70711C2.10536 5.51957 2 5.26522 2 5V3C2 2.73478 2.10536 2.48043 2.29289 2.29289C2.48043 2.10536 2.73478 2 3 2H5C5.26522 2 5.51957 2.10536 5.70711 2.29289C5.89464 2.48043 6 2.73478 6 3V5Z" fill="black"/>
<path d="M20.9996 0H18.9996C18.2052 -2.16263e-06 17.4432 0.315107 16.8808 0.876203C16.3183 1.4373 16.0015 2.19856 15.9996 2.993L14.0056 2.979H13.9996C13.7344 2.97807 13.4797 3.08254 13.2915 3.26942C13.1033 3.4563 12.997 3.71028 12.9961 3.9755C12.9952 4.24072 13.0996 4.49544 13.2865 4.68363C13.4734 4.87182 13.7274 4.97807 13.9926 4.979L15.9996 4.993V5C15.9996 5.79565 16.3157 6.55871 16.8783 7.12132C17.4409 7.68393 18.204 8 18.9996 8H19.0136L18.9996 9.993C18.9987 10.1243 19.0236 10.2545 19.073 10.3762C19.1224 10.4979 19.1953 10.6087 19.2875 10.7022C19.3797 10.7957 19.4895 10.8701 19.6104 10.9212C19.7314 10.9723 19.8613 10.9991 19.9926 11H19.9996C20.2636 11 20.5169 10.8956 20.7042 10.7096C20.8916 10.5236 20.9978 10.271 20.9996 10.007L21.0136 8C21.8068 7.9963 22.5663 7.67859 23.1259 7.11639C23.6855 6.55418 23.9996 5.79323 23.9996 5V3C23.9996 2.20435 23.6835 1.44129 23.1209 0.87868C22.5583 0.31607 21.7952 0 20.9996 0V0ZM21.9996 5C21.9996 5.26522 21.8942 5.51957 21.7067 5.70711C21.5192 5.89464 21.2648 6 20.9996 6H18.9996C18.7344 6 18.48 5.89464 18.2925 5.70711C18.105 5.51957 17.9996 5.26522 17.9996 5V3C17.9996 2.73478 18.105 2.48043 18.2925 2.29289C18.48 2.10536 18.7344 2 18.9996 2H20.9996C21.2648 2 21.5192 2.10536 21.7067 2.29289C21.8942 2.48043 21.9996 2.73478 21.9996 3V5Z" fill="black"/>
<path d="M21.0066 15.9995L21.0206 14.0055C21.0214 13.8742 20.9963 13.744 20.9468 13.6224C20.8973 13.5007 20.8243 13.3901 20.732 13.2966C20.6397 13.2032 20.5299 13.1289 20.4088 13.0779C20.2878 13.0269 20.1579 13.0003 20.0266 12.9995H20.0206C19.7566 12.9995 19.5033 13.1039 19.316 13.2899C19.1286 13.476 19.0224 13.7285 19.0206 13.9925L19.0066 15.9995H18.9996C18.204 15.9995 17.4409 16.3156 16.8783 16.8782C16.3157 17.4408 15.9996 18.2039 15.9996 18.9995V19.0135L14.0066 18.9995H13.9996C13.7344 18.9986 13.4797 19.103 13.2915 19.2899C13.1033 19.4768 12.997 19.7308 12.9961 19.996C12.9952 20.2612 13.0996 20.5159 13.2865 20.7041C13.4734 20.8923 13.7274 20.9986 13.9926 20.9995L15.9996 21.0135C16.0033 21.8067 16.321 22.5662 16.8832 23.1258C17.4454 23.6854 18.2064 23.9995 18.9996 23.9995H20.9996C21.7952 23.9995 22.5583 23.6834 23.1209 23.1208C23.6835 22.5582 23.9996 21.7951 23.9996 20.9995V18.9995C23.9996 18.2051 23.6845 17.4431 23.1234 16.8807C22.5623 16.3182 21.801 16.0014 21.0066 15.9995ZM21.9996 20.9995C21.9996 21.2647 21.8942 21.5191 21.7067 21.7066C21.5192 21.8941 21.2648 21.9995 20.9996 21.9995H18.9996C18.7344 21.9995 18.48 21.8941 18.2925 21.7066C18.105 21.5191 17.9996 21.2647 17.9996 20.9995V18.9995C17.9996 18.7343 18.105 18.4799 18.2925 18.2924C18.48 18.1049 18.7344 17.9995 18.9996 17.9995H20.9996C21.2648 17.9995 21.5192 18.1049 21.7067 18.2924C21.8942 18.4799 21.9996 18.7343 21.9996 18.9995V20.9995Z" fill="black"/>
<path d="M10.007 19.0205L8 19.0065V18.9995C8 18.2039 7.68393 17.4408 7.12132 16.8782C6.55871 16.3156 5.79565 15.9995 5 15.9995H4.986L5 14.0065C5.00092 13.8752 4.97597 13.745 4.92656 13.6233C4.87716 13.5016 4.80427 13.3909 4.71206 13.2973C4.61985 13.2038 4.51013 13.1294 4.38915 13.0783C4.26818 13.0272 4.13832 13.0004 4.007 12.9995H4C3.73599 12.9995 3.48269 13.1039 3.29536 13.2899C3.10802 13.476 3.00185 13.7285 3 13.9925L2.986 15.9995C2.19278 16.0032 1.43331 16.3209 0.873724 16.8831C0.314139 17.4453 -8.63726e-06 18.2063 1.78109e-10 18.9995L1.78109e-10 20.9995C1.7811e-10 21.7951 0.31607 22.5582 0.87868 23.1208C1.44129 23.6834 2.20435 23.9995 3 23.9995H5C5.79444 23.9995 6.55644 23.6844 7.11885 23.1233C7.68126 22.5622 7.99815 21.8009 8 21.0065L9.994 21.0205H10C10.2652 21.0214 10.5199 20.917 10.7081 20.7301C10.8963 20.5432 11.0026 20.2892 11.0035 20.024C11.0044 19.7588 10.9 19.5041 10.7131 19.3159C10.5262 19.1277 10.2722 19.0214 10.007 19.0205ZM6 20.9995C6 21.2647 5.89464 21.5191 5.70711 21.7066C5.51957 21.8941 5.26522 21.9995 5 21.9995H3C2.73478 21.9995 2.48043 21.8941 2.29289 21.7066C2.10536 21.5191 2 21.2647 2 20.9995V18.9995C2 18.7343 2.10536 18.4799 2.29289 18.2924C2.48043 18.1049 2.73478 17.9995 3 17.9995H5C5.26522 17.9995 5.51957 18.1049 5.70711 18.2924C5.89464 18.4799 6 18.7343 6 18.9995V20.9995Z" fill="black"/>
</g>
<defs>
<clipPath id="clip0_403_3259">
<rect width="24" height="24" fill="white"/>
</clipPath>
</defs>
</svg>
