<svg width="24" height="24" viewBox="0 0 24 24" fill="none" xmlns="http://www.w3.org/2000/svg">
<g clip-path="url(#clip0_403_3266)">
<path d="M22.0005 0H18.0005C17.7353 0 17.481 0.105357 17.2934 0.292893C17.1059 0.48043 17.0005 0.734784 17.0005 1C17.0005 1.26522 17.1059 1.51957 17.2934 1.70711C17.481 1.89464 17.7353 2 18.0005 2H20.5865L18.1865 4.4C17.092 3.57348 15.7772 3.08974 14.4081 3.00983C13.0389 2.92992 11.6767 3.25742 10.4935 3.951C9.60175 3.4357 8.6071 3.12387 7.58075 3.03781C6.55441 2.95176 5.52172 3.09361 4.55659 3.45322C3.59146 3.81283 2.71774 4.3813 1.99794 5.11798C1.27814 5.85465 0.730051 6.7413 0.392893 7.7145C0.0557356 8.68771 -0.0621588 9.7234 0.0476447 10.7475C0.157448 11.7716 0.492236 12.7587 1.02805 13.6383C1.56387 14.5179 2.28748 15.2682 3.14709 15.8355C4.00671 16.4029 4.98109 16.7732 6.00052 16.92V19H4.00052C3.73531 19 3.48095 19.1054 3.29342 19.2929C3.10588 19.4804 3.00052 19.7348 3.00052 20C3.00052 20.2652 3.10588 20.5196 3.29342 20.7071C3.48095 20.8946 3.73531 21 4.00052 21H6.00052V23C6.00052 23.2652 6.10588 23.5196 6.29342 23.7071C6.48095 23.8946 6.73531 24 7.00052 24C7.26574 24 7.52009 23.8946 7.70763 23.7071C7.89516 23.5196 8.00052 23.2652 8.00052 23V21H10.0005C10.2657 21 10.5201 20.8946 10.7076 20.7071C10.8952 20.5196 11.0005 20.2652 11.0005 20C11.0005 19.7348 10.8952 19.4804 10.7076 19.2929C10.5201 19.1054 10.2657 19 10.0005 19H8.00052V16.927C8.87958 16.796 9.72526 16.4973 10.4915 16.047C11.8847 16.8619 13.5171 17.1692 15.1113 16.9168C16.7054 16.6643 18.163 15.8677 19.2363 14.6622C20.3095 13.4567 20.9323 11.9168 20.9987 10.3042C21.0651 8.69152 20.571 7.10563 19.6005 5.816L22.0005 3.416V6C22.0005 6.26522 22.1059 6.51957 22.2934 6.70711C22.481 6.89464 22.7353 7 23.0005 7C23.2657 7 23.5201 6.89464 23.7076 6.70711C23.8952 6.51957 24.0005 6.26522 24.0005 6V2C24.0005 1.46957 23.7898 0.960859 23.4147 0.585786C23.0397 0.210714 22.531 0 22.0005 0V0ZM2.00052 10C1.99578 9.18785 2.19011 8.38691 2.5665 7.66722C2.94289 6.94754 3.48988 6.33104 4.15963 5.87165C4.82939 5.41226 5.6015 5.12396 6.40844 5.03198C7.21537 4.93999 8.03256 5.04712 8.78852 5.344C7.63746 6.62162 7.00046 8.28033 7.00046 10C7.00046 11.7197 7.63746 13.3784 8.78852 14.656C8.03256 14.9529 7.21537 15.06 6.40844 14.968C5.6015 14.876 4.82939 14.5877 4.15963 14.1284C3.48988 13.669 2.94289 13.0525 2.5665 12.3328C2.19011 11.6131 1.99578 10.8122 2.00052 10ZM14.0005 15C13.0116 15 12.0449 14.7068 11.2227 14.1573C10.4004 13.6079 9.75956 12.827 9.38112 11.9134C9.00269 10.9998 8.90367 9.99445 9.0966 9.02455C9.28952 8.05464 9.76573 7.16373 10.465 6.46447C11.1643 5.7652 12.0552 5.289 13.0251 5.09607C13.995 4.90315 15.0003 5.00216 15.9139 5.3806C16.8276 5.75904 17.6085 6.3999 18.1579 7.22215C18.7073 8.04439 19.0005 9.01109 19.0005 10C18.9989 11.3256 18.4716 12.5964 17.5343 13.5338C16.597 14.4711 15.3261 14.9984 14.0005 15Z" fill="black"/>
</g>
<defs>
<clipPath id="clip0_403_3266">
<rect width="24" height="24" fill="white"/>
</clipPath>
</defs>
</svg>
