<svg width="24" height="24" viewBox="0 0 24 24" fill="none" xmlns="http://www.w3.org/2000/svg">
<g clip-path="url(#clip0_403_3264)">
<path d="M23.9987 7.49963C24.0013 6.10633 23.6151 4.73993 22.8834 3.5542C22.1518 2.36847 21.1037 1.41046 19.8572 0.787977C18.6107 0.165495 17.2152 -0.0967544 15.8277 0.0307389C14.4402 0.158232 13.1159 0.670408 12.0037 1.50963C11.1047 0.831789 10.0647 0.365038 8.9607 0.144002C7.85673 -0.0770348 6.71715 -0.0466847 5.62651 0.232801C4.53586 0.512286 3.52214 1.03373 2.66053 1.75847C1.79891 2.4832 1.11152 3.39262 0.64934 4.41927C0.18716 5.44592 -0.0379484 6.56345 -0.00928809 7.68897C0.0193722 8.81449 0.301066 9.91911 0.814899 10.9209C1.32873 11.9227 2.06152 12.796 2.9589 13.4759C3.85628 14.1558 4.89523 14.625 5.99869 14.8486V18.9996H3.99869C3.73347 18.9996 3.47912 19.105 3.29158 19.2925C3.10404 19.4801 2.99869 19.7344 2.99869 19.9996C2.99869 20.2648 3.10404 20.5192 3.29158 20.7067C3.47912 20.8943 3.73347 20.9996 3.99869 20.9996H5.99869V22.9996C5.99869 23.2648 6.10404 23.5192 6.29158 23.7067C6.47912 23.8943 6.73347 23.9996 6.99869 23.9996C7.2639 23.9996 7.51826 23.8943 7.70579 23.7067C7.89333 23.5192 7.99869 23.2648 7.99869 22.9996V20.9996H9.99869C10.2639 20.9996 10.5183 20.8943 10.7058 20.7067C10.8933 20.5192 10.9987 20.2648 10.9987 19.9996C10.9987 19.7344 10.8933 19.4801 10.7058 19.2925C10.5183 19.105 10.2639 18.9996 9.99869 18.9996H7.99869V14.9756C9.45022 14.8823 10.8426 14.3657 12.0037 13.4896C13.1625 14.3628 14.5509 14.8789 15.9987 14.9746V18.9996H13.9987C13.7335 18.9996 13.4791 19.105 13.2916 19.2925C13.104 19.4801 12.9987 19.7344 12.9987 19.9996C12.9987 20.2648 13.104 20.5192 13.2916 20.7067C13.4791 20.8943 13.7335 20.9996 13.9987 20.9996H15.9987V22.9996C15.9987 23.2648 16.104 23.5192 16.2916 23.7067C16.4791 23.8943 16.7335 23.9996 16.9987 23.9996C17.2639 23.9996 17.5183 23.8943 17.7058 23.7067C17.8933 23.5192 17.9987 23.2648 17.9987 22.9996V20.9996H19.9987C20.2639 20.9996 20.5183 20.8943 20.7058 20.7067C20.8933 20.5192 20.9987 20.2648 20.9987 19.9996C20.9987 19.7344 20.8933 19.4801 20.7058 19.2925C20.5183 19.105 20.2639 18.9996 19.9987 18.9996H17.9987V14.8486C19.6914 14.5006 21.2125 13.5797 22.3054 12.241C23.3983 10.9023 23.9964 9.22779 23.9987 7.49963ZM21.9987 7.49963C21.9987 8.58743 21.6761 9.6508 21.0718 10.5553C20.4674 11.4597 19.6084 12.1647 18.6034 12.581C17.5985 12.9973 16.4926 13.1062 15.4257 12.894C14.3588 12.6817 13.3788 12.1579 12.6096 11.3887C11.8404 10.6195 11.3166 9.63953 11.1044 8.57263C10.8922 7.50573 11.0011 6.39987 11.4174 5.39487C11.8336 4.38988 12.5386 3.5309 13.4431 2.92655C14.3475 2.3222 15.4109 1.99963 16.4987 1.99963C17.9569 2.00122 19.3549 2.58119 20.386 3.6123C21.4171 4.64341 21.9971 6.04143 21.9987 7.49963ZM1.99869 7.49963C1.99694 6.50261 2.26674 5.52393 2.77913 4.66863C3.29152 3.81334 4.02714 3.11373 4.90706 2.64489C5.78697 2.17604 6.77796 1.95567 7.77364 2.00742C8.76932 2.05917 9.73212 2.38109 10.5587 2.93863C9.54752 4.24402 8.99881 5.84842 8.99881 7.49963C8.99881 9.15084 9.54752 10.7552 10.5587 12.0606C9.73212 12.6182 8.76932 12.9401 7.77364 12.9918C6.77796 13.0436 5.78697 12.8232 4.90706 12.3544C4.02714 11.8855 3.29152 11.1859 2.77913 10.3306C2.26674 9.47534 1.99694 8.49666 1.99869 7.49963Z" fill="black"/>
</g>
<defs>
<clipPath id="clip0_403_3264">
<rect width="24" height="24" fill="white"/>
</clipPath>
</defs>
</svg>
