<svg width="24" height="24" viewBox="0 0 24 24" fill="none" xmlns="http://www.w3.org/2000/svg">
<g clip-path="url(#clip0_403_3268)">
<path d="M20 7.99942C20.0012 6.45958 19.558 4.9521 18.7235 3.65795C17.8891 2.3638 16.6989 1.33797 15.2958 0.703597C13.8927 0.0692238 12.3363 -0.146734 10.8135 0.0816459C9.29067 0.310026 7.86613 0.97304 6.71084 1.9911C5.55556 3.00916 4.71864 4.33901 4.30054 5.821C3.88244 7.303 3.90093 8.87417 4.35379 10.3459C4.80665 11.8177 5.67463 13.1275 6.85355 14.118C8.03247 15.1086 9.47223 15.7379 11 15.9304V18.9994H9C8.73478 18.9994 8.48043 19.1048 8.29289 19.2923C8.10535 19.4799 8 19.7342 8 19.9994C8 20.2646 8.10535 20.519 8.29289 20.7065C8.48043 20.8941 8.73478 20.9994 9 20.9994H11V22.9994C11 23.2646 11.1054 23.519 11.2929 23.7065C11.4804 23.8941 11.7348 23.9994 12 23.9994C12.2652 23.9994 12.5196 23.8941 12.7071 23.7065C12.8946 23.519 13 23.2646 13 22.9994V20.9994H15C15.2652 20.9994 15.5196 20.8941 15.7071 20.7065C15.8946 20.519 16 20.2646 16 19.9994C16 19.7342 15.8946 19.4799 15.7071 19.2923C15.5196 19.1048 15.2652 18.9994 15 18.9994H13V15.9304C14.9315 15.6854 16.7076 14.745 17.9959 13.2853C19.2843 11.8255 19.9968 9.94641 20 7.99942ZM6 7.99942C6 6.81274 6.35189 5.6527 7.01118 4.666C7.67047 3.67931 8.60754 2.91027 9.7039 2.45615C10.8003 2.00202 12.0067 1.8832 13.1705 2.11471C14.3344 2.34622 15.4035 2.91767 16.2426 3.75678C17.0818 4.5959 17.6532 5.665 17.8847 6.82888C18.1162 7.99277 17.9974 9.19917 17.5433 10.2955C17.0891 11.3919 16.3201 12.329 15.3334 12.9882C14.3467 13.6475 13.1867 13.9994 12 13.9994C10.4092 13.9978 8.88399 13.3652 7.75911 12.2403C6.63424 11.1154 6.00159 9.59023 6 7.99942Z" fill="black"/>
</g>
<defs>
<clipPath id="clip0_403_3268">
<rect width="24" height="24" fill="white"/>
</clipPath>
</defs>
</svg>
