<svg width="24" height="24" viewBox="0 0 24 24" fill="none" xmlns="http://www.w3.org/2000/svg">
<g clip-path="url(#clip0_403_3270)">
<path d="M22.9 8.95552C22.2246 8.61324 21.4133 8.68458 20.808 9.1395L18.975 10.5005C18.7151 7.94714 16.5666 6.00375 14 6.00052H13.915L9.79303 1.8795C9.23208 1.31461 8.46816 0.998018 7.67203 1.0005H0.999984C0.447703 1.0005 0 1.44825 0 2.00053C0 2.55282 0.447703 3.00052 0.999984 3.00052H7.67198C7.93706 3.00122 8.19112 3.1065 8.379 3.29353L11.086 6.00052H5.00002C2.23997 6.00385 0.00332812 8.24049 0 11.0005V19.0006C0.00332812 21.7606 2.23997 23.9972 5.00002 24.0005H14C16.5666 23.9973 18.7151 22.0539 18.975 19.5005L20.805 20.8645C21.6886 21.5273 22.9423 21.3482 23.605 20.4646C23.8646 20.1184 24.005 19.6973 24.005 19.2646V10.7435C24.0076 9.9856 23.5791 9.29218 22.9 8.95552ZM17 19.0005C17 20.6573 15.6569 22.0005 14 22.0005H5.00002C3.34317 22.0005 2.00002 20.6573 2.00002 19.0005V11.0005C2.00002 9.34369 3.34317 8.00054 5.00002 8.00054H14C15.6569 8.00054 17 9.34369 17 11.0005V19.0005ZM22 19.2575L19 17.0215V12.9796L22 10.7436V19.2575Z" fill="black"/>
</g>
<defs>
<clipPath id="clip0_403_3270">
<rect width="24" height="24" fill="white"/>
</clipPath>
</defs>
</svg>
