<svg width="24" height="24" viewBox="0 0 24 24" fill="none" xmlns="http://www.w3.org/2000/svg">
<g clip-path="url(#clip0_403_3272)">
<path d="M12.0029 -0.00244141C5.3653 -0.00244141 -0.015625 5.37848 -0.015625 12.0161C-0.015625 18.6538 5.3653 24.0346 12.0029 24.0346C18.6406 24.0346 24.0215 18.6538 24.0215 12.0161C24.0215 5.37848 18.6406 -0.00244141 12.0029 -0.00244141ZM21.8747 10.4998V10.5028C20.9675 11.0676 19.9755 11.4832 18.9367 11.7337C18.7213 8.53064 17.6625 5.44153 15.8677 2.77973C19.0757 4.13404 21.3503 7.05726 21.8747 10.4998ZM11.9997 1.99978C12.2526 1.99978 12.4997 2.01876 12.7487 2.03779C15.2435 4.77736 16.7256 8.2882 16.9487 11.9868C15.5821 12.0335 14.2206 11.7987 12.9487 11.2968C12.7496 7.9154 11.1344 4.77459 8.49969 2.64576C9.61784 2.22122 10.8036 2.00236 11.9997 1.99978ZM6.48664 3.66478C7.42606 4.27739 8.25589 5.04337 8.94162 5.93076C5.94416 7.94081 3.60983 10.7944 2.23367 14.1307C1.34347 10.0977 3.03556 5.93371 6.48664 3.66478ZM3.35567 17.0047C4.35392 13.1864 6.70686 9.86137 9.97569 7.64976C10.5676 8.86584 10.9055 10.1898 10.9687 11.5408C8.23962 13.6146 6.52447 16.7539 6.25367 20.1708C5.07111 19.3363 4.08256 18.2564 3.35567 17.0047ZM11.9997 21.9997C10.7059 21.9994 9.42463 21.7467 8.22767 21.2557C8.20564 19.9658 8.43383 18.6839 8.89967 17.4808C12.1866 18.9399 15.8368 19.3751 19.3747 18.7297C17.4873 20.8108 14.8091 21.9983 11.9997 21.9997ZM9.79967 15.6898C10.4336 14.7073 11.2355 13.8442 12.1687 13.1398C13.5822 13.7114 15.092 14.0077 16.6167 14.0128C18.4717 14.0126 20.3018 13.5848 21.9647 12.7627C21.871 13.985 21.5513 15.1792 21.0217 16.2847C17.3292 17.4268 13.3506 17.2159 9.79967 15.6898Z" fill="black"/>
</g>
<defs>
<clipPath id="clip0_403_3272">
<rect width="24" height="24" fill="white"/>
</clipPath>
</defs>
</svg>
