<svg width="24" height="24" viewBox="0 0 24 24" fill="none" xmlns="http://www.w3.org/2000/svg">
<g clip-path="url(#clip0_403_3274)">
<path d="M20.8077 4.29061C20.7147 4.1977 20.6045 4.124 20.4831 4.07372C20.3617 4.02344 20.2316 3.99756 20.1002 3.99756C19.9688 3.99756 19.8387 4.02344 19.7173 4.07372C19.5959 4.124 19.4856 4.1977 19.3927 4.29061C19.2998 4.38352 19.2261 4.49383 19.1758 4.61522C19.1255 4.73661 19.0996 4.86672 19.0996 4.99811C19.0996 5.12951 19.1255 5.25962 19.1758 5.38101C19.2261 5.5024 19.2998 5.6127 19.3927 5.70561C21.0596 7.37652 21.9958 9.64038 21.9958 12.0006C21.9958 14.3608 21.0596 16.6247 19.3927 18.2956C19.205 18.4833 19.0996 18.7378 19.0996 19.0031C19.0996 19.2685 19.205 19.523 19.3927 19.7106C19.5803 19.8983 19.8348 20.0037 20.1002 20.0037C20.3655 20.0037 20.62 19.8983 20.8077 19.7106C22.8494 17.6642 23.9961 14.8914 23.9961 12.0006C23.9961 9.10981 22.8494 6.33704 20.8077 4.29061Z" fill="black"/>
<path d="M18.101 7.29092C18.0081 7.19768 17.8977 7.12366 17.7762 7.07307C17.6547 7.02248 17.5244 6.99633 17.3928 6.9961C17.2611 6.99586 17.1308 7.02156 17.0091 7.07172C16.8874 7.12187 16.7767 7.19551 16.6835 7.28842C16.5903 7.38133 16.5162 7.49169 16.4656 7.61321C16.4151 7.73473 16.3889 7.86502 16.3887 7.99665C16.3884 8.12828 16.4141 8.25866 16.4643 8.38036C16.5145 8.50205 16.5881 8.61268 16.681 8.70592C17.5537 9.58 18.0439 10.7647 18.0439 11.9999C18.0439 13.2351 17.5537 14.4198 16.681 15.2939C16.5881 15.3871 16.5145 15.4978 16.4643 15.6195C16.4141 15.7412 16.3884 15.8715 16.3887 16.0032C16.3889 16.1348 16.4151 16.2651 16.4656 16.3866C16.5162 16.5081 16.5903 16.6185 16.6835 16.7114C16.8718 16.899 17.1269 17.0042 17.3928 17.0037C17.5244 17.0035 17.6547 16.9773 17.7762 16.9268C17.8977 16.8762 18.0081 16.8021 18.101 16.7089C19.3483 15.4592 20.0489 13.7656 20.0489 11.9999C20.0489 10.2342 19.3483 8.54066 18.101 7.29092Z" fill="black"/>
<path d="M13.82 0.200111C10.7793 0.771379 8.07468 2.48996 6.266 5.00011H5C3.67457 5.00223 2.40403 5.52969 1.4668 6.46691C0.529579 7.40414 0.00211562 8.67468 0 10.0001L0 14.0001C0.00211562 15.3255 0.529579 16.5961 1.4668 17.5333C2.40403 18.4705 3.67457 18.998 5 19.0001H6.266C8.07504 21.5099 10.7795 23.2284 13.82 23.8001C13.8796 23.8118 13.9403 23.8175 14.001 23.8171C14.2662 23.8171 14.5206 23.7118 14.7081 23.5242C14.8956 23.3367 15.001 23.0823 15.001 22.8171V1.18611C15.0014 1.03925 14.9694 0.894101 14.9073 0.760993C14.8453 0.627886 14.7546 0.510084 14.6419 0.415959C14.5292 0.321834 14.3971 0.253698 14.255 0.216392C14.113 0.179087 13.9644 0.173528 13.82 0.200111ZM13 21.5351C10.7944 20.832 8.89788 19.3914 7.629 17.4551C7.53834 17.3156 7.41432 17.201 7.26817 17.1215C7.12201 17.0421 6.95835 17.0003 6.792 17.0001H5C4.20435 17.0001 3.44129 16.684 2.87868 16.1214C2.31607 15.5588 2 14.7958 2 14.0001V10.0001C2 9.20446 2.31607 8.4414 2.87868 7.87879C3.44129 7.31618 4.20435 7.00011 5 7.00011H6.8C6.96617 7.00009 7.12971 6.95866 7.27585 6.87957C7.42198 6.80048 7.54611 6.68621 7.637 6.54711C8.90329 4.61135 10.7969 3.17006 13 2.46511V21.5351Z" fill="black"/>
</g>
<defs>
<clipPath id="clip0_403_3274">
<rect width="24" height="24" fill="white"/>
</clipPath>
</defs>
</svg>
