<svg width="24" height="24" viewBox="0 0 24 24" fill="none" xmlns="http://www.w3.org/2000/svg">
<g clip-path="url(#clip0_403_3278)">
<path d="M23.0004 20.9992H21.7214L20.4004 17.0502C20.2015 16.4537 19.8202 15.9349 19.3104 15.5668C18.8007 15.1988 18.1881 15.0002 17.5594 14.9992H14.0004C13.47 14.9992 12.9613 14.7885 12.5862 14.4134C12.2111 14.0383 12.0004 13.5296 12.0004 12.9992H18.0004C18.2656 12.9992 18.52 12.8938 18.7075 12.7063C18.895 12.5188 19.0004 12.2644 19.0004 11.9992C19.0004 11.734 18.895 11.4796 18.7075 11.2921C18.52 11.1046 18.2656 10.9992 18.0004 10.9992H12.0004V7.99921C11.9944 7.95399 11.9854 7.90922 11.9734 7.86521C12.9201 7.6278 13.7473 7.05248 14.2992 6.24759C14.8512 5.4427 15.0898 4.46377 14.9702 3.49516C14.8506 2.52654 14.381 1.63507 13.6498 0.988622C12.9187 0.342173 11.9764 -0.0146484 11.0004 -0.0146484C10.0244 -0.0146484 9.08212 0.342173 8.35094 0.988622C7.61976 1.63507 7.15015 2.52654 7.03054 3.49516C6.91094 4.46377 7.14959 5.4427 7.70156 6.24759C8.25353 7.05248 9.08073 7.6278 10.0274 7.86521C10.0154 7.90922 10.0064 7.95399 10.0004 7.99921V12.9992C10.0025 14.0433 10.4127 15.0451 11.1435 15.7908C11.8742 16.5365 12.8676 16.967 13.9114 16.9902C13.7286 18.0831 13.2468 19.1041 12.5192 19.9399C11.7917 20.7757 10.8469 21.3937 9.78965 21.7254C8.73237 22.0571 7.60389 22.0895 6.5293 21.8191C5.45472 21.5487 4.47601 20.986 3.70167 20.1933C2.92734 19.4007 2.38763 18.4091 2.14238 17.3285C1.89713 16.2479 1.95592 15.1205 2.31222 14.0712C2.66853 13.022 3.30844 12.0919 4.16101 11.3841C5.01358 10.6763 6.04551 10.2184 7.14239 10.0612C7.40509 10.0235 7.64207 9.88307 7.80119 9.67069C7.96031 9.4583 8.02855 9.1914 7.99089 8.92871C7.95323 8.66601 7.81276 8.42903 7.60037 8.26991C7.38799 8.11078 7.12109 8.04255 6.85839 8.08021C5.38236 8.2919 3.99487 8.91191 2.85249 9.87028C1.71011 10.8286 0.858317 12.0872 0.393228 13.504C-0.0718613 14.9207 -0.131733 16.4392 0.22037 17.8882C0.572472 19.3372 1.32253 20.6589 2.38591 21.7042C3.44929 22.7496 4.78366 23.4769 6.23844 23.8041C7.69323 24.1314 9.21052 24.0455 10.6191 23.5563C12.0277 23.067 13.2715 22.1938 14.2102 21.0352C15.1488 19.8765 15.745 18.4786 15.9314 16.9992H17.5594C17.7694 16.9992 17.974 17.0652 18.1443 17.188C18.3147 17.3107 18.442 17.484 18.5084 17.6832L20.0524 22.3152C20.1187 22.5142 20.2459 22.6874 20.416 22.8102C20.5862 22.9329 20.7906 22.999 21.0004 22.9992H23.0004C23.2656 22.9992 23.52 22.8939 23.7075 22.7063C23.895 22.5188 24.0004 22.2644 24.0004 21.9992C24.0004 21.734 23.895 21.4796 23.7075 21.2921C23.52 21.1046 23.2656 20.9992 23.0004 20.9992ZM9.00039 3.99921C9.00039 3.60364 9.11769 3.21696 9.33745 2.88807C9.55722 2.55917 9.86957 2.30282 10.235 2.15145C10.6005 2.00007 11.0026 1.96047 11.3906 2.03764C11.7785 2.11481 12.1349 2.30529 12.4146 2.58499C12.6943 2.8647 12.8848 3.22106 12.962 3.60903C13.0391 3.99699 12.9995 4.39912 12.8482 4.76457C12.6968 5.13003 12.4404 5.44238 12.1115 5.66215C11.7826 5.88191 11.396 5.99921 11.0004 5.99921C10.47 5.99921 9.96125 5.78849 9.58618 5.41342C9.21111 5.03835 9.00039 4.52964 9.00039 3.99921Z" fill="black"/>
</g>
<defs>
<clipPath id="clip0_403_3278">
<rect width="24" height="24" fill="white"/>
</clipPath>
</defs>
</svg>
