<svg width="24" height="24" viewBox="0 0 24 24" fill="none" xmlns="http://www.w3.org/2000/svg">
<g clip-path="url(#clip0_403_3280)">
<path d="M10.9994 22.9993C10.9994 22.8015 11.0581 22.6082 11.1679 22.4438C11.2778 22.2793 11.434 22.1511 11.6167 22.0754C11.7994 21.9998 12.0005 21.98 12.1945 22.0185C12.3885 22.0571 12.5667 22.1524 12.7065 22.2922C12.8464 22.4321 12.9416 22.6103 12.9802 22.8042C13.0188 22.9982 12.999 23.1993 12.9233 23.382C12.8476 23.5647 12.7194 23.7209 12.555 23.8308C12.3905 23.9407 12.1972 23.9993 11.9994 23.9993C11.7342 23.9993 11.4798 23.894 11.2923 23.7064C11.1048 23.5189 10.9994 23.2645 10.9994 22.9993ZM15.5344 20.8773C15.7219 20.6898 15.8272 20.4355 15.8272 20.1703C15.8272 19.9052 15.7219 19.6509 15.5344 19.4633C14.5968 18.526 13.3252 17.9994 11.9994 17.9994C10.6736 17.9994 9.40204 18.526 8.4644 19.4633C8.28224 19.6519 8.18145 19.9045 8.18373 20.1667C8.18601 20.4289 8.29118 20.6797 8.47658 20.8651C8.66199 21.0506 8.9128 21.1557 9.175 21.158C9.4372 21.1603 9.6898 21.0595 9.8784 20.8773C10.4501 20.3324 11.2096 20.0284 11.9994 20.0284C12.7892 20.0284 13.5487 20.3324 14.1204 20.8773C14.3079 21.0648 14.5622 21.1701 14.8274 21.1701C15.0926 21.1701 15.3469 21.0648 15.5344 20.8773ZM18.3634 18.0493C18.5509 17.8618 18.6562 17.6075 18.6562 17.3423C18.6562 17.0772 18.5509 16.8229 18.3634 16.6353C16.6743 14.9499 14.3856 14.0034 11.9994 14.0034C9.61325 14.0034 7.32453 14.9499 5.6354 16.6353C5.45324 16.8239 5.35245 17.0765 5.35473 17.3387C5.35701 17.6009 5.46217 17.8517 5.64758 18.0371C5.83299 18.2226 6.0838 18.3277 6.346 18.33C6.6082 18.3323 6.8608 18.2315 7.0494 18.0493C8.3636 16.7391 10.1437 16.0034 11.9994 16.0034C13.8552 16.0034 15.6352 16.7391 16.9494 18.0493C17.1369 18.2368 17.3912 18.3421 17.6564 18.3421C17.9216 18.3421 18.1759 18.2368 18.3634 18.0493ZM5.9864 22.1603C6.00755 22.0307 6.00296 21.8982 5.9729 21.7704C5.94283 21.6425 5.88788 21.5219 5.81118 21.4152C5.73447 21.3086 5.63752 21.2182 5.52586 21.1491C5.4142 21.0799 5.29002 21.0335 5.1604 21.0123C4.40476 20.8928 3.70261 20.5486 3.1454 20.0243C2.58819 19.5001 2.20175 18.8203 2.0364 18.0733C1.9288 17.3591 2.04657 16.6291 2.37332 15.9849C2.70007 15.3407 3.21953 14.8144 3.8594 14.4793C4.32003 14.2266 4.66269 13.8027 4.81332 13.2993C4.96395 12.796 4.91046 12.2536 4.6644 11.7893C4.27556 11.0488 4.04585 10.2351 3.99001 9.40059C3.93416 8.56605 4.05342 7.72904 4.34013 6.94331C4.62684 6.15757 5.07466 5.44045 5.65486 4.83799C6.23505 4.23553 6.9348 3.76102 7.70919 3.44494C8.48357 3.12885 9.31549 2.97817 10.1516 3.00255C10.9876 3.02694 11.8093 3.22586 12.564 3.58654C13.3186 3.94723 13.9895 4.46171 14.5336 5.09696C15.0777 5.73222 15.483 6.47421 15.7234 7.27533C15.8714 7.75804 16.1351 8.19729 16.4915 8.55491C16.8479 8.91253 17.2862 9.17768 17.7684 9.32733C19.0748 9.72502 20.2054 10.5584 20.9718 11.6886C21.7383 12.8188 22.0942 14.1775 21.9804 15.5383C21.891 16.5602 21.5268 17.5389 20.9265 18.3707C20.3262 19.2026 19.5121 19.8565 18.5704 20.2633C18.3372 20.3809 18.1593 20.585 18.0746 20.8321C17.9899 21.0791 18.0053 21.3495 18.1173 21.5854C18.2294 21.8213 18.4293 22.004 18.6743 22.0944C18.9193 22.1848 19.19 22.1758 19.4284 22.0693C20.6912 21.5159 21.7807 20.631 22.5812 19.5084C23.3818 18.3859 23.8635 17.0676 23.9754 15.6933C24.1264 13.879 23.651 12.0678 22.6283 10.5616C21.6056 9.05536 20.0975 7.94525 18.3554 7.41633C18.1839 7.36302 18.0282 7.26811 17.9022 7.14004C17.7762 7.01197 17.6839 6.85473 17.6334 6.68233C17.104 4.98241 16.0227 3.50767 14.5606 2.49162C13.0985 1.47557 11.3393 0.976277 9.56149 1.07281C7.78367 1.16934 6.08884 1.85617 4.74539 3.02455C3.40193 4.19293 2.48663 5.77608 2.1444 7.52333C1.79481 9.29122 2.0698 11.1256 2.9224 12.7133C1.91741 13.2388 1.10126 14.0646 0.587574 15.0756C0.0738831 16.0867 -0.11179 17.2328 0.056401 18.3543C0.284885 19.5224 0.865666 20.5925 1.7206 21.4207C2.57554 22.2488 3.6636 22.7952 4.8384 22.9863C4.96802 23.0075 5.10053 23.0029 5.22837 22.9728C5.35621 22.9428 5.47688 22.8878 5.58348 22.8111C5.69009 22.7344 5.78054 22.6375 5.84967 22.5258C5.9188 22.4141 5.96526 22.2899 5.9864 22.1603Z" fill="black"/>
</g>
<defs>
<clipPath id="clip0_403_3280">
<rect width="24" height="24" fill="white"/>
</clipPath>
</defs>
</svg>
