<svg width="24" height="24" viewBox="0 0 24 24" fill="none" xmlns="http://www.w3.org/2000/svg">
<g clip-path="url(#clip0_403_3282)">
<path d="M0 11.9994C0 11.7342 0.105357 11.4799 0.292893 11.2923C0.48043 11.1048 0.734784 10.9994 1 10.9994H7C7.26522 10.9994 7.51957 11.1048 7.70711 11.2923C7.89464 11.4799 8 11.7342 8 11.9994C8 12.2646 7.89464 12.519 7.70711 12.7065C7.51957 12.8941 7.26522 12.9994 7 12.9994H1C0.734784 12.9994 0.48043 12.8941 0.292893 12.7065C0.105357 12.519 0 12.2646 0 11.9994ZM20.886 11.1064C21.3845 10.4836 21.7263 9.75027 21.8829 8.96803C22.0395 8.1858 22.0063 7.37741 21.786 6.61067C21.5657 5.84393 21.1648 5.14118 20.6169 4.56134C20.069 3.9815 19.39 3.54148 18.637 3.27818C17.8839 3.01487 17.0787 2.93596 16.2889 3.04804C15.499 3.16013 14.7476 3.45996 14.0975 3.92239C13.4474 4.38481 12.9177 4.99635 12.5528 5.70574C12.1878 6.41512 11.9983 7.20167 12 7.99943C12 8.26464 12.1054 8.519 12.2929 8.70653C12.4804 8.89407 12.7348 8.99943 13 8.99943C13.2652 8.99943 13.5196 8.89407 13.7071 8.70653C13.8946 8.519 14 8.26464 14 7.99943C14 7.40608 14.1759 6.82606 14.5056 6.33271C14.8352 5.83937 15.3038 5.45485 15.8519 5.22779C16.4001 5.00072 17.0033 4.94131 17.5853 5.05707C18.1672 5.17283 18.7018 5.45855 19.1213 5.87811C19.5409 6.29766 19.8266 6.83221 19.9424 7.41415C20.0581 7.9961 19.9987 8.5993 19.7716 9.14748C19.5446 9.69565 19.1601 10.1642 18.6667 10.4938C18.1734 10.8235 17.5933 10.9994 17 10.9994H11C10.7348 10.9994 10.4804 11.1048 10.2929 11.2923C10.1054 11.4799 10 11.7342 10 11.9994C10 12.2646 10.1054 12.519 10.2929 12.7065C10.4804 12.8941 10.7348 12.9994 11 12.9994H20C20.5304 12.9994 21.0391 13.2101 21.4142 13.5852C21.7893 13.9603 22 14.469 22 14.9994C21.991 17.3364 18.719 17.6474 17.943 15.6664C17.8547 15.4163 17.6706 15.2116 17.4313 15.0972C17.192 14.9828 16.9171 14.9681 16.667 15.0564C16.4169 15.1447 16.2121 15.3288 16.0977 15.5681C15.9833 15.8074 15.9687 16.0823 16.057 16.3324C17.615 20.4144 23.952 19.5784 24 14.9994C23.9983 14.0938 23.6893 13.2157 23.1236 12.5085C22.558 11.8013 21.7691 11.307 20.886 11.1064ZM11 15.9994H1C0.734784 15.9994 0.48043 16.1048 0.292893 16.2923C0.105357 16.4799 0 16.7342 0 16.9994C0 17.2646 0.105357 17.519 0.292893 17.7065C0.48043 17.8941 0.734784 17.9994 1 17.9994H11C11.5304 17.9994 12.0391 18.2101 12.4142 18.5852C12.7893 18.9603 13 19.469 13 19.9994C12.991 22.3364 9.719 22.6474 8.943 20.6664C8.89927 20.5426 8.83158 20.4286 8.74378 20.3309C8.65599 20.2332 8.54982 20.1538 8.43134 20.0972C8.31285 20.0405 8.18436 20.0078 8.05322 20.0008C7.92207 19.9938 7.79084 20.0127 7.667 20.0564C7.54316 20.1002 7.42915 20.1679 7.33148 20.2556C7.2338 20.3434 7.15438 20.4496 7.09773 20.5681C7.04109 20.6866 7.00834 20.8151 7.00135 20.9462C6.99436 21.0774 7.01327 21.2086 7.057 21.3324C8.615 25.4144 14.952 24.5784 15 19.9994C15 18.9386 14.5786 17.9211 13.8284 17.171C13.0783 16.4209 12.0609 15.9994 11 15.9994ZM1 7.99943H7C8.06087 7.99943 9.07828 7.578 9.82843 6.82785C10.5786 6.07771 11 5.06029 11 3.99943C10.952 -0.581574 4.613 -1.41457 3.057 2.66643C2.96868 2.91652 2.98333 3.19146 3.09773 3.43076C3.21213 3.67006 3.4169 3.85411 3.667 3.94243C3.9171 4.03074 4.19204 4.01609 4.43133 3.90169C4.67063 3.7873 4.85468 3.58252 4.943 3.33243C5.72 1.35043 8.991 1.66243 9 3.99943C9 4.52986 8.78929 5.03857 8.41421 5.41364C8.03914 5.78871 7.53043 5.99943 7 5.99943H1C0.734784 5.99943 0.48043 6.10478 0.292893 6.29232C0.105357 6.47986 0 6.73421 0 6.99943C0 7.26464 0.105357 7.519 0.292893 7.70653C0.48043 7.89407 0.734784 7.99943 1 7.99943Z" fill="black"/>
</g>
<defs>
<clipPath id="clip0_403_3282">
<rect width="24" height="24" fill="white"/>
</clipPath>
</defs>
</svg>
