<svg width="24" height="24" viewBox="0 0 24 24" fill="none" xmlns="http://www.w3.org/2000/svg">
<g clip-path="url(#clip0_403_3284)">
<path d="M14.5008 12.9995C14.2041 12.9995 13.9141 12.9116 13.6674 12.7467C13.4207 12.5819 13.2285 12.3477 13.1149 12.0736C13.0014 11.7995 12.9717 11.4979 13.0296 11.2069C13.0875 10.9159 13.2303 10.6487 13.4401 10.4389C13.6499 10.2291 13.9171 10.0862 14.2081 10.0284C14.4991 9.97048 14.8007 10.0002 15.0748 10.1137C15.3489 10.2273 15.5831 10.4195 15.748 10.6662C15.9128 10.9129 16.0008 11.2029 16.0008 11.4995C16.0008 11.8974 15.8427 12.2789 15.5614 12.5602C15.2801 12.8415 14.8986 12.9995 14.5008 12.9995ZM23.9257 18.1435C24.0505 18.8617 24.0168 19.5986 23.8268 20.3024C23.6369 21.0061 23.2954 21.6599 22.8262 22.2178C22.357 22.7757 21.7715 23.2242 21.1106 23.532C20.4498 23.8398 19.7297 23.9994 19.0007 23.9995H15.0008C14.7355 23.9995 14.4812 23.8942 14.2936 23.7066C14.1061 23.5191 14.0008 23.2648 14.0008 22.9995V20.7365C13.3479 20.9087 12.6759 20.9971 12.0008 20.9995C11.3252 20.9961 10.653 20.9053 10.0008 20.7295V22.9995C10.0008 23.2648 9.8954 23.5191 9.70787 23.7066C9.52033 23.8942 9.26598 23.9995 9.00076 23.9995H5.00077C4.2718 23.9994 3.55168 23.8398 2.89087 23.532C2.23006 23.2242 1.64455 22.7757 1.17535 22.2178C0.706146 21.6599 0.36461 21.0061 0.174668 20.3024C-0.0152744 19.5986 -0.049028 18.8617 0.0757717 18.1435L0.375771 16.4035C0.475529 15.8248 0.746365 15.2893 1.15335 14.8659C1.56034 14.4426 2.08482 14.1509 2.65915 14.0284C3.23349 13.906 3.83134 13.9584 4.37561 14.1789C4.91988 14.3994 5.38562 14.7779 5.71277 15.2655C6.97676 17.1235 9.40976 18.9995 12.0008 18.9995C15.1308 18.9995 18.2148 16.2205 19.1307 13.6235C19.2043 13.4283 19.3353 13.26 19.5065 13.1409C19.6778 13.0218 19.8812 12.9575 20.0897 12.9565L20.5217 12.9635C20.7154 12.9659 20.9075 12.9298 21.0871 12.8573C21.2666 12.7847 21.4299 12.6772 21.5676 12.541C21.7052 12.4048 21.8143 12.2425 21.8887 12.0638C21.9631 11.885 22.0012 11.6932 22.0007 11.4995C22.0004 11.1488 21.8772 10.8093 21.6524 10.54C21.4277 10.2707 21.1158 10.0887 20.7707 10.0255C20.558 9.98695 20.3635 9.88043 20.2163 9.72195C20.0692 9.56347 19.9774 9.36158 19.9548 9.14654C19.7492 7.18183 18.822 5.36327 17.3526 4.04296C15.8832 2.72265 13.9762 1.99451 12.0008 1.99954C6.42376 1.99954 4.89277 5.62754 3.66277 8.54354C3.43877 9.07054 3.22777 9.57354 3.00077 10.0265C5.01155 9.92021 6.97226 9.36054 8.73618 8.38939C10.5001 7.41824 12.0216 6.06077 13.1868 4.41854C13.2631 4.31164 13.3597 4.22082 13.4711 4.15126C13.5825 4.0817 13.7065 4.03476 13.836 4.01313C13.9655 3.99149 14.0981 3.99558 14.226 4.02516C14.354 4.05475 14.4749 4.10924 14.5818 4.18554C14.6887 4.26184 14.7795 4.35844 14.849 4.46984C14.9186 4.58124 14.9655 4.70525 14.9872 4.83478C15.0088 4.96432 15.0047 5.09685 14.9751 5.22481C14.9455 5.35277 14.8911 5.47364 14.8148 5.58054C13.5168 7.4207 11.8234 8.94701 9.85876 10.0475C10.1582 10.1211 10.4278 10.2851 10.6307 10.5173C10.8336 10.7495 10.96 11.0386 10.9927 11.3453C11.0253 11.6519 10.9627 11.9612 10.8133 12.2309C10.664 12.5007 10.4351 12.7179 10.1578 12.8529C9.88057 12.9879 9.56845 13.0342 9.26396 12.9854C8.95947 12.9367 8.67741 12.7952 8.45617 12.5804C8.23494 12.3656 8.08528 12.0878 8.02759 11.7849C7.9699 11.482 8.00697 11.1686 8.13376 10.8875C5.83458 11.8185 3.34857 12.1954 0.876771 11.9875C0.670743 11.9599 0.478441 11.8688 0.326608 11.7268C0.174776 11.5848 0.070962 11.3991 0.0296032 11.1954C-0.0117556 10.9917 0.011397 10.7801 0.0958413 10.5902C0.180285 10.4002 0.321824 10.2413 0.500771 10.1355C1.1053 9.44965 1.55515 8.64169 1.81977 7.76654C3.12477 4.67354 5.10077 -0.000460274 12.0008 -0.000460274C14.3551 -0.00603775 16.6355 0.821588 18.4383 2.3359C20.241 3.85022 21.4499 5.95355 21.8507 8.27354C22.4871 8.53958 23.0307 8.98772 23.4132 9.56167C23.7957 10.1356 24.0001 10.8098 24.0007 11.4995C23.999 12.3305 23.6956 13.1326 23.1467 13.7565C23.1537 13.7825 23.1717 13.8035 23.1767 13.8315L23.9257 18.1435ZM8.00076 19.9395C6.41901 19.0919 5.06664 17.873 4.05977 16.3875C3.97408 16.258 3.85783 16.1516 3.72127 16.0777C3.58472 16.0037 3.43206 15.9645 3.27677 15.9635H3.25977C3.04083 15.9681 2.83029 16.0486 2.66413 16.1913C2.49796 16.3339 2.38649 16.5298 2.34877 16.7455L2.04877 18.4845C1.9737 18.9153 1.99372 19.3573 2.10741 19.7795C2.22109 20.2018 2.42571 20.594 2.70693 20.9289C2.98814 21.2637 3.33916 21.5331 3.73539 21.718C4.13162 21.9029 4.5635 21.999 5.00077 21.9995H8.00076V19.9395ZM21.9557 18.4845L21.3277 14.8715C21.1376 14.9169 20.9439 14.9457 20.7487 14.9575C19.7399 17.0864 18.076 18.8365 16.0008 19.9515V21.9995H19.0007C19.4382 21.9994 19.8703 21.9037 20.2668 21.719C20.6633 21.5343 21.0147 21.2651 21.2962 20.9304C21.5777 20.5956 21.7826 20.2033 21.8966 19.7809C22.0105 19.3586 22.0307 18.9165 21.9557 18.4855V18.4845Z" fill="black"/>
</g>
<defs>
<clipPath id="clip0_403_3284">
<rect width="24" height="24" fill="white"/>
</clipPath>
</defs>
</svg>
