<svg width="24" height="24" viewBox="0 0 24 24" fill="none" xmlns="http://www.w3.org/2000/svg">
<g clip-path="url(#clip0_403_3288)">
<path d="M22.6102 0.208546C22.4003 0.047475 22.1351 -0.0238123 21.8726 0.0103013C21.6102 0.044415 21.372 0.181148 21.2102 0.390546L12.0002 12.3605L2.79224 0.390546C2.62791 0.187968 2.39093 0.0576179 2.13185 0.0273024C1.87277 -0.00301314 1.61209 0.0691054 1.40543 0.228274C1.19878 0.387443 1.06249 0.621062 1.02565 0.879296C0.988812 1.13753 1.05433 1.39994 1.20824 1.61055L10.7382 14.0005H6.00024C5.73502 14.0005 5.48067 14.1059 5.29313 14.2934C5.1056 14.481 5.00024 14.7353 5.00024 15.0005C5.00024 15.2658 5.1056 15.5201 5.29313 15.7077C5.48067 15.8952 5.73502 16.0005 6.00024 16.0005H11.0002V18.0005H6.00024C5.73502 18.0005 5.48067 18.1059 5.29313 18.2934C5.1056 18.481 5.00024 18.7353 5.00024 19.0005C5.00024 19.2658 5.1056 19.5201 5.29313 19.7077C5.48067 19.8952 5.73502 20.0005 6.00024 20.0005H11.0002V23.0005C11.0002 23.2658 11.1056 23.5201 11.2931 23.7077C11.4807 23.8952 11.735 24.0005 12.0002 24.0005C12.2655 24.0005 12.5198 23.8952 12.7073 23.7077C12.8949 23.5201 13.0002 23.2658 13.0002 23.0005V20.0005H18.0002C18.2655 20.0005 18.5198 19.8952 18.7073 19.7077C18.8949 19.5201 19.0002 19.2658 19.0002 19.0005C19.0002 18.7353 18.8949 18.481 18.7073 18.2934C18.5198 18.1059 18.2655 18.0005 18.0002 18.0005H13.0002V16.0005H18.0002C18.2655 16.0005 18.5198 15.8952 18.7073 15.7077C18.8949 15.5201 19.0002 15.2658 19.0002 15.0005C19.0002 14.7353 18.8949 14.481 18.7073 14.2934C18.5198 14.1059 18.2655 14.0005 18.0002 14.0005H13.2622L22.7922 1.61055C22.9539 1.40046 23.0256 1.13477 22.9915 0.87187C22.9573 0.608969 22.8202 0.370379 22.6102 0.208546Z" fill="black"/>
</g>
<defs>
<clipPath id="clip0_403_3288">
<rect width="24" height="24" fill="white"/>
</clipPath>
</defs>
</svg>
